<svg xmlns="http://www.w3.org/2000/svg" version="1.1" xmlns:xlink="http://www.w3.org/1999/xlink" xmlns:svgjs="http://svgjs.dev/svgjs" width="130" height="34" viewbox="0 0 130 34"   shape-rendering="geometricPrecision">
<g id="5c13ef2810b74eeba604f946ddd0d947" transform="translate(5, 5) ">
    <path fill="#DCDCDCFF" stroke="#808080FF" stroke-width="2"  d="M0 3L0 21Q0 21.1474 0.0144458 21.2941Q0.0288916 21.4407 0.0576442 21.5853Q0.0863967 21.7298 0.129179 21.8709Q0.171961 22.0119 0.228361 22.148Q0.284761 22.2842 0.354236 22.4142Q0.423711 22.5442 0.505591 22.6667Q0.587471 22.7893 0.680969 22.9032Q0.774466 23.0171 0.87868 23.1213Q0.982893 23.2255 1.09682 23.319Q1.21075 23.4125 1.33329 23.4944Q1.45583 23.5763 1.58581 23.6458Q1.71579 23.7152 1.85195 23.7716Q1.98811 23.828 2.12915 23.8708Q2.27018 23.9136 2.41473 23.9424Q2.55928 23.9711 2.70595 23.9856Q2.85262 24 3 24L117 24Q117.147 24 117.294 23.9856Q117.441 23.9711 117.585 23.9424Q117.73 23.9136 117.871 23.8708Q118.012 23.828 118.148 23.7716Q118.284 23.7152 118.414 23.6458Q118.544 23.5763 118.667 23.4944Q118.789 23.4125 118.903 23.319Q119.017 23.2255 119.121 23.1213Q119.226 23.0171 119.319 22.9032Q119.413 22.7893 119.494 22.6667Q119.576 22.5442 119.646 22.4142Q119.715 22.2842 119.772 22.148Q119.828 22.0119 119.871 21.8709Q119.914 21.7298 119.942 21.5853Q119.971 21.4407 119.986 21.2941Q120 21.1474 120 21L120 3Q120 2.85262 119.986 2.70595Q119.971 2.55928 119.942 2.41473Q119.914 2.27018 119.871 2.12915Q119.828 1.98811 119.772 1.85195Q119.715 1.71579 119.646 1.58581Q119.576 1.45583 119.494 1.33329Q119.413 1.21075 119.319 1.09682Q119.226 0.982893 119.121 0.87868Q119.017 0.774466 118.903 0.680969Q118.789 0.587471 118.667 0.505591Q118.544 0.423711 118.414 0.354236Q118.284 0.284761 118.148 0.228361Q118.012 0.171961 117.871 0.129179Q117.73 0.0863967 117.585 0.0576442Q117.441 0.0288916 117.294 0.0144458Q117.147 0 117 0L3 0Q2.85262 0 2.70595 0.0144458Q2.55928 0.0288916 2.41473 0.0576442Q2.27018 0.0863967 2.12915 0.129179Q1.98811 0.171961 1.85195 0.228361Q1.71579 0.284761 1.58581 0.354236Q1.45583 0.423711 1.33329 0.505591Q1.21075 0.587471 1.09682 0.680969Q0.982893 0.774466 0.87868 0.87868Q0.774466 0.982893 0.680969 1.09682Q0.587471 1.21075 0.505591 1.33329Q0.423711 1.45583 0.354236 1.58581Q0.284761 1.71579 0.228361 1.85195Q0.171961 1.98811 0.129179 2.12915Q0.0863967 2.27018 0.0576442 2.41473Q0.0288916 2.55928 0.0144458 2.70595Q0 2.85262 0 3Z"/>    
    <g transform="matrix(1.00, 0.00, 0.00, 1.00, 0.00, 0.00)">
        <path fill="#000000FF" stroke="#000000FF" stroke-linecap="round" stroke-linejoin="round" stroke-width="0.1"   d="M44.03 18L40.58 18L40.58 8.05L43.83 8.05Q45.45 8.05 46.27 8.72Q47.09 9.39 47.09 10.70L47.09 10.70Q47.09 11.40 46.69 11.93Q46.29 12.47 45.61 12.76L45.61 12.76Q46.42 12.99 46.89 13.62Q47.35 14.25 47.35 15.13L47.35 15.13Q47.35 16.47 46.49 17.23Q45.62 18 44.03 18L44.03 18ZM44.08 13.34L41.89 13.34L41.89 16.93L44.06 16.93Q44.97 16.93 45.50 16.45Q46.03 15.98 46.03 15.14L46.03 15.14Q46.03 13.34 44.08 13.34L44.08 13.34ZM41.89 9.13L41.89 12.29L43.87 12.29Q44.74 12.29 45.25 11.86Q45.77 11.43 45.77 10.69L45.77 10.69Q45.77 9.87 45.29 9.50Q44.81 9.13 43.83 9.13L43.83 9.13L41.89 9.13ZM53.69 18L53.66 17.27Q52.92 18.14 51.50 18.14L51.50 18.14Q50.31 18.14 49.69 17.45Q49.08 16.76 49.07 15.42L49.07 15.42L49.07 10.60L50.33 10.60L50.33 15.38Q50.33 17.06 51.70 17.06L51.70 17.06Q53.15 17.06 53.63 15.98L53.63 15.98L53.63 10.60L54.89 10.60L54.89 18L53.69 18ZM57.27 8.81L58.53 8.81L58.53 10.60L59.91 10.60L59.91 11.58L58.53 11.58L58.53 16.17Q58.53 16.61 58.71 16.83Q58.90 17.06 59.34 17.06L59.34 17.06Q59.56 17.06 59.95 16.97L59.95 16.97L59.95 18Q59.45 18.14 58.97 18.14L58.97 18.14Q58.13 18.14 57.70 17.62Q57.27 17.11 57.27 16.17L57.27 16.17L57.27 11.58L55.92 11.58L55.92 10.60L57.27 10.60L57.27 8.81ZM61.84 8.81L63.10 8.81L63.10 10.60L64.48 10.60L64.48 11.58L63.10 11.58L63.10 16.17Q63.10 16.61 63.29 16.83Q63.47 17.06 63.92 17.06L63.92 17.06Q64.14 17.06 64.52 16.97L64.52 16.97L64.52 18Q64.02 18.14 63.55 18.14L63.55 18.14Q62.70 18.14 62.27 17.62Q61.84 17.11 61.84 16.17L61.84 16.17L61.84 11.58L60.49 11.58L60.49 10.60L61.84 10.60L61.84 8.81ZM65.49 14.32L65.49 14.23Q65.49 13.15 65.92 12.28Q66.34 11.41 67.11 10.94Q67.87 10.47 68.85 10.47L68.85 10.47Q70.36 10.47 71.29 11.51Q72.22 12.56 72.22 14.29L72.22 14.29L72.22 14.38Q72.22 15.46 71.81 16.32Q71.40 17.18 70.63 17.66Q69.86 18.14 68.86 18.14L68.86 18.14Q67.36 18.14 66.42 17.09Q65.49 16.04 65.49 14.32L65.49 14.32ZM66.76 14.38L66.76 14.38Q66.76 15.61 67.33 16.36Q67.90 17.10 68.86 17.10L68.86 17.10Q69.82 17.10 70.39 16.35Q70.96 15.59 70.96 14.23L70.96 14.23Q70.96 13.02 70.38 12.26Q69.80 11.51 68.85 11.51L68.85 11.51Q67.91 11.51 67.33 12.25Q66.76 13.00 66.76 14.38ZM73.81 10.60L75.00 10.60L75.05 11.53Q75.89 10.47 77.26 10.47L77.26 10.47Q79.61 10.47 79.63 13.11L79.63 13.11L79.63 18L78.36 18L78.36 13.11Q78.35 12.31 78.00 11.92Q77.64 11.54 76.88 11.54L76.88 11.54Q76.26 11.54 75.80 11.87Q75.33 12.20 75.07 12.73L75.07 12.73L75.07 18L73.81 18L73.81 10.60Z"/>
    </g>
</g>
</svg>