<svg xmlns="http://www.w3.org/2000/svg" version="1.1" xmlns:xlink="http://www.w3.org/1999/xlink" xmlns:svgjs="http://svgjs.dev/svgjs" width="72" height="26" viewbox="0 0 72 26"   shape-rendering="geometricPrecision">
<g transform="translate(1, 1) ">
    <path fill="#DCDCDCFF" stroke="#808080FF" stroke-width="2"  d="M0 3L0 21Q0 21.1474 0.0144458 21.2941Q0.0288916 21.4407 0.0576442 21.5853Q0.0863967 21.7298 0.129179 21.8709Q0.171961 22.0119 0.228361 22.148Q0.284761 22.2842 0.354236 22.4142Q0.423711 22.5442 0.505591 22.6667Q0.587471 22.7893 0.680969 22.9032Q0.774466 23.0171 0.87868 23.1213Q0.982893 23.2255 1.09682 23.319Q1.21075 23.4125 1.33329 23.4944Q1.45583 23.5763 1.58581 23.6458Q1.71579 23.7152 1.85195 23.7716Q1.98811 23.828 2.12915 23.8708Q2.27018 23.9136 2.41473 23.9424Q2.55928 23.9711 2.70595 23.9856Q2.85262 24 3 24L67 24Q67.1474 24 67.2941 23.9856Q67.4407 23.9711 67.5853 23.9424Q67.7298 23.9136 67.8708 23.8708Q68.0119 23.828 68.148 23.7716Q68.2842 23.7152 68.4142 23.6458Q68.5442 23.5763 68.6667 23.4944Q68.7892 23.4125 68.9032 23.319Q69.0171 23.2255 69.1213 23.1213Q69.2255 23.0171 69.319 22.9032Q69.4125 22.7893 69.4944 22.6667Q69.5763 22.5442 69.6458 22.4142Q69.7152 22.2842 69.7716 22.148Q69.828 22.0119 69.8708 21.8709Q69.9136 21.7298 69.9424 21.5853Q69.9711 21.4407 69.9856 21.2941Q70 21.1474 70 21L70 3Q70 2.85262 69.9856 2.70595Q69.9711 2.55928 69.9424 2.41473Q69.9136 2.27018 69.8708 2.12915Q69.828 1.98811 69.7716 1.85195Q69.7152 1.71579 69.6458 1.58581Q69.5763 1.45583 69.4944 1.33329Q69.4125 1.21075 69.319 1.09682Q69.2255 0.982893 69.1213 0.87868Q69.0171 0.774466 68.9032 0.680969Q68.7892 0.587471 68.6667 0.505591Q68.5442 0.423711 68.4142 0.354236Q68.2842 0.284761 68.148 0.228361Q68.0119 0.171961 67.8708 0.129179Q67.7298 0.0863967 67.5853 0.0576442Q67.4407 0.0288916 67.2941 0.0144458Q67.1474 0 67 0L3 0Q2.85262 0 2.70595 0.0144458Q2.55928 0.0288916 2.41473 0.0576442Q2.27018 0.0863967 2.12915 0.129179Q1.98811 0.171961 1.85195 0.228361Q1.71579 0.284761 1.58581 0.354236Q1.45583 0.423711 1.33329 0.505591Q1.21075 0.587471 1.09682 0.680969Q0.982893 0.774466 0.87868 0.87868Q0.774466 0.982893 0.680969 1.09682Q0.587471 1.21075 0.505591 1.33329Q0.423711 1.45583 0.354236 1.58581Q0.284761 1.71579 0.228361 1.85195Q0.171961 1.98811 0.129179 2.12915Q0.0863967 2.27018 0.0576442 2.41473Q0.0288916 2.55928 0.0144458 2.70595Q0 2.85262 0 3Z"/>    
    <g transform="matrix(1.00, 0.00, 0.00, 1.00, 0.00, 0.00)">
        <path fill="#000000FF" stroke="#000000FF" stroke-linecap="round" stroke-linejoin="round" stroke-width="0.1"   d="M19.03 18L15.58 18L15.58 8.05L18.83 8.05Q20.45 8.05 21.27 8.72Q22.09 9.39 22.09 10.70L22.09 10.70Q22.09 11.40 21.69 11.93Q21.29 12.47 20.61 12.76L20.61 12.76Q21.42 12.99 21.89 13.62Q22.35 14.25 22.35 15.13L22.35 15.13Q22.35 16.47 21.49 17.23Q20.62 18 19.03 18L19.03 18ZM19.08 13.34L16.89 13.34L16.89 16.93L19.06 16.93Q19.97 16.93 20.50 16.45Q21.03 15.98 21.03 15.14L21.03 15.14Q21.03 13.34 19.08 13.34L19.08 13.34ZM16.89 9.13L16.89 12.29L18.87 12.29Q19.74 12.29 20.25 11.86Q20.77 11.43 20.77 10.69L20.77 10.69Q20.77 9.87 20.29 9.50Q19.81 9.13 18.83 9.13L18.83 9.13L16.89 9.13ZM28.69 18L28.66 17.27Q27.92 18.14 26.50 18.14L26.50 18.14Q25.31 18.14 24.69 17.45Q24.08 16.76 24.07 15.42L24.07 15.42L24.07 10.60L25.33 10.60L25.33 15.38Q25.33 17.06 26.70 17.06L26.70 17.06Q28.15 17.06 28.63 15.98L28.63 15.98L28.63 10.60L29.89 10.60L29.89 18L28.69 18ZM32.27 8.81L33.53 8.81L33.53 10.60L34.91 10.60L34.91 11.58L33.53 11.58L33.53 16.17Q33.53 16.61 33.71 16.83Q33.90 17.06 34.34 17.06L34.34 17.06Q34.56 17.06 34.95 16.97L34.95 16.97L34.95 18Q34.45 18.14 33.97 18.14L33.97 18.14Q33.13 18.14 32.70 17.62Q32.27 17.11 32.27 16.17L32.27 16.17L32.27 11.58L30.92 11.58L30.92 10.60L32.27 10.60L32.27 8.81ZM36.84 8.81L38.10 8.81L38.10 10.60L39.48 10.60L39.48 11.58L38.10 11.58L38.10 16.17Q38.10 16.61 38.29 16.83Q38.47 17.06 38.92 17.06L38.92 17.06Q39.14 17.06 39.52 16.97L39.52 16.97L39.52 18Q39.02 18.14 38.55 18.14L38.55 18.14Q37.70 18.14 37.27 17.62Q36.84 17.11 36.84 16.17L36.84 16.17L36.84 11.58L35.49 11.58L35.49 10.60L36.84 10.60L36.84 8.81ZM40.49 14.32L40.49 14.23Q40.49 13.15 40.92 12.28Q41.34 11.41 42.11 10.94Q42.87 10.47 43.85 10.47L43.85 10.47Q45.36 10.47 46.29 11.51Q47.22 12.56 47.22 14.29L47.22 14.29L47.22 14.38Q47.22 15.46 46.81 16.32Q46.40 17.18 45.63 17.66Q44.86 18.14 43.86 18.14L43.86 18.14Q42.36 18.14 41.42 17.09Q40.49 16.04 40.49 14.32L40.49 14.32ZM41.76 14.38L41.76 14.38Q41.76 15.61 42.33 16.36Q42.90 17.10 43.86 17.10L43.86 17.10Q44.82 17.10 45.39 16.35Q45.96 15.59 45.96 14.23L45.96 14.23Q45.96 13.02 45.38 12.26Q44.80 11.51 43.85 11.51L43.85 11.51Q42.91 11.51 42.33 12.25Q41.76 13.00 41.76 14.38ZM48.81 10.60L50.00 10.60L50.05 11.53Q50.89 10.47 52.26 10.47L52.26 10.47Q54.61 10.47 54.63 13.11L54.63 13.11L54.63 18L53.36 18L53.36 13.11Q53.35 12.31 53.00 11.92Q52.64 11.54 51.88 11.54L51.88 11.54Q51.26 11.54 50.80 11.87Q50.33 12.20 50.07 12.73L50.07 12.73L50.07 18L48.81 18L48.81 10.60Z"/>
    </g>
</g>
</svg>