<svg xmlns="http://www.w3.org/2000/svg" version="1.1" xmlns:xlink="http://www.w3.org/1999/xlink" xmlns:svgjs="http://svgjs.dev/svgjs" width="102" height="26" viewbox="0 0 102 26"   shape-rendering="geometricPrecision">
<g transform="translate(1, 1) ">
    <path fill="none" stroke="none" stroke-width="2"  d="M0 0L0 24L100 24L100 0L0 0Z"/> 
    <path fill="#FFFFFFFF" stroke="#696969FF" stroke-width="2"  d="M8 4.8L8 19.2L22.4 19.2L22.4 4.8L8 4.8Z"/> 
    <path fill="#FFFFFFFF" stroke="#696969FF" stroke-width="2.5"  d="M10.88 12L15.2 16.32L19.52 7.68L15.2 16.32L10.88 12"/>  
    <g transform="matrix(1.00, 0.00, 0.00, 1.00, 0.00, 0.00)">
        <path fill="#000000FF" stroke="#000000FF" stroke-linecap="round" stroke-linejoin="round" stroke-width="0.1"   d="M33.56 14.84L34.88 14.84Q34.69 16.42 33.71 17.28Q32.73 18.14 31.10 18.14L31.10 18.14Q29.34 18.14 28.28 16.87Q27.21 15.61 27.21 13.49L27.21 13.49L27.21 12.53Q27.21 11.14 27.71 10.09Q28.20 9.04 29.11 8.47Q30.02 7.91 31.22 7.91L31.22 7.91Q32.81 7.91 33.76 8.80Q34.72 9.68 34.88 11.25L34.88 11.25L33.56 11.25Q33.39 10.06 32.82 9.52Q32.24 8.99 31.22 8.99L31.22 8.99Q29.96 8.99 29.25 9.92Q28.53 10.85 28.53 12.57L28.53 12.57L28.53 13.53Q28.53 15.15 29.21 16.11Q29.89 17.06 31.10 17.06L31.10 17.06Q32.20 17.06 32.78 16.57Q33.37 16.07 33.56 14.84L33.56 14.84ZM37.73 7.50L37.73 11.50Q38.57 10.47 39.92 10.47L39.92 10.47Q42.27 10.47 42.29 13.11L42.29 13.11L42.29 18L41.02 18L41.02 13.11Q41.02 12.31 40.66 11.92Q40.30 11.54 39.54 11.54L39.54 11.54Q38.92 11.54 38.46 11.87Q37.99 12.20 37.73 12.73L37.73 12.73L37.73 18L36.47 18L36.47 7.50L37.73 7.50ZM47.25 18.14L47.25 18.14Q45.75 18.14 44.80 17.15Q43.86 16.16 43.86 14.51L43.86 14.51L43.86 14.27Q43.86 13.17 44.28 12.31Q44.70 11.44 45.46 10.96Q46.21 10.47 47.09 10.47L47.09 10.47Q48.53 10.47 49.33 11.42Q50.13 12.37 50.13 14.14L50.13 14.14L50.13 14.66L45.12 14.66Q45.15 15.76 45.76 16.43Q46.37 17.10 47.32 17.10L47.32 17.10Q47.99 17.10 48.45 16.83Q48.92 16.56 49.27 16.11L49.27 16.11L50.04 16.71Q49.11 18.14 47.25 18.14ZM47.09 11.51L47.09 11.51Q46.33 11.51 45.81 12.06Q45.29 12.62 45.16 13.63L45.16 13.63L48.87 13.63L48.87 13.53Q48.82 12.57 48.35 12.04Q47.89 11.51 47.09 11.51ZM54.56 17.10L54.56 17.10Q55.24 17.10 55.75 16.69Q56.25 16.28 56.31 15.67L56.31 15.67L57.50 15.67Q57.47 16.30 57.07 16.88Q56.66 17.45 55.99 17.79Q55.32 18.14 54.56 18.14L54.56 18.14Q53.05 18.14 52.16 17.13Q51.27 16.12 51.27 14.37L51.27 14.37L51.27 14.16Q51.27 13.08 51.67 12.24Q52.06 11.40 52.80 10.93Q53.55 10.47 54.56 10.47L54.56 10.47Q55.80 10.47 56.63 11.21Q57.45 11.96 57.50 13.15L57.50 13.15L56.31 13.15Q56.25 12.43 55.76 11.97Q55.27 11.51 54.56 11.51L54.56 11.51Q53.59 11.51 53.06 12.20Q52.53 12.89 52.53 14.21L52.53 14.21L52.53 14.45Q52.53 15.72 53.06 16.41Q53.59 17.10 54.56 17.10ZM63.57 18L60.99 14.58L60.20 15.40L60.20 18L58.93 18L58.93 7.50L60.20 7.50L60.20 13.85L60.87 13.04L63.18 10.60L64.72 10.60L61.84 13.69L65.05 18L63.57 18ZM69.67 18L66.22 18L66.22 8.05L69.47 8.05Q71.09 8.05 71.91 8.72Q72.73 9.39 72.73 10.70L72.73 10.70Q72.73 11.40 72.33 11.93Q71.93 12.47 71.25 12.76L71.25 12.76Q72.06 12.99 72.53 13.62Q72.99 14.25 72.99 15.13L72.99 15.13Q72.99 16.47 72.13 17.23Q71.26 18 69.67 18L69.67 18ZM69.72 13.34L67.53 13.34L67.53 16.93L69.70 16.93Q70.61 16.93 71.14 16.45Q71.67 15.98 71.67 15.14L71.67 15.14Q71.67 13.34 69.72 13.34L69.72 13.34ZM67.53 9.13L67.53 12.29L69.51 12.29Q70.38 12.29 70.89 11.86Q71.41 11.43 71.41 10.69L71.41 10.69Q71.41 9.87 70.93 9.50Q70.45 9.13 69.47 9.13L69.47 9.13L67.53 9.13ZM74.40 14.32L74.40 14.23Q74.40 13.15 74.83 12.28Q75.26 11.41 76.02 10.94Q76.78 10.47 77.76 10.47L77.76 10.47Q79.27 10.47 80.20 11.51Q81.14 12.56 81.14 14.29L81.14 14.29L81.14 14.38Q81.14 15.46 80.72 16.32Q80.31 17.18 79.54 17.66Q78.77 18.14 77.77 18.14L77.77 18.14Q76.27 18.14 75.34 17.09Q74.40 16.04 74.40 14.32L74.40 14.32ZM75.67 14.38L75.67 14.38Q75.67 15.61 76.24 16.36Q76.82 17.10 77.77 17.10L77.77 17.10Q78.74 17.10 79.30 16.35Q79.87 15.59 79.87 14.23L79.87 14.23Q79.87 13.02 79.29 12.26Q78.72 11.51 77.76 11.51L77.76 11.51Q76.82 11.51 76.25 12.25Q75.67 13.00 75.67 14.38ZM83.44 10.60L85.06 13.30L86.70 10.60L88.18 10.60L85.76 14.26L88.25 18L86.79 18L85.08 15.23L83.37 18L81.90 18L84.40 14.26L81.98 10.60L83.44 10.60Z"/>
    </g>
</g>
</svg>