<svg xmlns="http://www.w3.org/2000/svg" version="1.1" xmlns:xlink="http://www.w3.org/1999/xlink" xmlns:svgjs="http://svgjs.dev/svgjs" width="162" height="26" viewbox="0 0 162 26"   shape-rendering="geometricPrecision">
<g transform="translate(1, 1) ">
    <path fill="#FFFFFFFF" stroke="#808080FF" stroke-width="2"  d="M0 0L0 24L160 24L160 0L0 0Z"/> 
    <path fill="#00000000" stroke="#808080FF" stroke-width="2"  d="M136 0L136 24L160 24L160 0L136 0Z"/> 
    <path fill="#00000000" stroke="#696969FF" stroke-width="1.5"  d="M140.8 4.8L140.8 19.2L155.2 19.2L155.2 4.8L140.8 4.8Z"/> 
    <path fill="#696969FF" stroke="#696969FF" stroke-width="1"  d="M142.96 3.72L142.96 5.88L145.12 5.88L145.12 3.72L142.96 3.72ZM147.28 3.72L147.28 5.88L149.44 5.88L149.44 3.72L147.28 3.72ZM151.6 3.72L151.6 5.88L153.76 5.88L153.76 3.72L151.6 3.72ZM142.96 6.96L142.96 8.4L144.4 8.4L144.4 6.96L142.96 6.96ZM147.28 6.96L147.28 8.4L148.72 8.4L148.72 6.96L147.28 6.96ZM151.6 6.96L151.6 8.4L153.04 8.4L153.04 6.96L151.6 6.96ZM142.96 11.28L142.96 12.72L144.4 12.72L144.4 11.28L142.96 11.28ZM147.28 11.28L147.28 12.72L148.72 12.72L148.72 11.28L147.28 11.28ZM151.6 11.28L151.6 12.72L153.04 12.72L153.04 11.28L151.6 11.28ZM142.96 15.6L142.96 17.04L144.4 17.04L144.4 15.6L142.96 15.6ZM147.28 15.6L147.28 17.04L148.72 17.04L148.72 15.6L147.28 15.6ZM151.6 15.6L151.6 17.04L153.04 17.04L153.04 15.6L151.6 15.6Z"/> 
</g>
</svg>