<svg xmlns="http://www.w3.org/2000/svg" version="1.1" xmlns:xlink="http://www.w3.org/1999/xlink" xmlns:svgjs="http://svgjs.dev/svgjs" width="130" height="50" viewbox="0 0 130 50"   shape-rendering="geometricPrecision">
<g id="7ee5897e402e4d1e9bf0104398da7b54" transform="translate(5, 5) ">
    <path fill="none" stroke="none" stroke-width="2"  d="M0 0L0 40L120 40L120 0L0 0Z"/>    
    <g transform="matrix(1.00, 0.00, 0.00, 1.00, 0.00, 0.00)">
        <path fill="#000000FF" stroke="#000000FF" stroke-linecap="round" stroke-linejoin="round" stroke-width="1.0416666666666665"   d="M34.51 11.52L34.51 30L32.06 30L32.06 21.46L22.74 21.46L22.74 30L20.30 30L20.30 11.52L22.74 11.52L22.74 19.46L32.06 19.46L32.06 11.52L34.51 11.52ZM44.17 30.25L44.17 30.25Q41.38 30.25 39.62 28.42Q37.87 26.58 37.87 23.51L37.87 23.51L37.87 23.08Q37.87 21.04 38.65 19.43Q39.43 17.83 40.84 16.92Q42.24 16.01 43.88 16.01L43.88 16.01Q46.56 16.01 48.04 17.77Q49.53 19.54 49.53 22.83L49.53 22.83L49.53 23.80L40.22 23.80Q40.27 25.84 41.41 27.09Q42.54 28.34 44.30 28.34L44.30 28.34Q45.54 28.34 46.40 27.83Q47.27 27.32 47.91 26.48L47.91 26.48L49.35 27.60Q47.62 30.25 44.17 30.25ZM43.88 17.94L43.88 17.94Q42.46 17.94 41.49 18.97Q40.53 20.01 40.30 21.88L40.30 21.88L47.18 21.88L47.18 21.70Q47.08 19.91 46.21 18.92Q45.35 17.94 43.88 17.94ZM63.19 30L60.72 30Q60.52 29.59 60.39 28.55L60.39 28.55Q58.76 30.25 56.48 30.25L56.48 30.25Q54.45 30.25 53.15 29.10Q51.85 27.96 51.85 26.19L51.85 26.19Q51.85 24.05 53.48 22.86Q55.11 21.67 58.07 21.67L58.07 21.67L60.36 21.67L60.36 20.59Q60.36 19.36 59.62 18.63Q58.88 17.90 57.45 17.90L57.45 17.90Q56.19 17.90 55.34 18.54Q54.49 19.17 54.49 20.07L54.49 20.07L52.13 20.07Q52.13 19.04 52.86 18.09Q53.59 17.13 54.84 16.57Q56.09 16.01 57.59 16.01L57.59 16.01Q59.96 16.01 61.31 17.20Q62.65 18.38 62.70 20.47L62.70 20.47L62.70 26.79Q62.70 28.68 63.19 29.80L63.19 29.80L63.19 30ZM56.83 28.21L56.83 28.21Q57.93 28.21 58.92 27.64Q59.91 27.07 60.36 26.15L60.36 26.15L60.36 23.33L58.51 23.33Q54.20 23.33 54.20 25.86L54.20 25.86Q54.20 26.97 54.93 27.59Q55.67 28.21 56.83 28.21ZM65.81 23.20L65.81 23.02Q65.81 19.86 67.31 17.93Q68.81 16.01 71.24 16.01L71.24 16.01Q73.65 16.01 75.06 17.66L75.06 17.66L75.06 10.50L77.41 10.50L77.41 30L75.25 30L75.13 28.53Q73.72 30.25 71.21 30.25L71.21 30.25Q68.82 30.25 67.32 28.30Q65.81 26.34 65.81 23.20L65.81 23.20ZM68.16 23.28L68.16 23.28Q68.16 25.62 69.13 26.94Q70.09 28.26 71.79 28.26L71.79 28.26Q74.03 28.26 75.06 26.25L75.06 26.25L75.06 19.95Q74.00 18.00 71.82 18.00L71.82 18.00Q70.09 18.00 69.13 19.34Q68.16 20.67 68.16 23.28ZM86.75 30.25L86.75 30.25Q83.96 30.25 82.20 28.42Q80.45 26.58 80.45 23.51L80.45 23.51L80.45 23.08Q80.45 21.04 81.23 19.43Q82.01 17.83 83.42 16.92Q84.82 16.01 86.46 16.01L86.46 16.01Q89.14 16.01 90.62 17.77Q92.11 19.54 92.11 22.83L92.11 22.83L92.11 23.80L82.80 23.80Q82.85 25.84 83.99 27.09Q85.12 28.34 86.88 28.34L86.88 28.34Q88.12 28.34 88.98 27.83Q89.85 27.32 90.49 26.48L90.49 26.48L91.93 27.60Q90.20 30.25 86.75 30.25ZM86.46 17.94L86.46 17.94Q85.04 17.94 84.07 18.97Q83.11 20.01 82.88 21.88L82.88 21.88L89.76 21.88L89.76 21.70Q89.66 19.91 88.79 18.92Q87.93 17.94 86.46 17.94ZM101.46 16.19L101.46 18.37Q100.93 18.28 100.31 18.28L100.31 18.28Q98.00 18.28 97.17 20.25L97.17 20.25L97.17 30L94.82 30L94.82 16.26L97.11 16.26L97.15 17.85Q98.30 16.01 100.42 16.01L100.42 16.01Q101.11 16.01 101.46 16.19L101.46 16.19Z"/>
    </g>
</g>
</svg>