<svg xmlns="http://www.w3.org/2000/svg" version="1.1" xmlns:xlink="http://www.w3.org/1999/xlink" xmlns:svgjs="http://svgjs.dev/svgjs" width="102" height="42" viewbox="0 0 102 42"   shape-rendering="geometricPrecision">
<g transform="translate(1, 1) ">
    <path fill="none" stroke="none" stroke-width="2"  d="M0 0L0 40L100 40L100 0L0 0Z"/>    
    <g transform="matrix(1.00, 0.00, 0.00, 1.00, 0.00, 0.00)">
        <path fill="#000000FF" stroke="#000000FF" stroke-linecap="round" stroke-linejoin="round" stroke-width="1.0416666666666665"   d="M24.51 11.52L24.51 30L22.06 30L22.06 21.46L12.74 21.46L12.74 30L10.30 30L10.30 11.52L12.74 11.52L12.74 19.46L22.06 19.46L22.06 11.52L24.51 11.52ZM34.17 30.25L34.17 30.25Q31.38 30.25 29.62 28.42Q27.87 26.58 27.87 23.51L27.87 23.51L27.87 23.08Q27.87 21.04 28.65 19.43Q29.43 17.83 30.84 16.92Q32.24 16.01 33.88 16.01L33.88 16.01Q36.56 16.01 38.04 17.77Q39.53 19.54 39.53 22.83L39.53 22.83L39.53 23.80L30.22 23.80Q30.27 25.84 31.41 27.09Q32.54 28.34 34.30 28.34L34.30 28.34Q35.54 28.34 36.40 27.83Q37.27 27.32 37.91 26.48L37.91 26.48L39.35 27.60Q37.62 30.25 34.17 30.25ZM33.88 17.94L33.88 17.94Q32.46 17.94 31.49 18.97Q30.53 20.01 30.30 21.88L30.30 21.88L37.18 21.88L37.18 21.70Q37.08 19.91 36.21 18.92Q35.35 17.94 33.88 17.94ZM53.19 30L50.72 30Q50.52 29.59 50.39 28.55L50.39 28.55Q48.76 30.25 46.48 30.25L46.48 30.25Q44.45 30.25 43.15 29.10Q41.85 27.96 41.85 26.19L41.85 26.19Q41.85 24.05 43.48 22.86Q45.11 21.67 48.07 21.67L48.07 21.67L50.36 21.67L50.36 20.59Q50.36 19.36 49.62 18.63Q48.88 17.90 47.45 17.90L47.45 17.90Q46.19 17.90 45.34 18.54Q44.49 19.17 44.49 20.07L44.49 20.07L42.13 20.07Q42.13 19.04 42.86 18.09Q43.59 17.13 44.84 16.57Q46.09 16.01 47.59 16.01L47.59 16.01Q49.96 16.01 51.31 17.20Q52.65 18.38 52.70 20.47L52.70 20.47L52.70 26.79Q52.70 28.68 53.19 29.80L53.19 29.80L53.19 30ZM46.83 28.21L46.83 28.21Q47.93 28.21 48.92 27.64Q49.91 27.07 50.36 26.15L50.36 26.15L50.36 23.33L48.51 23.33Q44.20 23.33 44.20 25.86L44.20 25.86Q44.20 26.97 44.93 27.59Q45.67 28.21 46.83 28.21ZM55.81 23.20L55.81 23.02Q55.81 19.86 57.31 17.93Q58.81 16.01 61.24 16.01L61.24 16.01Q63.65 16.01 65.06 17.66L65.06 17.66L65.06 10.50L67.41 10.50L67.41 30L65.25 30L65.13 28.53Q63.72 30.25 61.21 30.25L61.21 30.25Q58.82 30.25 57.32 28.30Q55.81 26.34 55.81 23.20L55.81 23.20ZM58.16 23.28L58.16 23.28Q58.16 25.62 59.13 26.94Q60.09 28.26 61.79 28.26L61.79 28.26Q64.03 28.26 65.06 26.25L65.06 26.25L65.06 19.95Q64.00 18.00 61.82 18.00L61.82 18.00Q60.09 18.00 59.13 19.34Q58.16 20.67 58.16 23.28ZM76.75 30.25L76.75 30.25Q73.96 30.25 72.20 28.42Q70.45 26.58 70.45 23.51L70.45 23.51L70.45 23.08Q70.45 21.04 71.23 19.43Q72.01 17.83 73.42 16.92Q74.82 16.01 76.46 16.01L76.46 16.01Q79.14 16.01 80.62 17.77Q82.11 19.54 82.11 22.83L82.11 22.83L82.11 23.80L72.80 23.80Q72.85 25.84 73.99 27.09Q75.12 28.34 76.88 28.34L76.88 28.34Q78.12 28.34 78.98 27.83Q79.85 27.32 80.49 26.48L80.49 26.48L81.93 27.60Q80.20 30.25 76.75 30.25ZM76.46 17.94L76.46 17.94Q75.04 17.94 74.07 18.97Q73.11 20.01 72.88 21.88L72.88 21.88L79.76 21.88L79.76 21.70Q79.66 19.91 78.79 18.92Q77.93 17.94 76.46 17.94ZM91.46 16.19L91.46 18.37Q90.93 18.28 90.31 18.28L90.31 18.28Q88.00 18.28 87.17 20.25L87.17 20.25L87.17 30L84.82 30L84.82 16.26L87.11 16.26L87.15 17.85Q88.30 16.01 90.42 16.01L90.42 16.01Q91.11 16.01 91.46 16.19L91.46 16.19Z"/>
    </g>
</g>
</svg>