<svg xmlns="http://www.w3.org/2000/svg" version="1.1" xmlns:xlink="http://www.w3.org/1999/xlink" xmlns:svgjs="http://svgjs.dev/svgjs" width="282" height="26" viewbox="0 0 282 26"   shape-rendering="geometricPrecision">
<g transform="translate(1, 1) ">
    <path fill="#FFFFFFFF" stroke="#808080FF" stroke-width="0.5"  d="M0 0L0 24L280 24L280 0L0 0Z"/> 
    <path fill="#DCDCDCFF" stroke="#808080FF" stroke-width="0.5"  d="M0 0L0 24L24 24L24 0L0 0ZM256 0L256 24L280 24L280 0L256 0Z"/> 
    <path fill="#696969FF" stroke="#696969FF" stroke-width="1"  d="M6 12L18 17L18 7L6 12M274 12L262 17L262 7L274 12"/> 
    <path fill="#696969FF" stroke="#696969FF" stroke-width="1"  d="M91 7L91 17L149.8 17L149.8 7L91 7Z"/> 
</g>
</svg>