<svg xmlns="http://www.w3.org/2000/svg" version="1.1" xmlns:xlink="http://www.w3.org/1999/xlink" xmlns:svgjs="http://svgjs.dev/svgjs" width="62" height="26" viewbox="0 0 62 26"   shape-rendering="geometricPrecision">
<g transform="translate(1, 1) ">
    <path fill="none" stroke="none" stroke-width="2"  d="M0 0L0 24L60 24L60 0L0 0Z"/>    
    <g transform="matrix(1.00, 0.00, 0.00, 1.00, 0.00, 0.00)">
        <path fill="#000000FF" stroke="#000000FF" stroke-linecap="round" stroke-linejoin="round" stroke-width="0.1"   d="M15.57 8.05L15.57 16.93L20.28 16.93L20.28 18L14.25 18L14.25 8.05L15.57 8.05ZM27.47 18L26.15 18Q26.04 17.78 25.97 17.22L25.97 17.22Q25.09 18.14 23.86 18.14L23.86 18.14Q22.77 18.14 22.07 17.52Q21.37 16.90 21.37 15.95L21.37 15.95Q21.37 14.79 22.25 14.15Q23.13 13.52 24.72 13.52L24.72 13.52L25.95 13.52L25.95 12.93Q25.95 12.27 25.55 11.88Q25.16 11.49 24.38 11.49L24.38 11.49Q23.71 11.49 23.25 11.83Q22.79 12.17 22.79 12.65L22.79 12.65L21.52 12.65Q21.52 12.10 21.91 11.58Q22.31 11.07 22.98 10.77Q23.65 10.47 24.46 10.47L24.46 10.47Q25.74 10.47 26.46 11.11Q27.19 11.75 27.21 12.87L27.21 12.87L27.21 16.27Q27.21 17.29 27.47 17.89L27.47 17.89L27.47 18ZM24.05 17.04L24.05 17.04Q24.64 17.04 25.18 16.73Q25.71 16.42 25.95 15.93L25.95 15.93L25.95 14.41L24.96 14.41Q22.63 14.41 22.63 15.77L22.63 15.77Q22.63 16.37 23.03 16.70Q23.43 17.04 24.05 17.04ZM35.46 14.27L35.46 14.38Q35.46 16.08 34.68 17.11Q33.90 18.14 32.59 18.14L32.59 18.14Q31.19 18.14 30.42 17.15L30.42 17.15L30.36 18L29.20 18L29.20 7.50L30.46 7.50L30.46 11.42Q31.23 10.47 32.57 10.47Q33.92 10.47 34.69 11.49Q35.46 12.50 35.46 14.27L35.46 14.27ZM34.19 14.24L34.19 14.24Q34.19 12.95 33.69 12.24Q33.20 11.54 32.26 11.54L32.26 11.54Q31.01 11.54 30.46 12.70L30.46 12.70L30.46 15.90Q31.04 17.06 32.27 17.06L32.27 17.06Q33.18 17.06 33.69 16.36Q34.19 15.66 34.19 14.24ZM40.12 18.14L40.12 18.14Q38.62 18.14 37.67 17.15Q36.73 16.16 36.73 14.51L36.73 14.51L36.73 14.27Q36.73 13.17 37.15 12.31Q37.57 11.44 38.33 10.96Q39.08 10.47 39.96 10.47L39.96 10.47Q41.41 10.47 42.21 11.42Q43.01 12.37 43.01 14.14L43.01 14.14L43.01 14.66L37.99 14.66Q38.02 15.76 38.63 16.43Q39.25 17.10 40.19 17.10L40.19 17.10Q40.86 17.10 41.32 16.83Q41.79 16.56 42.14 16.11L42.14 16.11L42.91 16.71Q41.98 18.14 40.12 18.14ZM39.96 11.51L39.96 11.51Q39.20 11.51 38.68 12.06Q38.16 12.62 38.04 13.63L38.04 13.63L41.74 13.63L41.74 13.53Q41.69 12.57 41.22 12.04Q40.76 11.51 39.96 11.51ZM45.84 7.50L45.84 18L44.58 18L44.58 7.50L45.84 7.50Z"/>
    </g>
</g>
</svg>