<svg xmlns="http://www.w3.org/2000/svg" version="1.1" xmlns:xlink="http://www.w3.org/1999/xlink" xmlns:svgjs="http://svgjs.dev/svgjs" width="110" height="34" viewbox="0 0 110 34"   shape-rendering="geometricPrecision">
<g id="1aec0bf23b1c4307b30f589590e5567b" transform="translate(5, 5) ">
    <path fill="none" stroke="none" stroke-width="2"  d="M0 0L0 24L100 24L100 0L0 0Z"/>    
    <g transform="matrix(1.00, 0.00, 0.00, 1.00, 0.00, 0.00)">
        <path fill="#000000FF" stroke="#000000FF" stroke-linecap="round" stroke-linejoin="round" stroke-width="0.1"   d="M35.57 8.05L35.57 16.93L40.28 16.93L40.28 18L34.25 18L34.25 8.05L35.57 8.05ZM47.47 18L46.15 18Q46.04 17.78 45.97 17.22L45.97 17.22Q45.09 18.14 43.86 18.14L43.86 18.14Q42.77 18.14 42.07 17.52Q41.37 16.90 41.37 15.95L41.37 15.95Q41.37 14.79 42.25 14.15Q43.13 13.52 44.72 13.52L44.72 13.52L45.95 13.52L45.95 12.93Q45.95 12.27 45.55 11.88Q45.16 11.49 44.38 11.49L44.38 11.49Q43.71 11.49 43.25 11.83Q42.79 12.17 42.79 12.65L42.79 12.65L41.52 12.65Q41.52 12.10 41.91 11.58Q42.31 11.07 42.98 10.77Q43.65 10.47 44.46 10.47L44.46 10.47Q45.74 10.47 46.46 11.11Q47.19 11.75 47.21 12.87L47.21 12.87L47.21 16.27Q47.21 17.29 47.47 17.89L47.47 17.89L47.47 18ZM44.05 17.04L44.05 17.04Q44.64 17.04 45.18 16.73Q45.71 16.42 45.95 15.93L45.95 15.93L45.95 14.41L44.96 14.41Q42.63 14.41 42.63 15.77L42.63 15.77Q42.63 16.37 43.03 16.70Q43.43 17.04 44.05 17.04ZM55.46 14.27L55.46 14.38Q55.46 16.08 54.68 17.11Q53.90 18.14 52.59 18.14L52.59 18.14Q51.19 18.14 50.42 17.15L50.42 17.15L50.36 18L49.20 18L49.20 7.50L50.46 7.50L50.46 11.42Q51.23 10.47 52.57 10.47Q53.92 10.47 54.69 11.49Q55.46 12.50 55.46 14.27L55.46 14.27ZM54.19 14.24L54.19 14.24Q54.19 12.95 53.69 12.24Q53.20 11.54 52.26 11.54L52.26 11.54Q51.01 11.54 50.46 12.70L50.46 12.70L50.46 15.90Q51.04 17.06 52.27 17.06L52.27 17.06Q53.18 17.06 53.69 16.36Q54.19 15.66 54.19 14.24ZM60.12 18.14L60.12 18.14Q58.62 18.14 57.67 17.15Q56.73 16.16 56.73 14.51L56.73 14.51L56.73 14.27Q56.73 13.17 57.15 12.31Q57.57 11.44 58.33 10.96Q59.08 10.47 59.96 10.47L59.96 10.47Q61.41 10.47 62.21 11.42Q63.01 12.37 63.01 14.14L63.01 14.14L63.01 14.66L57.99 14.66Q58.02 15.76 58.63 16.43Q59.25 17.10 60.19 17.10L60.19 17.10Q60.86 17.10 61.32 16.83Q61.79 16.56 62.14 16.11L62.14 16.11L62.91 16.71Q61.98 18.14 60.12 18.14ZM59.96 11.51L59.96 11.51Q59.20 11.51 58.68 12.06Q58.16 12.62 58.04 13.63L58.04 13.63L61.74 13.63L61.74 13.53Q61.69 12.57 61.22 12.04Q60.76 11.51 59.96 11.51ZM65.84 7.50L65.84 18L64.58 18L64.58 7.50L65.84 7.50Z"/>
    </g>
</g>
</svg>