<svg xmlns="http://www.w3.org/2000/svg" version="1.1" xmlns:xlink="http://www.w3.org/1999/xlink" xmlns:svgjs="http://svgjs.dev/svgjs" width="62" height="26" viewbox="0 0 62 26"   shape-rendering="geometricPrecision">
<g transform="translate(1, 1) ">
    <path fill="none" stroke="none" stroke-width="2"  d="M0 0L0 24L60 24L60 0L0 0Z"/>    
    <g transform="matrix(1.00, 0.00, 0.00, 1.00, 0.00, 0.00)">
        <path fill="#0000FFFF" stroke="#0000FFFF" stroke-linecap="round" stroke-linejoin="round" stroke-width="0.1"   d="M19.60 8.05L19.60 16.93L24.32 16.93L24.32 18L18.28 18L18.28 8.05L19.60 8.05ZM26.99 10.60L26.99 18L25.72 18L25.72 10.60L26.99 10.60ZM25.62 8.64L25.62 8.64Q25.62 8.33 25.81 8.12Q26.00 7.91 26.37 7.91Q26.74 7.91 26.93 8.12Q27.12 8.33 27.12 8.64Q27.12 8.95 26.93 9.15Q26.74 9.36 26.37 9.36Q26.00 9.36 25.81 9.15Q25.62 8.95 25.62 8.64ZM29.01 10.60L30.21 10.60L30.25 11.53Q31.10 10.47 32.46 10.47L32.46 10.47Q34.81 10.47 34.83 13.11L34.83 13.11L34.83 18L33.56 18L33.56 13.11Q33.56 12.31 33.20 11.92Q32.84 11.54 32.08 11.54L32.08 11.54Q31.47 11.54 31.00 11.87Q30.54 12.20 30.28 12.73L30.28 12.73L30.28 18L29.01 18L29.01 10.60ZM41.38 18L38.80 14.58L38.01 15.40L38.01 18L36.74 18L36.74 7.50L38.01 7.50L38.01 13.85L38.69 13.04L40.99 10.60L42.53 10.60L39.65 13.69L42.86 18L41.38 18Z"/>
        <rect x="17.12451171875" y="20" width="25.7509765625" height="2" fill="#0000FFFF" />
    </g>
</g>
</svg>