<svg xmlns="http://www.w3.org/2000/svg" version="1.1" xmlns:xlink="http://www.w3.org/1999/xlink" xmlns:svgjs="http://svgjs.dev/svgjs" width="110" height="34" viewbox="0 0 110 34"   shape-rendering="geometricPrecision">
<g id="e4f24cbe784b4287845f01728008faa1" transform="translate(5, 5) ">
    <path fill="none" stroke="none" stroke-width="2"  d="M0 0L0 24L100 24L100 0L0 0Z"/>    
    <g transform="matrix(1.00, 0.00, 0.00, 1.00, 0.00, 0.00)">
        <path fill="#0000FFFF" stroke="#0000FFFF" stroke-linecap="round" stroke-linejoin="round" stroke-width="0.1"   d="M39.60 8.05L39.60 16.93L44.32 16.93L44.32 18L38.28 18L38.28 8.05L39.60 8.05ZM46.99 10.60L46.99 18L45.72 18L45.72 10.60L46.99 10.60ZM45.62 8.64L45.62 8.64Q45.62 8.33 45.81 8.12Q46.00 7.91 46.37 7.91Q46.74 7.91 46.93 8.12Q47.12 8.33 47.12 8.64Q47.12 8.95 46.93 9.15Q46.74 9.36 46.37 9.36Q46.00 9.36 45.81 9.15Q45.62 8.95 45.62 8.64ZM49.01 10.60L50.21 10.60L50.25 11.53Q51.10 10.47 52.46 10.47L52.46 10.47Q54.81 10.47 54.83 13.11L54.83 13.11L54.83 18L53.56 18L53.56 13.11Q53.56 12.31 53.20 11.92Q52.84 11.54 52.08 11.54L52.08 11.54Q51.47 11.54 51.00 11.87Q50.54 12.20 50.28 12.73L50.28 12.73L50.28 18L49.01 18L49.01 10.60ZM61.38 18L58.80 14.58L58.01 15.40L58.01 18L56.74 18L56.74 7.50L58.01 7.50L58.01 13.85L58.69 13.04L60.99 10.60L62.53 10.60L59.65 13.69L62.86 18L61.38 18Z"/>
        <rect x="37.12451171875" y="20" width="25.7509765625" height="2" fill="#0000FFFF" />
    </g>
</g>
</svg>