<svg xmlns="http://www.w3.org/2000/svg" version="1.1" xmlns:xlink="http://www.w3.org/1999/xlink" xmlns:svgjs="http://svgjs.dev/svgjs" width="170" height="90" viewbox="0 0 170 90"   shape-rendering="geometricPrecision">
<g id="7faeabdc80ef465abc9b11352b5c2502" transform="translate(5, 5) ">
    <path fill="none" stroke="none" stroke-width="2"  d="M0 0L0 80L160 80L160 0L0 0Z"/>    
    <g transform="matrix(1.00, 0.00, 0.00, 1.00, 0.00, 0.00)">
        <path fill="#000000FF" stroke="#000000FF" stroke-linecap="round" stroke-linejoin="round" stroke-width="0.1"   d="M11.16 11.84L12.48 11.84Q12.29 13.42 11.31 14.28Q10.33 15.14 8.70 15.14L8.70 15.14Q6.94 15.14 5.88 13.87Q4.81 12.61 4.81 10.49L4.81 10.49L4.81 9.53Q4.81 8.14 5.31 7.09Q5.80 6.04 6.71 5.47Q7.62 4.91 8.82 4.91L8.82 4.91Q10.41 4.91 11.36 5.80Q12.32 6.68 12.48 8.25L12.48 8.25L11.16 8.25Q10.99 7.06 10.42 6.52Q9.84 5.99 8.82 5.99L8.82 5.99Q7.56 5.99 6.85 6.92Q6.13 7.85 6.13 9.57L6.13 9.57L6.13 10.53Q6.13 12.15 6.81 13.11Q7.49 14.06 8.70 14.06L8.70 14.06Q9.80 14.06 10.38 13.57Q10.97 13.07 11.16 11.84L11.16 11.84ZM13.73 11.32L13.73 11.23Q13.73 10.15 14.16 9.28Q14.59 8.41 15.35 7.94Q16.11 7.47 17.09 7.47L17.09 7.47Q18.60 7.47 19.53 8.51Q20.47 9.56 20.47 11.29L20.47 11.29L20.47 11.38Q20.47 12.46 20.05 13.32Q19.64 14.18 18.87 14.66Q18.10 15.14 17.10 15.14L17.10 15.14Q15.60 15.14 14.67 14.09Q13.73 13.04 13.73 11.32L13.73 11.32ZM15.01 11.38L15.01 11.38Q15.01 12.61 15.58 13.36Q16.15 14.10 17.10 14.10L17.10 14.10Q18.07 14.10 18.64 13.35Q19.20 12.59 19.20 11.23L19.20 11.23Q19.20 10.02 18.63 9.26Q18.05 8.51 17.09 8.51L17.09 8.51Q16.15 8.51 15.58 9.25Q15.01 10.00 15.01 11.38ZM22.05 7.60L23.25 7.60L23.29 8.53Q24.14 7.47 25.51 7.47L25.51 7.47Q27.85 7.47 27.87 10.11L27.87 10.11L27.87 15L26.61 15L26.61 10.11Q26.60 9.31 26.24 8.92Q25.88 8.54 25.12 8.54L25.12 8.54Q24.51 8.54 24.04 8.87Q23.58 9.20 23.32 9.73L23.32 9.73L23.32 15L22.05 15L22.05 7.60ZM30.23 5.81L31.49 5.81L31.49 7.60L32.88 7.60L32.88 8.58L31.49 8.58L31.49 13.17Q31.49 13.61 31.68 13.83Q31.86 14.06 32.31 14.06L32.31 14.06Q32.53 14.06 32.91 13.97L32.91 13.97L32.91 15Q32.41 15.14 31.94 15.14L31.94 15.14Q31.09 15.14 30.66 14.62Q30.23 14.11 30.23 13.17L30.23 13.17L30.23 8.58L28.88 8.58L28.88 7.60L30.23 7.60L30.23 5.81ZM37.42 15.14L37.42 15.14Q35.92 15.14 34.97 14.15Q34.03 13.16 34.03 11.51L34.03 11.51L34.03 11.27Q34.03 10.17 34.45 9.31Q34.87 8.44 35.63 7.96Q36.38 7.47 37.26 7.47L37.26 7.47Q38.71 7.47 39.51 8.42Q40.31 9.37 40.31 11.14L40.31 11.14L40.31 11.66L35.29 11.66Q35.32 12.76 35.93 13.43Q36.55 14.10 37.49 14.10L37.49 14.10Q38.16 14.10 38.62 13.83Q39.09 13.56 39.44 13.11L39.44 13.11L40.21 13.71Q39.28 15.14 37.42 15.14ZM37.26 8.51L37.26 8.51Q36.50 8.51 35.98 9.06Q35.46 9.62 35.34 10.63L35.34 10.63L39.04 10.63L39.04 10.53Q38.99 9.57 38.52 9.04Q38.06 8.51 37.26 8.51ZM41.77 7.60L42.96 7.60L43.01 8.53Q43.85 7.47 45.22 7.47L45.22 7.47Q47.57 7.47 47.59 10.11L47.59 10.11L47.59 15L46.32 15L46.32 10.11Q46.31 9.31 45.96 8.92Q45.60 8.54 44.84 8.54L44.84 8.54Q44.22 8.54 43.76 8.87Q43.29 9.20 43.03 9.73L43.03 9.73L43.03 15L41.77 15L41.77 7.60ZM49.94 5.81L51.21 5.81L51.21 7.60L52.59 7.60L52.59 8.58L51.21 8.58L51.21 13.17Q51.21 13.61 51.39 13.83Q51.58 14.06 52.02 14.06L52.02 14.06Q52.24 14.06 52.62 13.97L52.62 13.97L52.62 15Q52.13 15.14 51.65 15.14L51.65 15.14Q50.81 15.14 50.38 14.62Q49.94 14.11 49.94 13.17L49.94 13.17L49.94 8.58L48.60 8.58L48.60 7.60L49.94 7.60L49.94 5.81ZM54.09 14.34L54.09 14.34Q54.09 14.01 54.29 13.79Q54.48 13.57 54.87 13.57Q55.26 13.57 55.46 13.79Q55.67 14.01 55.67 14.34L55.67 14.34Q55.67 14.65 55.46 14.86Q55.26 15.08 54.87 15.08Q54.48 15.08 54.29 14.86Q54.09 14.65 54.09 14.34ZM57.78 14.34L57.78 14.34Q57.78 14.01 57.97 13.79Q58.17 13.57 58.56 13.57Q58.95 13.57 59.15 13.79Q59.35 14.01 59.35 14.34L59.35 14.34Q59.35 14.65 59.15 14.86Q58.95 15.08 58.56 15.08Q58.17 15.08 57.97 14.86Q57.78 14.65 57.78 14.34ZM61.46 14.34L61.46 14.34Q61.46 14.01 61.66 13.79Q61.85 13.57 62.24 13.57Q62.63 13.57 62.83 13.79Q63.04 14.01 63.04 14.34L63.04 14.34Q63.04 14.65 62.83 14.86Q62.63 15.08 62.24 15.08Q61.85 15.08 61.66 14.86Q61.46 14.65 61.46 14.34Z"/>
    </g>
</g>
</svg>