<svg xmlns="http://www.w3.org/2000/svg" version="1.1" xmlns:xlink="http://www.w3.org/1999/xlink" xmlns:svgjs="http://svgjs.dev/svgjs" width="282" height="212" viewbox="0 0 282 212"   shape-rendering="geometricPrecision">
<g transform="translate(1, 1) ">
    <path fill="#FFFFFFFF" stroke="#808080FF" stroke-width="2"  d="M0 0L0 210L280 210L280 0L0 0Z"/> 
    <path fill="#696969FF" stroke="#696969FF" stroke-width="1"  d="M28 178.5L140 84L182 105L210 42L252 178.5L28 178.5M98 42Q97.6563 42 97.313 42.0169Q96.9698 42.0337 96.6278 42.0674Q96.2857 42.1011 95.9458 42.1515Q95.6058 42.202 95.2687 42.269Q94.9317 42.3361 94.5983 42.4196Q94.2649 42.5031 93.936 42.6028Q93.6071 42.7026 93.2835 42.8184Q92.9599 42.9342 92.6424 43.0657Q92.3249 43.1972 92.0142 43.3441Q91.7035 43.4911 91.4004 43.6531Q91.0973 43.8151 90.8026 43.9918Q90.5078 44.1685 90.222 44.3594Q89.9362 44.5504 89.6602 44.7551Q89.3842 44.9598 89.1185 45.1779Q88.8528 45.3959 88.5982 45.6267Q88.3435 45.8575 88.1005 46.1005Q87.8575 46.3435 87.6267 46.5982Q87.3959 46.8528 87.1779 47.1185Q86.9598 47.3842 86.7551 47.6602Q86.5504 47.9362 86.3594 48.222Q86.1685 48.5078 85.9918 48.8026Q85.8151 49.0973 85.6531 49.4004Q85.4911 49.7035 85.3441 50.0142Q85.1972 50.3249 85.0657 50.6424Q84.9342 50.9599 84.8184 51.2835Q84.7026 51.6071 84.6028 51.936Q84.5031 52.2649 84.4196 52.5983Q84.3361 52.9317 84.269 53.2687Q84.202 53.6058 84.1515 53.9458Q84.1011 54.2857 84.0674 54.6278Q84.0337 54.9698 84.0169 55.313Q84 55.6563 84 56Q84 56.3437 84.0169 56.6869Q84.0337 57.0302 84.0674 57.3722Q84.1011 57.7143 84.1515 58.0542Q84.202 58.3942 84.269 58.7313Q84.3361 59.0683 84.4196 59.4017Q84.5031 59.7351 84.6028 60.064Q84.7026 60.3929 84.8184 60.7164Q84.9342 61.04 85.0657 61.3576Q85.1972 61.6751 85.3441 61.9858Q85.4911 62.2964 85.6531 62.5995Q85.8151 62.9026 85.9918 63.1974Q86.1685 63.4922 86.3594 63.778Q86.5504 64.0637 86.7551 64.3398Q86.9598 64.6158 87.1778 64.8815Q87.3959 65.1472 87.6267 65.4018Q87.8575 65.6565 88.1005 65.8995Q88.3435 66.1425 88.5982 66.3733Q88.8528 66.6041 89.1185 66.8221Q89.3842 67.0402 89.6602 67.2449Q89.9362 67.4496 90.222 67.6406Q90.5078 67.8315 90.8026 68.0082Q91.0973 68.1849 91.4004 68.3469Q91.7035 68.5089 92.0142 68.6558Q92.3249 68.8028 92.6424 68.9343Q92.9599 69.0658 93.2835 69.1816Q93.6071 69.2974 93.936 69.3972Q94.2649 69.4969 94.5983 69.5804Q94.9317 69.6639 95.2687 69.731Q95.6058 69.798 95.9458 69.8485Q96.2857 69.8989 96.6278 69.9326Q96.9698 69.9663 97.313 69.9831Q97.6563 70 98 70Q98.3437 70 98.687 69.9831Q99.0302 69.9663 99.3722 69.9326Q99.7143 69.8989 100.054 69.8485Q100.394 69.798 100.731 69.731Q101.068 69.6639 101.402 69.5804Q101.735 69.4969 102.064 69.3972Q102.393 69.2974 102.716 69.1816Q103.04 69.0658 103.358 68.9343Q103.675 68.8028 103.986 68.6558Q104.296 68.5089 104.6 68.3469Q104.903 68.1849 105.197 68.0082Q105.492 67.8315 105.778 67.6406Q106.064 67.4496 106.34 67.2449Q106.616 67.0402 106.882 66.8221Q107.147 66.6041 107.402 66.3733Q107.656 66.1425 107.899 65.8995Q108.143 65.6565 108.373 65.4018Q108.604 65.1472 108.822 64.8815Q109.04 64.6158 109.245 64.3398Q109.45 64.0637 109.641 63.778Q109.831 63.4922 110.008 63.1974Q110.185 62.9026 110.347 62.5996Q110.509 62.2965 110.656 61.9858Q110.803 61.6751 110.934 61.3576Q111.066 61.04 111.182 60.7165Q111.297 60.3929 111.397 60.064Q111.497 59.7351 111.58 59.4017Q111.664 59.0683 111.731 58.7313Q111.798 58.3942 111.848 58.0542Q111.899 57.7143 111.933 57.3722Q111.966 57.0302 111.983 56.6869Q112 56.3437 112 56Q112 55.6563 111.983 55.313Q111.966 54.9698 111.933 54.6278Q111.899 54.2857 111.848 53.9458Q111.798 53.6058 111.731 53.2687Q111.664 52.9317 111.58 52.5983Q111.497 52.2649 111.397 51.936Q111.297 51.6071 111.182 51.2835Q111.066 50.9599 110.934 50.6424Q110.803 50.3249 110.656 50.0142Q110.509 49.7035 110.347 49.4004Q110.185 49.0973 110.008 48.8026Q109.831 48.5078 109.641 48.222Q109.45 47.9363 109.245 47.6602Q109.04 47.3842 108.822 47.1185Q108.604 46.8528 108.373 46.5982Q108.143 46.3435 107.899 46.1005Q107.656 45.8575 107.402 45.6267Q107.147 45.3959 106.882 45.1779Q106.616 44.9598 106.34 44.7551Q106.064 44.5504 105.778 44.3594Q105.492 44.1685 105.197 43.9918Q104.903 43.8151 104.6 43.6531Q104.296 43.4911 103.986 43.3441Q103.675 43.1972 103.358 43.0657Q103.04 42.9342 102.716 42.8184Q102.393 42.7026 102.064 42.6028Q101.735 42.5031 101.402 42.4196Q101.068 42.3361 100.731 42.269Q100.394 42.202 100.054 42.1515Q99.7143 42.1011 99.3722 42.0674Q99.0302 42.0337 98.6869 42.0169Q98.3437 42 98 42Z"/>   
    <g transform="matrix(1.00, 0.00, 0.00, 1.00, 0.00, 0.00)">
        <path fill="#000000FF" stroke="#000000FF" stroke-linecap="round" stroke-linejoin="round" stroke-width="0.1"   d="M122.88 107.10L120.53 107.10L120.53 111L119.22 111L119.22 101.05L122.89 101.05Q124.52 101.05 125.45 101.88Q126.38 102.71 126.38 104.09L126.38 104.09Q126.38 105.54 125.47 106.32Q124.56 107.10 122.88 107.10L122.88 107.10ZM120.53 102.13L120.53 106.03L122.89 106.03Q123.94 106.03 124.50 105.53Q125.06 105.04 125.06 104.10L125.06 104.10Q125.06 103.21 124.50 102.68Q123.94 102.15 122.96 102.13L122.96 102.13L120.53 102.13ZM129.23 103.60L129.23 111L127.96 111L127.96 103.60L129.23 103.60ZM127.86 101.64L127.86 101.64Q127.86 101.33 128.05 101.12Q128.24 100.91 128.60 100.91Q128.97 100.91 129.17 101.12Q129.36 101.33 129.36 101.64Q129.36 101.95 129.17 102.15Q128.97 102.36 128.60 102.36Q128.24 102.36 128.05 102.15Q127.86 101.95 127.86 101.64ZM134.22 110.10L134.22 110.10Q134.89 110.10 135.40 109.69Q135.91 109.28 135.96 108.67L135.96 108.67L137.16 108.67Q137.12 109.30 136.72 109.88Q136.32 110.45 135.64 110.79Q134.97 111.14 134.22 111.14L134.22 111.14Q132.71 111.14 131.81 110.13Q130.92 109.12 130.92 107.37L130.92 107.37L130.92 107.16Q130.92 106.08 131.32 105.24Q131.71 104.40 132.46 103.93Q133.20 103.47 134.21 103.47L134.21 103.47Q135.45 103.47 136.28 104.21Q137.10 104.96 137.16 106.15L137.16 106.15L135.96 106.15Q135.91 105.43 135.42 104.97Q134.93 104.51 134.21 104.51L134.21 104.51Q133.25 104.51 132.72 105.20Q132.19 105.89 132.19 107.21L132.19 107.21L132.19 107.45Q132.19 108.72 132.71 109.41Q133.24 110.10 134.22 110.10ZM139.03 101.81L140.29 101.81L140.29 103.60L141.67 103.60L141.67 104.58L140.29 104.58L140.29 109.17Q140.29 109.61 140.48 109.83Q140.66 110.06 141.11 110.06L141.11 110.06Q141.33 110.06 141.71 109.97L141.71 109.97L141.71 111Q141.21 111.14 140.74 111.14L140.74 111.14Q139.89 111.14 139.46 110.62Q139.03 110.11 139.03 109.17L139.03 109.17L139.03 104.58L137.68 104.58L137.68 103.60L139.03 103.60L139.03 101.81ZM147.75 111L147.72 110.27Q146.98 111.14 145.55 111.14L145.55 111.14Q144.37 111.14 143.75 110.45Q143.13 109.76 143.12 108.42L143.12 108.42L143.12 103.60L144.39 103.60L144.39 108.38Q144.39 110.06 145.76 110.06L145.76 110.06Q147.21 110.06 147.68 108.98L147.68 108.98L147.68 103.60L148.95 103.60L148.95 111L147.75 111ZM154.44 103.56L154.44 104.74Q154.16 104.69 153.82 104.69L153.82 104.69Q152.58 104.69 152.13 105.75L152.13 105.75L152.13 111L150.87 111L150.87 103.60L152.10 103.60L152.12 104.46Q152.74 103.47 153.88 103.47L153.88 103.47Q154.25 103.47 154.44 103.56L154.44 103.56ZM158.55 111.14L158.55 111.14Q157.04 111.14 156.10 110.15Q155.16 109.16 155.16 107.51L155.16 107.51L155.16 107.27Q155.16 106.17 155.58 105.31Q156.00 104.44 156.75 103.96Q157.51 103.47 158.39 103.47L158.39 103.47Q159.83 103.47 160.63 104.42Q161.43 105.37 161.43 107.14L161.43 107.14L161.43 107.66L156.42 107.66Q156.45 108.76 157.06 109.43Q157.67 110.10 158.61 110.10L158.61 110.10Q159.28 110.10 159.75 109.83Q160.21 109.56 160.56 109.11L160.56 109.11L161.33 109.71Q160.41 111.14 158.55 111.14ZM158.39 104.51L158.39 104.51Q157.62 104.51 157.10 105.06Q156.58 105.62 156.46 106.63L156.46 106.63L160.17 106.63L160.17 106.53Q160.11 105.57 159.65 105.04Q159.18 104.51 158.39 104.51Z"/>
    </g>
</g>
</svg>