<svg xmlns="http://www.w3.org/2000/svg" version="1.1" xmlns:xlink="http://www.w3.org/1999/xlink" xmlns:svgjs="http://svgjs.dev/svgjs" width="170" height="170" viewbox="0 0 170 170"   shape-rendering="geometricPrecision">
<g id="54bb2c17aa314572b1c609f9f81c2f78" transform="translate(5, 5) ">
    <path fill="#FFFFFFFF" stroke="#808080FF" stroke-width="2"  d="M80 0Q78.0361 0 76.0746 0.0963635Q74.1131 0.192727 72.1586 0.385222Q70.2042 0.577717 68.2616 0.865879Q66.3189 1.15404 64.3928 1.53718Q62.4666 1.92031 60.5616 2.3975Q58.6565 2.87469 56.7772 3.44477Q54.8979 4.01486 53.0488 4.67647Q51.1997 5.33809 49.3853 6.08964Q47.5709 6.84118 45.7956 7.68086Q44.0203 8.52053 42.2883 9.4463Q40.5563 10.3721 38.8718 11.3817Q37.1873 12.3913 35.5544 13.4824Q33.9215 14.5735 32.3441 15.7434Q30.7666 16.9133 29.2485 18.1592Q27.7304 19.405 26.2753 20.7239Q24.8201 22.0428 23.4315 23.4315Q22.0428 24.8201 20.7239 26.2753Q19.405 27.7304 18.1592 29.2485Q16.9133 30.7666 15.7434 32.3441Q14.5735 33.9215 13.4824 35.5544Q12.3913 37.1873 11.3817 38.8718Q10.3721 40.5563 9.4463 42.2883Q8.52053 44.0203 7.68086 45.7956Q6.84118 47.5709 6.08964 49.3853Q5.33809 51.1997 4.67647 53.0488Q4.01486 54.8979 3.44477 56.7772Q2.87469 58.6566 2.3975 60.5616Q1.92031 62.4666 1.53718 64.3928Q1.15404 66.3189 0.865879 68.2616Q0.577717 70.2042 0.385222 72.1586Q0.192727 74.1131 0.0963635 76.0746Q0 78.0361 0 80Q0 81.9639 0.0963635 83.9254Q0.192727 85.8869 0.385222 87.8414Q0.577717 89.7958 0.865879 91.7384Q1.15404 93.6811 1.53718 95.6072Q1.92031 97.5334 2.3975 99.4384Q2.87469 101.343 3.44477 103.223Q4.01486 105.102 4.67647 106.951Q5.33809 108.8 6.08964 110.615Q6.84118 112.429 7.68086 114.204Q8.52053 115.98 9.4463 117.712Q10.3721 119.444 11.3817 121.128Q12.3913 122.813 13.4824 124.446Q14.5735 126.079 15.7434 127.656Q16.9133 129.233 18.1592 130.751Q19.405 132.27 20.7239 133.725Q22.0428 135.18 23.4315 136.569Q24.8201 137.957 26.2753 139.276Q27.7304 140.595 29.2485 141.841Q30.7666 143.087 32.3441 144.257Q33.9215 145.426 35.5544 146.518Q37.1873 147.609 38.8718 148.618Q40.5563 149.628 42.2883 150.554Q44.0203 151.479 45.7956 152.319Q47.5709 153.159 49.3853 153.91Q51.1997 154.662 53.0488 155.324Q54.8979 155.985 56.7772 156.555Q58.6566 157.125 60.5616 157.603Q62.4666 158.08 64.3928 158.463Q66.3189 158.846 68.2616 159.134Q70.2042 159.422 72.1586 159.615Q74.1131 159.807 76.0746 159.904Q78.0361 160 80 160Q81.9639 160 83.9254 159.904Q85.8869 159.807 87.8414 159.615Q89.7958 159.422 91.7384 159.134Q93.6811 158.846 95.6072 158.463Q97.5334 158.08 99.4384 157.602Q101.343 157.125 103.223 156.555Q105.102 155.985 106.951 155.324Q108.8 154.662 110.615 153.91Q112.429 153.159 114.204 152.319Q115.98 151.479 117.712 150.554Q119.444 149.628 121.128 148.618Q122.813 147.609 124.446 146.518Q126.079 145.426 127.656 144.257Q129.233 143.087 130.751 141.841Q132.27 140.595 133.725 139.276Q135.18 137.957 136.569 136.569Q137.957 135.18 139.276 133.725Q140.595 132.27 141.841 130.751Q143.087 129.233 144.257 127.656Q145.426 126.079 146.518 124.446Q147.609 122.813 148.618 121.128Q149.628 119.444 150.554 117.712Q151.479 115.98 152.319 114.204Q153.159 112.429 153.91 110.615Q154.662 108.8 155.324 106.951Q155.985 105.102 156.555 103.223Q157.125 101.343 157.603 99.4384Q158.08 97.5334 158.463 95.6072Q158.846 93.6811 159.134 91.7384Q159.422 89.7958 159.615 87.8414Q159.807 85.8869 159.904 83.9254Q160 81.9639 160 80Q160 78.0361 159.904 76.0746Q159.807 74.1131 159.615 72.1586Q159.422 70.2042 159.134 68.2616Q158.846 66.3189 158.463 64.3928Q158.08 62.4666 157.602 60.5616Q157.125 58.6565 156.555 56.7772Q155.985 54.8979 155.324 53.0488Q154.662 51.1997 153.91 49.3853Q153.159 47.5709 152.319 45.7956Q151.479 44.0203 150.554 42.2883Q149.628 40.5563 148.618 38.8718Q147.609 37.1873 146.518 35.5544Q145.426 33.9215 144.257 32.3441Q143.087 30.7666 141.841 29.2485Q140.595 27.7304 139.276 26.2753Q137.957 24.8201 136.569 23.4315Q135.18 22.0428 133.725 20.7239Q132.27 19.405 130.751 18.1592Q129.233 16.9133 127.656 15.7434Q126.079 14.5735 124.446 13.4824Q122.813 12.3913 121.128 11.3817Q119.444 10.3721 117.712 9.4463Q115.98 8.52053 114.204 7.68086Q112.429 6.84118 110.615 6.08964Q108.8 5.33809 106.951 4.67647Q105.102 4.01486 103.223 3.44477Q101.343 2.87469 99.4384 2.3975Q97.5334 1.92031 95.6072 1.53718Q93.6811 1.15404 91.7384 0.865879Q89.7958 0.577717 87.8414 0.385222Q85.8869 0.192727 83.9254 0.0963635Q81.9639 0 80 0ZM80 80L120 10.718M80 80L4.82459 52.6384M80 80L107.362 155.175"/>    
</g>
</svg>