<svg xmlns="http://www.w3.org/2000/svg" version="1.1" xmlns:xlink="http://www.w3.org/1999/xlink" xmlns:svgjs="http://svgjs.dev/svgjs" width="102" height="26" viewbox="0 0 102 26"   shape-rendering="geometricPrecision">
<g transform="translate(1, 1) ">
    <path fill="none" stroke="none" stroke-width="2"  d="M0 0L0 24L100 24L100 0L0 0Z"/> 
    <path fill="#FFFFFFFF" stroke="#696969FF" stroke-width="2"  d="M15.2 4.8Q15.0232 4.8 14.8467 4.80867Q14.6702 4.81735 14.4943 4.83467Q14.3184 4.85199 14.1435 4.87793Q13.9687 4.90386 13.7953 4.93835Q13.622 4.97283 13.4505 5.01577Q13.2791 5.05872 13.11 5.11003Q12.9408 5.16134 12.7744 5.22088Q12.608 5.28043 12.4447 5.34807Q12.2814 5.41571 12.1216 5.49128Q11.9618 5.56685 11.8059 5.65017Q11.6501 5.73349 11.4985 5.82435Q11.3469 5.91522 11.1999 6.01342Q11.0529 6.11162 10.911 6.21691Q10.769 6.3222 10.6324 6.43433Q10.4957 6.54645 10.3648 6.66515Q10.2338 6.78385 10.1088 6.90883Q9.98385 7.03381 9.86515 7.16478Q9.74645 7.29574 9.63432 7.43237Q9.52219 7.569 9.4169 7.71096Q9.31161 7.85293 9.21342 7.99989Q9.11522 8.14686 9.02435 8.29846Q8.93349 8.45006 8.85017 8.60594Q8.76685 8.76182 8.69128 8.9216Q8.61571 9.08138 8.54807 9.24468Q8.48043 9.40797 8.42088 9.57439Q8.36134 9.74081 8.31003 9.90995Q8.25872 10.0791 8.21577 10.2505Q8.17283 10.422 8.13835 10.5953Q8.10386 10.7687 8.07793 10.9435Q8.05199 11.1184 8.03467 11.2943Q8.01735 11.4702 8.00867 11.6467Q8 11.8232 8 12Q8 12.1768 8.00867 12.3533Q8.01735 12.5298 8.03467 12.7057Q8.05199 12.8816 8.07793 13.0565Q8.10386 13.2313 8.13835 13.4046Q8.17283 13.578 8.21577 13.7495Q8.25872 13.9209 8.31003 14.09Q8.36134 14.2592 8.42088 14.4256Q8.48043 14.592 8.54807 14.7553Q8.61571 14.9186 8.69128 15.0784Q8.76685 15.2382 8.85017 15.3941Q8.93349 15.5499 9.02435 15.7015Q9.11522 15.8531 9.21342 16.0001Q9.31161 16.1471 9.4169 16.289Q9.52219 16.431 9.63432 16.5676Q9.74645 16.7043 9.86515 16.8352Q9.98385 16.9662 10.1088 17.0912Q10.2338 17.2161 10.3648 17.3348Q10.4957 17.4535 10.6324 17.5657Q10.769 17.6778 10.911 17.7831Q11.0529 17.8884 11.1999 17.9866Q11.3469 18.0848 11.4985 18.1756Q11.6501 18.2665 11.8059 18.3498Q11.9618 18.4332 12.1216 18.5087Q12.2814 18.5843 12.4447 18.6519Q12.608 18.7196 12.7744 18.7791Q12.9408 18.8387 13.11 18.89Q13.2791 18.9413 13.4505 18.9842Q13.622 19.0272 13.7953 19.0617Q13.9687 19.0961 14.1435 19.1221Q14.3184 19.148 14.4943 19.1653Q14.6702 19.1827 14.8467 19.1913Q15.0232 19.2 15.2 19.2Q15.3767 19.2 15.5533 19.1913Q15.7298 19.1827 15.9057 19.1653Q16.0816 19.148 16.2565 19.1221Q16.4313 19.0961 16.6046 19.0617Q16.778 19.0272 16.9495 18.9842Q17.1209 18.9413 17.2901 18.89Q17.4592 18.8387 17.6256 18.7791Q17.792 18.7196 17.9553 18.6519Q18.1186 18.5843 18.2784 18.5087Q18.4382 18.4332 18.5941 18.3498Q18.7499 18.2665 18.9015 18.1756Q19.0531 18.0848 19.2001 17.9866Q19.3471 17.8884 19.489 17.7831Q19.631 17.6778 19.7676 17.5657Q19.9043 17.4535 20.0352 17.3349Q20.1662 17.2162 20.2912 17.0912Q20.4161 16.9662 20.5348 16.8352Q20.6535 16.7043 20.7657 16.5676Q20.8778 16.431 20.9831 16.289Q21.0884 16.1471 21.1866 16.0001Q21.2848 15.8531 21.3756 15.7015Q21.4665 15.5499 21.5498 15.3941Q21.6332 15.2382 21.7087 15.0784Q21.7843 14.9186 21.8519 14.7553Q21.9196 14.592 21.9791 14.4256Q22.0387 14.2592 22.09 14.09Q22.1413 13.9209 22.1842 13.7495Q22.2272 13.578 22.2617 13.4046Q22.2961 13.2313 22.3221 13.0565Q22.348 12.8816 22.3653 12.7057Q22.3827 12.5298 22.3913 12.3533Q22.4 12.1768 22.4 12Q22.4 11.8232 22.3913 11.6467Q22.3827 11.4702 22.3653 11.2943Q22.348 11.1184 22.3221 10.9435Q22.2961 10.7687 22.2617 10.5953Q22.2272 10.422 22.1842 10.2505Q22.1413 10.0791 22.09 9.90995Q22.0387 9.74081 21.9791 9.57439Q21.9196 9.40797 21.8519 9.24468Q21.7843 9.08138 21.7087 8.9216Q21.6332 8.76182 21.5498 8.60594Q21.4665 8.45006 21.3756 8.29846Q21.2848 8.14686 21.1866 7.99989Q21.0884 7.85293 20.9831 7.71096Q20.8778 7.569 20.7657 7.43237Q20.6535 7.29574 20.5348 7.16477Q20.4161 7.03381 20.2912 6.90883Q20.1662 6.78385 20.0352 6.66515Q19.9043 6.54645 19.7676 6.43433Q19.631 6.3222 19.489 6.21691Q19.3471 6.11162 19.2001 6.01342Q19.0531 5.91522 18.9015 5.82435Q18.7499 5.73349 18.5941 5.65017Q18.4382 5.56685 18.2784 5.49128Q18.1186 5.41571 17.9553 5.34807Q17.792 5.28043 17.6256 5.22088Q17.4592 5.16134 17.2901 5.11003Q17.1209 5.05872 16.9495 5.01577Q16.778 4.97283 16.6047 4.93835Q16.4313 4.90386 16.2565 4.87793Q16.0816 4.85199 15.9057 4.83467Q15.7298 4.81735 15.5533 4.80867Q15.3767 4.8 15.2 4.8Z"/> 
    <path fill="#696969FF" stroke="#696969FF" stroke-width="2.5"  d="M15.2 7.92Q14.9996 7.92 14.8001 7.93965Q14.6006 7.95929 14.404 7.9984Q14.2074 8.0375 14.0156 8.09568Q13.8238 8.15387 13.6387 8.23057Q13.4535 8.30728 13.2767 8.40176Q13.0999 8.49625 12.9333 8.6076Q12.7666 8.71896 12.6117 8.84612Q12.4567 8.97327 12.315 9.115Q12.1733 9.25673 12.0461 9.41167Q11.919 9.56661 11.8076 9.73327Q11.6962 9.89993 11.6018 10.0767Q11.5073 10.2535 11.4306 10.4387Q11.3539 10.6238 11.2957 10.8156Q11.2375 11.0074 11.1984 11.204Q11.1593 11.4006 11.1396 11.6001Q11.12 11.7996 11.12 12Q11.12 12.2004 11.1396 12.3999Q11.1593 12.5994 11.1984 12.796Q11.2375 12.9926 11.2957 13.1844Q11.3539 13.3762 11.4306 13.5613Q11.5073 13.7465 11.6018 13.9233Q11.6962 14.1001 11.8076 14.2667Q11.919 14.4334 12.0461 14.5883Q12.1733 14.7433 12.315 14.885Q12.4567 15.0267 12.6117 15.1539Q12.7666 15.281 12.9333 15.3924Q13.0999 15.5038 13.2767 15.5982Q13.4535 15.6927 13.6387 15.7694Q13.8238 15.8461 14.0156 15.9043Q14.2074 15.9625 14.404 16.0016Q14.6006 16.0407 14.8001 16.0604Q14.9996 16.08 15.2 16.08Q15.4004 16.08 15.5999 16.0604Q15.7994 16.0407 15.996 16.0016Q16.1926 15.9625 16.3844 15.9043Q16.5762 15.8461 16.7613 15.7694Q16.9465 15.6927 17.1233 15.5982Q17.3001 15.5038 17.4667 15.3924Q17.6334 15.281 17.7883 15.1539Q17.9433 15.0267 18.085 14.885Q18.2267 14.7433 18.3539 14.5883Q18.481 14.4334 18.5924 14.2667Q18.7038 14.1001 18.7982 13.9233Q18.8927 13.7465 18.9694 13.5613Q19.0461 13.3762 19.1043 13.1844Q19.1625 12.9926 19.2016 12.796Q19.2407 12.5994 19.2604 12.3999Q19.28 12.2004 19.28 12Q19.28 11.7996 19.2604 11.6001Q19.2407 11.4006 19.2016 11.204Q19.1625 11.0074 19.1043 10.8156Q19.0461 10.6238 18.9694 10.4387Q18.8927 10.2535 18.7982 10.0767Q18.7038 9.89993 18.5924 9.73327Q18.481 9.56662 18.3539 9.41167Q18.2267 9.25673 18.085 9.115Q17.9433 8.97327 17.7883 8.84612Q17.6334 8.71896 17.4667 8.6076Q17.3001 8.49625 17.1233 8.40176Q16.9465 8.30728 16.7613 8.23057Q16.5762 8.15387 16.3844 8.09568Q16.1926 8.0375 15.996 7.9984Q15.7994 7.95929 15.5999 7.93965Q15.4004 7.92 15.2 7.92Z"/>  
    <g transform="matrix(1.00, 0.00, 0.00, 1.00, 0.00, 0.00)">
        <path fill="#000000FF" stroke="#000000FF" stroke-linecap="round" stroke-linejoin="round" stroke-width="0.1"   d="M33.37 18L31.21 13.97L28.87 13.97L28.87 18L27.55 18L27.55 8.05L30.84 8.05Q32.52 8.05 33.43 8.81Q34.34 9.58 34.34 11.04L34.34 11.04Q34.34 11.97 33.83 12.66Q33.33 13.35 32.44 13.69L32.44 13.69L34.77 17.92L34.77 18L33.37 18ZM28.87 9.13L28.87 12.90L30.88 12.90Q31.86 12.90 32.44 12.39Q33.02 11.89 33.02 11.04L33.02 11.04Q33.02 10.12 32.47 9.63Q31.92 9.13 30.88 9.13L30.88 9.13L28.87 9.13ZM41.87 18L40.54 18Q40.43 17.78 40.37 17.22L40.37 17.22Q39.48 18.14 38.26 18.14L38.26 18.14Q37.17 18.14 36.47 17.52Q35.77 16.90 35.77 15.95L35.77 15.95Q35.77 14.79 36.64 14.15Q37.52 13.52 39.11 13.52L39.11 13.52L40.35 13.52L40.35 12.93Q40.35 12.27 39.95 11.88Q39.55 11.49 38.78 11.49L38.78 11.49Q38.10 11.49 37.65 11.83Q37.19 12.17 37.19 12.65L37.19 12.65L35.92 12.65Q35.92 12.10 36.31 11.58Q36.70 11.07 37.38 10.77Q38.05 10.47 38.86 10.47L38.86 10.47Q40.13 10.47 40.86 11.11Q41.58 11.75 41.61 12.87L41.61 12.87L41.61 16.27Q41.61 17.29 41.87 17.89L41.87 17.89L41.87 18ZM38.44 17.04L38.44 17.04Q39.04 17.04 39.57 16.73Q40.11 16.42 40.35 15.93L40.35 15.93L40.35 14.41L39.35 14.41Q37.03 14.41 37.03 15.77L37.03 15.77Q37.03 16.37 37.43 16.70Q37.82 17.04 38.44 17.04ZM43.28 14.34L43.28 14.24Q43.28 12.54 44.09 11.50Q44.90 10.47 46.20 10.47L46.20 10.47Q47.50 10.47 48.26 11.36L48.26 11.36L48.26 7.50L49.53 7.50L49.53 18L48.36 18L48.30 17.21Q47.54 18.14 46.19 18.14L46.19 18.14Q44.90 18.14 44.09 17.08Q43.28 16.03 43.28 14.34L43.28 14.34ZM44.55 14.38L44.55 14.38Q44.55 15.64 45.07 16.35Q45.59 17.06 46.50 17.06L46.50 17.06Q47.71 17.06 48.26 15.98L48.26 15.98L48.26 12.59Q47.69 11.54 46.52 11.54L46.52 11.54Q45.59 11.54 45.07 12.26Q44.55 12.98 44.55 14.38ZM52.86 10.60L52.86 18L51.60 18L51.60 10.60L52.86 10.60ZM51.49 8.64L51.49 8.64Q51.49 8.33 51.68 8.12Q51.87 7.91 52.24 7.91Q52.61 7.91 52.80 8.12Q52.99 8.33 52.99 8.64Q52.99 8.95 52.80 9.15Q52.61 9.36 52.24 9.36Q51.87 9.36 51.68 9.15Q51.49 8.95 51.49 8.64ZM54.55 14.32L54.55 14.23Q54.55 13.15 54.98 12.28Q55.40 11.41 56.17 10.94Q56.93 10.47 57.91 10.47L57.91 10.47Q59.42 10.47 60.35 11.51Q61.28 12.56 61.28 14.29L61.28 14.29L61.28 14.38Q61.28 15.46 60.87 16.32Q60.46 17.18 59.69 17.66Q58.92 18.14 57.92 18.14L57.92 18.14Q56.42 18.14 55.48 17.09Q54.55 16.04 54.55 14.32L54.55 14.32ZM55.82 14.38L55.82 14.38Q55.82 15.61 56.39 16.36Q56.96 17.10 57.92 17.10L57.92 17.10Q58.88 17.10 59.45 16.35Q60.02 15.59 60.02 14.23L60.02 14.23Q60.02 13.02 59.44 12.26Q58.86 11.51 57.91 11.51L57.91 11.51Q56.97 11.51 56.40 12.25Q55.82 13.00 55.82 14.38Z"/>
    </g>
</g>
</svg>