<svg xmlns="http://www.w3.org/2000/svg" version="1.1" xmlns:xlink="http://www.w3.org/1999/xlink" xmlns:svgjs="http://svgjs.dev/svgjs" width="102" height="26" viewbox="0 0 102 26"   shape-rendering="geometricPrecision">
<g transform="translate(1, 1) ">
    <path fill="#FFFFFFFF" stroke="#808080FF" stroke-width="2"  d="M0 0L0 24L100 24L100 0L0 0Z"/> 
    <path fill="#FFFFFFFF" stroke="#808080FF" stroke-width="2.5"  d="M12.8 9.6L19.52 19.2L12.8 9.6"/> 
    <path fill="#FFFFFFFF" stroke="#808080FF" stroke-width="2.5"  d="M12.8 4.8Q12.6822 4.8 12.5645 4.80578Q12.4468 4.81156 12.3295 4.82311Q12.2123 4.83466 12.0957 4.85195Q11.9791 4.86924 11.8636 4.89223Q11.748 4.91522 11.6337 4.94385Q11.5194 4.97248 11.4066 5.00669Q11.2939 5.04089 11.1829 5.08059Q11.072 5.12029 10.9631 5.16538Q10.8543 5.21047 10.7477 5.26085Q10.6412 5.31123 10.5373 5.36678Q10.4334 5.42232 10.3323 5.4829Q10.2312 5.54348 10.1333 5.60895Q10.0353 5.67441 9.94064 5.7446Q9.846 5.8148 9.75491 5.88955Q9.66383 5.9643 9.57652 6.04343Q9.48921 6.12257 9.40589 6.20589Q9.32257 6.28921 9.24343 6.37652Q9.1643 6.46383 9.08955 6.55491Q9.0148 6.646 8.9446 6.74064Q8.87441 6.83529 8.80894 6.93326Q8.74348 7.03124 8.6829 7.13231Q8.62232 7.23338 8.56678 7.3373Q8.51123 7.44122 8.46085 7.54774Q8.41047 7.65425 8.36538 7.76312Q8.32028 7.87198 8.28059 7.98293Q8.24089 8.09387 8.20669 8.20663Q8.17248 8.31939 8.14385 8.43369Q8.11522 8.548 8.09223 8.66357Q8.06924 8.77913 8.05195 8.89569Q8.03466 9.01225 8.02311 9.12952Q8.01156 9.24678 8.00578 9.36448Q8 9.48217 8 9.6Q8 9.71783 8.00578 9.83553Q8.01156 9.95322 8.02311 10.0705Q8.03466 10.1877 8.05195 10.3043Q8.06924 10.4209 8.09223 10.5364Q8.11522 10.652 8.14385 10.7663Q8.17248 10.8806 8.20669 10.9934Q8.24089 11.1061 8.28059 11.2171Q8.32028 11.328 8.36538 11.4369Q8.41047 11.5457 8.46085 11.6523Q8.51123 11.7588 8.56678 11.8627Q8.62232 11.9666 8.6829 12.0677Q8.74348 12.1688 8.80894 12.2667Q8.87441 12.3647 8.9446 12.4594Q9.0148 12.554 9.08955 12.6451Q9.1643 12.7362 9.24343 12.8235Q9.32257 12.9108 9.40589 12.9941Q9.48921 13.0774 9.57652 13.1566Q9.66383 13.2357 9.75491 13.3104Q9.846 13.3852 9.94064 13.4554Q10.0353 13.5256 10.1333 13.5911Q10.2312 13.6565 10.3323 13.7171Q10.4334 13.7777 10.5373 13.8332Q10.6412 13.8888 10.7477 13.9391Q10.8543 13.9895 10.9631 14.0346Q11.072 14.0797 11.1829 14.1194Q11.2939 14.1591 11.4066 14.1933Q11.5194 14.2275 11.6337 14.2561Q11.748 14.2848 11.8636 14.3078Q11.9791 14.3308 12.0957 14.348Q12.2123 14.3653 12.3295 14.3769Q12.4468 14.3884 12.5645 14.3942Q12.6822 14.4 12.8 14.4Q12.9178 14.4 13.0355 14.3942Q13.1532 14.3884 13.2705 14.3769Q13.3877 14.3653 13.5043 14.348Q13.6209 14.3308 13.7364 14.3078Q13.852 14.2848 13.9663 14.2561Q14.0806 14.2275 14.1934 14.1933Q14.3061 14.1591 14.4171 14.1194Q14.528 14.0797 14.6369 14.0346Q14.7457 13.9895 14.8523 13.9391Q14.9588 13.8888 15.0627 13.8332Q15.1666 13.7777 15.2677 13.7171Q15.3688 13.6565 15.4667 13.5911Q15.5647 13.5256 15.6594 13.4554Q15.754 13.3852 15.8451 13.3105Q15.9362 13.2357 16.0235 13.1566Q16.1108 13.0774 16.1941 12.9941Q16.2774 12.9108 16.3566 12.8235Q16.4357 12.7362 16.5104 12.6451Q16.5852 12.554 16.6554 12.4594Q16.7256 12.3647 16.7911 12.2667Q16.8565 12.1688 16.9171 12.0677Q16.9777 11.9666 17.0332 11.8627Q17.0888 11.7588 17.1391 11.6523Q17.1895 11.5457 17.2346 11.4369Q17.2797 11.328 17.3194 11.2171Q17.3591 11.1061 17.3933 10.9934Q17.4275 10.8806 17.4562 10.7663Q17.4848 10.652 17.5078 10.5364Q17.5308 10.4209 17.548 10.3043Q17.5653 10.1877 17.5769 10.0705Q17.5884 9.95322 17.5942 9.83553Q17.6 9.71783 17.6 9.6Q17.6 9.48217 17.5942 9.36448Q17.5884 9.24678 17.5769 9.12952Q17.5653 9.01225 17.548 8.89569Q17.5308 8.77913 17.5078 8.66357Q17.4848 8.548 17.4562 8.43369Q17.4275 8.31939 17.3933 8.20663Q17.3591 8.09387 17.3194 7.98293Q17.2797 7.87198 17.2346 7.76312Q17.1895 7.65426 17.1391 7.54774Q17.0888 7.44122 17.0332 7.3373Q16.9777 7.23338 16.9171 7.13231Q16.8565 7.03124 16.7911 6.93326Q16.7256 6.83529 16.6554 6.74064Q16.5852 6.646 16.5104 6.55491Q16.4357 6.46383 16.3566 6.37652Q16.2774 6.28921 16.1941 6.20589Q16.1108 6.12257 16.0235 6.04343Q15.9362 5.9643 15.8451 5.88955Q15.754 5.8148 15.6594 5.7446Q15.5647 5.67441 15.4667 5.60895Q15.3688 5.54348 15.2677 5.4829Q15.1666 5.42232 15.0627 5.36678Q14.9588 5.31123 14.8523 5.26085Q14.7457 5.21047 14.6369 5.16538Q14.528 5.12029 14.4171 5.08059Q14.3061 5.04089 14.1934 5.00669Q14.0806 4.97248 13.9663 4.94385Q13.852 4.91522 13.7364 4.89223Q13.6209 4.86924 13.5043 4.85195Q13.3877 4.83466 13.2705 4.82311Q13.1532 4.81156 13.0355 4.80578Q12.9178 4.8 12.8 4.8Z"/>  
</g>
</svg>