<svg xmlns="http://www.w3.org/2000/svg" version="1.1" xmlns:xlink="http://www.w3.org/1999/xlink" xmlns:svgjs="http://svgjs.dev/svgjs" width="202" height="202" viewbox="0 0 202 202"   shape-rendering="geometricPrecision">
<g transform="translate(89, 1) ">
    <path fill="none" stroke="none" stroke-width="2"  d="M0 0L0 200L24 200L24 0L0 0Z"/> 
    <path fill="#808080FF" stroke="#808080FF" stroke-width="1"  d="M10 0L10 200L14 200L14 0L10 0Z"/> 
    <path fill="#FFFFFFFF" stroke="#696969FF" stroke-width="2"  d="M12 53Q11.8282 53 11.6565 53.0084Q11.4849 53.0169 11.3139 53.0337Q11.1429 53.0506 10.9729 53.0758Q10.8029 53.101 10.6344 53.1345Q10.4658 53.168 10.2991 53.2098Q10.1324 53.2515 9.96801 53.3014Q9.80357 53.3513 9.64177 53.4092Q9.47998 53.4671 9.32122 53.5328Q9.16246 53.5986 9.00711 53.6721Q8.85177 53.7455 8.70022 53.8265Q8.54867 53.9076 8.40128 53.9959Q8.25389 54.0842 8.11101 54.1797Q7.96813 54.2752 7.8301 54.3775Q7.69208 54.4799 7.55925 54.5889Q7.42641 54.6979 7.29909 54.8133Q7.17176 54.9287 7.05025 55.0502Q6.92874 55.1718 6.81334 55.2991Q6.69794 55.4264 6.58893 55.5592Q6.47991 55.6921 6.37755 55.8301Q6.27518 55.9681 6.17971 56.111Q6.08424 56.2539 5.9959 56.4013Q5.90756 56.5487 5.82655 56.7002Q5.74555 56.8518 5.67207 57.0071Q5.5986 57.1624 5.53284 57.3212Q5.46708 57.48 5.40919 57.6418Q5.3513 57.8036 5.30142 57.968Q5.25153 58.1324 5.20978 58.2991Q5.16803 58.4658 5.1345 58.6344Q5.10098 58.8029 5.07576 58.9729Q5.05055 59.1429 5.03371 59.3139Q5.01686 59.4849 5.00843 59.6565Q5 59.8282 5 60Q5 60.1718 5.00843 60.3435Q5.01686 60.5151 5.03371 60.6861Q5.05055 60.8571 5.07576 61.0271Q5.10098 61.1971 5.1345 61.3656Q5.16803 61.5342 5.20978 61.7009Q5.25153 61.8675 5.30142 62.032Q5.3513 62.1964 5.40919 62.3582Q5.46708 62.52 5.53284 62.6788Q5.5986 62.8375 5.67208 62.9929Q5.74555 63.1482 5.82655 63.2998Q5.90756 63.4513 5.9959 63.5987Q6.08424 63.7461 6.17971 63.889Q6.27518 64.0319 6.37755 64.1699Q6.47991 64.3079 6.58893 64.4408Q6.69794 64.5736 6.81334 64.7009Q6.92874 64.8282 7.05025 64.9497Q7.17176 65.0712 7.29909 65.1866Q7.42641 65.302 7.55925 65.4111Q7.69208 65.5201 7.8301 65.6224Q7.96813 65.7248 8.11101 65.8203Q8.25389 65.9158 8.40128 66.0041Q8.54867 66.0924 8.70022 66.1734Q8.85177 66.2544 9.00711 66.3279Q9.16245 66.4014 9.32121 66.4671Q9.47997 66.5329 9.64177 66.5908Q9.80357 66.6487 9.96801 66.6986Q10.1324 66.7485 10.2991 66.7902Q10.4658 66.832 10.6344 66.8655Q10.8029 66.899 10.9729 66.9242Q11.1429 66.9494 11.3139 66.9663Q11.4849 66.9831 11.6565 66.9916Q11.8282 67 12 67Q12.1718 67 12.3435 66.9916Q12.5151 66.9831 12.6861 66.9663Q12.8571 66.9494 13.0271 66.9242Q13.1971 66.899 13.3656 66.8655Q13.5342 66.832 13.7009 66.7902Q13.8675 66.7485 14.032 66.6986Q14.1964 66.6487 14.3582 66.5908Q14.52 66.5329 14.6788 66.4671Q14.8375 66.4014 14.9929 66.3279Q15.1482 66.2545 15.2998 66.1734Q15.4513 66.0924 15.5987 66.0041Q15.7461 65.9158 15.889 65.8203Q16.0319 65.7248 16.1699 65.6225Q16.3079 65.5201 16.4408 65.4111Q16.5736 65.3021 16.7009 65.1867Q16.8282 65.0713 16.9497 64.9497Q17.0713 64.8282 17.1867 64.7009Q17.3021 64.5736 17.4111 64.4408Q17.5201 64.3079 17.6224 64.1699Q17.7248 64.0319 17.8203 63.889Q17.9158 63.7461 18.0041 63.5987Q18.0924 63.4513 18.1734 63.2998Q18.2545 63.1482 18.3279 62.9929Q18.4014 62.8375 18.4672 62.6788Q18.5329 62.52 18.5908 62.3582Q18.6487 62.1964 18.6986 62.032Q18.7485 61.8675 18.7902 61.7009Q18.832 61.5342 18.8655 61.3656Q18.899 61.1971 18.9242 61.0271Q18.9494 60.8571 18.9663 60.6861Q18.9831 60.5151 18.9916 60.3435Q19 60.1718 19 60Q19 59.8282 18.9916 59.6565Q18.9831 59.4849 18.9663 59.3139Q18.9494 59.1429 18.9242 58.9729Q18.899 58.8029 18.8655 58.6344Q18.832 58.4658 18.7902 58.2991Q18.7485 58.1324 18.6986 57.968Q18.6487 57.8036 18.5908 57.6418Q18.5329 57.48 18.4672 57.3212Q18.4014 57.1624 18.3279 57.0071Q18.2545 56.8518 18.1734 56.7002Q18.0924 56.5487 18.0041 56.4013Q17.9158 56.2539 17.8203 56.111Q17.7248 55.9681 17.6225 55.8301Q17.5201 55.6921 17.4111 55.5592Q17.3021 55.4264 17.1867 55.2991Q17.0713 55.1718 16.9497 55.0502Q16.8282 54.9287 16.7009 54.8133Q16.5736 54.6979 16.4408 54.5889Q16.3079 54.4799 16.1699 54.3775Q16.0319 54.2752 15.889 54.1797Q15.7461 54.0842 15.5987 53.9959Q15.4513 53.9076 15.2998 53.8266Q15.1482 53.7455 14.9929 53.6721Q14.8375 53.5986 14.6788 53.5328Q14.52 53.4671 14.3582 53.4092Q14.1964 53.3513 14.032 53.3014Q13.8676 53.2515 13.7009 53.2098Q13.5342 53.168 13.3656 53.1345Q13.1971 53.101 13.0271 53.0758Q12.8571 53.0506 12.6861 53.0337Q12.5151 53.0169 12.3435 53.0084Q12.1718 53 12 53Z"/>  
</g>
</svg>