<svg xmlns="http://www.w3.org/2000/svg" version="1.1" xmlns:xlink="http://www.w3.org/1999/xlink" xmlns:svgjs="http://svgjs.dev/svgjs" width="210" height="34" viewbox="0 0 210 34"   shape-rendering="geometricPrecision">
<g id="7da521b41667468e92c42d99b5dc931a" transform="translate(5, 5) ">
    <path fill="none" stroke="none" stroke-width="2"  d="M0 0L0 24L200 24L200 0L0 0Z"/> 
    <path fill="#808080FF" stroke="#808080FF" stroke-width="1"  d="M0 10L0 14L200 14L200 10L0 10Z"/> 
    <path fill="#FFFFFFFF" stroke="#696969FF" stroke-width="2"  d="M60 5Q59.8282 5 59.6565 5.00843Q59.4849 5.01686 59.3139 5.03371Q59.1429 5.05055 58.9729 5.07576Q58.8029 5.10098 58.6344 5.1345Q58.4658 5.16803 58.2991 5.20978Q58.1324 5.25153 57.968 5.30142Q57.8036 5.3513 57.6418 5.40919Q57.48 5.46708 57.3212 5.53284Q57.1624 5.5986 57.0071 5.67208Q56.8518 5.74555 56.7002 5.82655Q56.5487 5.90756 56.4013 5.9959Q56.2539 6.08424 56.111 6.17971Q55.9681 6.27518 55.8301 6.37755Q55.6921 6.47991 55.5592 6.58893Q55.4264 6.69794 55.2991 6.81334Q55.1718 6.92874 55.0502 7.05025Q54.9287 7.17176 54.8133 7.29909Q54.6979 7.42641 54.5889 7.55925Q54.4799 7.69208 54.3775 7.8301Q54.2752 7.96813 54.1797 8.11101Q54.0842 8.25389 53.9959 8.40128Q53.9076 8.54867 53.8265 8.70022Q53.7455 8.85177 53.6721 9.00711Q53.5986 9.16245 53.5328 9.32121Q53.4671 9.47997 53.4092 9.64177Q53.3513 9.80357 53.3014 9.96801Q53.2515 10.1324 53.2098 10.2991Q53.168 10.4658 53.1345 10.6344Q53.101 10.8029 53.0758 10.9729Q53.0505 11.1429 53.0337 11.3139Q53.0169 11.4849 53.0084 11.6565Q53 11.8282 53 12Q53 12.1718 53.0084 12.3435Q53.0169 12.5151 53.0337 12.6861Q53.0505 12.8571 53.0758 13.0271Q53.101 13.1971 53.1345 13.3656Q53.168 13.5342 53.2098 13.7009Q53.2515 13.8675 53.3014 14.032Q53.3513 14.1964 53.4092 14.3582Q53.4671 14.52 53.5328 14.6788Q53.5986 14.8375 53.6721 14.9929Q53.7455 15.1482 53.8265 15.2998Q53.9076 15.4513 53.9959 15.5987Q54.0842 15.7461 54.1797 15.889Q54.2752 16.0319 54.3775 16.1699Q54.4799 16.3079 54.5889 16.4408Q54.6979 16.5736 54.8133 16.7009Q54.9287 16.8282 55.0502 16.9497Q55.1718 17.0713 55.2991 17.1867Q55.4264 17.3021 55.5592 17.4111Q55.6921 17.5201 55.8301 17.6224Q55.9681 17.7248 56.111 17.8203Q56.2539 17.9158 56.4013 18.0041Q56.5487 18.0924 56.7002 18.1734Q56.8518 18.2545 57.0071 18.3279Q57.1624 18.4014 57.3212 18.4672Q57.48 18.5329 57.6418 18.5908Q57.8036 18.6487 57.968 18.6986Q58.1324 18.7485 58.2991 18.7902Q58.4658 18.832 58.6344 18.8655Q58.8029 18.899 58.9729 18.9242Q59.1429 18.9494 59.3139 18.9663Q59.4849 18.9831 59.6565 18.9916Q59.8282 19 60 19Q60.1718 19 60.3435 18.9916Q60.5151 18.9831 60.6861 18.9663Q60.8571 18.9494 61.0271 18.9242Q61.1971 18.899 61.3656 18.8655Q61.5342 18.832 61.7009 18.7902Q61.8675 18.7485 62.032 18.6986Q62.1964 18.6487 62.3582 18.5908Q62.52 18.5329 62.6788 18.4672Q62.8375 18.4014 62.9929 18.3279Q63.1482 18.2545 63.2998 18.1734Q63.4513 18.0924 63.5987 18.0041Q63.7461 17.9158 63.889 17.8203Q64.0319 17.7248 64.1699 17.6225Q64.3079 17.5201 64.4408 17.4111Q64.5736 17.3021 64.7009 17.1867Q64.8282 17.0713 64.9497 16.9497Q65.0712 16.8282 65.1866 16.7009Q65.302 16.5736 65.4111 16.4408Q65.5201 16.3079 65.6224 16.1699Q65.7248 16.0319 65.8203 15.889Q65.9158 15.7461 66.0041 15.5987Q66.0924 15.4513 66.1734 15.2998Q66.2544 15.1482 66.3279 14.9929Q66.4014 14.8375 66.4671 14.6788Q66.5329 14.52 66.5908 14.3582Q66.6487 14.1964 66.6986 14.032Q66.7485 13.8676 66.7902 13.7009Q66.832 13.5342 66.8655 13.3656Q66.899 13.1971 66.9242 13.0271Q66.9494 12.8571 66.9663 12.6861Q66.9831 12.5151 66.9916 12.3435Q67 12.1718 67 12Q67 11.8282 66.9916 11.6565Q66.9831 11.4849 66.9663 11.3139Q66.9494 11.1429 66.9242 10.9729Q66.899 10.8029 66.8655 10.6344Q66.832 10.4658 66.7902 10.2991Q66.7485 10.1324 66.6986 9.96801Q66.6487 9.80357 66.5908 9.64177Q66.5329 9.47998 66.4671 9.32122Q66.4014 9.16246 66.3279 9.00711Q66.2545 8.85177 66.1734 8.70022Q66.0924 8.54867 66.0041 8.40128Q65.9158 8.25389 65.8203 8.11101Q65.7248 7.96813 65.6225 7.8301Q65.5201 7.69208 65.4111 7.55925Q65.3021 7.42641 65.1867 7.29909Q65.0713 7.17176 64.9497 7.05025Q64.8282 6.92874 64.7009 6.81334Q64.5736 6.69794 64.4408 6.58893Q64.3079 6.47991 64.1699 6.37755Q64.0319 6.27518 63.889 6.17971Q63.7461 6.08424 63.5987 5.9959Q63.4513 5.90756 63.2998 5.82655Q63.1482 5.74555 62.9929 5.67207Q62.8375 5.5986 62.6788 5.53284Q62.52 5.46708 62.3582 5.40919Q62.1964 5.3513 62.032 5.30142Q61.8675 5.25153 61.7009 5.20978Q61.5342 5.16803 61.3656 5.1345Q61.1971 5.10098 61.0271 5.07576Q60.8571 5.05055 60.6861 5.03371Q60.5151 5.01686 60.3435 5.00843Q60.1718 5 60 5Z"/>  
</g>
</svg>