<svg xmlns="http://www.w3.org/2000/svg" version="1.1" xmlns:xlink="http://www.w3.org/1999/xlink" xmlns:svgjs="http://svgjs.dev/svgjs" width="282" height="282" viewbox="0 0 282 282"   shape-rendering="geometricPrecision">
<g transform="translate(129, 1) ">
    <path fill="#FFFFFFFF" stroke="#808080FF" stroke-width="0.5"  d="M0 0L0 280L24 280L24 0L0 0Z"/> 
    <path fill="#DCDCDCFF" stroke="#808080FF" stroke-width="0.5"  d="M0 0L0 24L24 24L24 0L0 0ZM0 256L0 280L24 280L24 256L0 256Z"/> 
    <path fill="#696969FF" stroke="#696969FF" stroke-width="1"  d="M12 6L7 18L17 18L12 6M12 274L7 262L17 262L12 274"/> 
    <path fill="#696969FF" stroke="#696969FF" stroke-width="1"  d="M7 91L7 149.8L17 149.8L17 91L7 91Z"/> 
</g>
</svg>