<svg xmlns="http://www.w3.org/2000/svg" version="1.1" xmlns:xlink="http://www.w3.org/1999/xlink" xmlns:svgjs="http://svgjs.dev/svgjs" width="290" height="220" viewbox="0 0 290 220"   shape-rendering="geometricPrecision">
<g id="3b2827e482294e039da41966709a96cd" transform="translate(5, 5) ">
    <path fill="#FFFFFFFF" stroke="#808080FF" stroke-width="2"  d="M0 182L0 182.1L280 182.1L280 182L0 182ZM0 0L0 210L280 210L280 0L0 0Z"/> 
    <path fill="#696969FF" stroke="#696969FF" stroke-width="1"  d="M120 71L120 111L160 91L120 71M14 189L14 203L28 196L14 189M252 192.5L252 199.5L260.4 199.5L266 203L266 189L260.4 192.5L252 192.5M240 193L240 199L40 199L40 193L240 193Z"/> 
    <path fill="#FFFFFFFF" stroke="#696969FF" stroke-width="2"  d="M147 189Q146.828 189 146.657 189.008Q146.485 189.017 146.314 189.034Q146.143 189.051 145.973 189.076Q145.803 189.101 145.634 189.135Q145.466 189.168 145.299 189.21Q145.132 189.252 144.968 189.301Q144.804 189.351 144.642 189.409Q144.48 189.467 144.321 189.533Q144.162 189.599 144.007 189.672Q143.852 189.746 143.7 189.827Q143.549 189.908 143.401 189.996Q143.254 190.084 143.111 190.18Q142.968 190.275 142.83 190.378Q142.692 190.48 142.559 190.589Q142.426 190.698 142.299 190.813Q142.172 190.929 142.05 191.05Q141.929 191.172 141.813 191.299Q141.698 191.426 141.589 191.559Q141.48 191.692 141.378 191.83Q141.275 191.968 141.18 192.111Q141.084 192.254 140.996 192.401Q140.908 192.549 140.827 192.7Q140.746 192.852 140.672 193.007Q140.599 193.162 140.533 193.321Q140.467 193.48 140.409 193.642Q140.351 193.804 140.301 193.968Q140.252 194.132 140.21 194.299Q140.168 194.466 140.134 194.634Q140.101 194.803 140.076 194.973Q140.051 195.143 140.034 195.314Q140.017 195.485 140.008 195.657Q140 195.828 140 196Q140 196.172 140.008 196.343Q140.017 196.515 140.034 196.686Q140.051 196.857 140.076 197.027Q140.101 197.197 140.134 197.366Q140.168 197.534 140.21 197.701Q140.252 197.868 140.301 198.032Q140.351 198.196 140.409 198.358Q140.467 198.52 140.533 198.679Q140.599 198.837 140.672 198.993Q140.746 199.148 140.827 199.3Q140.908 199.451 140.996 199.599Q141.084 199.746 141.18 199.889Q141.275 200.032 141.378 200.17Q141.48 200.308 141.589 200.441Q141.698 200.574 141.813 200.701Q141.929 200.828 142.05 200.95Q142.172 201.071 142.299 201.187Q142.426 201.302 142.559 201.411Q142.692 201.52 142.83 201.622Q142.968 201.725 143.111 201.82Q143.254 201.916 143.401 202.004Q143.549 202.092 143.7 202.173Q143.852 202.254 144.007 202.328Q144.162 202.401 144.321 202.467Q144.48 202.533 144.642 202.591Q144.804 202.649 144.968 202.699Q145.132 202.748 145.299 202.79Q145.466 202.832 145.634 202.865Q145.803 202.899 145.973 202.924Q146.143 202.949 146.314 202.966Q146.485 202.983 146.657 202.992Q146.828 203 147 203Q147.172 203 147.343 202.992Q147.515 202.983 147.686 202.966Q147.857 202.949 148.027 202.924Q148.197 202.899 148.366 202.865Q148.534 202.832 148.701 202.79Q148.868 202.748 149.032 202.699Q149.196 202.649 149.358 202.591Q149.52 202.533 149.679 202.467Q149.838 202.401 149.993 202.328Q150.148 202.254 150.3 202.173Q150.451 202.092 150.599 202.004Q150.746 201.916 150.889 201.82Q151.032 201.725 151.17 201.622Q151.308 201.52 151.441 201.411Q151.574 201.302 151.701 201.187Q151.828 201.071 151.95 200.95Q152.071 200.828 152.187 200.701Q152.302 200.574 152.411 200.441Q152.52 200.308 152.622 200.17Q152.725 200.032 152.82 199.889Q152.916 199.746 153.004 199.599Q153.092 199.451 153.173 199.3Q153.254 199.148 153.328 198.993Q153.401 198.837 153.467 198.679Q153.533 198.52 153.591 198.358Q153.649 198.196 153.699 198.032Q153.748 197.868 153.79 197.701Q153.832 197.534 153.865 197.366Q153.899 197.197 153.924 197.027Q153.949 196.857 153.966 196.686Q153.983 196.515 153.992 196.343Q154 196.172 154 196Q154 195.828 153.992 195.657Q153.983 195.485 153.966 195.314Q153.949 195.143 153.924 194.973Q153.899 194.803 153.865 194.634Q153.832 194.466 153.79 194.299Q153.748 194.132 153.699 193.968Q153.649 193.804 153.591 193.642Q153.533 193.48 153.467 193.321Q153.401 193.162 153.328 193.007Q153.254 192.852 153.173 192.7Q153.092 192.549 153.004 192.401Q152.916 192.254 152.82 192.111Q152.725 191.968 152.622 191.83Q152.52 191.692 152.411 191.559Q152.302 191.426 152.187 191.299Q152.071 191.172 151.95 191.05Q151.828 190.929 151.701 190.813Q151.574 190.698 151.441 190.589Q151.308 190.48 151.17 190.378Q151.032 190.275 150.889 190.18Q150.746 190.084 150.599 189.996Q150.451 189.908 150.3 189.827Q150.148 189.746 149.993 189.672Q149.838 189.599 149.679 189.533Q149.52 189.467 149.358 189.409Q149.196 189.351 149.032 189.301Q148.868 189.252 148.701 189.21Q148.534 189.168 148.366 189.134Q148.197 189.101 148.027 189.076Q147.857 189.051 147.686 189.034Q147.515 189.017 147.343 189.008Q147.172 189 147 189Z"/>  
</g>
</svg>