<svg xmlns="http://www.w3.org/2000/svg" version="1.1" xmlns:xlink="http://www.w3.org/1999/xlink" xmlns:svgjs="http://svgjs.dev/svgjs" width="130" height="70" viewbox="0 0 130 70"   shape-rendering="geometricPrecision">
<g id="e2c5ea0dff404760a5c374dda8323e22" transform="translate(5, 5) ">
    <path fill="#FFFFFFFF" stroke="#323232FF" stroke-width="2"  d="M0 6L0 54Q0 54.1473 0.0144545 54.2944Q0.028909 54.4415 0.0577833 54.5881Q0.0866575 54.7347 0.129882 54.8804Q0.173106 55.0261 0.230577 55.1705Q0.288047 55.315 0.359625 55.4579Q0.431203 55.6007 0.516716 55.7417Q0.602229 55.8827 0.701471 56.0213Q0.800713 56.16 0.913446 56.2961Q1.02618 56.4322 1.15213 56.5653Q1.27808 56.6985 1.41694 56.8284Q1.55581 56.9583 1.70726 57.0846Q1.8587 57.2109 2.02236 57.3334Q2.18603 57.4559 2.36151 57.5742Q2.53699 57.6925 2.72387 57.8064Q2.91076 57.9202 3.10859 58.0294Q3.30642 58.1385 3.51472 58.2426Q3.72302 58.3468 3.94129 58.4457Q4.15956 58.5446 4.38728 58.6381Q4.615 58.7315 4.85161 58.8192Q5.08822 58.907 5.33316 58.9888Q5.57809 59.0706 5.83077 59.1464Q6.08344 59.2221 6.34324 59.2915Q6.60304 59.361 6.86934 59.4239Q7.13564 59.4869 7.4078 59.5433Q7.67996 59.5996 7.95732 59.6493Q8.23468 59.6989 8.51658 59.7416Q8.79848 59.7844 9.08424 59.8202Q9.36999 59.856 9.65892 59.8847Q9.94784 59.9134 10.2392 59.9351Q10.5306 59.9567 10.8238 59.9711Q11.117 59.9855 11.4112 59.9928Q11.7054 60 12 60L108 60Q108.295 60 108.589 59.9928Q108.883 59.9855 109.176 59.9711Q109.469 59.9567 109.761 59.9351Q110.052 59.9134 110.341 59.8847Q110.63 59.856 110.916 59.8202Q111.201 59.7844 111.483 59.7416Q111.765 59.6989 112.043 59.6493Q112.32 59.5996 112.592 59.5433Q112.864 59.4869 113.131 59.4239Q113.397 59.361 113.657 59.2915Q113.917 59.2221 114.169 59.1464Q114.422 59.0706 114.667 58.9888Q114.912 58.907 115.148 58.8192Q115.385 58.7315 115.613 58.6381Q115.84 58.5446 116.059 58.4457Q116.277 58.3468 116.485 58.2426Q116.694 58.1385 116.891 58.0294Q117.089 57.9202 117.276 57.8064Q117.463 57.6925 117.638 57.5742Q117.814 57.4559 117.978 57.3334Q118.141 57.2109 118.293 57.0846Q118.444 56.9583 118.583 56.8284Q118.722 56.6985 118.848 56.5653Q118.974 56.4322 119.087 56.2961Q119.199 56.16 119.299 56.0213Q119.398 55.8827 119.483 55.7417Q119.569 55.6007 119.64 55.4579Q119.712 55.315 119.769 55.1705Q119.827 55.0261 119.87 54.8804Q119.913 54.7347 119.942 54.5881Q119.971 54.4415 119.986 54.2944Q120 54.1473 120 54L120 6Q120 5.85271 119.986 5.70559Q119.971 5.55848 119.942 5.4119Q119.913 5.26531 119.87 5.11962Q119.827 4.97392 119.769 4.82946Q119.712 4.685 119.64 4.54212Q119.569 4.39924 119.483 4.25829Q119.398 4.11734 119.299 3.97866Q119.199 3.83998 119.087 3.7039Q118.974 3.56782 118.848 3.43467Q118.722 3.30152 118.583 3.17162Q118.444 3.04172 118.293 2.91538Q118.141 2.78905 117.978 2.66658Q117.814 2.54411 117.638 2.4258Q117.463 2.3075 117.276 2.19364Q117.089 2.07978 116.891 1.97065Q116.694 1.86151 116.485 1.75736Q116.277 1.65321 116.059 1.55429Q115.84 1.45538 115.613 1.36194Q115.385 1.2685 115.148 1.18075Q114.912 1.09301 114.667 1.01118Q114.422 0.929351 114.169 0.853628Q113.917 0.777905 113.657 0.708472Q113.397 0.63904 113.131 0.576064Q112.864 0.513089 112.592 0.456723Q112.32 0.400357 112.043 0.350736Q111.765 0.301114 111.483 0.258358Q111.201 0.215601 110.916 0.179812Q110.63 0.144023 110.341 0.115288Q110.052 0.0865531 109.761 0.0649409Q109.469 0.0433288 109.176 0.0288916Q108.883 0.0144545 108.589 0.00722726Q108.295 0 108 0L12 0Q11.7054 0 11.4112 0.00722726Q11.117 0.0144545 10.8238 0.0288916Q10.5306 0.0433288 10.2392 0.0649409Q9.94784 0.0865531 9.65891 0.115288Q9.36999 0.144023 9.08424 0.179812Q8.79848 0.215601 8.51658 0.258358Q8.23468 0.301114 7.95732 0.350736Q7.67996 0.400357 7.4078 0.456723Q7.13564 0.513089 6.86934 0.576064Q6.60304 0.63904 6.34324 0.708472Q6.08344 0.777905 5.83077 0.853628Q5.57809 0.929351 5.33316 1.01118Q5.08822 1.09301 4.85161 1.18075Q4.615 1.2685 4.38728 1.36194Q4.15956 1.45538 3.94129 1.55429Q3.72302 1.65321 3.51472 1.75736Q3.30642 1.86151 3.10859 1.97065Q2.91076 2.07978 2.72387 2.19364Q2.53699 2.3075 2.36151 2.4258Q2.18603 2.54411 2.02236 2.66658Q1.8587 2.78905 1.70726 2.91538Q1.55581 3.04172 1.41694 3.17162Q1.27808 3.30152 1.15213 3.43467Q1.02618 3.56782 0.913446 3.7039Q0.800713 3.83998 0.701471 3.97866Q0.602229 4.11734 0.516716 4.25829Q0.431203 4.39924 0.359625 4.54212Q0.288047 4.685 0.230577 4.82946Q0.173106 4.97392 0.129882 5.11962Q0.0866575 5.26531 0.0577833 5.4119Q0.028909 5.55848 0.0144545 5.70559Q0 5.85271 0 6Z"/>    
    <g transform="matrix(1.00, 0.00, 0.00, 1.00, 0.00, 0.00)">
        <path fill="#000000FF" stroke="#000000FF" stroke-linecap="round" stroke-linejoin="round" stroke-width="0.1"   d="M49.36 30.33L49.36 31.40L45.04 31.40L45.04 34.93L50.05 34.93L50.05 36L43.73 36L43.73 26.05L49.99 26.05L49.99 27.13L45.04 27.13L45.04 30.33L49.36 30.33ZM51.49 28.60L52.69 28.60L52.73 29.53Q53.57 28.47 54.94 28.47L54.94 28.47Q57.29 28.47 57.31 31.11L57.31 31.11L57.31 36L56.04 36L56.04 31.11Q56.04 30.31 55.68 29.92Q55.32 29.54 54.56 29.54L54.56 29.54Q53.94 29.54 53.48 29.87Q53.01 30.20 52.75 30.73L52.75 30.73L52.75 36L51.49 36L51.49 28.60ZM59.67 26.81L60.93 26.81L60.93 28.60L62.31 28.60L62.31 29.58L60.93 29.58L60.93 34.17Q60.93 34.61 61.11 34.83Q61.30 35.06 61.74 35.06L61.74 35.06Q61.96 35.06 62.34 34.97L62.34 34.97L62.34 36Q61.85 36.14 61.37 36.14L61.37 36.14Q60.53 36.14 60.10 35.62Q59.67 35.11 59.67 34.17L59.67 34.17L59.67 29.58L58.32 29.58L58.32 28.60L59.67 28.60L59.67 26.81ZM65.16 28.60L65.16 36L63.90 36L63.90 28.60L65.16 28.60ZM63.79 26.64L63.79 26.64Q63.79 26.33 63.98 26.12Q64.17 25.91 64.54 25.91Q64.91 25.91 65.10 26.12Q65.29 26.33 65.29 26.64Q65.29 26.95 65.10 27.15Q64.91 27.36 64.54 27.36Q64.17 27.36 63.98 27.15Q63.79 26.95 63.79 26.64ZM67.64 26.81L68.90 26.81L68.90 28.60L70.28 28.60L70.28 29.58L68.90 29.58L68.90 34.17Q68.90 34.61 69.08 34.83Q69.27 35.06 69.71 35.06L69.71 35.06Q69.93 35.06 70.32 34.97L70.32 34.97L70.32 36Q69.82 36.14 69.34 36.14L69.34 36.14Q68.50 36.14 68.07 35.62Q67.64 35.11 67.64 34.17L67.64 34.17L67.64 29.58L66.29 29.58L66.29 28.60L67.64 28.60L67.64 26.81ZM72.33 28.60L74.18 34.15L75.90 28.60L77.25 28.60L74.28 37.14Q73.59 38.99 72.09 38.99L72.09 38.99L71.85 38.97L71.38 38.88L71.38 37.85L71.72 37.88Q72.36 37.88 72.72 37.62Q73.08 37.36 73.31 36.67L73.31 36.67L73.59 35.92L70.95 28.60L72.33 28.60Z"/>
    </g>
</g>
</svg>