<svg xmlns="http://www.w3.org/2000/svg" version="1.1" xmlns:xlink="http://www.w3.org/1999/xlink" xmlns:svgjs="http://svgjs.dev/svgjs" width="130" height="70" viewbox="0 0 130 70"   shape-rendering="geometricPrecision">
<g id="65d2d783de5b466f87312a184d2b0cc4" transform="translate(5, 5) ">
    <path fill="#FFFFFFFF" stroke="#323232FF" stroke-width="2"  d="M0 0L0 60L120 60L120 0L0 0Z"/>    
    <g transform="matrix(1.00, 0.00, 0.00, 1.00, 0.00, 0.00)">
        <path fill="#000000FF" stroke="#000000FF" stroke-linecap="round" stroke-linejoin="round" stroke-width="0.1"   d="M49.36 30.33L49.36 31.40L45.04 31.40L45.04 34.93L50.05 34.93L50.05 36L43.73 36L43.73 26.05L49.99 26.05L49.99 27.13L45.04 27.13L45.04 30.33L49.36 30.33ZM51.49 28.60L52.69 28.60L52.73 29.53Q53.57 28.47 54.94 28.47L54.94 28.47Q57.29 28.47 57.31 31.11L57.31 31.11L57.31 36L56.04 36L56.04 31.11Q56.04 30.31 55.68 29.92Q55.32 29.54 54.56 29.54L54.56 29.54Q53.94 29.54 53.48 29.87Q53.01 30.20 52.75 30.73L52.75 30.73L52.75 36L51.49 36L51.49 28.60ZM59.67 26.81L60.93 26.81L60.93 28.60L62.31 28.60L62.31 29.58L60.93 29.58L60.93 34.17Q60.93 34.61 61.11 34.83Q61.30 35.06 61.74 35.06L61.74 35.06Q61.96 35.06 62.34 34.97L62.34 34.97L62.34 36Q61.85 36.14 61.37 36.14L61.37 36.14Q60.53 36.14 60.10 35.62Q59.67 35.11 59.67 34.17L59.67 34.17L59.67 29.58L58.32 29.58L58.32 28.60L59.67 28.60L59.67 26.81ZM65.16 28.60L65.16 36L63.90 36L63.90 28.60L65.16 28.60ZM63.79 26.64L63.79 26.64Q63.79 26.33 63.98 26.12Q64.17 25.91 64.54 25.91Q64.91 25.91 65.10 26.12Q65.29 26.33 65.29 26.64Q65.29 26.95 65.10 27.15Q64.91 27.36 64.54 27.36Q64.17 27.36 63.98 27.15Q63.79 26.95 63.79 26.64ZM67.64 26.81L68.90 26.81L68.90 28.60L70.28 28.60L70.28 29.58L68.90 29.58L68.90 34.17Q68.90 34.61 69.08 34.83Q69.27 35.06 69.71 35.06L69.71 35.06Q69.93 35.06 70.32 34.97L70.32 34.97L70.32 36Q69.82 36.14 69.34 36.14L69.34 36.14Q68.50 36.14 68.07 35.62Q67.64 35.11 67.64 34.17L67.64 34.17L67.64 29.58L66.29 29.58L66.29 28.60L67.64 28.60L67.64 26.81ZM72.33 28.60L74.18 34.15L75.90 28.60L77.25 28.60L74.28 37.14Q73.59 38.99 72.09 38.99L72.09 38.99L71.85 38.97L71.38 38.88L71.38 37.85L71.72 37.88Q72.36 37.88 72.72 37.62Q73.08 37.36 73.31 36.67L73.31 36.67L73.59 35.92L70.95 28.60L72.33 28.60Z"/>
    </g>
</g>
</svg>