<svg xmlns="http://www.w3.org/2000/svg" version="1.1" xmlns:xlink="http://www.w3.org/1999/xlink" xmlns:svgjs="http://svgjs.dev/svgjs" width="130" height="70" viewbox="0 0 130 70"   shape-rendering="geometricPrecision">
<g id="a2872f1f97ea4a5d9d4283aa72b8a156" transform="translate(5, 5) ">
    <path fill="#FFFFFFFF" stroke="#323232FF" stroke-width="2"  d="M60 0L120 30L60 60L0 30L60 0"/> 
    <path fill="#FFFFFF00" stroke="#323232FF" stroke-width="2"  d="M60 6L108 30L60 54L12 30L60 6"/>   
    <g transform="matrix(1.00, 0.00, 0.00, 1.00, 0.00, 0.00)">
        <path fill="#000000FF" stroke="#000000FF" stroke-linecap="round" stroke-linejoin="round" stroke-width="0.1"   d="M28.51 36L26.35 31.97L24.01 31.97L24.01 36L22.69 36L22.69 26.05L25.99 26.05Q27.67 26.05 28.58 26.81Q29.48 27.58 29.48 29.04L29.48 29.04Q29.48 29.97 28.98 30.66Q28.48 31.35 27.58 31.69L27.58 31.69L29.92 35.92L29.92 36L28.51 36ZM24.01 27.13L24.01 30.90L26.03 30.90Q27.01 30.90 27.58 30.39Q28.16 29.89 28.16 29.04L28.16 29.04Q28.16 28.12 27.61 27.63Q27.06 27.13 26.02 27.13L26.02 27.13L24.01 27.13ZM34.19 36.14L34.19 36.14Q32.69 36.14 31.74 35.15Q30.80 34.16 30.80 32.51L30.80 32.51L30.80 32.27Q30.80 31.17 31.22 30.31Q31.64 29.44 32.40 28.96Q33.15 28.47 34.03 28.47L34.03 28.47Q35.48 28.47 36.28 29.42Q37.08 30.37 37.08 32.14L37.08 32.14L37.08 32.66L32.06 32.66Q32.09 33.76 32.70 34.43Q33.32 35.10 34.26 35.10L34.26 35.10Q34.93 35.10 35.39 34.83Q35.86 34.56 36.21 34.11L36.21 34.11L36.98 34.71Q36.05 36.14 34.19 36.14ZM34.03 29.51L34.03 29.51Q33.27 29.51 32.75 30.06Q32.23 30.62 32.11 31.63L32.11 31.63L35.81 31.63L35.81 31.53Q35.76 30.57 35.29 30.04Q34.83 29.51 34.03 29.51ZM39.91 25.50L39.91 36L38.65 36L38.65 25.50L39.91 25.50ZM47.83 36L46.50 36Q46.39 35.78 46.32 35.22L46.32 35.22Q45.44 36.14 44.22 36.14L44.22 36.14Q43.13 36.14 42.42 35.52Q41.72 34.90 41.72 33.95L41.72 33.95Q41.72 32.79 42.60 32.15Q43.48 31.52 45.07 31.52L45.07 31.52L46.30 31.52L46.30 30.93Q46.30 30.27 45.91 29.88Q45.51 29.49 44.74 29.49L44.74 29.49Q44.06 29.49 43.60 29.83Q43.15 30.17 43.15 30.65L43.15 30.65L41.87 30.65Q41.87 30.10 42.27 29.58Q42.66 29.07 43.33 28.77Q44.01 28.47 44.81 28.47L44.81 28.47Q46.09 28.47 46.82 29.11Q47.54 29.75 47.57 30.87L47.57 30.87L47.57 34.27Q47.57 35.29 47.83 35.89L47.83 35.89L47.83 36ZM44.40 35.04L44.40 35.04Q45.00 35.04 45.53 34.73Q46.06 34.42 46.30 33.93L46.30 33.93L46.30 32.41L45.31 32.41Q42.99 32.41 42.99 33.77L42.99 33.77Q42.99 34.37 43.39 34.70Q43.78 35.04 44.40 35.04ZM50.00 26.81L51.27 26.81L51.27 28.60L52.65 28.60L52.65 29.58L51.27 29.58L51.27 34.17Q51.27 34.61 51.45 34.83Q51.64 35.06 52.08 35.06L52.08 35.06Q52.30 35.06 52.68 34.97L52.68 34.97L52.68 36Q52.18 36.14 51.71 36.14L51.71 36.14Q50.86 36.14 50.43 35.62Q50.00 35.11 50.00 34.17L50.00 34.17L50.00 29.58L48.66 29.58L48.66 28.60L50.00 28.60L50.00 26.81ZM55.50 28.60L55.50 36L54.23 36L54.23 28.60L55.50 28.60ZM54.13 26.64L54.13 26.64Q54.13 26.33 54.32 26.12Q54.51 25.91 54.88 25.91Q55.25 25.91 55.44 26.12Q55.63 26.33 55.63 26.64Q55.63 26.95 55.44 27.15Q55.25 27.36 54.88 27.36Q54.51 27.36 54.32 27.15Q54.13 26.95 54.13 26.64ZM57.19 32.32L57.19 32.23Q57.19 31.15 57.61 30.28Q58.04 29.41 58.80 28.94Q59.57 28.47 60.54 28.47L60.54 28.47Q62.05 28.47 62.99 29.51Q63.92 30.56 63.92 32.29L63.92 32.29L63.92 32.38Q63.92 33.46 63.51 34.32Q63.09 35.18 62.32 35.66Q61.56 36.14 60.56 36.14L60.56 36.14Q59.05 36.14 58.12 35.09Q57.19 34.04 57.19 32.32L57.19 32.32ZM58.46 32.38L58.46 32.38Q58.46 33.61 59.03 34.36Q59.60 35.10 60.56 35.10L60.56 35.10Q61.52 35.10 62.09 34.35Q62.66 33.59 62.66 32.23L62.66 32.23Q62.66 31.02 62.08 30.26Q61.50 29.51 60.54 29.51L60.54 29.51Q59.61 29.51 59.03 30.25Q58.46 31.00 58.46 32.38ZM65.51 28.60L66.70 28.60L66.74 29.53Q67.59 28.47 68.96 28.47L68.96 28.47Q71.30 28.47 71.32 31.11L71.32 31.11L71.32 36L70.06 36L70.06 31.11Q70.05 30.31 69.69 29.92Q69.33 29.54 68.58 29.54L68.58 29.54Q67.96 29.54 67.50 29.87Q67.03 30.20 66.77 30.73L66.77 30.73L66.77 36L65.51 36L65.51 28.60ZM77.54 34.04L77.54 34.04Q77.54 33.53 77.15 33.24Q76.77 32.96 75.80 32.75Q74.84 32.55 74.28 32.26Q73.72 31.97 73.45 31.58Q73.18 31.18 73.18 30.63L73.18 30.63Q73.18 29.72 73.95 29.10Q74.71 28.47 75.91 28.47L75.91 28.47Q77.17 28.47 77.95 29.12Q78.73 29.77 78.73 30.78L78.73 30.78L77.46 30.78Q77.46 30.26 77.02 29.88Q76.58 29.51 75.91 29.51L75.91 29.51Q75.22 29.51 74.83 29.81Q74.44 30.11 74.44 30.59L74.44 30.59Q74.44 31.05 74.80 31.28Q75.17 31.52 76.11 31.73Q77.06 31.94 77.65 32.23Q78.23 32.53 78.52 32.94Q78.80 33.35 78.80 33.95L78.80 33.95Q78.80 34.94 78.01 35.54Q77.22 36.14 75.95 36.14L75.95 36.14Q75.06 36.14 74.38 35.82Q73.70 35.51 73.31 34.94Q72.92 34.38 72.92 33.72L72.92 33.72L74.19 33.72Q74.22 34.36 74.70 34.73Q75.17 35.10 75.95 35.10L75.95 35.10Q76.67 35.10 77.10 34.81Q77.54 34.52 77.54 34.04ZM81.71 25.50L81.71 29.50Q82.56 28.47 83.90 28.47L83.90 28.47Q86.25 28.47 86.27 31.11L86.27 31.11L86.27 36L85.00 36L85.00 31.11Q85.00 30.31 84.64 29.92Q84.28 29.54 83.52 29.54L83.52 29.54Q82.90 29.54 82.44 29.87Q81.97 30.20 81.71 30.73L81.71 30.73L81.71 36L80.45 36L80.45 25.50L81.71 25.50ZM89.53 28.60L89.53 36L88.27 36L88.27 28.60L89.53 28.60ZM88.17 26.64L88.17 26.64Q88.17 26.33 88.36 26.12Q88.54 25.91 88.91 25.91Q89.28 25.91 89.47 26.12Q89.66 26.33 89.66 26.64Q89.66 26.95 89.47 27.15Q89.28 27.36 88.91 27.36Q88.54 27.36 88.36 27.15Q88.17 26.95 88.17 26.64ZM97.81 32.27L97.81 32.38Q97.81 34.07 97.03 35.10Q96.26 36.14 94.94 36.14L94.94 36.14Q93.60 36.14 92.82 35.28L92.82 35.28L92.82 38.84L91.56 38.84L91.56 28.60L92.71 28.60L92.77 29.42Q93.55 28.47 94.92 28.47L94.92 28.47Q96.25 28.47 97.03 29.47Q97.81 30.48 97.81 32.27L97.81 32.27ZM96.54 32.24L96.54 32.24Q96.54 30.99 96.01 30.26Q95.48 29.54 94.55 29.54L94.55 29.54Q93.40 29.54 92.82 30.56L92.82 30.56L92.82 34.09Q93.39 35.10 94.56 35.10L94.56 35.10Q95.47 35.10 96.00 34.38Q96.54 33.66 96.54 32.24Z"/>
    </g>
</g>
</svg>