<svg xmlns="http://www.w3.org/2000/svg" version="1.1" xmlns:xlink="http://www.w3.org/1999/xlink" xmlns:svgjs="http://svgjs.dev/svgjs" width="130" height="70" viewbox="0 0 130 70"   shape-rendering="geometricPrecision">
<g id="252cd38c6b5b4fb6a0a87347e8373aab" transform="translate(5, 5) ">
    <path fill="#FFFFFFFF" stroke="#323232FF" stroke-width="2"  d="M60 0Q58.5271 0 57.0559 0.0361363Q55.5848 0.0722726 54.119 0.144458Q52.6531 0.216644 51.1962 0.324705Q49.7392 0.432766 48.2946 0.576441Q46.85 0.720117 45.4212 0.899062Q43.9924 1.07801 42.5829 1.29179Q41.1734 1.50557 39.7866 1.75368Q38.3998 2.00178 37.039 2.28361Q35.6782 2.56544 34.3467 2.88032Q33.0152 3.1952 31.7162 3.54236Q30.4172 3.88953 29.1538 4.26814Q27.8905 4.64676 26.6658 5.05591Q25.4411 5.46507 24.258 5.90377Q23.075 6.34248 21.9364 6.80969Q20.7978 7.27689 19.7065 7.77147Q18.6151 8.26604 17.5736 8.7868Q16.5321 9.30755 15.5429 9.85323Q14.5538 10.3989 13.6194 10.9682Q12.685 11.5375 11.8075 12.129Q10.9301 12.7205 10.1118 13.3329Q9.29351 13.9452 8.53628 14.5769Q7.77905 15.2086 7.08472 15.8581Q6.3904 16.5076 5.76064 17.1733Q5.13089 17.8391 4.56723 18.5195Q4.00357 19.1999 3.50736 19.8933Q3.01114 20.5867 2.58358 21.2915Q2.15601 21.9962 1.79812 22.7106Q1.44023 23.425 1.15288 24.1473Q0.865531 24.8696 0.649409 25.5981Q0.433287 26.3266 0.288916 27.0595Q0.144545 27.7924 0.0722726 28.528Q0 29.2635 0 30Q0 30.7365 0.0722726 31.472Q0.144545 32.2076 0.288916 32.9405Q0.433287 33.6734 0.649409 34.4019Q0.865531 35.1304 1.15288 35.8527Q1.44023 36.575 1.79812 37.2894Q2.15601 38.0038 2.58358 38.7085Q3.01114 39.4133 3.50736 40.1067Q4.00357 40.8001 4.56723 41.4805Q5.13089 42.1609 5.76064 42.8266Q6.3904 43.4924 7.08472 44.1419Q7.77905 44.7914 8.53628 45.4231Q9.29351 46.0548 10.1118 46.6671Q10.9301 47.2794 11.8075 47.871Q12.685 48.4625 13.6194 49.0318Q14.5538 49.6011 15.5429 50.1468Q16.5321 50.6924 17.5736 51.2132Q18.6151 51.7339 19.7065 52.2285Q20.7978 52.7231 21.9364 53.1903Q23.075 53.6575 24.258 54.0962Q25.4411 54.5349 26.6658 54.9441Q27.8905 55.3532 29.1538 55.7318Q30.4172 56.1105 31.7162 56.4576Q33.0152 56.8048 34.3467 57.1197Q35.6782 57.4345 37.039 57.7164Q38.3998 57.9982 39.7866 58.2463Q41.1734 58.4944 42.5829 58.7082Q43.9924 58.922 45.4212 59.1009Q46.85 59.2799 48.2946 59.4236Q49.7392 59.5672 51.1962 59.6753Q52.6531 59.7834 54.119 59.8555Q55.5848 59.9277 57.0559 59.9639Q58.5271 60 60 60Q61.4729 60 62.9441 59.9639Q64.4152 59.9277 65.881 59.8555Q67.3469 59.7834 68.8038 59.6753Q70.2608 59.5672 71.7054 59.4236Q73.15 59.2799 74.5788 59.1009Q76.0076 58.922 77.4171 58.7082Q78.8266 58.4944 80.2134 58.2463Q81.6002 57.9982 82.961 57.7164Q84.3218 57.4345 85.6533 57.1197Q86.9848 56.8048 88.2838 56.4576Q89.5828 56.1105 90.8462 55.7318Q92.1095 55.3532 93.3342 54.9441Q94.5589 54.5349 95.7419 54.0962Q96.925 53.6575 98.0636 53.1903Q99.2022 52.7231 100.294 52.2285Q101.385 51.734 102.426 51.2132Q103.468 50.6924 104.457 50.1468Q105.446 49.6011 106.381 49.0318Q107.315 48.4625 108.192 47.871Q109.07 47.2794 109.888 46.6671Q110.706 46.0548 111.464 45.4231Q112.221 44.7914 112.915 44.1419Q113.61 43.4924 114.239 42.8266Q114.869 42.1609 115.433 41.4805Q115.996 40.8001 116.493 40.1067Q116.989 39.4133 117.416 38.7085Q117.844 38.0038 118.202 37.2894Q118.56 36.575 118.847 35.8527Q119.134 35.1304 119.351 34.4019Q119.567 33.6734 119.711 32.9405Q119.855 32.2076 119.928 31.472Q120 30.7365 120 30Q120 29.2635 119.928 28.528Q119.855 27.7924 119.711 27.0595Q119.567 26.3266 119.351 25.5981Q119.134 24.8696 118.847 24.1473Q118.56 23.425 118.202 22.7106Q117.844 21.9962 117.416 21.2915Q116.989 20.5867 116.493 19.8933Q115.996 19.1999 115.433 18.5195Q114.869 17.8391 114.239 17.1733Q113.61 16.5076 112.915 15.8581Q112.221 15.2086 111.464 14.5769Q110.706 13.9452 109.888 13.3329Q109.07 12.7205 108.192 12.129Q107.315 11.5375 106.381 10.9682Q105.446 10.3989 104.457 9.85323Q103.468 9.30755 102.426 8.7868Q101.385 8.26604 100.294 7.77147Q99.2022 7.27689 98.0636 6.80969Q96.925 6.34248 95.7419 5.90377Q94.5589 5.46507 93.3342 5.05591Q92.1095 4.64676 90.8462 4.26814Q89.5828 3.88953 88.2838 3.54236Q86.9848 3.1952 85.6533 2.88032Q84.3218 2.56544 82.961 2.28361Q81.6002 2.00178 80.2134 1.75368Q78.8266 1.50557 77.4171 1.29179Q76.0076 1.07801 74.5788 0.899062Q73.15 0.720117 71.7054 0.576441Q70.2608 0.432766 68.8038 0.324705Q67.3469 0.216644 65.881 0.144458Q64.4152 0.0722726 62.9441 0.0361363Q61.4729 0 60 0Z"/> 
    <path fill="#FFFFFF00" stroke="#323232FF" stroke-width="2"  d="M60 6Q58.6744 6 57.3503 6.02891Q56.0263 6.05782 54.7071 6.11557Q53.3878 6.17332 52.0766 6.25976Q50.7653 6.34621 49.4651 6.46115Q48.165 6.57609 46.8791 6.71925Q45.5932 6.86241 44.3246 7.03343Q43.0561 7.20446 41.8079 7.40294Q40.5598 7.60143 39.3351 7.82689Q38.1104 8.05235 36.912 8.30426Q35.7137 8.55616 34.5446 8.83389Q33.3755 9.11162 32.2384 9.41451Q31.1014 9.7174 29.9992 10.0447Q28.897 10.3721 27.8322 10.723Q26.7675 11.074 25.7428 11.4477Q24.718 11.8215 23.7358 12.2172Q22.7536 12.6128 21.8162 13.0294Q20.8789 13.446 19.9886 13.8826Q19.0984 14.3191 18.2574 14.7746Q17.4165 15.23 16.6268 15.7032Q15.8371 16.1764 15.1006 16.6663Q14.3642 17.1562 13.6827 17.6615Q13.0011 18.1669 12.3763 18.6865Q11.7514 19.2061 11.1846 19.7387Q10.6178 20.2713 10.1105 20.8156Q9.60321 21.3599 9.15662 21.9146Q8.71003 22.4694 8.32522 23.0332Q7.94041 23.597 7.61831 24.1685Q7.29621 24.74 7.03759 25.3178Q6.77898 25.8957 6.58447 26.4785Q6.38996 27.0613 6.26003 27.6476Q6.13009 28.2339 6.06505 28.8224Q6 29.4108 6 30Q6 30.5892 6.06505 31.1776Q6.13009 31.7661 6.26003 32.3524Q6.38996 32.9387 6.58447 33.5215Q6.77898 34.1043 7.03759 34.6822Q7.29621 35.26 7.61831 35.8315Q7.94041 36.403 8.32522 36.9668Q8.71003 37.5306 9.15662 38.0854Q9.60321 38.6401 10.1105 39.1844Q10.6178 39.7287 11.1846 40.2613Q11.7514 40.7939 12.3763 41.3135Q13.0011 41.8331 13.6827 42.3385Q14.3642 42.8438 15.1006 43.3337Q15.8371 43.8236 16.6268 44.2968Q17.4165 44.77 18.2574 45.2254Q19.0984 45.6809 19.9886 46.1174Q20.8789 46.554 21.8162 46.9706Q22.7536 47.3872 23.7358 47.7828Q24.718 48.1785 25.7428 48.5522Q26.7675 48.926 27.8322 49.277Q28.897 49.6279 29.9992 49.9553Q31.1014 50.2826 32.2384 50.5855Q33.3755 50.8884 34.5446 51.1661Q35.7137 51.4438 36.912 51.6957Q38.1104 51.9476 39.3351 52.1731Q40.5598 52.3986 41.8079 52.5971Q43.0561 52.7955 44.3246 52.9666Q45.5932 53.1376 46.8791 53.2807Q48.165 53.4239 49.4651 53.5388Q50.7653 53.6538 52.0765 53.7402Q53.3878 53.8267 54.7071 53.8844Q56.0263 53.9422 57.3503 53.9711Q58.6744 54 60 54Q61.3256 54 62.6497 53.9711Q63.9737 53.9422 65.2929 53.8844Q66.6122 53.8267 67.9234 53.7402Q69.2347 53.6538 70.5349 53.5388Q71.835 53.4239 73.1209 53.2807Q74.4068 53.1376 75.6754 52.9666Q76.9439 52.7955 78.192 52.597Q79.4402 52.3986 80.6649 52.1731Q81.8896 51.9476 83.088 51.6957Q84.2863 51.4438 85.4554 51.1661Q86.6245 50.8884 87.7615 50.5855Q88.8986 50.2826 90.0008 49.9553Q91.103 49.6279 92.1678 49.277Q93.2325 48.926 94.2572 48.5522Q95.282 48.1785 96.2642 47.7828Q97.2464 47.3872 98.1838 46.9706Q99.1211 46.554 100.011 46.1174Q100.902 45.6809 101.743 45.2254Q102.584 44.77 103.373 44.2968Q104.163 43.8236 104.899 43.3337Q105.636 42.8438 106.317 42.3385Q106.999 41.8331 107.624 41.3135Q108.249 40.7939 108.815 40.2613Q109.382 39.7287 109.889 39.1844Q110.397 38.6401 110.843 38.0854Q111.29 37.5306 111.675 36.9668Q112.06 36.403 112.382 35.8315Q112.704 35.26 112.962 34.6822Q113.221 34.1043 113.416 33.5215Q113.61 32.9387 113.74 32.3524Q113.87 31.7661 113.935 31.1776Q114 30.5892 114 30Q114 29.4108 113.935 28.8224Q113.87 28.2339 113.74 27.6476Q113.61 27.0613 113.416 26.4785Q113.221 25.8957 112.962 25.3178Q112.704 24.74 112.382 24.1685Q112.06 23.597 111.675 23.0332Q111.29 22.4694 110.843 21.9146Q110.397 21.3599 109.889 20.8156Q109.382 20.2713 108.815 19.7387Q108.249 19.2061 107.624 18.6865Q106.999 18.1669 106.317 17.6615Q105.636 17.1562 104.899 16.6663Q104.163 16.1764 103.373 15.7032Q102.584 15.23 101.743 14.7746Q100.902 14.3191 100.011 13.8826Q99.1211 13.446 98.1838 13.0294Q97.2464 12.6128 96.2642 12.2172Q95.282 11.8215 94.2572 11.4477Q93.2325 11.074 92.1678 10.723Q91.103 10.3721 90.0008 10.0447Q88.8986 9.7174 87.7615 9.41451Q86.6245 9.11162 85.4554 8.83389Q84.2863 8.55616 83.088 8.30426Q81.8896 8.05235 80.6649 7.82689Q79.4402 7.60143 78.192 7.40294Q76.9439 7.20446 75.6754 7.03343Q74.4068 6.8624 73.1209 6.71925Q71.835 6.57609 70.5349 6.46115Q69.2347 6.34621 67.9234 6.25976Q66.6122 6.17332 65.2929 6.11557Q63.9737 6.05782 62.6497 6.02891Q61.3256 6 60 6Z"/>   
    <g transform="matrix(1.00, 0.00, 0.00, 1.00, 0.00, 0.00)">
        <path fill="#000000FF" stroke="#000000FF" stroke-linecap="round" stroke-linejoin="round" stroke-width="0.1"   d="M40.67 36L39.72 33.40L35.55 33.40L34.61 36L33.26 36L37.06 26.05L38.21 26.05L42.02 36L40.67 36ZM37.64 27.67L35.95 32.32L39.33 32.32L37.64 27.67ZM43.49 26.81L44.76 26.81L44.76 28.60L46.14 28.60L46.14 29.58L44.76 29.58L44.76 34.17Q44.76 34.61 44.94 34.83Q45.13 35.06 45.57 35.06L45.57 35.06Q45.79 35.06 46.17 34.97L46.17 34.97L46.17 36Q45.68 36.14 45.20 36.14L45.20 36.14Q44.36 36.14 43.93 35.62Q43.49 35.11 43.49 34.17L43.49 34.17L43.49 29.58L42.15 29.58L42.15 28.60L43.49 28.60L43.49 26.81ZM48.07 26.81L49.33 26.81L49.33 28.60L50.71 28.60L50.71 29.58L49.33 29.58L49.33 34.17Q49.33 34.61 49.52 34.83Q49.70 35.06 50.15 35.06L50.15 35.06Q50.36 35.06 50.75 34.97L50.75 34.97L50.75 36Q50.25 36.14 49.78 36.14L49.78 36.14Q48.93 36.14 48.50 35.62Q48.07 35.11 48.07 34.17L48.07 34.17L48.07 29.58L46.72 29.58L46.72 28.60L48.07 28.60L48.07 26.81ZM55.77 28.56L55.77 29.74Q55.48 29.69 55.14 29.69L55.14 29.69Q53.90 29.69 53.45 30.75L53.45 30.75L53.45 36L52.19 36L52.19 28.60L53.42 28.60L53.44 29.46Q54.06 28.47 55.20 28.47L55.20 28.47Q55.57 28.47 55.77 28.56L55.77 28.56ZM58.30 28.60L58.30 36L57.04 36L57.04 28.60L58.30 28.60ZM56.93 26.64L56.93 26.64Q56.93 26.33 57.12 26.12Q57.31 25.91 57.68 25.91Q58.05 25.91 58.24 26.12Q58.43 26.33 58.43 26.64Q58.43 26.95 58.24 27.15Q58.05 27.36 57.68 27.36Q57.31 27.36 57.12 27.15Q56.93 26.95 56.93 26.64ZM66.59 32.27L66.59 32.38Q66.59 34.08 65.81 35.11Q65.03 36.14 63.72 36.14L63.72 36.14Q62.31 36.14 61.55 35.15L61.55 35.15L61.49 36L60.32 36L60.32 25.50L61.59 25.50L61.59 29.42Q62.35 28.47 63.70 28.47Q65.05 28.47 65.82 29.49Q66.59 30.50 66.59 32.27L66.59 32.27ZM65.32 32.24L65.32 32.24Q65.32 30.95 64.82 30.24Q64.32 29.54 63.39 29.54L63.39 29.54Q62.14 29.54 61.59 30.70L61.59 30.70L61.59 33.90Q62.17 35.06 63.40 35.06L63.40 35.06Q64.31 35.06 64.82 34.36Q65.32 33.66 65.32 32.24ZM72.77 36L72.75 35.27Q72.01 36.14 70.58 36.14L70.58 36.14Q69.40 36.14 68.78 35.45Q68.16 34.76 68.15 33.42L68.15 33.42L68.15 28.60L69.42 28.60L69.42 33.38Q69.42 35.06 70.78 35.06L70.78 35.06Q72.23 35.06 72.71 33.98L72.71 33.98L72.71 28.60L73.98 28.60L73.98 36L72.77 36ZM76.35 26.81L77.61 26.81L77.61 28.60L78.99 28.60L78.99 29.58L77.61 29.58L77.61 34.17Q77.61 34.61 77.80 34.83Q77.98 35.06 78.43 35.06L78.43 35.06Q78.65 35.06 79.03 34.97L79.03 34.97L79.03 36Q78.53 36.14 78.06 36.14L78.06 36.14Q77.21 36.14 76.78 35.62Q76.35 35.11 76.35 34.17L76.35 34.17L76.35 29.58L75.00 29.58L75.00 28.60L76.35 28.60L76.35 26.81ZM83.54 36.14L83.54 36.14Q82.04 36.14 81.09 35.15Q80.15 34.16 80.15 32.51L80.15 32.51L80.15 32.27Q80.15 31.17 80.57 30.31Q80.99 29.44 81.75 28.96Q82.50 28.47 83.38 28.47L83.38 28.47Q84.82 28.47 85.62 29.42Q86.42 30.37 86.42 32.14L86.42 32.14L86.42 32.66L81.41 32.66Q81.44 33.76 82.05 34.43Q82.66 35.10 83.61 35.10L83.61 35.10Q84.28 35.10 84.74 34.83Q85.21 34.56 85.56 34.11L85.56 34.11L86.33 34.71Q85.40 36.14 83.54 36.14ZM83.38 29.51L83.38 29.51Q82.62 29.51 82.10 30.06Q81.58 30.62 81.45 31.63L81.45 31.63L85.16 31.63L85.16 31.53Q85.10 30.57 84.64 30.04Q84.18 29.51 83.38 29.51Z"/>
    </g>
</g>
</svg>