<svg xmlns="http://www.w3.org/2000/svg" version="1.1" xmlns:xlink="http://www.w3.org/1999/xlink" xmlns:svgjs="http://svgjs.dev/svgjs" width="32" height="32" viewbox="0 0 32 32"   shape-rendering="geometricPrecision">
<g transform="translate(2, 15) ">
    <path fill="none" stroke="#323232FF" stroke-width="3"  d="M0 0L0 0L15 0L15 0L30 0L30 0"/>
    <path fill="none" stroke="#323232FF" stroke-width="3"  d="M0 0L0 0L15 0L15 0L30 0L30 0"/>
    <path fill="none" stroke="#323232FF" stroke-width="3"  d="M6 6Q5.85271 6 5.70559 5.99277Q5.55848 5.98555 5.4119 5.97111Q5.26531 5.95667 5.11962 5.93506Q4.97392 5.91345 4.82946 5.88471Q4.685 5.85598 4.54212 5.82019Q4.39924 5.7844 4.25829 5.74164Q4.11734 5.69888 3.97866 5.64926Q3.83998 5.59964 3.7039 5.54328Q3.56782 5.48691 3.43467 5.42394Q3.30152 5.36096 3.17162 5.29153Q3.04172 5.22209 2.91538 5.14637Q2.78905 5.07065 2.66658 4.98882Q2.54411 4.90699 2.4258 4.81924Q2.3075 4.7315 2.19364 4.63806Q2.07978 4.54462 1.97065 4.44571Q1.86151 4.34679 1.75736 4.24264Q1.65321 4.13849 1.55429 4.02935Q1.45538 3.92022 1.36194 3.80636Q1.2685 3.6925 1.18075 3.5742Q1.09301 3.45589 1.01118 3.33342Q0.929351 3.21095 0.853628 3.08462Q0.777905 2.95828 0.708472 2.82838Q0.63904 2.69848 0.576064 2.56533Q0.513089 2.43218 0.456723 2.2961Q0.400357 2.16002 0.350736 2.02134Q0.301114 1.88266 0.258358 1.74171Q0.215601 1.60076 0.179812 1.45788Q0.144023 1.315 0.115288 1.17054Q0.0865531 1.02608 0.0649409 0.880383Q0.0433288 0.734685 0.0288916 0.588103Q0.0144545 0.44152 0.00722726 0.294406Q0 0.147292 0 0Q0 -0.147292 0.00722726 -0.294406Q0.0144545 -0.44152 0.0288916 -0.588103Q0.0433288 -0.734685 0.0649409 -0.880383Q0.0865531 -1.02608 0.115288 -1.17054Q0.144023 -1.315 0.179812 -1.45788Q0.215601 -1.60076 0.258358 -1.74171Q0.301114 -1.88266 0.350736 -2.02134Q0.400357 -2.16002 0.456723 -2.2961Q0.513089 -2.43218 0.576064 -2.56533Q0.63904 -2.69848 0.708472 -2.82838Q0.777905 -2.95828 0.853628 -3.08462Q0.929351 -3.21095 1.01118 -3.33342Q1.09301 -3.45589 1.18075 -3.5742Q1.2685 -3.6925 1.36194 -3.80636Q1.45538 -3.92022 1.55429 -4.02935Q1.65321 -4.13849 1.75736 -4.24264Q1.86151 -4.34679 1.97065 -4.44571Q2.07978 -4.54462 2.19364 -4.63806Q2.3075 -4.7315 2.4258 -4.81924Q2.54411 -4.90699 2.66658 -4.98882Q2.78905 -5.07065 2.91538 -5.14637Q3.04172 -5.22209 3.17162 -5.29153Q3.30152 -5.36096 3.43467 -5.42394Q3.56782 -5.48691 3.7039 -5.54328Q3.83998 -5.59964 3.97866 -5.64926Q4.11734 -5.69888 4.25829 -5.74164Q4.39924 -5.7844 4.54212 -5.82019Q4.685 -5.85598 4.82946 -5.88471Q4.97392 -5.91345 5.11962 -5.93506Q5.26531 -5.95667 5.4119 -5.97111Q5.55848 -5.98555 5.70559 -5.99277Q5.85271 -6 6 -6"/>
</g>
</svg>