<svg xmlns="http://www.w3.org/2000/svg" version="1.1" xmlns:xlink="http://www.w3.org/1999/xlink" xmlns:svgjs="http://svgjs.dev/svgjs" width="32" height="32" viewbox="0 0 32 32"   shape-rendering="geometricPrecision">
<g transform="translate(2, 15) ">
    <path fill="none" stroke="#323232FF" stroke-width="3"  d="M30 0L30 0L15 0L15 0L0 0L0 0"/>
    <path fill="none" stroke="#323232FF" stroke-width="3"  d="M30 0L30 0L15 0L15 0L0 0L0 0"/>
    <path fill="#323232FF" d="M30 0L18 -6L6 0L18 6L30 0M6 0L-6 -6L-18 0L-6 6L6 0"/>
    <path fill="none" stroke="#323232FF" stroke-width="3"  d="M30 0L18 -6L6 0L18 6L30 0M6 0L-6 -6L-18 0L-6 6L6 0"/>
</g>
</svg>