<svg xmlns="http://www.w3.org/2000/svg" version="1.1" xmlns:xlink="http://www.w3.org/1999/xlink" xmlns:svgjs="http://svgjs.dev/svgjs" width="32" height="32" viewbox="0 0 32 32"   shape-rendering="geometricPrecision">
<g transform="translate(2, 15) ">
    <path fill="none" stroke="#323232FF" stroke-width="3"  d="M0 0L0 0L15 0L15 0L30 0L30 0"/>
    <path fill="none" stroke="#323232FF" stroke-width="3"  d="M0 0L0 0L15 0L15 0L30 0L30 0"/>
    <path fill="#323232FF" d="M6 -6Q5.85271 -6 5.70559 -5.99277Q5.55848 -5.98555 5.4119 -5.97111Q5.26531 -5.95667 5.11962 -5.93506Q4.97392 -5.91345 4.82946 -5.88471Q4.685 -5.85598 4.54212 -5.82019Q4.39924 -5.7844 4.25829 -5.74164Q4.11734 -5.69888 3.97866 -5.64926Q3.83998 -5.59964 3.7039 -5.54328Q3.56782 -5.48691 3.43467 -5.42394Q3.30152 -5.36096 3.17162 -5.29153Q3.04172 -5.22209 2.91538 -5.14637Q2.78905 -5.07065 2.66658 -4.98882Q2.54411 -4.90699 2.4258 -4.81924Q2.3075 -4.7315 2.19364 -4.63806Q2.07978 -4.54462 1.97065 -4.44571Q1.86151 -4.34679 1.75736 -4.24264Q1.65321 -4.13849 1.55429 -4.02935Q1.45538 -3.92022 1.36194 -3.80636Q1.2685 -3.6925 1.18075 -3.5742Q1.09301 -3.45589 1.01118 -3.33342Q0.929351 -3.21095 0.853628 -3.08462Q0.777905 -2.95828 0.708472 -2.82838Q0.63904 -2.69848 0.576064 -2.56533Q0.513089 -2.43218 0.456723 -2.2961Q0.400357 -2.16002 0.350736 -2.02134Q0.301114 -1.88266 0.258358 -1.74171Q0.215601 -1.60076 0.179812 -1.45788Q0.144023 -1.315 0.115288 -1.17054Q0.0865531 -1.02608 0.0649409 -0.880383Q0.0433288 -0.734685 0.0288916 -0.588103Q0.0144545 -0.44152 0.00722726 -0.294406Q0 -0.147292 0 0Q0 0.147292 0.00722726 0.294406Q0.0144545 0.44152 0.0288916 0.588103Q0.0433288 0.734685 0.0649409 0.880383Q0.0865531 1.02608 0.115288 1.17054Q0.144023 1.315 0.179812 1.45788Q0.215601 1.60076 0.258358 1.74171Q0.301114 1.88266 0.350736 2.02134Q0.400357 2.16002 0.456723 2.2961Q0.513089 2.43218 0.576064 2.56533Q0.63904 2.69848 0.708472 2.82838Q0.777905 2.95828 0.853628 3.08462Q0.929351 3.21095 1.01118 3.33342Q1.09301 3.45589 1.18075 3.5742Q1.2685 3.6925 1.36194 3.80636Q1.45538 3.92022 1.55429 4.02935Q1.65321 4.13849 1.75736 4.24264Q1.86151 4.34679 1.97065 4.44571Q2.07978 4.54462 2.19364 4.63806Q2.3075 4.7315 2.4258 4.81924Q2.54411 4.90699 2.66658 4.98882Q2.78905 5.07065 2.91538 5.14637Q3.04172 5.22209 3.17162 5.29153Q3.30152 5.36096 3.43467 5.42394Q3.56782 5.48691 3.7039 5.54328Q3.83998 5.59964 3.97866 5.64926Q4.11734 5.69888 4.25829 5.74164Q4.39924 5.7844 4.54212 5.82019Q4.685 5.85598 4.82946 5.88471Q4.97392 5.91345 5.11962 5.93506Q5.26531 5.95667 5.4119 5.97111Q5.55848 5.98555 5.70559 5.99277Q5.85271 6 6 6Q6.14729 6 6.29441 5.99277Q6.44152 5.98555 6.5881 5.97111Q6.73469 5.95667 6.88038 5.93506Q7.02608 5.91345 7.17054 5.88471Q7.315 5.85598 7.45788 5.82019Q7.60076 5.7844 7.74171 5.74164Q7.88266 5.69888 8.02134 5.64926Q8.16002 5.59964 8.2961 5.54328Q8.43218 5.48691 8.56533 5.42394Q8.69848 5.36096 8.82838 5.29153Q8.95828 5.22209 9.08462 5.14637Q9.21095 5.07065 9.33342 4.98882Q9.45589 4.90699 9.57419 4.81924Q9.6925 4.7315 9.80636 4.63806Q9.92022 4.54462 10.0294 4.44571Q10.1385 4.34679 10.2426 4.24264Q10.3468 4.13849 10.4457 4.02935Q10.5446 3.92022 10.6381 3.80636Q10.7315 3.6925 10.8192 3.5742Q10.907 3.45589 10.9888 3.33342Q11.0706 3.21095 11.1464 3.08462Q11.2221 2.95828 11.2915 2.82838Q11.361 2.69848 11.4239 2.56533Q11.4869 2.43218 11.5433 2.2961Q11.5996 2.16002 11.6493 2.02134Q11.6989 1.88266 11.7416 1.74171Q11.7844 1.60076 11.8202 1.45788Q11.856 1.315 11.8847 1.17054Q11.9134 1.02608 11.9351 0.880383Q11.9567 0.734685 11.9711 0.588103Q11.9855 0.44152 11.9928 0.294406Q12 0.147292 12 0Q12 -0.147292 11.9928 -0.294406Q11.9855 -0.44152 11.9711 -0.588103Q11.9567 -0.734685 11.9351 -0.880383Q11.9134 -1.02608 11.8847 -1.17054Q11.856 -1.315 11.8202 -1.45788Q11.7844 -1.60076 11.7416 -1.74171Q11.6989 -1.88266 11.6493 -2.02134Q11.5996 -2.16002 11.5433 -2.2961Q11.4869 -2.43218 11.4239 -2.56533Q11.361 -2.69848 11.2915 -2.82838Q11.2221 -2.95828 11.1464 -3.08462Q11.0706 -3.21095 10.9888 -3.33342Q10.907 -3.45589 10.8192 -3.5742Q10.7315 -3.6925 10.6381 -3.80636Q10.5446 -3.92022 10.4457 -4.02935Q10.3468 -4.13849 10.2426 -4.24264Q10.1385 -4.34679 10.0294 -4.44571Q9.92022 -4.54462 9.80636 -4.63806Q9.6925 -4.7315 9.5742 -4.81924Q9.45589 -4.90699 9.33342 -4.98882Q9.21095 -5.07065 9.08462 -5.14637Q8.95828 -5.22209 8.82838 -5.29153Q8.69848 -5.36096 8.56533 -5.42394Q8.43218 -5.48691 8.2961 -5.54328Q8.16002 -5.59964 8.02134 -5.64926Q7.88266 -5.69888 7.74171 -5.74164Q7.60076 -5.7844 7.45788 -5.82019Q7.315 -5.85598 7.17054 -5.88471Q7.02608 -5.91345 6.88038 -5.93506Q6.73469 -5.95667 6.5881 -5.97111Q6.44152 -5.98555 6.29441 -5.99277Q6.14729 -6 6 -6ZM18 -6Q17.8527 -6 17.7056 -5.99277Q17.5585 -5.98555 17.4119 -5.97111Q17.2653 -5.95667 17.1196 -5.93506Q16.9739 -5.91345 16.8295 -5.88471Q16.685 -5.85598 16.5421 -5.82019Q16.3992 -5.7844 16.2583 -5.74164Q16.1173 -5.69888 15.9787 -5.64926Q15.84 -5.59964 15.7039 -5.54328Q15.5678 -5.48691 15.4347 -5.42394Q15.3015 -5.36096 15.1716 -5.29153Q15.0417 -5.22209 14.9154 -5.14637Q14.789 -5.07065 14.6666 -4.98882Q14.5441 -4.90699 14.4258 -4.81924Q14.3075 -4.7315 14.1936 -4.63806Q14.0798 -4.54462 13.9706 -4.44571Q13.8615 -4.34679 13.7574 -4.24264Q13.6532 -4.13849 13.5543 -4.02935Q13.4554 -3.92022 13.3619 -3.80636Q13.2685 -3.6925 13.1808 -3.5742Q13.093 -3.45589 13.0112 -3.33342Q12.9293 -3.21095 12.8536 -3.08462Q12.7779 -2.95828 12.7085 -2.82838Q12.639 -2.69848 12.5761 -2.56533Q12.5131 -2.43218 12.4567 -2.2961Q12.4004 -2.16002 12.3507 -2.02134Q12.3011 -1.88266 12.2584 -1.74171Q12.2156 -1.60076 12.1798 -1.45788Q12.144 -1.315 12.1153 -1.17054Q12.0866 -1.02608 12.0649 -0.880383Q12.0433 -0.734685 12.0289 -0.588103Q12.0145 -0.44152 12.0072 -0.294406Q12 -0.147292 12 0Q12 0.147292 12.0072 0.294406Q12.0145 0.44152 12.0289 0.588103Q12.0433 0.734685 12.0649 0.880383Q12.0866 1.02608 12.1153 1.17054Q12.144 1.315 12.1798 1.45788Q12.2156 1.60076 12.2584 1.74171Q12.3011 1.88266 12.3507 2.02134Q12.4004 2.16002 12.4567 2.2961Q12.5131 2.43218 12.5761 2.56533Q12.639 2.69848 12.7085 2.82838Q12.7779 2.95828 12.8536 3.08462Q12.9293 3.21095 13.0112 3.33342Q13.093 3.45589 13.1808 3.5742Q13.2685 3.6925 13.3619 3.80636Q13.4554 3.92022 13.5543 4.02935Q13.6532 4.13849 13.7574 4.24264Q13.8615 4.34679 13.9706 4.44571Q14.0798 4.54462 14.1936 4.63806Q14.3075 4.7315 14.4258 4.81924Q14.5441 4.90699 14.6666 4.98882Q14.789 5.07065 14.9154 5.14637Q15.0417 5.22209 15.1716 5.29153Q15.3015 5.36096 15.4347 5.42394Q15.5678 5.48691 15.7039 5.54328Q15.84 5.59964 15.9787 5.64926Q16.1173 5.69888 16.2583 5.74164Q16.3992 5.7844 16.5421 5.82019Q16.685 5.85598 16.8295 5.88471Q16.9739 5.91345 17.1196 5.93506Q17.2653 5.95667 17.4119 5.97111Q17.5585 5.98555 17.7056 5.99277Q17.8527 6 18 6Q18.1473 6 18.2944 5.99277Q18.4415 5.98555 18.5881 5.97111Q18.7347 5.95667 18.8804 5.93506Q19.0261 5.91345 19.1705 5.88471Q19.315 5.85598 19.4579 5.82019Q19.6008 5.7844 19.7417 5.74164Q19.8827 5.69888 20.0213 5.64926Q20.16 5.59964 20.2961 5.54328Q20.4322 5.48691 20.5653 5.42394Q20.6985 5.36096 20.8284 5.29153Q20.9583 5.22209 21.0846 5.14637Q21.2109 5.07065 21.3334 4.98882Q21.4559 4.90699 21.5742 4.81924Q21.6925 4.7315 21.8064 4.63806Q21.9202 4.54462 22.0294 4.44571Q22.1385 4.34679 22.2426 4.24264Q22.3468 4.13849 22.4457 4.02935Q22.5446 3.92022 22.6381 3.80636Q22.7315 3.6925 22.8192 3.5742Q22.907 3.45589 22.9888 3.33342Q23.0706 3.21095 23.1464 3.08462Q23.2221 2.95828 23.2915 2.82838Q23.361 2.69848 23.4239 2.56533Q23.4869 2.43218 23.5433 2.2961Q23.5996 2.16002 23.6493 2.02134Q23.6989 1.88266 23.7416 1.74171Q23.7844 1.60076 23.8202 1.45788Q23.856 1.315 23.8847 1.17054Q23.9134 1.02608 23.9351 0.880383Q23.9567 0.734685 23.9711 0.588103Q23.9855 0.44152 23.9928 0.294406Q24 0.147292 24 0Q24 -0.147292 23.9928 -0.294406Q23.9855 -0.44152 23.9711 -0.588103Q23.9567 -0.734685 23.9351 -0.880383Q23.9134 -1.02608 23.8847 -1.17054Q23.856 -1.315 23.8202 -1.45788Q23.7844 -1.60076 23.7416 -1.74171Q23.6989 -1.88266 23.6493 -2.02134Q23.5996 -2.16002 23.5433 -2.2961Q23.4869 -2.43218 23.4239 -2.56533Q23.361 -2.69848 23.2915 -2.82838Q23.2221 -2.95828 23.1464 -3.08462Q23.0706 -3.21095 22.9888 -3.33342Q22.907 -3.45589 22.8192 -3.5742Q22.7315 -3.6925 22.6381 -3.80636Q22.5446 -3.92022 22.4457 -4.02935Q22.3468 -4.13849 22.2426 -4.24264Q22.1385 -4.34679 22.0294 -4.44571Q21.9202 -4.54462 21.8064 -4.63806Q21.6925 -4.7315 21.5742 -4.81924Q21.4559 -4.90699 21.3334 -4.98882Q21.211 -5.07065 21.0846 -5.14637Q20.9583 -5.22209 20.8284 -5.29153Q20.6985 -5.36096 20.5653 -5.42394Q20.4322 -5.48691 20.2961 -5.54328Q20.16 -5.59964 20.0213 -5.64926Q19.8827 -5.69888 19.7417 -5.74164Q19.6008 -5.7844 19.4579 -5.82019Q19.315 -5.85598 19.1705 -5.88471Q19.0261 -5.91345 18.8804 -5.93506Q18.7347 -5.95667 18.5881 -5.97111Q18.4415 -5.98555 18.2944 -5.99277Q18.1473 -6 18 -6Z"/>
    <path fill="none" stroke="#323232FF" stroke-width="3"  d="M6 -6Q5.85271 -6 5.70559 -5.99277Q5.55848 -5.98555 5.4119 -5.97111Q5.26531 -5.95667 5.11962 -5.93506Q4.97392 -5.91345 4.82946 -5.88471Q4.685 -5.85598 4.54212 -5.82019Q4.39924 -5.7844 4.25829 -5.74164Q4.11734 -5.69888 3.97866 -5.64926Q3.83998 -5.59964 3.7039 -5.54328Q3.56782 -5.48691 3.43467 -5.42394Q3.30152 -5.36096 3.17162 -5.29153Q3.04172 -5.22209 2.91538 -5.14637Q2.78905 -5.07065 2.66658 -4.98882Q2.54411 -4.90699 2.4258 -4.81924Q2.3075 -4.7315 2.19364 -4.63806Q2.07978 -4.54462 1.97065 -4.44571Q1.86151 -4.34679 1.75736 -4.24264Q1.65321 -4.13849 1.55429 -4.02935Q1.45538 -3.92022 1.36194 -3.80636Q1.2685 -3.6925 1.18075 -3.5742Q1.09301 -3.45589 1.01118 -3.33342Q0.929351 -3.21095 0.853628 -3.08462Q0.777905 -2.95828 0.708472 -2.82838Q0.63904 -2.69848 0.576064 -2.56533Q0.513089 -2.43218 0.456723 -2.2961Q0.400357 -2.16002 0.350736 -2.02134Q0.301114 -1.88266 0.258358 -1.74171Q0.215601 -1.60076 0.179812 -1.45788Q0.144023 -1.315 0.115288 -1.17054Q0.0865531 -1.02608 0.0649409 -0.880383Q0.0433288 -0.734685 0.0288916 -0.588103Q0.0144545 -0.44152 0.00722726 -0.294406Q0 -0.147292 0 0Q0 0.147292 0.00722726 0.294406Q0.0144545 0.44152 0.0288916 0.588103Q0.0433288 0.734685 0.0649409 0.880383Q0.0865531 1.02608 0.115288 1.17054Q0.144023 1.315 0.179812 1.45788Q0.215601 1.60076 0.258358 1.74171Q0.301114 1.88266 0.350736 2.02134Q0.400357 2.16002 0.456723 2.2961Q0.513089 2.43218 0.576064 2.56533Q0.63904 2.69848 0.708472 2.82838Q0.777905 2.95828 0.853628 3.08462Q0.929351 3.21095 1.01118 3.33342Q1.09301 3.45589 1.18075 3.5742Q1.2685 3.6925 1.36194 3.80636Q1.45538 3.92022 1.55429 4.02935Q1.65321 4.13849 1.75736 4.24264Q1.86151 4.34679 1.97065 4.44571Q2.07978 4.54462 2.19364 4.63806Q2.3075 4.7315 2.4258 4.81924Q2.54411 4.90699 2.66658 4.98882Q2.78905 5.07065 2.91538 5.14637Q3.04172 5.22209 3.17162 5.29153Q3.30152 5.36096 3.43467 5.42394Q3.56782 5.48691 3.7039 5.54328Q3.83998 5.59964 3.97866 5.64926Q4.11734 5.69888 4.25829 5.74164Q4.39924 5.7844 4.54212 5.82019Q4.685 5.85598 4.82946 5.88471Q4.97392 5.91345 5.11962 5.93506Q5.26531 5.95667 5.4119 5.97111Q5.55848 5.98555 5.70559 5.99277Q5.85271 6 6 6Q6.14729 6 6.29441 5.99277Q6.44152 5.98555 6.5881 5.97111Q6.73469 5.95667 6.88038 5.93506Q7.02608 5.91345 7.17054 5.88471Q7.315 5.85598 7.45788 5.82019Q7.60076 5.7844 7.74171 5.74164Q7.88266 5.69888 8.02134 5.64926Q8.16002 5.59964 8.2961 5.54328Q8.43218 5.48691 8.56533 5.42394Q8.69848 5.36096 8.82838 5.29153Q8.95828 5.22209 9.08462 5.14637Q9.21095 5.07065 9.33342 4.98882Q9.45589 4.90699 9.57419 4.81924Q9.6925 4.7315 9.80636 4.63806Q9.92022 4.54462 10.0294 4.44571Q10.1385 4.34679 10.2426 4.24264Q10.3468 4.13849 10.4457 4.02935Q10.5446 3.92022 10.6381 3.80636Q10.7315 3.6925 10.8192 3.5742Q10.907 3.45589 10.9888 3.33342Q11.0706 3.21095 11.1464 3.08462Q11.2221 2.95828 11.2915 2.82838Q11.361 2.69848 11.4239 2.56533Q11.4869 2.43218 11.5433 2.2961Q11.5996 2.16002 11.6493 2.02134Q11.6989 1.88266 11.7416 1.74171Q11.7844 1.60076 11.8202 1.45788Q11.856 1.315 11.8847 1.17054Q11.9134 1.02608 11.9351 0.880383Q11.9567 0.734685 11.9711 0.588103Q11.9855 0.44152 11.9928 0.294406Q12 0.147292 12 0Q12 -0.147292 11.9928 -0.294406Q11.9855 -0.44152 11.9711 -0.588103Q11.9567 -0.734685 11.9351 -0.880383Q11.9134 -1.02608 11.8847 -1.17054Q11.856 -1.315 11.8202 -1.45788Q11.7844 -1.60076 11.7416 -1.74171Q11.6989 -1.88266 11.6493 -2.02134Q11.5996 -2.16002 11.5433 -2.2961Q11.4869 -2.43218 11.4239 -2.56533Q11.361 -2.69848 11.2915 -2.82838Q11.2221 -2.95828 11.1464 -3.08462Q11.0706 -3.21095 10.9888 -3.33342Q10.907 -3.45589 10.8192 -3.5742Q10.7315 -3.6925 10.6381 -3.80636Q10.5446 -3.92022 10.4457 -4.02935Q10.3468 -4.13849 10.2426 -4.24264Q10.1385 -4.34679 10.0294 -4.44571Q9.92022 -4.54462 9.80636 -4.63806Q9.6925 -4.7315 9.5742 -4.81924Q9.45589 -4.90699 9.33342 -4.98882Q9.21095 -5.07065 9.08462 -5.14637Q8.95828 -5.22209 8.82838 -5.29153Q8.69848 -5.36096 8.56533 -5.42394Q8.43218 -5.48691 8.2961 -5.54328Q8.16002 -5.59964 8.02134 -5.64926Q7.88266 -5.69888 7.74171 -5.74164Q7.60076 -5.7844 7.45788 -5.82019Q7.315 -5.85598 7.17054 -5.88471Q7.02608 -5.91345 6.88038 -5.93506Q6.73469 -5.95667 6.5881 -5.97111Q6.44152 -5.98555 6.29441 -5.99277Q6.14729 -6 6 -6ZM18 -6Q17.8527 -6 17.7056 -5.99277Q17.5585 -5.98555 17.4119 -5.97111Q17.2653 -5.95667 17.1196 -5.93506Q16.9739 -5.91345 16.8295 -5.88471Q16.685 -5.85598 16.5421 -5.82019Q16.3992 -5.7844 16.2583 -5.74164Q16.1173 -5.69888 15.9787 -5.64926Q15.84 -5.59964 15.7039 -5.54328Q15.5678 -5.48691 15.4347 -5.42394Q15.3015 -5.36096 15.1716 -5.29153Q15.0417 -5.22209 14.9154 -5.14637Q14.789 -5.07065 14.6666 -4.98882Q14.5441 -4.90699 14.4258 -4.81924Q14.3075 -4.7315 14.1936 -4.63806Q14.0798 -4.54462 13.9706 -4.44571Q13.8615 -4.34679 13.7574 -4.24264Q13.6532 -4.13849 13.5543 -4.02935Q13.4554 -3.92022 13.3619 -3.80636Q13.2685 -3.6925 13.1808 -3.5742Q13.093 -3.45589 13.0112 -3.33342Q12.9293 -3.21095 12.8536 -3.08462Q12.7779 -2.95828 12.7085 -2.82838Q12.639 -2.69848 12.5761 -2.56533Q12.5131 -2.43218 12.4567 -2.2961Q12.4004 -2.16002 12.3507 -2.02134Q12.3011 -1.88266 12.2584 -1.74171Q12.2156 -1.60076 12.1798 -1.45788Q12.144 -1.315 12.1153 -1.17054Q12.0866 -1.02608 12.0649 -0.880383Q12.0433 -0.734685 12.0289 -0.588103Q12.0145 -0.44152 12.0072 -0.294406Q12 -0.147292 12 0Q12 0.147292 12.0072 0.294406Q12.0145 0.44152 12.0289 0.588103Q12.0433 0.734685 12.0649 0.880383Q12.0866 1.02608 12.1153 1.17054Q12.144 1.315 12.1798 1.45788Q12.2156 1.60076 12.2584 1.74171Q12.3011 1.88266 12.3507 2.02134Q12.4004 2.16002 12.4567 2.2961Q12.5131 2.43218 12.5761 2.56533Q12.639 2.69848 12.7085 2.82838Q12.7779 2.95828 12.8536 3.08462Q12.9293 3.21095 13.0112 3.33342Q13.093 3.45589 13.1808 3.5742Q13.2685 3.6925 13.3619 3.80636Q13.4554 3.92022 13.5543 4.02935Q13.6532 4.13849 13.7574 4.24264Q13.8615 4.34679 13.9706 4.44571Q14.0798 4.54462 14.1936 4.63806Q14.3075 4.7315 14.4258 4.81924Q14.5441 4.90699 14.6666 4.98882Q14.789 5.07065 14.9154 5.14637Q15.0417 5.22209 15.1716 5.29153Q15.3015 5.36096 15.4347 5.42394Q15.5678 5.48691 15.7039 5.54328Q15.84 5.59964 15.9787 5.64926Q16.1173 5.69888 16.2583 5.74164Q16.3992 5.7844 16.5421 5.82019Q16.685 5.85598 16.8295 5.88471Q16.9739 5.91345 17.1196 5.93506Q17.2653 5.95667 17.4119 5.97111Q17.5585 5.98555 17.7056 5.99277Q17.8527 6 18 6Q18.1473 6 18.2944 5.99277Q18.4415 5.98555 18.5881 5.97111Q18.7347 5.95667 18.8804 5.93506Q19.0261 5.91345 19.1705 5.88471Q19.315 5.85598 19.4579 5.82019Q19.6008 5.7844 19.7417 5.74164Q19.8827 5.69888 20.0213 5.64926Q20.16 5.59964 20.2961 5.54328Q20.4322 5.48691 20.5653 5.42394Q20.6985 5.36096 20.8284 5.29153Q20.9583 5.22209 21.0846 5.14637Q21.2109 5.07065 21.3334 4.98882Q21.4559 4.90699 21.5742 4.81924Q21.6925 4.7315 21.8064 4.63806Q21.9202 4.54462 22.0294 4.44571Q22.1385 4.34679 22.2426 4.24264Q22.3468 4.13849 22.4457 4.02935Q22.5446 3.92022 22.6381 3.80636Q22.7315 3.6925 22.8192 3.5742Q22.907 3.45589 22.9888 3.33342Q23.0706 3.21095 23.1464 3.08462Q23.2221 2.95828 23.2915 2.82838Q23.361 2.69848 23.4239 2.56533Q23.4869 2.43218 23.5433 2.2961Q23.5996 2.16002 23.6493 2.02134Q23.6989 1.88266 23.7416 1.74171Q23.7844 1.60076 23.8202 1.45788Q23.856 1.315 23.8847 1.17054Q23.9134 1.02608 23.9351 0.880383Q23.9567 0.734685 23.9711 0.588103Q23.9855 0.44152 23.9928 0.294406Q24 0.147292 24 0Q24 -0.147292 23.9928 -0.294406Q23.9855 -0.44152 23.9711 -0.588103Q23.9567 -0.734685 23.9351 -0.880383Q23.9134 -1.02608 23.8847 -1.17054Q23.856 -1.315 23.8202 -1.45788Q23.7844 -1.60076 23.7416 -1.74171Q23.6989 -1.88266 23.6493 -2.02134Q23.5996 -2.16002 23.5433 -2.2961Q23.4869 -2.43218 23.4239 -2.56533Q23.361 -2.69848 23.2915 -2.82838Q23.2221 -2.95828 23.1464 -3.08462Q23.0706 -3.21095 22.9888 -3.33342Q22.907 -3.45589 22.8192 -3.5742Q22.7315 -3.6925 22.6381 -3.80636Q22.5446 -3.92022 22.4457 -4.02935Q22.3468 -4.13849 22.2426 -4.24264Q22.1385 -4.34679 22.0294 -4.44571Q21.9202 -4.54462 21.8064 -4.63806Q21.6925 -4.7315 21.5742 -4.81924Q21.4559 -4.90699 21.3334 -4.98882Q21.211 -5.07065 21.0846 -5.14637Q20.9583 -5.22209 20.8284 -5.29153Q20.6985 -5.36096 20.5653 -5.42394Q20.4322 -5.48691 20.2961 -5.54328Q20.16 -5.59964 20.0213 -5.64926Q19.8827 -5.69888 19.7417 -5.74164Q19.6008 -5.7844 19.4579 -5.82019Q19.315 -5.85598 19.1705 -5.88471Q19.0261 -5.91345 18.8804 -5.93506Q18.7347 -5.95667 18.5881 -5.97111Q18.4415 -5.98555 18.2944 -5.99277Q18.1473 -6 18 -6Z"/>
</g>
</svg>