<svg xmlns="http://www.w3.org/2000/svg" version="1.1" xmlns:xlink="http://www.w3.org/1999/xlink" xmlns:svgjs="http://svgjs.dev/svgjs" width="32" height="32" viewbox="0 0 32 32"   shape-rendering="geometricPrecision">
<g transform="translate(2, 15) ">
    <path fill="none" stroke="#323232FF" stroke-width="3"  d="M30 0L30 0L15 0L15 0L0 0L0 0"/>
    <path fill="none" stroke="#323232FF" stroke-width="3"  d="M30 0L30 0L15 0L15 0L0 0L0 0"/>
    <path fill="#323232FF" d="M24 -6Q23.8527 -6 23.7056 -5.99277Q23.5585 -5.98555 23.4119 -5.97111Q23.2653 -5.95667 23.1196 -5.93506Q22.9739 -5.91345 22.8295 -5.88471Q22.685 -5.85598 22.5421 -5.82019Q22.3992 -5.7844 22.2583 -5.74164Q22.1173 -5.69888 21.9787 -5.64926Q21.84 -5.59964 21.7039 -5.54328Q21.5678 -5.48691 21.4347 -5.42394Q21.3015 -5.36096 21.1716 -5.29153Q21.0417 -5.22209 20.9154 -5.14637Q20.789 -5.07065 20.6666 -4.98882Q20.5441 -4.90699 20.4258 -4.81924Q20.3075 -4.7315 20.1936 -4.63806Q20.0798 -4.54462 19.9706 -4.44571Q19.8615 -4.34679 19.7574 -4.24264Q19.6532 -4.13849 19.5543 -4.02935Q19.4554 -3.92022 19.3619 -3.80636Q19.2685 -3.6925 19.1808 -3.5742Q19.093 -3.45589 19.0112 -3.33342Q18.9294 -3.21095 18.8536 -3.08462Q18.7779 -2.95828 18.7085 -2.82838Q18.639 -2.69848 18.5761 -2.56533Q18.5131 -2.43218 18.4567 -2.2961Q18.4004 -2.16002 18.3507 -2.02134Q18.3011 -1.88266 18.2584 -1.74171Q18.2156 -1.60076 18.1798 -1.45788Q18.144 -1.315 18.1153 -1.17054Q18.0866 -1.02608 18.0649 -0.880383Q18.0433 -0.734685 18.0289 -0.588103Q18.0145 -0.44152 18.0072 -0.294406Q18 -0.147292 18 0Q18 0.147292 18.0072 0.294406Q18.0145 0.44152 18.0289 0.588103Q18.0433 0.734685 18.0649 0.880383Q18.0866 1.02608 18.1153 1.17054Q18.144 1.315 18.1798 1.45788Q18.2156 1.60076 18.2584 1.74171Q18.3011 1.88266 18.3507 2.02134Q18.4004 2.16002 18.4567 2.2961Q18.5131 2.43218 18.5761 2.56533Q18.639 2.69848 18.7085 2.82838Q18.7779 2.95828 18.8536 3.08462Q18.9293 3.21095 19.0112 3.33342Q19.093 3.45589 19.1808 3.5742Q19.2685 3.6925 19.3619 3.80636Q19.4554 3.92022 19.5543 4.02935Q19.6532 4.13849 19.7574 4.24264Q19.8615 4.34679 19.9706 4.44571Q20.0798 4.54462 20.1936 4.63806Q20.3075 4.7315 20.4258 4.81924Q20.5441 4.90699 20.6666 4.98882Q20.789 5.07065 20.9154 5.14637Q21.0417 5.22209 21.1716 5.29153Q21.3015 5.36096 21.4347 5.42394Q21.5678 5.48691 21.7039 5.54328Q21.84 5.59964 21.9787 5.64926Q22.1173 5.69888 22.2583 5.74164Q22.3992 5.7844 22.5421 5.82019Q22.685 5.85598 22.8295 5.88471Q22.9739 5.91345 23.1196 5.93506Q23.2653 5.95667 23.4119 5.97111Q23.5585 5.98555 23.7056 5.99277Q23.8527 6 24 6Q24.1473 6 24.2944 5.99277Q24.4415 5.98555 24.5881 5.97111Q24.7347 5.95667 24.8804 5.93506Q25.0261 5.91345 25.1705 5.88471Q25.315 5.85598 25.4579 5.82019Q25.6008 5.7844 25.7417 5.74164Q25.8827 5.69888 26.0213 5.64926Q26.16 5.59964 26.2961 5.54328Q26.4322 5.48691 26.5653 5.42394Q26.6985 5.36096 26.8284 5.29153Q26.9583 5.22209 27.0846 5.14637Q27.211 5.07065 27.3334 4.98882Q27.4559 4.90699 27.5742 4.81924Q27.6925 4.7315 27.8064 4.63806Q27.9202 4.54462 28.0294 4.44571Q28.1385 4.34679 28.2426 4.24264Q28.3468 4.13849 28.4457 4.02935Q28.5446 3.92022 28.6381 3.80636Q28.7315 3.6925 28.8192 3.5742Q28.907 3.45589 28.9888 3.33342Q29.0706 3.21095 29.1464 3.08462Q29.2221 2.95828 29.2915 2.82838Q29.361 2.69848 29.4239 2.56533Q29.4869 2.43218 29.5433 2.2961Q29.5996 2.16002 29.6493 2.02134Q29.6989 1.88266 29.7416 1.74171Q29.7844 1.60076 29.8202 1.45788Q29.856 1.315 29.8847 1.17054Q29.9134 1.02608 29.9351 0.880383Q29.9567 0.734685 29.9711 0.588103Q29.9855 0.44152 29.9928 0.294406Q30 0.147292 30 0Q30 -0.147292 29.9928 -0.294406Q29.9855 -0.44152 29.9711 -0.588103Q29.9567 -0.734685 29.9351 -0.880383Q29.9134 -1.02608 29.8847 -1.17054Q29.856 -1.315 29.8202 -1.45788Q29.7844 -1.60076 29.7416 -1.74171Q29.6989 -1.88266 29.6493 -2.02134Q29.5996 -2.16002 29.5433 -2.2961Q29.4869 -2.43218 29.4239 -2.56533Q29.361 -2.69848 29.2915 -2.82838Q29.2221 -2.95828 29.1464 -3.08462Q29.0706 -3.21095 28.9888 -3.33342Q28.907 -3.45589 28.8192 -3.5742Q28.7315 -3.6925 28.6381 -3.80636Q28.5446 -3.92022 28.4457 -4.02935Q28.3468 -4.13849 28.2426 -4.24264Q28.1385 -4.34679 28.0294 -4.44571Q27.9202 -4.54462 27.8064 -4.63806Q27.6925 -4.7315 27.5742 -4.81924Q27.4559 -4.90699 27.3334 -4.98882Q27.211 -5.07065 27.0846 -5.14637Q26.9583 -5.22209 26.8284 -5.29153Q26.6985 -5.36096 26.5653 -5.42394Q26.4322 -5.48691 26.2961 -5.54328Q26.16 -5.59964 26.0213 -5.64926Q25.8827 -5.69888 25.7417 -5.74164Q25.6008 -5.7844 25.4579 -5.82019Q25.315 -5.85598 25.1705 -5.88471Q25.0261 -5.91345 24.8804 -5.93506Q24.7347 -5.95667 24.5881 -5.97111Q24.4415 -5.98555 24.2944 -5.99277Q24.1473 -6 24 -6Z"/>
    <path fill="none" stroke="#323232FF" stroke-width="3"  d="M24 -6Q23.8527 -6 23.7056 -5.99277Q23.5585 -5.98555 23.4119 -5.97111Q23.2653 -5.95667 23.1196 -5.93506Q22.9739 -5.91345 22.8295 -5.88471Q22.685 -5.85598 22.5421 -5.82019Q22.3992 -5.7844 22.2583 -5.74164Q22.1173 -5.69888 21.9787 -5.64926Q21.84 -5.59964 21.7039 -5.54328Q21.5678 -5.48691 21.4347 -5.42394Q21.3015 -5.36096 21.1716 -5.29153Q21.0417 -5.22209 20.9154 -5.14637Q20.789 -5.07065 20.6666 -4.98882Q20.5441 -4.90699 20.4258 -4.81924Q20.3075 -4.7315 20.1936 -4.63806Q20.0798 -4.54462 19.9706 -4.44571Q19.8615 -4.34679 19.7574 -4.24264Q19.6532 -4.13849 19.5543 -4.02935Q19.4554 -3.92022 19.3619 -3.80636Q19.2685 -3.6925 19.1808 -3.5742Q19.093 -3.45589 19.0112 -3.33342Q18.9294 -3.21095 18.8536 -3.08462Q18.7779 -2.95828 18.7085 -2.82838Q18.639 -2.69848 18.5761 -2.56533Q18.5131 -2.43218 18.4567 -2.2961Q18.4004 -2.16002 18.3507 -2.02134Q18.3011 -1.88266 18.2584 -1.74171Q18.2156 -1.60076 18.1798 -1.45788Q18.144 -1.315 18.1153 -1.17054Q18.0866 -1.02608 18.0649 -0.880383Q18.0433 -0.734685 18.0289 -0.588103Q18.0145 -0.44152 18.0072 -0.294406Q18 -0.147292 18 0Q18 0.147292 18.0072 0.294406Q18.0145 0.44152 18.0289 0.588103Q18.0433 0.734685 18.0649 0.880383Q18.0866 1.02608 18.1153 1.17054Q18.144 1.315 18.1798 1.45788Q18.2156 1.60076 18.2584 1.74171Q18.3011 1.88266 18.3507 2.02134Q18.4004 2.16002 18.4567 2.2961Q18.5131 2.43218 18.5761 2.56533Q18.639 2.69848 18.7085 2.82838Q18.7779 2.95828 18.8536 3.08462Q18.9293 3.21095 19.0112 3.33342Q19.093 3.45589 19.1808 3.5742Q19.2685 3.6925 19.3619 3.80636Q19.4554 3.92022 19.5543 4.02935Q19.6532 4.13849 19.7574 4.24264Q19.8615 4.34679 19.9706 4.44571Q20.0798 4.54462 20.1936 4.63806Q20.3075 4.7315 20.4258 4.81924Q20.5441 4.90699 20.6666 4.98882Q20.789 5.07065 20.9154 5.14637Q21.0417 5.22209 21.1716 5.29153Q21.3015 5.36096 21.4347 5.42394Q21.5678 5.48691 21.7039 5.54328Q21.84 5.59964 21.9787 5.64926Q22.1173 5.69888 22.2583 5.74164Q22.3992 5.7844 22.5421 5.82019Q22.685 5.85598 22.8295 5.88471Q22.9739 5.91345 23.1196 5.93506Q23.2653 5.95667 23.4119 5.97111Q23.5585 5.98555 23.7056 5.99277Q23.8527 6 24 6Q24.1473 6 24.2944 5.99277Q24.4415 5.98555 24.5881 5.97111Q24.7347 5.95667 24.8804 5.93506Q25.0261 5.91345 25.1705 5.88471Q25.315 5.85598 25.4579 5.82019Q25.6008 5.7844 25.7417 5.74164Q25.8827 5.69888 26.0213 5.64926Q26.16 5.59964 26.2961 5.54328Q26.4322 5.48691 26.5653 5.42394Q26.6985 5.36096 26.8284 5.29153Q26.9583 5.22209 27.0846 5.14637Q27.211 5.07065 27.3334 4.98882Q27.4559 4.90699 27.5742 4.81924Q27.6925 4.7315 27.8064 4.63806Q27.9202 4.54462 28.0294 4.44571Q28.1385 4.34679 28.2426 4.24264Q28.3468 4.13849 28.4457 4.02935Q28.5446 3.92022 28.6381 3.80636Q28.7315 3.6925 28.8192 3.5742Q28.907 3.45589 28.9888 3.33342Q29.0706 3.21095 29.1464 3.08462Q29.2221 2.95828 29.2915 2.82838Q29.361 2.69848 29.4239 2.56533Q29.4869 2.43218 29.5433 2.2961Q29.5996 2.16002 29.6493 2.02134Q29.6989 1.88266 29.7416 1.74171Q29.7844 1.60076 29.8202 1.45788Q29.856 1.315 29.8847 1.17054Q29.9134 1.02608 29.9351 0.880383Q29.9567 0.734685 29.9711 0.588103Q29.9855 0.44152 29.9928 0.294406Q30 0.147292 30 0Q30 -0.147292 29.9928 -0.294406Q29.9855 -0.44152 29.9711 -0.588103Q29.9567 -0.734685 29.9351 -0.880383Q29.9134 -1.02608 29.8847 -1.17054Q29.856 -1.315 29.8202 -1.45788Q29.7844 -1.60076 29.7416 -1.74171Q29.6989 -1.88266 29.6493 -2.02134Q29.5996 -2.16002 29.5433 -2.2961Q29.4869 -2.43218 29.4239 -2.56533Q29.361 -2.69848 29.2915 -2.82838Q29.2221 -2.95828 29.1464 -3.08462Q29.0706 -3.21095 28.9888 -3.33342Q28.907 -3.45589 28.8192 -3.5742Q28.7315 -3.6925 28.6381 -3.80636Q28.5446 -3.92022 28.4457 -4.02935Q28.3468 -4.13849 28.2426 -4.24264Q28.1385 -4.34679 28.0294 -4.44571Q27.9202 -4.54462 27.8064 -4.63806Q27.6925 -4.7315 27.5742 -4.81924Q27.4559 -4.90699 27.3334 -4.98882Q27.211 -5.07065 27.0846 -5.14637Q26.9583 -5.22209 26.8284 -5.29153Q26.6985 -5.36096 26.5653 -5.42394Q26.4322 -5.48691 26.2961 -5.54328Q26.16 -5.59964 26.0213 -5.64926Q25.8827 -5.69888 25.7417 -5.74164Q25.6008 -5.7844 25.4579 -5.82019Q25.315 -5.85598 25.1705 -5.88471Q25.0261 -5.91345 24.8804 -5.93506Q24.7347 -5.95667 24.5881 -5.97111Q24.4415 -5.98555 24.2944 -5.99277Q24.1473 -6 24 -6Z"/>
</g>
</svg>