<svg xmlns="http://www.w3.org/2000/svg" version="1.1" xmlns:xlink="http://www.w3.org/1999/xlink" xmlns:svgjs="http://svgjs.dev/svgjs" width="32" height="32" viewbox="0 0 32 32"   shape-rendering="geometricPrecision">
<g transform="translate(2, 15) ">
    <path fill="none" stroke="#323232FF" stroke-width="3"  d="M28 0L28 0L14 0L14 0L0 0L0 0"/>
    <path fill="none" stroke="#323232FF" stroke-width="3"  d="M28 0L28 0L14 0L14 0L0 0L0 0"/>
    <path fill="none" stroke="#323232FF" stroke-width="3"  d="M22 -6Q22.1473 -6 22.2944 -5.99277Q22.4415 -5.98555 22.5881 -5.97111Q22.7347 -5.95667 22.8804 -5.93506Q23.0261 -5.91345 23.1705 -5.88471Q23.315 -5.85598 23.4579 -5.82019Q23.6008 -5.7844 23.7417 -5.74164Q23.8827 -5.69888 24.0213 -5.64926Q24.16 -5.59964 24.2961 -5.54328Q24.4322 -5.48691 24.5653 -5.42394Q24.6985 -5.36096 24.8284 -5.29153Q24.9583 -5.22209 25.0846 -5.14637Q25.2109 -5.07065 25.3334 -4.98882Q25.4559 -4.90699 25.5742 -4.81924Q25.6925 -4.7315 25.8064 -4.63806Q25.9202 -4.54462 26.0294 -4.44571Q26.1385 -4.34679 26.2426 -4.24264Q26.3468 -4.13849 26.4457 -4.02935Q26.5446 -3.92022 26.6381 -3.80636Q26.7315 -3.6925 26.8192 -3.5742Q26.907 -3.45589 26.9888 -3.33342Q27.0706 -3.21095 27.1464 -3.08462Q27.2221 -2.95828 27.2915 -2.82838Q27.361 -2.69848 27.4239 -2.56533Q27.4869 -2.43218 27.5433 -2.2961Q27.5996 -2.16002 27.6493 -2.02134Q27.6989 -1.88266 27.7416 -1.74171Q27.7844 -1.60076 27.8202 -1.45788Q27.856 -1.315 27.8847 -1.17054Q27.9134 -1.02608 27.9351 -0.880383Q27.9567 -0.734685 27.9711 -0.588103Q27.9855 -0.44152 27.9928 -0.294406Q28 -0.147292 28 0Q28 0.147292 27.9928 0.294406Q27.9855 0.44152 27.9711 0.588103Q27.9567 0.734685 27.9351 0.880383Q27.9134 1.02608 27.8847 1.17054Q27.856 1.315 27.8202 1.45788Q27.7844 1.60076 27.7416 1.74171Q27.6989 1.88266 27.6493 2.02134Q27.5996 2.16002 27.5433 2.2961Q27.4869 2.43218 27.4239 2.56533Q27.361 2.69848 27.2915 2.82838Q27.2221 2.95828 27.1464 3.08462Q27.0706 3.21095 26.9888 3.33342Q26.907 3.45589 26.8192 3.5742Q26.7315 3.6925 26.6381 3.80636Q26.5446 3.92022 26.4457 4.02935Q26.3468 4.13849 26.2426 4.24264Q26.1385 4.34679 26.0294 4.44571Q25.9202 4.54462 25.8064 4.63806Q25.6925 4.7315 25.5742 4.81924Q25.4559 4.90699 25.3334 4.98882Q25.2109 5.07065 25.0846 5.14637Q24.9583 5.22209 24.8284 5.29153Q24.6985 5.36096 24.5653 5.42394Q24.4322 5.48691 24.2961 5.54328Q24.16 5.59964 24.0213 5.64926Q23.8827 5.69888 23.7417 5.74164Q23.6008 5.7844 23.4579 5.82019Q23.315 5.85598 23.1705 5.88471Q23.0261 5.91345 22.8804 5.93506Q22.7347 5.95667 22.5881 5.97111Q22.4415 5.98555 22.2944 5.99277Q22.1473 6 22 6"/>
</g>
</svg>