<svg xmlns="http://www.w3.org/2000/svg" version="1.1" xmlns:xlink="http://www.w3.org/1999/xlink" xmlns:svgjs="http://svgjs.dev/svgjs" width="32" height="32" viewbox="0 0 32 32"   shape-rendering="geometricPrecision">
<g transform="translate(2, 15) ">
    <path fill="none" stroke="#323232FF" stroke-width="3"  d="M0 0L0 0L14 0L14 0L28 0L28 0"/>
    <path fill="none" stroke="#323232FF" stroke-width="3"  d="M0 0L0 0L14 0L14 0L28 0L28 0"/>
    <path fill="#FFFFFFFF" d="M0 -6L12 0L0 6M18 -6Q17.8527 -6 17.7056 -5.99277Q17.5585 -5.98555 17.4119 -5.97111Q17.2653 -5.95667 17.1196 -5.93506Q16.9739 -5.91345 16.8295 -5.88471Q16.685 -5.85598 16.5421 -5.82019Q16.3992 -5.7844 16.2583 -5.74164Q16.1173 -5.69888 15.9787 -5.64926Q15.84 -5.59964 15.7039 -5.54328Q15.5678 -5.48691 15.4347 -5.42394Q15.3015 -5.36096 15.1716 -5.29153Q15.0417 -5.22209 14.9154 -5.14637Q14.789 -5.07065 14.6666 -4.98882Q14.5441 -4.90699 14.4258 -4.81924Q14.3075 -4.7315 14.1936 -4.63806Q14.0798 -4.54462 13.9706 -4.44571Q13.8615 -4.34679 13.7574 -4.24264Q13.6532 -4.13849 13.5543 -4.02935Q13.4554 -3.92022 13.3619 -3.80636Q13.2685 -3.6925 13.1808 -3.5742Q13.093 -3.45589 13.0112 -3.33342Q12.9293 -3.21095 12.8536 -3.08462Q12.7779 -2.95828 12.7085 -2.82838Q12.639 -2.69848 12.5761 -2.56533Q12.5131 -2.43218 12.4567 -2.2961Q12.4004 -2.16002 12.3507 -2.02134Q12.3011 -1.88266 12.2584 -1.74171Q12.2156 -1.60076 12.1798 -1.45788Q12.144 -1.315 12.1153 -1.17054Q12.0866 -1.02608 12.0649 -0.880383Q12.0433 -0.734685 12.0289 -0.588103Q12.0145 -0.44152 12.0072 -0.294406Q12 -0.147292 12 0Q12 0.147292 12.0072 0.294406Q12.0145 0.44152 12.0289 0.588103Q12.0433 0.734685 12.0649 0.880383Q12.0866 1.02608 12.1153 1.17054Q12.144 1.315 12.1798 1.45788Q12.2156 1.60076 12.2584 1.74171Q12.3011 1.88266 12.3507 2.02134Q12.4004 2.16002 12.4567 2.2961Q12.5131 2.43218 12.5761 2.56533Q12.639 2.69848 12.7085 2.82838Q12.7779 2.95828 12.8536 3.08462Q12.9293 3.21095 13.0112 3.33342Q13.093 3.45589 13.1808 3.5742Q13.2685 3.6925 13.3619 3.80636Q13.4554 3.92022 13.5543 4.02935Q13.6532 4.13849 13.7574 4.24264Q13.8615 4.34679 13.9706 4.44571Q14.0798 4.54462 14.1936 4.63806Q14.3075 4.7315 14.4258 4.81924Q14.5441 4.90699 14.6666 4.98882Q14.789 5.07065 14.9154 5.14637Q15.0417 5.22209 15.1716 5.29153Q15.3015 5.36096 15.4347 5.42394Q15.5678 5.48691 15.7039 5.54328Q15.84 5.59964 15.9787 5.64926Q16.1173 5.69888 16.2583 5.74164Q16.3992 5.7844 16.5421 5.82019Q16.685 5.85598 16.8295 5.88471Q16.9739 5.91345 17.1196 5.93506Q17.2653 5.95667 17.4119 5.97111Q17.5585 5.98555 17.7056 5.99277Q17.8527 6 18 6Q18.1473 6 18.2944 5.99277Q18.4415 5.98555 18.5881 5.97111Q18.7347 5.95667 18.8804 5.93506Q19.0261 5.91345 19.1705 5.88471Q19.315 5.85598 19.4579 5.82019Q19.6008 5.7844 19.7417 5.74164Q19.8827 5.69888 20.0213 5.64926Q20.16 5.59964 20.2961 5.54328Q20.4322 5.48691 20.5653 5.42394Q20.6985 5.36096 20.8284 5.29153Q20.9583 5.22209 21.0846 5.14637Q21.2109 5.07065 21.3334 4.98882Q21.4559 4.90699 21.5742 4.81924Q21.6925 4.7315 21.8064 4.63806Q21.9202 4.54462 22.0294 4.44571Q22.1385 4.34679 22.2426 4.24264Q22.3468 4.13849 22.4457 4.02935Q22.5446 3.92022 22.6381 3.80636Q22.7315 3.6925 22.8192 3.5742Q22.907 3.45589 22.9888 3.33342Q23.0706 3.21095 23.1464 3.08462Q23.2221 2.95828 23.2915 2.82838Q23.361 2.69848 23.4239 2.56533Q23.4869 2.43218 23.5433 2.2961Q23.5996 2.16002 23.6493 2.02134Q23.6989 1.88266 23.7416 1.74171Q23.7844 1.60076 23.8202 1.45788Q23.856 1.315 23.8847 1.17054Q23.9134 1.02608 23.9351 0.880383Q23.9567 0.734685 23.9711 0.588103Q23.9855 0.44152 23.9928 0.294406Q24 0.147292 24 0Q24 -0.147292 23.9928 -0.294406Q23.9855 -0.44152 23.9711 -0.588103Q23.9567 -0.734685 23.9351 -0.880383Q23.9134 -1.02608 23.8847 -1.17054Q23.856 -1.315 23.8202 -1.45788Q23.7844 -1.60076 23.7416 -1.74171Q23.6989 -1.88266 23.6493 -2.02134Q23.5996 -2.16002 23.5433 -2.2961Q23.4869 -2.43218 23.4239 -2.56533Q23.361 -2.69848 23.2915 -2.82838Q23.2221 -2.95828 23.1464 -3.08462Q23.0706 -3.21095 22.9888 -3.33342Q22.907 -3.45589 22.8192 -3.5742Q22.7315 -3.6925 22.6381 -3.80636Q22.5446 -3.92022 22.4457 -4.02935Q22.3468 -4.13849 22.2426 -4.24264Q22.1385 -4.34679 22.0294 -4.44571Q21.9202 -4.54462 21.8064 -4.63806Q21.6925 -4.7315 21.5742 -4.81924Q21.4559 -4.90699 21.3334 -4.98882Q21.211 -5.07065 21.0846 -5.14637Q20.9583 -5.22209 20.8284 -5.29153Q20.6985 -5.36096 20.5653 -5.42394Q20.4322 -5.48691 20.2961 -5.54328Q20.16 -5.59964 20.0213 -5.64926Q19.8827 -5.69888 19.7417 -5.74164Q19.6008 -5.7844 19.4579 -5.82019Q19.315 -5.85598 19.1705 -5.88471Q19.0261 -5.91345 18.8804 -5.93506Q18.7347 -5.95667 18.5881 -5.97111Q18.4415 -5.98555 18.2944 -5.99277Q18.1473 -6 18 -6Z"/>
    <path fill="none" stroke="#323232FF" stroke-width="3"  d="M0 -6L12 0L0 6M18 -6Q17.8527 -6 17.7056 -5.99277Q17.5585 -5.98555 17.4119 -5.97111Q17.2653 -5.95667 17.1196 -5.93506Q16.9739 -5.91345 16.8295 -5.88471Q16.685 -5.85598 16.5421 -5.82019Q16.3992 -5.7844 16.2583 -5.74164Q16.1173 -5.69888 15.9787 -5.64926Q15.84 -5.59964 15.7039 -5.54328Q15.5678 -5.48691 15.4347 -5.42394Q15.3015 -5.36096 15.1716 -5.29153Q15.0417 -5.22209 14.9154 -5.14637Q14.789 -5.07065 14.6666 -4.98882Q14.5441 -4.90699 14.4258 -4.81924Q14.3075 -4.7315 14.1936 -4.63806Q14.0798 -4.54462 13.9706 -4.44571Q13.8615 -4.34679 13.7574 -4.24264Q13.6532 -4.13849 13.5543 -4.02935Q13.4554 -3.92022 13.3619 -3.80636Q13.2685 -3.6925 13.1808 -3.5742Q13.093 -3.45589 13.0112 -3.33342Q12.9293 -3.21095 12.8536 -3.08462Q12.7779 -2.95828 12.7085 -2.82838Q12.639 -2.69848 12.5761 -2.56533Q12.5131 -2.43218 12.4567 -2.2961Q12.4004 -2.16002 12.3507 -2.02134Q12.3011 -1.88266 12.2584 -1.74171Q12.2156 -1.60076 12.1798 -1.45788Q12.144 -1.315 12.1153 -1.17054Q12.0866 -1.02608 12.0649 -0.880383Q12.0433 -0.734685 12.0289 -0.588103Q12.0145 -0.44152 12.0072 -0.294406Q12 -0.147292 12 0Q12 0.147292 12.0072 0.294406Q12.0145 0.44152 12.0289 0.588103Q12.0433 0.734685 12.0649 0.880383Q12.0866 1.02608 12.1153 1.17054Q12.144 1.315 12.1798 1.45788Q12.2156 1.60076 12.2584 1.74171Q12.3011 1.88266 12.3507 2.02134Q12.4004 2.16002 12.4567 2.2961Q12.5131 2.43218 12.5761 2.56533Q12.639 2.69848 12.7085 2.82838Q12.7779 2.95828 12.8536 3.08462Q12.9293 3.21095 13.0112 3.33342Q13.093 3.45589 13.1808 3.5742Q13.2685 3.6925 13.3619 3.80636Q13.4554 3.92022 13.5543 4.02935Q13.6532 4.13849 13.7574 4.24264Q13.8615 4.34679 13.9706 4.44571Q14.0798 4.54462 14.1936 4.63806Q14.3075 4.7315 14.4258 4.81924Q14.5441 4.90699 14.6666 4.98882Q14.789 5.07065 14.9154 5.14637Q15.0417 5.22209 15.1716 5.29153Q15.3015 5.36096 15.4347 5.42394Q15.5678 5.48691 15.7039 5.54328Q15.84 5.59964 15.9787 5.64926Q16.1173 5.69888 16.2583 5.74164Q16.3992 5.7844 16.5421 5.82019Q16.685 5.85598 16.8295 5.88471Q16.9739 5.91345 17.1196 5.93506Q17.2653 5.95667 17.4119 5.97111Q17.5585 5.98555 17.7056 5.99277Q17.8527 6 18 6Q18.1473 6 18.2944 5.99277Q18.4415 5.98555 18.5881 5.97111Q18.7347 5.95667 18.8804 5.93506Q19.0261 5.91345 19.1705 5.88471Q19.315 5.85598 19.4579 5.82019Q19.6008 5.7844 19.7417 5.74164Q19.8827 5.69888 20.0213 5.64926Q20.16 5.59964 20.2961 5.54328Q20.4322 5.48691 20.5653 5.42394Q20.6985 5.36096 20.8284 5.29153Q20.9583 5.22209 21.0846 5.14637Q21.2109 5.07065 21.3334 4.98882Q21.4559 4.90699 21.5742 4.81924Q21.6925 4.7315 21.8064 4.63806Q21.9202 4.54462 22.0294 4.44571Q22.1385 4.34679 22.2426 4.24264Q22.3468 4.13849 22.4457 4.02935Q22.5446 3.92022 22.6381 3.80636Q22.7315 3.6925 22.8192 3.5742Q22.907 3.45589 22.9888 3.33342Q23.0706 3.21095 23.1464 3.08462Q23.2221 2.95828 23.2915 2.82838Q23.361 2.69848 23.4239 2.56533Q23.4869 2.43218 23.5433 2.2961Q23.5996 2.16002 23.6493 2.02134Q23.6989 1.88266 23.7416 1.74171Q23.7844 1.60076 23.8202 1.45788Q23.856 1.315 23.8847 1.17054Q23.9134 1.02608 23.9351 0.880383Q23.9567 0.734685 23.9711 0.588103Q23.9855 0.44152 23.9928 0.294406Q24 0.147292 24 0Q24 -0.147292 23.9928 -0.294406Q23.9855 -0.44152 23.9711 -0.588103Q23.9567 -0.734685 23.9351 -0.880383Q23.9134 -1.02608 23.8847 -1.17054Q23.856 -1.315 23.8202 -1.45788Q23.7844 -1.60076 23.7416 -1.74171Q23.6989 -1.88266 23.6493 -2.02134Q23.5996 -2.16002 23.5433 -2.2961Q23.4869 -2.43218 23.4239 -2.56533Q23.361 -2.69848 23.2915 -2.82838Q23.2221 -2.95828 23.1464 -3.08462Q23.0706 -3.21095 22.9888 -3.33342Q22.907 -3.45589 22.8192 -3.5742Q22.7315 -3.6925 22.6381 -3.80636Q22.5446 -3.92022 22.4457 -4.02935Q22.3468 -4.13849 22.2426 -4.24264Q22.1385 -4.34679 22.0294 -4.44571Q21.9202 -4.54462 21.8064 -4.63806Q21.6925 -4.7315 21.5742 -4.81924Q21.4559 -4.90699 21.3334 -4.98882Q21.211 -5.07065 21.0846 -5.14637Q20.9583 -5.22209 20.8284 -5.29153Q20.6985 -5.36096 20.5653 -5.42394Q20.4322 -5.48691 20.2961 -5.54328Q20.16 -5.59964 20.0213 -5.64926Q19.8827 -5.69888 19.7417 -5.74164Q19.6008 -5.7844 19.4579 -5.82019Q19.315 -5.85598 19.1705 -5.88471Q19.0261 -5.91345 18.8804 -5.93506Q18.7347 -5.95667 18.5881 -5.97111Q18.4415 -5.98555 18.2944 -5.99277Q18.1473 -6 18 -6Z"/>
</g>
</svg>