<svg xmlns="http://www.w3.org/2000/svg" version="1.1" xmlns:xlink="http://www.w3.org/1999/xlink" xmlns:svgjs="http://svgjs.dev/svgjs" width="32" height="32" viewbox="0 0 32 32"   shape-rendering="geometricPrecision">
<g transform="translate(2, 15) ">
    <path fill="none" stroke="#323232FF" stroke-width="3"  d="M30 0L30 0L15 0L15 0L0 0L0 0"/>
    <path fill="none" stroke="#323232FF" stroke-width="3"  d="M30 0L30 0L15 0L15 0L0 0L0 0"/>
    <path fill="#FFFFFFFF" d="M24 -6L24 6M12 -6Q11.8527 -6 11.7056 -5.99277Q11.5585 -5.98555 11.4119 -5.97111Q11.2653 -5.95667 11.1196 -5.93506Q10.9739 -5.91345 10.8295 -5.88471Q10.685 -5.85598 10.5421 -5.82019Q10.3992 -5.7844 10.2583 -5.74164Q10.1173 -5.69888 9.97866 -5.64926Q9.83998 -5.59964 9.7039 -5.54328Q9.56782 -5.48691 9.43467 -5.42394Q9.30152 -5.36096 9.17162 -5.29153Q9.04172 -5.22209 8.91538 -5.14637Q8.78905 -5.07065 8.66658 -4.98882Q8.54411 -4.90699 8.4258 -4.81924Q8.3075 -4.7315 8.19364 -4.63806Q8.07978 -4.54462 7.97065 -4.44571Q7.86151 -4.34679 7.75736 -4.24264Q7.65321 -4.13849 7.55429 -4.02935Q7.45538 -3.92022 7.36194 -3.80636Q7.2685 -3.6925 7.18075 -3.5742Q7.09301 -3.45589 7.01118 -3.33342Q6.92935 -3.21095 6.85363 -3.08462Q6.7779 -2.95828 6.70847 -2.82838Q6.63904 -2.69848 6.57606 -2.56533Q6.51309 -2.43218 6.45672 -2.2961Q6.40036 -2.16002 6.35074 -2.02134Q6.30111 -1.88266 6.25836 -1.74171Q6.2156 -1.60076 6.17981 -1.45788Q6.14402 -1.315 6.11529 -1.17054Q6.08655 -1.02608 6.06494 -0.880383Q6.04333 -0.734685 6.02889 -0.588103Q6.01445 -0.44152 6.00723 -0.294406Q6 -0.147292 6 0Q6 0.147292 6.00723 0.294406Q6.01445 0.44152 6.02889 0.588103Q6.04333 0.734685 6.06494 0.880383Q6.08655 1.02608 6.11529 1.17054Q6.14402 1.315 6.17981 1.45788Q6.2156 1.60076 6.25836 1.74171Q6.30111 1.88266 6.35074 2.02134Q6.40036 2.16002 6.45672 2.2961Q6.51309 2.43218 6.57606 2.56533Q6.63904 2.69848 6.70847 2.82838Q6.7779 2.95828 6.85363 3.08462Q6.92935 3.21095 7.01118 3.33342Q7.09301 3.45589 7.18075 3.5742Q7.2685 3.6925 7.36194 3.80636Q7.45538 3.92022 7.55429 4.02935Q7.65321 4.13849 7.75736 4.24264Q7.86151 4.34679 7.97065 4.44571Q8.07978 4.54462 8.19364 4.63806Q8.3075 4.7315 8.4258 4.81924Q8.54411 4.90699 8.66658 4.98882Q8.78905 5.07065 8.91538 5.14637Q9.04172 5.22209 9.17162 5.29153Q9.30152 5.36096 9.43467 5.42394Q9.56782 5.48691 9.7039 5.54328Q9.83998 5.59964 9.97866 5.64926Q10.1173 5.69888 10.2583 5.74164Q10.3992 5.7844 10.5421 5.82019Q10.685 5.85598 10.8295 5.88471Q10.9739 5.91345 11.1196 5.93506Q11.2653 5.95667 11.4119 5.97111Q11.5585 5.98555 11.7056 5.99277Q11.8527 6 12 6Q12.1473 6 12.2944 5.99277Q12.4415 5.98555 12.5881 5.97111Q12.7347 5.95667 12.8804 5.93506Q13.0261 5.91345 13.1705 5.88471Q13.315 5.85598 13.4579 5.82019Q13.6008 5.7844 13.7417 5.74164Q13.8827 5.69888 14.0213 5.64926Q14.16 5.59964 14.2961 5.54328Q14.4322 5.48691 14.5653 5.42394Q14.6985 5.36096 14.8284 5.29153Q14.9583 5.22209 15.0846 5.14637Q15.211 5.07065 15.3334 4.98882Q15.4559 4.90699 15.5742 4.81924Q15.6925 4.7315 15.8064 4.63806Q15.9202 4.54462 16.0294 4.44571Q16.1385 4.34679 16.2426 4.24264Q16.3468 4.13849 16.4457 4.02935Q16.5446 3.92022 16.6381 3.80636Q16.7315 3.6925 16.8192 3.5742Q16.907 3.45589 16.9888 3.33342Q17.0706 3.21095 17.1464 3.08462Q17.2221 2.95828 17.2915 2.82838Q17.361 2.69848 17.4239 2.56533Q17.4869 2.43218 17.5433 2.2961Q17.5996 2.16002 17.6493 2.02134Q17.6989 1.88266 17.7416 1.74171Q17.7844 1.60076 17.8202 1.45788Q17.856 1.315 17.8847 1.17054Q17.9134 1.02608 17.9351 0.880383Q17.9567 0.734685 17.9711 0.588103Q17.9855 0.44152 17.9928 0.294406Q18 0.147292 18 0Q18 -0.147292 17.9928 -0.294406Q17.9855 -0.44152 17.9711 -0.588103Q17.9567 -0.734685 17.9351 -0.880383Q17.9134 -1.02608 17.8847 -1.17054Q17.856 -1.315 17.8202 -1.45788Q17.7844 -1.60076 17.7416 -1.74171Q17.6989 -1.88266 17.6493 -2.02134Q17.5996 -2.16002 17.5433 -2.2961Q17.4869 -2.43218 17.4239 -2.56533Q17.361 -2.69848 17.2915 -2.82838Q17.2221 -2.95828 17.1464 -3.08462Q17.0706 -3.21095 16.9888 -3.33342Q16.907 -3.45589 16.8192 -3.5742Q16.7315 -3.6925 16.6381 -3.80636Q16.5446 -3.92022 16.4457 -4.02935Q16.3468 -4.13849 16.2426 -4.24264Q16.1385 -4.34679 16.0294 -4.44571Q15.9202 -4.54462 15.8064 -4.63806Q15.6925 -4.7315 15.5742 -4.81924Q15.4559 -4.90699 15.3334 -4.98882Q15.211 -5.07065 15.0846 -5.14637Q14.9583 -5.22209 14.8284 -5.29153Q14.6985 -5.36096 14.5653 -5.42394Q14.4322 -5.48691 14.2961 -5.54328Q14.16 -5.59964 14.0213 -5.64926Q13.8827 -5.69888 13.7417 -5.74164Q13.6008 -5.7844 13.4579 -5.82019Q13.315 -5.85598 13.1705 -5.88471Q13.0261 -5.91345 12.8804 -5.93506Q12.7347 -5.95667 12.5881 -5.97111Q12.4415 -5.98555 12.2944 -5.99277Q12.1473 -6 12 -6Z"/>
    <path fill="none" stroke="#323232FF" stroke-width="3"  d="M24 -6L24 6M12 -6Q11.8527 -6 11.7056 -5.99277Q11.5585 -5.98555 11.4119 -5.97111Q11.2653 -5.95667 11.1196 -5.93506Q10.9739 -5.91345 10.8295 -5.88471Q10.685 -5.85598 10.5421 -5.82019Q10.3992 -5.7844 10.2583 -5.74164Q10.1173 -5.69888 9.97866 -5.64926Q9.83998 -5.59964 9.7039 -5.54328Q9.56782 -5.48691 9.43467 -5.42394Q9.30152 -5.36096 9.17162 -5.29153Q9.04172 -5.22209 8.91538 -5.14637Q8.78905 -5.07065 8.66658 -4.98882Q8.54411 -4.90699 8.4258 -4.81924Q8.3075 -4.7315 8.19364 -4.63806Q8.07978 -4.54462 7.97065 -4.44571Q7.86151 -4.34679 7.75736 -4.24264Q7.65321 -4.13849 7.55429 -4.02935Q7.45538 -3.92022 7.36194 -3.80636Q7.2685 -3.6925 7.18075 -3.5742Q7.09301 -3.45589 7.01118 -3.33342Q6.92935 -3.21095 6.85363 -3.08462Q6.7779 -2.95828 6.70847 -2.82838Q6.63904 -2.69848 6.57606 -2.56533Q6.51309 -2.43218 6.45672 -2.2961Q6.40036 -2.16002 6.35074 -2.02134Q6.30111 -1.88266 6.25836 -1.74171Q6.2156 -1.60076 6.17981 -1.45788Q6.14402 -1.315 6.11529 -1.17054Q6.08655 -1.02608 6.06494 -0.880383Q6.04333 -0.734685 6.02889 -0.588103Q6.01445 -0.44152 6.00723 -0.294406Q6 -0.147292 6 0Q6 0.147292 6.00723 0.294406Q6.01445 0.44152 6.02889 0.588103Q6.04333 0.734685 6.06494 0.880383Q6.08655 1.02608 6.11529 1.17054Q6.14402 1.315 6.17981 1.45788Q6.2156 1.60076 6.25836 1.74171Q6.30111 1.88266 6.35074 2.02134Q6.40036 2.16002 6.45672 2.2961Q6.51309 2.43218 6.57606 2.56533Q6.63904 2.69848 6.70847 2.82838Q6.7779 2.95828 6.85363 3.08462Q6.92935 3.21095 7.01118 3.33342Q7.09301 3.45589 7.18075 3.5742Q7.2685 3.6925 7.36194 3.80636Q7.45538 3.92022 7.55429 4.02935Q7.65321 4.13849 7.75736 4.24264Q7.86151 4.34679 7.97065 4.44571Q8.07978 4.54462 8.19364 4.63806Q8.3075 4.7315 8.4258 4.81924Q8.54411 4.90699 8.66658 4.98882Q8.78905 5.07065 8.91538 5.14637Q9.04172 5.22209 9.17162 5.29153Q9.30152 5.36096 9.43467 5.42394Q9.56782 5.48691 9.7039 5.54328Q9.83998 5.59964 9.97866 5.64926Q10.1173 5.69888 10.2583 5.74164Q10.3992 5.7844 10.5421 5.82019Q10.685 5.85598 10.8295 5.88471Q10.9739 5.91345 11.1196 5.93506Q11.2653 5.95667 11.4119 5.97111Q11.5585 5.98555 11.7056 5.99277Q11.8527 6 12 6Q12.1473 6 12.2944 5.99277Q12.4415 5.98555 12.5881 5.97111Q12.7347 5.95667 12.8804 5.93506Q13.0261 5.91345 13.1705 5.88471Q13.315 5.85598 13.4579 5.82019Q13.6008 5.7844 13.7417 5.74164Q13.8827 5.69888 14.0213 5.64926Q14.16 5.59964 14.2961 5.54328Q14.4322 5.48691 14.5653 5.42394Q14.6985 5.36096 14.8284 5.29153Q14.9583 5.22209 15.0846 5.14637Q15.211 5.07065 15.3334 4.98882Q15.4559 4.90699 15.5742 4.81924Q15.6925 4.7315 15.8064 4.63806Q15.9202 4.54462 16.0294 4.44571Q16.1385 4.34679 16.2426 4.24264Q16.3468 4.13849 16.4457 4.02935Q16.5446 3.92022 16.6381 3.80636Q16.7315 3.6925 16.8192 3.5742Q16.907 3.45589 16.9888 3.33342Q17.0706 3.21095 17.1464 3.08462Q17.2221 2.95828 17.2915 2.82838Q17.361 2.69848 17.4239 2.56533Q17.4869 2.43218 17.5433 2.2961Q17.5996 2.16002 17.6493 2.02134Q17.6989 1.88266 17.7416 1.74171Q17.7844 1.60076 17.8202 1.45788Q17.856 1.315 17.8847 1.17054Q17.9134 1.02608 17.9351 0.880383Q17.9567 0.734685 17.9711 0.588103Q17.9855 0.44152 17.9928 0.294406Q18 0.147292 18 0Q18 -0.147292 17.9928 -0.294406Q17.9855 -0.44152 17.9711 -0.588103Q17.9567 -0.734685 17.9351 -0.880383Q17.9134 -1.02608 17.8847 -1.17054Q17.856 -1.315 17.8202 -1.45788Q17.7844 -1.60076 17.7416 -1.74171Q17.6989 -1.88266 17.6493 -2.02134Q17.5996 -2.16002 17.5433 -2.2961Q17.4869 -2.43218 17.4239 -2.56533Q17.361 -2.69848 17.2915 -2.82838Q17.2221 -2.95828 17.1464 -3.08462Q17.0706 -3.21095 16.9888 -3.33342Q16.907 -3.45589 16.8192 -3.5742Q16.7315 -3.6925 16.6381 -3.80636Q16.5446 -3.92022 16.4457 -4.02935Q16.3468 -4.13849 16.2426 -4.24264Q16.1385 -4.34679 16.0294 -4.44571Q15.9202 -4.54462 15.8064 -4.63806Q15.6925 -4.7315 15.5742 -4.81924Q15.4559 -4.90699 15.3334 -4.98882Q15.211 -5.07065 15.0846 -5.14637Q14.9583 -5.22209 14.8284 -5.29153Q14.6985 -5.36096 14.5653 -5.42394Q14.4322 -5.48691 14.2961 -5.54328Q14.16 -5.59964 14.0213 -5.64926Q13.8827 -5.69888 13.7417 -5.74164Q13.6008 -5.7844 13.4579 -5.82019Q13.315 -5.85598 13.1705 -5.88471Q13.0261 -5.91345 12.8804 -5.93506Q12.7347 -5.95667 12.5881 -5.97111Q12.4415 -5.98555 12.2944 -5.99277Q12.1473 -6 12 -6Z"/>
</g>
</svg>