<svg xmlns="http://www.w3.org/2000/svg" version="1.1" xmlns:xlink="http://www.w3.org/1999/xlink" xmlns:svgjs="http://svgjs.dev/svgjs" width="32" height="32" viewbox="0 0 32 32"   shape-rendering="geometricPrecision">
<g transform="translate(2, 15) ">
    <path fill="none" stroke="#323232FF" stroke-width="3"  d="M30 0L30 0L15 0L15 0L0 0L0 0"/>
    <path fill="none" stroke="#323232FF" stroke-width="3"  d="M30 0L30 0L15 0L15 0L0 0L0 0"/>
    <path fill="none" stroke="#323232FF" stroke-width="3"  d="M24 6Q23.8527 6 23.7056 5.99277Q23.5585 5.98555 23.4119 5.97111Q23.2653 5.95667 23.1196 5.93506Q22.9739 5.91345 22.8295 5.88471Q22.685 5.85598 22.5421 5.82019Q22.3992 5.7844 22.2583 5.74164Q22.1173 5.69888 21.9787 5.64926Q21.84 5.59964 21.7039 5.54328Q21.5678 5.48691 21.4347 5.42394Q21.3015 5.36096 21.1716 5.29153Q21.0417 5.22209 20.9154 5.14637Q20.789 5.07065 20.6666 4.98882Q20.5441 4.90699 20.4258 4.81924Q20.3075 4.7315 20.1936 4.63806Q20.0798 4.54462 19.9706 4.44571Q19.8615 4.34679 19.7574 4.24264Q19.6532 4.13849 19.5543 4.02935Q19.4554 3.92022 19.3619 3.80636Q19.2685 3.6925 19.1808 3.5742Q19.093 3.45589 19.0112 3.33342Q18.9294 3.21095 18.8536 3.08462Q18.7779 2.95828 18.7085 2.82838Q18.639 2.69848 18.5761 2.56533Q18.5131 2.43218 18.4567 2.2961Q18.4004 2.16002 18.3507 2.02134Q18.3011 1.88266 18.2584 1.74171Q18.2156 1.60076 18.1798 1.45788Q18.144 1.315 18.1153 1.17054Q18.0866 1.02608 18.0649 0.880383Q18.0433 0.734685 18.0289 0.588103Q18.0145 0.44152 18.0072 0.294406Q18 0.147292 18 0Q18 -0.147292 18.0072 -0.294406Q18.0145 -0.44152 18.0289 -0.588103Q18.0433 -0.734685 18.0649 -0.880383Q18.0866 -1.02608 18.1153 -1.17054Q18.144 -1.315 18.1798 -1.45788Q18.2156 -1.60076 18.2584 -1.74171Q18.3011 -1.88266 18.3507 -2.02134Q18.4004 -2.16002 18.4567 -2.2961Q18.5131 -2.43218 18.5761 -2.56533Q18.639 -2.69848 18.7085 -2.82838Q18.7779 -2.95828 18.8536 -3.08462Q18.9293 -3.21095 19.0112 -3.33342Q19.093 -3.45589 19.1808 -3.5742Q19.2685 -3.6925 19.3619 -3.80636Q19.4554 -3.92022 19.5543 -4.02935Q19.6532 -4.13849 19.7574 -4.24264Q19.8615 -4.34679 19.9706 -4.44571Q20.0798 -4.54462 20.1936 -4.63806Q20.3075 -4.7315 20.4258 -4.81924Q20.5441 -4.90699 20.6666 -4.98882Q20.789 -5.07065 20.9154 -5.14637Q21.0417 -5.22209 21.1716 -5.29153Q21.3015 -5.36096 21.4347 -5.42394Q21.5678 -5.48691 21.7039 -5.54328Q21.84 -5.59964 21.9787 -5.64926Q22.1173 -5.69888 22.2583 -5.74164Q22.3992 -5.7844 22.5421 -5.82019Q22.685 -5.85598 22.8295 -5.88471Q22.9739 -5.91345 23.1196 -5.93506Q23.2653 -5.95667 23.4119 -5.97111Q23.5585 -5.98555 23.7056 -5.99277Q23.8527 -6 24 -6"/>
</g>
</svg>