<svg xmlns="http://www.w3.org/2000/svg" version="1.1" xmlns:xlink="http://www.w3.org/1999/xlink" xmlns:svgjs="http://svgjs.dev/svgjs" width="32" height="32" viewbox="0 0 32 32"   shape-rendering="geometricPrecision">
<g transform="translate(2, 15) ">
    <path fill="none" stroke="#323232FF" stroke-width="3"  d="M28 0L28 0L14 0L14 0L0 0L0 0"/>
    <path fill="none" stroke="#323232FF" stroke-width="3"  d="M28 0L28 0L14 0L14 0L0 0L0 0"/>
    <path fill="none" stroke="#323232FF" stroke-width="3"  d="M22 6Q21.8527 6 21.7056 5.99277Q21.5585 5.98555 21.4119 5.97111Q21.2653 5.95667 21.1196 5.93506Q20.9739 5.91345 20.8295 5.88471Q20.685 5.85598 20.5421 5.82019Q20.3992 5.7844 20.2583 5.74164Q20.1173 5.69888 19.9787 5.64926Q19.84 5.59964 19.7039 5.54328Q19.5678 5.48691 19.4347 5.42394Q19.3015 5.36096 19.1716 5.29153Q19.0417 5.22209 18.9154 5.14637Q18.789 5.07065 18.6666 4.98882Q18.5441 4.90699 18.4258 4.81924Q18.3075 4.7315 18.1936 4.63806Q18.0798 4.54462 17.9706 4.44571Q17.8615 4.34679 17.7574 4.24264Q17.6532 4.13849 17.5543 4.02935Q17.4554 3.92022 17.3619 3.80636Q17.2685 3.6925 17.1808 3.5742Q17.093 3.45589 17.0112 3.33342Q16.9294 3.21095 16.8536 3.08462Q16.7779 2.95828 16.7085 2.82838Q16.639 2.69848 16.5761 2.56533Q16.5131 2.43218 16.4567 2.2961Q16.4004 2.16002 16.3507 2.02134Q16.3011 1.88266 16.2584 1.74171Q16.2156 1.60076 16.1798 1.45788Q16.144 1.315 16.1153 1.17054Q16.0866 1.02608 16.0649 0.880383Q16.0433 0.734685 16.0289 0.588103Q16.0145 0.44152 16.0072 0.294406Q16 0.147292 16 0Q16 -0.147292 16.0072 -0.294406Q16.0145 -0.44152 16.0289 -0.588103Q16.0433 -0.734685 16.0649 -0.880383Q16.0866 -1.02608 16.1153 -1.17054Q16.144 -1.315 16.1798 -1.45788Q16.2156 -1.60076 16.2584 -1.74171Q16.3011 -1.88266 16.3507 -2.02134Q16.4004 -2.16002 16.4567 -2.2961Q16.5131 -2.43218 16.5761 -2.56533Q16.639 -2.69848 16.7085 -2.82838Q16.7779 -2.95828 16.8536 -3.08462Q16.9293 -3.21095 17.0112 -3.33342Q17.093 -3.45589 17.1808 -3.5742Q17.2685 -3.6925 17.3619 -3.80636Q17.4554 -3.92022 17.5543 -4.02935Q17.6532 -4.13849 17.7574 -4.24264Q17.8615 -4.34679 17.9706 -4.44571Q18.0798 -4.54462 18.1936 -4.63806Q18.3075 -4.7315 18.4258 -4.81924Q18.5441 -4.90699 18.6666 -4.98882Q18.789 -5.07065 18.9154 -5.14637Q19.0417 -5.22209 19.1716 -5.29153Q19.3015 -5.36096 19.4347 -5.42394Q19.5678 -5.48691 19.7039 -5.54328Q19.84 -5.59964 19.9787 -5.64926Q20.1173 -5.69888 20.2583 -5.74164Q20.3992 -5.7844 20.5421 -5.82019Q20.685 -5.85598 20.8295 -5.88471Q20.9739 -5.91345 21.1196 -5.93506Q21.2653 -5.95667 21.4119 -5.97111Q21.5585 -5.98555 21.7056 -5.99277Q21.8527 -6 22 -6"/>
</g>
</svg>