<svg xmlns="http://www.w3.org/2000/svg" version="1.1" xmlns:xlink="http://www.w3.org/1999/xlink" xmlns:svgjs="http://svgjs.dev/svgjs" width="32" height="32" viewbox="0 0 32 32"   shape-rendering="geometricPrecision">
<g transform="translate(2, 15) ">
    <path fill="none" stroke="#323232FF" stroke-width="3"  d="M28 0L28 0L14 0L14 0L0 0L0 0"/>
    <path fill="none" stroke="#323232FF" stroke-width="3"  d="M28 0L28 0L14 0L14 0L0 0L0 0"/>
    <path fill="#FFFFFFFF" d="M22 -6Q21.8527 -6 21.7056 -5.99277Q21.5585 -5.98555 21.4119 -5.97111Q21.2653 -5.95667 21.1196 -5.93506Q20.9739 -5.91345 20.8295 -5.88471Q20.685 -5.85598 20.5421 -5.82019Q20.3992 -5.7844 20.2583 -5.74164Q20.1173 -5.69888 19.9787 -5.64926Q19.84 -5.59964 19.7039 -5.54328Q19.5678 -5.48691 19.4347 -5.42394Q19.3015 -5.36096 19.1716 -5.29153Q19.0417 -5.22209 18.9154 -5.14637Q18.789 -5.07065 18.6666 -4.98882Q18.5441 -4.90699 18.4258 -4.81924Q18.3075 -4.7315 18.1936 -4.63806Q18.0798 -4.54462 17.9706 -4.44571Q17.8615 -4.34679 17.7574 -4.24264Q17.6532 -4.13849 17.5543 -4.02935Q17.4554 -3.92022 17.3619 -3.80636Q17.2685 -3.6925 17.1808 -3.5742Q17.093 -3.45589 17.0112 -3.33342Q16.9294 -3.21095 16.8536 -3.08462Q16.7779 -2.95828 16.7085 -2.82838Q16.639 -2.69848 16.5761 -2.56533Q16.5131 -2.43218 16.4567 -2.2961Q16.4004 -2.16002 16.3507 -2.02134Q16.3011 -1.88266 16.2584 -1.74171Q16.2156 -1.60076 16.1798 -1.45788Q16.144 -1.315 16.1153 -1.17054Q16.0866 -1.02608 16.0649 -0.880383Q16.0433 -0.734685 16.0289 -0.588103Q16.0145 -0.44152 16.0072 -0.294406Q16 -0.147292 16 0Q16 0.147292 16.0072 0.294406Q16.0145 0.44152 16.0289 0.588103Q16.0433 0.734685 16.0649 0.880383Q16.0866 1.02608 16.1153 1.17054Q16.144 1.315 16.1798 1.45788Q16.2156 1.60076 16.2584 1.74171Q16.3011 1.88266 16.3507 2.02134Q16.4004 2.16002 16.4567 2.2961Q16.5131 2.43218 16.5761 2.56533Q16.639 2.69848 16.7085 2.82838Q16.7779 2.95828 16.8536 3.08462Q16.9293 3.21095 17.0112 3.33342Q17.093 3.45589 17.1808 3.5742Q17.2685 3.6925 17.3619 3.80636Q17.4554 3.92022 17.5543 4.02935Q17.6532 4.13849 17.7574 4.24264Q17.8615 4.34679 17.9706 4.44571Q18.0798 4.54462 18.1936 4.63806Q18.3075 4.7315 18.4258 4.81924Q18.5441 4.90699 18.6666 4.98882Q18.789 5.07065 18.9154 5.14637Q19.0417 5.22209 19.1716 5.29153Q19.3015 5.36096 19.4347 5.42394Q19.5678 5.48691 19.7039 5.54328Q19.84 5.59964 19.9787 5.64926Q20.1173 5.69888 20.2583 5.74164Q20.3992 5.7844 20.5421 5.82019Q20.685 5.85598 20.8295 5.88471Q20.9739 5.91345 21.1196 5.93506Q21.2653 5.95667 21.4119 5.97111Q21.5585 5.98555 21.7056 5.99277Q21.8527 6 22 6Q22.1473 6 22.2944 5.99277Q22.4415 5.98555 22.5881 5.97111Q22.7347 5.95667 22.8804 5.93506Q23.0261 5.91345 23.1705 5.88471Q23.315 5.85598 23.4579 5.82019Q23.6008 5.7844 23.7417 5.74164Q23.8827 5.69888 24.0213 5.64926Q24.16 5.59964 24.2961 5.54328Q24.4322 5.48691 24.5653 5.42394Q24.6985 5.36096 24.8284 5.29153Q24.9583 5.22209 25.0846 5.14637Q25.2109 5.07065 25.3334 4.98882Q25.4559 4.90699 25.5742 4.81924Q25.6925 4.7315 25.8064 4.63806Q25.9202 4.54462 26.0294 4.44571Q26.1385 4.34679 26.2426 4.24264Q26.3468 4.13849 26.4457 4.02935Q26.5446 3.92022 26.6381 3.80636Q26.7315 3.6925 26.8192 3.5742Q26.907 3.45589 26.9888 3.33342Q27.0706 3.21095 27.1464 3.08462Q27.2221 2.95828 27.2915 2.82838Q27.361 2.69848 27.4239 2.56533Q27.4869 2.43218 27.5433 2.2961Q27.5996 2.16002 27.6493 2.02134Q27.6989 1.88266 27.7416 1.74171Q27.7844 1.60076 27.8202 1.45788Q27.856 1.315 27.8847 1.17054Q27.9134 1.02608 27.9351 0.880383Q27.9567 0.734685 27.9711 0.588103Q27.9855 0.44152 27.9928 0.294406Q28 0.147292 28 0Q28 -0.147292 27.9928 -0.294406Q27.9855 -0.44152 27.9711 -0.588103Q27.9567 -0.734685 27.9351 -0.880383Q27.9134 -1.02608 27.8847 -1.17054Q27.856 -1.315 27.8202 -1.45788Q27.7844 -1.60076 27.7416 -1.74171Q27.6989 -1.88266 27.6493 -2.02134Q27.5996 -2.16002 27.5433 -2.2961Q27.4869 -2.43218 27.4239 -2.56533Q27.361 -2.69848 27.2915 -2.82838Q27.2221 -2.95828 27.1464 -3.08462Q27.0706 -3.21095 26.9888 -3.33342Q26.907 -3.45589 26.8192 -3.5742Q26.7315 -3.6925 26.6381 -3.80636Q26.5446 -3.92022 26.4457 -4.02935Q26.3468 -4.13849 26.2426 -4.24264Q26.1385 -4.34679 26.0294 -4.44571Q25.9202 -4.54462 25.8064 -4.63806Q25.6925 -4.7315 25.5742 -4.81924Q25.4559 -4.90699 25.3334 -4.98882Q25.2109 -5.07065 25.0846 -5.14637Q24.9583 -5.22209 24.8284 -5.29153Q24.6985 -5.36096 24.5653 -5.42394Q24.4322 -5.48691 24.2961 -5.54328Q24.16 -5.59964 24.0213 -5.64926Q23.8827 -5.69888 23.7417 -5.74164Q23.6008 -5.7844 23.4579 -5.82019Q23.315 -5.85598 23.1705 -5.88471Q23.0261 -5.91345 22.8804 -5.93506Q22.7347 -5.95667 22.5881 -5.97111Q22.4415 -5.98555 22.2944 -5.99277Q22.1473 -6 22 -6ZM10 -6Q9.85271 -6 9.70559 -5.99277Q9.55848 -5.98555 9.4119 -5.97111Q9.26531 -5.95667 9.11962 -5.93506Q8.97392 -5.91345 8.82946 -5.88471Q8.685 -5.85598 8.54212 -5.82019Q8.39924 -5.7844 8.25829 -5.74164Q8.11734 -5.69888 7.97866 -5.64926Q7.83998 -5.59964 7.7039 -5.54328Q7.56782 -5.48691 7.43467 -5.42394Q7.30152 -5.36096 7.17162 -5.29153Q7.04172 -5.22209 6.91538 -5.14637Q6.78905 -5.07065 6.66658 -4.98882Q6.54411 -4.90699 6.4258 -4.81924Q6.3075 -4.7315 6.19364 -4.63806Q6.07978 -4.54462 5.97065 -4.44571Q5.86151 -4.34679 5.75736 -4.24264Q5.65321 -4.13849 5.55429 -4.02935Q5.45538 -3.92022 5.36194 -3.80636Q5.2685 -3.6925 5.18075 -3.5742Q5.09301 -3.45589 5.01118 -3.33342Q4.92935 -3.21095 4.85363 -3.08462Q4.7779 -2.95828 4.70847 -2.82838Q4.63904 -2.69848 4.57606 -2.56533Q4.51309 -2.43218 4.45672 -2.2961Q4.40036 -2.16002 4.35074 -2.02134Q4.30111 -1.88266 4.25836 -1.74171Q4.2156 -1.60076 4.17981 -1.45788Q4.14402 -1.315 4.11529 -1.17054Q4.08655 -1.02608 4.06494 -0.880383Q4.04333 -0.734685 4.02889 -0.588103Q4.01445 -0.44152 4.00723 -0.294406Q4 -0.147292 4 0Q4 0.147292 4.00723 0.294406Q4.01445 0.44152 4.02889 0.588103Q4.04333 0.734685 4.06494 0.880383Q4.08655 1.02608 4.11529 1.17054Q4.14402 1.315 4.17981 1.45788Q4.2156 1.60076 4.25836 1.74171Q4.30111 1.88266 4.35074 2.02134Q4.40036 2.16002 4.45672 2.2961Q4.51309 2.43218 4.57606 2.56533Q4.63904 2.69848 4.70847 2.82838Q4.7779 2.95828 4.85363 3.08462Q4.92935 3.21095 5.01118 3.33342Q5.09301 3.45589 5.18075 3.5742Q5.2685 3.6925 5.36194 3.80636Q5.45538 3.92022 5.55429 4.02935Q5.65321 4.13849 5.75736 4.24264Q5.86151 4.34679 5.97065 4.44571Q6.07978 4.54462 6.19364 4.63806Q6.3075 4.7315 6.4258 4.81924Q6.54411 4.90699 6.66658 4.98882Q6.78905 5.07065 6.91538 5.14637Q7.04172 5.22209 7.17162 5.29153Q7.30152 5.36096 7.43467 5.42394Q7.56782 5.48691 7.7039 5.54328Q7.83998 5.59964 7.97866 5.64926Q8.11734 5.69888 8.25829 5.74164Q8.39924 5.7844 8.54212 5.82019Q8.685 5.85598 8.82946 5.88471Q8.97392 5.91345 9.11962 5.93506Q9.26532 5.95667 9.4119 5.97111Q9.55848 5.98555 9.7056 5.99277Q9.85271 6 10 6Q10.1473 6 10.2944 5.99277Q10.4415 5.98555 10.5881 5.97111Q10.7347 5.95667 10.8804 5.93506Q11.0261 5.91345 11.1705 5.88471Q11.315 5.85598 11.4579 5.82019Q11.6008 5.7844 11.7417 5.74164Q11.8827 5.69888 12.0213 5.64926Q12.16 5.59964 12.2961 5.54328Q12.4322 5.48691 12.5653 5.42394Q12.6985 5.36096 12.8284 5.29153Q12.9583 5.22209 13.0846 5.14637Q13.211 5.07065 13.3334 4.98882Q13.4559 4.90699 13.5742 4.81924Q13.6925 4.7315 13.8064 4.63806Q13.9202 4.54462 14.0294 4.44571Q14.1385 4.34679 14.2426 4.24264Q14.3468 4.13849 14.4457 4.02935Q14.5446 3.92022 14.6381 3.80636Q14.7315 3.6925 14.8192 3.5742Q14.907 3.45589 14.9888 3.33342Q15.0706 3.21095 15.1464 3.08462Q15.2221 2.95828 15.2915 2.82838Q15.361 2.69848 15.4239 2.56533Q15.4869 2.43218 15.5433 2.2961Q15.5996 2.16002 15.6493 2.02134Q15.6989 1.88266 15.7416 1.74171Q15.7844 1.60076 15.8202 1.45788Q15.856 1.315 15.8847 1.17054Q15.9134 1.02608 15.9351 0.880383Q15.9567 0.734685 15.9711 0.588103Q15.9855 0.44152 15.9928 0.294406Q16 0.147292 16 0Q16 -0.147292 15.9928 -0.294406Q15.9855 -0.44152 15.9711 -0.588103Q15.9567 -0.734685 15.9351 -0.880383Q15.9134 -1.02608 15.8847 -1.17054Q15.856 -1.315 15.8202 -1.45788Q15.7844 -1.60076 15.7416 -1.74171Q15.6989 -1.88266 15.6493 -2.02134Q15.5996 -2.16002 15.5433 -2.2961Q15.4869 -2.43218 15.4239 -2.56533Q15.361 -2.69848 15.2915 -2.82838Q15.2221 -2.95828 15.1464 -3.08462Q15.0706 -3.21095 14.9888 -3.33342Q14.907 -3.45589 14.8192 -3.5742Q14.7315 -3.6925 14.6381 -3.80636Q14.5446 -3.92022 14.4457 -4.02935Q14.3468 -4.13849 14.2426 -4.24264Q14.1385 -4.34679 14.0294 -4.44571Q13.9202 -4.54462 13.8064 -4.63806Q13.6925 -4.7315 13.5742 -4.81924Q13.4559 -4.90699 13.3334 -4.98882Q13.211 -5.07065 13.0846 -5.14637Q12.9583 -5.22209 12.8284 -5.29153Q12.6985 -5.36096 12.5653 -5.42394Q12.4322 -5.48691 12.2961 -5.54328Q12.16 -5.59964 12.0213 -5.64926Q11.8827 -5.69888 11.7417 -5.74164Q11.6008 -5.7844 11.4579 -5.82019Q11.315 -5.85598 11.1705 -5.88471Q11.0261 -5.91345 10.8804 -5.93506Q10.7347 -5.95667 10.5881 -5.97111Q10.4415 -5.98555 10.2944 -5.99277Q10.1473 -6 10 -6Z"/>
    <path fill="none" stroke="#323232FF" stroke-width="3"  d="M22 -6Q21.8527 -6 21.7056 -5.99277Q21.5585 -5.98555 21.4119 -5.97111Q21.2653 -5.95667 21.1196 -5.93506Q20.9739 -5.91345 20.8295 -5.88471Q20.685 -5.85598 20.5421 -5.82019Q20.3992 -5.7844 20.2583 -5.74164Q20.1173 -5.69888 19.9787 -5.64926Q19.84 -5.59964 19.7039 -5.54328Q19.5678 -5.48691 19.4347 -5.42394Q19.3015 -5.36096 19.1716 -5.29153Q19.0417 -5.22209 18.9154 -5.14637Q18.789 -5.07065 18.6666 -4.98882Q18.5441 -4.90699 18.4258 -4.81924Q18.3075 -4.7315 18.1936 -4.63806Q18.0798 -4.54462 17.9706 -4.44571Q17.8615 -4.34679 17.7574 -4.24264Q17.6532 -4.13849 17.5543 -4.02935Q17.4554 -3.92022 17.3619 -3.80636Q17.2685 -3.6925 17.1808 -3.5742Q17.093 -3.45589 17.0112 -3.33342Q16.9294 -3.21095 16.8536 -3.08462Q16.7779 -2.95828 16.7085 -2.82838Q16.639 -2.69848 16.5761 -2.56533Q16.5131 -2.43218 16.4567 -2.2961Q16.4004 -2.16002 16.3507 -2.02134Q16.3011 -1.88266 16.2584 -1.74171Q16.2156 -1.60076 16.1798 -1.45788Q16.144 -1.315 16.1153 -1.17054Q16.0866 -1.02608 16.0649 -0.880383Q16.0433 -0.734685 16.0289 -0.588103Q16.0145 -0.44152 16.0072 -0.294406Q16 -0.147292 16 0Q16 0.147292 16.0072 0.294406Q16.0145 0.44152 16.0289 0.588103Q16.0433 0.734685 16.0649 0.880383Q16.0866 1.02608 16.1153 1.17054Q16.144 1.315 16.1798 1.45788Q16.2156 1.60076 16.2584 1.74171Q16.3011 1.88266 16.3507 2.02134Q16.4004 2.16002 16.4567 2.2961Q16.5131 2.43218 16.5761 2.56533Q16.639 2.69848 16.7085 2.82838Q16.7779 2.95828 16.8536 3.08462Q16.9293 3.21095 17.0112 3.33342Q17.093 3.45589 17.1808 3.5742Q17.2685 3.6925 17.3619 3.80636Q17.4554 3.92022 17.5543 4.02935Q17.6532 4.13849 17.7574 4.24264Q17.8615 4.34679 17.9706 4.44571Q18.0798 4.54462 18.1936 4.63806Q18.3075 4.7315 18.4258 4.81924Q18.5441 4.90699 18.6666 4.98882Q18.789 5.07065 18.9154 5.14637Q19.0417 5.22209 19.1716 5.29153Q19.3015 5.36096 19.4347 5.42394Q19.5678 5.48691 19.7039 5.54328Q19.84 5.59964 19.9787 5.64926Q20.1173 5.69888 20.2583 5.74164Q20.3992 5.7844 20.5421 5.82019Q20.685 5.85598 20.8295 5.88471Q20.9739 5.91345 21.1196 5.93506Q21.2653 5.95667 21.4119 5.97111Q21.5585 5.98555 21.7056 5.99277Q21.8527 6 22 6Q22.1473 6 22.2944 5.99277Q22.4415 5.98555 22.5881 5.97111Q22.7347 5.95667 22.8804 5.93506Q23.0261 5.91345 23.1705 5.88471Q23.315 5.85598 23.4579 5.82019Q23.6008 5.7844 23.7417 5.74164Q23.8827 5.69888 24.0213 5.64926Q24.16 5.59964 24.2961 5.54328Q24.4322 5.48691 24.5653 5.42394Q24.6985 5.36096 24.8284 5.29153Q24.9583 5.22209 25.0846 5.14637Q25.2109 5.07065 25.3334 4.98882Q25.4559 4.90699 25.5742 4.81924Q25.6925 4.7315 25.8064 4.63806Q25.9202 4.54462 26.0294 4.44571Q26.1385 4.34679 26.2426 4.24264Q26.3468 4.13849 26.4457 4.02935Q26.5446 3.92022 26.6381 3.80636Q26.7315 3.6925 26.8192 3.5742Q26.907 3.45589 26.9888 3.33342Q27.0706 3.21095 27.1464 3.08462Q27.2221 2.95828 27.2915 2.82838Q27.361 2.69848 27.4239 2.56533Q27.4869 2.43218 27.5433 2.2961Q27.5996 2.16002 27.6493 2.02134Q27.6989 1.88266 27.7416 1.74171Q27.7844 1.60076 27.8202 1.45788Q27.856 1.315 27.8847 1.17054Q27.9134 1.02608 27.9351 0.880383Q27.9567 0.734685 27.9711 0.588103Q27.9855 0.44152 27.9928 0.294406Q28 0.147292 28 0Q28 -0.147292 27.9928 -0.294406Q27.9855 -0.44152 27.9711 -0.588103Q27.9567 -0.734685 27.9351 -0.880383Q27.9134 -1.02608 27.8847 -1.17054Q27.856 -1.315 27.8202 -1.45788Q27.7844 -1.60076 27.7416 -1.74171Q27.6989 -1.88266 27.6493 -2.02134Q27.5996 -2.16002 27.5433 -2.2961Q27.4869 -2.43218 27.4239 -2.56533Q27.361 -2.69848 27.2915 -2.82838Q27.2221 -2.95828 27.1464 -3.08462Q27.0706 -3.21095 26.9888 -3.33342Q26.907 -3.45589 26.8192 -3.5742Q26.7315 -3.6925 26.6381 -3.80636Q26.5446 -3.92022 26.4457 -4.02935Q26.3468 -4.13849 26.2426 -4.24264Q26.1385 -4.34679 26.0294 -4.44571Q25.9202 -4.54462 25.8064 -4.63806Q25.6925 -4.7315 25.5742 -4.81924Q25.4559 -4.90699 25.3334 -4.98882Q25.2109 -5.07065 25.0846 -5.14637Q24.9583 -5.22209 24.8284 -5.29153Q24.6985 -5.36096 24.5653 -5.42394Q24.4322 -5.48691 24.2961 -5.54328Q24.16 -5.59964 24.0213 -5.64926Q23.8827 -5.69888 23.7417 -5.74164Q23.6008 -5.7844 23.4579 -5.82019Q23.315 -5.85598 23.1705 -5.88471Q23.0261 -5.91345 22.8804 -5.93506Q22.7347 -5.95667 22.5881 -5.97111Q22.4415 -5.98555 22.2944 -5.99277Q22.1473 -6 22 -6ZM10 -6Q9.85271 -6 9.70559 -5.99277Q9.55848 -5.98555 9.4119 -5.97111Q9.26531 -5.95667 9.11962 -5.93506Q8.97392 -5.91345 8.82946 -5.88471Q8.685 -5.85598 8.54212 -5.82019Q8.39924 -5.7844 8.25829 -5.74164Q8.11734 -5.69888 7.97866 -5.64926Q7.83998 -5.59964 7.7039 -5.54328Q7.56782 -5.48691 7.43467 -5.42394Q7.30152 -5.36096 7.17162 -5.29153Q7.04172 -5.22209 6.91538 -5.14637Q6.78905 -5.07065 6.66658 -4.98882Q6.54411 -4.90699 6.4258 -4.81924Q6.3075 -4.7315 6.19364 -4.63806Q6.07978 -4.54462 5.97065 -4.44571Q5.86151 -4.34679 5.75736 -4.24264Q5.65321 -4.13849 5.55429 -4.02935Q5.45538 -3.92022 5.36194 -3.80636Q5.2685 -3.6925 5.18075 -3.5742Q5.09301 -3.45589 5.01118 -3.33342Q4.92935 -3.21095 4.85363 -3.08462Q4.7779 -2.95828 4.70847 -2.82838Q4.63904 -2.69848 4.57606 -2.56533Q4.51309 -2.43218 4.45672 -2.2961Q4.40036 -2.16002 4.35074 -2.02134Q4.30111 -1.88266 4.25836 -1.74171Q4.2156 -1.60076 4.17981 -1.45788Q4.14402 -1.315 4.11529 -1.17054Q4.08655 -1.02608 4.06494 -0.880383Q4.04333 -0.734685 4.02889 -0.588103Q4.01445 -0.44152 4.00723 -0.294406Q4 -0.147292 4 0Q4 0.147292 4.00723 0.294406Q4.01445 0.44152 4.02889 0.588103Q4.04333 0.734685 4.06494 0.880383Q4.08655 1.02608 4.11529 1.17054Q4.14402 1.315 4.17981 1.45788Q4.2156 1.60076 4.25836 1.74171Q4.30111 1.88266 4.35074 2.02134Q4.40036 2.16002 4.45672 2.2961Q4.51309 2.43218 4.57606 2.56533Q4.63904 2.69848 4.70847 2.82838Q4.7779 2.95828 4.85363 3.08462Q4.92935 3.21095 5.01118 3.33342Q5.09301 3.45589 5.18075 3.5742Q5.2685 3.6925 5.36194 3.80636Q5.45538 3.92022 5.55429 4.02935Q5.65321 4.13849 5.75736 4.24264Q5.86151 4.34679 5.97065 4.44571Q6.07978 4.54462 6.19364 4.63806Q6.3075 4.7315 6.4258 4.81924Q6.54411 4.90699 6.66658 4.98882Q6.78905 5.07065 6.91538 5.14637Q7.04172 5.22209 7.17162 5.29153Q7.30152 5.36096 7.43467 5.42394Q7.56782 5.48691 7.7039 5.54328Q7.83998 5.59964 7.97866 5.64926Q8.11734 5.69888 8.25829 5.74164Q8.39924 5.7844 8.54212 5.82019Q8.685 5.85598 8.82946 5.88471Q8.97392 5.91345 9.11962 5.93506Q9.26532 5.95667 9.4119 5.97111Q9.55848 5.98555 9.7056 5.99277Q9.85271 6 10 6Q10.1473 6 10.2944 5.99277Q10.4415 5.98555 10.5881 5.97111Q10.7347 5.95667 10.8804 5.93506Q11.0261 5.91345 11.1705 5.88471Q11.315 5.85598 11.4579 5.82019Q11.6008 5.7844 11.7417 5.74164Q11.8827 5.69888 12.0213 5.64926Q12.16 5.59964 12.2961 5.54328Q12.4322 5.48691 12.5653 5.42394Q12.6985 5.36096 12.8284 5.29153Q12.9583 5.22209 13.0846 5.14637Q13.211 5.07065 13.3334 4.98882Q13.4559 4.90699 13.5742 4.81924Q13.6925 4.7315 13.8064 4.63806Q13.9202 4.54462 14.0294 4.44571Q14.1385 4.34679 14.2426 4.24264Q14.3468 4.13849 14.4457 4.02935Q14.5446 3.92022 14.6381 3.80636Q14.7315 3.6925 14.8192 3.5742Q14.907 3.45589 14.9888 3.33342Q15.0706 3.21095 15.1464 3.08462Q15.2221 2.95828 15.2915 2.82838Q15.361 2.69848 15.4239 2.56533Q15.4869 2.43218 15.5433 2.2961Q15.5996 2.16002 15.6493 2.02134Q15.6989 1.88266 15.7416 1.74171Q15.7844 1.60076 15.8202 1.45788Q15.856 1.315 15.8847 1.17054Q15.9134 1.02608 15.9351 0.880383Q15.9567 0.734685 15.9711 0.588103Q15.9855 0.44152 15.9928 0.294406Q16 0.147292 16 0Q16 -0.147292 15.9928 -0.294406Q15.9855 -0.44152 15.9711 -0.588103Q15.9567 -0.734685 15.9351 -0.880383Q15.9134 -1.02608 15.8847 -1.17054Q15.856 -1.315 15.8202 -1.45788Q15.7844 -1.60076 15.7416 -1.74171Q15.6989 -1.88266 15.6493 -2.02134Q15.5996 -2.16002 15.5433 -2.2961Q15.4869 -2.43218 15.4239 -2.56533Q15.361 -2.69848 15.2915 -2.82838Q15.2221 -2.95828 15.1464 -3.08462Q15.0706 -3.21095 14.9888 -3.33342Q14.907 -3.45589 14.8192 -3.5742Q14.7315 -3.6925 14.6381 -3.80636Q14.5446 -3.92022 14.4457 -4.02935Q14.3468 -4.13849 14.2426 -4.24264Q14.1385 -4.34679 14.0294 -4.44571Q13.9202 -4.54462 13.8064 -4.63806Q13.6925 -4.7315 13.5742 -4.81924Q13.4559 -4.90699 13.3334 -4.98882Q13.211 -5.07065 13.0846 -5.14637Q12.9583 -5.22209 12.8284 -5.29153Q12.6985 -5.36096 12.5653 -5.42394Q12.4322 -5.48691 12.2961 -5.54328Q12.16 -5.59964 12.0213 -5.64926Q11.8827 -5.69888 11.7417 -5.74164Q11.6008 -5.7844 11.4579 -5.82019Q11.315 -5.85598 11.1705 -5.88471Q11.0261 -5.91345 10.8804 -5.93506Q10.7347 -5.95667 10.5881 -5.97111Q10.4415 -5.98555 10.2944 -5.99277Q10.1473 -6 10 -6Z"/>
</g>
</svg>