<svg xmlns="http://www.w3.org/2000/svg" version="1.1" xmlns:xlink="http://www.w3.org/1999/xlink" xmlns:svgjs="http://svgjs.dev/svgjs" width="32" height="32" viewbox="0 0 32 32"   shape-rendering="geometricPrecision">
<g transform="translate(2, 15) ">
    <path fill="none" stroke="#323232FF" stroke-width="3"  d="M0 0L0 0L14 0L14 0L28 0L28 0"/>
    <path fill="none" stroke="#323232FF" stroke-width="3"  d="M0 0L0 0L14 0L14 0L28 0L28 0"/>
    <path fill="#FFFFFFFF" d="M6 -6Q5.85271 -6 5.70559 -5.99277Q5.55848 -5.98555 5.4119 -5.97111Q5.26531 -5.95667 5.11962 -5.93506Q4.97392 -5.91345 4.82946 -5.88471Q4.685 -5.85598 4.54212 -5.82019Q4.39924 -5.7844 4.25829 -5.74164Q4.11734 -5.69888 3.97866 -5.64926Q3.83998 -5.59964 3.7039 -5.54328Q3.56782 -5.48691 3.43467 -5.42394Q3.30152 -5.36096 3.17162 -5.29153Q3.04172 -5.22209 2.91538 -5.14637Q2.78905 -5.07065 2.66658 -4.98882Q2.54411 -4.90699 2.4258 -4.81924Q2.3075 -4.7315 2.19364 -4.63806Q2.07978 -4.54462 1.97065 -4.44571Q1.86151 -4.34679 1.75736 -4.24264Q1.65321 -4.13849 1.55429 -4.02935Q1.45538 -3.92022 1.36194 -3.80636Q1.2685 -3.6925 1.18075 -3.5742Q1.09301 -3.45589 1.01118 -3.33342Q0.929351 -3.21095 0.853628 -3.08462Q0.777905 -2.95828 0.708472 -2.82838Q0.63904 -2.69848 0.576064 -2.56533Q0.513089 -2.43218 0.456723 -2.2961Q0.400357 -2.16002 0.350736 -2.02134Q0.301114 -1.88266 0.258358 -1.74171Q0.215601 -1.60076 0.179812 -1.45788Q0.144023 -1.315 0.115288 -1.17054Q0.0865531 -1.02608 0.0649409 -0.880383Q0.0433288 -0.734685 0.0288916 -0.588103Q0.0144545 -0.44152 0.00722726 -0.294406Q0 -0.147292 0 0Q0 0.147292 0.00722726 0.294406Q0.0144545 0.44152 0.0288916 0.588103Q0.0433288 0.734685 0.0649409 0.880383Q0.0865531 1.02608 0.115288 1.17054Q0.144023 1.315 0.179812 1.45788Q0.215601 1.60076 0.258358 1.74171Q0.301114 1.88266 0.350736 2.02134Q0.400357 2.16002 0.456723 2.2961Q0.513089 2.43218 0.576064 2.56533Q0.63904 2.69848 0.708472 2.82838Q0.777905 2.95828 0.853628 3.08462Q0.929351 3.21095 1.01118 3.33342Q1.09301 3.45589 1.18075 3.5742Q1.2685 3.6925 1.36194 3.80636Q1.45538 3.92022 1.55429 4.02935Q1.65321 4.13849 1.75736 4.24264Q1.86151 4.34679 1.97065 4.44571Q2.07978 4.54462 2.19364 4.63806Q2.3075 4.7315 2.4258 4.81924Q2.54411 4.90699 2.66658 4.98882Q2.78905 5.07065 2.91538 5.14637Q3.04172 5.22209 3.17162 5.29153Q3.30152 5.36096 3.43467 5.42394Q3.56782 5.48691 3.7039 5.54328Q3.83998 5.59964 3.97866 5.64926Q4.11734 5.69888 4.25829 5.74164Q4.39924 5.7844 4.54212 5.82019Q4.685 5.85598 4.82946 5.88471Q4.97392 5.91345 5.11962 5.93506Q5.26531 5.95667 5.4119 5.97111Q5.55848 5.98555 5.70559 5.99277Q5.85271 6 6 6Q6.14729 6 6.29441 5.99277Q6.44152 5.98555 6.5881 5.97111Q6.73469 5.95667 6.88038 5.93506Q7.02608 5.91345 7.17054 5.88471Q7.315 5.85598 7.45788 5.82019Q7.60076 5.7844 7.74171 5.74164Q7.88266 5.69888 8.02134 5.64926Q8.16002 5.59964 8.2961 5.54328Q8.43218 5.48691 8.56533 5.42394Q8.69848 5.36096 8.82838 5.29153Q8.95828 5.22209 9.08462 5.14637Q9.21095 5.07065 9.33342 4.98882Q9.45589 4.90699 9.57419 4.81924Q9.6925 4.7315 9.80636 4.63806Q9.92022 4.54462 10.0294 4.44571Q10.1385 4.34679 10.2426 4.24264Q10.3468 4.13849 10.4457 4.02935Q10.5446 3.92022 10.6381 3.80636Q10.7315 3.6925 10.8192 3.5742Q10.907 3.45589 10.9888 3.33342Q11.0706 3.21095 11.1464 3.08462Q11.2221 2.95828 11.2915 2.82838Q11.361 2.69848 11.4239 2.56533Q11.4869 2.43218 11.5433 2.2961Q11.5996 2.16002 11.6493 2.02134Q11.6989 1.88266 11.7416 1.74171Q11.7844 1.60076 11.8202 1.45788Q11.856 1.315 11.8847 1.17054Q11.9134 1.02608 11.9351 0.880383Q11.9567 0.734685 11.9711 0.588103Q11.9855 0.44152 11.9928 0.294406Q12 0.147292 12 0Q12 -0.147292 11.9928 -0.294406Q11.9855 -0.44152 11.9711 -0.588103Q11.9567 -0.734685 11.9351 -0.880383Q11.9134 -1.02608 11.8847 -1.17054Q11.856 -1.315 11.8202 -1.45788Q11.7844 -1.60076 11.7416 -1.74171Q11.6989 -1.88266 11.6493 -2.02134Q11.5996 -2.16002 11.5433 -2.2961Q11.4869 -2.43218 11.4239 -2.56533Q11.361 -2.69848 11.2915 -2.82838Q11.2221 -2.95828 11.1464 -3.08462Q11.0706 -3.21095 10.9888 -3.33342Q10.907 -3.45589 10.8192 -3.5742Q10.7315 -3.6925 10.6381 -3.80636Q10.5446 -3.92022 10.4457 -4.02935Q10.3468 -4.13849 10.2426 -4.24264Q10.1385 -4.34679 10.0294 -4.44571Q9.92022 -4.54462 9.80636 -4.63806Q9.6925 -4.7315 9.5742 -4.81924Q9.45589 -4.90699 9.33342 -4.98882Q9.21095 -5.07065 9.08462 -5.14637Q8.95828 -5.22209 8.82838 -5.29153Q8.69848 -5.36096 8.56533 -5.42394Q8.43218 -5.48691 8.2961 -5.54328Q8.16002 -5.59964 8.02134 -5.64926Q7.88266 -5.69888 7.74171 -5.74164Q7.60076 -5.7844 7.45788 -5.82019Q7.315 -5.85598 7.17054 -5.88471Q7.02608 -5.91345 6.88038 -5.93506Q6.73469 -5.95667 6.5881 -5.97111Q6.44152 -5.98555 6.29441 -5.99277Q6.14729 -6 6 -6Z"/>
    <path fill="none" stroke="#323232FF" stroke-width="3"  d="M6 -6Q5.85271 -6 5.70559 -5.99277Q5.55848 -5.98555 5.4119 -5.97111Q5.26531 -5.95667 5.11962 -5.93506Q4.97392 -5.91345 4.82946 -5.88471Q4.685 -5.85598 4.54212 -5.82019Q4.39924 -5.7844 4.25829 -5.74164Q4.11734 -5.69888 3.97866 -5.64926Q3.83998 -5.59964 3.7039 -5.54328Q3.56782 -5.48691 3.43467 -5.42394Q3.30152 -5.36096 3.17162 -5.29153Q3.04172 -5.22209 2.91538 -5.14637Q2.78905 -5.07065 2.66658 -4.98882Q2.54411 -4.90699 2.4258 -4.81924Q2.3075 -4.7315 2.19364 -4.63806Q2.07978 -4.54462 1.97065 -4.44571Q1.86151 -4.34679 1.75736 -4.24264Q1.65321 -4.13849 1.55429 -4.02935Q1.45538 -3.92022 1.36194 -3.80636Q1.2685 -3.6925 1.18075 -3.5742Q1.09301 -3.45589 1.01118 -3.33342Q0.929351 -3.21095 0.853628 -3.08462Q0.777905 -2.95828 0.708472 -2.82838Q0.63904 -2.69848 0.576064 -2.56533Q0.513089 -2.43218 0.456723 -2.2961Q0.400357 -2.16002 0.350736 -2.02134Q0.301114 -1.88266 0.258358 -1.74171Q0.215601 -1.60076 0.179812 -1.45788Q0.144023 -1.315 0.115288 -1.17054Q0.0865531 -1.02608 0.0649409 -0.880383Q0.0433288 -0.734685 0.0288916 -0.588103Q0.0144545 -0.44152 0.00722726 -0.294406Q0 -0.147292 0 0Q0 0.147292 0.00722726 0.294406Q0.0144545 0.44152 0.0288916 0.588103Q0.0433288 0.734685 0.0649409 0.880383Q0.0865531 1.02608 0.115288 1.17054Q0.144023 1.315 0.179812 1.45788Q0.215601 1.60076 0.258358 1.74171Q0.301114 1.88266 0.350736 2.02134Q0.400357 2.16002 0.456723 2.2961Q0.513089 2.43218 0.576064 2.56533Q0.63904 2.69848 0.708472 2.82838Q0.777905 2.95828 0.853628 3.08462Q0.929351 3.21095 1.01118 3.33342Q1.09301 3.45589 1.18075 3.5742Q1.2685 3.6925 1.36194 3.80636Q1.45538 3.92022 1.55429 4.02935Q1.65321 4.13849 1.75736 4.24264Q1.86151 4.34679 1.97065 4.44571Q2.07978 4.54462 2.19364 4.63806Q2.3075 4.7315 2.4258 4.81924Q2.54411 4.90699 2.66658 4.98882Q2.78905 5.07065 2.91538 5.14637Q3.04172 5.22209 3.17162 5.29153Q3.30152 5.36096 3.43467 5.42394Q3.56782 5.48691 3.7039 5.54328Q3.83998 5.59964 3.97866 5.64926Q4.11734 5.69888 4.25829 5.74164Q4.39924 5.7844 4.54212 5.82019Q4.685 5.85598 4.82946 5.88471Q4.97392 5.91345 5.11962 5.93506Q5.26531 5.95667 5.4119 5.97111Q5.55848 5.98555 5.70559 5.99277Q5.85271 6 6 6Q6.14729 6 6.29441 5.99277Q6.44152 5.98555 6.5881 5.97111Q6.73469 5.95667 6.88038 5.93506Q7.02608 5.91345 7.17054 5.88471Q7.315 5.85598 7.45788 5.82019Q7.60076 5.7844 7.74171 5.74164Q7.88266 5.69888 8.02134 5.64926Q8.16002 5.59964 8.2961 5.54328Q8.43218 5.48691 8.56533 5.42394Q8.69848 5.36096 8.82838 5.29153Q8.95828 5.22209 9.08462 5.14637Q9.21095 5.07065 9.33342 4.98882Q9.45589 4.90699 9.57419 4.81924Q9.6925 4.7315 9.80636 4.63806Q9.92022 4.54462 10.0294 4.44571Q10.1385 4.34679 10.2426 4.24264Q10.3468 4.13849 10.4457 4.02935Q10.5446 3.92022 10.6381 3.80636Q10.7315 3.6925 10.8192 3.5742Q10.907 3.45589 10.9888 3.33342Q11.0706 3.21095 11.1464 3.08462Q11.2221 2.95828 11.2915 2.82838Q11.361 2.69848 11.4239 2.56533Q11.4869 2.43218 11.5433 2.2961Q11.5996 2.16002 11.6493 2.02134Q11.6989 1.88266 11.7416 1.74171Q11.7844 1.60076 11.8202 1.45788Q11.856 1.315 11.8847 1.17054Q11.9134 1.02608 11.9351 0.880383Q11.9567 0.734685 11.9711 0.588103Q11.9855 0.44152 11.9928 0.294406Q12 0.147292 12 0Q12 -0.147292 11.9928 -0.294406Q11.9855 -0.44152 11.9711 -0.588103Q11.9567 -0.734685 11.9351 -0.880383Q11.9134 -1.02608 11.8847 -1.17054Q11.856 -1.315 11.8202 -1.45788Q11.7844 -1.60076 11.7416 -1.74171Q11.6989 -1.88266 11.6493 -2.02134Q11.5996 -2.16002 11.5433 -2.2961Q11.4869 -2.43218 11.4239 -2.56533Q11.361 -2.69848 11.2915 -2.82838Q11.2221 -2.95828 11.1464 -3.08462Q11.0706 -3.21095 10.9888 -3.33342Q10.907 -3.45589 10.8192 -3.5742Q10.7315 -3.6925 10.6381 -3.80636Q10.5446 -3.92022 10.4457 -4.02935Q10.3468 -4.13849 10.2426 -4.24264Q10.1385 -4.34679 10.0294 -4.44571Q9.92022 -4.54462 9.80636 -4.63806Q9.6925 -4.7315 9.5742 -4.81924Q9.45589 -4.90699 9.33342 -4.98882Q9.21095 -5.07065 9.08462 -5.14637Q8.95828 -5.22209 8.82838 -5.29153Q8.69848 -5.36096 8.56533 -5.42394Q8.43218 -5.48691 8.2961 -5.54328Q8.16002 -5.59964 8.02134 -5.64926Q7.88266 -5.69888 7.74171 -5.74164Q7.60076 -5.7844 7.45788 -5.82019Q7.315 -5.85598 7.17054 -5.88471Q7.02608 -5.91345 6.88038 -5.93506Q6.73469 -5.95667 6.5881 -5.97111Q6.44152 -5.98555 6.29441 -5.99277Q6.14729 -6 6 -6Z"/>
</g>
</svg>