<svg xmlns="http://www.w3.org/2000/svg" version="1.1" xmlns:xlink="http://www.w3.org/1999/xlink" xmlns:svgjs="http://svgjs.dev/svgjs" width="32" height="32" viewbox="0 0 32 32"   shape-rendering="geometricPrecision">
<g transform="translate(2, 15) ">
    <path fill="none" stroke="#323232FF" stroke-width="3"  d="M28 0L28 0L14 0L14 0L0 0L0 0"/>
    <path fill="none" stroke="#323232FF" stroke-width="3"  d="M28 0L28 0L14 0L14 0L0 0L0 0"/>
    <path fill="#FFFFFFFF" d="M28 0L16 -6L16 0L16 6L28 0M16 0L4 -6L4 0L4 6L16 0"/>
    <path fill="none" stroke="#323232FF" stroke-width="3"  d="M28 0L16 -6L16 0L16 6L28 0M16 0L4 -6L4 0L4 6L16 0"/>
</g>
</svg>