<svg xmlns="http://www.w3.org/2000/svg" version="1.1" xmlns:xlink="http://www.w3.org/1999/xlink" xmlns:svgjs="http://svgjs.dev/svgjs" width="110" height="110" viewbox="0 0 110 110"   shape-rendering="geometricPrecision">
<g id="3468785d400b44f59a0847e6e3191174" transform="translate(5, 5) ">
    <path fill="#FFFFFFFF" stroke="#323232FF" stroke-width="2" d="M50 0L52.5941 30.296L62.941 1.70371L57.6055 31.6388L75 6.69873L62.0986 34.2328L85.3553 14.6447L65.7672 37.9014L93.3013 25L68.3613 42.3945L98.2963 37.059L69.704 47.4059L100 50L69.704 52.5941L98.2963 62.941L68.3613 57.6055L93.3013 75L65.7672 62.0986L85.3553 85.3553L62.0986 65.7672L75 93.3013L57.6055 68.3613L62.941 98.2963L52.5941 69.704L50 100L47.4059 69.704L37.059 98.2963L42.3945 68.3613L25 93.3013L37.9014 65.7672L14.6447 85.3553L34.2328 62.0986L6.69873 75L31.6388 57.6055L1.70371 62.941L30.296 52.5941L0 50L30.296 47.4059L1.70371 37.059L31.6388 42.3945L6.69873 25L34.2328 37.9014L14.6447 14.6447L37.9014 34.2328L25 6.69873L42.3945 31.6388L37.059 1.70371L47.4059 30.296L50 0Z"/>    
</g>
</svg>