<svg xmlns="http://www.w3.org/2000/svg" version="1.1" xmlns:xlink="http://www.w3.org/1999/xlink" xmlns:svgjs="http://svgjs.dev/svgjs" width="110" height="110" viewbox="0 0 110 110"   shape-rendering="geometricPrecision">
<g id="35c0a9f06cca4833a7cd35947d691c2f" transform="translate(5, 5) ">
    <path fill="#FFFFFFFF" stroke="#323232FF" stroke-width="2" d="M50 0L53.8772 30.5078L69.1342 3.80602L61.0414 33.4753L85.3553 14.6447L66.5247 38.9586L96.194 30.8658L69.4922 46.1228L100 50L69.4922 53.8772L96.194 69.1342L66.5247 61.0414L85.3553 85.3553L61.0414 66.5247L69.1342 96.194L53.8772 69.4922L50 100L46.1228 69.4922L30.8658 96.194L38.9586 66.5247L14.6447 85.3553L33.4753 61.0414L3.80602 69.1342L30.5078 53.8772L0 50L30.5078 46.1228L3.80602 30.8658L33.4753 38.9586L14.6447 14.6447L38.9586 33.4753L30.8658 3.80602L46.1228 30.5078L50 0Z"/>    
</g>
</svg>