<svg xmlns="http://www.w3.org/2000/svg" version="1.1" xmlns:xlink="http://www.w3.org/1999/xlink" xmlns:svgjs="http://svgjs.dev/svgjs" width="110" height="110" viewbox="0 0 110 110"   shape-rendering="geometricPrecision">
<g id="bfb8203333344e5ba158147376947b61" transform="translate(5, 5) ">
    <path fill="#FFFFFFFF" stroke="#323232FF" stroke-width="2" d="M50 0L51.948 30.2216L59.7545 0.960736L55.7691 30.9817L69.1342 3.80602L59.3686 32.4726L77.7785 8.42652L62.608 34.6371L85.3553 14.6447L65.3629 37.392L91.5735 22.2215L67.5274 40.6314L96.194 30.8658L69.0183 44.2309L99.0393 40.2455L69.7784 48.052L100 50L69.7784 51.948L99.0393 59.7545L69.0183 55.7691L96.194 69.1342L67.5274 59.3686L91.5735 77.7785L65.3629 62.608L85.3553 85.3553L62.608 65.3629L77.7785 91.5735L59.3686 67.5274L69.1342 96.194L55.7691 69.0183L59.7545 99.0393L51.948 69.7784L50 100L48.052 69.7784L40.2455 99.0393L44.2309 69.0183L30.8658 96.194L40.6314 67.5274L22.2215 91.5735L37.392 65.3629L14.6447 85.3553L34.6371 62.608L8.42652 77.7785L32.4726 59.3686L3.80602 69.1342L30.9817 55.7691L0.960736 59.7545L30.2216 51.948L0 50L30.2216 48.052L0.960736 40.2455L30.9817 44.2309L3.80602 30.8658L32.4726 40.6314L8.42652 22.2215L34.6371 37.392L14.6447 14.6447L37.392 34.6371L22.2215 8.42652L40.6314 32.4726L30.8658 3.80602L44.2309 30.9817L40.2455 0.960736L48.052 30.2216L50 0Z"/>    
</g>
</svg>