<svg xmlns="http://www.w3.org/2000/svg" version="1.1" xmlns:xlink="http://www.w3.org/1999/xlink" xmlns:svgjs="http://svgjs.dev/svgjs" width="70" height="70" viewbox="0 0 70 70"   shape-rendering="geometricPrecision">
<g id="f78a321daa6b4beb922a8c911d897e01" transform="translate(20, 5) ">
    <path fill="#FFFFFFFF" stroke="#323232FF" stroke-width="2" d="M15 0Q14.8159 0 14.632 0.00903408Q14.4481 0.0180682 14.2649 0.0361145Q14.0816 0.0541609 13.8995 0.0811762Q13.7174 0.108191 13.5368 0.14411Q13.3562 0.180029 13.1776 0.224766Q12.9991 0.269502 12.8229 0.322947Q12.6467 0.376393 12.4733 0.438419Q12.3 0.500446 12.1299 0.570903Q11.9598 0.641361 11.7933 0.72008Q11.6269 0.798799 11.4645 0.88559Q11.3021 0.972381 11.1442 1.06704Q10.9863 1.16169 10.8332 1.26398Q10.6801 1.36627 10.5323 1.47594Q10.3844 1.58562 10.242 1.70242Q10.0997 1.81922 9.96331 1.94287Q9.82689 2.06651 9.6967 2.1967Q9.56651 2.32689 9.44287 2.46331Q9.31922 2.59973 9.20242 2.74205Q9.08562 2.88437 8.97594 3.03225Q8.86626 3.18014 8.76398 3.33322Q8.66169 3.48631 8.56703 3.64423Q8.47238 3.80215 8.38559 3.96452Q8.2988 4.1269 8.22008 4.29334Q8.14136 4.45977 8.0709 4.62987Q8.00044 4.79997 7.93842 4.97333Q7.87639 5.14668 7.82295 5.32286Q7.7695 5.49905 7.72476 5.67765Q7.68003 5.85625 7.64411 6.03682Q7.60819 6.2174 7.58118 6.39952Q7.55416 6.58164 7.53611 6.76487Q7.51807 6.9481 7.50903 7.13199Q7.5 7.31589 7.5 7.5Q7.5 7.68411 7.50903 7.86801Q7.51807 8.0519 7.53611 8.23513Q7.55416 8.41836 7.58118 8.60048Q7.60819 8.7826 7.64411 8.96318Q7.68003 9.14375 7.72476 9.32235Q7.7695 9.50095 7.82295 9.67713Q7.87639 9.85332 7.93842 10.0267Q8.00044 10.2 8.0709 10.3701Q8.14136 10.5402 8.22008 10.7067Q8.2988 10.8731 8.38559 11.0355Q8.47238 11.1978 8.56703 11.3558Q8.66169 11.5137 8.76398 11.6668Q8.86626 11.8199 8.97594 11.9677Q9.08562 12.1156 9.20242 12.2579Q9.31922 12.4003 9.44287 12.5367Q9.56651 12.6731 9.6967 12.8033Q9.82689 12.9335 9.96331 13.0571Q10.0997 13.1808 10.242 13.2976Q10.3844 13.4144 10.5323 13.5241Q10.6801 13.6337 10.8332 13.736Q10.9863 13.8383 11.1442 13.933Q11.3021 14.0276 11.4645 14.1144Q11.6269 14.2012 11.7933 14.2799Q11.9598 14.3586 12.1299 14.4291Q12.3 14.4996 12.4733 14.5616Q12.6467 14.6236 12.8229 14.6771Q12.9991 14.7305 13.1776 14.7752Q13.3562 14.82 13.5368 14.8559Q13.7174 14.8918 13.8995 14.9188Q14.0816 14.9458 14.2649 14.9639Q14.4481 14.9819 14.632 14.991Q14.8159 15 15 15Q15.1841 15 15.368 14.991Q15.5519 14.9819 15.7351 14.9639Q15.9184 14.9458 16.1005 14.9188Q16.2826 14.8918 16.4632 14.8559Q16.6438 14.82 16.8223 14.7752Q17.0009 14.7305 17.1771 14.6771Q17.3533 14.6236 17.5267 14.5616Q17.7 14.4996 17.8701 14.4291Q18.0402 14.3586 18.2067 14.2799Q18.3731 14.2012 18.5355 14.1144Q18.6978 14.0276 18.8558 13.933Q19.0137 13.8383 19.1668 13.736Q19.3199 13.6337 19.4677 13.5241Q19.6156 13.4144 19.7579 13.2976Q19.9003 13.1808 20.0367 13.0571Q20.1731 12.9335 20.3033 12.8033Q20.4335 12.6731 20.5571 12.5367Q20.6808 12.4003 20.7976 12.2579Q20.9144 12.1156 21.0241 11.9677Q21.1337 11.8199 21.236 11.6668Q21.3383 11.5137 21.433 11.3558Q21.5276 11.1978 21.6144 11.0355Q21.7012 10.8731 21.7799 10.7067Q21.8586 10.5402 21.9291 10.3701Q21.9996 10.2 22.0616 10.0267Q22.1236 9.85332 22.1771 9.67713Q22.2305 9.50095 22.2752 9.32235Q22.32 9.14375 22.3559 8.96318Q22.3918 8.7826 22.4188 8.60048Q22.4458 8.41836 22.4639 8.23513Q22.4819 8.0519 22.491 7.86801Q22.5 7.68411 22.5 7.5Q22.5 7.31589 22.491 7.13199Q22.4819 6.9481 22.4639 6.76487Q22.4458 6.58164 22.4188 6.39952Q22.3918 6.2174 22.3559 6.03682Q22.32 5.85625 22.2752 5.67765Q22.2305 5.49905 22.1771 5.32287Q22.1236 5.14668 22.0616 4.97333Q21.9996 4.79997 21.9291 4.62987Q21.8586 4.45977 21.7799 4.29334Q21.7012 4.1269 21.6144 3.96452Q21.5276 3.80215 21.433 3.64423Q21.3383 3.48631 21.236 3.33322Q21.1337 3.18014 21.0241 3.03225Q20.9144 2.88437 20.7976 2.74205Q20.6808 2.59973 20.5571 2.46331Q20.4335 2.32689 20.3033 2.1967Q20.1731 2.06651 20.0367 1.94287Q19.9003 1.81922 19.7579 1.70242Q19.6156 1.58562 19.4677 1.47594Q19.3199 1.36627 19.1668 1.26398Q19.0137 1.16169 18.8558 1.06704Q18.6978 0.972381 18.5355 0.88559Q18.3731 0.798799 18.2067 0.72008Q18.0402 0.641361 17.8701 0.570903Q17.7 0.500446 17.5267 0.438419Q17.3533 0.376393 17.1771 0.322947Q17.0009 0.269502 16.8224 0.224766Q16.6438 0.180029 16.4632 0.14411Q16.2826 0.108191 16.1005 0.0811762Q15.9184 0.0541609 15.7351 0.0361145Q15.5519 0.0180682 15.368 0.00903408Q15.1841 0 15 0ZM0 20L30 20L0 20ZM15 15L15 40L15 15ZM0 60L15 40L30 60L15 40L0 60"/>    
</g>
</svg>