<svg xmlns="http://www.w3.org/2000/svg" version="1.1" xmlns:xlink="http://www.w3.org/1999/xlink" xmlns:svgjs="http://svgjs.dev/svgjs" width="210" height="210" viewbox="0 0 210 210"   shape-rendering="geometricPrecision">
<g id="babec6da39be4f3daf08a6da255d5c9b" transform="translate(95, 5) ">
    <path fill="#FFFFFFFF" stroke="#323232FF" stroke-width="2"  d="M10 0Q9.87726 0 9.75466 0.00602272Q9.63207 0.0120454 9.50992 0.0240764Q9.38776 0.0361073 9.26635 0.0541174Q9.14493 0.0721276 9.02455 0.0960736Q8.90416 0.12002 8.7851 0.149844Q8.66603 0.179668 8.54858 0.215298Q8.43112 0.250929 8.31555 0.29228Q8.19998 0.333631 8.08658 0.380602Q7.97318 0.427574 7.86222 0.480053Q7.75127 0.532533 7.64302 0.590394Q7.53477 0.648254 7.42949 0.711357Q7.32421 0.774459 7.22215 0.842652Q7.12009 0.910844 7.0215 0.983962Q6.92292 1.05708 6.82803 1.13495Q6.73315 1.21282 6.64221 1.29524Q6.55126 1.37767 6.46447 1.46447Q6.37767 1.55126 6.29524 1.6422Q6.21282 1.73315 6.13495 1.82803Q6.05708 1.92292 5.98396 2.0215Q5.91084 2.12009 5.84265 2.22215Q5.77446 2.32421 5.71136 2.42949Q5.64825 2.53477 5.59039 2.64302Q5.53253 2.75127 5.48005 2.86222Q5.42757 2.97318 5.3806 3.08658Q5.33363 3.19998 5.29228 3.31555Q5.25093 3.43112 5.2153 3.54858Q5.17967 3.66603 5.14984 3.7851Q5.12002 3.90416 5.09607 4.02455Q5.07213 4.14493 5.05412 4.26635Q5.03611 4.38776 5.02408 4.50991Q5.01205 4.63207 5.00602 4.75466Q5 4.87726 5 5Q5 5.12274 5.00602 5.24534Q5.01205 5.36793 5.02408 5.49009Q5.03611 5.61224 5.05412 5.73365Q5.07213 5.85507 5.09607 5.97545Q5.12002 6.09584 5.14984 6.2149Q5.17967 6.33397 5.2153 6.45142Q5.25093 6.56888 5.29228 6.68445Q5.33363 6.80002 5.3806 6.91342Q5.42757 7.02682 5.48005 7.13777Q5.53253 7.24873 5.59039 7.35698Q5.64825 7.46523 5.71136 7.57051Q5.77446 7.67579 5.84265 7.77785Q5.91084 7.87991 5.98396 7.9785Q6.05708 8.07708 6.13495 8.17197Q6.21282 8.26685 6.29524 8.35779Q6.37767 8.44874 6.46447 8.53553Q6.55126 8.62233 6.64221 8.70476Q6.73315 8.78719 6.82803 8.86505Q6.92292 8.94292 7.0215 9.01604Q7.12009 9.08916 7.22215 9.15735Q7.32421 9.22554 7.42949 9.28864Q7.53477 9.35175 7.64302 9.40961Q7.75127 9.46747 7.86222 9.51995Q7.97318 9.57243 8.08658 9.6194Q8.19998 9.66637 8.31555 9.70772Q8.43112 9.74907 8.54858 9.7847Q8.66603 9.82033 8.7851 9.85016Q8.90416 9.87998 9.02455 9.90393Q9.14493 9.92787 9.26635 9.94588Q9.38776 9.96389 9.50992 9.97592Q9.63207 9.98796 9.75466 9.99398Q9.87726 10 10 10Q10.1227 10 10.2453 9.99398Q10.3679 9.98796 10.4901 9.97592Q10.6122 9.96389 10.7337 9.94588Q10.8551 9.92787 10.9755 9.90393Q11.0958 9.87998 11.2149 9.85015Q11.334 9.82033 11.4514 9.7847Q11.5689 9.74907 11.6844 9.70772Q11.8 9.66637 11.9134 9.6194Q12.0268 9.57243 12.1378 9.51995Q12.2487 9.46747 12.357 9.40961Q12.4652 9.35175 12.5705 9.28864Q12.6758 9.22554 12.7778 9.15735Q12.8799 9.08915 12.9785 9.01604Q13.0771 8.94292 13.172 8.86505Q13.2668 8.78718 13.3578 8.70475Q13.4487 8.62233 13.5355 8.53553Q13.6223 8.44874 13.7048 8.35779Q13.7872 8.26685 13.8651 8.17197Q13.9429 8.07708 14.016 7.9785Q14.0892 7.87991 14.1573 7.77785Q14.2255 7.67579 14.2886 7.57051Q14.3517 7.46523 14.4096 7.35698Q14.4675 7.24873 14.5199 7.13777Q14.5724 7.02682 14.6194 6.91342Q14.6664 6.80002 14.7077 6.68445Q14.7491 6.56888 14.7847 6.45142Q14.8203 6.33397 14.8502 6.2149Q14.88 6.09584 14.9039 5.97545Q14.9279 5.85507 14.9459 5.73365Q14.9639 5.61224 14.9759 5.49009Q14.988 5.36793 14.994 5.24534Q15 5.12274 15 5Q15 4.87726 14.994 4.75466Q14.988 4.63207 14.9759 4.50991Q14.9639 4.38776 14.9459 4.26635Q14.9279 4.14493 14.9039 4.02455Q14.88 3.90416 14.8502 3.7851Q14.8203 3.66603 14.7847 3.54858Q14.7491 3.43112 14.7077 3.31555Q14.6664 3.19998 14.6194 3.08658Q14.5724 2.97318 14.5199 2.86222Q14.4675 2.75127 14.4096 2.64302Q14.3517 2.53477 14.2886 2.42949Q14.2255 2.32421 14.1573 2.22215Q14.0892 2.12009 14.016 2.0215Q13.9429 1.92292 13.8651 1.82803Q13.7872 1.73315 13.7048 1.6422Q13.6223 1.55126 13.5355 1.46447Q13.4487 1.37767 13.3578 1.29524Q13.2668 1.21282 13.172 1.13495Q13.0771 1.05708 12.9785 0.983962Q12.8799 0.910844 12.7778 0.842652Q12.6758 0.774459 12.5705 0.711357Q12.4652 0.648254 12.357 0.590394Q12.2487 0.532533 12.1378 0.480053Q12.0268 0.427574 11.9134 0.380602Q11.8 0.333631 11.6844 0.29228Q11.5689 0.250929 11.4514 0.215298Q11.334 0.179668 11.2149 0.149844Q11.0958 0.12002 10.9755 0.0960736Q10.8551 0.0721276 10.7337 0.0541174Q10.6122 0.0361073 10.4901 0.0240764Q10.3679 0.0120454 10.2453 0.00602272Q10.1227 0 10 0ZM0 13.3333L20 13.3333L0 13.3333ZM10 10L10 26.6667L10 10ZM0 40L10 26.6667L20 40L10 26.6667L0 40"/> 
    <path fill="#FFFFFFFF" stroke="#323232FF" stroke-width="1" stroke-dasharray="10, 2" d="M10 40L10 200"/>   
</g>
</svg>