<svg xmlns="http://www.w3.org/2000/svg" version="1.1" xmlns:xlink="http://www.w3.org/1999/xlink" xmlns:svgjs="http://svgjs.dev/svgjs" width="260" height="170" viewbox="0 0 260 170"   shape-rendering="geometricPrecision">
<g id="7995c4b26044470e80640fa7dd838cc2" transform="translate(5, 5) ">
    <path fill="#FFFFFFFF" stroke="#323232FF" stroke-width="2" d=""/>    
    <g>
        <g id="d554ff60b319493291b1908a9376189e" transform=" ">
            <path fill="#FFFFFFFF" stroke="#323232FF" stroke-width="1.5" d="M0 0L0 32L250 32L250 0L0 0Z"/>    
            <g transform="matrix(1.00, 0.00, 0.00, 1.00, 0.00, 0.00)">
                <path fill="#000000FF" stroke="#000000FF" stroke-linecap="round" stroke-linejoin="round" stroke-width="0.5"   d="M92.43 18.84L93.75 18.84Q93.56 20.42 92.58 21.28Q91.60 22.14 89.97 22.14L89.97 22.14Q88.21 22.14 87.15 20.87Q86.08 19.61 86.08 17.49L86.08 17.49L86.08 16.53Q86.08 15.14 86.58 14.09Q87.07 13.04 87.98 12.47Q88.89 11.91 90.09 11.91L90.09 11.91Q91.67 11.91 92.63 12.80Q93.59 13.68 93.75 15.25L93.75 15.25L92.43 15.25Q92.26 14.06 91.69 13.52Q91.11 12.99 90.09 12.99L90.09 12.99Q88.83 12.99 88.12 13.92Q87.40 14.85 87.40 16.57L87.40 16.57L87.40 17.53Q87.40 19.15 88.08 20.11Q88.76 21.06 89.97 21.06L89.97 21.06Q91.07 21.06 91.65 20.57Q92.24 20.07 92.43 18.84L92.43 18.84ZM96.71 11.50L96.71 22L95.45 22L95.45 11.50L96.71 11.50ZM104.63 22L103.30 22Q103.19 21.78 103.13 21.22L103.13 21.22Q102.24 22.14 101.02 22.14L101.02 22.14Q99.93 22.14 99.23 21.52Q98.52 20.90 98.52 19.95L98.52 19.95Q98.52 18.79 99.40 18.15Q100.28 17.52 101.87 17.52L101.87 17.52L103.10 17.52L103.10 16.93Q103.10 16.27 102.71 15.88Q102.31 15.49 101.54 15.49L101.54 15.49Q100.86 15.49 100.40 15.83Q99.95 16.17 99.95 16.65L99.95 16.65L98.67 16.65Q98.67 16.10 99.07 15.58Q99.46 15.07 100.13 14.77Q100.81 14.47 101.61 14.47L101.61 14.47Q102.89 14.47 103.62 15.11Q104.34 15.75 104.37 16.87L104.37 16.87L104.37 20.27Q104.37 21.29 104.63 21.89L104.63 21.89L104.63 22ZM101.20 21.04L101.20 21.04Q101.80 21.04 102.33 20.73Q102.87 20.42 103.10 19.93L103.10 19.93L103.10 18.41L102.11 18.41Q99.79 18.41 99.79 19.77L99.79 19.77Q99.79 20.37 100.19 20.70Q100.58 21.04 101.20 21.04ZM110.66 20.04L110.66 20.04Q110.66 19.53 110.27 19.24Q109.89 18.96 108.93 18.75Q107.96 18.55 107.40 18.26Q106.84 17.97 106.57 17.58Q106.30 17.18 106.30 16.63L106.30 16.63Q106.30 15.72 107.07 15.10Q107.83 14.47 109.03 14.47L109.03 14.47Q110.29 14.47 111.07 15.12Q111.85 15.77 111.85 16.78L111.85 16.78L110.58 16.78Q110.58 16.26 110.14 15.88Q109.70 15.51 109.03 15.51L109.03 15.51Q108.34 15.51 107.95 15.81Q107.56 16.11 107.56 16.59L107.56 16.59Q107.56 17.05 107.92 17.28Q108.29 17.52 109.23 17.73Q110.18 17.94 110.77 18.23Q111.36 18.53 111.64 18.94Q111.92 19.35 111.92 19.95L111.92 19.95Q111.92 20.94 111.13 21.54Q110.34 22.14 109.07 22.14L109.07 22.14Q108.18 22.14 107.50 21.82Q106.82 21.51 106.43 20.94Q106.04 20.38 106.04 19.72L106.04 19.72L107.31 19.72Q107.34 20.36 107.82 20.73Q108.29 21.10 109.07 21.10L109.07 21.10Q109.79 21.10 110.22 20.81Q110.66 20.52 110.66 20.04ZM117.88 20.04L117.88 20.04Q117.88 19.53 117.49 19.24Q117.10 18.96 116.14 18.75Q115.18 18.55 114.62 18.26Q114.06 17.97 113.79 17.58Q113.52 17.18 113.52 16.63L113.52 16.63Q113.52 15.72 114.28 15.10Q115.05 14.47 116.25 14.47L116.25 14.47Q117.51 14.47 118.29 15.12Q119.07 15.77 119.07 16.78L119.07 16.78L117.80 16.78Q117.80 16.26 117.36 15.88Q116.92 15.51 116.25 15.51L116.25 15.51Q115.56 15.51 115.17 15.81Q114.78 16.11 114.78 16.59L114.78 16.59Q114.78 17.05 115.14 17.28Q115.50 17.52 116.45 17.73Q117.40 17.94 117.99 18.23Q118.57 18.53 118.86 18.94Q119.14 19.35 119.14 19.95L119.14 19.95Q119.14 20.94 118.35 21.54Q117.56 22.14 116.29 22.14L116.29 22.14Q115.40 22.14 114.72 21.82Q114.04 21.51 113.65 20.94Q113.26 20.38 113.26 19.72L113.26 19.72L114.53 19.72Q114.56 20.36 115.04 20.73Q115.51 21.10 116.29 21.10L116.29 21.10Q117.01 21.10 117.44 20.81Q117.88 20.52 117.88 20.04ZM132.10 12.05L132.10 22L130.78 22L125.77 14.33L125.77 22L124.45 22L124.45 12.05L125.77 12.05L130.80 19.75L130.80 12.05L132.10 12.05ZM140.13 22L138.80 22Q138.69 21.78 138.62 21.22L138.62 21.22Q137.74 22.14 136.52 22.14L136.52 22.14Q135.42 22.14 134.72 21.52Q134.02 20.90 134.02 19.95L134.02 19.95Q134.02 18.79 134.90 18.15Q135.78 17.52 137.37 17.52L137.37 17.52L138.60 17.52L138.60 16.93Q138.60 16.27 138.21 15.88Q137.81 15.49 137.04 15.49L137.04 15.49Q136.36 15.49 135.90 15.83Q135.45 16.17 135.45 16.65L135.45 16.65L134.17 16.65Q134.17 16.10 134.57 15.58Q134.96 15.07 135.63 14.77Q136.31 14.47 137.11 14.47L137.11 14.47Q138.39 14.47 139.12 15.11Q139.84 15.75 139.87 16.87L139.87 16.87L139.87 20.27Q139.87 21.29 140.13 21.89L140.13 21.89L140.13 22ZM136.70 21.04L136.70 21.04Q137.30 21.04 137.83 20.73Q138.36 20.42 138.60 19.93L138.60 19.93L138.60 18.41L137.61 18.41Q135.29 18.41 135.29 19.77L135.29 19.77Q135.29 20.37 135.68 20.70Q136.08 21.04 136.70 21.04ZM141.84 14.60L143.04 14.60L143.07 15.42Q143.89 14.47 145.27 14.47L145.27 14.47Q146.82 14.47 147.38 15.66L147.38 15.66Q147.75 15.12 148.34 14.79Q148.93 14.47 149.74 14.47L149.74 14.47Q152.17 14.47 152.21 17.04L152.21 17.04L152.21 22L150.95 22L150.95 17.12Q150.95 16.33 150.59 15.93Q150.22 15.54 149.37 15.54L149.37 15.54Q148.67 15.54 148.20 15.96Q147.74 16.38 147.66 17.09L147.66 17.09L147.66 22L146.39 22L146.39 17.15Q146.39 15.54 144.81 15.54L144.81 15.54Q143.57 15.54 143.11 16.60L143.11 16.60L143.11 22L141.84 22L141.84 14.60ZM157.19 22.14L157.19 22.14Q155.69 22.14 154.74 21.15Q153.80 20.16 153.80 18.51L153.80 18.51L153.80 18.27Q153.80 17.17 154.22 16.31Q154.64 15.44 155.40 14.96Q156.15 14.47 157.03 14.47L157.03 14.47Q158.48 14.47 159.28 15.42Q160.08 16.37 160.08 18.14L160.08 18.14L160.08 18.66L155.06 18.66Q155.09 19.76 155.70 20.43Q156.32 21.10 157.26 21.10L157.26 21.10Q157.93 21.10 158.39 20.83Q158.86 20.56 159.21 20.11L159.21 20.11L159.98 20.71Q159.05 22.14 157.19 22.14ZM157.03 15.51L157.03 15.51Q156.27 15.51 155.75 16.06Q155.23 16.62 155.11 17.63L155.11 17.63L158.81 17.63L158.81 17.53Q158.76 16.57 158.29 16.04Q157.83 15.51 157.03 15.51Z"/>
            </g>
        </g>
        <g id="468a79ecf7194f4892e62f0d0387a1b6" transform="translate(0, 32) ">
            <path fill="#FFFFFFFF" stroke="#323232FF" stroke-width="1.5" d="M0 0L0 64L250 64L250 0L0 0Z"/>    
            <g transform="matrix(1.00, 0.00, 0.00, 1.00, 0.00, 0.00)">
                <path fill="#000000FF" stroke="#000000FF" stroke-linecap="round" stroke-linejoin="round" stroke-width="0.1"   d="M12.05 15.76L12.05 18.66L14.82 18.66L14.82 19.86L12.05 19.86L12.05 23.00L10.77 23.00L10.77 19.86L8.00 19.86L8.00 18.66L10.77 18.66L10.77 15.76L12.05 15.76ZM25.72 24L24.39 24Q24.28 23.78 24.21 23.22L24.21 23.22Q23.33 24.14 22.11 24.14L22.11 24.14Q21.01 24.14 20.31 23.52Q19.61 22.90 19.61 21.95L19.61 21.95Q19.61 20.79 20.49 20.15Q21.37 19.52 22.96 19.52L22.96 19.52L24.19 19.52L24.19 18.93Q24.19 18.27 23.80 17.88Q23.40 17.49 22.63 17.49L22.63 17.49Q21.95 17.49 21.49 17.83Q21.04 18.17 21.04 18.65L21.04 18.65L19.76 18.65Q19.76 18.10 20.16 17.58Q20.55 17.07 21.22 16.77Q21.90 16.47 22.70 16.47L22.70 16.47Q23.98 16.47 24.71 17.11Q25.43 17.75 25.46 18.87L25.46 18.87L25.46 22.27Q25.46 23.29 25.72 23.89L25.72 23.89L25.72 24ZM22.29 23.04L22.29 23.04Q22.89 23.04 23.42 22.73Q23.95 22.42 24.19 21.93L24.19 21.93L24.19 20.41L23.20 20.41Q20.88 20.41 20.88 21.77L20.88 21.77Q20.88 22.37 21.27 22.70Q21.67 23.04 22.29 23.04ZM27.89 14.81L29.16 14.81L29.16 16.60L30.54 16.60L30.54 17.58L29.16 17.58L29.16 22.17Q29.16 22.61 29.34 22.83Q29.53 23.06 29.97 23.06L29.97 23.06Q30.19 23.06 30.57 22.97L30.57 22.97L30.57 24Q30.07 24.14 29.60 24.14L29.60 24.14Q28.75 24.14 28.32 23.62Q27.89 23.11 27.89 22.17L27.89 22.17L27.89 17.58L26.54 17.58L26.54 16.60L27.89 16.60L27.89 14.81ZM32.46 14.81L33.73 14.81L33.73 16.60L35.11 16.60L35.11 17.58L33.73 17.58L33.73 22.17Q33.73 22.61 33.91 22.83Q34.10 23.06 34.54 23.06L34.54 23.06Q34.76 23.06 35.14 22.97L35.14 22.97L35.14 24Q34.65 24.14 34.17 24.14L34.17 24.14Q33.33 24.14 32.90 23.62Q32.46 23.11 32.46 22.17L32.46 22.17L32.46 17.58L31.12 17.58L31.12 16.60L32.46 16.60L32.46 14.81ZM40.16 16.56L40.16 17.74Q39.88 17.69 39.54 17.69L39.54 17.69Q38.30 17.69 37.85 18.75L37.85 18.75L37.85 24L36.59 24L36.59 16.60L37.82 16.60L37.84 17.46Q38.46 16.47 39.60 16.47L39.60 16.47Q39.97 16.47 40.16 16.56L40.16 16.56ZM42.70 16.60L42.70 24L41.43 24L41.43 16.60L42.70 16.60ZM41.33 14.64L41.33 14.64Q41.33 14.33 41.52 14.12Q41.71 13.91 42.08 13.91Q42.45 13.91 42.64 14.12Q42.83 14.33 42.83 14.64Q42.83 14.95 42.64 15.15Q42.45 15.36 42.08 15.36Q41.71 15.36 41.52 15.15Q41.33 14.95 41.33 14.64ZM50.98 20.27L50.98 20.38Q50.98 22.08 50.20 23.11Q49.42 24.14 48.11 24.14L48.11 24.14Q46.71 24.14 45.95 23.15L45.95 23.15L45.88 24L44.72 24L44.72 13.50L45.99 13.50L45.99 17.42Q46.75 16.47 48.10 16.47Q49.45 16.47 50.21 17.49Q50.98 18.50 50.98 20.27L50.98 20.27ZM49.72 20.24L49.72 20.24Q49.72 18.95 49.22 18.24Q48.72 17.54 47.78 17.54L47.78 17.54Q46.53 17.54 45.99 18.70L45.99 18.70L45.99 21.90Q46.57 23.06 47.80 23.06L47.80 23.06Q48.71 23.06 49.21 22.36Q49.72 21.66 49.72 20.24ZM57.17 24L57.14 23.27Q56.40 24.14 54.98 24.14L54.98 24.14Q53.79 24.14 53.17 23.45Q52.56 22.76 52.55 21.42L52.55 21.42L52.55 16.60L53.81 16.60L53.81 21.38Q53.81 23.06 55.18 23.06L55.18 23.06Q56.63 23.06 57.11 21.98L57.11 21.98L57.11 16.60L58.37 16.60L58.37 24L57.17 24ZM60.75 14.81L62.01 14.81L62.01 16.60L63.39 16.60L63.39 17.58L62.01 17.58L62.01 22.17Q62.01 22.61 62.19 22.83Q62.38 23.06 62.82 23.06L62.82 23.06Q63.04 23.06 63.42 22.97L63.42 22.97L63.42 24Q62.93 24.14 62.45 24.14L62.45 24.14Q61.61 24.14 61.18 23.62Q60.75 23.11 60.75 22.17L60.75 22.17L60.75 17.58L59.40 17.58L59.40 16.60L60.75 16.60L60.75 14.81ZM67.94 24.14L67.94 24.14Q66.43 24.14 65.49 23.15Q64.55 22.16 64.55 20.51L64.55 20.51L64.55 20.27Q64.55 19.17 64.97 18.31Q65.39 17.44 66.14 16.96Q66.90 16.47 67.78 16.47L67.78 16.47Q69.22 16.47 70.02 17.42Q70.82 18.37 70.82 20.14L70.82 20.14L70.82 20.66L65.81 20.66Q65.84 21.76 66.45 22.43Q67.06 23.10 68.00 23.10L68.00 23.10Q68.67 23.10 69.14 22.83Q69.60 22.56 69.95 22.11L69.95 22.11L70.73 22.71Q69.80 24.14 67.94 24.14ZM67.78 17.51L67.78 17.51Q67.01 17.51 66.49 18.06Q65.97 18.62 65.85 19.63L65.85 19.63L69.56 19.63L69.56 19.53Q69.50 18.57 69.04 18.04Q68.57 17.51 67.78 17.51ZM76.31 14.00L76.31 24L75.04 24L75.04 15.57L72.49 16.51L72.49 15.36L76.11 14.00L76.31 14.00ZM80.10 23.34L80.10 23.34Q80.10 23.01 80.30 22.79Q80.49 22.57 80.88 22.57Q81.27 22.57 81.48 22.79Q81.68 23.01 81.68 23.34L81.68 23.34Q81.68 23.65 81.48 23.86Q81.27 24.08 80.88 24.08Q80.49 24.08 80.30 23.86Q80.10 23.65 80.10 23.34ZM80.11 17.30L80.11 17.30Q80.11 16.97 80.31 16.75Q80.50 16.54 80.89 16.54Q81.28 16.54 81.48 16.75Q81.68 16.97 81.68 17.30L81.68 17.30Q81.68 17.62 81.48 17.83Q81.28 18.04 80.89 18.04Q80.50 18.04 80.31 17.83Q80.11 17.62 80.11 17.30ZM93.80 14.05L93.80 15.13L90.60 15.13L90.60 24L89.30 24L89.30 15.13L86.11 15.13L86.11 14.05L93.80 14.05ZM95.16 16.60L97.01 22.15L98.73 16.60L100.09 16.60L97.11 25.14Q96.42 26.99 94.92 26.99L94.92 26.99L94.68 26.97L94.21 26.88L94.21 25.85L94.55 25.88Q95.19 25.88 95.55 25.62Q95.91 25.36 96.14 24.67L96.14 24.67L96.42 23.92L93.78 16.60L95.16 16.60ZM107.46 20.27L107.46 20.38Q107.46 22.07 106.69 23.10Q105.92 24.14 104.60 24.14L104.60 24.14Q103.25 24.14 102.48 23.28L102.48 23.28L102.48 26.84L101.21 26.84L101.21 16.60L102.37 16.60L102.43 17.42Q103.20 16.47 104.58 16.47L104.58 16.47Q105.91 16.47 106.69 17.47Q107.46 18.48 107.46 20.27L107.46 20.27ZM106.20 20.24L106.20 20.24Q106.20 18.99 105.66 18.26Q105.13 17.54 104.20 17.54L104.20 17.54Q103.05 17.54 102.48 18.56L102.48 18.56L102.48 22.09Q103.05 23.10 104.21 23.10L104.21 23.10Q105.12 23.10 105.66 22.38Q106.20 21.66 106.20 20.24ZM112.14 24.14L112.14 24.14Q110.63 24.14 109.69 23.15Q108.75 22.16 108.75 20.51L108.75 20.51L108.75 20.27Q108.75 19.17 109.17 18.31Q109.59 17.44 110.34 16.96Q111.10 16.47 111.98 16.47L111.98 16.47Q113.42 16.47 114.22 17.42Q115.02 18.37 115.02 20.14L115.02 20.14L115.02 20.66L110.01 20.66Q110.04 21.76 110.65 22.43Q111.26 23.10 112.21 23.10L112.21 23.10Q112.88 23.10 113.34 22.83Q113.81 22.56 114.15 22.11L114.15 22.11L114.93 22.71Q114.00 24.14 112.14 24.14ZM111.98 17.51L111.98 17.51Q111.21 17.51 110.70 18.06Q110.18 18.62 110.05 19.63L110.05 19.63L113.76 19.63L113.76 19.53Q113.70 18.57 113.24 18.04Q112.77 17.51 111.98 17.51Z"/>
                <path fill="#000000FF" stroke="#000000FF" stroke-linecap="round" stroke-linejoin="round" stroke-width="0.1"   d=""/>
                <path fill="#000000FF" stroke="#000000FF" stroke-linecap="round" stroke-linejoin="round" stroke-width="0.1"   d=""/>
                <path fill="#000000FF" stroke="#000000FF" stroke-linecap="round" stroke-linejoin="round" stroke-width="0.1"   d="M12.05 29.76L12.05 32.66L14.82 32.66L14.82 33.86L12.05 33.86L12.05 37.00L10.77 37.00L10.77 33.86L8.00 33.86L8.00 32.66L10.77 32.66L10.77 29.76L12.05 29.76ZM25.72 38L24.39 38Q24.28 37.78 24.21 37.22L24.21 37.22Q23.33 38.14 22.11 38.14L22.11 38.14Q21.01 38.14 20.31 37.52Q19.61 36.90 19.61 35.95L19.61 35.95Q19.61 34.79 20.49 34.15Q21.37 33.52 22.96 33.52L22.96 33.52L24.19 33.52L24.19 32.93Q24.19 32.27 23.80 31.88Q23.40 31.49 22.63 31.49L22.63 31.49Q21.95 31.49 21.49 31.83Q21.04 32.17 21.04 32.65L21.04 32.65L19.76 32.65Q19.76 32.10 20.16 31.58Q20.55 31.07 21.22 30.77Q21.90 30.47 22.70 30.47L22.70 30.47Q23.98 30.47 24.71 31.11Q25.43 31.75 25.46 32.87L25.46 32.87L25.46 36.27Q25.46 37.29 25.72 37.89L25.72 37.89L25.72 38ZM22.29 37.04L22.29 37.04Q22.89 37.04 23.42 36.73Q23.95 36.42 24.19 35.93L24.19 35.93L24.19 34.41L23.20 34.41Q20.88 34.41 20.88 35.77L20.88 35.77Q20.88 36.37 21.27 36.70Q21.67 37.04 22.29 37.04ZM27.89 28.81L29.16 28.81L29.16 30.60L30.54 30.60L30.54 31.58L29.16 31.58L29.16 36.17Q29.16 36.61 29.34 36.83Q29.53 37.06 29.97 37.06L29.97 37.06Q30.19 37.06 30.57 36.97L30.57 36.97L30.57 38Q30.07 38.14 29.60 38.14L29.60 38.14Q28.75 38.14 28.32 37.62Q27.89 37.11 27.89 36.17L27.89 36.17L27.89 31.58L26.54 31.58L26.54 30.60L27.89 30.60L27.89 28.81ZM32.46 28.81L33.73 28.81L33.73 30.60L35.11 30.60L35.11 31.58L33.73 31.58L33.73 36.17Q33.73 36.61 33.91 36.83Q34.10 37.06 34.54 37.06L34.54 37.06Q34.76 37.06 35.14 36.97L35.14 36.97L35.14 38Q34.65 38.14 34.17 38.14L34.17 38.14Q33.33 38.14 32.90 37.62Q32.46 37.11 32.46 36.17L32.46 36.17L32.46 31.58L31.12 31.58L31.12 30.60L32.46 30.60L32.46 28.81ZM40.16 30.56L40.16 31.74Q39.88 31.69 39.54 31.69L39.54 31.69Q38.30 31.69 37.85 32.75L37.85 32.75L37.85 38L36.59 38L36.59 30.60L37.82 30.60L37.84 31.46Q38.46 30.47 39.60 30.47L39.60 30.47Q39.97 30.47 40.16 30.56L40.16 30.56ZM42.70 30.60L42.70 38L41.43 38L41.43 30.60L42.70 30.60ZM41.33 28.64L41.33 28.64Q41.33 28.33 41.52 28.12Q41.71 27.91 42.08 27.91Q42.45 27.91 42.64 28.12Q42.83 28.33 42.83 28.64Q42.83 28.95 42.64 29.15Q42.45 29.36 42.08 29.36Q41.71 29.36 41.52 29.15Q41.33 28.95 41.33 28.64ZM50.98 34.27L50.98 34.38Q50.98 36.08 50.20 37.11Q49.42 38.14 48.11 38.14L48.11 38.14Q46.71 38.14 45.95 37.15L45.95 37.15L45.88 38L44.72 38L44.72 27.50L45.99 27.50L45.99 31.42Q46.75 30.47 48.10 30.47Q49.45 30.47 50.21 31.49Q50.98 32.50 50.98 34.27L50.98 34.27ZM49.72 34.24L49.72 34.24Q49.72 32.95 49.22 32.24Q48.72 31.54 47.78 31.54L47.78 31.54Q46.53 31.54 45.99 32.70L45.99 32.70L45.99 35.90Q46.57 37.06 47.80 37.06L47.80 37.06Q48.71 37.06 49.21 36.36Q49.72 35.66 49.72 34.24ZM57.17 38L57.14 37.27Q56.40 38.14 54.98 38.14L54.98 38.14Q53.79 38.14 53.17 37.45Q52.56 36.76 52.55 35.42L52.55 35.42L52.55 30.60L53.81 30.60L53.81 35.38Q53.81 37.06 55.18 37.06L55.18 37.06Q56.63 37.06 57.11 35.98L57.11 35.98L57.11 30.60L58.37 30.60L58.37 38L57.17 38ZM60.75 28.81L62.01 28.81L62.01 30.60L63.39 30.60L63.39 31.58L62.01 31.58L62.01 36.17Q62.01 36.61 62.19 36.83Q62.38 37.06 62.82 37.06L62.82 37.06Q63.04 37.06 63.42 36.97L63.42 36.97L63.42 38Q62.93 38.14 62.45 38.14L62.45 38.14Q61.61 38.14 61.18 37.62Q60.75 37.11 60.75 36.17L60.75 36.17L60.75 31.58L59.40 31.58L59.40 30.60L60.75 30.60L60.75 28.81ZM67.94 38.14L67.94 38.14Q66.43 38.14 65.49 37.15Q64.55 36.16 64.55 34.51L64.55 34.51L64.55 34.27Q64.55 33.17 64.97 32.31Q65.39 31.44 66.14 30.96Q66.90 30.47 67.78 30.47L67.78 30.47Q69.22 30.47 70.02 31.42Q70.82 32.37 70.82 34.14L70.82 34.14L70.82 34.66L65.81 34.66Q65.84 35.76 66.45 36.43Q67.06 37.10 68.00 37.10L68.00 37.10Q68.67 37.10 69.14 36.83Q69.60 36.56 69.95 36.11L69.95 36.11L70.73 36.71Q69.80 38.14 67.94 38.14ZM67.78 31.51L67.78 31.51Q67.01 31.51 66.49 32.06Q65.97 32.62 65.85 33.63L65.85 33.63L69.56 33.63L69.56 33.53Q69.50 32.57 69.04 32.04Q68.57 31.51 67.78 31.51ZM78.68 36.97L78.68 38L72.15 38L72.15 37.09L75.60 33.26Q76.37 32.39 76.66 31.85Q76.95 31.31 76.95 30.73L76.95 30.73Q76.95 29.95 76.47 29.45Q76.00 28.95 75.22 28.95L75.22 28.95Q74.27 28.95 73.75 29.49Q73.23 30.02 73.23 30.98L73.23 30.98L71.96 30.98Q71.96 29.61 72.85 28.76Q73.73 27.91 75.22 27.91L75.22 27.91Q76.60 27.91 77.41 28.64Q78.22 29.37 78.22 30.58L78.22 30.58Q78.22 32.05 76.34 34.08L76.34 34.08L73.68 36.97L78.68 36.97ZM80.10 37.34L80.10 37.34Q80.10 37.01 80.30 36.79Q80.49 36.57 80.88 36.57Q81.27 36.57 81.48 36.79Q81.68 37.01 81.68 37.34L81.68 37.34Q81.68 37.65 81.48 37.86Q81.27 38.08 80.88 38.08Q80.49 38.08 80.30 37.86Q80.10 37.65 80.10 37.34ZM80.11 31.30L80.11 31.30Q80.11 30.97 80.31 30.75Q80.50 30.54 80.89 30.54Q81.28 30.54 81.48 30.75Q81.68 30.97 81.68 31.30L81.68 31.30Q81.68 31.62 81.48 31.83Q81.28 32.04 80.89 32.04Q80.50 32.04 80.31 31.83Q80.11 31.62 80.11 31.30ZM93.80 28.05L93.80 29.13L90.60 29.13L90.60 38L89.30 38L89.30 29.13L86.11 29.13L86.11 28.05L93.80 28.05ZM95.16 30.60L97.01 36.15L98.73 30.60L100.09 30.60L97.11 39.14Q96.42 40.99 94.92 40.99L94.92 40.99L94.68 40.97L94.21 40.88L94.21 39.85L94.55 39.88Q95.19 39.88 95.55 39.62Q95.91 39.36 96.14 38.67L96.14 38.67L96.42 37.92L93.78 30.60L95.16 30.60ZM107.46 34.27L107.46 34.38Q107.46 36.07 106.69 37.10Q105.92 38.14 104.60 38.14L104.60 38.14Q103.25 38.14 102.48 37.28L102.48 37.28L102.48 40.84L101.21 40.84L101.21 30.60L102.37 30.60L102.43 31.42Q103.20 30.47 104.58 30.47L104.58 30.47Q105.91 30.47 106.69 31.47Q107.46 32.48 107.46 34.27L107.46 34.27ZM106.20 34.24L106.20 34.24Q106.20 32.99 105.66 32.26Q105.13 31.54 104.20 31.54L104.20 31.54Q103.05 31.54 102.48 32.56L102.48 32.56L102.48 36.09Q103.05 37.10 104.21 37.10L104.21 37.10Q105.12 37.10 105.66 36.38Q106.20 35.66 106.20 34.24ZM112.14 38.14L112.14 38.14Q110.63 38.14 109.69 37.15Q108.75 36.16 108.75 34.51L108.75 34.51L108.75 34.27Q108.75 33.17 109.17 32.31Q109.59 31.44 110.34 30.96Q111.10 30.47 111.98 30.47L111.98 30.47Q113.42 30.47 114.22 31.42Q115.02 32.37 115.02 34.14L115.02 34.14L115.02 34.66L110.01 34.66Q110.04 35.76 110.65 36.43Q111.26 37.10 112.21 37.10L112.21 37.10Q112.88 37.10 113.34 36.83Q113.81 36.56 114.15 36.11L114.15 36.11L114.93 36.71Q114.00 38.14 112.14 38.14ZM111.98 31.51L111.98 31.51Q111.21 31.51 110.70 32.06Q110.18 32.62 110.05 33.63L110.05 33.63L113.76 33.63L113.76 33.53Q113.70 32.57 113.24 32.04Q112.77 31.51 111.98 31.51Z"/>
                <path fill="#000000FF" stroke="#000000FF" stroke-linecap="round" stroke-linejoin="round" stroke-width="0.1"   d=""/>
                <path fill="#000000FF" stroke="#000000FF" stroke-linecap="round" stroke-linejoin="round" stroke-width="0.1"   d=""/>
                <path fill="#000000FF" stroke="#000000FF" stroke-linecap="round" stroke-linejoin="round" stroke-width="0.1"   d="M11.05 47.26L11.05 48.29L7.72 48.29L7.72 47.26L11.05 47.26ZM21.64 52L20.32 52Q20.21 51.78 20.14 51.22L20.14 51.22Q19.26 52.14 18.03 52.14L18.03 52.14Q16.94 52.14 16.24 51.52Q15.54 50.90 15.54 49.95L15.54 49.95Q15.54 48.79 16.42 48.15Q17.30 47.52 18.89 47.52L18.89 47.52L20.12 47.52L20.12 46.93Q20.12 46.27 19.72 45.88Q19.33 45.49 18.55 45.49L18.55 45.49Q17.88 45.49 17.42 45.83Q16.96 46.17 16.96 46.65L16.96 46.65L15.69 46.65Q15.69 46.10 16.08 45.58Q16.48 45.07 17.15 44.77Q17.82 44.47 18.63 44.47L18.63 44.47Q19.91 44.47 20.63 45.11Q21.36 45.75 21.38 46.87L21.38 46.87L21.38 50.27Q21.38 51.29 21.64 51.89L21.64 51.89L21.64 52ZM18.22 51.04L18.22 51.04Q18.81 51.04 19.35 50.73Q19.88 50.42 20.12 49.93L20.12 49.93L20.12 48.41L19.13 48.41Q16.80 48.41 16.80 49.77L16.80 49.77Q16.80 50.37 17.20 50.70Q17.60 51.04 18.22 51.04ZM23.82 42.81L25.08 42.81L25.08 44.60L26.46 44.60L26.46 45.58L25.08 45.58L25.08 50.17Q25.08 50.61 25.27 50.83Q25.45 51.06 25.90 51.06L25.90 51.06Q26.11 51.06 26.50 50.97L26.50 50.97L26.50 52Q26.00 52.14 25.53 52.14L25.53 52.14Q24.68 52.14 24.25 51.62Q23.82 51.11 23.82 50.17L23.82 50.17L23.82 45.58L22.47 45.58L22.47 44.60L23.82 44.60L23.82 42.81ZM28.39 42.81L29.66 42.81L29.66 44.60L31.04 44.60L31.04 45.58L29.66 45.58L29.66 50.17Q29.66 50.61 29.84 50.83Q30.02 51.06 30.47 51.06L30.47 51.06Q30.69 51.06 31.07 50.97L31.07 50.97L31.07 52Q30.57 52.14 30.10 52.14L30.10 52.14Q29.25 52.14 28.82 51.62Q28.39 51.11 28.39 50.17L28.39 50.17L28.39 45.58L27.04 45.58L27.04 44.60L28.39 44.60L28.39 42.81ZM36.09 44.56L36.09 45.74Q35.80 45.69 35.47 45.69L35.47 45.69Q34.22 45.69 33.78 46.75L33.78 46.75L33.78 52L32.51 52L32.51 44.60L33.74 44.60L33.76 45.46Q34.39 44.47 35.53 44.47L35.53 44.47Q35.90 44.47 36.09 44.56L36.09 44.56ZM38.62 44.60L38.62 52L37.36 52L37.36 44.60L38.62 44.60ZM37.26 42.64L37.26 42.64Q37.26 42.33 37.44 42.12Q37.63 41.91 38.00 41.91Q38.37 41.91 38.56 42.12Q38.75 42.33 38.75 42.64Q38.75 42.95 38.56 43.15Q38.37 43.36 38.00 43.36Q37.63 43.36 37.44 43.15Q37.26 42.95 37.26 42.64ZM46.91 48.27L46.91 48.38Q46.91 50.08 46.13 51.11Q45.35 52.14 44.04 52.14L44.04 52.14Q42.64 52.14 41.87 51.15L41.87 51.15L41.81 52L40.65 52L40.65 41.50L41.91 41.50L41.91 45.42Q42.68 44.47 44.02 44.47Q45.37 44.47 46.14 45.49Q46.91 46.50 46.91 48.27L46.91 48.27ZM45.64 48.24L45.64 48.24Q45.64 46.95 45.15 46.24Q44.65 45.54 43.71 45.54L43.71 45.54Q42.46 45.54 41.91 46.70L41.91 46.70L41.91 49.90Q42.49 51.06 43.72 51.06L43.72 51.06Q44.63 51.06 45.14 50.36Q45.64 49.66 45.64 48.24ZM53.10 52L53.07 51.27Q52.33 52.14 50.90 52.14L50.90 52.14Q49.72 52.14 49.10 51.45Q48.48 50.76 48.47 49.42L48.47 49.42L48.47 44.60L49.74 44.60L49.74 49.38Q49.74 51.06 51.11 51.06L51.11 51.06Q52.56 51.06 53.03 49.98L53.03 49.98L53.03 44.60L54.30 44.60L54.30 52L53.10 52ZM56.67 42.81L57.94 42.81L57.94 44.60L59.32 44.60L59.32 45.58L57.94 45.58L57.94 50.17Q57.94 50.61 58.12 50.83Q58.30 51.06 58.75 51.06L58.75 51.06Q58.97 51.06 59.35 50.97L59.35 50.97L59.35 52Q58.85 52.14 58.38 52.14L58.38 52.14Q57.53 52.14 57.10 51.62Q56.67 51.11 56.67 50.17L56.67 50.17L56.67 45.58L55.32 45.58L55.32 44.60L56.67 44.60L56.67 42.81ZM63.86 52.14L63.86 52.14Q62.36 52.14 61.42 51.15Q60.47 50.16 60.47 48.51L60.47 48.51L60.47 48.27Q60.47 47.17 60.89 46.31Q61.31 45.44 62.07 44.96Q62.82 44.47 63.71 44.47L63.71 44.47Q65.15 44.47 65.95 45.42Q66.75 46.37 66.75 48.14L66.75 48.14L66.75 48.66L61.74 48.66Q61.76 49.76 62.38 50.43Q62.99 51.10 63.93 51.10L63.93 51.10Q64.60 51.10 65.07 50.83Q65.53 50.56 65.88 50.11L65.88 50.11L66.65 50.71Q65.72 52.14 63.86 52.14ZM63.71 45.51L63.71 45.51Q62.94 45.51 62.42 46.06Q61.90 46.62 61.78 47.63L61.78 47.63L65.48 47.63L65.48 47.53Q65.43 46.57 64.96 46.04Q64.50 45.51 63.71 45.51ZM69.92 47.44L69.92 46.41L70.87 46.41Q71.76 46.39 72.28 45.94Q72.79 45.48 72.79 44.70L72.79 44.70Q72.79 42.95 71.05 42.95L71.05 42.95Q70.23 42.95 69.74 43.42Q69.25 43.89 69.25 44.66L69.25 44.66L67.98 44.66Q67.98 43.48 68.85 42.69Q69.71 41.91 71.05 41.91L71.05 41.91Q72.46 41.91 73.25 42.66Q74.05 43.40 74.05 44.73L74.05 44.73Q74.05 45.38 73.63 45.98Q73.21 46.59 72.49 46.89L72.49 46.89Q73.31 47.15 73.76 47.75Q74.21 48.36 74.21 49.22L74.21 49.22Q74.21 50.56 73.33 51.35Q72.46 52.14 71.05 52.14Q69.65 52.14 68.77 51.38Q67.90 50.62 67.90 49.38L67.90 49.38L69.17 49.38Q69.17 50.16 69.68 50.63Q70.19 51.10 71.05 51.10L71.05 51.10Q71.97 51.10 72.46 50.63Q72.94 50.15 72.94 49.25L72.94 49.25Q72.94 48.38 72.41 47.92Q71.87 47.45 70.87 47.44L70.87 47.44L69.92 47.44ZM76.03 51.34L76.03 51.34Q76.03 51.01 76.23 50.79Q76.42 50.57 76.81 50.57Q77.20 50.57 77.40 50.79Q77.60 51.01 77.60 51.34L77.60 51.34Q77.60 51.65 77.40 51.86Q77.20 52.08 76.81 52.08Q76.42 52.08 76.23 51.86Q76.03 51.65 76.03 51.34ZM76.04 45.30L76.04 45.30Q76.04 44.97 76.23 44.75Q76.43 44.54 76.82 44.54Q77.21 44.54 77.41 44.75Q77.61 44.97 77.61 45.30L77.61 45.30Q77.61 45.62 77.41 45.83Q77.21 46.04 76.82 46.04Q76.43 46.04 76.23 45.83Q76.04 45.62 76.04 45.30ZM89.73 42.05L89.73 43.13L86.53 43.13L86.53 52L85.22 52L85.22 43.13L82.03 43.13L82.03 42.05L89.73 42.05ZM91.09 44.60L92.94 50.15L94.66 44.60L96.01 44.60L93.04 53.14Q92.35 54.99 90.84 54.99L90.84 54.99L90.60 54.97L90.13 54.88L90.13 53.85L90.47 53.88Q91.12 53.88 91.48 53.62Q91.83 53.36 92.07 52.67L92.07 52.67L92.35 51.92L89.71 44.60L91.09 44.60ZM103.39 48.27L103.39 48.38Q103.39 50.07 102.62 51.10Q101.84 52.14 100.52 52.14L100.52 52.14Q99.18 52.14 98.40 51.28L98.40 51.28L98.40 54.84L97.14 54.84L97.14 44.60L98.29 44.60L98.36 45.42Q99.13 44.47 100.50 44.47L100.50 44.47Q101.84 44.47 102.61 45.47Q103.39 46.48 103.39 48.27L103.39 48.27ZM102.12 48.24L102.12 48.24Q102.12 46.99 101.59 46.26Q101.06 45.54 100.13 45.54L100.13 45.54Q98.98 45.54 98.40 46.56L98.40 46.56L98.40 50.09Q98.97 51.10 100.14 51.10L100.14 51.10Q101.05 51.10 101.59 50.38Q102.12 49.66 102.12 48.24ZM108.06 52.14L108.06 52.14Q106.56 52.14 105.62 51.15Q104.67 50.16 104.67 48.51L104.67 48.51L104.67 48.27Q104.67 47.17 105.09 46.31Q105.51 45.44 106.27 44.96Q107.02 44.47 107.91 44.47L107.91 44.47Q109.35 44.47 110.15 45.42Q110.95 46.37 110.95 48.14L110.95 48.14L110.95 48.66L105.94 48.66Q105.96 49.76 106.58 50.43Q107.19 51.10 108.13 51.10L108.13 51.10Q108.80 51.10 109.27 50.83Q109.73 50.56 110.08 50.11L110.08 50.11L110.85 50.71Q109.92 52.14 108.06 52.14ZM107.91 45.51L107.91 45.51Q107.14 45.51 106.62 46.06Q106.10 46.62 105.98 47.63L105.98 47.63L109.68 47.63L109.68 47.53Q109.63 46.57 109.16 46.04Q108.70 45.51 107.91 45.51Z"/>
            </g>
        </g>
        <g id="c5f9bbbc8b61432693ca908726a9a599" transform="translate(0, 96) ">
            <path fill="#FFFFFFFF" stroke="#323232FF" stroke-width="1.5" d="M0 0L0 64L250 64L250 0L0 0Z"/>    
            <g transform="matrix(1.00, 0.00, 0.00, 1.00, 0.00, 0.00)">
                <path fill="#000000FF" stroke="#000000FF" stroke-linecap="round" stroke-linejoin="round" stroke-width="0.1"   d="M12.05 15.76L12.05 18.66L14.82 18.66L14.82 19.86L12.05 19.86L12.05 23.00L10.77 23.00L10.77 19.86L8.00 19.86L8.00 18.66L10.77 18.66L10.77 15.76L12.05 15.76ZM19.49 20.32L19.49 20.23Q19.49 19.15 19.92 18.28Q20.34 17.41 21.11 16.94Q21.87 16.47 22.85 16.47L22.85 16.47Q24.36 16.47 25.29 17.51Q26.22 18.56 26.22 20.29L26.22 20.29L26.22 20.38Q26.22 21.46 25.81 22.32Q25.40 23.18 24.63 23.66Q23.86 24.14 22.86 24.14L22.86 24.14Q21.36 24.14 20.42 23.09Q19.49 22.04 19.49 20.32L19.49 20.32ZM20.76 20.38L20.76 20.38Q20.76 21.61 21.33 22.36Q21.90 23.10 22.86 23.10L22.86 23.10Q23.82 23.10 24.39 22.35Q24.96 21.59 24.96 20.23L24.96 20.23Q24.96 19.02 24.38 18.26Q23.80 17.51 22.85 17.51L22.85 17.51Q21.91 17.51 21.34 18.25Q20.76 19.00 20.76 20.38ZM34.06 20.27L34.06 20.38Q34.06 22.07 33.29 23.10Q32.51 24.14 31.19 24.14L31.19 24.14Q29.85 24.14 29.07 23.28L29.07 23.28L29.07 26.84L27.81 26.84L27.81 16.60L28.96 16.60L29.03 17.42Q29.80 16.47 31.17 16.47L31.17 16.47Q32.51 16.47 33.28 17.47Q34.06 18.48 34.06 20.27L34.06 20.27ZM32.79 20.24L32.79 20.24Q32.79 18.99 32.26 18.26Q31.73 17.54 30.80 17.54L30.80 17.54Q29.65 17.54 29.07 18.56L29.07 18.56L29.07 22.09Q29.64 23.10 30.81 23.10L30.81 23.10Q31.72 23.10 32.26 22.38Q32.79 21.66 32.79 20.24ZM38.73 24.14L38.73 24.14Q37.23 24.14 36.29 23.15Q35.34 22.16 35.34 20.51L35.34 20.51L35.34 20.27Q35.34 19.17 35.76 18.31Q36.18 17.44 36.94 16.96Q37.69 16.47 38.58 16.47L38.58 16.47Q40.02 16.47 40.82 17.42Q41.62 18.37 41.62 20.14L41.62 20.14L41.62 20.66L36.61 20.66Q36.63 21.76 37.25 22.43Q37.86 23.10 38.80 23.10L38.80 23.10Q39.47 23.10 39.94 22.83Q40.40 22.56 40.75 22.11L40.75 22.11L41.52 22.71Q40.59 24.14 38.73 24.14ZM38.58 17.51L38.58 17.51Q37.81 17.51 37.29 18.06Q36.77 18.62 36.65 19.63L36.65 19.63L40.35 19.63L40.35 19.53Q40.30 18.57 39.83 18.04Q39.37 17.51 38.58 17.51ZM46.66 16.56L46.66 17.74Q46.37 17.69 46.03 17.69L46.03 17.69Q44.79 17.69 44.35 18.75L44.35 18.75L44.35 24L43.08 24L43.08 16.60L44.31 16.60L44.33 17.46Q44.95 16.47 46.10 16.47L46.10 16.47Q46.46 16.47 46.66 16.56L46.66 16.56ZM53.44 24L52.11 24Q52.00 23.78 51.93 23.22L51.93 23.22Q51.05 24.14 49.83 24.14L49.83 24.14Q48.73 24.14 48.03 23.52Q47.33 22.90 47.33 21.95L47.33 21.95Q47.33 20.79 48.21 20.15Q49.09 19.52 50.68 19.52L50.68 19.52L51.91 19.52L51.91 18.93Q51.91 18.27 51.52 17.88Q51.12 17.49 50.35 17.49L50.35 17.49Q49.67 17.49 49.21 17.83Q48.75 18.17 48.75 18.65L48.75 18.65L47.48 18.65Q47.48 18.10 47.88 17.58Q48.27 17.07 48.94 16.77Q49.62 16.47 50.42 16.47L50.42 16.47Q51.70 16.47 52.43 17.11Q53.15 17.75 53.18 18.87L53.18 18.87L53.18 22.27Q53.18 23.29 53.44 23.89L53.44 23.89L53.44 24ZM50.01 23.04L50.01 23.04Q50.61 23.04 51.14 22.73Q51.67 22.42 51.91 21.93L51.91 21.93L51.91 20.41L50.92 20.41Q48.60 20.41 48.60 21.77L48.60 21.77Q48.60 22.37 48.99 22.70Q49.39 23.04 50.01 23.04ZM55.61 14.81L56.88 14.81L56.88 16.60L58.26 16.60L58.26 17.58L56.88 17.58L56.88 22.17Q56.88 22.61 57.06 22.83Q57.25 23.06 57.69 23.06L57.69 23.06Q57.91 23.06 58.29 22.97L58.29 22.97L58.29 24Q57.79 24.14 57.32 24.14L57.32 24.14Q56.47 24.14 56.04 23.62Q55.61 23.11 55.61 22.17L55.61 22.17L55.61 17.58L54.26 17.58L54.26 16.60L55.61 16.60L55.61 14.81ZM61.11 16.60L61.11 24L59.84 24L59.84 16.60L61.11 16.60ZM59.74 14.64L59.74 14.64Q59.74 14.33 59.93 14.12Q60.12 13.91 60.49 13.91Q60.85 13.91 61.05 14.12Q61.24 14.33 61.24 14.64Q61.24 14.95 61.05 15.15Q60.85 15.36 60.49 15.36Q60.12 15.36 59.93 15.15Q59.74 14.95 59.74 14.64ZM62.80 20.32L62.80 20.23Q62.80 19.15 63.22 18.28Q63.65 17.41 64.41 16.94Q65.17 16.47 66.15 16.47L66.15 16.47Q67.66 16.47 68.60 17.51Q69.53 18.56 69.53 20.29L69.53 20.29L69.53 20.38Q69.53 21.46 69.12 22.32Q68.70 23.18 67.93 23.66Q67.16 24.14 66.17 24.14L66.17 24.14Q64.66 24.14 63.73 23.09Q62.80 22.04 62.80 20.32L62.80 20.32ZM64.07 20.38L64.07 20.38Q64.07 21.61 64.64 22.36Q65.21 23.10 66.17 23.10L66.17 23.10Q67.13 23.10 67.70 22.35Q68.26 21.59 68.26 20.23L68.26 20.23Q68.26 19.02 67.69 18.26Q67.11 17.51 66.15 17.51L66.15 17.51Q65.22 17.51 64.64 18.25Q64.07 19.00 64.07 20.38ZM71.12 16.60L72.31 16.60L72.35 17.53Q73.20 16.47 74.57 16.47L74.57 16.47Q76.91 16.47 76.93 19.11L76.93 19.11L76.93 24L75.67 24L75.67 19.11Q75.66 18.31 75.30 17.92Q74.94 17.54 74.18 17.54L74.18 17.54Q73.57 17.54 73.10 17.87Q72.64 18.20 72.38 18.73L72.38 18.73L72.38 24L71.12 24L71.12 16.60ZM82.87 14.00L82.87 24L81.59 24L81.59 15.57L79.04 16.51L79.04 15.36L82.67 14.00L82.87 14.00ZM86.65 19.96L86.65 19.96Q86.65 18.42 87.07 16.99Q87.48 15.57 88.30 14.41Q89.12 13.25 90.00 12.77L90.00 12.77L90.26 13.60Q89.26 14.37 88.63 15.94Q87.99 17.51 87.92 19.46L87.92 19.46L87.92 20.04Q87.92 22.68 88.88 24.62L88.88 24.62Q89.46 25.78 90.26 26.44L90.26 26.44L90.00 27.21Q89.09 26.71 88.27 25.52L88.27 25.52Q86.65 23.19 86.65 19.96ZM97.73 20.27L97.73 20.38Q97.73 22.07 96.96 23.10Q96.19 24.14 94.87 24.14L94.87 24.14Q93.52 24.14 92.75 23.28L92.75 23.28L92.75 26.84L91.49 26.84L91.49 16.60L92.64 16.60L92.70 17.42Q93.48 16.47 94.85 16.47L94.85 16.47Q96.18 16.47 96.96 17.47Q97.73 18.48 97.73 20.27L97.73 20.27ZM96.47 20.24L96.47 20.24Q96.47 18.99 95.94 18.26Q95.40 17.54 94.47 17.54L94.47 17.54Q93.33 17.54 92.75 18.56L92.75 18.56L92.75 22.09Q93.32 23.10 94.49 23.10L94.49 23.10Q95.40 23.10 95.93 22.38Q96.47 21.66 96.47 20.24ZM105.23 24L103.91 24Q103.80 23.78 103.73 23.22L103.73 23.22Q102.85 24.14 101.62 24.14L101.62 24.14Q100.53 24.14 99.83 23.52Q99.13 22.90 99.13 21.95L99.13 21.95Q99.13 20.79 100.01 20.15Q100.89 19.52 102.48 19.52L102.48 19.52L103.71 19.52L103.71 18.93Q103.71 18.27 103.31 17.88Q102.92 17.49 102.14 17.49L102.14 17.49Q101.47 17.49 101.01 17.83Q100.55 18.17 100.55 18.65L100.55 18.65L99.28 18.65Q99.28 18.10 99.67 17.58Q100.07 17.07 100.74 16.77Q101.41 16.47 102.22 16.47L102.22 16.47Q103.50 16.47 104.22 17.11Q104.95 17.75 104.97 18.87L104.97 18.87L104.97 22.27Q104.97 23.29 105.23 23.89L105.23 23.89L105.23 24ZM101.81 23.04L101.81 23.04Q102.40 23.04 102.94 22.73Q103.47 22.42 103.71 21.93L103.71 21.93L103.71 20.41L102.72 20.41Q100.39 20.41 100.39 21.77L100.39 21.77Q100.39 22.37 100.79 22.70Q101.19 23.04 101.81 23.04ZM110.53 16.56L110.53 17.74Q110.24 17.69 109.91 17.69L109.91 17.69Q108.67 17.69 108.22 18.75L108.22 18.75L108.22 24L106.96 24L106.96 16.60L108.19 16.60L108.21 17.46Q108.83 16.47 109.97 16.47L109.97 16.47Q110.34 16.47 110.53 16.56L110.53 16.56ZM117.31 24L115.99 24Q115.88 23.78 115.81 23.22L115.81 23.22Q114.93 24.14 113.70 24.14L113.70 24.14Q112.61 24.14 111.91 23.52Q111.21 22.90 111.21 21.95L111.21 21.95Q111.21 20.79 112.09 20.15Q112.96 19.52 114.56 19.52L114.56 19.52L115.79 19.52L115.79 18.93Q115.79 18.27 115.39 17.88Q115.00 17.49 114.22 17.49L114.22 17.49Q113.55 17.49 113.09 17.83Q112.63 18.17 112.63 18.65L112.63 18.65L111.36 18.65Q111.36 18.10 111.75 17.58Q112.14 17.07 112.82 16.77Q113.49 16.47 114.30 16.47L114.30 16.47Q115.58 16.47 116.30 17.11Q117.03 17.75 117.05 18.87L117.05 18.87L117.05 22.27Q117.05 23.29 117.31 23.89L117.31 23.89L117.31 24ZM113.89 23.04L113.89 23.04Q114.48 23.04 115.02 22.73Q115.55 22.42 115.79 21.93L115.79 21.93L115.79 20.41L114.80 20.41Q112.47 20.41 112.47 21.77L112.47 21.77Q112.47 22.37 112.87 22.70Q113.27 23.04 113.89 23.04ZM119.03 16.60L120.22 16.60L120.26 17.42Q121.07 16.47 122.45 16.47L122.45 16.47Q124.00 16.47 124.57 17.66L124.57 17.66Q124.93 17.12 125.53 16.79Q126.12 16.47 126.92 16.47L126.92 16.47Q129.36 16.47 129.40 19.04L129.40 19.04L129.40 24L128.13 24L128.13 19.12Q128.13 18.33 127.77 17.93Q127.41 17.54 126.55 17.54L126.55 17.54Q125.85 17.54 125.39 17.96Q124.92 18.38 124.85 19.09L124.85 19.09L124.85 24L123.57 24L123.57 19.15Q123.57 17.54 122.00 17.54L122.00 17.54Q120.75 17.54 120.29 18.60L120.29 18.60L120.29 24L119.03 24L119.03 16.60ZM135.61 22.04L135.61 22.04Q135.61 21.53 135.23 21.24Q134.84 20.96 133.88 20.75Q132.92 20.55 132.35 20.26Q131.79 19.97 131.52 19.58Q131.25 19.18 131.25 18.63L131.25 18.63Q131.25 17.72 132.02 17.10Q132.79 16.47 133.99 16.47L133.99 16.47Q135.24 16.47 136.03 17.12Q136.81 17.77 136.81 18.78L136.81 18.78L135.54 18.78Q135.54 18.26 135.10 17.88Q134.66 17.51 133.99 17.51L133.99 17.51Q133.29 17.51 132.91 17.81Q132.52 18.11 132.52 18.59L132.52 18.59Q132.52 19.05 132.88 19.28Q133.24 19.52 134.19 19.73Q135.13 19.94 135.72 20.23Q136.31 20.53 136.59 20.94Q136.88 21.35 136.88 21.95L136.88 21.95Q136.88 22.94 136.08 23.54Q135.29 24.14 134.03 24.14L134.03 24.14Q133.14 24.14 132.45 23.82Q131.77 23.51 131.38 22.94Q131.00 22.38 131.00 21.72L131.00 21.72L132.26 21.72Q132.30 22.36 132.77 22.73Q133.25 23.10 134.03 23.10L134.03 23.10Q134.74 23.10 135.18 22.81Q135.61 22.52 135.61 22.04ZM141.44 20.03L141.44 20.03Q141.44 21.55 141.04 22.95Q140.64 24.35 139.82 25.53Q139.00 26.71 138.09 27.21L138.09 27.21L137.83 26.44Q138.88 25.63 139.52 23.94Q140.16 22.24 140.17 20.17L140.17 20.17L140.17 19.95Q140.17 18.51 139.87 17.28Q139.57 16.04 139.03 15.07Q138.50 14.09 137.83 13.54L137.83 13.54L138.09 12.77Q139.00 13.27 139.81 14.44Q140.63 15.61 141.04 17.01Q141.44 18.42 141.44 20.03ZM143.35 23.34L143.35 23.34Q143.35 23.01 143.55 22.79Q143.74 22.57 144.13 22.57Q144.52 22.57 144.72 22.79Q144.92 23.01 144.92 23.34L144.92 23.34Q144.92 23.65 144.72 23.86Q144.52 24.08 144.13 24.08Q143.74 24.08 143.55 23.86Q143.35 23.65 143.35 23.34ZM143.36 17.30L143.36 17.30Q143.36 16.97 143.55 16.75Q143.75 16.54 144.14 16.54Q144.53 16.54 144.73 16.75Q144.93 16.97 144.93 17.30L144.93 17.30Q144.93 17.62 144.73 17.83Q144.53 18.04 144.14 18.04Q143.75 18.04 143.55 17.83Q143.36 17.62 143.36 17.30ZM153.82 16.56L153.82 17.74Q153.54 17.69 153.20 17.69L153.20 17.69Q151.96 17.69 151.51 18.75L151.51 18.75L151.51 24L150.25 24L150.25 16.60L151.48 16.60L151.50 17.46Q152.12 16.47 153.26 16.47L153.26 16.47Q153.63 16.47 153.82 16.56L153.82 16.56ZM157.92 24.14L157.92 24.14Q156.42 24.14 155.48 23.15Q154.53 22.16 154.53 20.51L154.53 20.51L154.53 20.27Q154.53 19.17 154.95 18.31Q155.38 17.44 156.13 16.96Q156.89 16.47 157.77 16.47L157.77 16.47Q159.21 16.47 160.01 17.42Q160.81 18.37 160.81 20.14L160.81 20.14L160.81 20.66L155.80 20.66Q155.83 21.76 156.44 22.43Q157.05 23.10 157.99 23.10L157.99 23.10Q158.66 23.10 159.13 22.83Q159.59 22.56 159.94 22.11L159.94 22.11L160.71 22.71Q159.78 24.14 157.92 24.14ZM157.77 17.51L157.77 17.51Q157.00 17.51 156.48 18.06Q155.96 18.62 155.84 19.63L155.84 19.63L159.54 19.63L159.54 19.53Q159.49 18.57 159.03 18.04Q158.56 17.51 157.77 17.51ZM162.72 14.81L163.99 14.81L163.99 16.60L165.37 16.60L165.37 17.58L163.99 17.58L163.99 22.17Q163.99 22.61 164.17 22.83Q164.36 23.06 164.80 23.06L164.80 23.06Q165.02 23.06 165.40 22.97L165.40 22.97L165.40 24Q164.90 24.14 164.43 24.14L164.43 24.14Q163.58 24.14 163.15 23.62Q162.72 23.11 162.72 22.17L162.72 22.17L162.72 17.58L161.38 17.58L161.38 16.60L162.72 16.60L162.72 14.81ZM171.44 24L171.41 23.27Q170.67 24.14 169.25 24.14L169.25 24.14Q168.06 24.14 167.44 23.45Q166.83 22.76 166.82 21.42L166.82 21.42L166.82 16.60L168.08 16.60L168.08 21.38Q168.08 23.06 169.45 23.06L169.45 23.06Q170.90 23.06 171.38 21.98L171.38 21.98L171.38 16.60L172.64 16.60L172.64 24L171.44 24ZM178.14 16.56L178.14 17.74Q177.85 17.69 177.52 17.69L177.52 17.69Q176.27 17.69 175.83 18.75L175.83 18.75L175.83 24L174.56 24L174.56 16.60L175.79 16.60L175.81 17.46Q176.44 16.47 177.58 16.47L177.58 16.47Q177.95 16.47 178.14 16.56L178.14 16.56ZM179.30 16.60L180.50 16.60L180.54 17.53Q181.39 16.47 182.75 16.47L182.75 16.47Q185.10 16.47 185.12 19.11L185.12 19.11L185.12 24L183.85 24L183.85 19.11Q183.85 18.31 183.49 17.92Q183.13 17.54 182.37 17.54L182.37 17.54Q181.75 17.54 181.29 17.87Q180.83 18.20 180.57 18.73L180.57 18.73L180.57 24L179.30 24L179.30 16.60ZM194.10 14.05L194.10 15.13L190.90 15.13L190.90 24L189.60 24L189.60 15.13L186.40 15.13L186.40 14.05L194.10 14.05ZM195.46 16.60L197.31 22.15L199.03 16.60L200.38 16.60L197.41 25.14Q196.72 26.99 195.21 26.99L195.21 26.99L194.98 26.97L194.50 26.88L194.50 25.85L194.85 25.88Q195.49 25.88 195.85 25.62Q196.21 25.36 196.44 24.67L196.44 24.67L196.72 23.92L194.08 16.60L195.46 16.60ZM207.76 20.27L207.76 20.38Q207.76 22.07 206.99 23.10Q206.21 24.14 204.89 24.14L204.89 24.14Q203.55 24.14 202.78 23.28L202.78 23.28L202.78 26.84L201.51 26.84L201.51 16.60L202.67 16.60L202.73 17.42Q203.50 16.47 204.87 16.47L204.87 16.47Q206.21 16.47 206.98 17.47Q207.76 18.48 207.76 20.27L207.76 20.27ZM206.49 20.24L206.49 20.24Q206.49 18.99 205.96 18.26Q205.43 17.54 204.50 17.54L204.50 17.54Q203.35 17.54 202.78 18.56L202.78 18.56L202.78 22.09Q203.34 23.10 204.51 23.10L204.51 23.10Q205.42 23.10 205.96 22.38Q206.49 21.66 206.49 20.24ZM212.43 24.14L212.43 24.14Q210.93 24.14 209.99 23.15Q209.04 22.16 209.04 20.51L209.04 20.51L209.04 20.27Q209.04 19.17 209.46 18.31Q209.88 17.44 210.64 16.96Q211.40 16.47 212.28 16.47L212.28 16.47Q213.72 16.47 214.52 17.42Q215.32 18.37 215.32 20.14L215.32 20.14L215.32 20.66L210.31 20.66Q210.34 21.76 210.95 22.43Q211.56 23.10 212.50 23.10L212.50 23.10Q213.17 23.10 213.64 22.83Q214.10 22.56 214.45 22.11L214.45 22.11L215.22 22.71Q214.29 24.14 212.43 24.14ZM212.28 17.51L212.28 17.51Q211.51 17.51 210.99 18.06Q210.47 18.62 210.35 19.63L210.35 19.63L214.05 19.63L214.05 19.53Q214 18.57 213.54 18.04Q213.07 17.51 212.28 17.51Z"/>
                <path fill="#000000FF" stroke="#000000FF" stroke-linecap="round" stroke-linejoin="round" stroke-width="0.1"   d=""/>
                <path fill="#000000FF" stroke="#000000FF" stroke-linecap="round" stroke-linejoin="round" stroke-width="0.1"   d=""/>
                <path fill="#000000FF" stroke="#000000FF" stroke-linecap="round" stroke-linejoin="round" stroke-width="0.1"   d="M12.05 29.76L12.05 32.66L14.82 32.66L14.82 33.86L12.05 33.86L12.05 37.00L10.77 37.00L10.77 33.86L8.00 33.86L8.00 32.66L10.77 32.66L10.77 29.76L12.05 29.76ZM19.49 34.32L19.49 34.23Q19.49 33.15 19.92 32.28Q20.34 31.41 21.11 30.94Q21.87 30.47 22.85 30.47L22.85 30.47Q24.36 30.47 25.29 31.51Q26.22 32.56 26.22 34.29L26.22 34.29L26.22 34.38Q26.22 35.46 25.81 36.32Q25.40 37.18 24.63 37.66Q23.86 38.14 22.86 38.14L22.86 38.14Q21.36 38.14 20.42 37.09Q19.49 36.04 19.49 34.32L19.49 34.32ZM20.76 34.38L20.76 34.38Q20.76 35.61 21.33 36.36Q21.90 37.10 22.86 37.10L22.86 37.10Q23.82 37.10 24.39 36.35Q24.96 35.59 24.96 34.23L24.96 34.23Q24.96 33.02 24.38 32.26Q23.80 31.51 22.85 31.51L22.85 31.51Q21.91 31.51 21.34 32.25Q20.76 33.00 20.76 34.38ZM34.06 34.27L34.06 34.38Q34.06 36.07 33.29 37.10Q32.51 38.14 31.19 38.14L31.19 38.14Q29.85 38.14 29.07 37.28L29.07 37.28L29.07 40.84L27.81 40.84L27.81 30.60L28.96 30.60L29.03 31.42Q29.80 30.47 31.17 30.47L31.17 30.47Q32.51 30.47 33.28 31.47Q34.06 32.48 34.06 34.27L34.06 34.27ZM32.79 34.24L32.79 34.24Q32.79 32.99 32.26 32.26Q31.73 31.54 30.80 31.54L30.80 31.54Q29.65 31.54 29.07 32.56L29.07 32.56L29.07 36.09Q29.64 37.10 30.81 37.10L30.81 37.10Q31.72 37.10 32.26 36.38Q32.79 35.66 32.79 34.24ZM38.73 38.14L38.73 38.14Q37.23 38.14 36.29 37.15Q35.34 36.16 35.34 34.51L35.34 34.51L35.34 34.27Q35.34 33.17 35.76 32.31Q36.18 31.44 36.94 30.96Q37.69 30.47 38.58 30.47L38.58 30.47Q40.02 30.47 40.82 31.42Q41.62 32.37 41.62 34.14L41.62 34.14L41.62 34.66L36.61 34.66Q36.63 35.76 37.25 36.43Q37.86 37.10 38.80 37.10L38.80 37.10Q39.47 37.10 39.94 36.83Q40.40 36.56 40.75 36.11L40.75 36.11L41.52 36.71Q40.59 38.14 38.73 38.14ZM38.58 31.51L38.58 31.51Q37.81 31.51 37.29 32.06Q36.77 32.62 36.65 33.63L36.65 33.63L40.35 33.63L40.35 33.53Q40.30 32.57 39.83 32.04Q39.37 31.51 38.58 31.51ZM46.66 30.56L46.66 31.74Q46.37 31.69 46.03 31.69L46.03 31.69Q44.79 31.69 44.35 32.75L44.35 32.75L44.35 38L43.08 38L43.08 30.60L44.31 30.60L44.33 31.46Q44.95 30.47 46.10 30.47L46.10 30.47Q46.46 30.47 46.66 30.56L46.66 30.56ZM53.44 38L52.11 38Q52.00 37.78 51.93 37.22L51.93 37.22Q51.05 38.14 49.83 38.14L49.83 38.14Q48.73 38.14 48.03 37.52Q47.33 36.90 47.33 35.95L47.33 35.95Q47.33 34.79 48.21 34.15Q49.09 33.52 50.68 33.52L50.68 33.52L51.91 33.52L51.91 32.93Q51.91 32.27 51.52 31.88Q51.12 31.49 50.35 31.49L50.35 31.49Q49.67 31.49 49.21 31.83Q48.75 32.17 48.75 32.65L48.75 32.65L47.48 32.65Q47.48 32.10 47.88 31.58Q48.27 31.07 48.94 30.77Q49.62 30.47 50.42 30.47L50.42 30.47Q51.70 30.47 52.43 31.11Q53.15 31.75 53.18 32.87L53.18 32.87L53.18 36.27Q53.18 37.29 53.44 37.89L53.44 37.89L53.44 38ZM50.01 37.04L50.01 37.04Q50.61 37.04 51.14 36.73Q51.67 36.42 51.91 35.93L51.91 35.93L51.91 34.41L50.92 34.41Q48.60 34.41 48.60 35.77L48.60 35.77Q48.60 36.37 48.99 36.70Q49.39 37.04 50.01 37.04ZM55.61 28.81L56.88 28.81L56.88 30.60L58.26 30.60L58.26 31.58L56.88 31.58L56.88 36.17Q56.88 36.61 57.06 36.83Q57.25 37.06 57.69 37.06L57.69 37.06Q57.91 37.06 58.29 36.97L58.29 36.97L58.29 38Q57.79 38.14 57.32 38.14L57.32 38.14Q56.47 38.14 56.04 37.62Q55.61 37.11 55.61 36.17L55.61 36.17L55.61 31.58L54.26 31.58L54.26 30.60L55.61 30.60L55.61 28.81ZM61.11 30.60L61.11 38L59.84 38L59.84 30.60L61.11 30.60ZM59.74 28.64L59.74 28.64Q59.74 28.33 59.93 28.12Q60.12 27.91 60.49 27.91Q60.85 27.91 61.05 28.12Q61.24 28.33 61.24 28.64Q61.24 28.95 61.05 29.15Q60.85 29.36 60.49 29.36Q60.12 29.36 59.93 29.15Q59.74 28.95 59.74 28.64ZM62.80 34.32L62.80 34.23Q62.80 33.15 63.22 32.28Q63.65 31.41 64.41 30.94Q65.17 30.47 66.15 30.47L66.15 30.47Q67.66 30.47 68.60 31.51Q69.53 32.56 69.53 34.29L69.53 34.29L69.53 34.38Q69.53 35.46 69.12 36.32Q68.70 37.18 67.93 37.66Q67.16 38.14 66.17 38.14L66.17 38.14Q64.66 38.14 63.73 37.09Q62.80 36.04 62.80 34.32L62.80 34.32ZM64.07 34.38L64.07 34.38Q64.07 35.61 64.64 36.36Q65.21 37.10 66.17 37.10L66.17 37.10Q67.13 37.10 67.70 36.35Q68.26 35.59 68.26 34.23L68.26 34.23Q68.26 33.02 67.69 32.26Q67.11 31.51 66.15 31.51L66.15 31.51Q65.22 31.51 64.64 32.25Q64.07 33.00 64.07 34.38ZM71.12 30.60L72.31 30.60L72.35 31.53Q73.20 30.47 74.57 30.47L74.57 30.47Q76.91 30.47 76.93 33.11L76.93 33.11L76.93 38L75.67 38L75.67 33.11Q75.66 32.31 75.30 31.92Q74.94 31.54 74.18 31.54L74.18 31.54Q73.57 31.54 73.10 31.87Q72.64 32.20 72.38 32.73L72.38 32.73L72.38 38L71.12 38L71.12 30.60ZM85.23 36.97L85.23 38L78.71 38L78.71 37.09L82.16 33.26Q82.92 32.39 83.21 31.85Q83.50 31.31 83.50 30.73L83.50 30.73Q83.50 29.95 83.03 29.45Q82.56 28.95 81.77 28.95L81.77 28.95Q80.83 28.95 80.31 29.49Q79.78 30.02 79.78 30.98L79.78 30.98L78.52 30.98Q78.52 29.61 79.40 28.76Q80.29 27.91 81.77 27.91L81.77 27.91Q83.16 27.91 83.97 28.64Q84.77 29.37 84.77 30.58L84.77 30.58Q84.77 32.05 82.90 34.08L82.90 34.08L80.23 36.97L85.23 36.97ZM86.65 33.96L86.65 33.96Q86.65 32.42 87.07 30.99Q87.48 29.57 88.30 28.41Q89.12 27.25 90.00 26.77L90.00 26.77L90.26 27.60Q89.26 28.37 88.63 29.94Q87.99 31.51 87.92 33.46L87.92 33.46L87.92 34.04Q87.92 36.68 88.88 38.62L88.88 38.62Q89.46 39.78 90.26 40.44L90.26 40.44L90.00 41.21Q89.09 40.71 88.27 39.52L88.27 39.52Q86.65 37.19 86.65 33.96ZM97.73 34.27L97.73 34.38Q97.73 36.07 96.96 37.10Q96.19 38.14 94.87 38.14L94.87 38.14Q93.52 38.14 92.75 37.28L92.75 37.28L92.75 40.84L91.49 40.84L91.49 30.60L92.64 30.60L92.70 31.42Q93.48 30.47 94.85 30.47L94.85 30.47Q96.18 30.47 96.96 31.47Q97.73 32.48 97.73 34.27L97.73 34.27ZM96.47 34.24L96.47 34.24Q96.47 32.99 95.94 32.26Q95.40 31.54 94.47 31.54L94.47 31.54Q93.33 31.54 92.75 32.56L92.75 32.56L92.75 36.09Q93.32 37.10 94.49 37.10L94.49 37.10Q95.40 37.10 95.93 36.38Q96.47 35.66 96.47 34.24ZM105.23 38L103.91 38Q103.80 37.78 103.73 37.22L103.73 37.22Q102.85 38.14 101.62 38.14L101.62 38.14Q100.53 38.14 99.83 37.52Q99.13 36.90 99.13 35.95L99.13 35.95Q99.13 34.79 100.01 34.15Q100.89 33.52 102.48 33.52L102.48 33.52L103.71 33.52L103.71 32.93Q103.71 32.27 103.31 31.88Q102.92 31.49 102.14 31.49L102.14 31.49Q101.47 31.49 101.01 31.83Q100.55 32.17 100.55 32.65L100.55 32.65L99.28 32.65Q99.28 32.10 99.67 31.58Q100.07 31.07 100.74 30.77Q101.41 30.47 102.22 30.47L102.22 30.47Q103.50 30.47 104.22 31.11Q104.95 31.75 104.97 32.87L104.97 32.87L104.97 36.27Q104.97 37.29 105.23 37.89L105.23 37.89L105.23 38ZM101.81 37.04L101.81 37.04Q102.40 37.04 102.94 36.73Q103.47 36.42 103.71 35.93L103.71 35.93L103.71 34.41L102.72 34.41Q100.39 34.41 100.39 35.77L100.39 35.77Q100.39 36.37 100.79 36.70Q101.19 37.04 101.81 37.04ZM110.53 30.56L110.53 31.74Q110.24 31.69 109.91 31.69L109.91 31.69Q108.67 31.69 108.22 32.75L108.22 32.75L108.22 38L106.96 38L106.96 30.60L108.19 30.60L108.21 31.46Q108.83 30.47 109.97 30.47L109.97 30.47Q110.34 30.47 110.53 30.56L110.53 30.56ZM117.31 38L115.99 38Q115.88 37.78 115.81 37.22L115.81 37.22Q114.93 38.14 113.70 38.14L113.70 38.14Q112.61 38.14 111.91 37.52Q111.21 36.90 111.21 35.95L111.21 35.95Q111.21 34.79 112.09 34.15Q112.96 33.52 114.56 33.52L114.56 33.52L115.79 33.52L115.79 32.93Q115.79 32.27 115.39 31.88Q115.00 31.49 114.22 31.49L114.22 31.49Q113.55 31.49 113.09 31.83Q112.63 32.17 112.63 32.65L112.63 32.65L111.36 32.65Q111.36 32.10 111.75 31.58Q112.14 31.07 112.82 30.77Q113.49 30.47 114.30 30.47L114.30 30.47Q115.58 30.47 116.30 31.11Q117.03 31.75 117.05 32.87L117.05 32.87L117.05 36.27Q117.05 37.29 117.31 37.89L117.31 37.89L117.31 38ZM113.89 37.04L113.89 37.04Q114.48 37.04 115.02 36.73Q115.55 36.42 115.79 35.93L115.79 35.93L115.79 34.41L114.80 34.41Q112.47 34.41 112.47 35.77L112.47 35.77Q112.47 36.37 112.87 36.70Q113.27 37.04 113.89 37.04ZM119.03 30.60L120.22 30.60L120.26 31.42Q121.07 30.47 122.45 30.47L122.45 30.47Q124.00 30.47 124.57 31.66L124.57 31.66Q124.93 31.12 125.53 30.79Q126.12 30.47 126.92 30.47L126.92 30.47Q129.36 30.47 129.40 33.04L129.40 33.04L129.40 38L128.13 38L128.13 33.12Q128.13 32.33 127.77 31.93Q127.41 31.54 126.55 31.54L126.55 31.54Q125.85 31.54 125.39 31.96Q124.92 32.38 124.85 33.09L124.85 33.09L124.85 38L123.57 38L123.57 33.15Q123.57 31.54 122.00 31.54L122.00 31.54Q120.75 31.54 120.29 32.60L120.29 32.60L120.29 38L119.03 38L119.03 30.60ZM135.61 36.04L135.61 36.04Q135.61 35.53 135.23 35.24Q134.84 34.96 133.88 34.75Q132.92 34.55 132.35 34.26Q131.79 33.97 131.52 33.58Q131.25 33.18 131.25 32.63L131.25 32.63Q131.25 31.72 132.02 31.10Q132.79 30.47 133.99 30.47L133.99 30.47Q135.24 30.47 136.03 31.12Q136.81 31.77 136.81 32.78L136.81 32.78L135.54 32.78Q135.54 32.26 135.10 31.88Q134.66 31.51 133.99 31.51L133.99 31.51Q133.29 31.51 132.91 31.81Q132.52 32.11 132.52 32.59L132.52 32.59Q132.52 33.05 132.88 33.28Q133.24 33.52 134.19 33.73Q135.13 33.94 135.72 34.23Q136.31 34.53 136.59 34.94Q136.88 35.35 136.88 35.95L136.88 35.95Q136.88 36.94 136.08 37.54Q135.29 38.14 134.03 38.14L134.03 38.14Q133.14 38.14 132.45 37.82Q131.77 37.51 131.38 36.94Q131.00 36.38 131.00 35.72L131.00 35.72L132.26 35.72Q132.30 36.36 132.77 36.73Q133.25 37.10 134.03 37.10L134.03 37.10Q134.74 37.10 135.18 36.81Q135.61 36.52 135.61 36.04ZM141.44 34.03L141.44 34.03Q141.44 35.55 141.04 36.95Q140.64 38.35 139.82 39.53Q139.00 40.71 138.09 41.21L138.09 41.21L137.83 40.44Q138.88 39.63 139.52 37.94Q140.16 36.24 140.17 34.17L140.17 34.17L140.17 33.95Q140.17 32.51 139.87 31.28Q139.57 30.04 139.03 29.07Q138.50 28.09 137.83 27.54L137.83 27.54L138.09 26.77Q139.00 27.27 139.81 28.44Q140.63 29.61 141.04 31.01Q141.44 32.42 141.44 34.03Z"/>
                <path fill="#000000FF" stroke="#000000FF" stroke-linecap="round" stroke-linejoin="round" stroke-width="0.1"   d=""/>
                <path fill="#000000FF" stroke="#000000FF" stroke-linecap="round" stroke-linejoin="round" stroke-width="0.1"   d=""/>
                <path fill="#000000FF" stroke="#000000FF" stroke-linecap="round" stroke-linejoin="round" stroke-width="0.1"   d="M11.05 47.26L11.05 48.29L7.72 48.29L7.72 47.26L11.05 47.26ZM15.42 48.32L15.42 48.23Q15.42 47.15 15.84 46.28Q16.27 45.41 17.03 44.94Q17.79 44.47 18.77 44.47L18.77 44.47Q20.28 44.47 21.22 45.51Q22.15 46.56 22.15 48.29L22.15 48.29L22.15 48.38Q22.15 49.46 21.74 50.32Q21.32 51.18 20.55 51.66Q19.78 52.14 18.79 52.14L18.79 52.14Q17.28 52.14 16.35 51.09Q15.42 50.04 15.42 48.32L15.42 48.32ZM16.69 48.38L16.69 48.38Q16.69 49.61 17.26 50.36Q17.83 51.10 18.79 51.10L18.79 51.10Q19.75 51.10 20.32 50.35Q20.88 49.59 20.88 48.23L20.88 48.23Q20.88 47.02 20.31 46.26Q19.73 45.51 18.77 45.51L18.77 45.51Q17.84 45.51 17.26 46.25Q16.69 47.00 16.69 48.38ZM29.98 48.27L29.98 48.38Q29.98 50.07 29.21 51.10Q28.44 52.14 27.12 52.14L27.12 52.14Q25.77 52.14 25 51.28L25 51.28L25 54.84L23.74 54.84L23.74 44.60L24.89 44.60L24.95 45.42Q25.72 44.47 27.10 44.47L27.10 44.47Q28.43 44.47 29.21 45.47Q29.98 46.48 29.98 48.27L29.98 48.27ZM28.72 48.24L28.72 48.24Q28.72 46.99 28.19 46.26Q27.65 45.54 26.72 45.54L26.72 45.54Q25.57 45.54 25 46.56L25 46.56L25 50.09Q25.57 51.10 26.74 51.10L26.74 51.10Q27.65 51.10 28.18 50.38Q28.72 49.66 28.72 48.24ZM34.66 52.14L34.66 52.14Q33.16 52.14 32.21 51.15Q31.27 50.16 31.27 48.51L31.27 48.51L31.27 48.27Q31.27 47.17 31.69 46.31Q32.11 45.44 32.86 44.96Q33.62 44.47 34.50 44.47L34.50 44.47Q35.94 44.47 36.74 45.42Q37.54 46.37 37.54 48.14L37.54 48.14L37.54 48.66L32.53 48.66Q32.56 49.76 33.17 50.43Q33.78 51.10 34.73 51.10L34.73 51.10Q35.40 51.10 35.86 50.83Q36.33 50.56 36.68 50.11L36.68 50.11L37.45 50.71Q36.52 52.14 34.66 52.14ZM34.50 45.51L34.50 45.51Q33.74 45.51 33.22 46.06Q32.70 46.62 32.57 47.63L32.57 47.63L36.28 47.63L36.28 47.53Q36.22 46.57 35.76 46.04Q35.29 45.51 34.50 45.51ZM42.58 44.56L42.58 45.74Q42.29 45.69 41.96 45.69L41.96 45.69Q40.72 45.69 40.27 46.75L40.27 46.75L40.27 52L39.01 52L39.01 44.60L40.24 44.60L40.26 45.46Q40.88 44.47 42.02 44.47L42.02 44.47Q42.39 44.47 42.58 44.56L42.58 44.56ZM49.36 52L48.04 52Q47.93 51.78 47.86 51.22L47.86 51.22Q46.98 52.14 45.75 52.14L45.75 52.14Q44.66 52.14 43.96 51.52Q43.26 50.90 43.26 49.95L43.26 49.95Q43.26 48.79 44.14 48.15Q45.02 47.52 46.61 47.52L46.61 47.52L47.84 47.52L47.84 46.93Q47.84 46.27 47.44 45.88Q47.05 45.49 46.27 45.49L46.27 45.49Q45.60 45.49 45.14 45.83Q44.68 46.17 44.68 46.65L44.68 46.65L43.41 46.65Q43.41 46.10 43.80 45.58Q44.20 45.07 44.87 44.77Q45.54 44.47 46.35 44.47L46.35 44.47Q47.63 44.47 48.35 45.11Q49.08 45.75 49.10 46.87L49.10 46.87L49.10 50.27Q49.10 51.29 49.36 51.89L49.36 51.89L49.36 52ZM45.94 51.04L45.94 51.04Q46.53 51.04 47.07 50.73Q47.60 50.42 47.84 49.93L47.84 49.93L47.84 48.41L46.85 48.41Q44.52 48.41 44.52 49.77L44.52 49.77Q44.52 50.37 44.92 50.70Q45.32 51.04 45.94 51.04ZM51.54 42.81L52.80 42.81L52.80 44.60L54.18 44.60L54.18 45.58L52.80 45.58L52.80 50.17Q52.80 50.61 52.99 50.83Q53.17 51.06 53.62 51.06L53.62 51.06Q53.83 51.06 54.22 50.97L54.22 50.97L54.22 52Q53.72 52.14 53.25 52.14L53.25 52.14Q52.40 52.14 51.97 51.62Q51.54 51.11 51.54 50.17L51.54 50.17L51.54 45.58L50.19 45.58L50.19 44.60L51.54 44.60L51.54 42.81ZM57.03 44.60L57.03 52L55.77 52L55.77 44.60L57.03 44.60ZM55.67 42.64L55.67 42.64Q55.67 42.33 55.85 42.12Q56.04 41.91 56.41 41.91Q56.78 41.91 56.97 42.12Q57.16 42.33 57.16 42.64Q57.16 42.95 56.97 43.15Q56.78 43.36 56.41 43.36Q56.04 43.36 55.85 43.15Q55.67 42.95 55.67 42.64ZM58.72 48.32L58.72 48.23Q58.72 47.15 59.15 46.28Q59.58 45.41 60.34 44.94Q61.10 44.47 62.08 44.47L62.08 44.47Q63.59 44.47 64.52 45.51Q65.46 46.56 65.46 48.29L65.46 48.29L65.46 48.38Q65.46 49.46 65.04 50.32Q64.63 51.18 63.86 51.66Q63.09 52.14 62.09 52.14L62.09 52.14Q60.59 52.14 59.65 51.09Q58.72 50.04 58.72 48.32L58.72 48.32ZM59.99 48.38L59.99 48.38Q59.99 49.61 60.56 50.36Q61.13 51.10 62.09 51.10L62.09 51.10Q63.06 51.10 63.62 50.35Q64.19 49.59 64.19 48.23L64.19 48.23Q64.19 47.02 63.61 46.26Q63.04 45.51 62.08 45.51L62.08 45.51Q61.14 45.51 60.57 46.25Q59.99 47.00 59.99 48.38ZM67.04 44.60L68.24 44.60L68.28 45.53Q69.13 44.47 70.49 44.47L70.49 44.47Q72.84 44.47 72.86 47.11L72.86 47.11L72.86 52L71.59 52L71.59 47.11Q71.59 46.31 71.23 45.92Q70.87 45.54 70.11 45.54L70.11 45.54Q69.50 45.54 69.03 45.87Q68.57 46.20 68.31 46.73L68.31 46.73L68.31 52L67.04 52L67.04 44.60ZM76.47 47.44L76.47 46.41L77.42 46.41Q78.32 46.39 78.83 45.94Q79.35 45.48 79.35 44.70L79.35 44.70Q79.35 42.95 77.60 42.95L77.60 42.95Q76.78 42.95 76.29 43.42Q75.80 43.89 75.80 44.66L75.80 44.66L74.54 44.66Q74.54 43.48 75.40 42.69Q76.27 41.91 77.60 41.91L77.60 41.91Q79.01 41.91 79.81 42.66Q80.61 43.40 80.61 44.73L80.61 44.73Q80.61 45.38 80.19 45.98Q79.77 46.59 79.04 46.89L79.04 46.89Q79.87 47.15 80.31 47.75Q80.76 48.36 80.76 49.22L80.76 49.22Q80.76 50.56 79.89 51.35Q79.01 52.14 77.61 52.14Q76.21 52.14 75.33 51.38Q74.45 50.62 74.45 49.38L74.45 49.38L75.72 49.38Q75.72 50.16 76.24 50.63Q76.75 51.10 77.61 51.10L77.61 51.10Q78.53 51.10 79.01 50.63Q79.50 50.15 79.50 49.25L79.50 49.25Q79.50 48.38 78.96 47.92Q78.43 47.45 77.42 47.44L77.42 47.44L76.47 47.44ZM82.58 47.96L82.58 47.96Q82.58 46.42 82.99 44.99Q83.41 43.57 84.23 42.41Q85.05 41.25 85.93 40.77L85.93 40.77L86.19 41.60Q85.19 42.37 84.55 43.94Q83.91 45.51 83.85 47.46L83.85 47.46L83.84 48.04Q83.84 50.68 84.81 52.62L84.81 52.62Q85.39 53.78 86.19 54.44L86.19 54.44L85.93 55.21Q85.02 54.71 84.19 53.52L84.19 53.52Q82.58 51.19 82.58 47.96ZM90.33 48.03L90.33 48.03Q90.33 49.55 89.93 50.95Q89.53 52.35 88.71 53.53Q87.88 54.71 86.98 55.21L86.98 55.21L86.71 54.44Q87.77 53.63 88.41 51.94Q89.05 50.24 89.06 48.17L89.06 48.17L89.06 47.95Q89.06 46.51 88.76 45.28Q88.46 44.04 87.92 43.07Q87.38 42.09 86.71 41.54L86.71 41.54L86.98 40.77Q87.88 41.27 88.70 42.44Q89.52 43.61 89.92 45.01Q90.33 46.42 90.33 48.03Z"/>
            </g>
        </g>
    </g>
</g>
</svg>