<svg xmlns="http://www.w3.org/2000/svg" version="1.1" xmlns:xlink="http://www.w3.org/1999/xlink" xmlns:svgjs="http://svgjs.dev/svgjs" width="130" height="90" viewbox="0 0 130 90"   shape-rendering="geometricPrecision">
<g id="18dd2af616cc4a5f88a9f64102caaf5e" transform="translate(5, 5) ">
    <path fill="#FFFFFFFF" stroke="#323232FF" stroke-width="2" d=""/>    
    <g>
        <g id="6f59a8266d9d4e38b795bc4471c37686" transform=" ">
            <path fill="#FFFFFFFF" stroke="#323232FF" stroke-width="1.5" d="M0 0L0 32L120 32L120 0L0 0Z"/>    
            <g transform="matrix(1.00, 0.00, 0.00, 1.00, 0.00, 0.00)">
                <path fill="#000000FF" stroke="#000000FF" stroke-linecap="round" stroke-linejoin="round" stroke-width="0.5"   d="M27.43 18.84L28.75 18.84Q28.56 20.42 27.58 21.28Q26.60 22.14 24.97 22.14L24.97 22.14Q23.21 22.14 22.15 20.87Q21.08 19.61 21.08 17.49L21.08 17.49L21.08 16.53Q21.08 15.14 21.58 14.09Q22.07 13.04 22.98 12.47Q23.89 11.91 25.09 11.91L25.09 11.91Q26.67 11.91 27.63 12.80Q28.59 13.68 28.75 15.25L28.75 15.25L27.43 15.25Q27.26 14.06 26.69 13.52Q26.11 12.99 25.09 12.99L25.09 12.99Q23.83 12.99 23.12 13.92Q22.40 14.85 22.40 16.57L22.40 16.57L22.40 17.53Q22.40 19.15 23.08 20.11Q23.76 21.06 24.97 21.06L24.97 21.06Q26.07 21.06 26.65 20.57Q27.24 20.07 27.43 18.84L27.43 18.84ZM31.71 11.50L31.71 22L30.45 22L30.45 11.50L31.71 11.50ZM39.63 22L38.30 22Q38.19 21.78 38.13 21.22L38.13 21.22Q37.24 22.14 36.02 22.14L36.02 22.14Q34.93 22.14 34.23 21.52Q33.52 20.90 33.52 19.95L33.52 19.95Q33.52 18.79 34.40 18.15Q35.28 17.52 36.87 17.52L36.87 17.52L38.10 17.52L38.10 16.93Q38.10 16.27 37.71 15.88Q37.31 15.49 36.54 15.49L36.54 15.49Q35.86 15.49 35.40 15.83Q34.95 16.17 34.95 16.65L34.95 16.65L33.67 16.65Q33.67 16.10 34.07 15.58Q34.46 15.07 35.13 14.77Q35.81 14.47 36.61 14.47L36.61 14.47Q37.89 14.47 38.62 15.11Q39.34 15.75 39.37 16.87L39.37 16.87L39.37 20.27Q39.37 21.29 39.63 21.89L39.63 21.89L39.63 22ZM36.20 21.04L36.20 21.04Q36.80 21.04 37.33 20.73Q37.87 20.42 38.10 19.93L38.10 19.93L38.10 18.41L37.11 18.41Q34.79 18.41 34.79 19.77L34.79 19.77Q34.79 20.37 35.19 20.70Q35.58 21.04 36.20 21.04ZM45.66 20.04L45.66 20.04Q45.66 19.53 45.27 19.24Q44.89 18.96 43.93 18.75Q42.96 18.55 42.40 18.26Q41.84 17.97 41.57 17.58Q41.30 17.18 41.30 16.63L41.30 16.63Q41.30 15.72 42.07 15.10Q42.83 14.47 44.03 14.47L44.03 14.47Q45.29 14.47 46.07 15.12Q46.85 15.77 46.85 16.78L46.85 16.78L45.58 16.78Q45.58 16.26 45.14 15.88Q44.70 15.51 44.03 15.51L44.03 15.51Q43.34 15.51 42.95 15.81Q42.56 16.11 42.56 16.59L42.56 16.59Q42.56 17.05 42.92 17.28Q43.29 17.52 44.23 17.73Q45.18 17.94 45.77 18.23Q46.36 18.53 46.64 18.94Q46.92 19.35 46.92 19.95L46.92 19.95Q46.92 20.94 46.13 21.54Q45.34 22.14 44.07 22.14L44.07 22.14Q43.18 22.14 42.50 21.82Q41.82 21.51 41.43 20.94Q41.04 20.38 41.04 19.72L41.04 19.72L42.31 19.72Q42.34 20.36 42.82 20.73Q43.29 21.10 44.07 21.10L44.07 21.10Q44.79 21.10 45.22 20.81Q45.66 20.52 45.66 20.04ZM52.88 20.04L52.88 20.04Q52.88 19.53 52.49 19.24Q52.10 18.96 51.14 18.75Q50.18 18.55 49.62 18.26Q49.06 17.97 48.79 17.58Q48.52 17.18 48.52 16.63L48.52 16.63Q48.52 15.72 49.28 15.10Q50.05 14.47 51.25 14.47L51.25 14.47Q52.51 14.47 53.29 15.12Q54.07 15.77 54.07 16.78L54.07 16.78L52.80 16.78Q52.80 16.26 52.36 15.88Q51.92 15.51 51.25 15.51L51.25 15.51Q50.56 15.51 50.17 15.81Q49.78 16.11 49.78 16.59L49.78 16.59Q49.78 17.05 50.14 17.28Q50.50 17.52 51.45 17.73Q52.40 17.94 52.99 18.23Q53.57 18.53 53.86 18.94Q54.14 19.35 54.14 19.95L54.14 19.95Q54.14 20.94 53.35 21.54Q52.56 22.14 51.29 22.14L51.29 22.14Q50.40 22.14 49.72 21.82Q49.04 21.51 48.65 20.94Q48.26 20.38 48.26 19.72L48.26 19.72L49.53 19.72Q49.56 20.36 50.04 20.73Q50.51 21.10 51.29 21.10L51.29 21.10Q52.01 21.10 52.44 20.81Q52.88 20.52 52.88 20.04ZM67.10 12.05L67.10 22L65.78 22L60.77 14.33L60.77 22L59.45 22L59.45 12.05L60.77 12.05L65.80 19.75L65.80 12.05L67.10 12.05ZM75.13 22L73.80 22Q73.69 21.78 73.62 21.22L73.62 21.22Q72.74 22.14 71.52 22.14L71.52 22.14Q70.42 22.14 69.72 21.52Q69.02 20.90 69.02 19.95L69.02 19.95Q69.02 18.79 69.90 18.15Q70.78 17.52 72.37 17.52L72.37 17.52L73.60 17.52L73.60 16.93Q73.60 16.27 73.21 15.88Q72.81 15.49 72.04 15.49L72.04 15.49Q71.36 15.49 70.90 15.83Q70.45 16.17 70.45 16.65L70.45 16.65L69.17 16.65Q69.17 16.10 69.57 15.58Q69.96 15.07 70.63 14.77Q71.31 14.47 72.11 14.47L72.11 14.47Q73.39 14.47 74.12 15.11Q74.84 15.75 74.87 16.87L74.87 16.87L74.87 20.27Q74.87 21.29 75.13 21.89L75.13 21.89L75.13 22ZM71.70 21.04L71.70 21.04Q72.30 21.04 72.83 20.73Q73.36 20.42 73.60 19.93L73.60 19.93L73.60 18.41L72.61 18.41Q70.29 18.41 70.29 19.77L70.29 19.77Q70.29 20.37 70.68 20.70Q71.08 21.04 71.70 21.04ZM76.84 14.60L78.04 14.60L78.07 15.42Q78.89 14.47 80.27 14.47L80.27 14.47Q81.82 14.47 82.38 15.66L82.38 15.66Q82.75 15.12 83.34 14.79Q83.93 14.47 84.74 14.47L84.74 14.47Q87.17 14.47 87.21 17.04L87.21 17.04L87.21 22L85.95 22L85.95 17.12Q85.95 16.33 85.59 15.93Q85.22 15.54 84.37 15.54L84.37 15.54Q83.67 15.54 83.20 15.96Q82.74 16.38 82.66 17.09L82.66 17.09L82.66 22L81.39 22L81.39 17.15Q81.39 15.54 79.81 15.54L79.81 15.54Q78.57 15.54 78.11 16.60L78.11 16.60L78.11 22L76.84 22L76.84 14.60ZM92.19 22.14L92.19 22.14Q90.69 22.14 89.74 21.15Q88.80 20.16 88.80 18.51L88.80 18.51L88.80 18.27Q88.80 17.17 89.22 16.31Q89.64 15.44 90.40 14.96Q91.15 14.47 92.03 14.47L92.03 14.47Q93.48 14.47 94.28 15.42Q95.08 16.37 95.08 18.14L95.08 18.14L95.08 18.66L90.06 18.66Q90.09 19.76 90.70 20.43Q91.32 21.10 92.26 21.10L92.26 21.10Q92.93 21.10 93.39 20.83Q93.86 20.56 94.21 20.11L94.21 20.11L94.98 20.71Q94.05 22.14 92.19 22.14ZM92.03 15.51L92.03 15.51Q91.27 15.51 90.75 16.06Q90.23 16.62 90.11 17.63L90.11 17.63L93.81 17.63L93.81 17.53Q93.76 16.57 93.29 16.04Q92.83 15.51 92.03 15.51Z"/>
            </g>
        </g>
        <g id="47d5039892d14278bfb5031a9bcd7c26" transform="translate(0, 32) ">
            <path fill="#FFFFFFFF" stroke="#323232FF" stroke-width="1.5" d="M0 0L0 24L120 24L120 0L0 0Z"/>    
        </g>
        <g id="eb33216025ff4c8daadf471391a15626" transform="translate(0, 56) ">
            <path fill="#FFFFFFFF" stroke="#323232FF" stroke-width="1.5" d="M0 0L0 24L120 24L120 0L0 0Z"/>    
        </g>
    </g>
</g>
</svg>