<svg xmlns="http://www.w3.org/2000/svg" version="1.1" xmlns:xlink="http://www.w3.org/1999/xlink" xmlns:svgjs="http://svgjs.dev/svgjs" width="130" height="90" viewbox="0 0 130 90"   shape-rendering="geometricPrecision">
<g id="e231e7f74228430d9ddfd38cf157e98a" transform="translate(5, 5) ">
    <path fill="#FFFFFFFF" stroke="#323232FF" stroke-width="2" d=""/>    
    <g>
        <g id="268e190d364b4631931ee5ad498ecf4b" transform=" ">
            <path fill="#FFFFFFFF" stroke="#323232FF" stroke-width="1.5" d="M0 0L0 80L120 80L120 0L0 0Z"/>    
            <g transform="matrix(1.00, 0.00, 0.00, 1.00, 0.00, 0.00)">
                <path fill="#000000FF" stroke="#000000FF" stroke-linecap="round" stroke-linejoin="round" stroke-width="0.5"   d="M27.43 42.84L28.75 42.84Q28.56 44.42 27.58 45.28Q26.60 46.14 24.97 46.14L24.97 46.14Q23.21 46.14 22.15 44.87Q21.08 43.61 21.08 41.49L21.08 41.49L21.08 40.53Q21.08 39.14 21.58 38.09Q22.07 37.04 22.98 36.47Q23.89 35.91 25.09 35.91L25.09 35.91Q26.67 35.91 27.63 36.80Q28.59 37.68 28.75 39.25L28.75 39.25L27.43 39.25Q27.26 38.06 26.69 37.52Q26.11 36.99 25.09 36.99L25.09 36.99Q23.83 36.99 23.12 37.92Q22.40 38.85 22.40 40.57L22.40 40.57L22.40 41.53Q22.40 43.15 23.08 44.11Q23.76 45.06 24.97 45.06L24.97 45.06Q26.07 45.06 26.65 44.57Q27.24 44.07 27.43 42.84L27.43 42.84ZM31.71 35.50L31.71 46L30.45 46L30.45 35.50L31.71 35.50ZM39.63 46L38.30 46Q38.19 45.78 38.13 45.22L38.13 45.22Q37.24 46.14 36.02 46.14L36.02 46.14Q34.93 46.14 34.23 45.52Q33.52 44.90 33.52 43.95L33.52 43.95Q33.52 42.79 34.40 42.15Q35.28 41.52 36.87 41.52L36.87 41.52L38.10 41.52L38.10 40.93Q38.10 40.27 37.71 39.88Q37.31 39.49 36.54 39.49L36.54 39.49Q35.86 39.49 35.40 39.83Q34.95 40.17 34.95 40.65L34.95 40.65L33.67 40.65Q33.67 40.10 34.07 39.58Q34.46 39.07 35.13 38.77Q35.81 38.47 36.61 38.47L36.61 38.47Q37.89 38.47 38.62 39.11Q39.34 39.75 39.37 40.87L39.37 40.87L39.37 44.27Q39.37 45.29 39.63 45.89L39.63 45.89L39.63 46ZM36.20 45.04L36.20 45.04Q36.80 45.04 37.33 44.73Q37.87 44.42 38.10 43.93L38.10 43.93L38.10 42.41L37.11 42.41Q34.79 42.41 34.79 43.77L34.79 43.77Q34.79 44.37 35.19 44.70Q35.58 45.04 36.20 45.04ZM45.66 44.04L45.66 44.04Q45.66 43.53 45.27 43.24Q44.89 42.96 43.93 42.75Q42.96 42.55 42.40 42.26Q41.84 41.97 41.57 41.58Q41.30 41.18 41.30 40.63L41.30 40.63Q41.30 39.72 42.07 39.10Q42.83 38.47 44.03 38.47L44.03 38.47Q45.29 38.47 46.07 39.12Q46.85 39.77 46.85 40.78L46.85 40.78L45.58 40.78Q45.58 40.26 45.14 39.88Q44.70 39.51 44.03 39.51L44.03 39.51Q43.34 39.51 42.95 39.81Q42.56 40.11 42.56 40.59L42.56 40.59Q42.56 41.05 42.92 41.28Q43.29 41.52 44.23 41.73Q45.18 41.94 45.77 42.23Q46.36 42.53 46.64 42.94Q46.92 43.35 46.92 43.95L46.92 43.95Q46.92 44.94 46.13 45.54Q45.34 46.14 44.07 46.14L44.07 46.14Q43.18 46.14 42.50 45.82Q41.82 45.51 41.43 44.94Q41.04 44.38 41.04 43.72L41.04 43.72L42.31 43.72Q42.34 44.36 42.82 44.73Q43.29 45.10 44.07 45.10L44.07 45.10Q44.79 45.10 45.22 44.81Q45.66 44.52 45.66 44.04ZM52.88 44.04L52.88 44.04Q52.88 43.53 52.49 43.24Q52.10 42.96 51.14 42.75Q50.18 42.55 49.62 42.26Q49.06 41.97 48.79 41.58Q48.52 41.18 48.52 40.63L48.52 40.63Q48.52 39.72 49.28 39.10Q50.05 38.47 51.25 38.47L51.25 38.47Q52.51 38.47 53.29 39.12Q54.07 39.77 54.07 40.78L54.07 40.78L52.80 40.78Q52.80 40.26 52.36 39.88Q51.92 39.51 51.25 39.51L51.25 39.51Q50.56 39.51 50.17 39.81Q49.78 40.11 49.78 40.59L49.78 40.59Q49.78 41.05 50.14 41.28Q50.50 41.52 51.45 41.73Q52.40 41.94 52.99 42.23Q53.57 42.53 53.86 42.94Q54.14 43.35 54.14 43.95L54.14 43.95Q54.14 44.94 53.35 45.54Q52.56 46.14 51.29 46.14L51.29 46.14Q50.40 46.14 49.72 45.82Q49.04 45.51 48.65 44.94Q48.26 44.38 48.26 43.72L48.26 43.72L49.53 43.72Q49.56 44.36 50.04 44.73Q50.51 45.10 51.29 45.10L51.29 45.10Q52.01 45.10 52.44 44.81Q52.88 44.52 52.88 44.04ZM67.10 36.05L67.10 46L65.78 46L60.77 38.33L60.77 46L59.45 46L59.45 36.05L60.77 36.05L65.80 43.75L65.80 36.05L67.10 36.05ZM75.13 46L73.80 46Q73.69 45.78 73.62 45.22L73.62 45.22Q72.74 46.14 71.52 46.14L71.52 46.14Q70.42 46.14 69.72 45.52Q69.02 44.90 69.02 43.95L69.02 43.95Q69.02 42.79 69.90 42.15Q70.78 41.52 72.37 41.52L72.37 41.52L73.60 41.52L73.60 40.93Q73.60 40.27 73.21 39.88Q72.81 39.49 72.04 39.49L72.04 39.49Q71.36 39.49 70.90 39.83Q70.45 40.17 70.45 40.65L70.45 40.65L69.17 40.65Q69.17 40.10 69.57 39.58Q69.96 39.07 70.63 38.77Q71.31 38.47 72.11 38.47L72.11 38.47Q73.39 38.47 74.12 39.11Q74.84 39.75 74.87 40.87L74.87 40.87L74.87 44.27Q74.87 45.29 75.13 45.89L75.13 45.89L75.13 46ZM71.70 45.04L71.70 45.04Q72.30 45.04 72.83 44.73Q73.36 44.42 73.60 43.93L73.60 43.93L73.60 42.41L72.61 42.41Q70.29 42.41 70.29 43.77L70.29 43.77Q70.29 44.37 70.68 44.70Q71.08 45.04 71.70 45.04ZM76.84 38.60L78.04 38.60L78.07 39.42Q78.89 38.47 80.27 38.47L80.27 38.47Q81.82 38.47 82.38 39.66L82.38 39.66Q82.75 39.12 83.34 38.79Q83.93 38.47 84.74 38.47L84.74 38.47Q87.17 38.47 87.21 41.04L87.21 41.04L87.21 46L85.95 46L85.95 41.12Q85.95 40.33 85.59 39.93Q85.22 39.54 84.37 39.54L84.37 39.54Q83.67 39.54 83.20 39.96Q82.74 40.38 82.66 41.09L82.66 41.09L82.66 46L81.39 46L81.39 41.15Q81.39 39.54 79.81 39.54L79.81 39.54Q78.57 39.54 78.11 40.60L78.11 40.60L78.11 46L76.84 46L76.84 38.60ZM92.19 46.14L92.19 46.14Q90.69 46.14 89.74 45.15Q88.80 44.16 88.80 42.51L88.80 42.51L88.80 42.27Q88.80 41.17 89.22 40.31Q89.64 39.44 90.40 38.96Q91.15 38.47 92.03 38.47L92.03 38.47Q93.48 38.47 94.28 39.42Q95.08 40.37 95.08 42.14L95.08 42.14L95.08 42.66L90.06 42.66Q90.09 43.76 90.70 44.43Q91.32 45.10 92.26 45.10L92.26 45.10Q92.93 45.10 93.39 44.83Q93.86 44.56 94.21 44.11L94.21 44.11L94.98 44.71Q94.05 46.14 92.19 46.14ZM92.03 39.51L92.03 39.51Q91.27 39.51 90.75 40.06Q90.23 40.62 90.11 41.63L90.11 41.63L93.81 41.63L93.81 41.53Q93.76 40.57 93.29 40.04Q92.83 39.51 92.03 39.51Z"/>
            </g>
        </g>
    </g>
</g>
</svg>