<svg xmlns="http://www.w3.org/2000/svg" version="1.1" xmlns:xlink="http://www.w3.org/1999/xlink" xmlns:svgjs="http://svgjs.dev/svgjs" width="260" height="100" viewbox="0 0 260 100"   shape-rendering="geometricPrecision">
<g id="8c52f9aaa7434825bdea67e198625604" transform="translate(5, 5) ">
    <path fill="#FFFFFFFF" stroke="#323232FF" stroke-width="2" d=""/>    
    <g>
        <g id="f0a0ab623dbe4868906cfc6d542cc7bb" transform=" ">
            <path fill="#FFFFFFFF" stroke="#323232FF" stroke-width="1.5" d="M0 0L0 32L250 32L250 0L0 0Z"/>    
            <g transform="matrix(1.00, 0.00, 0.00, 1.00, 0.00, 0.00)">
                <path fill="#000000FF" stroke="#000000FF" stroke-linecap="round" stroke-linejoin="round" stroke-width="0.5"   d="M92.43 18.84L93.75 18.84Q93.56 20.42 92.58 21.28Q91.60 22.14 89.97 22.14L89.97 22.14Q88.21 22.14 87.15 20.87Q86.08 19.61 86.08 17.49L86.08 17.49L86.08 16.53Q86.08 15.14 86.58 14.09Q87.07 13.04 87.98 12.47Q88.89 11.91 90.09 11.91L90.09 11.91Q91.67 11.91 92.63 12.80Q93.59 13.68 93.75 15.25L93.75 15.25L92.43 15.25Q92.26 14.06 91.69 13.52Q91.11 12.99 90.09 12.99L90.09 12.99Q88.83 12.99 88.12 13.92Q87.40 14.85 87.40 16.57L87.40 16.57L87.40 17.53Q87.40 19.15 88.08 20.11Q88.76 21.06 89.97 21.06L89.97 21.06Q91.07 21.06 91.65 20.57Q92.24 20.07 92.43 18.84L92.43 18.84ZM96.71 11.50L96.71 22L95.45 22L95.45 11.50L96.71 11.50ZM104.63 22L103.30 22Q103.19 21.78 103.13 21.22L103.13 21.22Q102.24 22.14 101.02 22.14L101.02 22.14Q99.93 22.14 99.23 21.52Q98.52 20.90 98.52 19.95L98.52 19.95Q98.52 18.79 99.40 18.15Q100.28 17.52 101.87 17.52L101.87 17.52L103.10 17.52L103.10 16.93Q103.10 16.27 102.71 15.88Q102.31 15.49 101.54 15.49L101.54 15.49Q100.86 15.49 100.40 15.83Q99.95 16.17 99.95 16.65L99.95 16.65L98.67 16.65Q98.67 16.10 99.07 15.58Q99.46 15.07 100.13 14.77Q100.81 14.47 101.61 14.47L101.61 14.47Q102.89 14.47 103.62 15.11Q104.34 15.75 104.37 16.87L104.37 16.87L104.37 20.27Q104.37 21.29 104.63 21.89L104.63 21.89L104.63 22ZM101.20 21.04L101.20 21.04Q101.80 21.04 102.33 20.73Q102.87 20.42 103.10 19.93L103.10 19.93L103.10 18.41L102.11 18.41Q99.79 18.41 99.79 19.77L99.79 19.77Q99.79 20.37 100.19 20.70Q100.58 21.04 101.20 21.04ZM110.66 20.04L110.66 20.04Q110.66 19.53 110.27 19.24Q109.89 18.96 108.93 18.75Q107.96 18.55 107.40 18.26Q106.84 17.97 106.57 17.58Q106.30 17.18 106.30 16.63L106.30 16.63Q106.30 15.72 107.07 15.10Q107.83 14.47 109.03 14.47L109.03 14.47Q110.29 14.47 111.07 15.12Q111.85 15.77 111.85 16.78L111.85 16.78L110.58 16.78Q110.58 16.26 110.14 15.88Q109.70 15.51 109.03 15.51L109.03 15.51Q108.34 15.51 107.95 15.81Q107.56 16.11 107.56 16.59L107.56 16.59Q107.56 17.05 107.92 17.28Q108.29 17.52 109.23 17.73Q110.18 17.94 110.77 18.23Q111.36 18.53 111.64 18.94Q111.92 19.35 111.92 19.95L111.92 19.95Q111.92 20.94 111.13 21.54Q110.34 22.14 109.07 22.14L109.07 22.14Q108.18 22.14 107.50 21.82Q106.82 21.51 106.43 20.94Q106.04 20.38 106.04 19.72L106.04 19.72L107.31 19.72Q107.34 20.36 107.82 20.73Q108.29 21.10 109.07 21.10L109.07 21.10Q109.79 21.10 110.22 20.81Q110.66 20.52 110.66 20.04ZM117.88 20.04L117.88 20.04Q117.88 19.53 117.49 19.24Q117.10 18.96 116.14 18.75Q115.18 18.55 114.62 18.26Q114.06 17.97 113.79 17.58Q113.52 17.18 113.52 16.63L113.52 16.63Q113.52 15.72 114.28 15.10Q115.05 14.47 116.25 14.47L116.25 14.47Q117.51 14.47 118.29 15.12Q119.07 15.77 119.07 16.78L119.07 16.78L117.80 16.78Q117.80 16.26 117.36 15.88Q116.92 15.51 116.25 15.51L116.25 15.51Q115.56 15.51 115.17 15.81Q114.78 16.11 114.78 16.59L114.78 16.59Q114.78 17.05 115.14 17.28Q115.50 17.52 116.45 17.73Q117.40 17.94 117.99 18.23Q118.57 18.53 118.86 18.94Q119.14 19.35 119.14 19.95L119.14 19.95Q119.14 20.94 118.35 21.54Q117.56 22.14 116.29 22.14L116.29 22.14Q115.40 22.14 114.72 21.82Q114.04 21.51 113.65 20.94Q113.26 20.38 113.26 19.72L113.26 19.72L114.53 19.72Q114.56 20.36 115.04 20.73Q115.51 21.10 116.29 21.10L116.29 21.10Q117.01 21.10 117.44 20.81Q117.88 20.52 117.88 20.04ZM132.10 12.05L132.10 22L130.78 22L125.77 14.33L125.77 22L124.45 22L124.45 12.05L125.77 12.05L130.80 19.75L130.80 12.05L132.10 12.05ZM140.13 22L138.80 22Q138.69 21.78 138.62 21.22L138.62 21.22Q137.74 22.14 136.52 22.14L136.52 22.14Q135.42 22.14 134.72 21.52Q134.02 20.90 134.02 19.95L134.02 19.95Q134.02 18.79 134.90 18.15Q135.78 17.52 137.37 17.52L137.37 17.52L138.60 17.52L138.60 16.93Q138.60 16.27 138.21 15.88Q137.81 15.49 137.04 15.49L137.04 15.49Q136.36 15.49 135.90 15.83Q135.45 16.17 135.45 16.65L135.45 16.65L134.17 16.65Q134.17 16.10 134.57 15.58Q134.96 15.07 135.63 14.77Q136.31 14.47 137.11 14.47L137.11 14.47Q138.39 14.47 139.12 15.11Q139.84 15.75 139.87 16.87L139.87 16.87L139.87 20.27Q139.87 21.29 140.13 21.89L140.13 21.89L140.13 22ZM136.70 21.04L136.70 21.04Q137.30 21.04 137.83 20.73Q138.36 20.42 138.60 19.93L138.60 19.93L138.60 18.41L137.61 18.41Q135.29 18.41 135.29 19.77L135.29 19.77Q135.29 20.37 135.68 20.70Q136.08 21.04 136.70 21.04ZM141.84 14.60L143.04 14.60L143.07 15.42Q143.89 14.47 145.27 14.47L145.27 14.47Q146.82 14.47 147.38 15.66L147.38 15.66Q147.75 15.12 148.34 14.79Q148.93 14.47 149.74 14.47L149.74 14.47Q152.17 14.47 152.21 17.04L152.21 17.04L152.21 22L150.95 22L150.95 17.12Q150.95 16.33 150.59 15.93Q150.22 15.54 149.37 15.54L149.37 15.54Q148.67 15.54 148.20 15.96Q147.74 16.38 147.66 17.09L147.66 17.09L147.66 22L146.39 22L146.39 17.15Q146.39 15.54 144.81 15.54L144.81 15.54Q143.57 15.54 143.11 16.60L143.11 16.60L143.11 22L141.84 22L141.84 14.60ZM157.19 22.14L157.19 22.14Q155.69 22.14 154.74 21.15Q153.80 20.16 153.80 18.51L153.80 18.51L153.80 18.27Q153.80 17.17 154.22 16.31Q154.64 15.44 155.40 14.96Q156.15 14.47 157.03 14.47L157.03 14.47Q158.48 14.47 159.28 15.42Q160.08 16.37 160.08 18.14L160.08 18.14L160.08 18.66L155.06 18.66Q155.09 19.76 155.70 20.43Q156.32 21.10 157.26 21.10L157.26 21.10Q157.93 21.10 158.39 20.83Q158.86 20.56 159.21 20.11L159.21 20.11L159.98 20.71Q159.05 22.14 157.19 22.14ZM157.03 15.51L157.03 15.51Q156.27 15.51 155.75 16.06Q155.23 16.62 155.11 17.63L155.11 17.63L158.81 17.63L158.81 17.53Q158.76 16.57 158.29 16.04Q157.83 15.51 157.03 15.51Z"/>
            </g>
        </g>
        <g id="39233c1a4eaa4886b5ce04fc0822ccb2" transform="translate(0, 32) ">
            <path fill="#FFFFFFFF" stroke="#323232FF" stroke-width="1.5" d="M0 0L0 58L250 58L250 0L0 0Z"/>    
            <g transform="matrix(1.00, 0.00, 0.00, 1.00, 0.00, 0.00)">
                <path fill="#000000FF" stroke="#000000FF" stroke-linecap="round" stroke-linejoin="round" stroke-width="0.1"   d="M12.05 12.76L12.05 15.66L14.82 15.66L14.82 16.86L12.05 16.86L12.05 20.00L10.77 20.00L10.77 16.86L8.00 16.86L8.00 15.66L10.77 15.66L10.77 12.76L12.05 12.76ZM25.72 21L24.39 21Q24.28 20.78 24.21 20.22L24.21 20.22Q23.33 21.14 22.11 21.14L22.11 21.14Q21.01 21.14 20.31 20.52Q19.61 19.90 19.61 18.95L19.61 18.95Q19.61 17.79 20.49 17.15Q21.37 16.52 22.96 16.52L22.96 16.52L24.19 16.52L24.19 15.93Q24.19 15.27 23.80 14.88Q23.40 14.49 22.63 14.49L22.63 14.49Q21.95 14.49 21.49 14.83Q21.04 15.17 21.04 15.65L21.04 15.65L19.76 15.65Q19.76 15.10 20.16 14.58Q20.55 14.07 21.22 13.77Q21.90 13.47 22.70 13.47L22.70 13.47Q23.98 13.47 24.71 14.11Q25.43 14.75 25.46 15.87L25.46 15.87L25.46 19.27Q25.46 20.29 25.72 20.89L25.72 20.89L25.72 21ZM22.29 20.04L22.29 20.04Q22.89 20.04 23.42 19.73Q23.95 19.42 24.19 18.93L24.19 18.93L24.19 17.41L23.20 17.41Q20.88 17.41 20.88 18.77L20.88 18.77Q20.88 19.37 21.27 19.70Q21.67 20.04 22.29 20.04ZM27.89 11.81L29.16 11.81L29.16 13.60L30.54 13.60L30.54 14.58L29.16 14.58L29.16 19.17Q29.16 19.61 29.34 19.83Q29.53 20.06 29.97 20.06L29.97 20.06Q30.19 20.06 30.57 19.97L30.57 19.97L30.57 21Q30.07 21.14 29.60 21.14L29.60 21.14Q28.75 21.14 28.32 20.62Q27.89 20.11 27.89 19.17L27.89 19.17L27.89 14.58L26.54 14.58L26.54 13.60L27.89 13.60L27.89 11.81ZM32.46 11.81L33.73 11.81L33.73 13.60L35.11 13.60L35.11 14.58L33.73 14.58L33.73 19.17Q33.73 19.61 33.91 19.83Q34.10 20.06 34.54 20.06L34.54 20.06Q34.76 20.06 35.14 19.97L35.14 19.97L35.14 21Q34.65 21.14 34.17 21.14L34.17 21.14Q33.33 21.14 32.90 20.62Q32.46 20.11 32.46 19.17L32.46 19.17L32.46 14.58L31.12 14.58L31.12 13.60L32.46 13.60L32.46 11.81ZM40.16 13.56L40.16 14.74Q39.88 14.69 39.54 14.69L39.54 14.69Q38.30 14.69 37.85 15.75L37.85 15.75L37.85 21L36.59 21L36.59 13.60L37.82 13.60L37.84 14.46Q38.46 13.47 39.60 13.47L39.60 13.47Q39.97 13.47 40.16 13.56L40.16 13.56ZM42.70 13.60L42.70 21L41.43 21L41.43 13.60L42.70 13.60ZM41.33 11.64L41.33 11.64Q41.33 11.33 41.52 11.12Q41.71 10.91 42.08 10.91Q42.45 10.91 42.64 11.12Q42.83 11.33 42.83 11.64Q42.83 11.95 42.64 12.15Q42.45 12.36 42.08 12.36Q41.71 12.36 41.52 12.15Q41.33 11.95 41.33 11.64ZM50.98 17.27L50.98 17.38Q50.98 19.08 50.20 20.11Q49.42 21.14 48.11 21.14L48.11 21.14Q46.71 21.14 45.95 20.15L45.95 20.15L45.88 21L44.72 21L44.72 10.50L45.99 10.50L45.99 14.42Q46.75 13.47 48.10 13.47Q49.45 13.47 50.21 14.49Q50.98 15.50 50.98 17.27L50.98 17.27ZM49.72 17.24L49.72 17.24Q49.72 15.95 49.22 15.24Q48.72 14.54 47.78 14.54L47.78 14.54Q46.53 14.54 45.99 15.70L45.99 15.70L45.99 18.90Q46.57 20.06 47.80 20.06L47.80 20.06Q48.71 20.06 49.21 19.36Q49.72 18.66 49.72 17.24ZM57.17 21L57.14 20.27Q56.40 21.14 54.98 21.14L54.98 21.14Q53.79 21.14 53.17 20.45Q52.56 19.76 52.55 18.42L52.55 18.42L52.55 13.60L53.81 13.60L53.81 18.38Q53.81 20.06 55.18 20.06L55.18 20.06Q56.63 20.06 57.11 18.98L57.11 18.98L57.11 13.60L58.37 13.60L58.37 21L57.17 21ZM60.75 11.81L62.01 11.81L62.01 13.60L63.39 13.60L63.39 14.58L62.01 14.58L62.01 19.17Q62.01 19.61 62.19 19.83Q62.38 20.06 62.82 20.06L62.82 20.06Q63.04 20.06 63.42 19.97L63.42 19.97L63.42 21Q62.93 21.14 62.45 21.14L62.45 21.14Q61.61 21.14 61.18 20.62Q60.75 20.11 60.75 19.17L60.75 19.17L60.75 14.58L59.40 14.58L59.40 13.60L60.75 13.60L60.75 11.81ZM67.94 21.14L67.94 21.14Q66.43 21.14 65.49 20.15Q64.55 19.16 64.55 17.51L64.55 17.51L64.55 17.27Q64.55 16.17 64.97 15.31Q65.39 14.44 66.14 13.96Q66.90 13.47 67.78 13.47L67.78 13.47Q69.22 13.47 70.02 14.42Q70.82 15.37 70.82 17.14L70.82 17.14L70.82 17.66L65.81 17.66Q65.84 18.76 66.45 19.43Q67.06 20.10 68.00 20.10L68.00 20.10Q68.67 20.10 69.14 19.83Q69.60 19.56 69.95 19.11L69.95 19.11L70.73 19.71Q69.80 21.14 67.94 21.14ZM67.78 14.51L67.78 14.51Q67.01 14.51 66.49 15.06Q65.97 15.62 65.85 16.63L65.85 16.63L69.56 16.63L69.56 16.53Q69.50 15.57 69.04 15.04Q68.57 14.51 67.78 14.51ZM76.31 11.00L76.31 21L75.04 21L75.04 12.57L72.49 13.51L72.49 12.36L76.11 11.00L76.31 11.00ZM80.10 20.34L80.10 20.34Q80.10 20.01 80.30 19.79Q80.49 19.57 80.88 19.57Q81.27 19.57 81.48 19.79Q81.68 20.01 81.68 20.34L81.68 20.34Q81.68 20.65 81.48 20.86Q81.27 21.08 80.88 21.08Q80.49 21.08 80.30 20.86Q80.10 20.65 80.10 20.34ZM80.11 14.30L80.11 14.30Q80.11 13.97 80.31 13.75Q80.50 13.54 80.89 13.54Q81.28 13.54 81.48 13.75Q81.68 13.97 81.68 14.30L81.68 14.30Q81.68 14.62 81.48 14.83Q81.28 15.04 80.89 15.04Q80.50 15.04 80.31 14.83Q80.11 14.62 80.11 14.30ZM93.80 11.05L93.80 12.13L90.60 12.13L90.60 21L89.30 21L89.30 12.13L86.11 12.13L86.11 11.05L93.80 11.05ZM95.16 13.60L97.01 19.15L98.73 13.60L100.09 13.60L97.11 22.14Q96.42 23.99 94.92 23.99L94.92 23.99L94.68 23.97L94.21 23.88L94.21 22.85L94.55 22.88Q95.19 22.88 95.55 22.62Q95.91 22.36 96.14 21.67L96.14 21.67L96.42 20.92L93.78 13.60L95.16 13.60ZM107.46 17.27L107.46 17.38Q107.46 19.07 106.69 20.10Q105.92 21.14 104.60 21.14L104.60 21.14Q103.25 21.14 102.48 20.28L102.48 20.28L102.48 23.84L101.21 23.84L101.21 13.60L102.37 13.60L102.43 14.42Q103.20 13.47 104.58 13.47L104.58 13.47Q105.91 13.47 106.69 14.47Q107.46 15.48 107.46 17.27L107.46 17.27ZM106.20 17.24L106.20 17.24Q106.20 15.99 105.66 15.26Q105.13 14.54 104.20 14.54L104.20 14.54Q103.05 14.54 102.48 15.56L102.48 15.56L102.48 19.09Q103.05 20.10 104.21 20.10L104.21 20.10Q105.12 20.10 105.66 19.38Q106.20 18.66 106.20 17.24ZM112.14 21.14L112.14 21.14Q110.63 21.14 109.69 20.15Q108.75 19.16 108.75 17.51L108.75 17.51L108.75 17.27Q108.75 16.17 109.17 15.31Q109.59 14.44 110.34 13.96Q111.10 13.47 111.98 13.47L111.98 13.47Q113.42 13.47 114.22 14.42Q115.02 15.37 115.02 17.14L115.02 17.14L115.02 17.66L110.01 17.66Q110.04 18.76 110.65 19.43Q111.26 20.10 112.21 20.10L112.21 20.10Q112.88 20.10 113.34 19.83Q113.81 19.56 114.15 19.11L114.15 19.11L114.93 19.71Q114.00 21.14 112.14 21.14ZM111.98 14.51L111.98 14.51Q111.21 14.51 110.70 15.06Q110.18 15.62 110.05 16.63L110.05 16.63L113.76 16.63L113.76 16.53Q113.70 15.57 113.24 15.04Q112.77 14.51 111.98 14.51Z"/>
                <path fill="#000000FF" stroke="#000000FF" stroke-linecap="round" stroke-linejoin="round" stroke-width="0.1"   d=""/>
                <path fill="#000000FF" stroke="#000000FF" stroke-linecap="round" stroke-linejoin="round" stroke-width="0.1"   d=""/>
                <path fill="#000000FF" stroke="#000000FF" stroke-linecap="round" stroke-linejoin="round" stroke-width="0.1"   d="M12.05 26.76L12.05 29.66L14.82 29.66L14.82 30.86L12.05 30.86L12.05 34.00L10.77 34.00L10.77 30.86L8.00 30.86L8.00 29.66L10.77 29.66L10.77 26.76L12.05 26.76ZM25.72 35L24.39 35Q24.28 34.78 24.21 34.22L24.21 34.22Q23.33 35.14 22.11 35.14L22.11 35.14Q21.01 35.14 20.31 34.52Q19.61 33.90 19.61 32.95L19.61 32.95Q19.61 31.79 20.49 31.15Q21.37 30.52 22.96 30.52L22.96 30.52L24.19 30.52L24.19 29.93Q24.19 29.27 23.80 28.88Q23.40 28.49 22.63 28.49L22.63 28.49Q21.95 28.49 21.49 28.83Q21.04 29.17 21.04 29.65L21.04 29.65L19.76 29.65Q19.76 29.10 20.16 28.58Q20.55 28.07 21.22 27.77Q21.90 27.47 22.70 27.47L22.70 27.47Q23.98 27.47 24.71 28.11Q25.43 28.75 25.46 29.87L25.46 29.87L25.46 33.27Q25.46 34.29 25.72 34.89L25.72 34.89L25.72 35ZM22.29 34.04L22.29 34.04Q22.89 34.04 23.42 33.73Q23.95 33.42 24.19 32.93L24.19 32.93L24.19 31.41L23.20 31.41Q20.88 31.41 20.88 32.77L20.88 32.77Q20.88 33.37 21.27 33.70Q21.67 34.04 22.29 34.04ZM27.89 25.81L29.16 25.81L29.16 27.60L30.54 27.60L30.54 28.58L29.16 28.58L29.16 33.17Q29.16 33.61 29.34 33.83Q29.53 34.06 29.97 34.06L29.97 34.06Q30.19 34.06 30.57 33.97L30.57 33.97L30.57 35Q30.07 35.14 29.60 35.14L29.60 35.14Q28.75 35.14 28.32 34.62Q27.89 34.11 27.89 33.17L27.89 33.17L27.89 28.58L26.54 28.58L26.54 27.60L27.89 27.60L27.89 25.81ZM32.46 25.81L33.73 25.81L33.73 27.60L35.11 27.60L35.11 28.58L33.73 28.58L33.73 33.17Q33.73 33.61 33.91 33.83Q34.10 34.06 34.54 34.06L34.54 34.06Q34.76 34.06 35.14 33.97L35.14 33.97L35.14 35Q34.65 35.14 34.17 35.14L34.17 35.14Q33.33 35.14 32.90 34.62Q32.46 34.11 32.46 33.17L32.46 33.17L32.46 28.58L31.12 28.58L31.12 27.60L32.46 27.60L32.46 25.81ZM40.16 27.56L40.16 28.74Q39.88 28.69 39.54 28.69L39.54 28.69Q38.30 28.69 37.85 29.75L37.85 29.75L37.85 35L36.59 35L36.59 27.60L37.82 27.60L37.84 28.46Q38.46 27.47 39.60 27.47L39.60 27.47Q39.97 27.47 40.16 27.56L40.16 27.56ZM42.70 27.60L42.70 35L41.43 35L41.43 27.60L42.70 27.60ZM41.33 25.64L41.33 25.64Q41.33 25.33 41.52 25.12Q41.71 24.91 42.08 24.91Q42.45 24.91 42.64 25.12Q42.83 25.33 42.83 25.64Q42.83 25.95 42.64 26.15Q42.45 26.36 42.08 26.36Q41.71 26.36 41.52 26.15Q41.33 25.95 41.33 25.64ZM50.98 31.27L50.98 31.38Q50.98 33.08 50.20 34.11Q49.42 35.14 48.11 35.14L48.11 35.14Q46.71 35.14 45.95 34.15L45.95 34.15L45.88 35L44.72 35L44.72 24.50L45.99 24.50L45.99 28.42Q46.75 27.47 48.10 27.47Q49.45 27.47 50.21 28.49Q50.98 29.50 50.98 31.27L50.98 31.27ZM49.72 31.24L49.72 31.24Q49.72 29.95 49.22 29.24Q48.72 28.54 47.78 28.54L47.78 28.54Q46.53 28.54 45.99 29.70L45.99 29.70L45.99 32.90Q46.57 34.06 47.80 34.06L47.80 34.06Q48.71 34.06 49.21 33.36Q49.72 32.66 49.72 31.24ZM57.17 35L57.14 34.27Q56.40 35.14 54.98 35.14L54.98 35.14Q53.79 35.14 53.17 34.45Q52.56 33.76 52.55 32.42L52.55 32.42L52.55 27.60L53.81 27.60L53.81 32.38Q53.81 34.06 55.18 34.06L55.18 34.06Q56.63 34.06 57.11 32.98L57.11 32.98L57.11 27.60L58.37 27.60L58.37 35L57.17 35ZM60.75 25.81L62.01 25.81L62.01 27.60L63.39 27.60L63.39 28.58L62.01 28.58L62.01 33.17Q62.01 33.61 62.19 33.83Q62.38 34.06 62.82 34.06L62.82 34.06Q63.04 34.06 63.42 33.97L63.42 33.97L63.42 35Q62.93 35.14 62.45 35.14L62.45 35.14Q61.61 35.14 61.18 34.62Q60.75 34.11 60.75 33.17L60.75 33.17L60.75 28.58L59.40 28.58L59.40 27.60L60.75 27.60L60.75 25.81ZM67.94 35.14L67.94 35.14Q66.43 35.14 65.49 34.15Q64.55 33.16 64.55 31.51L64.55 31.51L64.55 31.27Q64.55 30.17 64.97 29.31Q65.39 28.44 66.14 27.96Q66.90 27.47 67.78 27.47L67.78 27.47Q69.22 27.47 70.02 28.42Q70.82 29.37 70.82 31.14L70.82 31.14L70.82 31.66L65.81 31.66Q65.84 32.76 66.45 33.43Q67.06 34.10 68.00 34.10L68.00 34.10Q68.67 34.10 69.14 33.83Q69.60 33.56 69.95 33.11L69.95 33.11L70.73 33.71Q69.80 35.14 67.94 35.14ZM67.78 28.51L67.78 28.51Q67.01 28.51 66.49 29.06Q65.97 29.62 65.85 30.63L65.85 30.63L69.56 30.63L69.56 30.53Q69.50 29.57 69.04 29.04Q68.57 28.51 67.78 28.51ZM78.68 33.97L78.68 35L72.15 35L72.15 34.09L75.60 30.26Q76.37 29.39 76.66 28.85Q76.95 28.31 76.95 27.73L76.95 27.73Q76.95 26.95 76.47 26.45Q76.00 25.95 75.22 25.95L75.22 25.95Q74.27 25.95 73.75 26.49Q73.23 27.02 73.23 27.98L73.23 27.98L71.96 27.98Q71.96 26.61 72.85 25.76Q73.73 24.91 75.22 24.91L75.22 24.91Q76.60 24.91 77.41 25.64Q78.22 26.37 78.22 27.58L78.22 27.58Q78.22 29.05 76.34 31.08L76.34 31.08L73.68 33.97L78.68 33.97ZM80.10 34.34L80.10 34.34Q80.10 34.01 80.30 33.79Q80.49 33.57 80.88 33.57Q81.27 33.57 81.48 33.79Q81.68 34.01 81.68 34.34L81.68 34.34Q81.68 34.65 81.48 34.86Q81.27 35.08 80.88 35.08Q80.49 35.08 80.30 34.86Q80.10 34.65 80.10 34.34ZM80.11 28.30L80.11 28.30Q80.11 27.97 80.31 27.75Q80.50 27.54 80.89 27.54Q81.28 27.54 81.48 27.75Q81.68 27.97 81.68 28.30L81.68 28.30Q81.68 28.62 81.48 28.83Q81.28 29.04 80.89 29.04Q80.50 29.04 80.31 28.83Q80.11 28.62 80.11 28.30ZM93.80 25.05L93.80 26.13L90.60 26.13L90.60 35L89.30 35L89.30 26.13L86.11 26.13L86.11 25.05L93.80 25.05ZM95.16 27.60L97.01 33.15L98.73 27.60L100.09 27.60L97.11 36.14Q96.42 37.99 94.92 37.99L94.92 37.99L94.68 37.97L94.21 37.88L94.21 36.85L94.55 36.88Q95.19 36.88 95.55 36.62Q95.91 36.36 96.14 35.67L96.14 35.67L96.42 34.92L93.78 27.60L95.16 27.60ZM107.46 31.27L107.46 31.38Q107.46 33.07 106.69 34.10Q105.92 35.14 104.60 35.14L104.60 35.14Q103.25 35.14 102.48 34.28L102.48 34.28L102.48 37.84L101.21 37.84L101.21 27.60L102.37 27.60L102.43 28.42Q103.20 27.47 104.58 27.47L104.58 27.47Q105.91 27.47 106.69 28.47Q107.46 29.48 107.46 31.27L107.46 31.27ZM106.20 31.24L106.20 31.24Q106.20 29.99 105.66 29.26Q105.13 28.54 104.20 28.54L104.20 28.54Q103.05 28.54 102.48 29.56L102.48 29.56L102.48 33.09Q103.05 34.10 104.21 34.10L104.21 34.10Q105.12 34.10 105.66 33.38Q106.20 32.66 106.20 31.24ZM112.14 35.14L112.14 35.14Q110.63 35.14 109.69 34.15Q108.75 33.16 108.75 31.51L108.75 31.51L108.75 31.27Q108.75 30.17 109.17 29.31Q109.59 28.44 110.34 27.96Q111.10 27.47 111.98 27.47L111.98 27.47Q113.42 27.47 114.22 28.42Q115.02 29.37 115.02 31.14L115.02 31.14L115.02 31.66L110.01 31.66Q110.04 32.76 110.65 33.43Q111.26 34.10 112.21 34.10L112.21 34.10Q112.88 34.10 113.34 33.83Q113.81 33.56 114.15 33.11L114.15 33.11L114.93 33.71Q114.00 35.14 112.14 35.14ZM111.98 28.51L111.98 28.51Q111.21 28.51 110.70 29.06Q110.18 29.62 110.05 30.63L110.05 30.63L113.76 30.63L113.76 30.53Q113.70 29.57 113.24 29.04Q112.77 28.51 111.98 28.51Z"/>
                <path fill="#000000FF" stroke="#000000FF" stroke-linecap="round" stroke-linejoin="round" stroke-width="0.1"   d=""/>
                <path fill="#000000FF" stroke="#000000FF" stroke-linecap="round" stroke-linejoin="round" stroke-width="0.1"   d=""/>
                <path fill="#000000FF" stroke="#000000FF" stroke-linecap="round" stroke-linejoin="round" stroke-width="0.1"   d="M11.05 44.26L11.05 45.29L7.72 45.29L7.72 44.26L11.05 44.26ZM21.64 49L20.32 49Q20.21 48.78 20.14 48.22L20.14 48.22Q19.26 49.14 18.03 49.14L18.03 49.14Q16.94 49.14 16.24 48.52Q15.54 47.90 15.54 46.95L15.54 46.95Q15.54 45.79 16.42 45.15Q17.30 44.52 18.89 44.52L18.89 44.52L20.12 44.52L20.12 43.93Q20.12 43.27 19.72 42.88Q19.33 42.49 18.55 42.49L18.55 42.49Q17.88 42.49 17.42 42.83Q16.96 43.17 16.96 43.65L16.96 43.65L15.69 43.65Q15.69 43.10 16.08 42.58Q16.48 42.07 17.15 41.77Q17.82 41.47 18.63 41.47L18.63 41.47Q19.91 41.47 20.63 42.11Q21.36 42.75 21.38 43.87L21.38 43.87L21.38 47.27Q21.38 48.29 21.64 48.89L21.64 48.89L21.64 49ZM18.22 48.04L18.22 48.04Q18.81 48.04 19.35 47.73Q19.88 47.42 20.12 46.93L20.12 46.93L20.12 45.41L19.13 45.41Q16.80 45.41 16.80 46.77L16.80 46.77Q16.80 47.37 17.20 47.70Q17.60 48.04 18.22 48.04ZM23.82 39.81L25.08 39.81L25.08 41.60L26.46 41.60L26.46 42.58L25.08 42.58L25.08 47.17Q25.08 47.61 25.27 47.83Q25.45 48.06 25.90 48.06L25.90 48.06Q26.11 48.06 26.50 47.97L26.50 47.97L26.50 49Q26.00 49.14 25.53 49.14L25.53 49.14Q24.68 49.14 24.25 48.62Q23.82 48.11 23.82 47.17L23.82 47.17L23.82 42.58L22.47 42.58L22.47 41.60L23.82 41.60L23.82 39.81ZM28.39 39.81L29.66 39.81L29.66 41.60L31.04 41.60L31.04 42.58L29.66 42.58L29.66 47.17Q29.66 47.61 29.84 47.83Q30.02 48.06 30.47 48.06L30.47 48.06Q30.69 48.06 31.07 47.97L31.07 47.97L31.07 49Q30.57 49.14 30.10 49.14L30.10 49.14Q29.25 49.14 28.82 48.62Q28.39 48.11 28.39 47.17L28.39 47.17L28.39 42.58L27.04 42.58L27.04 41.60L28.39 41.60L28.39 39.81ZM36.09 41.56L36.09 42.74Q35.80 42.69 35.47 42.69L35.47 42.69Q34.22 42.69 33.78 43.75L33.78 43.75L33.78 49L32.51 49L32.51 41.60L33.74 41.60L33.76 42.46Q34.39 41.47 35.53 41.47L35.53 41.47Q35.90 41.47 36.09 41.56L36.09 41.56ZM38.62 41.60L38.62 49L37.36 49L37.36 41.60L38.62 41.60ZM37.26 39.64L37.26 39.64Q37.26 39.33 37.44 39.12Q37.63 38.91 38.00 38.91Q38.37 38.91 38.56 39.12Q38.75 39.33 38.75 39.64Q38.75 39.95 38.56 40.15Q38.37 40.36 38.00 40.36Q37.63 40.36 37.44 40.15Q37.26 39.95 37.26 39.64ZM46.91 45.27L46.91 45.38Q46.91 47.08 46.13 48.11Q45.35 49.14 44.04 49.14L44.04 49.14Q42.64 49.14 41.87 48.15L41.87 48.15L41.81 49L40.65 49L40.65 38.50L41.91 38.50L41.91 42.42Q42.68 41.47 44.02 41.47Q45.37 41.47 46.14 42.49Q46.91 43.50 46.91 45.27L46.91 45.27ZM45.64 45.24L45.64 45.24Q45.64 43.95 45.15 43.24Q44.65 42.54 43.71 42.54L43.71 42.54Q42.46 42.54 41.91 43.70L41.91 43.70L41.91 46.90Q42.49 48.06 43.72 48.06L43.72 48.06Q44.63 48.06 45.14 47.36Q45.64 46.66 45.64 45.24ZM53.10 49L53.07 48.27Q52.33 49.14 50.90 49.14L50.90 49.14Q49.72 49.14 49.10 48.45Q48.48 47.76 48.47 46.42L48.47 46.42L48.47 41.60L49.74 41.60L49.74 46.38Q49.74 48.06 51.11 48.06L51.11 48.06Q52.56 48.06 53.03 46.98L53.03 46.98L53.03 41.60L54.30 41.60L54.30 49L53.10 49ZM56.67 39.81L57.94 39.81L57.94 41.60L59.32 41.60L59.32 42.58L57.94 42.58L57.94 47.17Q57.94 47.61 58.12 47.83Q58.30 48.06 58.75 48.06L58.75 48.06Q58.97 48.06 59.35 47.97L59.35 47.97L59.35 49Q58.85 49.14 58.38 49.14L58.38 49.14Q57.53 49.14 57.10 48.62Q56.67 48.11 56.67 47.17L56.67 47.17L56.67 42.58L55.32 42.58L55.32 41.60L56.67 41.60L56.67 39.81ZM63.86 49.14L63.86 49.14Q62.36 49.14 61.42 48.15Q60.47 47.16 60.47 45.51L60.47 45.51L60.47 45.27Q60.47 44.17 60.89 43.31Q61.31 42.44 62.07 41.96Q62.82 41.47 63.71 41.47L63.71 41.47Q65.15 41.47 65.95 42.42Q66.75 43.37 66.75 45.14L66.75 45.14L66.75 45.66L61.74 45.66Q61.76 46.76 62.38 47.43Q62.99 48.10 63.93 48.10L63.93 48.10Q64.60 48.10 65.07 47.83Q65.53 47.56 65.88 47.11L65.88 47.11L66.65 47.71Q65.72 49.14 63.86 49.14ZM63.71 42.51L63.71 42.51Q62.94 42.51 62.42 43.06Q61.90 43.62 61.78 44.63L61.78 44.63L65.48 44.63L65.48 44.53Q65.43 43.57 64.96 43.04Q64.50 42.51 63.71 42.51ZM69.92 44.44L69.92 43.41L70.87 43.41Q71.76 43.39 72.28 42.94Q72.79 42.48 72.79 41.70L72.79 41.70Q72.79 39.95 71.05 39.95L71.05 39.95Q70.23 39.95 69.74 40.42Q69.25 40.89 69.25 41.66L69.25 41.66L67.98 41.66Q67.98 40.48 68.85 39.69Q69.71 38.91 71.05 38.91L71.05 38.91Q72.46 38.91 73.25 39.66Q74.05 40.40 74.05 41.73L74.05 41.73Q74.05 42.38 73.63 42.98Q73.21 43.59 72.49 43.89L72.49 43.89Q73.31 44.15 73.76 44.75Q74.21 45.36 74.21 46.22L74.21 46.22Q74.21 47.56 73.33 48.35Q72.46 49.14 71.05 49.14Q69.65 49.14 68.77 48.38Q67.90 47.62 67.90 46.38L67.90 46.38L69.17 46.38Q69.17 47.16 69.68 47.63Q70.19 48.10 71.05 48.10L71.05 48.10Q71.97 48.10 72.46 47.63Q72.94 47.15 72.94 46.25L72.94 46.25Q72.94 45.38 72.41 44.92Q71.87 44.45 70.87 44.44L70.87 44.44L69.92 44.44ZM76.03 48.34L76.03 48.34Q76.03 48.01 76.23 47.79Q76.42 47.57 76.81 47.57Q77.20 47.57 77.40 47.79Q77.60 48.01 77.60 48.34L77.60 48.34Q77.60 48.65 77.40 48.86Q77.20 49.08 76.81 49.08Q76.42 49.08 76.23 48.86Q76.03 48.65 76.03 48.34ZM76.04 42.30L76.04 42.30Q76.04 41.97 76.23 41.75Q76.43 41.54 76.82 41.54Q77.21 41.54 77.41 41.75Q77.61 41.97 77.61 42.30L77.61 42.30Q77.61 42.62 77.41 42.83Q77.21 43.04 76.82 43.04Q76.43 43.04 76.23 42.83Q76.04 42.62 76.04 42.30ZM89.73 39.05L89.73 40.13L86.53 40.13L86.53 49L85.22 49L85.22 40.13L82.03 40.13L82.03 39.05L89.73 39.05ZM91.09 41.60L92.94 47.15L94.66 41.60L96.01 41.60L93.04 50.14Q92.35 51.99 90.84 51.99L90.84 51.99L90.60 51.97L90.13 51.88L90.13 50.85L90.47 50.88Q91.12 50.88 91.48 50.62Q91.83 50.36 92.07 49.67L92.07 49.67L92.35 48.92L89.71 41.60L91.09 41.60ZM103.39 45.27L103.39 45.38Q103.39 47.07 102.62 48.10Q101.84 49.14 100.52 49.14L100.52 49.14Q99.18 49.14 98.40 48.28L98.40 48.28L98.40 51.84L97.14 51.84L97.14 41.60L98.29 41.60L98.36 42.42Q99.13 41.47 100.50 41.47L100.50 41.47Q101.84 41.47 102.61 42.47Q103.39 43.48 103.39 45.27L103.39 45.27ZM102.12 45.24L102.12 45.24Q102.12 43.99 101.59 43.26Q101.06 42.54 100.13 42.54L100.13 42.54Q98.98 42.54 98.40 43.56L98.40 43.56L98.40 47.09Q98.97 48.10 100.14 48.10L100.14 48.10Q101.05 48.10 101.59 47.38Q102.12 46.66 102.12 45.24ZM108.06 49.14L108.06 49.14Q106.56 49.14 105.62 48.15Q104.67 47.16 104.67 45.51L104.67 45.51L104.67 45.27Q104.67 44.17 105.09 43.31Q105.51 42.44 106.27 41.96Q107.02 41.47 107.91 41.47L107.91 41.47Q109.35 41.47 110.15 42.42Q110.95 43.37 110.95 45.14L110.95 45.14L110.95 45.66L105.94 45.66Q105.96 46.76 106.58 47.43Q107.19 48.10 108.13 48.10L108.13 48.10Q108.80 48.10 109.27 47.83Q109.73 47.56 110.08 47.11L110.08 47.11L110.85 47.71Q109.92 49.14 108.06 49.14ZM107.91 42.51L107.91 42.51Q107.14 42.51 106.62 43.06Q106.10 43.62 105.98 44.63L105.98 44.63L109.68 44.63L109.68 44.53Q109.63 43.57 109.16 43.04Q108.70 42.51 107.91 42.51Z"/>
            </g>
        </g>
    </g>
</g>
</svg>