<svg xmlns="http://www.w3.org/2000/svg" version="1.1" xmlns:xlink="http://www.w3.org/1999/xlink" xmlns:svgjs="http://svgjs.dev/svgjs" width="190" height="110" viewbox="0 0 190 110"   shape-rendering="geometricPrecision">
<g id="be60c52967414a1fb43ee165137db5ea" transform="translate(5, 5) ">
    <path fill="#FFFFFFFF" stroke="#323232FF" stroke-width="2"  d="M0 0L0 100L180 100L180 0L0 0ZM139.5 9L139.5 13L146.7 13L146.7 9L139.5 9ZM139.5 17L139.5 21L146.7 21L146.7 17L139.5 17ZM143.1 5L143.1 9M143.1 13L143.1 17M143.1 21L143.1 25L175.5 25L175.5 5L143.1 5"/>    
    <g transform="matrix(1.00, 0.00, 0.00, 1.00, 0.00, 0.00)">
        <path fill="#000000FF" stroke="#000000FF" stroke-linecap="round" stroke-linejoin="round" stroke-width="0.1"  transform="translate(6.0), skewX(-7)" d="M47.44 42.83L43.16 44.60L47.44 46.33L47.44 47.67L41.84 45.08L41.84 44.08L47.44 41.49L47.44 42.83ZM54.55 42.83L50.27 44.60L54.55 46.33L54.55 47.67L48.96 45.08L48.96 44.08L54.55 41.49L54.55 42.83ZM63.19 49L62.24 46.40L58.07 46.40L57.13 49L55.78 49L59.58 39.05L60.73 39.05L64.53 49L63.19 49ZM60.15 40.67L58.46 45.32L61.85 45.32L60.15 40.67ZM65.67 41.60L66.87 41.60L66.91 42.53Q67.76 41.47 69.13 41.47L69.13 41.47Q71.47 41.47 71.49 44.11L71.49 44.11L71.49 49L70.23 49L70.23 44.11Q70.22 43.31 69.86 42.92Q69.50 42.54 68.74 42.54L68.74 42.54Q68.13 42.54 67.66 42.87Q67.20 43.20 66.94 43.73L66.94 43.73L66.94 49L65.67 49L65.67 41.60ZM73.40 41.60L74.60 41.60L74.64 42.53Q75.48 41.47 76.85 41.47L76.85 41.47Q79.20 41.47 79.22 44.11L79.22 44.11L79.22 49L77.95 49L77.95 44.11Q77.94 43.31 77.59 42.92Q77.23 42.54 76.47 42.54L76.47 42.54Q75.85 42.54 75.39 42.87Q74.92 43.20 74.66 43.73L74.66 43.73L74.66 49L73.40 49L73.40 41.60ZM80.79 45.32L80.79 45.23Q80.79 44.15 81.22 43.28Q81.64 42.41 82.41 41.94Q83.17 41.47 84.15 41.47L84.15 41.47Q85.66 41.47 86.59 42.51Q87.52 43.56 87.52 45.29L87.52 45.29L87.52 45.38Q87.52 46.46 87.11 47.32Q86.69 48.18 85.93 48.66Q85.16 49.14 84.16 49.14L84.16 49.14Q82.65 49.14 81.72 48.09Q80.79 47.04 80.79 45.32L80.79 45.32ZM82.06 45.38L82.06 45.38Q82.06 46.61 82.63 47.36Q83.20 48.10 84.16 48.10L84.16 48.10Q85.12 48.10 85.69 47.35Q86.26 46.59 86.26 45.23L86.26 45.23Q86.26 44.02 85.68 43.26Q85.10 42.51 84.15 42.51L84.15 42.51Q83.21 42.51 82.63 43.25Q82.06 44.00 82.06 45.38ZM89.56 39.81L90.82 39.81L90.82 41.60L92.20 41.60L92.20 42.58L90.82 42.58L90.82 47.17Q90.82 47.61 91.01 47.83Q91.19 48.06 91.64 48.06L91.64 48.06Q91.86 48.06 92.24 47.97L92.24 47.97L92.24 49Q91.74 49.14 91.27 49.14L91.27 49.14Q90.42 49.14 89.99 48.62Q89.56 48.11 89.56 47.17L89.56 47.17L89.56 42.58L88.21 42.58L88.21 41.60L89.56 41.60L89.56 39.81ZM99.57 49L98.25 49Q98.14 48.78 98.07 48.22L98.07 48.22Q97.19 49.14 95.96 49.14L95.96 49.14Q94.87 49.14 94.17 48.52Q93.47 47.90 93.47 46.95L93.47 46.95Q93.47 45.79 94.35 45.15Q95.23 44.52 96.82 44.52L96.82 44.52L98.05 44.52L98.05 43.93Q98.05 43.27 97.65 42.88Q97.26 42.49 96.48 42.49L96.48 42.49Q95.81 42.49 95.35 42.83Q94.89 43.17 94.89 43.65L94.89 43.65L93.62 43.65Q93.62 43.10 94.01 42.58Q94.41 42.07 95.08 41.77Q95.75 41.47 96.56 41.47L96.56 41.47Q97.84 41.47 98.56 42.11Q99.29 42.75 99.31 43.87L99.31 43.87L99.31 47.27Q99.31 48.29 99.57 48.89L99.57 48.89L99.57 49ZM96.15 48.04L96.15 48.04Q96.74 48.04 97.28 47.73Q97.81 47.42 98.05 46.93L98.05 46.93L98.05 45.41L97.06 45.41Q94.73 45.41 94.73 46.77L94.73 46.77Q94.73 47.37 95.13 47.70Q95.53 48.04 96.15 48.04ZM101.75 39.81L103.01 39.81L103.01 41.60L104.39 41.60L104.39 42.58L103.01 42.58L103.01 47.17Q103.01 47.61 103.20 47.83Q103.38 48.06 103.83 48.06L103.83 48.06Q104.04 48.06 104.43 47.97L104.43 47.97L104.43 49Q103.93 49.14 103.46 49.14L103.46 49.14Q102.61 49.14 102.18 48.62Q101.75 48.11 101.75 47.17L101.75 47.17L101.75 42.58L100.40 42.58L100.40 41.60L101.75 41.60L101.75 39.81ZM107.24 41.60L107.24 49L105.98 49L105.98 41.60L107.24 41.60ZM105.88 39.64L105.88 39.64Q105.88 39.33 106.06 39.12Q106.25 38.91 106.62 38.91Q106.99 38.91 107.18 39.12Q107.37 39.33 107.37 39.64Q107.37 39.95 107.18 40.15Q106.99 40.36 106.62 40.36Q106.25 40.36 106.06 40.15Q105.88 39.95 105.88 39.64ZM108.93 45.32L108.93 45.23Q108.93 44.15 109.36 43.28Q109.79 42.41 110.55 41.94Q111.31 41.47 112.29 41.47L112.29 41.47Q113.80 41.47 114.73 42.51Q115.67 43.56 115.67 45.29L115.67 45.29L115.67 45.38Q115.67 46.46 115.25 47.32Q114.84 48.18 114.07 48.66Q113.30 49.14 112.30 49.14L112.30 49.14Q110.80 49.14 109.87 48.09Q108.93 47.04 108.93 45.32L108.93 45.32ZM110.20 45.38L110.20 45.38Q110.20 46.61 110.77 47.36Q111.35 48.10 112.30 48.10L112.30 48.10Q113.27 48.10 113.83 47.35Q114.40 46.59 114.40 45.23L114.40 45.23Q114.40 44.02 113.82 43.26Q113.25 42.51 112.29 42.51L112.29 42.51Q111.35 42.51 110.78 43.25Q110.20 44.00 110.20 45.38ZM117.25 41.60L118.45 41.60L118.49 42.53Q119.34 41.47 120.70 41.47L120.70 41.47Q123.05 41.47 123.07 44.11L123.07 44.11L123.07 49L121.80 49L121.80 44.11Q121.80 43.31 121.44 42.92Q121.08 42.54 120.32 42.54L120.32 42.54Q119.71 42.54 119.24 42.87Q118.78 43.20 118.52 43.73L118.52 43.73L118.52 49L117.25 49L117.25 41.60ZM124.94 46.35L129.45 44.56L124.94 42.79L124.94 41.49L130.77 44.07L130.77 45.07L124.94 47.66L124.94 46.35ZM132.25 46.35L136.77 44.56L132.25 42.79L132.25 41.49L138.09 44.07L138.09 45.07L132.25 47.66L132.25 46.35Z"/>
        <path fill="#000000FF" stroke="#000000FF" stroke-linecap="round" stroke-linejoin="round" stroke-width="0.1"  transform="translate(5.8), skewX(-7)" d=""/>
        <path fill="#000000FF" stroke="#000000FF" stroke-linecap="round" stroke-linejoin="round" stroke-width="0.1"  transform="translate(7.5), skewX(-7)" d=""/>
        <path fill="#000000FF" stroke="#000000FF" stroke-linecap="round" stroke-linejoin="round" stroke-width="0.5"   d="M60.83 59.84L62.15 59.84Q61.97 61.42 60.99 62.28Q60.01 63.14 58.38 63.14L58.38 63.14Q56.62 63.14 55.55 61.87Q54.49 60.61 54.49 58.49L54.49 58.49L54.49 57.53Q54.49 56.14 54.99 55.09Q55.48 54.04 56.39 53.47Q57.30 52.91 58.50 52.91L58.50 52.91Q60.08 52.91 61.04 53.80Q62.00 54.68 62.15 56.25L62.15 56.25L60.83 56.25Q60.66 55.06 60.09 54.52Q59.52 53.99 58.50 53.99L58.50 53.99Q57.24 53.99 56.52 54.92Q55.81 55.85 55.81 57.57L55.81 57.57L55.81 58.53Q55.81 60.15 56.49 61.11Q57.16 62.06 58.38 62.06L58.38 62.06Q59.47 62.06 60.06 61.57Q60.64 61.07 60.83 59.84L60.83 59.84ZM63.41 59.32L63.41 59.23Q63.41 58.15 63.84 57.28Q64.27 56.41 65.03 55.94Q65.79 55.47 66.77 55.47L66.77 55.47Q68.28 55.47 69.21 56.51Q70.15 57.56 70.15 59.29L70.15 59.29L70.15 59.38Q70.15 60.46 69.73 61.32Q69.32 62.18 68.55 62.66Q67.78 63.14 66.78 63.14L66.78 63.14Q65.28 63.14 64.34 62.09Q63.41 61.04 63.41 59.32L63.41 59.32ZM64.68 59.38L64.68 59.38Q64.68 60.61 65.25 61.36Q65.82 62.10 66.78 62.10L66.78 62.10Q67.75 62.10 68.31 61.35Q68.88 60.59 68.88 59.23L68.88 59.23Q68.88 58.02 68.30 57.26Q67.73 56.51 66.77 56.51L66.77 56.51Q65.83 56.51 65.26 57.25Q64.68 58.00 64.68 59.38ZM71.72 55.60L72.92 55.60L72.95 56.42Q73.77 55.47 75.15 55.47L75.15 55.47Q76.70 55.47 77.26 56.66L77.26 56.66Q77.63 56.12 78.22 55.79Q78.81 55.47 79.62 55.47L79.62 55.47Q82.05 55.47 82.09 58.04L82.09 58.04L82.09 63L80.83 63L80.83 58.12Q80.83 57.33 80.47 56.93Q80.10 56.54 79.25 56.54L79.25 56.54Q78.55 56.54 78.08 56.96Q77.62 57.38 77.54 58.09L77.54 58.09L77.54 63L76.27 63L76.27 58.15Q76.27 56.54 74.69 56.54L74.69 56.54Q73.45 56.54 72.99 57.60L72.99 57.60L72.99 63L71.72 63L71.72 55.60ZM90.25 59.27L90.25 59.38Q90.25 61.07 89.48 62.10Q88.70 63.14 87.39 63.14L87.39 63.14Q86.04 63.14 85.27 62.28L85.27 62.28L85.27 65.84L84.00 65.84L84.00 55.60L85.16 55.60L85.22 56.42Q85.99 55.47 87.36 55.47L87.36 55.47Q88.70 55.47 89.47 56.47Q90.25 57.48 90.25 59.27L90.25 59.27ZM88.98 59.24L88.98 59.24Q88.98 57.99 88.45 57.26Q87.92 56.54 86.99 56.54L86.99 56.54Q85.84 56.54 85.27 57.56L85.27 57.56L85.27 61.09Q85.83 62.10 87.00 62.10L87.00 62.10Q87.91 62.10 88.45 61.38Q88.98 60.66 88.98 59.24ZM91.52 59.32L91.52 59.23Q91.52 58.15 91.95 57.28Q92.38 56.41 93.14 55.94Q93.90 55.47 94.88 55.47L94.88 55.47Q96.39 55.47 97.32 56.51Q98.25 57.56 98.25 59.29L98.25 59.29L98.25 59.38Q98.25 60.46 97.84 61.32Q97.43 62.18 96.66 62.66Q95.89 63.14 94.89 63.14L94.89 63.14Q93.39 63.14 92.45 62.09Q91.52 61.04 91.52 59.32L91.52 59.32ZM92.79 59.38L92.79 59.38Q92.79 60.61 93.36 61.36Q93.93 62.10 94.89 62.10L94.89 62.10Q95.85 62.10 96.42 61.35Q96.99 60.59 96.99 59.23L96.99 59.23Q96.99 58.02 96.41 57.26Q95.83 56.51 94.88 56.51L94.88 56.51Q93.94 56.51 93.37 57.25Q92.79 58.00 92.79 59.38ZM99.84 55.60L101.04 55.60L101.08 56.53Q101.93 55.47 103.29 55.47L103.29 55.47Q105.64 55.47 105.66 58.11L105.66 58.11L105.66 63L104.39 63L104.39 58.11Q104.39 57.31 104.03 56.92Q103.67 56.54 102.91 56.54L102.91 56.54Q102.29 56.54 101.83 56.87Q101.36 57.20 101.10 57.73L101.10 57.73L101.10 63L99.84 63L99.84 55.60ZM110.63 63.14L110.63 63.14Q109.13 63.14 108.19 62.15Q107.24 61.16 107.24 59.51L107.24 59.51L107.24 59.27Q107.24 58.17 107.66 57.31Q108.08 56.44 108.84 55.96Q109.60 55.47 110.48 55.47L110.48 55.47Q111.92 55.47 112.72 56.42Q113.52 57.37 113.52 59.14L113.52 59.14L113.52 59.66L108.51 59.66Q108.54 60.76 109.15 61.43Q109.76 62.10 110.70 62.10L110.70 62.10Q111.37 62.10 111.84 61.83Q112.30 61.56 112.65 61.11L112.65 61.11L113.42 61.71Q112.49 63.14 110.63 63.14ZM110.48 56.51L110.48 56.51Q109.71 56.51 109.19 57.06Q108.67 57.62 108.55 58.63L108.55 58.63L112.25 58.63L112.25 58.53Q112.20 57.57 111.73 57.04Q111.27 56.51 110.48 56.51ZM114.98 55.60L116.18 55.60L116.22 56.53Q117.07 55.47 118.43 55.47L118.43 55.47Q120.78 55.47 120.80 58.11L120.80 58.11L120.80 63L119.53 63L119.53 58.11Q119.53 57.31 119.17 56.92Q118.81 56.54 118.05 56.54L118.05 56.54Q117.44 56.54 116.97 56.87Q116.51 57.20 116.25 57.73L116.25 57.73L116.25 63L114.98 63L114.98 55.60ZM123.16 53.81L124.42 53.81L124.42 55.60L125.80 55.60L125.80 56.58L124.42 56.58L124.42 61.17Q124.42 61.61 124.61 61.83Q124.79 62.06 125.24 62.06L125.24 62.06Q125.45 62.06 125.84 61.97L125.84 61.97L125.84 63Q125.34 63.14 124.87 63.14L124.87 63.14Q124.02 63.14 123.59 62.62Q123.16 62.11 123.16 61.17L123.16 61.17L123.16 56.58L121.81 56.58L121.81 55.60L123.16 55.60L123.16 53.81Z"/>
    </g>
</g>
</svg>