<svg xmlns="http://www.w3.org/2000/svg" version="1.1" xmlns:xlink="http://www.w3.org/1999/xlink" xmlns:svgjs="http://svgjs.dev/svgjs" width="100" height="100" viewbox="0 0 100 100"   shape-rendering="geometricPrecision">
<g transform="translate(0, 30) ">
    <path fill="none" stroke="#323232FF" stroke-width="2" stroke-dasharray="10, 2" d="M0 0L90 0"/>
    <path fill="none" stroke="#323232FF" stroke-width="2" stroke-dasharray="10, 2" d="M0 0L90 0"/>
    <path fill="#323232FF" d="M90 0L78 -6L88.8 0L78 6L90 0"/>
    <path fill="none" stroke="#323232FF" stroke-width="2"  d="M90 0L78 -6L88.8 0L78 6L90 0"/>
    <g>
        <g transform="translate(-5, -25) ">
            <path fill="#00000000" stroke="#00000000" stroke-width="2"  d="M0 0L0 30L100 30L100 0L0 0Z"/>    
            <g transform="matrix(1.00, 0.00, 0.00, 1.00, 0.00, 0.00)">
                <path fill="#000000FF" stroke="#000000FF" stroke-linecap="round" stroke-linejoin="round" stroke-width="0.1"   d="M20.67 14.83L16.39 16.60L20.67 18.33L20.67 19.67L15.08 17.08L15.08 16.08L20.67 13.49L20.67 14.83ZM27.79 14.83L23.51 16.60L27.79 18.33L27.79 19.67L22.19 17.08L22.19 16.08L27.79 13.49L27.79 14.83ZM32.85 21.14L32.85 21.14Q31.34 21.14 30.40 20.15Q29.45 19.16 29.45 17.51L29.45 17.51L29.45 17.27Q29.45 16.17 29.88 15.31Q30.30 14.44 31.05 13.96Q31.81 13.47 32.69 13.47L32.69 13.47Q34.13 13.47 34.93 14.42Q35.73 15.37 35.73 17.14L35.73 17.14L35.73 17.66L30.72 17.66Q30.75 18.76 31.36 19.43Q31.97 20.10 32.91 20.10L32.91 20.10Q33.58 20.10 34.05 19.83Q34.51 19.56 34.86 19.11L34.86 19.11L35.63 19.71Q34.70 21.14 32.85 21.14ZM32.69 14.51L32.69 14.51Q31.92 14.51 31.40 15.06Q30.88 15.62 30.76 16.63L30.76 16.63L34.47 16.63L34.47 16.53Q34.41 15.57 33.95 15.04Q33.48 14.51 32.69 14.51ZM38.05 13.60L39.67 16.30L41.31 13.60L42.79 13.60L40.37 17.26L42.87 21L41.40 21L39.69 18.23L37.99 21L36.52 21L39.01 17.26L36.59 13.60L38.05 13.60ZM44.58 11.81L45.85 11.81L45.85 13.60L47.23 13.60L47.23 14.58L45.85 14.58L45.85 19.17Q45.85 19.61 46.03 19.83Q46.22 20.06 46.66 20.06L46.66 20.06Q46.88 20.06 47.26 19.97L47.26 19.97L47.26 21Q46.76 21.14 46.29 21.14L46.29 21.14Q45.44 21.14 45.01 20.62Q44.58 20.11 44.58 19.17L44.58 19.17L44.58 14.58L43.24 14.58L43.24 13.60L44.58 13.60L44.58 11.81ZM51.77 21.14L51.77 21.14Q50.27 21.14 49.33 20.15Q48.38 19.16 48.38 17.51L48.38 17.51L48.38 17.27Q48.38 16.17 48.80 15.31Q49.22 14.44 49.98 13.96Q50.73 13.47 51.62 13.47L51.62 13.47Q53.06 13.47 53.86 14.42Q54.66 15.37 54.66 17.14L54.66 17.14L54.66 17.66L49.65 17.66Q49.68 18.76 50.29 19.43Q50.90 20.10 51.84 20.10L51.84 20.10Q52.51 20.10 52.98 19.83Q53.44 19.56 53.79 19.11L53.79 19.11L54.56 19.71Q53.63 21.14 51.77 21.14ZM51.62 14.51L51.62 14.51Q50.85 14.51 50.33 15.06Q49.81 15.62 49.69 16.63L49.69 16.63L53.39 16.63L53.39 16.53Q53.34 15.57 52.87 15.04Q52.41 14.51 51.62 14.51ZM56.12 13.60L57.32 13.60L57.36 14.53Q58.21 13.47 59.57 13.47L59.57 13.47Q61.92 13.47 61.94 16.11L61.94 16.11L61.94 21L60.67 21L60.67 16.11Q60.67 15.31 60.31 14.92Q59.95 14.54 59.19 14.54L59.19 14.54Q58.58 14.54 58.11 14.87Q57.65 15.20 57.39 15.73L57.39 15.73L57.39 21L56.12 21L56.12 13.60ZM63.54 17.34L63.54 17.24Q63.54 15.54 64.35 14.50Q65.15 13.47 66.46 13.47L66.46 13.47Q67.76 13.47 68.52 14.36L68.52 14.36L68.52 10.50L69.78 10.50L69.78 21L68.62 21L68.56 20.21Q67.80 21.14 66.44 21.14L66.44 21.14Q65.16 21.14 64.35 20.08Q63.54 19.03 63.54 17.34L63.54 17.34ZM64.80 17.38L64.80 17.38Q64.80 18.64 65.32 19.35Q65.84 20.06 66.76 20.06L66.76 20.06Q67.96 20.06 68.52 18.98L68.52 18.98L68.52 15.59Q67.95 14.54 66.77 14.54L66.77 14.54Q65.84 14.54 65.32 15.26Q64.80 15.98 64.80 17.38ZM71.70 18.35L76.22 16.56L71.70 14.79L71.70 13.49L77.54 16.07L77.54 17.07L71.70 19.66L71.70 18.35ZM79.02 18.35L83.53 16.56L79.02 14.79L79.02 13.49L84.85 16.07L84.85 17.07L79.02 19.66L79.02 18.35Z"/>
            </g>
        </g>
    </g>
</g>
</svg>