<svg xmlns="http://www.w3.org/2000/svg" version="1.1" xmlns:xlink="http://www.w3.org/1999/xlink" xmlns:svgjs="http://svgjs.dev/svgjs" width="50" height="50" viewbox="0 0 50 50"   shape-rendering="geometricPrecision">
<g id="8f91dd7732bc4810a32a92f5c25bce34" transform="translate(5, 5) ">
    <path fill="#FFFFFFFF" stroke="#323232FF" stroke-width="2"  d="M20 0Q19.509 0 19.0186 0.0240909Q18.5283 0.0481817 18.0397 0.0963055Q17.551 0.144429 17.0654 0.21647Q16.5797 0.28851 16.0982 0.384294Q15.6167 0.480078 15.1404 0.599375Q14.6641 0.718671 14.1943 0.861193Q13.7245 1.00371 13.2622 1.16912Q12.7999 1.33452 12.3463 1.52241Q11.8927 1.7103 11.4489 1.92021Q11.0051 2.13013 10.5721 2.36157Q10.1391 2.59302 9.71795 2.84543Q9.29682 3.09784 8.88859 3.37061Q8.48037 3.64338 8.08601 3.93585Q7.69166 4.22832 7.31213 4.53979Q6.93261 4.85126 6.56882 5.18098Q6.20503 5.51069 5.85786 5.85786Q5.51069 6.20503 5.18098 6.56882Q4.85126 6.93261 4.53979 7.31213Q4.22832 7.69166 3.93585 8.08601Q3.64338 8.48037 3.37061 8.88859Q3.09784 9.29682 2.84543 9.71795Q2.59302 10.1391 2.36157 10.5721Q2.13013 11.0051 1.92021 11.4489Q1.7103 11.8927 1.52241 12.3463Q1.33452 12.7999 1.16912 13.2622Q1.00371 13.7245 0.861193 14.1943Q0.718671 14.6641 0.599375 15.1404Q0.480078 15.6167 0.384294 16.0982Q0.28851 16.5797 0.21647 17.0654Q0.144429 17.551 0.0963055 18.0397Q0.0481817 18.5283 0.0240909 19.0186Q0 19.509 0 20Q0 20.491 0.0240909 20.9814Q0.0481817 21.4717 0.0963055 21.9603Q0.144429 22.449 0.21647 22.9346Q0.28851 23.4203 0.384294 23.9018Q0.480078 24.3833 0.599375 24.8596Q0.718671 25.3359 0.861193 25.8057Q1.00371 26.2755 1.16912 26.7378Q1.33452 27.2001 1.52241 27.6537Q1.7103 28.1073 1.92021 28.5511Q2.13013 28.9949 2.36157 29.4279Q2.59302 29.8609 2.84543 30.2821Q3.09784 30.7032 3.37061 31.1114Q3.64338 31.5196 3.93585 31.914Q4.22832 32.3083 4.53979 32.6879Q4.85126 33.0674 5.18098 33.4312Q5.51069 33.795 5.85786 34.1421Q6.20503 34.4893 6.56882 34.819Q6.93261 35.1487 7.31213 35.4602Q7.69166 35.7717 8.08601 36.0642Q8.48037 36.3566 8.88859 36.6294Q9.29682 36.9022 9.71795 37.1546Q10.1391 37.407 10.5721 37.6384Q11.0051 37.8699 11.4489 38.0798Q11.8927 38.2897 12.3463 38.4776Q12.7999 38.6655 13.2622 38.8309Q13.7245 38.9963 14.1943 39.1388Q14.6641 39.2813 15.1404 39.4006Q15.6167 39.5199 16.0982 39.6157Q16.5797 39.7115 17.0654 39.7835Q17.551 39.8556 18.0397 39.9037Q18.5283 39.9518 19.0186 39.9759Q19.509 40 20 40Q20.491 40 20.9814 39.9759Q21.4717 39.9518 21.9603 39.9037Q22.449 39.8556 22.9346 39.7835Q23.4203 39.7115 23.9018 39.6157Q24.3833 39.5199 24.8596 39.4006Q25.3359 39.2813 25.8057 39.1388Q26.2755 38.9963 26.7378 38.8309Q27.2001 38.6655 27.6537 38.4776Q28.1073 38.2897 28.5511 38.0798Q28.9949 37.8699 29.4279 37.6384Q29.8609 37.407 30.2821 37.1546Q30.7032 36.9022 31.1114 36.6294Q31.5196 36.3566 31.914 36.0641Q32.3083 35.7717 32.6879 35.4602Q33.0674 35.1487 33.4312 34.819Q33.795 34.4893 34.1421 34.1421Q34.4893 33.795 34.819 33.4312Q35.1487 33.0674 35.4602 32.6879Q35.7717 32.3083 36.0642 31.914Q36.3566 31.5196 36.6294 31.1114Q36.9022 30.7032 37.1546 30.2821Q37.407 29.8609 37.6384 29.4279Q37.8699 28.9949 38.0798 28.5511Q38.2897 28.1073 38.4776 27.6537Q38.6655 27.2001 38.8309 26.7378Q38.9963 26.2755 39.1388 25.8057Q39.2813 25.3359 39.4006 24.8596Q39.5199 24.3833 39.6157 23.9018Q39.7115 23.4203 39.7835 22.9346Q39.8556 22.449 39.9037 21.9603Q39.9518 21.4717 39.9759 20.9814Q40 20.491 40 20Q40 19.509 39.9759 19.0186Q39.9518 18.5283 39.9037 18.0397Q39.8556 17.551 39.7835 17.0654Q39.7115 16.5797 39.6157 16.0982Q39.5199 15.6167 39.4006 15.1404Q39.2813 14.6641 39.1388 14.1943Q38.9963 13.7245 38.8309 13.2622Q38.6655 12.7999 38.4776 12.3463Q38.2897 11.8927 38.0798 11.4489Q37.8699 11.0051 37.6384 10.5721Q37.407 10.1391 37.1546 9.71795Q36.9022 9.29682 36.6294 8.88859Q36.3566 8.48037 36.0641 8.08601Q35.7717 7.69166 35.4602 7.31213Q35.1487 6.93261 34.819 6.56882Q34.4893 6.20503 34.1421 5.85786Q33.795 5.51069 33.4312 5.18098Q33.0674 4.85126 32.6879 4.53979Q32.3083 4.22832 31.914 3.93585Q31.5196 3.64338 31.1114 3.37061Q30.7032 3.09784 30.2821 2.84543Q29.8609 2.59302 29.4279 2.36157Q28.9949 2.13013 28.5511 1.92021Q28.1073 1.7103 27.6537 1.52241Q27.2001 1.33452 26.7378 1.16912Q26.2755 1.00371 25.8057 0.861193Q25.3359 0.718671 24.8596 0.599375Q24.3833 0.480078 23.9018 0.384294Q23.4203 0.28851 22.9346 0.21647Q22.449 0.144429 21.9603 0.0963055Q21.4717 0.0481817 20.9814 0.0240909Q20.491 0 20 0Z"/> 
    <path fill="#323232FF" stroke="#323232FF" stroke-width="0"  d="M20 4Q19.6072 4 19.2149 4.01927Q18.8226 4.03855 18.4317 4.07704Q18.0408 4.11554 17.6523 4.17318Q17.2638 4.23081 16.8786 4.30744Q16.4933 4.38406 16.1123 4.4795Q15.7313 4.57494 15.3554 4.68895Q14.9796 4.80297 14.6098 4.93529Q14.2399 5.06762 13.8771 5.21793Q13.5142 5.36824 13.1591 5.53617Q12.8041 5.70411 12.4577 5.88926Q12.1113 6.07441 11.7744 6.27634Q11.4375 6.47827 11.1109 6.69649Q10.7843 6.9147 10.4688 7.14868Q10.1533 7.38266 9.84971 7.63183Q9.54609 7.88101 9.25506 8.14478Q8.96403 8.40856 8.68629 8.68629Q8.40856 8.96403 8.14478 9.25506Q7.88101 9.54609 7.63183 9.84971Q7.38266 10.1533 7.14868 10.4688Q6.9147 10.7843 6.69649 11.1109Q6.47827 11.4375 6.27634 11.7744Q6.07441 12.1113 5.88926 12.4577Q5.70411 12.8041 5.53617 13.1591Q5.36824 13.5142 5.21793 13.8771Q5.06762 14.2399 4.93529 14.6098Q4.80297 14.9796 4.68895 15.3554Q4.57494 15.7313 4.4795 16.1123Q4.38406 16.4933 4.30744 16.8786Q4.23081 17.2638 4.17318 17.6523Q4.11554 18.0408 4.07704 18.4317Q4.03855 18.8226 4.01927 19.2149Q4 19.6072 4 20Q4 20.3928 4.01927 20.7851Q4.03855 21.1774 4.07704 21.5683Q4.11554 21.9592 4.17318 22.3477Q4.23081 22.7362 4.30744 23.1214Q4.38406 23.5067 4.4795 23.8877Q4.57494 24.2687 4.68895 24.6446Q4.80297 25.0204 4.93529 25.3902Q5.06762 25.7601 5.21793 26.1229Q5.36824 26.4858 5.53617 26.8409Q5.70411 27.1959 5.88926 27.5423Q6.07441 27.8887 6.27634 28.2256Q6.47827 28.5625 6.69649 28.8891Q6.9147 29.2157 7.14868 29.5312Q7.38266 29.8467 7.63183 30.1503Q7.88101 30.4539 8.14478 30.7449Q8.40856 31.036 8.68629 31.3137Q8.96403 31.5914 9.25506 31.8552Q9.54609 32.119 9.84971 32.3682Q10.1533 32.6173 10.4688 32.8513Q10.7843 33.0853 11.1109 33.3035Q11.4375 33.5217 11.7744 33.7237Q12.1113 33.9256 12.4577 34.1107Q12.8041 34.2959 13.1591 34.4638Q13.5142 34.6318 13.8771 34.7821Q14.2399 34.9324 14.6098 35.0647Q14.9796 35.197 15.3554 35.311Q15.7313 35.4251 16.1123 35.5205Q16.4933 35.6159 16.8786 35.6926Q17.2638 35.7692 17.6523 35.8268Q18.0408 35.8845 18.4317 35.923Q18.8226 35.9615 19.2149 35.9807Q19.6072 36 20 36Q20.3928 36 20.7851 35.9807Q21.1774 35.9615 21.5683 35.923Q21.9592 35.8845 22.3477 35.8268Q22.7362 35.7692 23.1214 35.6926Q23.5067 35.6159 23.8877 35.5205Q24.2687 35.4251 24.6446 35.311Q25.0204 35.197 25.3902 35.0647Q25.7601 34.9324 26.1229 34.7821Q26.4858 34.6318 26.8409 34.4638Q27.1959 34.2959 27.5423 34.1107Q27.8887 33.9256 28.2256 33.7237Q28.5625 33.5217 28.8891 33.3035Q29.2157 33.0853 29.5312 32.8513Q29.8467 32.6173 30.1503 32.3682Q30.4539 32.119 30.7449 31.8552Q31.036 31.5914 31.3137 31.3137Q31.5914 31.036 31.8552 30.7449Q32.119 30.4539 32.3682 30.1503Q32.6173 29.8467 32.8513 29.5312Q33.0853 29.2157 33.3035 28.8891Q33.5217 28.5625 33.7237 28.2256Q33.9256 27.8887 34.1107 27.5423Q34.2959 27.1959 34.4638 26.8409Q34.6318 26.4858 34.7821 26.1229Q34.9324 25.7601 35.0647 25.3902Q35.197 25.0204 35.311 24.6446Q35.4251 24.2687 35.5205 23.8877Q35.6159 23.5067 35.6926 23.1214Q35.7692 22.7362 35.8268 22.3477Q35.8845 21.9592 35.923 21.5683Q35.9615 21.1774 35.9807 20.7851Q36 20.3928 36 20Q36 19.6072 35.9807 19.2149Q35.9615 18.8226 35.923 18.4317Q35.8845 18.0408 35.8268 17.6523Q35.7692 17.2638 35.6926 16.8786Q35.6159 16.4933 35.5205 16.1123Q35.4251 15.7313 35.311 15.3554Q35.197 14.9796 35.0647 14.6098Q34.9324 14.2399 34.7821 13.8771Q34.6318 13.5142 34.4638 13.1591Q34.2959 12.8041 34.1107 12.4577Q33.9256 12.1113 33.7237 11.7744Q33.5217 11.4375 33.3035 11.1109Q33.0853 10.7843 32.8513 10.4688Q32.6173 10.1533 32.3682 9.84971Q32.119 9.54609 31.8552 9.25506Q31.5914 8.96403 31.3137 8.68629Q31.036 8.40856 30.7449 8.14478Q30.4539 7.88101 30.1503 7.63183Q29.8467 7.38266 29.5312 7.14868Q29.2157 6.9147 28.8891 6.69649Q28.5625 6.47827 28.2256 6.27634Q27.8887 6.07441 27.5423 5.88926Q27.1959 5.70411 26.8409 5.53617Q26.4858 5.36824 26.1229 5.21793Q25.7601 5.06762 25.3902 4.93529Q25.0204 4.80297 24.6446 4.68895Q24.2687 4.57494 23.8877 4.4795Q23.5067 4.38406 23.1214 4.30744Q22.7362 4.23081 22.3477 4.17318Q21.9592 4.11554 21.5683 4.07704Q21.1774 4.03855 20.7851 4.01927Q20.3928 4 20 4Z"/>   
</g>
</svg>