<svg xmlns="http://www.w3.org/2000/svg" version="1.1" xmlns:xlink="http://www.w3.org/1999/xlink" xmlns:svgjs="http://svgjs.dev/svgjs" width="70" height="70" viewbox="0 0 70 70"   shape-rendering="geometricPrecision">
<g id="e50b334a005b41ae8c95eea1057f46a5" transform="translate(0, 30) ">
    <path fill="none" stroke="#323232FF" stroke-width="2" stroke-dasharray="10, 2" d="M0 0L60 0"/>
    <path fill="none" stroke="#323232FF" stroke-width="2" stroke-dasharray="10, 2" d="M0 0L60 0"/>
    <path fill="#323232FF" d="M60 0L48 -6L58.8 0L48 6L60 0"/>
    <path fill="none" stroke="#323232FF" stroke-width="2"  d="M60 0L48 -6L58.8 0L48 6L60 0"/>
    <g>
        <g id="a31607c26ec44a9899c12fb6987985f6" transform="translate(-20, -25) ">
            <path fill="#00000000" stroke="#00000000" stroke-width="2"  d="M0 0L0 30L100 30L100 0L0 0Z"/>    
            <g transform="matrix(1.00, 0.00, 0.00, 1.00, 0.00, 0.00)">
                <path fill="#000000FF" stroke="#000000FF" stroke-linecap="round" stroke-linejoin="round" stroke-width="0.1"   d="M19.21 14.83L14.94 16.60L19.21 18.33L19.21 19.67L13.62 17.08L13.62 16.08L19.21 13.49L19.21 14.83ZM26.33 14.83L22.05 16.60L26.33 18.33L26.33 19.67L20.74 17.08L20.74 16.08L26.33 13.49L26.33 14.83ZM29.69 13.60L29.69 21L28.43 21L28.43 13.60L29.69 13.60ZM28.33 11.64L28.33 11.64Q28.33 11.33 28.51 11.12Q28.70 10.91 29.07 10.91Q29.44 10.91 29.63 11.12Q29.82 11.33 29.82 11.64Q29.82 11.95 29.63 12.15Q29.44 12.36 29.07 12.36Q28.70 12.36 28.51 12.15Q28.33 11.95 28.33 11.64ZM31.72 13.60L32.91 13.60L32.95 14.53Q33.80 13.47 35.17 13.47L35.17 13.47Q37.51 13.47 37.53 16.11L37.53 16.11L37.53 21L36.27 21L36.27 16.11Q36.26 15.31 35.90 14.92Q35.55 14.54 34.79 14.54L34.79 14.54Q34.17 14.54 33.71 14.87Q33.24 15.20 32.98 15.73L32.98 15.73L32.98 21L31.72 21L31.72 13.60ZM42.41 20.10L42.41 20.10Q43.09 20.10 43.59 19.69Q44.10 19.28 44.15 18.67L44.15 18.67L45.35 18.67Q45.31 19.30 44.91 19.88Q44.51 20.45 43.83 20.79Q43.16 21.14 42.41 21.14L42.41 21.14Q40.90 21.14 40.01 20.13Q39.11 19.12 39.11 17.37L39.11 17.37L39.11 17.16Q39.11 16.08 39.51 15.24Q39.91 14.40 40.65 13.93Q41.39 13.47 42.40 13.47L42.40 13.47Q43.65 13.47 44.47 14.21Q45.29 14.96 45.35 16.15L45.35 16.15L44.15 16.15Q44.10 15.43 43.61 14.97Q43.12 14.51 42.40 14.51L42.40 14.51Q41.44 14.51 40.91 15.20Q40.38 15.89 40.38 17.21L40.38 17.21L40.38 17.45Q40.38 18.72 40.90 19.41Q41.43 20.10 42.41 20.10ZM48.14 10.50L48.14 21L46.88 21L46.88 10.50L48.14 10.50ZM54.76 21L54.73 20.27Q54.00 21.14 52.57 21.14L52.57 21.14Q51.38 21.14 50.77 20.45Q50.15 19.76 50.14 18.42L50.14 18.42L50.14 13.60L51.40 13.60L51.40 18.38Q51.40 20.06 52.77 20.06L52.77 20.06Q54.22 20.06 54.70 18.98L54.70 18.98L54.70 13.60L55.96 13.60L55.96 21L54.76 21ZM57.58 17.34L57.58 17.24Q57.58 15.54 58.38 14.50Q59.19 13.47 60.50 13.47L60.50 13.47Q61.80 13.47 62.55 14.36L62.55 14.36L62.55 10.50L63.82 10.50L63.82 21L62.66 21L62.60 20.21Q61.84 21.14 60.48 21.14L60.48 21.14Q59.20 21.14 58.39 20.08Q57.58 19.03 57.58 17.34L57.58 17.34ZM58.84 17.38L58.84 17.38Q58.84 18.64 59.36 19.35Q59.88 20.06 60.80 20.06L60.80 20.06Q62.00 20.06 62.55 18.98L62.55 18.98L62.55 15.59Q61.99 14.54 60.81 14.54L60.81 14.54Q59.88 14.54 59.36 15.26Q58.84 15.98 58.84 17.38ZM68.85 21.14L68.85 21.14Q67.35 21.14 66.40 20.15Q65.46 19.16 65.46 17.51L65.46 17.51L65.46 17.27Q65.46 16.17 65.88 15.31Q66.30 14.44 67.06 13.96Q67.81 13.47 68.69 13.47L68.69 13.47Q70.14 13.47 70.94 14.42Q71.73 15.37 71.73 17.14L71.73 17.14L71.73 17.66L66.72 17.66Q66.75 18.76 67.36 19.43Q67.98 20.10 68.92 20.10L68.92 20.10Q69.59 20.10 70.05 19.83Q70.52 19.56 70.87 19.11L70.87 19.11L71.64 19.71Q70.71 21.14 68.85 21.14ZM68.69 14.51L68.69 14.51Q67.93 14.51 67.41 15.06Q66.89 15.62 66.77 16.63L66.77 16.63L70.47 16.63L70.47 16.53Q70.42 15.57 69.95 15.04Q69.49 14.51 68.69 14.51ZM73.16 18.35L77.68 16.56L73.16 14.79L73.16 13.49L78.99 16.07L78.99 17.07L73.16 19.66L73.16 18.35ZM80.47 18.35L84.99 16.56L80.47 14.79L80.47 13.49L86.31 16.07L86.31 17.07L80.47 19.66L80.47 18.35Z"/>
            </g>
        </g>
    </g>
</g>
</svg>