<svg xmlns="http://www.w3.org/2000/svg" version="1.1" xmlns:xlink="http://www.w3.org/1999/xlink" xmlns:svgjs="http://svgjs.dev/svgjs" width="50" height="50" viewbox="0 0 50 50"   shape-rendering="geometricPrecision">
<g id="298b3c423914493da9ac1037b3b19189" transform="translate(5, 5) ">
    <path fill="#FFFFFFFF" stroke="#323232FF" stroke-width="2"  d="M20 0Q19.509 0 19.0186 0.0240909Q18.5283 0.0481817 18.0397 0.0963055Q17.551 0.144429 17.0654 0.21647Q16.5797 0.28851 16.0982 0.384294Q15.6167 0.480078 15.1404 0.599375Q14.6641 0.718671 14.1943 0.861193Q13.7245 1.00371 13.2622 1.16912Q12.7999 1.33452 12.3463 1.52241Q11.8927 1.7103 11.4489 1.92021Q11.0051 2.13013 10.5721 2.36157Q10.1391 2.59302 9.71795 2.84543Q9.29682 3.09784 8.88859 3.37061Q8.48037 3.64338 8.08601 3.93585Q7.69166 4.22832 7.31213 4.53979Q6.93261 4.85126 6.56882 5.18098Q6.20503 5.51069 5.85786 5.85786Q5.51069 6.20503 5.18098 6.56882Q4.85126 6.93261 4.53979 7.31213Q4.22832 7.69166 3.93585 8.08601Q3.64338 8.48037 3.37061 8.88859Q3.09784 9.29682 2.84543 9.71795Q2.59302 10.1391 2.36157 10.5721Q2.13013 11.0051 1.92021 11.4489Q1.7103 11.8927 1.52241 12.3463Q1.33452 12.7999 1.16912 13.2622Q1.00371 13.7245 0.861193 14.1943Q0.718671 14.6641 0.599375 15.1404Q0.480078 15.6167 0.384294 16.0982Q0.28851 16.5797 0.21647 17.0654Q0.144429 17.551 0.0963055 18.0397Q0.0481817 18.5283 0.0240909 19.0186Q0 19.509 0 20Q0 20.491 0.0240909 20.9814Q0.0481817 21.4717 0.0963055 21.9603Q0.144429 22.449 0.21647 22.9346Q0.28851 23.4203 0.384294 23.9018Q0.480078 24.3833 0.599375 24.8596Q0.718671 25.3359 0.861193 25.8057Q1.00371 26.2755 1.16912 26.7378Q1.33452 27.2001 1.52241 27.6537Q1.7103 28.1073 1.92021 28.5511Q2.13013 28.9949 2.36157 29.4279Q2.59302 29.8609 2.84543 30.2821Q3.09784 30.7032 3.37061 31.1114Q3.64338 31.5196 3.93585 31.914Q4.22832 32.3083 4.53979 32.6879Q4.85126 33.0674 5.18098 33.4312Q5.51069 33.795 5.85786 34.1421Q6.20503 34.4893 6.56882 34.819Q6.93261 35.1487 7.31213 35.4602Q7.69166 35.7717 8.08601 36.0642Q8.48037 36.3566 8.88859 36.6294Q9.29682 36.9022 9.71795 37.1546Q10.1391 37.407 10.5721 37.6384Q11.0051 37.8699 11.4489 38.0798Q11.8927 38.2897 12.3463 38.4776Q12.7999 38.6655 13.2622 38.8309Q13.7245 38.9963 14.1943 39.1388Q14.6641 39.2813 15.1404 39.4006Q15.6167 39.5199 16.0982 39.6157Q16.5797 39.7115 17.0654 39.7835Q17.551 39.8556 18.0397 39.9037Q18.5283 39.9518 19.0186 39.9759Q19.509 40 20 40Q20.491 40 20.9814 39.9759Q21.4717 39.9518 21.9603 39.9037Q22.449 39.8556 22.9346 39.7835Q23.4203 39.7115 23.9018 39.6157Q24.3833 39.5199 24.8596 39.4006Q25.3359 39.2813 25.8057 39.1388Q26.2755 38.9963 26.7378 38.8309Q27.2001 38.6655 27.6537 38.4776Q28.1073 38.2897 28.5511 38.0798Q28.9949 37.8699 29.4279 37.6384Q29.8609 37.407 30.2821 37.1546Q30.7032 36.9022 31.1114 36.6294Q31.5196 36.3566 31.914 36.0641Q32.3083 35.7717 32.6879 35.4602Q33.0674 35.1487 33.4312 34.819Q33.795 34.4893 34.1421 34.1421Q34.4893 33.795 34.819 33.4312Q35.1487 33.0674 35.4602 32.6879Q35.7717 32.3083 36.0642 31.914Q36.3566 31.5196 36.6294 31.1114Q36.9022 30.7032 37.1546 30.2821Q37.407 29.8609 37.6384 29.4279Q37.8699 28.9949 38.0798 28.5511Q38.2897 28.1073 38.4776 27.6537Q38.6655 27.2001 38.8309 26.7378Q38.9963 26.2755 39.1388 25.8057Q39.2813 25.3359 39.4006 24.8596Q39.5199 24.3833 39.6157 23.9018Q39.7115 23.4203 39.7835 22.9346Q39.8556 22.449 39.9037 21.9603Q39.9518 21.4717 39.9759 20.9814Q40 20.491 40 20Q40 19.509 39.9759 19.0186Q39.9518 18.5283 39.9037 18.0397Q39.8556 17.551 39.7835 17.0654Q39.7115 16.5797 39.6157 16.0982Q39.5199 15.6167 39.4006 15.1404Q39.2813 14.6641 39.1388 14.1943Q38.9963 13.7245 38.8309 13.2622Q38.6655 12.7999 38.4776 12.3463Q38.2897 11.8927 38.0798 11.4489Q37.8699 11.0051 37.6384 10.5721Q37.407 10.1391 37.1546 9.71795Q36.9022 9.29682 36.6294 8.88859Q36.3566 8.48037 36.0641 8.08601Q35.7717 7.69166 35.4602 7.31213Q35.1487 6.93261 34.819 6.56882Q34.4893 6.20503 34.1421 5.85786Q33.795 5.51069 33.4312 5.18098Q33.0674 4.85126 32.6879 4.53979Q32.3083 4.22832 31.914 3.93585Q31.5196 3.64338 31.1114 3.37061Q30.7032 3.09784 30.2821 2.84543Q29.8609 2.59302 29.4279 2.36157Q28.9949 2.13013 28.5511 1.92021Q28.1073 1.7103 27.6537 1.52241Q27.2001 1.33452 26.7378 1.16912Q26.2755 1.00371 25.8057 0.861193Q25.3359 0.718671 24.8596 0.599375Q24.3833 0.480078 23.9018 0.384294Q23.4203 0.28851 22.9346 0.21647Q22.449 0.144429 21.9603 0.0963055Q21.4717 0.0481817 20.9814 0.0240909Q20.491 0 20 0Z"/> 
    <path fill="#323232FF" stroke="#323232FF" stroke-width="1"  d="M20 0Q19.509 0 19.0186 0.0240909Q18.5283 0.0481817 18.0397 0.0963055Q17.551 0.144429 17.0654 0.21647Q16.5797 0.28851 16.0982 0.384294Q15.6167 0.480078 15.1404 0.599375Q14.6641 0.718671 14.1943 0.861193Q13.7245 1.00371 13.2622 1.16912Q12.7999 1.33452 12.3463 1.52241Q11.8927 1.7103 11.4489 1.92021Q11.0051 2.13013 10.5721 2.36157Q10.1391 2.59302 9.71795 2.84543Q9.29682 3.09784 8.88859 3.37061Q8.48037 3.64338 8.08601 3.93585Q7.69166 4.22832 7.31213 4.53979Q6.93261 4.85126 6.56882 5.18098Q6.20503 5.51069 5.85786 5.85786Q5.51069 6.20503 5.18098 6.56882Q4.85126 6.93261 4.53979 7.31213Q4.22832 7.69166 3.93585 8.08601Q3.64338 8.48037 3.37061 8.88859Q3.09784 9.29682 2.84543 9.71795Q2.59302 10.1391 2.36157 10.5721Q2.13013 11.0051 1.92021 11.4489Q1.7103 11.8927 1.52241 12.3463Q1.33452 12.7999 1.16912 13.2622Q1.00371 13.7245 0.861193 14.1943Q0.718671 14.6641 0.599375 15.1404Q0.480078 15.6167 0.384294 16.0982Q0.28851 16.5797 0.21647 17.0654Q0.144429 17.551 0.0963055 18.0397Q0.0481817 18.5283 0.0240909 19.0186Q0 19.509 0 20Q0 20.491 0.0240909 20.9814Q0.0481817 21.4717 0.0963055 21.9603Q0.144429 22.449 0.21647 22.9346Q0.28851 23.4203 0.384294 23.9018Q0.480078 24.3833 0.599375 24.8596Q0.718671 25.3359 0.861193 25.8057Q1.00371 26.2755 1.16912 26.7378Q1.33452 27.2001 1.52241 27.6537Q1.7103 28.1073 1.92021 28.5511Q2.13013 28.9949 2.36157 29.4279Q2.59302 29.8609 2.84543 30.2821Q3.09784 30.7032 3.37061 31.1114Q3.64338 31.5196 3.93585 31.914Q4.22832 32.3083 4.53979 32.6879Q4.85126 33.0674 5.18098 33.4312Q5.51069 33.795 5.85786 34.1421Q6.20503 34.4893 6.56882 34.819Q6.93261 35.1487 7.31213 35.4602Q7.69166 35.7717 8.08601 36.0642Q8.48037 36.3566 8.88859 36.6294Q9.29682 36.9022 9.71795 37.1546Q10.1391 37.407 10.5721 37.6384Q11.0051 37.8699 11.4489 38.0798Q11.8927 38.2897 12.3463 38.4776Q12.7999 38.6655 13.2622 38.8309Q13.7245 38.9963 14.1943 39.1388Q14.6641 39.2813 15.1404 39.4006Q15.6167 39.5199 16.0982 39.6157Q16.5797 39.7115 17.0654 39.7835Q17.551 39.8556 18.0397 39.9037Q18.5283 39.9518 19.0186 39.9759Q19.509 40 20 40Q20.491 40 20.9814 39.9759Q21.4717 39.9518 21.9603 39.9037Q22.449 39.8556 22.9346 39.7835Q23.4203 39.7115 23.9018 39.6157Q24.3833 39.5199 24.8596 39.4006Q25.3359 39.2813 25.8057 39.1388Q26.2755 38.9963 26.7378 38.8309Q27.2001 38.6655 27.6537 38.4776Q28.1073 38.2897 28.5511 38.0798Q28.9949 37.8699 29.4279 37.6384Q29.8609 37.407 30.2821 37.1546Q30.7032 36.9022 31.1114 36.6294Q31.5196 36.3566 31.914 36.0641Q32.3083 35.7717 32.6879 35.4602Q33.0674 35.1487 33.4312 34.819Q33.795 34.4893 34.1421 34.1421Q34.4893 33.795 34.819 33.4312Q35.1487 33.0674 35.4602 32.6879Q35.7717 32.3083 36.0642 31.914Q36.3566 31.5196 36.6294 31.1114Q36.9022 30.7032 37.1546 30.2821Q37.407 29.8609 37.6384 29.4279Q37.8699 28.9949 38.0798 28.5511Q38.2897 28.1073 38.4776 27.6537Q38.6655 27.2001 38.8309 26.7378Q38.9963 26.2755 39.1388 25.8057Q39.2813 25.3359 39.4006 24.8596Q39.5199 24.3833 39.6157 23.9018Q39.7115 23.4203 39.7835 22.9346Q39.8556 22.449 39.9037 21.9603Q39.9518 21.4717 39.9759 20.9814Q40 20.491 40 20Q40 19.509 39.9759 19.0186Q39.9518 18.5283 39.9037 18.0397Q39.8556 17.551 39.7835 17.0654Q39.7115 16.5797 39.6157 16.0982Q39.5199 15.6167 39.4006 15.1404Q39.2813 14.6641 39.1388 14.1943Q38.9963 13.7245 38.8309 13.2622Q38.6655 12.7999 38.4776 12.3463Q38.2897 11.8927 38.0798 11.4489Q37.8699 11.0051 37.6384 10.5721Q37.407 10.1391 37.1546 9.71795Q36.9022 9.29682 36.6294 8.88859Q36.3566 8.48037 36.0641 8.08601Q35.7717 7.69166 35.4602 7.31213Q35.1487 6.93261 34.819 6.56882Q34.4893 6.20503 34.1421 5.85786Q33.795 5.51069 33.4312 5.18098Q33.0674 4.85126 32.6879 4.53979Q32.3083 4.22832 31.914 3.93585Q31.5196 3.64338 31.1114 3.37061Q30.7032 3.09784 30.2821 2.84543Q29.8609 2.59302 29.4279 2.36157Q28.9949 2.13013 28.5511 1.92021Q28.1073 1.7103 27.6537 1.52241Q27.2001 1.33452 26.7378 1.16912Q26.2755 1.00371 25.8057 0.861193Q25.3359 0.718671 24.8596 0.599375Q24.3833 0.480078 23.9018 0.384294Q23.4203 0.28851 22.9346 0.21647Q22.449 0.144429 21.9603 0.0963055Q21.4717 0.0481817 20.9814 0.0240909Q20.491 0 20 0Z"/>   
</g>
</svg>