<svg xmlns="http://www.w3.org/2000/svg" version="1.1" xmlns:xlink="http://www.w3.org/1999/xlink" xmlns:svgjs="http://svgjs.dev/svgjs" width="130" height="70" viewbox="0 0 130 70"   shape-rendering="geometricPrecision">
<g id="861da4f7a31743e99425e9dd27f5048a" transform="translate(5, 5) ">
    <path fill="#FFFFFFFF" stroke="#323232FF" stroke-width="2" d=""/>    
    <g>
        <g id="c0dc9470a8914717907b4ae4dda310df" transform=" ">
            <path fill="#FFFFFFFF" stroke="#323232FF" stroke-width="1.5" d="M0 0L0 60L120 60L120 0L0 0Z"/>    
            <g transform="matrix(1.00, 0.00, 0.00, 1.00, 0.00, 0.00)">
                <path fill="#000000FF" stroke="#000000FF" stroke-linecap="round" stroke-linejoin="round" stroke-width="0.1"  transform="translate(3.6), skewX(-7)" d="M24.07 22.83L19.79 24.60L24.07 26.33L24.07 27.67L18.48 25.08L18.48 24.08L24.07 21.49L24.07 22.83ZM31.18 22.83L26.90 24.60L31.18 26.33L31.18 27.67L25.59 25.08L25.59 24.08L31.18 21.49L31.18 22.83ZM34.55 21.60L34.55 29L33.28 29L33.28 21.60L34.55 21.60ZM33.18 19.64L33.18 19.64Q33.18 19.33 33.37 19.12Q33.56 18.91 33.92 18.91Q34.29 18.91 34.48 19.12Q34.68 19.33 34.68 19.64Q34.68 19.95 34.48 20.15Q34.29 20.36 33.92 20.36Q33.56 20.36 33.37 20.15Q33.18 19.95 33.18 19.64ZM36.57 21.60L37.77 21.60L37.81 22.53Q38.65 21.47 40.02 21.47L40.02 21.47Q42.37 21.47 42.39 24.11L42.39 24.11L42.39 29L41.12 29L41.12 24.11Q41.12 23.31 40.76 22.92Q40.40 22.54 39.64 22.54L39.64 22.54Q39.02 22.54 38.56 22.87Q38.09 23.20 37.83 23.73L37.83 23.73L37.83 29L36.57 29L36.57 21.60ZM44.75 19.81L46.01 19.81L46.01 21.60L47.39 21.60L47.39 22.58L46.01 22.58L46.01 27.17Q46.01 27.61 46.19 27.83Q46.38 28.06 46.82 28.06L46.82 28.06Q47.04 28.06 47.43 27.97L47.43 27.97L47.43 29Q46.93 29.14 46.45 29.14L46.45 29.14Q45.61 29.14 45.18 28.62Q44.75 28.11 44.75 27.17L44.75 27.17L44.75 22.58L43.40 22.58L43.40 21.60L44.75 21.60L44.75 19.81ZM51.94 29.14L51.94 29.14Q50.43 29.14 49.49 28.15Q48.55 27.16 48.55 25.51L48.55 25.51L48.55 25.27Q48.55 24.17 48.97 23.31Q49.39 22.44 50.14 21.96Q50.90 21.47 51.78 21.47L51.78 21.47Q53.22 21.47 54.02 22.42Q54.82 23.37 54.82 25.14L54.82 25.14L54.82 25.66L49.81 25.66Q49.84 26.76 50.45 27.43Q51.06 28.10 52.01 28.10L52.01 28.10Q52.68 28.10 53.14 27.83Q53.60 27.56 53.95 27.11L53.95 27.11L54.73 27.71Q53.80 29.14 51.94 29.14ZM51.78 22.51L51.78 22.51Q51.01 22.51 50.49 23.06Q49.98 23.62 49.85 24.63L49.85 24.63L53.56 24.63L53.56 24.53Q53.50 23.57 53.04 23.04Q52.57 22.51 51.78 22.51ZM59.86 21.56L59.86 22.74Q59.57 22.69 59.24 22.69L59.24 22.69Q57.99 22.69 57.55 23.75L57.55 23.75L57.55 29L56.28 29L56.28 21.60L57.52 21.60L57.54 22.46Q58.16 21.47 59.30 21.47L59.30 21.47Q59.67 21.47 59.86 21.56L59.86 21.56ZM63.01 29L61.75 29L61.75 22.58L60.58 22.58L60.58 21.60L61.75 21.60L61.75 20.84Q61.75 19.66 62.38 19.01Q63.02 18.36 64.18 18.36L64.18 18.36Q64.62 18.36 65.05 18.47L65.05 18.47L64.98 19.50Q64.66 19.44 64.30 19.44L64.30 19.44Q63.68 19.44 63.35 19.80Q63.01 20.15 63.01 20.82L63.01 20.82L63.01 21.60L64.59 21.60L64.59 22.58L63.01 22.58L63.01 29ZM71.88 29L70.55 29Q70.44 28.78 70.37 28.22L70.37 28.22Q69.49 29.14 68.27 29.14L68.27 29.14Q67.17 29.14 66.47 28.52Q65.77 27.90 65.77 26.95L65.77 26.95Q65.77 25.79 66.65 25.15Q67.53 24.52 69.12 24.52L69.12 24.52L70.35 24.52L70.35 23.93Q70.35 23.27 69.96 22.88Q69.56 22.49 68.79 22.49L68.79 22.49Q68.11 22.49 67.65 22.83Q67.19 23.17 67.19 23.65L67.19 23.65L65.92 23.65Q65.92 23.10 66.32 22.58Q66.71 22.07 67.38 21.77Q68.06 21.47 68.86 21.47L68.86 21.47Q70.14 21.47 70.87 22.11Q71.59 22.75 71.62 23.87L71.62 23.87L71.62 27.27Q71.62 28.29 71.88 28.89L71.88 28.89L71.88 29ZM68.45 28.04L68.45 28.04Q69.05 28.04 69.58 27.73Q70.11 27.42 70.35 26.93L70.35 26.93L70.35 25.41L69.36 25.41Q67.04 25.41 67.04 26.77L67.04 26.77Q67.04 27.37 67.43 27.70Q67.83 28.04 68.45 28.04ZM76.57 28.10L76.57 28.10Q77.24 28.10 77.75 27.69Q78.26 27.28 78.31 26.67L78.31 26.67L79.51 26.67Q79.47 27.30 79.07 27.88Q78.67 28.45 77.99 28.79Q77.32 29.14 76.57 29.14L76.57 29.14Q75.06 29.14 74.16 28.13Q73.27 27.12 73.27 25.37L73.27 25.37L73.27 25.16Q73.27 24.08 73.67 23.24Q74.06 22.40 74.81 21.93Q75.55 21.47 76.56 21.47L76.56 21.47Q77.80 21.47 78.63 22.21Q79.45 22.96 79.51 24.15L79.51 24.15L78.31 24.15Q78.26 23.43 77.77 22.97Q77.28 22.51 76.56 22.51L76.56 22.51Q75.60 22.51 75.07 23.20Q74.54 23.89 74.54 25.21L74.54 25.21L74.54 25.45Q74.54 26.72 75.06 27.41Q75.59 28.10 76.57 28.10ZM84.00 29.14L84.00 29.14Q82.49 29.14 81.55 28.15Q80.61 27.16 80.61 25.51L80.61 25.51L80.61 25.27Q80.61 24.17 81.03 23.31Q81.45 22.44 82.20 21.96Q82.96 21.47 83.84 21.47L83.84 21.47Q85.28 21.47 86.08 22.42Q86.88 23.37 86.88 25.14L86.88 25.14L86.88 25.66L81.87 25.66Q81.90 26.76 82.51 27.43Q83.12 28.10 84.07 28.10L84.07 28.10Q84.74 28.10 85.20 27.83Q85.67 27.56 86.01 27.11L86.01 27.11L86.79 27.71Q85.86 29.14 84.00 29.14ZM83.84 22.51L83.84 22.51Q83.07 22.51 82.56 23.06Q82.04 23.62 81.91 24.63L81.91 24.63L85.62 24.63L85.62 24.53Q85.56 23.57 85.10 23.04Q84.63 22.51 83.84 22.51ZM88.30 26.35L92.82 24.56L88.30 22.79L88.30 21.49L94.14 24.07L94.14 25.07L88.30 27.66L88.30 26.35ZM95.62 26.35L100.14 24.56L95.62 22.79L95.62 21.49L101.46 24.07L101.46 25.07L95.62 27.66L95.62 26.35Z"/>
                <path fill="#000000FF" stroke="#000000FF" stroke-linecap="round" stroke-linejoin="round" stroke-width="0.1"  transform="translate(3.3), skewX(-7)" d=""/>
                <path fill="#000000FF" stroke="#000000FF" stroke-linecap="round" stroke-linejoin="round" stroke-width="0.1"  transform="translate(5.0), skewX(-7)" d=""/>
                <path fill="#000000FF" stroke="#000000FF" stroke-linecap="round" stroke-linejoin="round" stroke-width="0.5"   d="M34.77 33.05L34.77 43L33.46 43L33.46 33.05L34.77 33.05ZM36.97 35.60L38.17 35.60L38.21 36.53Q39.06 35.47 40.43 35.47L40.43 35.47Q42.77 35.47 42.79 38.11L42.79 38.11L42.79 43L41.53 43L41.53 38.11Q41.52 37.31 41.16 36.92Q40.80 36.54 40.04 36.54L40.04 36.54Q39.43 36.54 38.96 36.87Q38.50 37.20 38.24 37.73L38.24 37.73L38.24 43L36.97 43L36.97 35.60ZM45.15 33.81L46.41 33.81L46.41 35.60L47.79 35.60L47.79 36.58L46.41 36.58L46.41 41.17Q46.41 41.61 46.60 41.83Q46.78 42.06 47.23 42.06L47.23 42.06Q47.45 42.06 47.83 41.97L47.83 41.97L47.83 43Q47.33 43.14 46.86 43.14L46.86 43.14Q46.01 43.14 45.58 42.62Q45.15 42.11 45.15 41.17L45.15 41.17L45.15 36.58L43.80 36.58L43.80 35.60L45.15 35.60L45.15 33.81ZM52.34 43.14L52.34 43.14Q50.84 43.14 49.89 42.15Q48.95 41.16 48.95 39.51L48.95 39.51L48.95 39.27Q48.95 38.17 49.37 37.31Q49.79 36.44 50.55 35.96Q51.30 35.47 52.18 35.47L52.18 35.47Q53.63 35.47 54.43 36.42Q55.23 37.37 55.23 39.14L55.23 39.14L55.23 39.66L50.21 39.66Q50.24 40.76 50.85 41.43Q51.47 42.10 52.41 42.10L52.41 42.10Q53.08 42.10 53.54 41.83Q54.01 41.56 54.36 41.11L54.36 41.11L55.13 41.71Q54.20 43.14 52.34 43.14ZM52.18 36.51L52.18 36.51Q51.42 36.51 50.90 37.06Q50.38 37.62 50.26 38.63L50.26 38.63L53.96 38.63L53.96 38.53Q53.91 37.57 53.44 37.04Q52.98 36.51 52.18 36.51ZM60.26 35.56L60.26 36.74Q59.98 36.69 59.64 36.69L59.64 36.69Q58.40 36.69 57.95 37.75L57.95 37.75L57.95 43L56.69 43L56.69 35.60L57.92 35.60L57.94 36.46Q58.56 35.47 59.70 35.47L59.70 35.47Q60.07 35.47 60.26 35.56L60.26 35.56ZM63.41 43L62.15 43L62.15 36.58L60.98 36.58L60.98 35.60L62.15 35.60L62.15 34.84Q62.15 33.66 62.79 33.01Q63.42 32.36 64.58 32.36L64.58 32.36Q65.02 32.36 65.45 32.47L65.45 32.47L65.38 33.50Q65.06 33.44 64.70 33.44L64.70 33.44Q64.08 33.44 63.75 33.80Q63.41 34.15 63.41 34.82L63.41 34.82L63.41 35.60L64.99 35.60L64.99 36.58L63.41 36.58L63.41 43ZM72.28 43L70.95 43Q70.85 42.78 70.78 42.22L70.78 42.22Q69.90 43.14 68.67 43.14L68.67 43.14Q67.58 43.14 66.88 42.52Q66.18 41.90 66.18 40.95L66.18 40.95Q66.18 39.79 67.05 39.15Q67.93 38.52 69.53 38.52L69.53 38.52L70.76 38.52L70.76 37.93Q70.76 37.27 70.36 36.88Q69.96 36.49 69.19 36.49L69.19 36.49Q68.51 36.49 68.06 36.83Q67.60 37.17 67.60 37.65L67.60 37.65L66.33 37.65Q66.33 37.10 66.72 36.58Q67.11 36.07 67.79 35.77Q68.46 35.47 69.27 35.47L69.27 35.47Q70.54 35.47 71.27 36.11Q71.99 36.75 72.02 37.87L72.02 37.87L72.02 41.27Q72.02 42.29 72.28 42.89L72.28 42.89L72.28 43ZM68.86 42.04L68.86 42.04Q69.45 42.04 69.98 41.73Q70.52 41.42 70.76 40.93L70.76 40.93L70.76 39.41L69.77 39.41Q67.44 39.41 67.44 40.77L67.44 40.77Q67.44 41.37 67.84 41.70Q68.23 42.04 68.86 42.04ZM76.97 42.10L76.97 42.10Q77.65 42.10 78.15 41.69Q78.66 41.28 78.71 40.67L78.71 40.67L79.91 40.67Q79.88 41.30 79.47 41.88Q79.07 42.45 78.40 42.79Q77.72 43.14 76.97 43.14L76.97 43.14Q75.46 43.14 74.57 42.13Q73.68 41.12 73.68 39.37L73.68 39.37L73.68 39.16Q73.68 38.08 74.07 37.24Q74.47 36.40 75.21 35.93Q75.95 35.47 76.96 35.47L76.96 35.47Q78.21 35.47 79.03 36.21Q79.85 36.96 79.91 38.15L79.91 38.15L78.71 38.15Q78.66 37.43 78.17 36.97Q77.68 36.51 76.96 36.51L76.96 36.51Q76.00 36.51 75.47 37.20Q74.94 37.89 74.94 39.21L74.94 39.21L74.94 39.45Q74.94 40.72 75.47 41.41Q75.99 42.10 76.97 42.10ZM84.40 43.14L84.40 43.14Q82.90 43.14 81.95 42.15Q81.01 41.16 81.01 39.51L81.01 39.51L81.01 39.27Q81.01 38.17 81.43 37.31Q81.85 36.44 82.61 35.96Q83.36 35.47 84.24 35.47L84.24 35.47Q85.69 35.47 86.49 36.42Q87.29 37.37 87.29 39.14L87.29 39.14L87.29 39.66L82.27 39.66Q82.30 40.76 82.91 41.43Q83.53 42.10 84.47 42.10L84.47 42.10Q85.14 42.10 85.60 41.83Q86.07 41.56 86.42 41.11L86.42 41.11L87.19 41.71Q86.26 43.14 84.40 43.14ZM84.24 36.51L84.24 36.51Q83.48 36.51 82.96 37.06Q82.44 37.62 82.32 38.63L82.32 38.63L86.02 38.63L86.02 38.53Q85.97 37.57 85.50 37.04Q85.04 36.51 84.24 36.51Z"/>
            </g>
        </g>
    </g>
</g>
</svg>