<svg xmlns="http://www.w3.org/2000/svg" version="1.1" xmlns:xlink="http://www.w3.org/1999/xlink" xmlns:svgjs="http://svgjs.dev/svgjs" width="260" height="170" viewbox="0 0 260 170"   shape-rendering="geometricPrecision">
<g id="00befb252d0149c9a39eb6a471cfd079" transform="translate(5, 5) ">
    <path fill="#FFFFFFFF" stroke="#323232FF" stroke-width="2" d=""/>    
    <g>
        <g id="558437989f8a4b7a9d8710fc35da4f93" transform=" ">
            <path fill="#FFFFFFFF" stroke="#323232FF" stroke-width="1.5" d="M0 0L0 50L250 50L250 0L0 0Z"/>    
            <g transform="matrix(1.00, 0.00, 0.00, 1.00, 0.00, 0.00)">
                <path fill="#000000FF" stroke="#000000FF" stroke-linecap="round" stroke-linejoin="round" stroke-width="0.1"  transform="translate(2.9), skewX(-7)" d="M89.07 17.83L84.79 19.60L89.07 21.33L89.07 22.67L83.48 20.08L83.48 19.08L89.07 16.49L89.07 17.83ZM96.18 17.83L91.90 19.60L96.18 21.33L96.18 22.67L90.59 20.08L90.59 19.08L96.18 16.49L96.18 17.83ZM99.55 16.60L99.55 24L98.28 24L98.28 16.60L99.55 16.60ZM98.18 14.64L98.18 14.64Q98.18 14.33 98.37 14.12Q98.56 13.91 98.92 13.91Q99.29 13.91 99.48 14.12Q99.68 14.33 99.68 14.64Q99.68 14.95 99.48 15.15Q99.29 15.36 98.92 15.36Q98.56 15.36 98.37 15.15Q98.18 14.95 98.18 14.64ZM101.57 16.60L102.77 16.60L102.81 17.53Q103.65 16.47 105.02 16.47L105.02 16.47Q107.37 16.47 107.39 19.11L107.39 19.11L107.39 24L106.12 24L106.12 19.11Q106.12 18.31 105.76 17.92Q105.40 17.54 104.64 17.54L104.64 17.54Q104.02 17.54 103.56 17.87Q103.09 18.20 102.83 18.73L102.83 18.73L102.83 24L101.57 24L101.57 16.60ZM109.75 14.81L111.01 14.81L111.01 16.60L112.39 16.60L112.39 17.58L111.01 17.58L111.01 22.17Q111.01 22.61 111.19 22.83Q111.38 23.06 111.82 23.06L111.82 23.06Q112.04 23.06 112.43 22.97L112.43 22.97L112.43 24Q111.93 24.14 111.45 24.14L111.45 24.14Q110.61 24.14 110.18 23.62Q109.75 23.11 109.75 22.17L109.75 22.17L109.75 17.58L108.40 17.58L108.40 16.60L109.75 16.60L109.75 14.81ZM116.94 24.14L116.94 24.14Q115.43 24.14 114.49 23.15Q113.55 22.16 113.55 20.51L113.55 20.51L113.55 20.27Q113.55 19.17 113.97 18.31Q114.39 17.44 115.14 16.96Q115.90 16.47 116.78 16.47L116.78 16.47Q118.22 16.47 119.02 17.42Q119.82 18.37 119.82 20.14L119.82 20.14L119.82 20.66L114.81 20.66Q114.84 21.76 115.45 22.43Q116.06 23.10 117.01 23.10L117.01 23.10Q117.68 23.10 118.14 22.83Q118.60 22.56 118.95 22.11L118.95 22.11L119.73 22.71Q118.80 24.14 116.94 24.14ZM116.78 17.51L116.78 17.51Q116.01 17.51 115.49 18.06Q114.98 18.62 114.85 19.63L114.85 19.63L118.56 19.63L118.56 19.53Q118.50 18.57 118.04 18.04Q117.57 17.51 116.78 17.51ZM124.86 16.56L124.86 17.74Q124.57 17.69 124.24 17.69L124.24 17.69Q122.99 17.69 122.55 18.75L122.55 18.75L122.55 24L121.28 24L121.28 16.60L122.52 16.60L122.54 17.46Q123.16 16.47 124.30 16.47L124.30 16.47Q124.67 16.47 124.86 16.56L124.86 16.56ZM128.01 24L126.75 24L126.75 17.58L125.58 17.58L125.58 16.60L126.75 16.60L126.75 15.84Q126.75 14.66 127.38 14.01Q128.02 13.36 129.18 13.36L129.18 13.36Q129.62 13.36 130.05 13.47L130.05 13.47L129.98 14.50Q129.66 14.44 129.30 14.44L129.30 14.44Q128.68 14.44 128.35 14.80Q128.01 15.15 128.01 15.82L128.01 15.82L128.01 16.60L129.59 16.60L129.59 17.58L128.01 17.58L128.01 24ZM136.88 24L135.55 24Q135.44 23.78 135.37 23.22L135.37 23.22Q134.49 24.14 133.27 24.14L133.27 24.14Q132.17 24.14 131.47 23.52Q130.77 22.90 130.77 21.95L130.77 21.95Q130.77 20.79 131.65 20.15Q132.53 19.52 134.12 19.52L134.12 19.52L135.35 19.52L135.35 18.93Q135.35 18.27 134.96 17.88Q134.56 17.49 133.79 17.49L133.79 17.49Q133.11 17.49 132.65 17.83Q132.19 18.17 132.19 18.65L132.19 18.65L130.92 18.65Q130.92 18.10 131.32 17.58Q131.71 17.07 132.38 16.77Q133.06 16.47 133.86 16.47L133.86 16.47Q135.14 16.47 135.87 17.11Q136.59 17.75 136.62 18.87L136.62 18.87L136.62 22.27Q136.62 23.29 136.88 23.89L136.88 23.89L136.88 24ZM133.45 23.04L133.45 23.04Q134.05 23.04 134.58 22.73Q135.11 22.42 135.35 21.93L135.35 21.93L135.35 20.41L134.36 20.41Q132.04 20.41 132.04 21.77L132.04 21.77Q132.04 22.37 132.43 22.70Q132.83 23.04 133.45 23.04ZM141.57 23.10L141.57 23.10Q142.24 23.10 142.75 22.69Q143.26 22.28 143.31 21.67L143.31 21.67L144.51 21.67Q144.47 22.30 144.07 22.88Q143.67 23.45 142.99 23.79Q142.32 24.14 141.57 24.14L141.57 24.14Q140.06 24.14 139.16 23.13Q138.27 22.12 138.27 20.37L138.27 20.37L138.27 20.16Q138.27 19.08 138.67 18.24Q139.06 17.40 139.81 16.93Q140.55 16.47 141.56 16.47L141.56 16.47Q142.80 16.47 143.63 17.21Q144.45 17.96 144.51 19.15L144.51 19.15L143.31 19.15Q143.26 18.43 142.77 17.97Q142.28 17.51 141.56 17.51L141.56 17.51Q140.60 17.51 140.07 18.20Q139.54 18.89 139.54 20.21L139.54 20.21L139.54 20.45Q139.54 21.72 140.06 22.41Q140.59 23.10 141.57 23.10ZM149.00 24.14L149.00 24.14Q147.49 24.14 146.55 23.15Q145.61 22.16 145.61 20.51L145.61 20.51L145.61 20.27Q145.61 19.17 146.03 18.31Q146.45 17.44 147.20 16.96Q147.96 16.47 148.84 16.47L148.84 16.47Q150.28 16.47 151.08 17.42Q151.88 18.37 151.88 20.14L151.88 20.14L151.88 20.66L146.87 20.66Q146.90 21.76 147.51 22.43Q148.12 23.10 149.07 23.10L149.07 23.10Q149.74 23.10 150.20 22.83Q150.67 22.56 151.01 22.11L151.01 22.11L151.79 22.71Q150.86 24.14 149.00 24.14ZM148.84 17.51L148.84 17.51Q148.07 17.51 147.56 18.06Q147.04 18.62 146.91 19.63L146.91 19.63L150.62 19.63L150.62 19.53Q150.56 18.57 150.10 18.04Q149.63 17.51 148.84 17.51ZM153.30 21.35L157.82 19.56L153.30 17.79L153.30 16.49L159.14 19.07L159.14 20.07L153.30 22.66L153.30 21.35ZM160.62 21.35L165.14 19.56L160.62 17.79L160.62 16.49L166.46 19.07L166.46 20.07L160.62 22.66L160.62 21.35Z"/>
                <path fill="#000000FF" stroke="#000000FF" stroke-linecap="round" stroke-linejoin="round" stroke-width="0.1"  transform="translate(2.7), skewX(-7)" d=""/>
                <path fill="#000000FF" stroke="#000000FF" stroke-linecap="round" stroke-linejoin="round" stroke-width="0.1"  transform="translate(4.4), skewX(-7)" d=""/>
                <path fill="#000000FF" stroke="#000000FF" stroke-linecap="round" stroke-linejoin="round" stroke-width="0.5"   d="M99.77 28.05L99.77 38L98.46 38L98.46 28.05L99.77 28.05ZM101.97 30.60L103.17 30.60L103.21 31.53Q104.06 30.47 105.43 30.47L105.43 30.47Q107.77 30.47 107.79 33.11L107.79 33.11L107.79 38L106.53 38L106.53 33.11Q106.52 32.31 106.16 31.92Q105.80 31.54 105.04 31.54L105.04 31.54Q104.43 31.54 103.96 31.87Q103.50 32.20 103.24 32.73L103.24 32.73L103.24 38L101.97 38L101.97 30.60ZM110.15 28.81L111.41 28.81L111.41 30.60L112.79 30.60L112.79 31.58L111.41 31.58L111.41 36.17Q111.41 36.61 111.60 36.83Q111.78 37.06 112.23 37.06L112.23 37.06Q112.45 37.06 112.83 36.97L112.83 36.97L112.83 38Q112.33 38.14 111.86 38.14L111.86 38.14Q111.01 38.14 110.58 37.62Q110.15 37.11 110.15 36.17L110.15 36.17L110.15 31.58L108.80 31.58L108.80 30.60L110.15 30.60L110.15 28.81ZM117.34 38.14L117.34 38.14Q115.84 38.14 114.89 37.15Q113.95 36.16 113.95 34.51L113.95 34.51L113.95 34.27Q113.95 33.17 114.37 32.31Q114.79 31.44 115.55 30.96Q116.30 30.47 117.18 30.47L117.18 30.47Q118.63 30.47 119.43 31.42Q120.23 32.37 120.23 34.14L120.23 34.14L120.23 34.66L115.21 34.66Q115.24 35.76 115.85 36.43Q116.47 37.10 117.41 37.10L117.41 37.10Q118.08 37.10 118.54 36.83Q119.01 36.56 119.36 36.11L119.36 36.11L120.13 36.71Q119.20 38.14 117.34 38.14ZM117.18 31.51L117.18 31.51Q116.42 31.51 115.90 32.06Q115.38 32.62 115.26 33.63L115.26 33.63L118.96 33.63L118.96 33.53Q118.91 32.57 118.44 32.04Q117.98 31.51 117.18 31.51ZM125.26 30.56L125.26 31.74Q124.98 31.69 124.64 31.69L124.64 31.69Q123.40 31.69 122.95 32.75L122.95 32.75L122.95 38L121.69 38L121.69 30.60L122.92 30.60L122.94 31.46Q123.56 30.47 124.70 30.47L124.70 30.47Q125.07 30.47 125.26 30.56L125.26 30.56ZM128.41 38L127.15 38L127.15 31.58L125.98 31.58L125.98 30.60L127.15 30.60L127.15 29.84Q127.15 28.66 127.79 28.01Q128.42 27.36 129.58 27.36L129.58 27.36Q130.02 27.36 130.45 27.47L130.45 27.47L130.38 28.50Q130.06 28.44 129.70 28.44L129.70 28.44Q129.08 28.44 128.75 28.80Q128.41 29.15 128.41 29.82L128.41 29.82L128.41 30.60L129.99 30.60L129.99 31.58L128.41 31.58L128.41 38ZM137.28 38L135.95 38Q135.85 37.78 135.78 37.22L135.78 37.22Q134.90 38.14 133.67 38.14L133.67 38.14Q132.58 38.14 131.88 37.52Q131.18 36.90 131.18 35.95L131.18 35.95Q131.18 34.79 132.05 34.15Q132.93 33.52 134.53 33.52L134.53 33.52L135.76 33.52L135.76 32.93Q135.76 32.27 135.36 31.88Q134.96 31.49 134.19 31.49L134.19 31.49Q133.51 31.49 133.06 31.83Q132.60 32.17 132.60 32.65L132.60 32.65L131.33 32.65Q131.33 32.10 131.72 31.58Q132.11 31.07 132.79 30.77Q133.46 30.47 134.27 30.47L134.27 30.47Q135.54 30.47 136.27 31.11Q136.99 31.75 137.02 32.87L137.02 32.87L137.02 36.27Q137.02 37.29 137.28 37.89L137.28 37.89L137.28 38ZM133.86 37.04L133.86 37.04Q134.45 37.04 134.98 36.73Q135.52 36.42 135.76 35.93L135.76 35.93L135.76 34.41L134.77 34.41Q132.44 34.41 132.44 35.77L132.44 35.77Q132.44 36.37 132.84 36.70Q133.23 37.04 133.86 37.04ZM141.97 37.10L141.97 37.10Q142.65 37.10 143.15 36.69Q143.66 36.28 143.71 35.67L143.71 35.67L144.91 35.67Q144.88 36.30 144.47 36.88Q144.07 37.45 143.40 37.79Q142.72 38.14 141.97 38.14L141.97 38.14Q140.46 38.14 139.57 37.13Q138.68 36.12 138.68 34.37L138.68 34.37L138.68 34.16Q138.68 33.08 139.07 32.24Q139.47 31.40 140.21 30.93Q140.95 30.47 141.96 30.47L141.96 30.47Q143.21 30.47 144.03 31.21Q144.85 31.96 144.91 33.15L144.91 33.15L143.71 33.15Q143.66 32.43 143.17 31.97Q142.68 31.51 141.96 31.51L141.96 31.51Q141.00 31.51 140.47 32.20Q139.94 32.89 139.94 34.21L139.94 34.21L139.94 34.45Q139.94 35.72 140.47 36.41Q140.99 37.10 141.97 37.10ZM149.40 38.14L149.40 38.14Q147.90 38.14 146.95 37.15Q146.01 36.16 146.01 34.51L146.01 34.51L146.01 34.27Q146.01 33.17 146.43 32.31Q146.85 31.44 147.61 30.96Q148.36 30.47 149.24 30.47L149.24 30.47Q150.69 30.47 151.49 31.42Q152.29 32.37 152.29 34.14L152.29 34.14L152.29 34.66L147.27 34.66Q147.30 35.76 147.91 36.43Q148.53 37.10 149.47 37.10L149.47 37.10Q150.14 37.10 150.60 36.83Q151.07 36.56 151.42 36.11L151.42 36.11L152.19 36.71Q151.26 38.14 149.40 38.14ZM149.24 31.51L149.24 31.51Q148.48 31.51 147.96 32.06Q147.44 32.62 147.32 33.63L147.32 33.63L151.02 33.63L151.02 33.53Q150.97 32.57 150.50 32.04Q150.04 31.51 149.24 31.51Z"/>
            </g>
        </g>
        <g id="a71268c3c01f456e8744ddd832cfd2dc" transform="translate(0, 50) ">
            <path fill="#FFFFFFFF" stroke="#323232FF" stroke-width="1.5" d="M0 0L0 55L250 55L250 0L0 0Z"/>    
            <g transform="matrix(1.00, 0.00, 0.00, 1.00, 0.00, 0.00)">
                <path fill="#000000FF" stroke="#000000FF" stroke-linecap="round" stroke-linejoin="round" stroke-width="0.1"   d="M12.05 11.26L12.05 14.16L14.82 14.16L14.82 15.36L12.05 15.36L12.05 18.50L10.77 18.50L10.77 15.36L8.00 15.36L8.00 14.16L10.77 14.16L10.77 11.26L12.05 11.26ZM25.72 19.50L24.39 19.50Q24.28 19.28 24.21 18.72L24.21 18.72Q23.33 19.64 22.11 19.64L22.11 19.64Q21.01 19.64 20.31 19.02Q19.61 18.40 19.61 17.45L19.61 17.45Q19.61 16.29 20.49 15.65Q21.37 15.02 22.96 15.02L22.96 15.02L24.19 15.02L24.19 14.43Q24.19 13.77 23.80 13.38Q23.40 12.99 22.63 12.99L22.63 12.99Q21.95 12.99 21.49 13.33Q21.04 13.67 21.04 14.15L21.04 14.15L19.76 14.15Q19.76 13.60 20.16 13.08Q20.55 12.57 21.22 12.27Q21.90 11.97 22.70 11.97L22.70 11.97Q23.98 11.97 24.71 12.61Q25.43 13.25 25.46 14.37L25.46 14.37L25.46 17.77Q25.46 18.79 25.72 19.39L25.72 19.39L25.72 19.50ZM22.29 18.54L22.29 18.54Q22.89 18.54 23.42 18.23Q23.95 17.92 24.19 17.43L24.19 17.43L24.19 15.91L23.20 15.91Q20.88 15.91 20.88 17.27L20.88 17.27Q20.88 17.87 21.27 18.20Q21.67 18.54 22.29 18.54ZM27.89 10.31L29.16 10.31L29.16 12.10L30.54 12.10L30.54 13.08L29.16 13.08L29.16 17.67Q29.16 18.11 29.34 18.33Q29.53 18.56 29.97 18.56L29.97 18.56Q30.19 18.56 30.57 18.47L30.57 18.47L30.57 19.50Q30.07 19.64 29.60 19.64L29.60 19.64Q28.75 19.64 28.32 19.12Q27.89 18.61 27.89 17.67L27.89 17.67L27.89 13.08L26.54 13.08L26.54 12.10L27.89 12.10L27.89 10.31ZM32.46 10.31L33.73 10.31L33.73 12.10L35.11 12.10L35.11 13.08L33.73 13.08L33.73 17.67Q33.73 18.11 33.91 18.33Q34.10 18.56 34.54 18.56L34.54 18.56Q34.76 18.56 35.14 18.47L35.14 18.47L35.14 19.50Q34.65 19.64 34.17 19.64L34.17 19.64Q33.33 19.64 32.90 19.12Q32.46 18.61 32.46 17.67L32.46 17.67L32.46 13.08L31.12 13.08L31.12 12.10L32.46 12.10L32.46 10.31ZM40.16 12.06L40.16 13.24Q39.88 13.19 39.54 13.19L39.54 13.19Q38.30 13.19 37.85 14.25L37.85 14.25L37.85 19.50L36.59 19.50L36.59 12.10L37.82 12.10L37.84 12.96Q38.46 11.97 39.60 11.97L39.60 11.97Q39.97 11.97 40.16 12.06L40.16 12.06ZM42.70 12.10L42.70 19.50L41.43 19.50L41.43 12.10L42.70 12.10ZM41.33 10.14L41.33 10.14Q41.33 9.83 41.52 9.62Q41.71 9.41 42.08 9.41Q42.45 9.41 42.64 9.62Q42.83 9.83 42.83 10.14Q42.83 10.45 42.64 10.65Q42.45 10.86 42.08 10.86Q41.71 10.86 41.52 10.65Q41.33 10.45 41.33 10.14ZM50.98 15.77L50.98 15.88Q50.98 17.58 50.20 18.61Q49.42 19.64 48.11 19.64L48.11 19.64Q46.71 19.64 45.95 18.65L45.95 18.65L45.88 19.50L44.72 19.50L44.72 9L45.99 9L45.99 12.92Q46.75 11.97 48.10 11.97Q49.45 11.97 50.21 12.99Q50.98 14.00 50.98 15.77L50.98 15.77ZM49.72 15.74L49.72 15.74Q49.72 14.45 49.22 13.74Q48.72 13.04 47.78 13.04L47.78 13.04Q46.53 13.04 45.99 14.20L45.99 14.20L45.99 17.40Q46.57 18.56 47.80 18.56L47.80 18.56Q48.71 18.56 49.21 17.86Q49.72 17.16 49.72 15.74ZM57.17 19.50L57.14 18.77Q56.40 19.64 54.98 19.64L54.98 19.64Q53.79 19.64 53.17 18.95Q52.56 18.26 52.55 16.92L52.55 16.92L52.55 12.10L53.81 12.10L53.81 16.88Q53.81 18.56 55.18 18.56L55.18 18.56Q56.63 18.56 57.11 17.48L57.11 17.48L57.11 12.10L58.37 12.10L58.37 19.50L57.17 19.50ZM60.75 10.31L62.01 10.31L62.01 12.10L63.39 12.10L63.39 13.08L62.01 13.08L62.01 17.67Q62.01 18.11 62.19 18.33Q62.38 18.56 62.82 18.56L62.82 18.56Q63.04 18.56 63.42 18.47L63.42 18.47L63.42 19.50Q62.93 19.64 62.45 19.64L62.45 19.64Q61.61 19.64 61.18 19.12Q60.75 18.61 60.75 17.67L60.75 17.67L60.75 13.08L59.40 13.08L59.40 12.10L60.75 12.10L60.75 10.31ZM67.94 19.64L67.94 19.64Q66.43 19.64 65.49 18.65Q64.55 17.66 64.55 16.01L64.55 16.01L64.55 15.77Q64.55 14.67 64.97 13.81Q65.39 12.94 66.14 12.46Q66.90 11.97 67.78 11.97L67.78 11.97Q69.22 11.97 70.02 12.92Q70.82 13.87 70.82 15.64L70.82 15.64L70.82 16.16L65.81 16.16Q65.84 17.26 66.45 17.93Q67.06 18.60 68.00 18.60L68.00 18.60Q68.67 18.60 69.14 18.33Q69.60 18.06 69.95 17.61L69.95 17.61L70.73 18.21Q69.80 19.64 67.94 19.64ZM67.78 13.01L67.78 13.01Q67.01 13.01 66.49 13.56Q65.97 14.12 65.85 15.13L65.85 15.13L69.56 15.13L69.56 15.03Q69.50 14.07 69.04 13.54Q68.57 13.01 67.78 13.01ZM76.31 9.50L76.31 19.50L75.04 19.50L75.04 11.07L72.49 12.01L72.49 10.86L76.11 9.50L76.31 9.50ZM80.10 18.84L80.10 18.84Q80.10 18.51 80.30 18.29Q80.49 18.07 80.88 18.07Q81.27 18.07 81.48 18.29Q81.68 18.51 81.68 18.84L81.68 18.84Q81.68 19.15 81.48 19.36Q81.27 19.58 80.88 19.58Q80.49 19.58 80.30 19.36Q80.10 19.15 80.10 18.84ZM80.11 12.80L80.11 12.80Q80.11 12.47 80.31 12.25Q80.50 12.04 80.89 12.04Q81.28 12.04 81.48 12.25Q81.68 12.47 81.68 12.80L81.68 12.80Q81.68 13.12 81.48 13.33Q81.28 13.54 80.89 13.54Q80.50 13.54 80.31 13.33Q80.11 13.12 80.11 12.80ZM93.80 9.55L93.80 10.63L90.60 10.63L90.60 19.50L89.30 19.50L89.30 10.63L86.11 10.63L86.11 9.55L93.80 9.55ZM95.16 12.10L97.01 17.65L98.73 12.10L100.09 12.10L97.11 20.64Q96.42 22.49 94.92 22.49L94.92 22.49L94.68 22.47L94.21 22.38L94.21 21.35L94.55 21.38Q95.19 21.38 95.55 21.12Q95.91 20.86 96.14 20.17L96.14 20.17L96.42 19.42L93.78 12.10L95.16 12.10ZM107.46 15.77L107.46 15.88Q107.46 17.57 106.69 18.60Q105.92 19.64 104.60 19.64L104.60 19.64Q103.25 19.64 102.48 18.78L102.48 18.78L102.48 22.34L101.21 22.34L101.21 12.10L102.37 12.10L102.43 12.92Q103.20 11.97 104.58 11.97L104.58 11.97Q105.91 11.97 106.69 12.97Q107.46 13.98 107.46 15.77L107.46 15.77ZM106.20 15.74L106.20 15.74Q106.20 14.49 105.66 13.76Q105.13 13.04 104.20 13.04L104.20 13.04Q103.05 13.04 102.48 14.06L102.48 14.06L102.48 17.59Q103.05 18.60 104.21 18.60L104.21 18.60Q105.12 18.60 105.66 17.88Q106.20 17.16 106.20 15.74ZM112.14 19.64L112.14 19.64Q110.63 19.64 109.69 18.65Q108.75 17.66 108.75 16.01L108.75 16.01L108.75 15.77Q108.75 14.67 109.17 13.81Q109.59 12.94 110.34 12.46Q111.10 11.97 111.98 11.97L111.98 11.97Q113.42 11.97 114.22 12.92Q115.02 13.87 115.02 15.64L115.02 15.64L115.02 16.16L110.01 16.16Q110.04 17.26 110.65 17.93Q111.26 18.60 112.21 18.60L112.21 18.60Q112.88 18.60 113.34 18.33Q113.81 18.06 114.15 17.61L114.15 17.61L114.93 18.21Q114.00 19.64 112.14 19.64ZM111.98 13.01L111.98 13.01Q111.21 13.01 110.70 13.56Q110.18 14.12 110.05 15.13L110.05 15.13L113.76 15.13L113.76 15.03Q113.70 14.07 113.24 13.54Q112.77 13.01 111.98 13.01Z"/>
                <path fill="#000000FF" stroke="#000000FF" stroke-linecap="round" stroke-linejoin="round" stroke-width="0.1"   d=""/>
                <path fill="#000000FF" stroke="#000000FF" stroke-linecap="round" stroke-linejoin="round" stroke-width="0.1"   d=""/>
                <path fill="#000000FF" stroke="#000000FF" stroke-linecap="round" stroke-linejoin="round" stroke-width="0.1"   d="M12.05 25.26L12.05 28.16L14.82 28.16L14.82 29.36L12.05 29.36L12.05 32.50L10.77 32.50L10.77 29.36L8.00 29.36L8.00 28.16L10.77 28.16L10.77 25.26L12.05 25.26ZM25.72 33.50L24.39 33.50Q24.28 33.28 24.21 32.72L24.21 32.72Q23.33 33.64 22.11 33.64L22.11 33.64Q21.01 33.64 20.31 33.02Q19.61 32.40 19.61 31.45L19.61 31.45Q19.61 30.29 20.49 29.65Q21.37 29.02 22.96 29.02L22.96 29.02L24.19 29.02L24.19 28.43Q24.19 27.77 23.80 27.38Q23.40 26.99 22.63 26.99L22.63 26.99Q21.95 26.99 21.49 27.33Q21.04 27.67 21.04 28.15L21.04 28.15L19.76 28.15Q19.76 27.60 20.16 27.08Q20.55 26.57 21.22 26.27Q21.90 25.97 22.70 25.97L22.70 25.97Q23.98 25.97 24.71 26.61Q25.43 27.25 25.46 28.37L25.46 28.37L25.46 31.77Q25.46 32.79 25.72 33.39L25.72 33.39L25.72 33.50ZM22.29 32.54L22.29 32.54Q22.89 32.54 23.42 32.23Q23.95 31.92 24.19 31.43L24.19 31.43L24.19 29.91L23.20 29.91Q20.88 29.91 20.88 31.27L20.88 31.27Q20.88 31.87 21.27 32.20Q21.67 32.54 22.29 32.54ZM27.89 24.31L29.16 24.31L29.16 26.10L30.54 26.10L30.54 27.08L29.16 27.08L29.16 31.67Q29.16 32.11 29.34 32.33Q29.53 32.56 29.97 32.56L29.97 32.56Q30.19 32.56 30.57 32.47L30.57 32.47L30.57 33.50Q30.07 33.64 29.60 33.64L29.60 33.64Q28.75 33.64 28.32 33.12Q27.89 32.61 27.89 31.67L27.89 31.67L27.89 27.08L26.54 27.08L26.54 26.10L27.89 26.10L27.89 24.31ZM32.46 24.31L33.73 24.31L33.73 26.10L35.11 26.10L35.11 27.08L33.73 27.08L33.73 31.67Q33.73 32.11 33.91 32.33Q34.10 32.56 34.54 32.56L34.54 32.56Q34.76 32.56 35.14 32.47L35.14 32.47L35.14 33.50Q34.65 33.64 34.17 33.64L34.17 33.64Q33.33 33.64 32.90 33.12Q32.46 32.61 32.46 31.67L32.46 31.67L32.46 27.08L31.12 27.08L31.12 26.10L32.46 26.10L32.46 24.31ZM40.16 26.06L40.16 27.24Q39.88 27.19 39.54 27.19L39.54 27.19Q38.30 27.19 37.85 28.25L37.85 28.25L37.85 33.50L36.59 33.50L36.59 26.10L37.82 26.10L37.84 26.96Q38.46 25.97 39.60 25.97L39.60 25.97Q39.97 25.97 40.16 26.06L40.16 26.06ZM42.70 26.10L42.70 33.50L41.43 33.50L41.43 26.10L42.70 26.10ZM41.33 24.14L41.33 24.14Q41.33 23.83 41.52 23.62Q41.71 23.41 42.08 23.41Q42.45 23.41 42.64 23.62Q42.83 23.83 42.83 24.14Q42.83 24.45 42.64 24.65Q42.45 24.86 42.08 24.86Q41.71 24.86 41.52 24.65Q41.33 24.45 41.33 24.14ZM50.98 29.77L50.98 29.88Q50.98 31.58 50.20 32.61Q49.42 33.64 48.11 33.64L48.11 33.64Q46.71 33.64 45.95 32.65L45.95 32.65L45.88 33.50L44.72 33.50L44.72 23L45.99 23L45.99 26.92Q46.75 25.97 48.10 25.97Q49.45 25.97 50.21 26.99Q50.98 28.00 50.98 29.77L50.98 29.77ZM49.72 29.74L49.72 29.74Q49.72 28.45 49.22 27.74Q48.72 27.04 47.78 27.04L47.78 27.04Q46.53 27.04 45.99 28.20L45.99 28.20L45.99 31.40Q46.57 32.56 47.80 32.56L47.80 32.56Q48.71 32.56 49.21 31.86Q49.72 31.16 49.72 29.74ZM57.17 33.50L57.14 32.77Q56.40 33.64 54.98 33.64L54.98 33.64Q53.79 33.64 53.17 32.95Q52.56 32.26 52.55 30.92L52.55 30.92L52.55 26.10L53.81 26.10L53.81 30.88Q53.81 32.56 55.18 32.56L55.18 32.56Q56.63 32.56 57.11 31.48L57.11 31.48L57.11 26.10L58.37 26.10L58.37 33.50L57.17 33.50ZM60.75 24.31L62.01 24.31L62.01 26.10L63.39 26.10L63.39 27.08L62.01 27.08L62.01 31.67Q62.01 32.11 62.19 32.33Q62.38 32.56 62.82 32.56L62.82 32.56Q63.04 32.56 63.42 32.47L63.42 32.47L63.42 33.50Q62.93 33.64 62.45 33.64L62.45 33.64Q61.61 33.64 61.18 33.12Q60.75 32.61 60.75 31.67L60.75 31.67L60.75 27.08L59.40 27.08L59.40 26.10L60.75 26.10L60.75 24.31ZM67.94 33.64L67.94 33.64Q66.43 33.64 65.49 32.65Q64.55 31.66 64.55 30.01L64.55 30.01L64.55 29.77Q64.55 28.67 64.97 27.81Q65.39 26.94 66.14 26.46Q66.90 25.97 67.78 25.97L67.78 25.97Q69.22 25.97 70.02 26.92Q70.82 27.87 70.82 29.64L70.82 29.64L70.82 30.16L65.81 30.16Q65.84 31.26 66.45 31.93Q67.06 32.60 68.00 32.60L68.00 32.60Q68.67 32.60 69.14 32.33Q69.60 32.06 69.95 31.61L69.95 31.61L70.73 32.21Q69.80 33.64 67.94 33.64ZM67.78 27.01L67.78 27.01Q67.01 27.01 66.49 27.56Q65.97 28.12 65.85 29.13L65.85 29.13L69.56 29.13L69.56 29.03Q69.50 28.07 69.04 27.54Q68.57 27.01 67.78 27.01ZM78.68 32.47L78.68 33.50L72.15 33.50L72.15 32.59L75.60 28.76Q76.37 27.89 76.66 27.35Q76.95 26.81 76.95 26.23L76.95 26.23Q76.95 25.45 76.47 24.95Q76.00 24.45 75.22 24.45L75.22 24.45Q74.27 24.45 73.75 24.99Q73.23 25.52 73.23 26.48L73.23 26.48L71.96 26.48Q71.96 25.11 72.85 24.26Q73.73 23.41 75.22 23.41L75.22 23.41Q76.60 23.41 77.41 24.14Q78.22 24.87 78.22 26.08L78.22 26.08Q78.22 27.55 76.34 29.58L76.34 29.58L73.68 32.47L78.68 32.47ZM80.10 32.84L80.10 32.84Q80.10 32.51 80.30 32.29Q80.49 32.07 80.88 32.07Q81.27 32.07 81.48 32.29Q81.68 32.51 81.68 32.84L81.68 32.84Q81.68 33.15 81.48 33.36Q81.27 33.58 80.88 33.58Q80.49 33.58 80.30 33.36Q80.10 33.15 80.10 32.84ZM80.11 26.80L80.11 26.80Q80.11 26.47 80.31 26.25Q80.50 26.04 80.89 26.04Q81.28 26.04 81.48 26.25Q81.68 26.47 81.68 26.80L81.68 26.80Q81.68 27.12 81.48 27.33Q81.28 27.54 80.89 27.54Q80.50 27.54 80.31 27.33Q80.11 27.12 80.11 26.80ZM93.80 23.55L93.80 24.63L90.60 24.63L90.60 33.50L89.30 33.50L89.30 24.63L86.11 24.63L86.11 23.55L93.80 23.55ZM95.16 26.10L97.01 31.65L98.73 26.10L100.09 26.10L97.11 34.64Q96.42 36.49 94.92 36.49L94.92 36.49L94.68 36.47L94.21 36.38L94.21 35.35L94.55 35.38Q95.19 35.38 95.55 35.12Q95.91 34.86 96.14 34.17L96.14 34.17L96.42 33.42L93.78 26.10L95.16 26.10ZM107.46 29.77L107.46 29.88Q107.46 31.57 106.69 32.60Q105.92 33.64 104.60 33.64L104.60 33.64Q103.25 33.64 102.48 32.78L102.48 32.78L102.48 36.34L101.21 36.34L101.21 26.10L102.37 26.10L102.43 26.92Q103.20 25.97 104.58 25.97L104.58 25.97Q105.91 25.97 106.69 26.97Q107.46 27.98 107.46 29.77L107.46 29.77ZM106.20 29.74L106.20 29.74Q106.20 28.49 105.66 27.76Q105.13 27.04 104.20 27.04L104.20 27.04Q103.05 27.04 102.48 28.06L102.48 28.06L102.48 31.59Q103.05 32.60 104.21 32.60L104.21 32.60Q105.12 32.60 105.66 31.88Q106.20 31.16 106.20 29.74ZM112.14 33.64L112.14 33.64Q110.63 33.64 109.69 32.65Q108.75 31.66 108.75 30.01L108.75 30.01L108.75 29.77Q108.75 28.67 109.17 27.81Q109.59 26.94 110.34 26.46Q111.10 25.97 111.98 25.97L111.98 25.97Q113.42 25.97 114.22 26.92Q115.02 27.87 115.02 29.64L115.02 29.64L115.02 30.16L110.01 30.16Q110.04 31.26 110.65 31.93Q111.26 32.60 112.21 32.60L112.21 32.60Q112.88 32.60 113.34 32.33Q113.81 32.06 114.15 31.61L114.15 31.61L114.93 32.21Q114.00 33.64 112.14 33.64ZM111.98 27.01L111.98 27.01Q111.21 27.01 110.70 27.56Q110.18 28.12 110.05 29.13L110.05 29.13L113.76 29.13L113.76 29.03Q113.70 28.07 113.24 27.54Q112.77 27.01 111.98 27.01Z"/>
                <path fill="#000000FF" stroke="#000000FF" stroke-linecap="round" stroke-linejoin="round" stroke-width="0.1"   d=""/>
                <path fill="#000000FF" stroke="#000000FF" stroke-linecap="round" stroke-linejoin="round" stroke-width="0.1"   d=""/>
                <path fill="#000000FF" stroke="#000000FF" stroke-linecap="round" stroke-linejoin="round" stroke-width="0.1"   d="M11.05 42.76L11.05 43.79L7.72 43.79L7.72 42.76L11.05 42.76ZM21.64 47.50L20.32 47.50Q20.21 47.28 20.14 46.72L20.14 46.72Q19.26 47.64 18.03 47.64L18.03 47.64Q16.94 47.64 16.24 47.02Q15.54 46.40 15.54 45.45L15.54 45.45Q15.54 44.29 16.42 43.65Q17.30 43.02 18.89 43.02L18.89 43.02L20.12 43.02L20.12 42.43Q20.12 41.77 19.72 41.38Q19.33 40.99 18.55 40.99L18.55 40.99Q17.88 40.99 17.42 41.33Q16.96 41.67 16.96 42.15L16.96 42.15L15.69 42.15Q15.69 41.60 16.08 41.08Q16.48 40.57 17.15 40.27Q17.82 39.97 18.63 39.97L18.63 39.97Q19.91 39.97 20.63 40.61Q21.36 41.25 21.38 42.37L21.38 42.37L21.38 45.77Q21.38 46.79 21.64 47.39L21.64 47.39L21.64 47.50ZM18.22 46.54L18.22 46.54Q18.81 46.54 19.35 46.23Q19.88 45.92 20.12 45.43L20.12 45.43L20.12 43.91L19.13 43.91Q16.80 43.91 16.80 45.27L16.80 45.27Q16.80 45.87 17.20 46.20Q17.60 46.54 18.22 46.54ZM23.82 38.31L25.08 38.31L25.08 40.10L26.46 40.10L26.46 41.08L25.08 41.08L25.08 45.67Q25.08 46.11 25.27 46.33Q25.45 46.56 25.90 46.56L25.90 46.56Q26.11 46.56 26.50 46.47L26.50 46.47L26.50 47.50Q26.00 47.64 25.53 47.64L25.53 47.64Q24.68 47.64 24.25 47.12Q23.82 46.61 23.82 45.67L23.82 45.67L23.82 41.08L22.47 41.08L22.47 40.10L23.82 40.10L23.82 38.31ZM28.39 38.31L29.66 38.31L29.66 40.10L31.04 40.10L31.04 41.08L29.66 41.08L29.66 45.67Q29.66 46.11 29.84 46.33Q30.02 46.56 30.47 46.56L30.47 46.56Q30.69 46.56 31.07 46.47L31.07 46.47L31.07 47.50Q30.57 47.64 30.10 47.64L30.10 47.64Q29.25 47.64 28.82 47.12Q28.39 46.61 28.39 45.67L28.39 45.67L28.39 41.08L27.04 41.08L27.04 40.10L28.39 40.10L28.39 38.31ZM36.09 40.06L36.09 41.24Q35.80 41.19 35.47 41.19L35.47 41.19Q34.22 41.19 33.78 42.25L33.78 42.25L33.78 47.50L32.51 47.50L32.51 40.10L33.74 40.10L33.76 40.96Q34.39 39.97 35.53 39.97L35.53 39.97Q35.90 39.97 36.09 40.06L36.09 40.06ZM38.62 40.10L38.62 47.50L37.36 47.50L37.36 40.10L38.62 40.10ZM37.26 38.14L37.26 38.14Q37.26 37.83 37.44 37.62Q37.63 37.41 38.00 37.41Q38.37 37.41 38.56 37.62Q38.75 37.83 38.75 38.14Q38.75 38.45 38.56 38.65Q38.37 38.86 38.00 38.86Q37.63 38.86 37.44 38.65Q37.26 38.45 37.26 38.14ZM46.91 43.77L46.91 43.88Q46.91 45.58 46.13 46.61Q45.35 47.64 44.04 47.64L44.04 47.64Q42.64 47.64 41.87 46.65L41.87 46.65L41.81 47.50L40.65 47.50L40.65 37L41.91 37L41.91 40.92Q42.68 39.97 44.02 39.97Q45.37 39.97 46.14 40.99Q46.91 42.00 46.91 43.77L46.91 43.77ZM45.64 43.74L45.64 43.74Q45.64 42.45 45.15 41.74Q44.65 41.04 43.71 41.04L43.71 41.04Q42.46 41.04 41.91 42.20L41.91 42.20L41.91 45.40Q42.49 46.56 43.72 46.56L43.72 46.56Q44.63 46.56 45.14 45.86Q45.64 45.16 45.64 43.74ZM53.10 47.50L53.07 46.77Q52.33 47.64 50.90 47.64L50.90 47.64Q49.72 47.64 49.10 46.95Q48.48 46.26 48.47 44.92L48.47 44.92L48.47 40.10L49.74 40.10L49.74 44.88Q49.74 46.56 51.11 46.56L51.11 46.56Q52.56 46.56 53.03 45.48L53.03 45.48L53.03 40.10L54.30 40.10L54.30 47.50L53.10 47.50ZM56.67 38.31L57.94 38.31L57.94 40.10L59.32 40.10L59.32 41.08L57.94 41.08L57.94 45.67Q57.94 46.11 58.12 46.33Q58.30 46.56 58.75 46.56L58.75 46.56Q58.97 46.56 59.35 46.47L59.35 46.47L59.35 47.50Q58.85 47.64 58.38 47.64L58.38 47.64Q57.53 47.64 57.10 47.12Q56.67 46.61 56.67 45.67L56.67 45.67L56.67 41.08L55.32 41.08L55.32 40.10L56.67 40.10L56.67 38.31ZM63.86 47.64L63.86 47.64Q62.36 47.64 61.42 46.65Q60.47 45.66 60.47 44.01L60.47 44.01L60.47 43.77Q60.47 42.67 60.89 41.81Q61.31 40.94 62.07 40.46Q62.82 39.97 63.71 39.97L63.71 39.97Q65.15 39.97 65.95 40.92Q66.75 41.87 66.75 43.64L66.75 43.64L66.75 44.16L61.74 44.16Q61.76 45.26 62.38 45.93Q62.99 46.60 63.93 46.60L63.93 46.60Q64.60 46.60 65.07 46.33Q65.53 46.06 65.88 45.61L65.88 45.61L66.65 46.21Q65.72 47.64 63.86 47.64ZM63.71 41.01L63.71 41.01Q62.94 41.01 62.42 41.56Q61.90 42.12 61.78 43.13L61.78 43.13L65.48 43.13L65.48 43.03Q65.43 42.07 64.96 41.54Q64.50 41.01 63.71 41.01ZM69.92 42.94L69.92 41.91L70.87 41.91Q71.76 41.89 72.28 41.44Q72.79 40.98 72.79 40.20L72.79 40.20Q72.79 38.45 71.05 38.45L71.05 38.45Q70.23 38.45 69.74 38.92Q69.25 39.39 69.25 40.16L69.25 40.16L67.98 40.16Q67.98 38.98 68.85 38.19Q69.71 37.41 71.05 37.41L71.05 37.41Q72.46 37.41 73.25 38.16Q74.05 38.90 74.05 40.23L74.05 40.23Q74.05 40.88 73.63 41.48Q73.21 42.09 72.49 42.39L72.49 42.39Q73.31 42.65 73.76 43.25Q74.21 43.86 74.21 44.72L74.21 44.72Q74.21 46.06 73.33 46.85Q72.46 47.64 71.05 47.64Q69.65 47.64 68.77 46.88Q67.90 46.12 67.90 44.88L67.90 44.88L69.17 44.88Q69.17 45.66 69.68 46.13Q70.19 46.60 71.05 46.60L71.05 46.60Q71.97 46.60 72.46 46.13Q72.94 45.65 72.94 44.75L72.94 44.75Q72.94 43.88 72.41 43.42Q71.87 42.95 70.87 42.94L70.87 42.94L69.92 42.94ZM76.03 46.84L76.03 46.84Q76.03 46.51 76.23 46.29Q76.42 46.07 76.81 46.07Q77.20 46.07 77.40 46.29Q77.60 46.51 77.60 46.84L77.60 46.84Q77.60 47.15 77.40 47.36Q77.20 47.58 76.81 47.58Q76.42 47.58 76.23 47.36Q76.03 47.15 76.03 46.84ZM76.04 40.80L76.04 40.80Q76.04 40.47 76.23 40.25Q76.43 40.04 76.82 40.04Q77.21 40.04 77.41 40.25Q77.61 40.47 77.61 40.80L77.61 40.80Q77.61 41.12 77.41 41.33Q77.21 41.54 76.82 41.54Q76.43 41.54 76.23 41.33Q76.04 41.12 76.04 40.80ZM89.73 37.55L89.73 38.63L86.53 38.63L86.53 47.50L85.22 47.50L85.22 38.63L82.03 38.63L82.03 37.55L89.73 37.55ZM91.09 40.10L92.94 45.65L94.66 40.10L96.01 40.10L93.04 48.64Q92.35 50.49 90.84 50.49L90.84 50.49L90.60 50.47L90.13 50.38L90.13 49.35L90.47 49.38Q91.12 49.38 91.48 49.12Q91.83 48.86 92.07 48.17L92.07 48.17L92.35 47.42L89.71 40.10L91.09 40.10ZM103.39 43.77L103.39 43.88Q103.39 45.57 102.62 46.60Q101.84 47.64 100.52 47.64L100.52 47.64Q99.18 47.64 98.40 46.78L98.40 46.78L98.40 50.34L97.14 50.34L97.14 40.10L98.29 40.10L98.36 40.92Q99.13 39.97 100.50 39.97L100.50 39.97Q101.84 39.97 102.61 40.97Q103.39 41.98 103.39 43.77L103.39 43.77ZM102.12 43.74L102.12 43.74Q102.12 42.49 101.59 41.76Q101.06 41.04 100.13 41.04L100.13 41.04Q98.98 41.04 98.40 42.06L98.40 42.06L98.40 45.59Q98.97 46.60 100.14 46.60L100.14 46.60Q101.05 46.60 101.59 45.88Q102.12 45.16 102.12 43.74ZM108.06 47.64L108.06 47.64Q106.56 47.64 105.62 46.65Q104.67 45.66 104.67 44.01L104.67 44.01L104.67 43.77Q104.67 42.67 105.09 41.81Q105.51 40.94 106.27 40.46Q107.02 39.97 107.91 39.97L107.91 39.97Q109.35 39.97 110.15 40.92Q110.95 41.87 110.95 43.64L110.95 43.64L110.95 44.16L105.94 44.16Q105.96 45.26 106.58 45.93Q107.19 46.60 108.13 46.60L108.13 46.60Q108.80 46.60 109.27 46.33Q109.73 46.06 110.08 45.61L110.08 45.61L110.85 46.21Q109.92 47.64 108.06 47.64ZM107.91 41.01L107.91 41.01Q107.14 41.01 106.62 41.56Q106.10 42.12 105.98 43.13L105.98 43.13L109.68 43.13L109.68 43.03Q109.63 42.07 109.16 41.54Q108.70 41.01 107.91 41.01Z"/>
            </g>
        </g>
        <g id="c20da61f036c45cf92d56725d3d71aac" transform="translate(0, 105) ">
            <path fill="#FFFFFFFF" stroke="#323232FF" stroke-width="1.5" d="M0 0L0 55L250 55L250 0L0 0Z"/>    
            <g transform="matrix(1.00, 0.00, 0.00, 1.00, 0.00, 0.00)">
                <path fill="#000000FF" stroke="#000000FF" stroke-linecap="round" stroke-linejoin="round" stroke-width="0.1"   d="M12.05 11.26L12.05 14.16L14.82 14.16L14.82 15.36L12.05 15.36L12.05 18.50L10.77 18.50L10.77 15.36L8.00 15.36L8.00 14.16L10.77 14.16L10.77 11.26L12.05 11.26ZM19.49 15.82L19.49 15.73Q19.49 14.65 19.92 13.78Q20.34 12.91 21.11 12.44Q21.87 11.97 22.85 11.97L22.85 11.97Q24.36 11.97 25.29 13.01Q26.22 14.06 26.22 15.79L26.22 15.79L26.22 15.88Q26.22 16.96 25.81 17.82Q25.40 18.68 24.63 19.16Q23.86 19.64 22.86 19.64L22.86 19.64Q21.36 19.64 20.42 18.59Q19.49 17.54 19.49 15.82L19.49 15.82ZM20.76 15.88L20.76 15.88Q20.76 17.11 21.33 17.86Q21.90 18.60 22.86 18.60L22.86 18.60Q23.82 18.60 24.39 17.85Q24.96 17.09 24.96 15.73L24.96 15.73Q24.96 14.52 24.38 13.76Q23.80 13.01 22.85 13.01L22.85 13.01Q21.91 13.01 21.34 13.75Q20.76 14.50 20.76 15.88ZM34.06 15.77L34.06 15.88Q34.06 17.57 33.29 18.60Q32.51 19.64 31.19 19.64L31.19 19.64Q29.85 19.64 29.07 18.78L29.07 18.78L29.07 22.34L27.81 22.34L27.81 12.10L28.96 12.10L29.03 12.92Q29.80 11.97 31.17 11.97L31.17 11.97Q32.51 11.97 33.28 12.97Q34.06 13.98 34.06 15.77L34.06 15.77ZM32.79 15.74L32.79 15.74Q32.79 14.49 32.26 13.76Q31.73 13.04 30.80 13.04L30.80 13.04Q29.65 13.04 29.07 14.06L29.07 14.06L29.07 17.59Q29.64 18.60 30.81 18.60L30.81 18.60Q31.72 18.60 32.26 17.88Q32.79 17.16 32.79 15.74ZM38.73 19.64L38.73 19.64Q37.23 19.64 36.29 18.65Q35.34 17.66 35.34 16.01L35.34 16.01L35.34 15.77Q35.34 14.67 35.76 13.81Q36.18 12.94 36.94 12.46Q37.69 11.97 38.58 11.97L38.58 11.97Q40.02 11.97 40.82 12.92Q41.62 13.87 41.62 15.64L41.62 15.64L41.62 16.16L36.61 16.16Q36.63 17.26 37.25 17.93Q37.86 18.60 38.80 18.60L38.80 18.60Q39.47 18.60 39.94 18.33Q40.40 18.06 40.75 17.61L40.75 17.61L41.52 18.21Q40.59 19.64 38.73 19.64ZM38.58 13.01L38.58 13.01Q37.81 13.01 37.29 13.56Q36.77 14.12 36.65 15.13L36.65 15.13L40.35 15.13L40.35 15.03Q40.30 14.07 39.83 13.54Q39.37 13.01 38.58 13.01ZM46.66 12.06L46.66 13.24Q46.37 13.19 46.03 13.19L46.03 13.19Q44.79 13.19 44.35 14.25L44.35 14.25L44.35 19.50L43.08 19.50L43.08 12.10L44.31 12.10L44.33 12.96Q44.95 11.97 46.10 11.97L46.10 11.97Q46.46 11.97 46.66 12.06L46.66 12.06ZM53.44 19.50L52.11 19.50Q52.00 19.28 51.93 18.72L51.93 18.72Q51.05 19.64 49.83 19.64L49.83 19.64Q48.73 19.64 48.03 19.02Q47.33 18.40 47.33 17.45L47.33 17.45Q47.33 16.29 48.21 15.65Q49.09 15.02 50.68 15.02L50.68 15.02L51.91 15.02L51.91 14.43Q51.91 13.77 51.52 13.38Q51.12 12.99 50.35 12.99L50.35 12.99Q49.67 12.99 49.21 13.33Q48.75 13.67 48.75 14.15L48.75 14.15L47.48 14.15Q47.48 13.60 47.88 13.08Q48.27 12.57 48.94 12.27Q49.62 11.97 50.42 11.97L50.42 11.97Q51.70 11.97 52.43 12.61Q53.15 13.25 53.18 14.37L53.18 14.37L53.18 17.77Q53.18 18.79 53.44 19.39L53.44 19.39L53.44 19.50ZM50.01 18.54L50.01 18.54Q50.61 18.54 51.14 18.23Q51.67 17.92 51.91 17.43L51.91 17.43L51.91 15.91L50.92 15.91Q48.60 15.91 48.60 17.27L48.60 17.27Q48.60 17.87 48.99 18.20Q49.39 18.54 50.01 18.54ZM55.61 10.31L56.88 10.31L56.88 12.10L58.26 12.10L58.26 13.08L56.88 13.08L56.88 17.67Q56.88 18.11 57.06 18.33Q57.25 18.56 57.69 18.56L57.69 18.56Q57.91 18.56 58.29 18.47L58.29 18.47L58.29 19.50Q57.79 19.64 57.32 19.64L57.32 19.64Q56.47 19.64 56.04 19.12Q55.61 18.61 55.61 17.67L55.61 17.67L55.61 13.08L54.26 13.08L54.26 12.10L55.61 12.10L55.61 10.31ZM61.11 12.10L61.11 19.50L59.84 19.50L59.84 12.10L61.11 12.10ZM59.74 10.14L59.74 10.14Q59.74 9.83 59.93 9.62Q60.12 9.41 60.49 9.41Q60.85 9.41 61.05 9.62Q61.24 9.83 61.24 10.14Q61.24 10.45 61.05 10.65Q60.85 10.86 60.49 10.86Q60.12 10.86 59.93 10.65Q59.74 10.45 59.74 10.14ZM62.80 15.82L62.80 15.73Q62.80 14.65 63.22 13.78Q63.65 12.91 64.41 12.44Q65.17 11.97 66.15 11.97L66.15 11.97Q67.66 11.97 68.60 13.01Q69.53 14.06 69.53 15.79L69.53 15.79L69.53 15.88Q69.53 16.96 69.12 17.82Q68.70 18.68 67.93 19.16Q67.16 19.64 66.17 19.64L66.17 19.64Q64.66 19.64 63.73 18.59Q62.80 17.54 62.80 15.82L62.80 15.82ZM64.07 15.88L64.07 15.88Q64.07 17.11 64.64 17.86Q65.21 18.60 66.17 18.60L66.17 18.60Q67.13 18.60 67.70 17.85Q68.26 17.09 68.26 15.73L68.26 15.73Q68.26 14.52 67.69 13.76Q67.11 13.01 66.15 13.01L66.15 13.01Q65.22 13.01 64.64 13.75Q64.07 14.50 64.07 15.88ZM71.12 12.10L72.31 12.10L72.35 13.03Q73.20 11.97 74.57 11.97L74.57 11.97Q76.91 11.97 76.93 14.61L76.93 14.61L76.93 19.50L75.67 19.50L75.67 14.61Q75.66 13.81 75.30 13.42Q74.94 13.04 74.18 13.04L74.18 13.04Q73.57 13.04 73.10 13.37Q72.64 13.70 72.38 14.23L72.38 14.23L72.38 19.50L71.12 19.50L71.12 12.10ZM82.87 9.50L82.87 19.50L81.59 19.50L81.59 11.07L79.04 12.01L79.04 10.86L82.67 9.50L82.87 9.50ZM86.65 15.46L86.65 15.46Q86.65 13.92 87.07 12.49Q87.48 11.07 88.30 9.91Q89.12 8.75 90.00 8.27L90.00 8.27L90.26 9.10Q89.26 9.87 88.63 11.44Q87.99 13.01 87.92 14.96L87.92 14.96L87.92 15.54Q87.92 18.18 88.88 20.12L88.88 20.12Q89.46 21.28 90.26 21.94L90.26 21.94L90.00 22.71Q89.09 22.21 88.27 21.02L88.27 21.02Q86.65 18.69 86.65 15.46ZM97.73 15.77L97.73 15.88Q97.73 17.57 96.96 18.60Q96.19 19.64 94.87 19.64L94.87 19.64Q93.52 19.64 92.75 18.78L92.75 18.78L92.75 22.34L91.49 22.34L91.49 12.10L92.64 12.10L92.70 12.92Q93.48 11.97 94.85 11.97L94.85 11.97Q96.18 11.97 96.96 12.97Q97.73 13.98 97.73 15.77L97.73 15.77ZM96.47 15.74L96.47 15.74Q96.47 14.49 95.94 13.76Q95.40 13.04 94.47 13.04L94.47 13.04Q93.33 13.04 92.75 14.06L92.75 14.06L92.75 17.59Q93.32 18.60 94.49 18.60L94.49 18.60Q95.40 18.60 95.93 17.88Q96.47 17.16 96.47 15.74ZM105.23 19.50L103.91 19.50Q103.80 19.28 103.73 18.72L103.73 18.72Q102.85 19.64 101.62 19.64L101.62 19.64Q100.53 19.64 99.83 19.02Q99.13 18.40 99.13 17.45L99.13 17.45Q99.13 16.29 100.01 15.65Q100.89 15.02 102.48 15.02L102.48 15.02L103.71 15.02L103.71 14.43Q103.71 13.77 103.31 13.38Q102.92 12.99 102.14 12.99L102.14 12.99Q101.47 12.99 101.01 13.33Q100.55 13.67 100.55 14.15L100.55 14.15L99.28 14.15Q99.28 13.60 99.67 13.08Q100.07 12.57 100.74 12.27Q101.41 11.97 102.22 11.97L102.22 11.97Q103.50 11.97 104.22 12.61Q104.95 13.25 104.97 14.37L104.97 14.37L104.97 17.77Q104.97 18.79 105.23 19.39L105.23 19.39L105.23 19.50ZM101.81 18.54L101.81 18.54Q102.40 18.54 102.94 18.23Q103.47 17.92 103.71 17.43L103.71 17.43L103.71 15.91L102.72 15.91Q100.39 15.91 100.39 17.27L100.39 17.27Q100.39 17.87 100.79 18.20Q101.19 18.54 101.81 18.54ZM110.53 12.06L110.53 13.24Q110.24 13.19 109.91 13.19L109.91 13.19Q108.67 13.19 108.22 14.25L108.22 14.25L108.22 19.50L106.96 19.50L106.96 12.10L108.19 12.10L108.21 12.96Q108.83 11.97 109.97 11.97L109.97 11.97Q110.34 11.97 110.53 12.06L110.53 12.06ZM117.31 19.50L115.99 19.50Q115.88 19.28 115.81 18.72L115.81 18.72Q114.93 19.64 113.70 19.64L113.70 19.64Q112.61 19.64 111.91 19.02Q111.21 18.40 111.21 17.45L111.21 17.45Q111.21 16.29 112.09 15.65Q112.96 15.02 114.56 15.02L114.56 15.02L115.79 15.02L115.79 14.43Q115.79 13.77 115.39 13.38Q115.00 12.99 114.22 12.99L114.22 12.99Q113.55 12.99 113.09 13.33Q112.63 13.67 112.63 14.15L112.63 14.15L111.36 14.15Q111.36 13.60 111.75 13.08Q112.14 12.57 112.82 12.27Q113.49 11.97 114.30 11.97L114.30 11.97Q115.58 11.97 116.30 12.61Q117.03 13.25 117.05 14.37L117.05 14.37L117.05 17.77Q117.05 18.79 117.31 19.39L117.31 19.39L117.31 19.50ZM113.89 18.54L113.89 18.54Q114.48 18.54 115.02 18.23Q115.55 17.92 115.79 17.43L115.79 17.43L115.79 15.91L114.80 15.91Q112.47 15.91 112.47 17.27L112.47 17.27Q112.47 17.87 112.87 18.20Q113.27 18.54 113.89 18.54ZM119.03 12.10L120.22 12.10L120.26 12.92Q121.07 11.97 122.45 11.97L122.45 11.97Q124.00 11.97 124.57 13.16L124.57 13.16Q124.93 12.62 125.53 12.29Q126.12 11.97 126.92 11.97L126.92 11.97Q129.36 11.97 129.40 14.54L129.40 14.54L129.40 19.50L128.13 19.50L128.13 14.62Q128.13 13.83 127.77 13.43Q127.41 13.04 126.55 13.04L126.55 13.04Q125.85 13.04 125.39 13.46Q124.92 13.88 124.85 14.59L124.85 14.59L124.85 19.50L123.57 19.50L123.57 14.65Q123.57 13.04 122.00 13.04L122.00 13.04Q120.75 13.04 120.29 14.10L120.29 14.10L120.29 19.50L119.03 19.50L119.03 12.10ZM135.61 17.54L135.61 17.54Q135.61 17.03 135.23 16.74Q134.84 16.46 133.88 16.25Q132.92 16.05 132.35 15.76Q131.79 15.47 131.52 15.08Q131.25 14.68 131.25 14.13L131.25 14.13Q131.25 13.22 132.02 12.60Q132.79 11.97 133.99 11.97L133.99 11.97Q135.24 11.97 136.03 12.62Q136.81 13.27 136.81 14.28L136.81 14.28L135.54 14.28Q135.54 13.76 135.10 13.38Q134.66 13.01 133.99 13.01L133.99 13.01Q133.29 13.01 132.91 13.31Q132.52 13.61 132.52 14.09L132.52 14.09Q132.52 14.55 132.88 14.78Q133.24 15.02 134.19 15.23Q135.13 15.44 135.72 15.73Q136.31 16.03 136.59 16.44Q136.88 16.85 136.88 17.45L136.88 17.45Q136.88 18.44 136.08 19.04Q135.29 19.64 134.03 19.64L134.03 19.64Q133.14 19.64 132.45 19.32Q131.77 19.01 131.38 18.44Q131.00 17.88 131.00 17.22L131.00 17.22L132.26 17.22Q132.30 17.86 132.77 18.23Q133.25 18.60 134.03 18.60L134.03 18.60Q134.74 18.60 135.18 18.31Q135.61 18.02 135.61 17.54ZM141.44 15.53L141.44 15.53Q141.44 17.05 141.04 18.45Q140.64 19.85 139.82 21.03Q139.00 22.21 138.09 22.71L138.09 22.71L137.83 21.94Q138.88 21.13 139.52 19.44Q140.16 17.74 140.17 15.67L140.17 15.67L140.17 15.45Q140.17 14.01 139.87 12.78Q139.57 11.54 139.03 10.57Q138.50 9.59 137.83 9.04L137.83 9.04L138.09 8.27Q139.00 8.77 139.81 9.94Q140.63 11.11 141.04 12.51Q141.44 13.92 141.44 15.53ZM143.35 18.84L143.35 18.84Q143.35 18.51 143.55 18.29Q143.74 18.07 144.13 18.07Q144.52 18.07 144.72 18.29Q144.92 18.51 144.92 18.84L144.92 18.84Q144.92 19.15 144.72 19.36Q144.52 19.58 144.13 19.58Q143.74 19.58 143.55 19.36Q143.35 19.15 143.35 18.84ZM143.36 12.80L143.36 12.80Q143.36 12.47 143.55 12.25Q143.75 12.04 144.14 12.04Q144.53 12.04 144.73 12.25Q144.93 12.47 144.93 12.80L144.93 12.80Q144.93 13.12 144.73 13.33Q144.53 13.54 144.14 13.54Q143.75 13.54 143.55 13.33Q143.36 13.12 143.36 12.80ZM153.82 12.06L153.82 13.24Q153.54 13.19 153.20 13.19L153.20 13.19Q151.96 13.19 151.51 14.25L151.51 14.25L151.51 19.50L150.25 19.50L150.25 12.10L151.48 12.10L151.50 12.96Q152.12 11.97 153.26 11.97L153.26 11.97Q153.63 11.97 153.82 12.06L153.82 12.06ZM157.92 19.64L157.92 19.64Q156.42 19.64 155.48 18.65Q154.53 17.66 154.53 16.01L154.53 16.01L154.53 15.77Q154.53 14.67 154.95 13.81Q155.38 12.94 156.13 12.46Q156.89 11.97 157.77 11.97L157.77 11.97Q159.21 11.97 160.01 12.92Q160.81 13.87 160.81 15.64L160.81 15.64L160.81 16.16L155.80 16.16Q155.83 17.26 156.44 17.93Q157.05 18.60 157.99 18.60L157.99 18.60Q158.66 18.60 159.13 18.33Q159.59 18.06 159.94 17.61L159.94 17.61L160.71 18.21Q159.78 19.64 157.92 19.64ZM157.77 13.01L157.77 13.01Q157.00 13.01 156.48 13.56Q155.96 14.12 155.84 15.13L155.84 15.13L159.54 15.13L159.54 15.03Q159.49 14.07 159.03 13.54Q158.56 13.01 157.77 13.01ZM162.72 10.31L163.99 10.31L163.99 12.10L165.37 12.10L165.37 13.08L163.99 13.08L163.99 17.67Q163.99 18.11 164.17 18.33Q164.36 18.56 164.80 18.56L164.80 18.56Q165.02 18.56 165.40 18.47L165.40 18.47L165.40 19.50Q164.90 19.64 164.43 19.64L164.43 19.64Q163.58 19.64 163.15 19.12Q162.72 18.61 162.72 17.67L162.72 17.67L162.72 13.08L161.38 13.08L161.38 12.10L162.72 12.10L162.72 10.31ZM171.44 19.50L171.41 18.77Q170.67 19.64 169.25 19.64L169.25 19.64Q168.06 19.64 167.44 18.95Q166.83 18.26 166.82 16.92L166.82 16.92L166.82 12.10L168.08 12.10L168.08 16.88Q168.08 18.56 169.45 18.56L169.45 18.56Q170.90 18.56 171.38 17.48L171.38 17.48L171.38 12.10L172.64 12.10L172.64 19.50L171.44 19.50ZM178.14 12.06L178.14 13.24Q177.85 13.19 177.52 13.19L177.52 13.19Q176.27 13.19 175.83 14.25L175.83 14.25L175.83 19.50L174.56 19.50L174.56 12.10L175.79 12.10L175.81 12.96Q176.44 11.97 177.58 11.97L177.58 11.97Q177.95 11.97 178.14 12.06L178.14 12.06ZM179.30 12.10L180.50 12.10L180.54 13.03Q181.39 11.97 182.75 11.97L182.75 11.97Q185.10 11.97 185.12 14.61L185.12 14.61L185.12 19.50L183.85 19.50L183.85 14.61Q183.85 13.81 183.49 13.42Q183.13 13.04 182.37 13.04L182.37 13.04Q181.75 13.04 181.29 13.37Q180.83 13.70 180.57 14.23L180.57 14.23L180.57 19.50L179.30 19.50L179.30 12.10ZM194.10 9.55L194.10 10.63L190.90 10.63L190.90 19.50L189.60 19.50L189.60 10.63L186.40 10.63L186.40 9.55L194.10 9.55ZM195.46 12.10L197.31 17.65L199.03 12.10L200.38 12.10L197.41 20.64Q196.72 22.49 195.21 22.49L195.21 22.49L194.98 22.47L194.50 22.38L194.50 21.35L194.85 21.38Q195.49 21.38 195.85 21.12Q196.21 20.86 196.44 20.17L196.44 20.17L196.72 19.42L194.08 12.10L195.46 12.10ZM207.76 15.77L207.76 15.88Q207.76 17.57 206.99 18.60Q206.21 19.64 204.89 19.64L204.89 19.64Q203.55 19.64 202.78 18.78L202.78 18.78L202.78 22.34L201.51 22.34L201.51 12.10L202.67 12.10L202.73 12.92Q203.50 11.97 204.87 11.97L204.87 11.97Q206.21 11.97 206.98 12.97Q207.76 13.98 207.76 15.77L207.76 15.77ZM206.49 15.74L206.49 15.74Q206.49 14.49 205.96 13.76Q205.43 13.04 204.50 13.04L204.50 13.04Q203.35 13.04 202.78 14.06L202.78 14.06L202.78 17.59Q203.34 18.60 204.51 18.60L204.51 18.60Q205.42 18.60 205.96 17.88Q206.49 17.16 206.49 15.74ZM212.43 19.64L212.43 19.64Q210.93 19.64 209.99 18.65Q209.04 17.66 209.04 16.01L209.04 16.01L209.04 15.77Q209.04 14.67 209.46 13.81Q209.88 12.94 210.64 12.46Q211.40 11.97 212.28 11.97L212.28 11.97Q213.72 11.97 214.52 12.92Q215.32 13.87 215.32 15.64L215.32 15.64L215.32 16.16L210.31 16.16Q210.34 17.26 210.95 17.93Q211.56 18.60 212.50 18.60L212.50 18.60Q213.17 18.60 213.64 18.33Q214.10 18.06 214.45 17.61L214.45 17.61L215.22 18.21Q214.29 19.64 212.43 19.64ZM212.28 13.01L212.28 13.01Q211.51 13.01 210.99 13.56Q210.47 14.12 210.35 15.13L210.35 15.13L214.05 15.13L214.05 15.03Q214 14.07 213.54 13.54Q213.07 13.01 212.28 13.01Z"/>
                <path fill="#000000FF" stroke="#000000FF" stroke-linecap="round" stroke-linejoin="round" stroke-width="0.1"   d=""/>
                <path fill="#000000FF" stroke="#000000FF" stroke-linecap="round" stroke-linejoin="round" stroke-width="0.1"   d=""/>
                <path fill="#000000FF" stroke="#000000FF" stroke-linecap="round" stroke-linejoin="round" stroke-width="0.1"   d="M12.05 25.26L12.05 28.16L14.82 28.16L14.82 29.36L12.05 29.36L12.05 32.50L10.77 32.50L10.77 29.36L8.00 29.36L8.00 28.16L10.77 28.16L10.77 25.26L12.05 25.26ZM19.49 29.82L19.49 29.73Q19.49 28.65 19.92 27.78Q20.34 26.91 21.11 26.44Q21.87 25.97 22.85 25.97L22.85 25.97Q24.36 25.97 25.29 27.01Q26.22 28.06 26.22 29.79L26.22 29.79L26.22 29.88Q26.22 30.96 25.81 31.82Q25.40 32.68 24.63 33.16Q23.86 33.64 22.86 33.64L22.86 33.64Q21.36 33.64 20.42 32.59Q19.49 31.54 19.49 29.82L19.49 29.82ZM20.76 29.88L20.76 29.88Q20.76 31.11 21.33 31.86Q21.90 32.60 22.86 32.60L22.86 32.60Q23.82 32.60 24.39 31.85Q24.96 31.09 24.96 29.73L24.96 29.73Q24.96 28.52 24.38 27.76Q23.80 27.01 22.85 27.01L22.85 27.01Q21.91 27.01 21.34 27.75Q20.76 28.50 20.76 29.88ZM34.06 29.77L34.06 29.88Q34.06 31.57 33.29 32.60Q32.51 33.64 31.19 33.64L31.19 33.64Q29.85 33.64 29.07 32.78L29.07 32.78L29.07 36.34L27.81 36.34L27.81 26.10L28.96 26.10L29.03 26.92Q29.80 25.97 31.17 25.97L31.17 25.97Q32.51 25.97 33.28 26.97Q34.06 27.98 34.06 29.77L34.06 29.77ZM32.79 29.74L32.79 29.74Q32.79 28.49 32.26 27.76Q31.73 27.04 30.80 27.04L30.80 27.04Q29.65 27.04 29.07 28.06L29.07 28.06L29.07 31.59Q29.64 32.60 30.81 32.60L30.81 32.60Q31.72 32.60 32.26 31.88Q32.79 31.16 32.79 29.74ZM38.73 33.64L38.73 33.64Q37.23 33.64 36.29 32.65Q35.34 31.66 35.34 30.01L35.34 30.01L35.34 29.77Q35.34 28.67 35.76 27.81Q36.18 26.94 36.94 26.46Q37.69 25.97 38.58 25.97L38.58 25.97Q40.02 25.97 40.82 26.92Q41.62 27.87 41.62 29.64L41.62 29.64L41.62 30.16L36.61 30.16Q36.63 31.26 37.25 31.93Q37.86 32.60 38.80 32.60L38.80 32.60Q39.47 32.60 39.94 32.33Q40.40 32.06 40.75 31.61L40.75 31.61L41.52 32.21Q40.59 33.64 38.73 33.64ZM38.58 27.01L38.58 27.01Q37.81 27.01 37.29 27.56Q36.77 28.12 36.65 29.13L36.65 29.13L40.35 29.13L40.35 29.03Q40.30 28.07 39.83 27.54Q39.37 27.01 38.58 27.01ZM46.66 26.06L46.66 27.24Q46.37 27.19 46.03 27.19L46.03 27.19Q44.79 27.19 44.35 28.25L44.35 28.25L44.35 33.50L43.08 33.50L43.08 26.10L44.31 26.10L44.33 26.96Q44.95 25.97 46.10 25.97L46.10 25.97Q46.46 25.97 46.66 26.06L46.66 26.06ZM53.44 33.50L52.11 33.50Q52.00 33.28 51.93 32.72L51.93 32.72Q51.05 33.64 49.83 33.64L49.83 33.64Q48.73 33.64 48.03 33.02Q47.33 32.40 47.33 31.45L47.33 31.45Q47.33 30.29 48.21 29.65Q49.09 29.02 50.68 29.02L50.68 29.02L51.91 29.02L51.91 28.43Q51.91 27.77 51.52 27.38Q51.12 26.99 50.35 26.99L50.35 26.99Q49.67 26.99 49.21 27.33Q48.75 27.67 48.75 28.15L48.75 28.15L47.48 28.15Q47.48 27.60 47.88 27.08Q48.27 26.57 48.94 26.27Q49.62 25.97 50.42 25.97L50.42 25.97Q51.70 25.97 52.43 26.61Q53.15 27.25 53.18 28.37L53.18 28.37L53.18 31.77Q53.18 32.79 53.44 33.39L53.44 33.39L53.44 33.50ZM50.01 32.54L50.01 32.54Q50.61 32.54 51.14 32.23Q51.67 31.92 51.91 31.43L51.91 31.43L51.91 29.91L50.92 29.91Q48.60 29.91 48.60 31.27L48.60 31.27Q48.60 31.87 48.99 32.20Q49.39 32.54 50.01 32.54ZM55.61 24.31L56.88 24.31L56.88 26.10L58.26 26.10L58.26 27.08L56.88 27.08L56.88 31.67Q56.88 32.11 57.06 32.33Q57.25 32.56 57.69 32.56L57.69 32.56Q57.91 32.56 58.29 32.47L58.29 32.47L58.29 33.50Q57.79 33.64 57.32 33.64L57.32 33.64Q56.47 33.64 56.04 33.12Q55.61 32.61 55.61 31.67L55.61 31.67L55.61 27.08L54.26 27.08L54.26 26.10L55.61 26.10L55.61 24.31ZM61.11 26.10L61.11 33.50L59.84 33.50L59.84 26.10L61.11 26.10ZM59.74 24.14L59.74 24.14Q59.74 23.83 59.93 23.62Q60.12 23.41 60.49 23.41Q60.85 23.41 61.05 23.62Q61.24 23.83 61.24 24.14Q61.24 24.45 61.05 24.65Q60.85 24.86 60.49 24.86Q60.12 24.86 59.93 24.65Q59.74 24.45 59.74 24.14ZM62.80 29.82L62.80 29.73Q62.80 28.65 63.22 27.78Q63.65 26.91 64.41 26.44Q65.17 25.97 66.15 25.97L66.15 25.97Q67.66 25.97 68.60 27.01Q69.53 28.06 69.53 29.79L69.53 29.79L69.53 29.88Q69.53 30.96 69.12 31.82Q68.70 32.68 67.93 33.16Q67.16 33.64 66.17 33.64L66.17 33.64Q64.66 33.64 63.73 32.59Q62.80 31.54 62.80 29.82L62.80 29.82ZM64.07 29.88L64.07 29.88Q64.07 31.11 64.64 31.86Q65.21 32.60 66.17 32.60L66.17 32.60Q67.13 32.60 67.70 31.85Q68.26 31.09 68.26 29.73L68.26 29.73Q68.26 28.52 67.69 27.76Q67.11 27.01 66.15 27.01L66.15 27.01Q65.22 27.01 64.64 27.75Q64.07 28.50 64.07 29.88ZM71.12 26.10L72.31 26.10L72.35 27.03Q73.20 25.97 74.57 25.97L74.57 25.97Q76.91 25.97 76.93 28.61L76.93 28.61L76.93 33.50L75.67 33.50L75.67 28.61Q75.66 27.81 75.30 27.42Q74.94 27.04 74.18 27.04L74.18 27.04Q73.57 27.04 73.10 27.37Q72.64 27.70 72.38 28.23L72.38 28.23L72.38 33.50L71.12 33.50L71.12 26.10ZM85.23 32.47L85.23 33.50L78.71 33.50L78.71 32.59L82.16 28.76Q82.92 27.89 83.21 27.35Q83.50 26.81 83.50 26.23L83.50 26.23Q83.50 25.45 83.03 24.95Q82.56 24.45 81.77 24.45L81.77 24.45Q80.83 24.45 80.31 24.99Q79.78 25.52 79.78 26.48L79.78 26.48L78.52 26.48Q78.52 25.11 79.40 24.26Q80.29 23.41 81.77 23.41L81.77 23.41Q83.16 23.41 83.97 24.14Q84.77 24.87 84.77 26.08L84.77 26.08Q84.77 27.55 82.90 29.58L82.90 29.58L80.23 32.47L85.23 32.47ZM86.65 29.46L86.65 29.46Q86.65 27.92 87.07 26.49Q87.48 25.07 88.30 23.91Q89.12 22.75 90.00 22.27L90.00 22.27L90.26 23.10Q89.26 23.87 88.63 25.44Q87.99 27.01 87.92 28.96L87.92 28.96L87.92 29.54Q87.92 32.18 88.88 34.12L88.88 34.12Q89.46 35.28 90.26 35.94L90.26 35.94L90.00 36.71Q89.09 36.21 88.27 35.02L88.27 35.02Q86.65 32.69 86.65 29.46ZM97.73 29.77L97.73 29.88Q97.73 31.57 96.96 32.60Q96.19 33.64 94.87 33.64L94.87 33.64Q93.52 33.64 92.75 32.78L92.75 32.78L92.75 36.34L91.49 36.34L91.49 26.10L92.64 26.10L92.70 26.92Q93.48 25.97 94.85 25.97L94.85 25.97Q96.18 25.97 96.96 26.97Q97.73 27.98 97.73 29.77L97.73 29.77ZM96.47 29.74L96.47 29.74Q96.47 28.49 95.94 27.76Q95.40 27.04 94.47 27.04L94.47 27.04Q93.33 27.04 92.75 28.06L92.75 28.06L92.75 31.59Q93.32 32.60 94.49 32.60L94.49 32.60Q95.40 32.60 95.93 31.88Q96.47 31.16 96.47 29.74ZM105.23 33.50L103.91 33.50Q103.80 33.28 103.73 32.72L103.73 32.72Q102.85 33.64 101.62 33.64L101.62 33.64Q100.53 33.64 99.83 33.02Q99.13 32.40 99.13 31.45L99.13 31.45Q99.13 30.29 100.01 29.65Q100.89 29.02 102.48 29.02L102.48 29.02L103.71 29.02L103.71 28.43Q103.71 27.77 103.31 27.38Q102.92 26.99 102.14 26.99L102.14 26.99Q101.47 26.99 101.01 27.33Q100.55 27.67 100.55 28.15L100.55 28.15L99.28 28.15Q99.28 27.60 99.67 27.08Q100.07 26.57 100.74 26.27Q101.41 25.97 102.22 25.97L102.22 25.97Q103.50 25.97 104.22 26.61Q104.95 27.25 104.97 28.37L104.97 28.37L104.97 31.77Q104.97 32.79 105.23 33.39L105.23 33.39L105.23 33.50ZM101.81 32.54L101.81 32.54Q102.40 32.54 102.94 32.23Q103.47 31.92 103.71 31.43L103.71 31.43L103.71 29.91L102.72 29.91Q100.39 29.91 100.39 31.27L100.39 31.27Q100.39 31.87 100.79 32.20Q101.19 32.54 101.81 32.54ZM110.53 26.06L110.53 27.24Q110.24 27.19 109.91 27.19L109.91 27.19Q108.67 27.19 108.22 28.25L108.22 28.25L108.22 33.50L106.96 33.50L106.96 26.10L108.19 26.10L108.21 26.96Q108.83 25.97 109.97 25.97L109.97 25.97Q110.34 25.97 110.53 26.06L110.53 26.06ZM117.31 33.50L115.99 33.50Q115.88 33.28 115.81 32.72L115.81 32.72Q114.93 33.64 113.70 33.64L113.70 33.64Q112.61 33.64 111.91 33.02Q111.21 32.40 111.21 31.45L111.21 31.45Q111.21 30.29 112.09 29.65Q112.96 29.02 114.56 29.02L114.56 29.02L115.79 29.02L115.79 28.43Q115.79 27.77 115.39 27.38Q115.00 26.99 114.22 26.99L114.22 26.99Q113.55 26.99 113.09 27.33Q112.63 27.67 112.63 28.15L112.63 28.15L111.36 28.15Q111.36 27.60 111.75 27.08Q112.14 26.57 112.82 26.27Q113.49 25.97 114.30 25.97L114.30 25.97Q115.58 25.97 116.30 26.61Q117.03 27.25 117.05 28.37L117.05 28.37L117.05 31.77Q117.05 32.79 117.31 33.39L117.31 33.39L117.31 33.50ZM113.89 32.54L113.89 32.54Q114.48 32.54 115.02 32.23Q115.55 31.92 115.79 31.43L115.79 31.43L115.79 29.91L114.80 29.91Q112.47 29.91 112.47 31.27L112.47 31.27Q112.47 31.87 112.87 32.20Q113.27 32.54 113.89 32.54ZM119.03 26.10L120.22 26.10L120.26 26.92Q121.07 25.97 122.45 25.97L122.45 25.97Q124.00 25.97 124.57 27.16L124.57 27.16Q124.93 26.62 125.53 26.29Q126.12 25.97 126.92 25.97L126.92 25.97Q129.36 25.97 129.40 28.54L129.40 28.54L129.40 33.50L128.13 33.50L128.13 28.62Q128.13 27.83 127.77 27.43Q127.41 27.04 126.55 27.04L126.55 27.04Q125.85 27.04 125.39 27.46Q124.92 27.88 124.85 28.59L124.85 28.59L124.85 33.50L123.57 33.50L123.57 28.65Q123.57 27.04 122.00 27.04L122.00 27.04Q120.75 27.04 120.29 28.10L120.29 28.10L120.29 33.50L119.03 33.50L119.03 26.10ZM135.61 31.54L135.61 31.54Q135.61 31.03 135.23 30.74Q134.84 30.46 133.88 30.25Q132.92 30.05 132.35 29.76Q131.79 29.47 131.52 29.08Q131.25 28.68 131.25 28.13L131.25 28.13Q131.25 27.22 132.02 26.60Q132.79 25.97 133.99 25.97L133.99 25.97Q135.24 25.97 136.03 26.62Q136.81 27.27 136.81 28.28L136.81 28.28L135.54 28.28Q135.54 27.76 135.10 27.38Q134.66 27.01 133.99 27.01L133.99 27.01Q133.29 27.01 132.91 27.31Q132.52 27.61 132.52 28.09L132.52 28.09Q132.52 28.55 132.88 28.78Q133.24 29.02 134.19 29.23Q135.13 29.44 135.72 29.73Q136.31 30.03 136.59 30.44Q136.88 30.85 136.88 31.45L136.88 31.45Q136.88 32.44 136.08 33.04Q135.29 33.64 134.03 33.64L134.03 33.64Q133.14 33.64 132.45 33.32Q131.77 33.01 131.38 32.44Q131.00 31.88 131.00 31.22L131.00 31.22L132.26 31.22Q132.30 31.86 132.77 32.23Q133.25 32.60 134.03 32.60L134.03 32.60Q134.74 32.60 135.18 32.31Q135.61 32.02 135.61 31.54ZM141.44 29.53L141.44 29.53Q141.44 31.05 141.04 32.45Q140.64 33.85 139.82 35.03Q139.00 36.21 138.09 36.71L138.09 36.71L137.83 35.94Q138.88 35.13 139.52 33.44Q140.16 31.74 140.17 29.67L140.17 29.67L140.17 29.45Q140.17 28.01 139.87 26.78Q139.57 25.54 139.03 24.57Q138.50 23.59 137.83 23.04L137.83 23.04L138.09 22.27Q139.00 22.77 139.81 23.94Q140.63 25.11 141.04 26.51Q141.44 27.92 141.44 29.53Z"/>
                <path fill="#000000FF" stroke="#000000FF" stroke-linecap="round" stroke-linejoin="round" stroke-width="0.1"   d=""/>
                <path fill="#000000FF" stroke="#000000FF" stroke-linecap="round" stroke-linejoin="round" stroke-width="0.1"   d=""/>
                <path fill="#000000FF" stroke="#000000FF" stroke-linecap="round" stroke-linejoin="round" stroke-width="0.1"   d="M11.05 42.76L11.05 43.79L7.72 43.79L7.72 42.76L11.05 42.76ZM15.42 43.82L15.42 43.73Q15.42 42.65 15.84 41.78Q16.27 40.91 17.03 40.44Q17.79 39.97 18.77 39.97L18.77 39.97Q20.28 39.97 21.22 41.01Q22.15 42.06 22.15 43.79L22.15 43.79L22.15 43.88Q22.15 44.96 21.74 45.82Q21.32 46.68 20.55 47.16Q19.78 47.64 18.79 47.64L18.79 47.64Q17.28 47.64 16.35 46.59Q15.42 45.54 15.42 43.82L15.42 43.82ZM16.69 43.88L16.69 43.88Q16.69 45.11 17.26 45.86Q17.83 46.60 18.79 46.60L18.79 46.60Q19.75 46.60 20.32 45.85Q20.88 45.09 20.88 43.73L20.88 43.73Q20.88 42.52 20.31 41.76Q19.73 41.01 18.77 41.01L18.77 41.01Q17.84 41.01 17.26 41.75Q16.69 42.50 16.69 43.88ZM29.98 43.77L29.98 43.88Q29.98 45.57 29.21 46.60Q28.44 47.64 27.12 47.64L27.12 47.64Q25.77 47.64 25 46.78L25 46.78L25 50.34L23.74 50.34L23.74 40.10L24.89 40.10L24.95 40.92Q25.72 39.97 27.10 39.97L27.10 39.97Q28.43 39.97 29.21 40.97Q29.98 41.98 29.98 43.77L29.98 43.77ZM28.72 43.74L28.72 43.74Q28.72 42.49 28.19 41.76Q27.65 41.04 26.72 41.04L26.72 41.04Q25.57 41.04 25 42.06L25 42.06L25 45.59Q25.57 46.60 26.74 46.60L26.74 46.60Q27.65 46.60 28.18 45.88Q28.72 45.16 28.72 43.74ZM34.66 47.64L34.66 47.64Q33.16 47.64 32.21 46.65Q31.27 45.66 31.27 44.01L31.27 44.01L31.27 43.77Q31.27 42.67 31.69 41.81Q32.11 40.94 32.86 40.46Q33.62 39.97 34.50 39.97L34.50 39.97Q35.94 39.97 36.74 40.92Q37.54 41.87 37.54 43.64L37.54 43.64L37.54 44.16L32.53 44.16Q32.56 45.26 33.17 45.93Q33.78 46.60 34.73 46.60L34.73 46.60Q35.40 46.60 35.86 46.33Q36.33 46.06 36.68 45.61L36.68 45.61L37.45 46.21Q36.52 47.64 34.66 47.64ZM34.50 41.01L34.50 41.01Q33.74 41.01 33.22 41.56Q32.70 42.12 32.57 43.13L32.57 43.13L36.28 43.13L36.28 43.03Q36.22 42.07 35.76 41.54Q35.29 41.01 34.50 41.01ZM42.58 40.06L42.58 41.24Q42.29 41.19 41.96 41.19L41.96 41.19Q40.72 41.19 40.27 42.25L40.27 42.25L40.27 47.50L39.01 47.50L39.01 40.10L40.24 40.10L40.26 40.96Q40.88 39.97 42.02 39.97L42.02 39.97Q42.39 39.97 42.58 40.06L42.58 40.06ZM49.36 47.50L48.04 47.50Q47.93 47.28 47.86 46.72L47.86 46.72Q46.98 47.64 45.75 47.64L45.75 47.64Q44.66 47.64 43.96 47.02Q43.26 46.40 43.26 45.45L43.26 45.45Q43.26 44.29 44.14 43.65Q45.02 43.02 46.61 43.02L46.61 43.02L47.84 43.02L47.84 42.43Q47.84 41.77 47.44 41.38Q47.05 40.99 46.27 40.99L46.27 40.99Q45.60 40.99 45.14 41.33Q44.68 41.67 44.68 42.15L44.68 42.15L43.41 42.15Q43.41 41.60 43.80 41.08Q44.20 40.57 44.87 40.27Q45.54 39.97 46.35 39.97L46.35 39.97Q47.63 39.97 48.35 40.61Q49.08 41.25 49.10 42.37L49.10 42.37L49.10 45.77Q49.10 46.79 49.36 47.39L49.36 47.39L49.36 47.50ZM45.94 46.54L45.94 46.54Q46.53 46.54 47.07 46.23Q47.60 45.92 47.84 45.43L47.84 45.43L47.84 43.91L46.85 43.91Q44.52 43.91 44.52 45.27L44.52 45.27Q44.52 45.87 44.92 46.20Q45.32 46.54 45.94 46.54ZM51.54 38.31L52.80 38.31L52.80 40.10L54.18 40.10L54.18 41.08L52.80 41.08L52.80 45.67Q52.80 46.11 52.99 46.33Q53.17 46.56 53.62 46.56L53.62 46.56Q53.83 46.56 54.22 46.47L54.22 46.47L54.22 47.50Q53.72 47.64 53.25 47.64L53.25 47.64Q52.40 47.64 51.97 47.12Q51.54 46.61 51.54 45.67L51.54 45.67L51.54 41.08L50.19 41.08L50.19 40.10L51.54 40.10L51.54 38.31ZM57.03 40.10L57.03 47.50L55.77 47.50L55.77 40.10L57.03 40.10ZM55.67 38.14L55.67 38.14Q55.67 37.83 55.85 37.62Q56.04 37.41 56.41 37.41Q56.78 37.41 56.97 37.62Q57.16 37.83 57.16 38.14Q57.16 38.45 56.97 38.65Q56.78 38.86 56.41 38.86Q56.04 38.86 55.85 38.65Q55.67 38.45 55.67 38.14ZM58.72 43.82L58.72 43.73Q58.72 42.65 59.15 41.78Q59.58 40.91 60.34 40.44Q61.10 39.97 62.08 39.97L62.08 39.97Q63.59 39.97 64.52 41.01Q65.46 42.06 65.46 43.79L65.46 43.79L65.46 43.88Q65.46 44.96 65.04 45.82Q64.63 46.68 63.86 47.16Q63.09 47.64 62.09 47.64L62.09 47.64Q60.59 47.64 59.65 46.59Q58.72 45.54 58.72 43.82L58.72 43.82ZM59.99 43.88L59.99 43.88Q59.99 45.11 60.56 45.86Q61.13 46.60 62.09 46.60L62.09 46.60Q63.06 46.60 63.62 45.85Q64.19 45.09 64.19 43.73L64.19 43.73Q64.19 42.52 63.61 41.76Q63.04 41.01 62.08 41.01L62.08 41.01Q61.14 41.01 60.57 41.75Q59.99 42.50 59.99 43.88ZM67.04 40.10L68.24 40.10L68.28 41.03Q69.13 39.97 70.49 39.97L70.49 39.97Q72.84 39.97 72.86 42.61L72.86 42.61L72.86 47.50L71.59 47.50L71.59 42.61Q71.59 41.81 71.23 41.42Q70.87 41.04 70.11 41.04L70.11 41.04Q69.50 41.04 69.03 41.37Q68.57 41.70 68.31 42.23L68.31 42.23L68.31 47.50L67.04 47.50L67.04 40.10ZM76.47 42.94L76.47 41.91L77.42 41.91Q78.32 41.89 78.83 41.44Q79.35 40.98 79.35 40.20L79.35 40.20Q79.35 38.45 77.60 38.45L77.60 38.45Q76.78 38.45 76.29 38.92Q75.80 39.39 75.80 40.16L75.80 40.16L74.54 40.16Q74.54 38.98 75.40 38.19Q76.27 37.41 77.60 37.41L77.60 37.41Q79.01 37.41 79.81 38.16Q80.61 38.90 80.61 40.23L80.61 40.23Q80.61 40.88 80.19 41.48Q79.77 42.09 79.04 42.39L79.04 42.39Q79.87 42.65 80.31 43.25Q80.76 43.86 80.76 44.72L80.76 44.72Q80.76 46.06 79.89 46.85Q79.01 47.64 77.61 47.64Q76.21 47.64 75.33 46.88Q74.45 46.12 74.45 44.88L74.45 44.88L75.72 44.88Q75.72 45.66 76.24 46.13Q76.75 46.60 77.61 46.60L77.61 46.60Q78.53 46.60 79.01 46.13Q79.50 45.65 79.50 44.75L79.50 44.75Q79.50 43.88 78.96 43.42Q78.43 42.95 77.42 42.94L77.42 42.94L76.47 42.94ZM82.58 43.46L82.58 43.46Q82.58 41.92 82.99 40.49Q83.41 39.07 84.23 37.91Q85.05 36.75 85.93 36.27L85.93 36.27L86.19 37.10Q85.19 37.87 84.55 39.44Q83.91 41.01 83.85 42.96L83.85 42.96L83.84 43.54Q83.84 46.18 84.81 48.12L84.81 48.12Q85.39 49.28 86.19 49.94L86.19 49.94L85.93 50.71Q85.02 50.21 84.19 49.02L84.19 49.02Q82.58 46.69 82.58 43.46ZM90.33 43.53L90.33 43.53Q90.33 45.05 89.93 46.45Q89.53 47.85 88.71 49.03Q87.88 50.21 86.98 50.71L86.98 50.71L86.71 49.94Q87.77 49.13 88.41 47.44Q89.05 45.74 89.06 43.67L89.06 43.67L89.06 43.45Q89.06 42.01 88.76 40.78Q88.46 39.54 87.92 38.57Q87.38 37.59 86.71 37.04L86.71 37.04L86.98 36.27Q87.88 36.77 88.70 37.94Q89.52 39.11 89.92 40.51Q90.33 41.92 90.33 43.53Z"/>
            </g>
        </g>
    </g>
</g>
</svg>