<svg xmlns="http://www.w3.org/2000/svg" version="1.1" xmlns:xlink="http://www.w3.org/1999/xlink" xmlns:svgjs="http://svgjs.dev/svgjs" width="260" height="110" viewbox="0 0 260 110"   shape-rendering="geometricPrecision">
<g id="8017679184bf4895a72764420a542e9b" transform="translate(5, 5) ">
    <path fill="#FFFFFFFF" stroke="#323232FF" stroke-width="2" d=""/>    
    <g>
        <g id="1037feba5d6648288cf25bdec566a01d" transform=" ">
            <path fill="#FFFFFFFF" stroke="#323232FF" stroke-width="1.5" d="M0 0L0 50L250 50L250 0L0 0Z"/>    
            <g transform="matrix(1.00, 0.00, 0.00, 1.00, 0.00, 0.00)">
                <path fill="#000000FF" stroke="#000000FF" stroke-linecap="round" stroke-linejoin="round" stroke-width="0.1"  transform="translate(2.9), skewX(-7)" d="M89.07 17.83L84.79 19.60L89.07 21.33L89.07 22.67L83.48 20.08L83.48 19.08L89.07 16.49L89.07 17.83ZM96.18 17.83L91.90 19.60L96.18 21.33L96.18 22.67L90.59 20.08L90.59 19.08L96.18 16.49L96.18 17.83ZM99.55 16.60L99.55 24L98.28 24L98.28 16.60L99.55 16.60ZM98.18 14.64L98.18 14.64Q98.18 14.33 98.37 14.12Q98.56 13.91 98.92 13.91Q99.29 13.91 99.48 14.12Q99.68 14.33 99.68 14.64Q99.68 14.95 99.48 15.15Q99.29 15.36 98.92 15.36Q98.56 15.36 98.37 15.15Q98.18 14.95 98.18 14.64ZM101.57 16.60L102.77 16.60L102.81 17.53Q103.65 16.47 105.02 16.47L105.02 16.47Q107.37 16.47 107.39 19.11L107.39 19.11L107.39 24L106.12 24L106.12 19.11Q106.12 18.31 105.76 17.92Q105.40 17.54 104.64 17.54L104.64 17.54Q104.02 17.54 103.56 17.87Q103.09 18.20 102.83 18.73L102.83 18.73L102.83 24L101.57 24L101.57 16.60ZM109.75 14.81L111.01 14.81L111.01 16.60L112.39 16.60L112.39 17.58L111.01 17.58L111.01 22.17Q111.01 22.61 111.19 22.83Q111.38 23.06 111.82 23.06L111.82 23.06Q112.04 23.06 112.43 22.97L112.43 22.97L112.43 24Q111.93 24.14 111.45 24.14L111.45 24.14Q110.61 24.14 110.18 23.62Q109.75 23.11 109.75 22.17L109.75 22.17L109.75 17.58L108.40 17.58L108.40 16.60L109.75 16.60L109.75 14.81ZM116.94 24.14L116.94 24.14Q115.43 24.14 114.49 23.15Q113.55 22.16 113.55 20.51L113.55 20.51L113.55 20.27Q113.55 19.17 113.97 18.31Q114.39 17.44 115.14 16.96Q115.90 16.47 116.78 16.47L116.78 16.47Q118.22 16.47 119.02 17.42Q119.82 18.37 119.82 20.14L119.82 20.14L119.82 20.66L114.81 20.66Q114.84 21.76 115.45 22.43Q116.06 23.10 117.01 23.10L117.01 23.10Q117.68 23.10 118.14 22.83Q118.60 22.56 118.95 22.11L118.95 22.11L119.73 22.71Q118.80 24.14 116.94 24.14ZM116.78 17.51L116.78 17.51Q116.01 17.51 115.49 18.06Q114.98 18.62 114.85 19.63L114.85 19.63L118.56 19.63L118.56 19.53Q118.50 18.57 118.04 18.04Q117.57 17.51 116.78 17.51ZM124.86 16.56L124.86 17.74Q124.57 17.69 124.24 17.69L124.24 17.69Q122.99 17.69 122.55 18.75L122.55 18.75L122.55 24L121.28 24L121.28 16.60L122.52 16.60L122.54 17.46Q123.16 16.47 124.30 16.47L124.30 16.47Q124.67 16.47 124.86 16.56L124.86 16.56ZM128.01 24L126.75 24L126.75 17.58L125.58 17.58L125.58 16.60L126.75 16.60L126.75 15.84Q126.75 14.66 127.38 14.01Q128.02 13.36 129.18 13.36L129.18 13.36Q129.62 13.36 130.05 13.47L130.05 13.47L129.98 14.50Q129.66 14.44 129.30 14.44L129.30 14.44Q128.68 14.44 128.35 14.80Q128.01 15.15 128.01 15.82L128.01 15.82L128.01 16.60L129.59 16.60L129.59 17.58L128.01 17.58L128.01 24ZM136.88 24L135.55 24Q135.44 23.78 135.37 23.22L135.37 23.22Q134.49 24.14 133.27 24.14L133.27 24.14Q132.17 24.14 131.47 23.52Q130.77 22.90 130.77 21.95L130.77 21.95Q130.77 20.79 131.65 20.15Q132.53 19.52 134.12 19.52L134.12 19.52L135.35 19.52L135.35 18.93Q135.35 18.27 134.96 17.88Q134.56 17.49 133.79 17.49L133.79 17.49Q133.11 17.49 132.65 17.83Q132.19 18.17 132.19 18.65L132.19 18.65L130.92 18.65Q130.92 18.10 131.32 17.58Q131.71 17.07 132.38 16.77Q133.06 16.47 133.86 16.47L133.86 16.47Q135.14 16.47 135.87 17.11Q136.59 17.75 136.62 18.87L136.62 18.87L136.62 22.27Q136.62 23.29 136.88 23.89L136.88 23.89L136.88 24ZM133.45 23.04L133.45 23.04Q134.05 23.04 134.58 22.73Q135.11 22.42 135.35 21.93L135.35 21.93L135.35 20.41L134.36 20.41Q132.04 20.41 132.04 21.77L132.04 21.77Q132.04 22.37 132.43 22.70Q132.83 23.04 133.45 23.04ZM141.57 23.10L141.57 23.10Q142.24 23.10 142.75 22.69Q143.26 22.28 143.31 21.67L143.31 21.67L144.51 21.67Q144.47 22.30 144.07 22.88Q143.67 23.45 142.99 23.79Q142.32 24.14 141.57 24.14L141.57 24.14Q140.06 24.14 139.16 23.13Q138.27 22.12 138.27 20.37L138.27 20.37L138.27 20.16Q138.27 19.08 138.67 18.24Q139.06 17.40 139.81 16.93Q140.55 16.47 141.56 16.47L141.56 16.47Q142.80 16.47 143.63 17.21Q144.45 17.96 144.51 19.15L144.51 19.15L143.31 19.15Q143.26 18.43 142.77 17.97Q142.28 17.51 141.56 17.51L141.56 17.51Q140.60 17.51 140.07 18.20Q139.54 18.89 139.54 20.21L139.54 20.21L139.54 20.45Q139.54 21.72 140.06 22.41Q140.59 23.10 141.57 23.10ZM149.00 24.14L149.00 24.14Q147.49 24.14 146.55 23.15Q145.61 22.16 145.61 20.51L145.61 20.51L145.61 20.27Q145.61 19.17 146.03 18.31Q146.45 17.44 147.20 16.96Q147.96 16.47 148.84 16.47L148.84 16.47Q150.28 16.47 151.08 17.42Q151.88 18.37 151.88 20.14L151.88 20.14L151.88 20.66L146.87 20.66Q146.90 21.76 147.51 22.43Q148.12 23.10 149.07 23.10L149.07 23.10Q149.74 23.10 150.20 22.83Q150.67 22.56 151.01 22.11L151.01 22.11L151.79 22.71Q150.86 24.14 149.00 24.14ZM148.84 17.51L148.84 17.51Q148.07 17.51 147.56 18.06Q147.04 18.62 146.91 19.63L146.91 19.63L150.62 19.63L150.62 19.53Q150.56 18.57 150.10 18.04Q149.63 17.51 148.84 17.51ZM153.30 21.35L157.82 19.56L153.30 17.79L153.30 16.49L159.14 19.07L159.14 20.07L153.30 22.66L153.30 21.35ZM160.62 21.35L165.14 19.56L160.62 17.79L160.62 16.49L166.46 19.07L166.46 20.07L160.62 22.66L160.62 21.35Z"/>
                <path fill="#000000FF" stroke="#000000FF" stroke-linecap="round" stroke-linejoin="round" stroke-width="0.1"  transform="translate(2.7), skewX(-7)" d=""/>
                <path fill="#000000FF" stroke="#000000FF" stroke-linecap="round" stroke-linejoin="round" stroke-width="0.1"  transform="translate(4.4), skewX(-7)" d=""/>
                <path fill="#000000FF" stroke="#000000FF" stroke-linecap="round" stroke-linejoin="round" stroke-width="0.5"   d="M99.77 28.05L99.77 38L98.46 38L98.46 28.05L99.77 28.05ZM101.97 30.60L103.17 30.60L103.21 31.53Q104.06 30.47 105.43 30.47L105.43 30.47Q107.77 30.47 107.79 33.11L107.79 33.11L107.79 38L106.53 38L106.53 33.11Q106.52 32.31 106.16 31.92Q105.80 31.54 105.04 31.54L105.04 31.54Q104.43 31.54 103.96 31.87Q103.50 32.20 103.24 32.73L103.24 32.73L103.24 38L101.97 38L101.97 30.60ZM110.15 28.81L111.41 28.81L111.41 30.60L112.79 30.60L112.79 31.58L111.41 31.58L111.41 36.17Q111.41 36.61 111.60 36.83Q111.78 37.06 112.23 37.06L112.23 37.06Q112.45 37.06 112.83 36.97L112.83 36.97L112.83 38Q112.33 38.14 111.86 38.14L111.86 38.14Q111.01 38.14 110.58 37.62Q110.15 37.11 110.15 36.17L110.15 36.17L110.15 31.58L108.80 31.58L108.80 30.60L110.15 30.60L110.15 28.81ZM117.34 38.14L117.34 38.14Q115.84 38.14 114.89 37.15Q113.95 36.16 113.95 34.51L113.95 34.51L113.95 34.27Q113.95 33.17 114.37 32.31Q114.79 31.44 115.55 30.96Q116.30 30.47 117.18 30.47L117.18 30.47Q118.63 30.47 119.43 31.42Q120.23 32.37 120.23 34.14L120.23 34.14L120.23 34.66L115.21 34.66Q115.24 35.76 115.85 36.43Q116.47 37.10 117.41 37.10L117.41 37.10Q118.08 37.10 118.54 36.83Q119.01 36.56 119.36 36.11L119.36 36.11L120.13 36.71Q119.20 38.14 117.34 38.14ZM117.18 31.51L117.18 31.51Q116.42 31.51 115.90 32.06Q115.38 32.62 115.26 33.63L115.26 33.63L118.96 33.63L118.96 33.53Q118.91 32.57 118.44 32.04Q117.98 31.51 117.18 31.51ZM125.26 30.56L125.26 31.74Q124.98 31.69 124.64 31.69L124.64 31.69Q123.40 31.69 122.95 32.75L122.95 32.75L122.95 38L121.69 38L121.69 30.60L122.92 30.60L122.94 31.46Q123.56 30.47 124.70 30.47L124.70 30.47Q125.07 30.47 125.26 30.56L125.26 30.56ZM128.41 38L127.15 38L127.15 31.58L125.98 31.58L125.98 30.60L127.15 30.60L127.15 29.84Q127.15 28.66 127.79 28.01Q128.42 27.36 129.58 27.36L129.58 27.36Q130.02 27.36 130.45 27.47L130.45 27.47L130.38 28.50Q130.06 28.44 129.70 28.44L129.70 28.44Q129.08 28.44 128.75 28.80Q128.41 29.15 128.41 29.82L128.41 29.82L128.41 30.60L129.99 30.60L129.99 31.58L128.41 31.58L128.41 38ZM137.28 38L135.95 38Q135.85 37.78 135.78 37.22L135.78 37.22Q134.90 38.14 133.67 38.14L133.67 38.14Q132.58 38.14 131.88 37.52Q131.18 36.90 131.18 35.95L131.18 35.95Q131.18 34.79 132.05 34.15Q132.93 33.52 134.53 33.52L134.53 33.52L135.76 33.52L135.76 32.93Q135.76 32.27 135.36 31.88Q134.96 31.49 134.19 31.49L134.19 31.49Q133.51 31.49 133.06 31.83Q132.60 32.17 132.60 32.65L132.60 32.65L131.33 32.65Q131.33 32.10 131.72 31.58Q132.11 31.07 132.79 30.77Q133.46 30.47 134.27 30.47L134.27 30.47Q135.54 30.47 136.27 31.11Q136.99 31.75 137.02 32.87L137.02 32.87L137.02 36.27Q137.02 37.29 137.28 37.89L137.28 37.89L137.28 38ZM133.86 37.04L133.86 37.04Q134.45 37.04 134.98 36.73Q135.52 36.42 135.76 35.93L135.76 35.93L135.76 34.41L134.77 34.41Q132.44 34.41 132.44 35.77L132.44 35.77Q132.44 36.37 132.84 36.70Q133.23 37.04 133.86 37.04ZM141.97 37.10L141.97 37.10Q142.65 37.10 143.15 36.69Q143.66 36.28 143.71 35.67L143.71 35.67L144.91 35.67Q144.88 36.30 144.47 36.88Q144.07 37.45 143.40 37.79Q142.72 38.14 141.97 38.14L141.97 38.14Q140.46 38.14 139.57 37.13Q138.68 36.12 138.68 34.37L138.68 34.37L138.68 34.16Q138.68 33.08 139.07 32.24Q139.47 31.40 140.21 30.93Q140.95 30.47 141.96 30.47L141.96 30.47Q143.21 30.47 144.03 31.21Q144.85 31.96 144.91 33.15L144.91 33.15L143.71 33.15Q143.66 32.43 143.17 31.97Q142.68 31.51 141.96 31.51L141.96 31.51Q141.00 31.51 140.47 32.20Q139.94 32.89 139.94 34.21L139.94 34.21L139.94 34.45Q139.94 35.72 140.47 36.41Q140.99 37.10 141.97 37.10ZM149.40 38.14L149.40 38.14Q147.90 38.14 146.95 37.15Q146.01 36.16 146.01 34.51L146.01 34.51L146.01 34.27Q146.01 33.17 146.43 32.31Q146.85 31.44 147.61 30.96Q148.36 30.47 149.24 30.47L149.24 30.47Q150.69 30.47 151.49 31.42Q152.29 32.37 152.29 34.14L152.29 34.14L152.29 34.66L147.27 34.66Q147.30 35.76 147.91 36.43Q148.53 37.10 149.47 37.10L149.47 37.10Q150.14 37.10 150.60 36.83Q151.07 36.56 151.42 36.11L151.42 36.11L152.19 36.71Q151.26 38.14 149.40 38.14ZM149.24 31.51L149.24 31.51Q148.48 31.51 147.96 32.06Q147.44 32.62 147.32 33.63L147.32 33.63L151.02 33.63L151.02 33.53Q150.97 32.57 150.50 32.04Q150.04 31.51 149.24 31.51Z"/>
            </g>
        </g>
        <g id="3ad134f93abf4636b9cb8db0af7c448a" transform="translate(0, 50) ">
            <path fill="#FFFFFFFF" stroke="#323232FF" stroke-width="1.5" d="M0 0L0 50L250 50L250 0L0 0Z"/>    
            <g transform="matrix(1.00, 0.00, 0.00, 1.00, 0.00, 0.00)">
                <path fill="#000000FF" stroke="#000000FF" stroke-linecap="round" stroke-linejoin="round" stroke-width="0.1"   d="M12.05 8.76L12.05 11.66L14.82 11.66L14.82 12.86L12.05 12.86L12.05 16.00L10.77 16.00L10.77 12.86L8.00 12.86L8.00 11.66L10.77 11.66L10.77 8.76L12.05 8.76ZM25.72 17L24.39 17Q24.28 16.78 24.21 16.22L24.21 16.22Q23.33 17.14 22.11 17.14L22.11 17.14Q21.01 17.14 20.31 16.52Q19.61 15.90 19.61 14.95L19.61 14.95Q19.61 13.79 20.49 13.15Q21.37 12.52 22.96 12.52L22.96 12.52L24.19 12.52L24.19 11.93Q24.19 11.27 23.80 10.88Q23.40 10.49 22.63 10.49L22.63 10.49Q21.95 10.49 21.49 10.83Q21.04 11.17 21.04 11.65L21.04 11.65L19.76 11.65Q19.76 11.10 20.16 10.58Q20.55 10.07 21.22 9.77Q21.90 9.47 22.70 9.47L22.70 9.47Q23.98 9.47 24.71 10.11Q25.43 10.75 25.46 11.87L25.46 11.87L25.46 15.27Q25.46 16.29 25.72 16.89L25.72 16.89L25.72 17ZM22.29 16.04L22.29 16.04Q22.89 16.04 23.42 15.73Q23.95 15.42 24.19 14.93L24.19 14.93L24.19 13.41L23.20 13.41Q20.88 13.41 20.88 14.77L20.88 14.77Q20.88 15.37 21.27 15.70Q21.67 16.04 22.29 16.04ZM27.89 7.81L29.16 7.81L29.16 9.60L30.54 9.60L30.54 10.58L29.16 10.58L29.16 15.17Q29.16 15.61 29.34 15.83Q29.53 16.06 29.97 16.06L29.97 16.06Q30.19 16.06 30.57 15.97L30.57 15.97L30.57 17Q30.07 17.14 29.60 17.14L29.60 17.14Q28.75 17.14 28.32 16.62Q27.89 16.11 27.89 15.17L27.89 15.17L27.89 10.58L26.54 10.58L26.54 9.60L27.89 9.60L27.89 7.81ZM32.46 7.81L33.73 7.81L33.73 9.60L35.11 9.60L35.11 10.58L33.73 10.58L33.73 15.17Q33.73 15.61 33.91 15.83Q34.10 16.06 34.54 16.06L34.54 16.06Q34.76 16.06 35.14 15.97L35.14 15.97L35.14 17Q34.65 17.14 34.17 17.14L34.17 17.14Q33.33 17.14 32.90 16.62Q32.46 16.11 32.46 15.17L32.46 15.17L32.46 10.58L31.12 10.58L31.12 9.60L32.46 9.60L32.46 7.81ZM40.16 9.56L40.16 10.74Q39.88 10.69 39.54 10.69L39.54 10.69Q38.30 10.69 37.85 11.75L37.85 11.75L37.85 17L36.59 17L36.59 9.60L37.82 9.60L37.84 10.46Q38.46 9.47 39.60 9.47L39.60 9.47Q39.97 9.47 40.16 9.56L40.16 9.56ZM42.70 9.60L42.70 17L41.43 17L41.43 9.60L42.70 9.60ZM41.33 7.64L41.33 7.64Q41.33 7.33 41.52 7.12Q41.71 6.91 42.08 6.91Q42.45 6.91 42.64 7.12Q42.83 7.33 42.83 7.64Q42.83 7.95 42.64 8.15Q42.45 8.36 42.08 8.36Q41.71 8.36 41.52 8.15Q41.33 7.95 41.33 7.64ZM50.98 13.27L50.98 13.38Q50.98 15.08 50.20 16.11Q49.42 17.14 48.11 17.14L48.11 17.14Q46.71 17.14 45.95 16.15L45.95 16.15L45.88 17L44.72 17L44.72 6.50L45.99 6.50L45.99 10.42Q46.75 9.47 48.10 9.47Q49.45 9.47 50.21 10.49Q50.98 11.50 50.98 13.27L50.98 13.27ZM49.72 13.24L49.72 13.24Q49.72 11.95 49.22 11.24Q48.72 10.54 47.78 10.54L47.78 10.54Q46.53 10.54 45.99 11.70L45.99 11.70L45.99 14.90Q46.57 16.06 47.80 16.06L47.80 16.06Q48.71 16.06 49.21 15.36Q49.72 14.66 49.72 13.24ZM57.17 17L57.14 16.27Q56.40 17.14 54.98 17.14L54.98 17.14Q53.79 17.14 53.17 16.45Q52.56 15.76 52.55 14.42L52.55 14.42L52.55 9.60L53.81 9.60L53.81 14.38Q53.81 16.06 55.18 16.06L55.18 16.06Q56.63 16.06 57.11 14.98L57.11 14.98L57.11 9.60L58.37 9.60L58.37 17L57.17 17ZM60.75 7.81L62.01 7.81L62.01 9.60L63.39 9.60L63.39 10.58L62.01 10.58L62.01 15.17Q62.01 15.61 62.19 15.83Q62.38 16.06 62.82 16.06L62.82 16.06Q63.04 16.06 63.42 15.97L63.42 15.97L63.42 17Q62.93 17.14 62.45 17.14L62.45 17.14Q61.61 17.14 61.18 16.62Q60.75 16.11 60.75 15.17L60.75 15.17L60.75 10.58L59.40 10.58L59.40 9.60L60.75 9.60L60.75 7.81ZM67.94 17.14L67.94 17.14Q66.43 17.14 65.49 16.15Q64.55 15.16 64.55 13.51L64.55 13.51L64.55 13.27Q64.55 12.17 64.97 11.31Q65.39 10.44 66.14 9.96Q66.90 9.47 67.78 9.47L67.78 9.47Q69.22 9.47 70.02 10.42Q70.82 11.37 70.82 13.14L70.82 13.14L70.82 13.66L65.81 13.66Q65.84 14.76 66.45 15.43Q67.06 16.10 68.00 16.10L68.00 16.10Q68.67 16.10 69.14 15.83Q69.60 15.56 69.95 15.11L69.95 15.11L70.73 15.71Q69.80 17.14 67.94 17.14ZM67.78 10.51L67.78 10.51Q67.01 10.51 66.49 11.06Q65.97 11.62 65.85 12.63L65.85 12.63L69.56 12.63L69.56 12.53Q69.50 11.57 69.04 11.04Q68.57 10.51 67.78 10.51ZM76.31 7.00L76.31 17L75.04 17L75.04 8.57L72.49 9.51L72.49 8.36L76.11 7.00L76.31 7.00ZM80.10 16.34L80.10 16.34Q80.10 16.01 80.30 15.79Q80.49 15.57 80.88 15.57Q81.27 15.57 81.48 15.79Q81.68 16.01 81.68 16.34L81.68 16.34Q81.68 16.65 81.48 16.86Q81.27 17.08 80.88 17.08Q80.49 17.08 80.30 16.86Q80.10 16.65 80.10 16.34ZM80.11 10.30L80.11 10.30Q80.11 9.97 80.31 9.75Q80.50 9.54 80.89 9.54Q81.28 9.54 81.48 9.75Q81.68 9.97 81.68 10.30L81.68 10.30Q81.68 10.62 81.48 10.83Q81.28 11.04 80.89 11.04Q80.50 11.04 80.31 10.83Q80.11 10.62 80.11 10.30ZM93.80 7.05L93.80 8.13L90.60 8.13L90.60 17L89.30 17L89.30 8.13L86.11 8.13L86.11 7.05L93.80 7.05ZM95.16 9.60L97.01 15.15L98.73 9.60L100.09 9.60L97.11 18.14Q96.42 19.99 94.92 19.99L94.92 19.99L94.68 19.97L94.21 19.88L94.21 18.85L94.55 18.88Q95.19 18.88 95.55 18.62Q95.91 18.36 96.14 17.67L96.14 17.67L96.42 16.92L93.78 9.60L95.16 9.60ZM107.46 13.27L107.46 13.38Q107.46 15.07 106.69 16.10Q105.92 17.14 104.60 17.14L104.60 17.14Q103.25 17.14 102.48 16.28L102.48 16.28L102.48 19.84L101.21 19.84L101.21 9.60L102.37 9.60L102.43 10.42Q103.20 9.47 104.58 9.47L104.58 9.47Q105.91 9.47 106.69 10.47Q107.46 11.48 107.46 13.27L107.46 13.27ZM106.20 13.24L106.20 13.24Q106.20 11.99 105.66 11.26Q105.13 10.54 104.20 10.54L104.20 10.54Q103.05 10.54 102.48 11.56L102.48 11.56L102.48 15.09Q103.05 16.10 104.21 16.10L104.21 16.10Q105.12 16.10 105.66 15.38Q106.20 14.66 106.20 13.24ZM112.14 17.14L112.14 17.14Q110.63 17.14 109.69 16.15Q108.75 15.16 108.75 13.51L108.75 13.51L108.75 13.27Q108.75 12.17 109.17 11.31Q109.59 10.44 110.34 9.96Q111.10 9.47 111.98 9.47L111.98 9.47Q113.42 9.47 114.22 10.42Q115.02 11.37 115.02 13.14L115.02 13.14L115.02 13.66L110.01 13.66Q110.04 14.76 110.65 15.43Q111.26 16.10 112.21 16.10L112.21 16.10Q112.88 16.10 113.34 15.83Q113.81 15.56 114.15 15.11L114.15 15.11L114.93 15.71Q114.00 17.14 112.14 17.14ZM111.98 10.51L111.98 10.51Q111.21 10.51 110.70 11.06Q110.18 11.62 110.05 12.63L110.05 12.63L113.76 12.63L113.76 12.53Q113.70 11.57 113.24 11.04Q112.77 10.51 111.98 10.51Z"/>
                <path fill="#000000FF" stroke="#000000FF" stroke-linecap="round" stroke-linejoin="round" stroke-width="0.1"   d=""/>
                <path fill="#000000FF" stroke="#000000FF" stroke-linecap="round" stroke-linejoin="round" stroke-width="0.1"   d=""/>
                <path fill="#000000FF" stroke="#000000FF" stroke-linecap="round" stroke-linejoin="round" stroke-width="0.1"   d="M12.05 22.76L12.05 25.66L14.82 25.66L14.82 26.86L12.05 26.86L12.05 30.00L10.77 30.00L10.77 26.86L8.00 26.86L8.00 25.66L10.77 25.66L10.77 22.76L12.05 22.76ZM25.72 31L24.39 31Q24.28 30.78 24.21 30.22L24.21 30.22Q23.33 31.14 22.11 31.14L22.11 31.14Q21.01 31.14 20.31 30.52Q19.61 29.90 19.61 28.95L19.61 28.95Q19.61 27.79 20.49 27.15Q21.37 26.52 22.96 26.52L22.96 26.52L24.19 26.52L24.19 25.93Q24.19 25.27 23.80 24.88Q23.40 24.49 22.63 24.49L22.63 24.49Q21.95 24.49 21.49 24.83Q21.04 25.17 21.04 25.65L21.04 25.65L19.76 25.65Q19.76 25.10 20.16 24.58Q20.55 24.07 21.22 23.77Q21.90 23.47 22.70 23.47L22.70 23.47Q23.98 23.47 24.71 24.11Q25.43 24.75 25.46 25.87L25.46 25.87L25.46 29.27Q25.46 30.29 25.72 30.89L25.72 30.89L25.72 31ZM22.29 30.04L22.29 30.04Q22.89 30.04 23.42 29.73Q23.95 29.42 24.19 28.93L24.19 28.93L24.19 27.41L23.20 27.41Q20.88 27.41 20.88 28.77L20.88 28.77Q20.88 29.37 21.27 29.70Q21.67 30.04 22.29 30.04ZM27.89 21.81L29.16 21.81L29.16 23.60L30.54 23.60L30.54 24.58L29.16 24.58L29.16 29.17Q29.16 29.61 29.34 29.83Q29.53 30.06 29.97 30.06L29.97 30.06Q30.19 30.06 30.57 29.97L30.57 29.97L30.57 31Q30.07 31.14 29.60 31.14L29.60 31.14Q28.75 31.14 28.32 30.62Q27.89 30.11 27.89 29.17L27.89 29.17L27.89 24.58L26.54 24.58L26.54 23.60L27.89 23.60L27.89 21.81ZM32.46 21.81L33.73 21.81L33.73 23.60L35.11 23.60L35.11 24.58L33.73 24.58L33.73 29.17Q33.73 29.61 33.91 29.83Q34.10 30.06 34.54 30.06L34.54 30.06Q34.76 30.06 35.14 29.97L35.14 29.97L35.14 31Q34.65 31.14 34.17 31.14L34.17 31.14Q33.33 31.14 32.90 30.62Q32.46 30.11 32.46 29.17L32.46 29.17L32.46 24.58L31.12 24.58L31.12 23.60L32.46 23.60L32.46 21.81ZM40.16 23.56L40.16 24.74Q39.88 24.69 39.54 24.69L39.54 24.69Q38.30 24.69 37.85 25.75L37.85 25.75L37.85 31L36.59 31L36.59 23.60L37.82 23.60L37.84 24.46Q38.46 23.47 39.60 23.47L39.60 23.47Q39.97 23.47 40.16 23.56L40.16 23.56ZM42.70 23.60L42.70 31L41.43 31L41.43 23.60L42.70 23.60ZM41.33 21.64L41.33 21.64Q41.33 21.33 41.52 21.12Q41.71 20.91 42.08 20.91Q42.45 20.91 42.64 21.12Q42.83 21.33 42.83 21.64Q42.83 21.95 42.64 22.15Q42.45 22.36 42.08 22.36Q41.71 22.36 41.52 22.15Q41.33 21.95 41.33 21.64ZM50.98 27.27L50.98 27.38Q50.98 29.08 50.20 30.11Q49.42 31.14 48.11 31.14L48.11 31.14Q46.71 31.14 45.95 30.15L45.95 30.15L45.88 31L44.72 31L44.72 20.50L45.99 20.50L45.99 24.42Q46.75 23.47 48.10 23.47Q49.45 23.47 50.21 24.49Q50.98 25.50 50.98 27.27L50.98 27.27ZM49.72 27.24L49.72 27.24Q49.72 25.95 49.22 25.24Q48.72 24.54 47.78 24.54L47.78 24.54Q46.53 24.54 45.99 25.70L45.99 25.70L45.99 28.90Q46.57 30.06 47.80 30.06L47.80 30.06Q48.71 30.06 49.21 29.36Q49.72 28.66 49.72 27.24ZM57.17 31L57.14 30.27Q56.40 31.14 54.98 31.14L54.98 31.14Q53.79 31.14 53.17 30.45Q52.56 29.76 52.55 28.42L52.55 28.42L52.55 23.60L53.81 23.60L53.81 28.38Q53.81 30.06 55.18 30.06L55.18 30.06Q56.63 30.06 57.11 28.98L57.11 28.98L57.11 23.60L58.37 23.60L58.37 31L57.17 31ZM60.75 21.81L62.01 21.81L62.01 23.60L63.39 23.60L63.39 24.58L62.01 24.58L62.01 29.17Q62.01 29.61 62.19 29.83Q62.38 30.06 62.82 30.06L62.82 30.06Q63.04 30.06 63.42 29.97L63.42 29.97L63.42 31Q62.93 31.14 62.45 31.14L62.45 31.14Q61.61 31.14 61.18 30.62Q60.75 30.11 60.75 29.17L60.75 29.17L60.75 24.58L59.40 24.58L59.40 23.60L60.75 23.60L60.75 21.81ZM67.94 31.14L67.94 31.14Q66.43 31.14 65.49 30.15Q64.55 29.16 64.55 27.51L64.55 27.51L64.55 27.27Q64.55 26.17 64.97 25.31Q65.39 24.44 66.14 23.96Q66.90 23.47 67.78 23.47L67.78 23.47Q69.22 23.47 70.02 24.42Q70.82 25.37 70.82 27.14L70.82 27.14L70.82 27.66L65.81 27.66Q65.84 28.76 66.45 29.43Q67.06 30.10 68.00 30.10L68.00 30.10Q68.67 30.10 69.14 29.83Q69.60 29.56 69.95 29.11L69.95 29.11L70.73 29.71Q69.80 31.14 67.94 31.14ZM67.78 24.51L67.78 24.51Q67.01 24.51 66.49 25.06Q65.97 25.62 65.85 26.63L65.85 26.63L69.56 26.63L69.56 26.53Q69.50 25.57 69.04 25.04Q68.57 24.51 67.78 24.51ZM78.68 29.97L78.68 31L72.15 31L72.15 30.09L75.60 26.26Q76.37 25.39 76.66 24.85Q76.95 24.31 76.95 23.73L76.95 23.73Q76.95 22.95 76.47 22.45Q76.00 21.95 75.22 21.95L75.22 21.95Q74.27 21.95 73.75 22.49Q73.23 23.02 73.23 23.98L73.23 23.98L71.96 23.98Q71.96 22.61 72.85 21.76Q73.73 20.91 75.22 20.91L75.22 20.91Q76.60 20.91 77.41 21.64Q78.22 22.37 78.22 23.58L78.22 23.58Q78.22 25.05 76.34 27.08L76.34 27.08L73.68 29.97L78.68 29.97ZM80.10 30.34L80.10 30.34Q80.10 30.01 80.30 29.79Q80.49 29.57 80.88 29.57Q81.27 29.57 81.48 29.79Q81.68 30.01 81.68 30.34L81.68 30.34Q81.68 30.65 81.48 30.86Q81.27 31.08 80.88 31.08Q80.49 31.08 80.30 30.86Q80.10 30.65 80.10 30.34ZM80.11 24.30L80.11 24.30Q80.11 23.97 80.31 23.75Q80.50 23.54 80.89 23.54Q81.28 23.54 81.48 23.75Q81.68 23.97 81.68 24.30L81.68 24.30Q81.68 24.62 81.48 24.83Q81.28 25.04 80.89 25.04Q80.50 25.04 80.31 24.83Q80.11 24.62 80.11 24.30ZM93.80 21.05L93.80 22.13L90.60 22.13L90.60 31L89.30 31L89.30 22.13L86.11 22.13L86.11 21.05L93.80 21.05ZM95.16 23.60L97.01 29.15L98.73 23.60L100.09 23.60L97.11 32.14Q96.42 33.99 94.92 33.99L94.92 33.99L94.68 33.97L94.21 33.88L94.21 32.85L94.55 32.88Q95.19 32.88 95.55 32.62Q95.91 32.36 96.14 31.67L96.14 31.67L96.42 30.92L93.78 23.60L95.16 23.60ZM107.46 27.27L107.46 27.38Q107.46 29.07 106.69 30.10Q105.92 31.14 104.60 31.14L104.60 31.14Q103.25 31.14 102.48 30.28L102.48 30.28L102.48 33.84L101.21 33.84L101.21 23.60L102.37 23.60L102.43 24.42Q103.20 23.47 104.58 23.47L104.58 23.47Q105.91 23.47 106.69 24.47Q107.46 25.48 107.46 27.27L107.46 27.27ZM106.20 27.24L106.20 27.24Q106.20 25.99 105.66 25.26Q105.13 24.54 104.20 24.54L104.20 24.54Q103.05 24.54 102.48 25.56L102.48 25.56L102.48 29.09Q103.05 30.10 104.21 30.10L104.21 30.10Q105.12 30.10 105.66 29.38Q106.20 28.66 106.20 27.24ZM112.14 31.14L112.14 31.14Q110.63 31.14 109.69 30.15Q108.75 29.16 108.75 27.51L108.75 27.51L108.75 27.27Q108.75 26.17 109.17 25.31Q109.59 24.44 110.34 23.96Q111.10 23.47 111.98 23.47L111.98 23.47Q113.42 23.47 114.22 24.42Q115.02 25.37 115.02 27.14L115.02 27.14L115.02 27.66L110.01 27.66Q110.04 28.76 110.65 29.43Q111.26 30.10 112.21 30.10L112.21 30.10Q112.88 30.10 113.34 29.83Q113.81 29.56 114.15 29.11L114.15 29.11L114.93 29.71Q114.00 31.14 112.14 31.14ZM111.98 24.51L111.98 24.51Q111.21 24.51 110.70 25.06Q110.18 25.62 110.05 26.63L110.05 26.63L113.76 26.63L113.76 26.53Q113.70 25.57 113.24 25.04Q112.77 24.51 111.98 24.51Z"/>
                <path fill="#000000FF" stroke="#000000FF" stroke-linecap="round" stroke-linejoin="round" stroke-width="0.1"   d=""/>
                <path fill="#000000FF" stroke="#000000FF" stroke-linecap="round" stroke-linejoin="round" stroke-width="0.1"   d=""/>
                <path fill="#000000FF" stroke="#000000FF" stroke-linecap="round" stroke-linejoin="round" stroke-width="0.1"   d="M11.05 40.26L11.05 41.29L7.72 41.29L7.72 40.26L11.05 40.26ZM21.64 45L20.32 45Q20.21 44.78 20.14 44.22L20.14 44.22Q19.26 45.14 18.03 45.14L18.03 45.14Q16.94 45.14 16.24 44.52Q15.54 43.90 15.54 42.95L15.54 42.95Q15.54 41.79 16.42 41.15Q17.30 40.52 18.89 40.52L18.89 40.52L20.12 40.52L20.12 39.93Q20.12 39.27 19.72 38.88Q19.33 38.49 18.55 38.49L18.55 38.49Q17.88 38.49 17.42 38.83Q16.96 39.17 16.96 39.65L16.96 39.65L15.69 39.65Q15.69 39.10 16.08 38.58Q16.48 38.07 17.15 37.77Q17.82 37.47 18.63 37.47L18.63 37.47Q19.91 37.47 20.63 38.11Q21.36 38.75 21.38 39.87L21.38 39.87L21.38 43.27Q21.38 44.29 21.64 44.89L21.64 44.89L21.64 45ZM18.22 44.04L18.22 44.04Q18.81 44.04 19.35 43.73Q19.88 43.42 20.12 42.93L20.12 42.93L20.12 41.41L19.13 41.41Q16.80 41.41 16.80 42.77L16.80 42.77Q16.80 43.37 17.20 43.70Q17.60 44.04 18.22 44.04ZM23.82 35.81L25.08 35.81L25.08 37.60L26.46 37.60L26.46 38.58L25.08 38.58L25.08 43.17Q25.08 43.61 25.27 43.83Q25.45 44.06 25.90 44.06L25.90 44.06Q26.11 44.06 26.50 43.97L26.50 43.97L26.50 45Q26.00 45.14 25.53 45.14L25.53 45.14Q24.68 45.14 24.25 44.62Q23.82 44.11 23.82 43.17L23.82 43.17L23.82 38.58L22.47 38.58L22.47 37.60L23.82 37.60L23.82 35.81ZM28.39 35.81L29.66 35.81L29.66 37.60L31.04 37.60L31.04 38.58L29.66 38.58L29.66 43.17Q29.66 43.61 29.84 43.83Q30.02 44.06 30.47 44.06L30.47 44.06Q30.69 44.06 31.07 43.97L31.07 43.97L31.07 45Q30.57 45.14 30.10 45.14L30.10 45.14Q29.25 45.14 28.82 44.62Q28.39 44.11 28.39 43.17L28.39 43.17L28.39 38.58L27.04 38.58L27.04 37.60L28.39 37.60L28.39 35.81ZM36.09 37.56L36.09 38.74Q35.80 38.69 35.47 38.69L35.47 38.69Q34.22 38.69 33.78 39.75L33.78 39.75L33.78 45L32.51 45L32.51 37.60L33.74 37.60L33.76 38.46Q34.39 37.47 35.53 37.47L35.53 37.47Q35.90 37.47 36.09 37.56L36.09 37.56ZM38.62 37.60L38.62 45L37.36 45L37.36 37.60L38.62 37.60ZM37.26 35.64L37.26 35.64Q37.26 35.33 37.44 35.12Q37.63 34.91 38.00 34.91Q38.37 34.91 38.56 35.12Q38.75 35.33 38.75 35.64Q38.75 35.95 38.56 36.15Q38.37 36.36 38.00 36.36Q37.63 36.36 37.44 36.15Q37.26 35.95 37.26 35.64ZM46.91 41.27L46.91 41.38Q46.91 43.08 46.13 44.11Q45.35 45.14 44.04 45.14L44.04 45.14Q42.64 45.14 41.87 44.15L41.87 44.15L41.81 45L40.65 45L40.65 34.50L41.91 34.50L41.91 38.42Q42.68 37.47 44.02 37.47Q45.37 37.47 46.14 38.49Q46.91 39.50 46.91 41.27L46.91 41.27ZM45.64 41.24L45.64 41.24Q45.64 39.95 45.15 39.24Q44.65 38.54 43.71 38.54L43.71 38.54Q42.46 38.54 41.91 39.70L41.91 39.70L41.91 42.90Q42.49 44.06 43.72 44.06L43.72 44.06Q44.63 44.06 45.14 43.36Q45.64 42.66 45.64 41.24ZM53.10 45L53.07 44.27Q52.33 45.14 50.90 45.14L50.90 45.14Q49.72 45.14 49.10 44.45Q48.48 43.76 48.47 42.42L48.47 42.42L48.47 37.60L49.74 37.60L49.74 42.38Q49.74 44.06 51.11 44.06L51.11 44.06Q52.56 44.06 53.03 42.98L53.03 42.98L53.03 37.60L54.30 37.60L54.30 45L53.10 45ZM56.67 35.81L57.94 35.81L57.94 37.60L59.32 37.60L59.32 38.58L57.94 38.58L57.94 43.17Q57.94 43.61 58.12 43.83Q58.30 44.06 58.75 44.06L58.75 44.06Q58.97 44.06 59.35 43.97L59.35 43.97L59.35 45Q58.85 45.14 58.38 45.14L58.38 45.14Q57.53 45.14 57.10 44.62Q56.67 44.11 56.67 43.17L56.67 43.17L56.67 38.58L55.32 38.58L55.32 37.60L56.67 37.60L56.67 35.81ZM63.86 45.14L63.86 45.14Q62.36 45.14 61.42 44.15Q60.47 43.16 60.47 41.51L60.47 41.51L60.47 41.27Q60.47 40.17 60.89 39.31Q61.31 38.44 62.07 37.96Q62.82 37.47 63.71 37.47L63.71 37.47Q65.15 37.47 65.95 38.42Q66.75 39.37 66.75 41.14L66.75 41.14L66.75 41.66L61.74 41.66Q61.76 42.76 62.38 43.43Q62.99 44.10 63.93 44.10L63.93 44.10Q64.60 44.10 65.07 43.83Q65.53 43.56 65.88 43.11L65.88 43.11L66.65 43.71Q65.72 45.14 63.86 45.14ZM63.71 38.51L63.71 38.51Q62.94 38.51 62.42 39.06Q61.90 39.62 61.78 40.63L61.78 40.63L65.48 40.63L65.48 40.53Q65.43 39.57 64.96 39.04Q64.50 38.51 63.71 38.51ZM69.92 40.44L69.92 39.41L70.87 39.41Q71.76 39.39 72.28 38.94Q72.79 38.48 72.79 37.70L72.79 37.70Q72.79 35.95 71.05 35.95L71.05 35.95Q70.23 35.95 69.74 36.42Q69.25 36.89 69.25 37.66L69.25 37.66L67.98 37.66Q67.98 36.48 68.85 35.69Q69.71 34.91 71.05 34.91L71.05 34.91Q72.46 34.91 73.25 35.66Q74.05 36.40 74.05 37.73L74.05 37.73Q74.05 38.38 73.63 38.98Q73.21 39.59 72.49 39.89L72.49 39.89Q73.31 40.15 73.76 40.75Q74.21 41.36 74.21 42.22L74.21 42.22Q74.21 43.56 73.33 44.35Q72.46 45.14 71.05 45.14Q69.65 45.14 68.77 44.38Q67.90 43.62 67.90 42.38L67.90 42.38L69.17 42.38Q69.17 43.16 69.68 43.63Q70.19 44.10 71.05 44.10L71.05 44.10Q71.97 44.10 72.46 43.63Q72.94 43.15 72.94 42.25L72.94 42.25Q72.94 41.38 72.41 40.92Q71.87 40.45 70.87 40.44L70.87 40.44L69.92 40.44ZM76.03 44.34L76.03 44.34Q76.03 44.01 76.23 43.79Q76.42 43.57 76.81 43.57Q77.20 43.57 77.40 43.79Q77.60 44.01 77.60 44.34L77.60 44.34Q77.60 44.65 77.40 44.86Q77.20 45.08 76.81 45.08Q76.42 45.08 76.23 44.86Q76.03 44.65 76.03 44.34ZM76.04 38.30L76.04 38.30Q76.04 37.97 76.23 37.75Q76.43 37.54 76.82 37.54Q77.21 37.54 77.41 37.75Q77.61 37.97 77.61 38.30L77.61 38.30Q77.61 38.62 77.41 38.83Q77.21 39.04 76.82 39.04Q76.43 39.04 76.23 38.83Q76.04 38.62 76.04 38.30ZM89.73 35.05L89.73 36.13L86.53 36.13L86.53 45L85.22 45L85.22 36.13L82.03 36.13L82.03 35.05L89.73 35.05ZM91.09 37.60L92.94 43.15L94.66 37.60L96.01 37.60L93.04 46.14Q92.35 47.99 90.84 47.99L90.84 47.99L90.60 47.97L90.13 47.88L90.13 46.85L90.47 46.88Q91.12 46.88 91.48 46.62Q91.83 46.36 92.07 45.67L92.07 45.67L92.35 44.92L89.71 37.60L91.09 37.60ZM103.39 41.27L103.39 41.38Q103.39 43.07 102.62 44.10Q101.84 45.14 100.52 45.14L100.52 45.14Q99.18 45.14 98.40 44.28L98.40 44.28L98.40 47.84L97.14 47.84L97.14 37.60L98.29 37.60L98.36 38.42Q99.13 37.47 100.50 37.47L100.50 37.47Q101.84 37.47 102.61 38.47Q103.39 39.48 103.39 41.27L103.39 41.27ZM102.12 41.24L102.12 41.24Q102.12 39.99 101.59 39.26Q101.06 38.54 100.13 38.54L100.13 38.54Q98.98 38.54 98.40 39.56L98.40 39.56L98.40 43.09Q98.97 44.10 100.14 44.10L100.14 44.10Q101.05 44.10 101.59 43.38Q102.12 42.66 102.12 41.24ZM108.06 45.14L108.06 45.14Q106.56 45.14 105.62 44.15Q104.67 43.16 104.67 41.51L104.67 41.51L104.67 41.27Q104.67 40.17 105.09 39.31Q105.51 38.44 106.27 37.96Q107.02 37.47 107.91 37.47L107.91 37.47Q109.35 37.47 110.15 38.42Q110.95 39.37 110.95 41.14L110.95 41.14L110.95 41.66L105.94 41.66Q105.96 42.76 106.58 43.43Q107.19 44.10 108.13 44.10L108.13 44.10Q108.80 44.10 109.27 43.83Q109.73 43.56 110.08 43.11L110.08 43.11L110.85 43.71Q109.92 45.14 108.06 45.14ZM107.91 38.51L107.91 38.51Q107.14 38.51 106.62 39.06Q106.10 39.62 105.98 40.63L105.98 40.63L109.68 40.63L109.68 40.53Q109.63 39.57 109.16 39.04Q108.70 38.51 107.91 38.51Z"/>
            </g>
        </g>
    </g>
</g>
</svg>