<svg xmlns="http://www.w3.org/2000/svg" version="1.1" xmlns:xlink="http://www.w3.org/1999/xlink" xmlns:svgjs="http://svgjs.dev/svgjs" width="90" height="50" viewbox="0 0 90 50"   shape-rendering="geometricPrecision">
<g id="0654fc2933fe4dff81b873203e6ac243" transform="translate(5, 5) ">
    <path fill="#FFFFFFFF" stroke="#323232FF" stroke-width="2"  d="M40 10Q39.7545 10 39.5093 10.012Q39.2641 10.0241 39.0198 10.0482Q38.7755 10.0722 38.5327 10.1082Q38.2899 10.1443 38.0491 10.1921Q37.8083 10.24 37.5702 10.2997Q37.3321 10.3593 37.0972 10.4306Q36.8622 10.5019 36.6311 10.5846Q36.4 10.6673 36.1732 10.7612Q35.9464 10.8551 35.7244 10.9601Q35.5025 11.0651 35.286 11.1808Q35.0695 11.2965 34.859 11.4227Q34.6484 11.5489 34.4443 11.6853Q34.2402 11.8217 34.043 11.9679Q33.8458 12.1142 33.6561 12.2699Q33.4663 12.4256 33.2844 12.5905Q33.1025 12.7553 32.9289 12.9289Q32.7553 13.1025 32.5905 13.2844Q32.4256 13.4663 32.2699 13.6561Q32.1142 13.8458 31.9679 14.043Q31.8217 14.2402 31.6853 14.4443Q31.5489 14.6484 31.4227 14.859Q31.2965 15.0695 31.1808 15.286Q31.0651 15.5025 30.9601 15.7244Q30.8551 15.9464 30.7612 16.1732Q30.6673 16.4 30.5846 16.6311Q30.5019 16.8622 30.4306 17.0972Q30.3593 17.3321 30.2997 17.5702Q30.24 17.8083 30.1921 18.0491Q30.1443 18.2899 30.1082 18.5327Q30.0722 18.7755 30.0482 19.0198Q30.0241 19.2641 30.012 19.5093Q30 19.7545 30 20Q30 20.2455 30.012 20.4907Q30.0241 20.7359 30.0482 20.9802Q30.0722 21.2245 30.1082 21.4673Q30.1443 21.7101 30.1921 21.9509Q30.24 22.1917 30.2997 22.4298Q30.3593 22.6679 30.4306 22.9028Q30.5019 23.1378 30.5846 23.3689Q30.6673 23.6 30.7612 23.8268Q30.8551 24.0536 30.9601 24.2755Q31.0651 24.4975 31.1808 24.714Q31.2965 24.9305 31.4227 25.141Q31.5489 25.3516 31.6853 25.5557Q31.8217 25.7598 31.9679 25.957Q32.1142 26.1542 32.2699 26.3439Q32.4256 26.5337 32.5905 26.7156Q32.7553 26.8975 32.9289 27.0711Q33.1025 27.2446 33.2844 27.4095Q33.4663 27.5744 33.6561 27.7301Q33.8458 27.8858 34.043 28.0321Q34.2402 28.1783 34.4443 28.3147Q34.6484 28.4511 34.859 28.5773Q35.0695 28.7035 35.286 28.8192Q35.5025 28.9349 35.7244 29.0399Q35.9464 29.1448 36.1732 29.2388Q36.4 29.3327 36.6311 29.4154Q36.8622 29.4981 37.0972 29.5694Q37.3321 29.6407 37.5702 29.7003Q37.8083 29.76 38.0491 29.8078Q38.2899 29.8557 38.5327 29.8918Q38.7755 29.9278 39.0198 29.9518Q39.2641 29.9759 39.5093 29.988Q39.7545 30 40 30Q40.2455 30 40.4907 29.988Q40.7359 29.9759 40.9802 29.9518Q41.2245 29.9278 41.4673 29.8918Q41.7101 29.8557 41.9509 29.8078Q42.1917 29.76 42.4298 29.7003Q42.6679 29.6407 42.9028 29.5694Q43.1378 29.4981 43.3689 29.4154Q43.6 29.3327 43.8268 29.2388Q44.0536 29.1448 44.2755 29.0399Q44.4975 28.9349 44.714 28.8192Q44.9305 28.7035 45.141 28.5773Q45.3516 28.4511 45.5557 28.3147Q45.7598 28.1783 45.957 28.0321Q46.1542 27.8858 46.3439 27.7301Q46.5337 27.5744 46.7156 27.4095Q46.8975 27.2447 47.0711 27.0711Q47.2447 26.8975 47.4095 26.7156Q47.5744 26.5337 47.7301 26.3439Q47.8858 26.1542 48.0321 25.957Q48.1783 25.7598 48.3147 25.5557Q48.4511 25.3516 48.5773 25.141Q48.7035 24.9305 48.8192 24.714Q48.9349 24.4975 49.0399 24.2755Q49.1448 24.0536 49.2388 23.8268Q49.3327 23.6 49.4154 23.3689Q49.4981 23.1378 49.5694 22.9028Q49.6407 22.6679 49.7003 22.4298Q49.76 22.1917 49.8078 21.9509Q49.8557 21.7101 49.8918 21.4673Q49.9278 21.2245 49.9518 20.9802Q49.9759 20.7359 49.988 20.4907Q50 20.2455 50 20Q50 19.7545 49.988 19.5093Q49.9759 19.2641 49.9518 19.0198Q49.9278 18.7755 49.8918 18.5327Q49.8557 18.2899 49.8078 18.0491Q49.76 17.8083 49.7003 17.5702Q49.6407 17.3321 49.5694 17.0972Q49.4981 16.8622 49.4154 16.6311Q49.3327 16.4 49.2388 16.1732Q49.1448 15.9464 49.0399 15.7244Q48.9349 15.5025 48.8192 15.286Q48.7035 15.0695 48.5773 14.859Q48.4511 14.6484 48.3147 14.4443Q48.1783 14.2402 48.0321 14.043Q47.8858 13.8458 47.7301 13.6561Q47.5744 13.4663 47.4095 13.2844Q47.2447 13.1025 47.0711 12.9289Q46.8975 12.7553 46.7156 12.5905Q46.5337 12.4256 46.3439 12.2699Q46.1542 12.1142 45.957 11.9679Q45.7598 11.8217 45.5557 11.6853Q45.3516 11.5489 45.141 11.4227Q44.9305 11.2965 44.714 11.1808Q44.4975 11.0651 44.2755 10.9601Q44.0536 10.8551 43.8268 10.7612Q43.6 10.6673 43.3689 10.5846Q43.1378 10.5019 42.9028 10.4306Q42.6679 10.3593 42.4298 10.2997Q42.1917 10.24 41.9509 10.1921Q41.7101 10.1443 41.4673 10.1082Q41.2245 10.0722 40.9802 10.0482Q40.7359 10.0241 40.4907 10.012Q40.2455 10 40 10ZM40 0Q40.491 0 40.9814 0.0240909Q41.4717 0.0481817 41.9603 0.0963055Q42.4489 0.144429 42.9346 0.21647Q43.4203 0.28851 43.9018 0.384294Q44.3833 0.480078 44.8596 0.599375Q45.3359 0.718671 45.8057 0.861193Q46.2755 1.00371 46.7378 1.16912Q47.2001 1.33452 47.6537 1.52241Q48.1073 1.7103 48.5511 1.92021Q48.9949 2.13013 49.4279 2.36157Q49.8609 2.59302 50.282 2.84543Q50.7032 3.09784 51.1114 3.37061Q51.5196 3.64338 51.914 3.93585Q52.3083 4.22832 52.6879 4.53979Q53.0674 4.85126 53.4312 5.18098Q53.795 5.51069 54.1421 5.85786Q54.4893 6.20503 54.819 6.56882Q55.1487 6.93261 55.4602 7.31213Q55.7717 7.69166 56.0641 8.08601Q56.3566 8.48037 56.6294 8.88859Q56.9022 9.29682 57.1546 9.71795Q57.407 10.1391 57.6384 10.5721Q57.8699 11.0051 58.0798 11.4489Q58.2897 11.8927 58.4776 12.3463Q58.6655 12.7999 58.8309 13.2622Q58.9963 13.7245 59.1388 14.1943Q59.2813 14.6641 59.4006 15.1404Q59.5199 15.6167 59.6157 16.0982Q59.7115 16.5797 59.7835 17.0654Q59.8556 17.551 59.9037 18.0397Q59.9518 18.5283 59.9759 19.0186Q60 19.509 60 20Q60 20.491 59.9759 20.9814Q59.9518 21.4717 59.9037 21.9603Q59.8556 22.449 59.7835 22.9346Q59.7115 23.4203 59.6157 23.9018Q59.5199 24.3833 59.4006 24.8596Q59.2813 25.3359 59.1388 25.8057Q58.9963 26.2755 58.8309 26.7378Q58.6655 27.2001 58.4776 27.6537Q58.2897 28.1073 58.0798 28.5511Q57.8699 28.9949 57.6384 29.4279Q57.407 29.8609 57.1546 30.2821Q56.9022 30.7032 56.6294 31.1114Q56.3566 31.5196 56.0641 31.914Q55.7717 32.3083 55.4602 32.6879Q55.1487 33.0674 54.819 33.4312Q54.4893 33.795 54.1421 34.1421Q53.795 34.4893 53.4312 34.819Q53.0674 35.1487 52.6879 35.4602Q52.3083 35.7717 51.914 36.0642Q51.5196 36.3566 51.1114 36.6294Q50.7032 36.9022 50.282 37.1546Q49.8609 37.407 49.4279 37.6384Q48.9949 37.8699 48.5511 38.0798Q48.1073 38.2897 47.6537 38.4776Q47.2001 38.6655 46.7378 38.8309Q46.2755 38.9963 45.8057 39.1388Q45.3359 39.2813 44.8596 39.4006Q44.3833 39.5199 43.9018 39.6157Q43.4203 39.7115 42.9346 39.7835Q42.4489 39.8556 41.9603 39.9037Q41.4717 39.9518 40.9814 39.9759Q40.491 40 40 40M0 20L30 20M60 20L80 20"/>    
</g>
</svg>