<svg xmlns="http://www.w3.org/2000/svg" version="1.1" xmlns:xlink="http://www.w3.org/1999/xlink" xmlns:svgjs="http://svgjs.dev/svgjs" width="210" height="210" viewbox="0 0 210 210"   shape-rendering="geometricPrecision">
<g id="ec9d25f8c473468185b4c7d482e3fe4b" transform="translate(5, 5) ">
    <path fill="#FFFFFFFF" stroke="#323232FF" stroke-width="2"  d="M0 0L0 200L200 200L200 0L0 0ZM0 0L0 30L70 30L82 18L82 0L0 0Z"/>    
    <g transform="matrix(1.00, 0.00, 0.00, 1.00, 0.00, 0.00)">
        <path fill="#000000FF" stroke="#000000FF" stroke-linecap="round" stroke-linejoin="round" stroke-width="0.1"   d="M8.81 41.10L6.47 41.10L6.47 45L5.16 45L5.16 35.05L8.83 35.05Q10.46 35.05 11.39 35.88Q12.31 36.71 12.31 38.09L12.31 38.09Q12.31 39.54 11.41 40.32Q10.50 41.10 8.81 41.10L8.81 41.10ZM6.47 36.13L6.47 40.03L8.83 40.03Q9.88 40.03 10.44 39.53Q11 39.04 11 38.10L11 38.10Q11 37.21 10.44 36.68Q9.88 36.15 8.90 36.13L8.90 36.13L6.47 36.13ZM19.61 45L18.28 45Q18.17 44.78 18.10 44.22L18.10 44.22Q17.22 45.14 16.00 45.14L16.00 45.14Q14.90 45.14 14.20 44.52Q13.50 43.90 13.50 42.95L13.50 42.95Q13.50 41.79 14.38 41.15Q15.26 40.52 16.85 40.52L16.85 40.52L18.08 40.52L18.08 39.93Q18.08 39.27 17.69 38.88Q17.29 38.49 16.52 38.49L16.52 38.49Q15.84 38.49 15.38 38.83Q14.92 39.17 14.92 39.65L14.92 39.65L13.65 39.65Q13.65 39.10 14.05 38.58Q14.44 38.07 15.11 37.77Q15.79 37.47 16.59 37.47L16.59 37.47Q17.87 37.47 18.59 38.11Q19.32 38.75 19.35 39.87L19.35 39.87L19.35 43.27Q19.35 44.29 19.61 44.89L19.61 44.89L19.61 45ZM16.18 44.04L16.18 44.04Q16.78 44.04 17.31 43.73Q17.84 43.42 18.08 42.93L18.08 42.93L18.08 41.41L17.09 41.41Q14.77 41.41 14.77 42.77L14.77 42.77Q14.77 43.37 15.16 43.70Q15.56 44.04 16.18 44.04ZM24.90 37.56L24.90 38.74Q24.62 38.69 24.28 38.69L24.28 38.69Q23.04 38.69 22.59 39.75L22.59 39.75L22.59 45L21.33 45L21.33 37.60L22.56 37.60L22.58 38.46Q23.20 37.47 24.34 37.47L24.34 37.47Q24.71 37.47 24.90 37.56L24.90 37.56ZM31.69 45L30.36 45Q30.25 44.78 30.18 44.22L30.18 44.22Q29.30 45.14 28.08 45.14L28.08 45.14Q26.98 45.14 26.28 44.52Q25.58 43.90 25.58 42.95L25.58 42.95Q25.58 41.79 26.46 41.15Q27.34 40.52 28.93 40.52L28.93 40.52L30.16 40.52L30.16 39.93Q30.16 39.27 29.76 38.88Q29.37 38.49 28.60 38.49L28.60 38.49Q27.92 38.49 27.46 38.83Q27.00 39.17 27.00 39.65L27.00 39.65L25.73 39.65Q25.73 39.10 26.12 38.58Q26.52 38.07 27.19 37.77Q27.86 37.47 28.67 37.47L28.67 37.47Q29.95 37.47 30.67 38.11Q31.40 38.75 31.43 39.87L31.43 39.87L31.43 43.27Q31.43 44.29 31.69 44.89L31.69 44.89L31.69 45ZM28.26 44.04L28.26 44.04Q28.86 44.04 29.39 43.73Q29.92 43.42 30.16 42.93L30.16 42.93L30.16 41.41L29.17 41.41Q26.85 41.41 26.85 42.77L26.85 42.77Q26.85 43.37 27.24 43.70Q27.64 44.04 28.26 44.04ZM33.40 37.60L34.60 37.60L34.63 38.42Q35.45 37.47 36.83 37.47L36.83 37.47Q38.38 37.47 38.94 38.66L38.94 38.66Q39.31 38.12 39.90 37.79Q40.49 37.47 41.30 37.47L41.30 37.47Q43.73 37.47 43.77 40.04L43.77 40.04L43.77 45L42.51 45L42.51 40.12Q42.51 39.33 42.14 38.93Q41.78 38.54 40.93 38.54L40.93 38.54Q40.22 38.54 39.76 38.96Q39.29 39.38 39.22 40.09L39.22 40.09L39.22 45L37.95 45L37.95 40.15Q37.95 38.54 36.37 38.54L36.37 38.54Q35.12 38.54 34.67 39.60L34.67 39.60L34.67 45L33.40 45L33.40 37.60ZM48.75 45.14L48.75 45.14Q47.24 45.14 46.30 44.15Q45.36 43.16 45.36 41.51L45.36 41.51L45.36 41.27Q45.36 40.17 45.78 39.31Q46.20 38.44 46.95 37.96Q47.71 37.47 48.59 37.47L48.59 37.47Q50.03 37.47 50.83 38.42Q51.63 39.37 51.63 41.14L51.63 41.14L51.63 41.66L46.62 41.66Q46.65 42.76 47.26 43.43Q47.87 44.10 48.82 44.10L48.82 44.10Q49.49 44.10 49.95 43.83Q50.42 43.56 50.76 43.11L50.76 43.11L51.54 43.71Q50.61 45.14 48.75 45.14ZM48.59 38.51L48.59 38.51Q47.83 38.51 47.31 39.06Q46.79 39.62 46.66 40.63L46.66 40.63L50.37 40.63L50.37 40.53Q50.31 39.57 49.85 39.04Q49.38 38.51 48.59 38.51ZM53.55 35.81L54.81 35.81L54.81 37.60L56.19 37.60L56.19 38.58L54.81 38.58L54.81 43.17Q54.81 43.61 55.00 43.83Q55.18 44.06 55.63 44.06L55.63 44.06Q55.84 44.06 56.23 43.97L56.23 43.97L56.23 45Q55.73 45.14 55.26 45.14L55.26 45.14Q54.41 45.14 53.98 44.62Q53.55 44.11 53.55 43.17L53.55 43.17L53.55 38.58L52.20 38.58L52.20 37.60L53.55 37.60L53.55 35.81ZM60.74 45.14L60.74 45.14Q59.23 45.14 58.29 44.15Q57.35 43.16 57.35 41.51L57.35 41.51L57.35 41.27Q57.35 40.17 57.77 39.31Q58.19 38.44 58.94 37.96Q59.70 37.47 60.58 37.47L60.58 37.47Q62.02 37.47 62.82 38.42Q63.62 39.37 63.62 41.14L63.62 41.14L63.62 41.66L58.61 41.66Q58.64 42.76 59.25 43.43Q59.86 44.10 60.81 44.10L60.81 44.10Q61.48 44.10 61.94 43.83Q62.41 43.56 62.75 43.11L62.75 43.11L63.53 43.71Q62.60 45.14 60.74 45.14ZM60.58 38.51L60.58 38.51Q59.82 38.51 59.30 39.06Q58.78 39.62 58.65 40.63L58.65 40.63L62.36 40.63L62.36 40.53Q62.30 39.57 61.84 39.04Q61.37 38.51 60.58 38.51ZM68.66 37.56L68.66 38.74Q68.37 38.69 68.04 38.69L68.04 38.69Q66.79 38.69 66.35 39.75L66.35 39.75L66.35 45L65.09 45L65.09 37.60L66.32 37.60L66.34 38.46Q66.96 37.47 68.10 37.47L68.10 37.47Q68.47 37.47 68.66 37.56L68.66 37.56ZM74.13 43.04L74.13 43.04Q74.13 42.53 73.74 42.24Q73.36 41.96 72.40 41.75Q71.44 41.55 70.87 41.26Q70.31 40.97 70.04 40.58Q69.77 40.18 69.77 39.63L69.77 39.63Q69.77 38.72 70.54 38.10Q71.31 37.47 72.50 37.47L72.50 37.47Q73.76 37.47 74.54 38.12Q75.33 38.77 75.33 39.78L75.33 39.78L74.05 39.78Q74.05 39.26 73.61 38.88Q73.17 38.51 72.50 38.51L72.50 38.51Q71.81 38.51 71.42 38.81Q71.03 39.11 71.03 39.59L71.03 39.59Q71.03 40.05 71.40 40.28Q71.76 40.52 72.70 40.73Q73.65 40.94 74.24 41.23Q74.83 41.53 75.11 41.94Q75.39 42.35 75.39 42.95L75.39 42.95Q75.39 43.94 74.60 44.54Q73.81 45.14 72.54 45.14L72.54 45.14Q71.66 45.14 70.97 44.82Q70.29 44.51 69.90 43.94Q69.52 43.38 69.52 42.72L69.52 42.72L70.78 42.72Q70.81 43.36 71.29 43.73Q71.76 44.10 72.54 44.10L72.54 44.10Q73.26 44.10 73.70 43.81Q74.13 43.52 74.13 43.04Z"/>
    </g>
    <g>
        <g id="61a37169ce6b46e584c0ac7b607a527f" transform=" ">
            <path fill="none" stroke="none" stroke-width="2"  d="M0 0L0 30L70 30L70 0L0 0Z"/>    
            <g transform="matrix(1.00, 0.00, 0.00, 1.00, 0.00, 0.00)">
                <path fill="#000000FF" stroke="#000000FF" stroke-linecap="round" stroke-linejoin="round" stroke-width="0.5"   d="M6.47 11.05L6.47 19.93L11.19 19.93L11.19 21L5.16 21L5.16 11.05L6.47 11.05ZM12.16 17.32L12.16 17.23Q12.16 16.15 12.58 15.28Q13.01 14.41 13.77 13.94Q14.53 13.47 15.51 13.47L15.51 13.47Q17.02 13.47 17.96 14.51Q18.89 15.56 18.89 17.29L18.89 17.29L18.89 17.38Q18.89 18.46 18.48 19.32Q18.06 20.18 17.29 20.66Q16.52 21.14 15.53 21.14L15.53 21.14Q14.02 21.14 13.09 20.09Q12.16 19.04 12.16 17.32L12.16 17.32ZM13.43 17.38L13.43 17.38Q13.43 18.61 14.00 19.36Q14.57 20.10 15.53 20.10L15.53 20.10Q16.49 20.10 17.06 19.35Q17.62 18.59 17.62 17.23L17.62 17.23Q17.62 16.02 17.05 15.26Q16.47 14.51 15.51 14.51L15.51 14.51Q14.58 14.51 14.00 15.25Q13.43 16.00 13.43 17.38ZM20.14 17.32L20.14 17.23Q20.14 16.15 20.57 15.28Q20.99 14.41 21.76 13.94Q22.52 13.47 23.50 13.47L23.50 13.47Q25.01 13.47 25.94 14.51Q26.87 15.56 26.87 17.29L26.87 17.29L26.87 17.38Q26.87 18.46 26.46 19.32Q26.05 20.18 25.28 20.66Q24.51 21.14 23.51 21.14L23.51 21.14Q22.01 21.14 21.07 20.09Q20.14 19.04 20.14 17.32L20.14 17.32ZM21.41 17.38L21.41 17.38Q21.41 18.61 21.98 19.36Q22.55 20.10 23.51 20.10L23.51 20.10Q24.47 20.10 25.04 19.35Q25.61 18.59 25.61 17.23L25.61 17.23Q25.61 16.02 25.03 15.26Q24.45 14.51 23.50 14.51L23.50 14.51Q22.56 14.51 21.99 15.25Q21.41 16.00 21.41 17.38ZM34.71 17.27L34.71 17.38Q34.71 19.07 33.93 20.10Q33.16 21.14 31.84 21.14L31.84 21.14Q30.50 21.14 29.72 20.28L29.72 20.28L29.72 23.84L28.46 23.84L28.46 13.60L29.61 13.60L29.68 14.42Q30.45 13.47 31.82 13.47L31.82 13.47Q33.16 13.47 33.93 14.47Q34.71 15.48 34.71 17.27L34.71 17.27ZM33.44 17.24L33.44 17.24Q33.44 15.99 32.91 15.26Q32.38 14.54 31.45 14.54L31.45 14.54Q30.30 14.54 29.72 15.56L29.72 15.56L29.72 19.09Q30.29 20.10 31.46 20.10L31.46 20.10Q32.37 20.10 32.91 19.38Q33.44 18.66 33.44 17.24Z"/>
            </g>
        </g>
    </g>
</g>
</svg>