<svg xmlns="http://www.w3.org/2000/svg" version="1.1" xmlns:xlink="http://www.w3.org/1999/xlink" xmlns:svgjs="http://svgjs.dev/svgjs" width="130" height="70" viewbox="0 0 130 70"   shape-rendering="geometricPrecision">
<g id="5ffe87ac718a4b37a192a91d94d4ed8d" transform="translate(5, 5) ">
    <path fill="#FFFFFFFF" stroke="#323232FF" stroke-width="2"  d="M0 12L0 24L24 24L24 12L0 12ZM0 36L0 48L24 48L24 36L0 36ZM12 0L12 12M12 24L12 36M12 48L12 60L120 60L120 0L12 0"/>    
    <g transform="matrix(1.00, 0.00, 0.00, 1.00, 0.00, 0.00)">
        <path fill="#000000FF" stroke="#000000FF" stroke-linecap="round" stroke-linejoin="round" stroke-width="0.5"   d="M49.84 26.05L51.53 26.05L54.79 34.17L58.04 26.05L59.74 26.05L59.74 36L58.43 36L58.43 32.12L58.55 27.94L55.29 36L54.28 36L51.02 27.96L51.15 32.12L51.15 36L49.84 36L49.84 26.05ZM61.53 32.32L61.53 32.23Q61.53 31.15 61.95 30.28Q62.38 29.41 63.14 28.94Q63.91 28.47 64.88 28.47L64.88 28.47Q66.39 28.47 67.33 29.51Q68.26 30.56 68.26 32.29L68.26 32.29L68.26 32.38Q68.26 33.46 67.85 34.32Q67.43 35.18 66.66 35.66Q65.90 36.14 64.90 36.14L64.90 36.14Q63.39 36.14 62.46 35.09Q61.53 34.04 61.53 32.32L61.53 32.32ZM62.80 32.38L62.80 32.38Q62.80 33.61 63.37 34.36Q63.94 35.10 64.90 35.10L64.90 35.10Q65.86 35.10 66.43 34.35Q67.00 33.59 67.00 32.23L67.00 32.23Q67.00 31.02 66.42 30.26Q65.84 29.51 64.88 29.51L64.88 29.51Q63.95 29.51 63.37 30.25Q62.80 31.00 62.80 32.38ZM69.54 32.34L69.54 32.24Q69.54 30.54 70.35 29.50Q71.15 28.47 72.46 28.47L72.46 28.47Q73.76 28.47 74.52 29.36L74.52 29.36L74.52 25.50L75.78 25.50L75.78 36L74.62 36L74.56 35.21Q73.80 36.14 72.44 36.14L72.44 36.14Q71.16 36.14 70.35 35.08Q69.54 34.03 69.54 32.34L69.54 32.34ZM70.80 32.38L70.80 32.38Q70.80 33.64 71.32 34.35Q71.84 35.06 72.76 35.06L72.76 35.06Q73.96 35.06 74.52 33.98L74.52 33.98L74.52 30.59Q73.95 29.54 72.77 29.54L72.77 29.54Q71.84 29.54 71.32 30.26Q70.80 30.98 70.80 32.38ZM82.34 36L82.31 35.27Q81.57 36.14 80.14 36.14L80.14 36.14Q78.96 36.14 78.34 35.45Q77.72 34.76 77.71 33.42L77.71 33.42L77.71 28.60L78.98 28.60L78.98 33.38Q78.98 35.06 80.35 35.06L80.35 35.06Q81.80 35.06 82.27 33.98L82.27 33.98L82.27 28.60L83.54 28.60L83.54 36L82.34 36ZM86.83 25.50L86.83 36L85.57 36L85.57 25.50L86.83 25.50ZM91.93 36.14L91.93 36.14Q90.42 36.14 89.48 35.15Q88.54 34.16 88.54 32.51L88.54 32.51L88.54 32.27Q88.54 31.17 88.96 30.31Q89.38 29.44 90.13 28.96Q90.89 28.47 91.77 28.47L91.77 28.47Q93.21 28.47 94.01 29.42Q94.81 30.37 94.81 32.14L94.81 32.14L94.81 32.66L89.80 32.66Q89.83 33.76 90.44 34.43Q91.05 35.10 92.00 35.10L92.00 35.10Q92.67 35.10 93.13 34.83Q93.59 34.56 93.94 34.11L93.94 34.11L94.72 34.71Q93.79 36.14 91.93 36.14ZM91.77 29.51L91.77 29.51Q91.00 29.51 90.48 30.06Q89.96 30.62 89.84 31.63L89.84 31.63L93.55 31.63L93.55 31.53Q93.49 30.57 93.03 30.04Q92.56 29.51 91.77 29.51Z"/>
    </g>
</g>
</svg>