<svg xmlns="http://www.w3.org/2000/svg" version="1.1" xmlns:xlink="http://www.w3.org/1999/xlink" xmlns:svgjs="http://svgjs.dev/svgjs" width="130" height="110" viewbox="0 0 130 110"   shape-rendering="geometricPrecision">
<g id="7712a7865bf348639d0b47a524aef848" transform="translate(5, 5) ">
    <path fill="#FFFFFFFF" stroke="#323232FF" stroke-width="2"  d="M0 15L18 0L120 0L102 15L102 100L120 85L120 0M0 15L0 100L102 100L102 15L0 15Z"/>    
    <g transform="matrix(1.00, 0.00, 0.00, 1.00, 0.00, 0.00)">
        <path fill="#000000FF" stroke="#000000FF" stroke-linecap="round" stroke-linejoin="round" stroke-width="0.5"   d="M43.17 53.55L43.17 63.50L41.85 63.50L36.84 55.83L36.84 63.50L35.52 63.50L35.52 53.55L36.84 53.55L41.86 61.25L41.86 53.55L43.17 53.55ZM44.96 59.82L44.96 59.73Q44.96 58.65 45.39 57.78Q45.82 56.91 46.58 56.44Q47.34 55.97 48.32 55.97L48.32 55.97Q49.83 55.97 50.76 57.01Q51.70 58.06 51.70 59.79L51.70 59.79L51.70 59.88Q51.70 60.96 51.28 61.82Q50.87 62.68 50.10 63.16Q49.33 63.64 48.33 63.64L48.33 63.64Q46.83 63.64 45.90 62.59Q44.96 61.54 44.96 59.82L44.96 59.82ZM46.24 59.88L46.24 59.88Q46.24 61.11 46.81 61.86Q47.38 62.60 48.33 62.60L48.33 62.60Q49.30 62.60 49.87 61.85Q50.43 61.09 50.43 59.73L50.43 59.73Q50.43 58.52 49.85 57.76Q49.28 57.01 48.32 57.01L48.32 57.01Q47.38 57.01 46.81 57.75Q46.24 58.50 46.24 59.88ZM52.98 59.84L52.98 59.74Q52.98 58.04 53.78 57.00Q54.59 55.97 55.89 55.97L55.89 55.97Q57.19 55.97 57.95 56.86L57.95 56.86L57.95 53L59.22 53L59.22 63.50L58.05 63.50L57.99 62.71Q57.23 63.64 55.88 63.64L55.88 63.64Q54.60 63.64 53.79 62.58Q52.98 61.53 52.98 59.84L52.98 59.84ZM54.24 59.88L54.24 59.88Q54.24 61.14 54.76 61.85Q55.28 62.56 56.20 62.56L56.20 62.56Q57.40 62.56 57.95 61.48L57.95 61.48L57.95 58.09Q57.38 57.04 56.21 57.04L56.21 57.04Q55.28 57.04 54.76 57.76Q54.24 58.48 54.24 59.88ZM64.25 63.64L64.25 63.64Q62.74 63.64 61.80 62.65Q60.86 61.66 60.86 60.01L60.86 60.01L60.86 59.77Q60.86 58.67 61.28 57.81Q61.70 56.94 62.45 56.46Q63.21 55.97 64.09 55.97L64.09 55.97Q65.53 55.97 66.33 56.92Q67.13 57.87 67.13 59.64L67.13 59.64L67.13 60.16L62.12 60.16Q62.15 61.26 62.76 61.93Q63.37 62.60 64.32 62.60L64.32 62.60Q64.99 62.60 65.45 62.33Q65.92 62.06 66.26 61.61L66.26 61.61L67.04 62.21Q66.11 63.64 64.25 63.64ZM64.09 57.01L64.09 57.01Q63.33 57.01 62.81 57.56Q62.29 58.12 62.16 59.13L62.16 59.13L65.87 59.13L65.87 59.03Q65.81 58.07 65.35 57.54Q64.88 57.01 64.09 57.01Z"/>
    </g>
</g>
</svg>