<svg xmlns="http://www.w3.org/2000/svg" version="1.1" xmlns:xlink="http://www.w3.org/1999/xlink" xmlns:svgjs="http://svgjs.dev/svgjs" width="210" height="210" viewbox="0 0 210 210"   shape-rendering="geometricPrecision">
<g id="e7f4c9018cd84539a302b94cd7568c99" transform="translate(65, 5) ">
    <path fill="#FFFFFFFF" stroke="#323232FF" stroke-width="2"  d="M0 0L0 40L80 40L80 0L0 0Z"/> 
    <path fill="#FFFFFFFF" stroke="#323232FF" stroke-width="1" stroke-dasharray="10, 2" d="M40 40L40 200"/>   
    <g transform="matrix(1.00, 0.00, 0.00, 1.00, 0.00, 0.00)">
        <path fill="#000000FF" stroke="#000000FF" stroke-linecap="round" stroke-linejoin="round" stroke-width="0.1"   d="M28.74 20.72L28.74 21.34Q28.74 22.81 28.25 23.90Q27.76 24.99 26.85 25.56Q25.95 26.14 24.75 26.14L24.75 26.14Q23.57 26.14 22.66 25.56Q21.75 24.98 21.25 23.91Q20.75 22.84 20.74 21.43L20.74 21.43L20.74 20.72Q20.74 19.28 21.24 18.18Q21.73 17.08 22.65 16.49Q23.56 15.91 24.74 15.91L24.74 15.91Q25.93 15.91 26.84 16.49Q27.76 17.07 28.25 18.16Q28.74 19.26 28.74 20.72L28.74 20.72ZM27.44 21.44L27.44 20.70Q27.44 18.93 26.72 17.98Q26.01 17.04 24.74 17.04L24.74 17.04Q23.49 17.04 22.78 17.98Q22.06 18.93 22.04 20.61L22.04 20.61L22.04 21.34Q22.04 23.06 22.76 24.04Q23.48 25.02 24.75 25.02L24.75 25.02Q26.02 25.02 26.72 24.10Q27.42 23.17 27.44 21.44L27.44 21.44ZM36.77 22.27L36.77 22.38Q36.77 24.08 35.99 25.11Q35.21 26.14 33.90 26.14L33.90 26.14Q32.50 26.14 31.74 25.15L31.74 25.15L31.67 26L30.51 26L30.51 15.50L31.78 15.50L31.78 19.42Q32.54 18.47 33.89 18.47Q35.24 18.47 36.00 19.49Q36.77 20.50 36.77 22.27L36.77 22.27ZM35.51 22.24L35.51 22.24Q35.51 20.95 35.01 20.24Q34.51 19.54 33.57 19.54L33.57 19.54Q32.32 19.54 31.78 20.70L31.78 20.70L31.78 23.90Q32.36 25.06 33.59 25.06L33.59 25.06Q34.50 25.06 35.00 24.36Q35.51 23.66 35.51 22.24ZM38.41 18.60L39.67 18.60L39.67 26.85Q39.67 28.99 37.74 28.99L37.74 28.99Q37.32 28.99 36.96 28.86L36.96 28.86L36.96 27.85Q37.18 27.91 37.54 27.91L37.54 27.91Q37.96 27.91 38.19 27.68Q38.41 27.45 38.41 26.88L38.41 26.88L38.41 18.60ZM38.28 16.64L38.28 16.64Q38.28 16.34 38.47 16.13Q38.65 15.91 39.02 15.91L39.02 15.91Q39.38 15.91 39.58 16.12Q39.77 16.33 39.77 16.64Q39.77 16.95 39.58 17.15Q39.38 17.36 39.02 17.36Q38.65 17.36 38.46 17.15Q38.28 16.95 38.28 16.64ZM44.78 26.14L44.78 26.14Q43.27 26.14 42.33 25.15Q41.39 24.16 41.39 22.51L41.39 22.51L41.39 22.27Q41.39 21.17 41.81 20.31Q42.23 19.44 42.98 18.96Q43.74 18.47 44.62 18.47L44.62 18.47Q46.06 18.47 46.86 19.42Q47.66 20.37 47.66 22.14L47.66 22.14L47.66 22.66L42.65 22.66Q42.68 23.76 43.29 24.43Q43.90 25.10 44.85 25.10L44.85 25.10Q45.52 25.10 45.98 24.83Q46.45 24.56 46.79 24.11L46.79 24.11L47.57 24.71Q46.64 26.14 44.78 26.14ZM44.62 19.51L44.62 19.51Q43.86 19.51 43.34 20.06Q42.82 20.62 42.69 21.63L42.69 21.63L46.40 21.63L46.40 21.53Q46.34 20.57 45.88 20.04Q45.41 19.51 44.62 19.51ZM52.09 25.10L52.09 25.10Q52.77 25.10 53.28 24.69Q53.78 24.28 53.84 23.67L53.84 23.67L55.03 23.67Q55.00 24.30 54.59 24.88Q54.19 25.45 53.52 25.79Q52.84 26.14 52.09 26.14L52.09 26.14Q50.58 26.14 49.69 25.13Q48.80 24.12 48.80 22.37L48.80 22.37L48.80 22.16Q48.80 21.08 49.19 20.24Q49.59 19.40 50.33 18.93Q51.07 18.47 52.09 18.47L52.09 18.47Q53.33 18.47 54.15 19.21Q54.98 19.96 55.03 21.15L55.03 21.15L53.84 21.15Q53.78 20.43 53.29 19.97Q52.80 19.51 52.09 19.51L52.09 19.51Q51.12 19.51 50.59 20.20Q50.06 20.89 50.06 22.21L50.06 22.21L50.06 22.45Q50.06 23.72 50.59 24.41Q51.12 25.10 52.09 25.10ZM56.91 16.81L58.17 16.81L58.17 18.60L59.55 18.60L59.55 19.58L58.17 19.58L58.17 24.17Q58.17 24.61 58.35 24.83Q58.54 25.06 58.98 25.06L58.98 25.06Q59.20 25.06 59.58 24.97L59.58 24.97L59.58 26Q59.09 26.14 58.61 26.14L58.61 26.14Q57.77 26.14 57.34 25.62Q56.91 25.11 56.91 24.17L56.91 24.17L56.91 19.58L55.56 19.58L55.56 18.60L56.91 18.60L56.91 16.81Z"/>
    </g>
</g>
</svg>