<svg xmlns="http://www.w3.org/2000/svg" version="1.1" xmlns:xlink="http://www.w3.org/1999/xlink" xmlns:svgjs="http://svgjs.dev/svgjs" width="150" height="70" viewbox="0 0 150 70"   shape-rendering="geometricPrecision">
<g id="543ed55e281148bd920c675673f15f9d" transform="translate(5, 5) ">
    <path fill="#FFFFFFFF" stroke="#323232FF" stroke-width="2" d=""/>    
    <g>
        <g id="a0a660eb56344711a9642891b4da9b87" transform=" ">
            <path fill="#FFFFFFFF" stroke="#323232FF" stroke-width="1.5" d="M0 0L0 60L140 60L140 0L0 0Z"/>    
            <g transform="matrix(1.00, 0.00, 0.00, 1.00, 0.00, 0.00)">
                <path fill="#000000FF" stroke="#000000FF" stroke-linecap="round" stroke-linejoin="round" stroke-width="0.5"   d="M58.74 30.72L58.74 31.34Q58.74 32.81 58.25 33.90Q57.76 34.99 56.85 35.56Q55.95 36.14 54.75 36.14L54.75 36.14Q53.57 36.14 52.66 35.56Q51.75 34.98 51.25 33.91Q50.75 32.84 50.74 31.43L50.74 31.43L50.74 30.72Q50.74 29.28 51.24 28.18Q51.73 27.08 52.65 26.49Q53.56 25.91 54.74 25.91L54.74 25.91Q55.93 25.91 56.84 26.49Q57.76 27.07 58.25 28.16Q58.74 29.26 58.74 30.72L58.74 30.72ZM57.44 31.44L57.44 30.70Q57.44 28.93 56.72 27.98Q56.01 27.04 54.74 27.04L54.74 27.04Q53.49 27.04 52.78 27.98Q52.06 28.93 52.04 30.61L52.04 30.61L52.04 31.34Q52.04 33.06 52.76 34.04Q53.48 35.02 54.75 35.02L54.75 35.02Q56.02 35.02 56.72 34.10Q57.42 33.17 57.44 31.44L57.44 31.44ZM66.77 32.27L66.77 32.38Q66.77 34.08 65.99 35.11Q65.21 36.14 63.90 36.14L63.90 36.14Q62.50 36.14 61.74 35.15L61.74 35.15L61.67 36L60.51 36L60.51 25.50L61.78 25.50L61.78 29.42Q62.54 28.47 63.89 28.47Q65.24 28.47 66.00 29.49Q66.77 30.50 66.77 32.27L66.77 32.27ZM65.51 32.24L65.51 32.24Q65.51 30.95 65.01 30.24Q64.51 29.54 63.57 29.54L63.57 29.54Q62.32 29.54 61.78 30.70L61.78 30.70L61.78 33.90Q62.36 35.06 63.59 35.06L63.59 35.06Q64.50 35.06 65.00 34.36Q65.51 33.66 65.51 32.24ZM68.41 28.60L69.67 28.60L69.67 36.85Q69.67 38.99 67.74 38.99L67.74 38.99Q67.32 38.99 66.96 38.86L66.96 38.86L66.96 37.85Q67.18 37.91 67.54 37.91L67.54 37.91Q67.96 37.91 68.19 37.68Q68.41 37.45 68.41 36.88L68.41 36.88L68.41 28.60ZM68.28 26.64L68.28 26.64Q68.28 26.34 68.47 26.13Q68.65 25.91 69.02 25.91L69.02 25.91Q69.38 25.91 69.58 26.12Q69.77 26.33 69.77 26.64Q69.77 26.95 69.58 27.15Q69.38 27.36 69.02 27.36Q68.65 27.36 68.46 27.15Q68.28 26.95 68.28 26.64ZM74.78 36.14L74.78 36.14Q73.27 36.14 72.33 35.15Q71.39 34.16 71.39 32.51L71.39 32.51L71.39 32.27Q71.39 31.17 71.81 30.31Q72.23 29.44 72.98 28.96Q73.74 28.47 74.62 28.47L74.62 28.47Q76.06 28.47 76.86 29.42Q77.66 30.37 77.66 32.14L77.66 32.14L77.66 32.66L72.65 32.66Q72.68 33.76 73.29 34.43Q73.90 35.10 74.85 35.10L74.85 35.10Q75.52 35.10 75.98 34.83Q76.45 34.56 76.79 34.11L76.79 34.11L77.57 34.71Q76.64 36.14 74.78 36.14ZM74.62 29.51L74.62 29.51Q73.86 29.51 73.34 30.06Q72.82 30.62 72.69 31.63L72.69 31.63L76.40 31.63L76.40 31.53Q76.34 30.57 75.88 30.04Q75.41 29.51 74.62 29.51ZM82.09 35.10L82.09 35.10Q82.77 35.10 83.28 34.69Q83.78 34.28 83.84 33.67L83.84 33.67L85.03 33.67Q85.00 34.30 84.59 34.88Q84.19 35.45 83.52 35.79Q82.84 36.14 82.09 36.14L82.09 36.14Q80.58 36.14 79.69 35.13Q78.80 34.12 78.80 32.37L78.80 32.37L78.80 32.16Q78.80 31.08 79.19 30.24Q79.59 29.40 80.33 28.93Q81.07 28.47 82.09 28.47L82.09 28.47Q83.33 28.47 84.15 29.21Q84.98 29.96 85.03 31.15L85.03 31.15L83.84 31.15Q83.78 30.43 83.29 29.97Q82.80 29.51 82.09 29.51L82.09 29.51Q81.12 29.51 80.59 30.20Q80.06 30.89 80.06 32.21L80.06 32.21L80.06 32.45Q80.06 33.72 80.59 34.41Q81.12 35.10 82.09 35.10ZM86.91 26.81L88.17 26.81L88.17 28.60L89.55 28.60L89.55 29.58L88.17 29.58L88.17 34.17Q88.17 34.61 88.35 34.83Q88.54 35.06 88.98 35.06L88.98 35.06Q89.20 35.06 89.58 34.97L89.58 34.97L89.58 36Q89.09 36.14 88.61 36.14L88.61 36.14Q87.77 36.14 87.34 35.62Q86.91 35.11 86.91 34.17L86.91 34.17L86.91 29.58L85.56 29.58L85.56 28.60L86.91 28.60L86.91 26.81Z"/>
                <rect x="49.9296875" y="38" width="14.81640625" height="2" fill="#000000FF" />
                <rect x="71.890625" y="38" width="18.1796875" height="2" fill="#000000FF" />
            </g>
        </g>
    </g>
</g>
</svg>