<svg xmlns="http://www.w3.org/2000/svg" version="1.1" xmlns:xlink="http://www.w3.org/1999/xlink" xmlns:svgjs="http://svgjs.dev/svgjs" width="150" height="90" viewbox="0 0 150 90"   shape-rendering="geometricPrecision">
<g id="928e7144eeee48318f35a12b02b9ec59" transform="translate(5, 5) ">
    <path fill="#FFFFFFFF" stroke="#323232FF" stroke-width="2" d=""/>    
    <g>
        <g id="d6328c878e164cb9bb6892f6c6d6412f" transform=" ">
            <path fill="#FFFFFFFF" stroke="#323232FF" stroke-width="1.5" d="M0 0L0 50L140 50L140 0L0 0Z"/>    
            <g transform="matrix(1.00, 0.00, 0.00, 1.00, 0.00, 0.00)">
                <path fill="#000000FF" stroke="#000000FF" stroke-linecap="round" stroke-linejoin="round" stroke-width="0.5"   d="M39.76 25.72L39.76 26.34Q39.76 27.81 39.27 28.90Q38.78 29.99 37.88 30.56Q36.98 31.14 35.77 31.14L35.77 31.14Q34.60 31.14 33.69 30.56Q32.78 29.98 32.28 28.91Q31.77 27.84 31.76 26.43L31.76 26.43L31.76 25.72Q31.76 24.28 32.26 23.18Q32.76 22.08 33.67 21.49Q34.58 20.91 35.76 20.91L35.76 20.91Q36.96 20.91 37.87 21.49Q38.78 22.07 39.27 23.16Q39.76 24.26 39.76 25.72L39.76 25.72ZM38.46 26.44L38.46 25.70Q38.46 23.93 37.75 22.98Q37.04 22.04 35.76 22.04L35.76 22.04Q34.51 22.04 33.80 22.98Q33.09 23.93 33.07 25.61L33.07 25.61L33.07 26.34Q33.07 28.06 33.79 29.04Q34.51 30.02 35.77 30.02L35.77 30.02Q37.04 30.02 37.74 29.10Q38.44 28.17 38.46 26.44L38.46 26.44ZM47.80 27.27L47.80 27.38Q47.80 29.08 47.02 30.11Q46.24 31.14 44.93 31.14L44.93 31.14Q43.52 31.14 42.76 30.15L42.76 30.15L42.70 31L41.54 31L41.54 20.50L42.80 20.50L42.80 24.42Q43.57 23.47 44.91 23.47Q46.26 23.47 47.03 24.49Q47.80 25.50 47.80 27.27L47.80 27.27ZM46.53 27.24L46.53 27.24Q46.53 25.95 46.03 25.24Q45.53 24.54 44.60 24.54L44.60 24.54Q43.35 24.54 42.80 25.70L42.80 25.70L42.80 28.90Q43.38 30.06 44.61 30.06L44.61 30.06Q45.52 30.06 46.03 29.36Q46.53 28.66 46.53 27.24ZM49.43 23.60L50.70 23.60L50.70 31.85Q50.70 33.99 48.76 33.99L48.76 33.99Q48.34 33.99 47.99 33.86L47.99 33.86L47.99 32.85Q48.21 32.91 48.56 32.91L48.56 32.91Q48.99 32.91 49.21 32.68Q49.43 32.45 49.43 31.88L49.43 31.88L49.43 23.60ZM49.30 21.64L49.30 21.64Q49.30 21.34 49.49 21.13Q49.68 20.91 50.04 20.91L50.04 20.91Q50.41 20.91 50.60 21.12Q50.79 21.33 50.79 21.64Q50.79 21.95 50.60 22.15Q50.41 22.36 50.04 22.36Q49.67 22.36 49.49 22.15Q49.30 21.95 49.30 21.64ZM55.80 31.14L55.80 31.14Q54.30 31.14 53.35 30.15Q52.41 29.16 52.41 27.51L52.41 27.51L52.41 27.27Q52.41 26.17 52.83 25.31Q53.25 24.44 54.01 23.96Q54.76 23.47 55.64 23.47L55.64 23.47Q57.09 23.47 57.89 24.42Q58.69 25.37 58.69 27.14L58.69 27.14L58.69 27.66L53.68 27.66Q53.70 28.76 54.31 29.43Q54.93 30.10 55.87 30.10L55.87 30.10Q56.54 30.10 57.00 29.83Q57.47 29.56 57.82 29.11L57.82 29.11L58.59 29.71Q57.66 31.14 55.80 31.14ZM55.64 24.51L55.64 24.51Q54.88 24.51 54.36 25.06Q53.84 25.62 53.72 26.63L53.72 26.63L57.42 26.63L57.42 26.53Q57.37 25.57 56.90 25.04Q56.44 24.51 55.64 24.51ZM63.12 30.10L63.12 30.10Q63.79 30.10 64.30 29.69Q64.80 29.28 64.86 28.67L64.86 28.67L66.06 28.67Q66.02 29.30 65.62 29.88Q65.21 30.45 64.54 30.79Q63.87 31.14 63.12 31.14L63.12 31.14Q61.61 31.14 60.71 30.13Q59.82 29.12 59.82 27.37L59.82 27.37L59.82 27.16Q59.82 26.08 60.22 25.24Q60.61 24.40 61.36 23.93Q62.10 23.47 63.11 23.47L63.11 23.47Q64.35 23.47 65.18 24.21Q66.00 24.96 66.06 26.15L66.06 26.15L64.86 26.15Q64.80 25.43 64.32 24.97Q63.83 24.51 63.11 24.51L63.11 24.51Q62.15 24.51 61.62 25.20Q61.09 25.89 61.09 27.21L61.09 27.21L61.09 27.45Q61.09 28.72 61.61 29.41Q62.14 30.10 63.12 30.10ZM67.93 21.81L69.19 21.81L69.19 23.60L70.57 23.60L70.57 24.58L69.19 24.58L69.19 29.17Q69.19 29.61 69.38 29.83Q69.56 30.06 70.01 30.06L70.01 30.06Q70.23 30.06 70.61 29.97L70.61 29.97L70.61 31Q70.11 31.14 69.64 31.14L69.64 31.14Q68.79 31.14 68.36 30.62Q67.93 30.11 67.93 29.17L67.93 29.17L67.93 24.58L66.58 24.58L66.58 23.60L67.93 23.60L67.93 21.81ZM72.01 30.34L72.01 30.34Q72.01 30.01 72.20 29.79Q72.40 29.57 72.79 29.57Q73.18 29.57 73.38 29.79Q73.58 30.01 73.58 30.34L73.58 30.34Q73.58 30.65 73.38 30.86Q73.18 31.08 72.79 31.08Q72.40 31.08 72.20 30.86Q72.01 30.65 72.01 30.34ZM72.02 24.30L72.02 24.30Q72.02 23.97 72.21 23.75Q72.41 23.54 72.80 23.54Q73.19 23.54 73.39 23.75Q73.59 23.97 73.59 24.30L73.59 24.30Q73.59 24.62 73.39 24.83Q73.19 25.04 72.80 25.04Q72.41 25.04 72.21 24.83Q72.02 24.62 72.02 24.30ZM81.64 27.84L82.96 27.84Q82.78 29.42 81.80 30.28Q80.81 31.14 79.19 31.14L79.19 31.14Q77.42 31.14 76.36 29.87Q75.30 28.61 75.30 26.49L75.30 26.49L75.30 25.53Q75.30 24.14 75.79 23.09Q76.29 22.04 77.20 21.47Q78.11 20.91 79.30 20.91L79.30 20.91Q80.89 20.91 81.85 21.80Q82.80 22.68 82.96 24.25L82.96 24.25L81.64 24.25Q81.47 23.06 80.90 22.52Q80.33 21.99 79.30 21.99L79.30 21.99Q78.05 21.99 77.33 22.92Q76.62 23.85 76.62 25.57L76.62 25.57L76.62 26.53Q76.62 28.15 77.29 29.11Q77.97 30.06 79.19 30.06L79.19 30.06Q80.28 30.06 80.87 29.57Q81.45 29.07 81.64 27.84L81.64 27.84ZM85.93 20.50L85.93 31L84.66 31L84.66 20.50L85.93 20.50ZM93.84 31L92.52 31Q92.41 30.78 92.34 30.22L92.34 30.22Q91.46 31.14 90.23 31.14L90.23 31.14Q89.14 31.14 88.44 30.52Q87.74 29.90 87.74 28.95L87.74 28.95Q87.74 27.79 88.62 27.15Q89.50 26.52 91.09 26.52L91.09 26.52L92.32 26.52L92.32 25.93Q92.32 25.27 91.92 24.88Q91.53 24.49 90.75 24.49L90.75 24.49Q90.08 24.49 89.62 24.83Q89.16 25.17 89.16 25.65L89.16 25.65L87.89 25.65Q87.89 25.10 88.28 24.58Q88.68 24.07 89.35 23.77Q90.02 23.47 90.83 23.47L90.83 23.47Q92.11 23.47 92.83 24.11Q93.56 24.75 93.58 25.87L93.58 25.87L93.58 29.27Q93.58 30.29 93.84 30.89L93.84 30.89L93.84 31ZM90.42 30.04L90.42 30.04Q91.01 30.04 91.55 29.73Q92.08 29.42 92.32 28.93L92.32 28.93L92.32 27.41L91.33 27.41Q89.00 27.41 89.00 28.77L89.00 28.77Q89.00 29.37 89.40 29.70Q89.80 30.04 90.42 30.04ZM99.87 29.04L99.87 29.04Q99.87 28.53 99.49 28.24Q99.10 27.96 98.14 27.75Q97.18 27.55 96.62 27.26Q96.05 26.97 95.78 26.58Q95.51 26.18 95.51 25.63L95.51 25.63Q95.51 24.72 96.28 24.10Q97.05 23.47 98.25 23.47L98.25 23.47Q99.50 23.47 100.29 24.12Q101.07 24.77 101.07 25.78L101.07 25.78L99.80 25.78Q99.80 25.26 99.36 24.88Q98.92 24.51 98.25 24.51L98.25 24.51Q97.56 24.51 97.17 24.81Q96.78 25.11 96.78 25.59L96.78 25.59Q96.78 26.05 97.14 26.28Q97.50 26.52 98.45 26.73Q99.39 26.94 99.98 27.23Q100.57 27.53 100.85 27.94Q101.14 28.35 101.14 28.95L101.14 28.95Q101.14 29.94 100.34 30.54Q99.55 31.14 98.29 31.14L98.29 31.14Q97.40 31.14 96.71 30.82Q96.03 30.51 95.65 29.94Q95.26 29.38 95.26 28.72L95.26 28.72L96.52 28.72Q96.56 29.36 97.03 29.73Q97.51 30.10 98.29 30.10L98.29 30.10Q99.00 30.10 99.44 29.81Q99.87 29.52 99.87 29.04ZM107.09 29.04L107.09 29.04Q107.09 28.53 106.71 28.24Q106.32 27.96 105.36 27.75Q104.40 27.55 103.83 27.26Q103.27 26.97 103.00 26.58Q102.73 26.18 102.73 25.63L102.73 25.63Q102.73 24.72 103.50 24.10Q104.27 23.47 105.46 23.47L105.46 23.47Q106.72 23.47 107.51 24.12Q108.29 24.77 108.29 25.78L108.29 25.78L107.02 25.78Q107.02 25.26 106.58 24.88Q106.13 24.51 105.46 24.51L105.46 24.51Q104.77 24.51 104.38 24.81Q104.00 25.11 104.00 25.59L104.00 25.59Q104.00 26.05 104.36 26.28Q104.72 26.52 105.67 26.73Q106.61 26.94 107.20 27.23Q107.79 27.53 108.07 27.94Q108.36 28.35 108.36 28.95L108.36 28.95Q108.36 29.94 107.56 30.54Q106.77 31.14 105.51 31.14L105.51 31.14Q104.62 31.14 103.93 30.82Q103.25 30.51 102.86 29.94Q102.48 29.38 102.48 28.72L102.48 28.72L103.74 28.72Q103.78 29.36 104.25 29.73Q104.73 30.10 105.51 30.10L105.51 30.10Q106.22 30.10 106.66 29.81Q107.09 29.52 107.09 29.04Z"/>
                <rect x="30.953125" y="33" width="14.81640625" height="2" fill="#000000FF" />
                <rect x="52.9140625" y="33" width="56.1328125" height="2" fill="#000000FF" />
            </g>
        </g>
        <g id="641d2b38498a4316a9775cff3d709545" transform="translate(0, 50) ">
            <path fill="#FFFFFFFF" stroke="#323232FF" stroke-width="1.5" d="M0 0L0 30L140 30L140 0L0 0Z"/>    
        </g>
    </g>
</g>
</svg>