<svg xmlns="http://www.w3.org/2000/svg" version="1.1" xmlns:xlink="http://www.w3.org/1999/xlink" xmlns:svgjs="http://svgjs.dev/svgjs" width="130" height="110" viewbox="0 0 130 110"   shape-rendering="geometricPrecision">
<g id="e61a26d4bfcf4bd895a7065e51506b28" transform="translate(5, 5) ">
    <path fill="#FFFFFFFF" stroke="#323232FF" stroke-width="2" d=""/>    
    <g>
        <g id="a5500e8b18244ab592b4bb7c1aa489ee" transform=" ">
            <path fill="#FFFFFFFF" stroke="#323232FF" stroke-width="1.5" d="M0 0L0 32L90 32L90 0L0 0Z"/>    
        </g>
        <g id="710ebdbd80034706a16d26823d95b5dd" transform="translate(0, 32) ">
            <path fill="#FFFFFFFF" stroke="#323232FF" stroke-width="1.5" d="M0 0L0 68L120 68L120 0L0 0Z"/>    
            <g transform="matrix(1.00, 0.00, 0.00, 1.00, 0.00, 0.00)">
                <path fill="#000000FF" stroke="#000000FF" stroke-linecap="round" stroke-linejoin="round" stroke-width="0.5"   d="M37.97 11.10L35.63 11.10L35.63 15L34.31 15L34.31 5.05L37.98 5.05Q39.62 5.05 40.54 5.88Q41.47 6.71 41.47 8.09L41.47 8.09Q41.47 9.54 40.57 10.32Q39.66 11.10 37.97 11.10L37.97 11.10ZM35.63 6.13L35.63 10.03L37.98 10.03Q39.04 10.03 39.60 9.53Q40.16 9.04 40.16 8.10L40.16 8.10Q40.16 7.21 39.60 6.68Q39.04 6.15 38.06 6.13L38.06 6.13L35.63 6.13ZM48.77 15L47.44 15Q47.33 14.78 47.26 14.22L47.26 14.22Q46.38 15.14 45.16 15.14L45.16 15.14Q44.06 15.14 43.36 14.52Q42.66 13.90 42.66 12.95L42.66 12.95Q42.66 11.79 43.54 11.15Q44.42 10.52 46.01 10.52L46.01 10.52L47.24 10.52L47.24 9.93Q47.24 9.27 46.84 8.88Q46.45 8.49 45.68 8.49L45.68 8.49Q45.00 8.49 44.54 8.83Q44.08 9.17 44.08 9.65L44.08 9.65L42.81 9.65Q42.81 9.10 43.20 8.58Q43.60 8.07 44.27 7.77Q44.94 7.47 45.75 7.47L45.75 7.47Q47.03 7.47 47.75 8.11Q48.48 8.75 48.51 9.87L48.51 9.87L48.51 13.27Q48.51 14.29 48.77 14.89L48.77 14.89L48.77 15ZM45.34 14.04L45.34 14.04Q45.94 14.04 46.47 13.73Q47.00 13.42 47.24 12.93L47.24 12.93L47.24 11.41L46.25 11.41Q43.93 11.41 43.93 12.77L43.93 12.77Q43.93 13.37 44.32 13.70Q44.72 14.04 45.34 14.04ZM53.45 14.10L53.45 14.10Q54.13 14.10 54.64 13.69Q55.14 13.28 55.20 12.67L55.20 12.67L56.39 12.67Q56.36 13.30 55.96 13.88Q55.55 14.45 54.88 14.79Q54.21 15.14 53.45 15.14L53.45 15.14Q51.94 15.14 51.05 14.13Q50.16 13.12 50.16 11.37L50.16 11.37L50.16 11.16Q50.16 10.08 50.56 9.24Q50.95 8.40 51.69 7.93Q52.44 7.47 53.45 7.47L53.45 7.47Q54.69 7.47 55.52 8.21Q56.34 8.96 56.39 10.15L56.39 10.15L55.20 10.15Q55.14 9.43 54.65 8.97Q54.17 8.51 53.45 8.51L53.45 8.51Q52.48 8.51 51.95 9.20Q51.42 9.89 51.42 11.21L51.42 11.21L51.42 11.45Q51.42 12.72 51.95 13.41Q52.48 14.10 53.45 14.10ZM62.46 15L59.88 11.58L59.09 12.40L59.09 15L57.82 15L57.82 4.50L59.09 4.50L59.09 10.85L59.76 10.04L62.07 7.60L63.61 7.60L60.73 10.69L63.94 15L62.46 15ZM70.80 15L69.48 15Q69.37 14.78 69.30 14.22L69.30 14.22Q68.42 15.14 67.19 15.14L67.19 15.14Q66.10 15.14 65.40 14.52Q64.70 13.90 64.70 12.95L64.70 12.95Q64.70 11.79 65.58 11.15Q66.46 10.52 68.05 10.52L68.05 10.52L69.28 10.52L69.28 9.93Q69.28 9.27 68.88 8.88Q68.49 8.49 67.71 8.49L67.71 8.49Q67.04 8.49 66.58 8.83Q66.12 9.17 66.12 9.65L66.12 9.65L64.85 9.65Q64.85 9.10 65.24 8.58Q65.64 8.07 66.31 7.77Q66.98 7.47 67.79 7.47L67.79 7.47Q69.07 7.47 69.79 8.11Q70.52 8.75 70.54 9.87L70.54 9.87L70.54 13.27Q70.54 14.29 70.80 14.89L70.80 14.89L70.80 15ZM67.38 14.04L67.38 14.04Q67.97 14.04 68.51 13.73Q69.04 13.42 69.28 12.93L69.28 12.93L69.28 11.41L68.29 11.41Q65.96 11.41 65.96 12.77L65.96 12.77Q65.96 13.37 66.36 13.70Q66.76 14.04 67.38 14.04ZM72.23 11.24L72.23 11.24Q72.23 9.51 73.03 8.49Q73.83 7.47 75.15 7.47L75.15 7.47Q76.50 7.47 77.26 8.42L77.26 8.42L77.32 7.60L78.47 7.60L78.47 14.82Q78.47 16.26 77.62 17.08Q76.77 17.91 75.34 17.91L75.34 17.91Q74.54 17.91 73.77 17.57Q73.01 17.23 72.60 16.63L72.60 16.63L73.26 15.88Q74.07 16.88 75.25 16.88L75.25 16.88Q76.17 16.88 76.69 16.36Q77.20 15.84 77.20 14.90L77.20 14.90L77.20 14.26Q76.44 15.14 75.13 15.14L75.13 15.14Q73.83 15.14 73.03 14.09Q72.23 13.04 72.23 11.24ZM73.50 11.38L73.50 11.38Q73.50 12.63 74.01 13.35Q74.52 14.06 75.45 14.06L75.45 14.06Q76.64 14.06 77.20 12.98L77.20 12.98L77.20 9.60Q76.62 8.54 75.46 8.54L75.46 8.54Q74.54 8.54 74.02 9.26Q73.50 9.98 73.50 11.38ZM83.45 15.14L83.45 15.14Q81.95 15.14 81.00 14.15Q80.06 13.16 80.06 11.51L80.06 11.51L80.06 11.27Q80.06 10.17 80.48 9.31Q80.90 8.44 81.66 7.96Q82.41 7.47 83.29 7.47L83.29 7.47Q84.74 7.47 85.54 8.42Q86.34 9.37 86.34 11.14L86.34 11.14L86.34 11.66L81.32 11.66Q81.35 12.76 81.96 13.43Q82.58 14.10 83.52 14.10L83.52 14.10Q84.19 14.10 84.65 13.83Q85.12 13.56 85.47 13.11L85.47 13.11L86.24 13.71Q85.31 15.14 83.45 15.14ZM83.29 8.51L83.29 8.51Q82.53 8.51 82.01 9.06Q81.49 9.62 81.37 10.63L81.37 10.63L85.07 10.63L85.07 10.53Q85.02 9.57 84.55 9.04Q84.09 8.51 83.29 8.51Z"/>
            </g>
        </g>
    </g>
</g>
</svg>