<svg xmlns="http://www.w3.org/2000/svg" version="1.1" xmlns:xlink="http://www.w3.org/1999/xlink" xmlns:svgjs="http://svgjs.dev/svgjs" width="130" height="110" viewbox="0 0 130 110"   shape-rendering="geometricPrecision">
<g id="3e23c78fbdaf4ca08c24636a807bede8" transform="translate(5, 5) ">
    <path fill="#FFFFFFFF" stroke="#323232FF" stroke-width="2" d=""/>    
    <g>
        <g id="923b036b16fa4bd7a03e8d9f68489ff8" transform=" ">
            <path fill="#FFFFFFFF" stroke="#323232FF" stroke-width="1.5" d="M0 0L0 32L90 32L90 0L0 0Z"/>    
            <g transform="matrix(1.00, 0.00, 0.00, 1.00, 0.00, 0.00)">
                <path fill="#000000FF" stroke="#000000FF" stroke-linecap="round" stroke-linejoin="round" stroke-width="0.5"   d="M22.97 18.10L20.63 18.10L20.63 22L19.31 22L19.31 12.05L22.98 12.05Q24.62 12.05 25.54 12.88Q26.47 13.71 26.47 15.09L26.47 15.09Q26.47 16.54 25.57 17.32Q24.66 18.10 22.97 18.10L22.97 18.10ZM20.63 13.13L20.63 17.03L22.98 17.03Q24.04 17.03 24.60 16.53Q25.16 16.04 25.16 15.10L25.16 15.10Q25.16 14.21 24.60 13.68Q24.04 13.15 23.06 13.13L23.06 13.13L20.63 13.13ZM33.77 22L32.44 22Q32.33 21.78 32.26 21.22L32.26 21.22Q31.38 22.14 30.16 22.14L30.16 22.14Q29.06 22.14 28.36 21.52Q27.66 20.90 27.66 19.95L27.66 19.95Q27.66 18.79 28.54 18.15Q29.42 17.52 31.01 17.52L31.01 17.52L32.24 17.52L32.24 16.93Q32.24 16.27 31.84 15.88Q31.45 15.49 30.68 15.49L30.68 15.49Q30.00 15.49 29.54 15.83Q29.08 16.17 29.08 16.65L29.08 16.65L27.81 16.65Q27.81 16.10 28.20 15.58Q28.60 15.07 29.27 14.77Q29.94 14.47 30.75 14.47L30.75 14.47Q32.03 14.47 32.75 15.11Q33.48 15.75 33.51 16.87L33.51 16.87L33.51 20.27Q33.51 21.29 33.77 21.89L33.77 21.89L33.77 22ZM30.34 21.04L30.34 21.04Q30.94 21.04 31.47 20.73Q32.00 20.42 32.24 19.93L32.24 19.93L32.24 18.41L31.25 18.41Q28.93 18.41 28.93 19.77L28.93 19.77Q28.93 20.37 29.32 20.70Q29.72 21.04 30.34 21.04ZM38.45 21.10L38.45 21.10Q39.13 21.10 39.64 20.69Q40.14 20.28 40.20 19.67L40.20 19.67L41.39 19.67Q41.36 20.30 40.96 20.88Q40.55 21.45 39.88 21.79Q39.21 22.14 38.45 22.14L38.45 22.14Q36.94 22.14 36.05 21.13Q35.16 20.12 35.16 18.37L35.16 18.37L35.16 18.16Q35.16 17.08 35.56 16.24Q35.95 15.40 36.69 14.93Q37.44 14.47 38.45 14.47L38.45 14.47Q39.69 14.47 40.52 15.21Q41.34 15.96 41.39 17.15L41.39 17.15L40.20 17.15Q40.14 16.43 39.65 15.97Q39.17 15.51 38.45 15.51L38.45 15.51Q37.48 15.51 36.95 16.20Q36.42 16.89 36.42 18.21L36.42 18.21L36.42 18.45Q36.42 19.72 36.95 20.41Q37.48 21.10 38.45 21.10ZM47.46 22L44.88 18.58L44.09 19.40L44.09 22L42.82 22L42.82 11.50L44.09 11.50L44.09 17.85L44.76 17.04L47.07 14.60L48.61 14.60L45.73 17.69L48.94 22L47.46 22ZM55.80 22L54.48 22Q54.37 21.78 54.30 21.22L54.30 21.22Q53.42 22.14 52.19 22.14L52.19 22.14Q51.10 22.14 50.40 21.52Q49.70 20.90 49.70 19.95L49.70 19.95Q49.70 18.79 50.58 18.15Q51.46 17.52 53.05 17.52L53.05 17.52L54.28 17.52L54.28 16.93Q54.28 16.27 53.88 15.88Q53.49 15.49 52.71 15.49L52.71 15.49Q52.04 15.49 51.58 15.83Q51.12 16.17 51.12 16.65L51.12 16.65L49.85 16.65Q49.85 16.10 50.24 15.58Q50.64 15.07 51.31 14.77Q51.98 14.47 52.79 14.47L52.79 14.47Q54.07 14.47 54.79 15.11Q55.52 15.75 55.54 16.87L55.54 16.87L55.54 20.27Q55.54 21.29 55.80 21.89L55.80 21.89L55.80 22ZM52.38 21.04L52.38 21.04Q52.97 21.04 53.51 20.73Q54.04 20.42 54.28 19.93L54.28 19.93L54.28 18.41L53.29 18.41Q50.96 18.41 50.96 19.77L50.96 19.77Q50.96 20.37 51.36 20.70Q51.76 21.04 52.38 21.04ZM57.23 18.24L57.23 18.24Q57.23 16.51 58.03 15.49Q58.83 14.47 60.15 14.47L60.15 14.47Q61.50 14.47 62.26 15.42L62.26 15.42L62.32 14.60L63.47 14.60L63.47 21.82Q63.47 23.26 62.62 24.08Q61.77 24.91 60.34 24.91L60.34 24.91Q59.54 24.91 58.77 24.57Q58.01 24.23 57.60 23.63L57.60 23.63L58.26 22.88Q59.07 23.88 60.25 23.88L60.25 23.88Q61.17 23.88 61.69 23.36Q62.20 22.84 62.20 21.90L62.20 21.90L62.20 21.26Q61.44 22.14 60.13 22.14L60.13 22.14Q58.83 22.14 58.03 21.09Q57.23 20.04 57.23 18.24ZM58.50 18.38L58.50 18.38Q58.50 19.63 59.01 20.35Q59.52 21.06 60.45 21.06L60.45 21.06Q61.64 21.06 62.20 19.98L62.20 19.98L62.20 16.60Q61.62 15.54 60.46 15.54L60.46 15.54Q59.54 15.54 59.02 16.26Q58.50 16.98 58.50 18.38ZM68.45 22.14L68.45 22.14Q66.95 22.14 66.00 21.15Q65.06 20.16 65.06 18.51L65.06 18.51L65.06 18.27Q65.06 17.17 65.48 16.31Q65.90 15.44 66.66 14.96Q67.41 14.47 68.29 14.47L68.29 14.47Q69.74 14.47 70.54 15.42Q71.34 16.37 71.34 18.14L71.34 18.14L71.34 18.66L66.32 18.66Q66.35 19.76 66.96 20.43Q67.58 21.10 68.52 21.10L68.52 21.10Q69.19 21.10 69.65 20.83Q70.12 20.56 70.47 20.11L70.47 20.11L71.24 20.71Q70.31 22.14 68.45 22.14ZM68.29 15.51L68.29 15.51Q67.53 15.51 67.01 16.06Q66.49 16.62 66.37 17.63L66.37 17.63L70.07 17.63L70.07 17.53Q70.02 16.57 69.55 16.04Q69.09 15.51 68.29 15.51Z"/>
            </g>
        </g>
        <g id="113f9b3134ce4fc185e855f55a34b796" transform="translate(0, 32) ">
            <path fill="#FFFFFFFF" stroke="#323232FF" stroke-width="1.5" d="M0 0L0 68L120 68L120 0L0 0Z"/>    
        </g>
    </g>
</g>
</svg>