<svg xmlns="http://www.w3.org/2000/svg" version="1.1" xmlns:xlink="http://www.w3.org/1999/xlink" xmlns:svgjs="http://svgjs.dev/svgjs" width="130" height="110" viewbox="0 0 130 110"   shape-rendering="geometricPrecision">
<g id="a0886f43ebdf43dcb14c0c6326d196df" transform="translate(5, 5) ">
    <path fill="#FFFFFFFF" stroke="#323232FF" stroke-width="2" d=""/>    
    <g>
        <g id="7f18313a163340dca7aca3d07d493289" transform=" ">
            <path fill="#FFFFFFFF" stroke="#323232FF" stroke-width="1.5" d="M0 0L0 32L90 32L90 0L0 0Z"/>    
            <g transform="matrix(1.00, 0.00, 0.00, 1.00, 0.00, 0.00)">
                <path fill="#000000FF" stroke="#000000FF" stroke-linecap="round" stroke-linejoin="round" stroke-width="0.5"   d="M22.97 18.10L20.63 18.10L20.63 22L19.31 22L19.31 12.05L22.98 12.05Q24.62 12.05 25.54 12.88Q26.47 13.71 26.47 15.09L26.47 15.09Q26.47 16.54 25.57 17.32Q24.66 18.10 22.97 18.10L22.97 18.10ZM20.63 13.13L20.63 17.03L22.98 17.03Q24.04 17.03 24.60 16.53Q25.16 16.04 25.16 15.10L25.16 15.10Q25.16 14.21 24.60 13.68Q24.04 13.15 23.06 13.13L23.06 13.13L20.63 13.13ZM33.77 22L32.44 22Q32.33 21.78 32.26 21.22L32.26 21.22Q31.38 22.14 30.16 22.14L30.16 22.14Q29.06 22.14 28.36 21.52Q27.66 20.90 27.66 19.95L27.66 19.95Q27.66 18.79 28.54 18.15Q29.42 17.52 31.01 17.52L31.01 17.52L32.24 17.52L32.24 16.93Q32.24 16.27 31.84 15.88Q31.45 15.49 30.68 15.49L30.68 15.49Q30.00 15.49 29.54 15.83Q29.08 16.17 29.08 16.65L29.08 16.65L27.81 16.65Q27.81 16.10 28.20 15.58Q28.60 15.07 29.27 14.77Q29.94 14.47 30.75 14.47L30.75 14.47Q32.03 14.47 32.75 15.11Q33.48 15.75 33.51 16.87L33.51 16.87L33.51 20.27Q33.51 21.29 33.77 21.89L33.77 21.89L33.77 22ZM30.34 21.04L30.34 21.04Q30.94 21.04 31.47 20.73Q32.00 20.42 32.24 19.93L32.24 19.93L32.24 18.41L31.25 18.41Q28.93 18.41 28.93 19.77L28.93 19.77Q28.93 20.37 29.32 20.70Q29.72 21.04 30.34 21.04ZM38.45 21.10L38.45 21.10Q39.13 21.10 39.64 20.69Q40.14 20.28 40.20 19.67L40.20 19.67L41.39 19.67Q41.36 20.30 40.96 20.88Q40.55 21.45 39.88 21.79Q39.21 22.14 38.45 22.14L38.45 22.14Q36.94 22.14 36.05 21.13Q35.16 20.12 35.16 18.37L35.16 18.37L35.16 18.16Q35.16 17.08 35.56 16.24Q35.95 15.40 36.69 14.93Q37.44 14.47 38.45 14.47L38.45 14.47Q39.69 14.47 40.52 15.21Q41.34 15.96 41.39 17.15L41.39 17.15L40.20 17.15Q40.14 16.43 39.65 15.97Q39.17 15.51 38.45 15.51L38.45 15.51Q37.48 15.51 36.95 16.20Q36.42 16.89 36.42 18.21L36.42 18.21L36.42 18.45Q36.42 19.72 36.95 20.41Q37.48 21.10 38.45 21.10ZM47.46 22L44.88 18.58L44.09 19.40L44.09 22L42.82 22L42.82 11.50L44.09 11.50L44.09 17.85L44.76 17.04L47.07 14.60L48.61 14.60L45.73 17.69L48.94 22L47.46 22ZM55.80 22L54.48 22Q54.37 21.78 54.30 21.22L54.30 21.22Q53.42 22.14 52.19 22.14L52.19 22.14Q51.10 22.14 50.40 21.52Q49.70 20.90 49.70 19.95L49.70 19.95Q49.70 18.79 50.58 18.15Q51.46 17.52 53.05 17.52L53.05 17.52L54.28 17.52L54.28 16.93Q54.28 16.27 53.88 15.88Q53.49 15.49 52.71 15.49L52.71 15.49Q52.04 15.49 51.58 15.83Q51.12 16.17 51.12 16.65L51.12 16.65L49.85 16.65Q49.85 16.10 50.24 15.58Q50.64 15.07 51.31 14.77Q51.98 14.47 52.79 14.47L52.79 14.47Q54.07 14.47 54.79 15.11Q55.52 15.75 55.54 16.87L55.54 16.87L55.54 20.27Q55.54 21.29 55.80 21.89L55.80 21.89L55.80 22ZM52.38 21.04L52.38 21.04Q52.97 21.04 53.51 20.73Q54.04 20.42 54.28 19.93L54.28 19.93L54.28 18.41L53.29 18.41Q50.96 18.41 50.96 19.77L50.96 19.77Q50.96 20.37 51.36 20.70Q51.76 21.04 52.38 21.04ZM57.23 18.24L57.23 18.24Q57.23 16.51 58.03 15.49Q58.83 14.47 60.15 14.47L60.15 14.47Q61.50 14.47 62.26 15.42L62.26 15.42L62.32 14.60L63.47 14.60L63.47 21.82Q63.47 23.26 62.62 24.08Q61.77 24.91 60.34 24.91L60.34 24.91Q59.54 24.91 58.77 24.57Q58.01 24.23 57.60 23.63L57.60 23.63L58.26 22.88Q59.07 23.88 60.25 23.88L60.25 23.88Q61.17 23.88 61.69 23.36Q62.20 22.84 62.20 21.90L62.20 21.90L62.20 21.26Q61.44 22.14 60.13 22.14L60.13 22.14Q58.83 22.14 58.03 21.09Q57.23 20.04 57.23 18.24ZM58.50 18.38L58.50 18.38Q58.50 19.63 59.01 20.35Q59.52 21.06 60.45 21.06L60.45 21.06Q61.64 21.06 62.20 19.98L62.20 19.98L62.20 16.60Q61.62 15.54 60.46 15.54L60.46 15.54Q59.54 15.54 59.02 16.26Q58.50 16.98 58.50 18.38ZM68.45 22.14L68.45 22.14Q66.95 22.14 66.00 21.15Q65.06 20.16 65.06 18.51L65.06 18.51L65.06 18.27Q65.06 17.17 65.48 16.31Q65.90 15.44 66.66 14.96Q67.41 14.47 68.29 14.47L68.29 14.47Q69.74 14.47 70.54 15.42Q71.34 16.37 71.34 18.14L71.34 18.14L71.34 18.66L66.32 18.66Q66.35 19.76 66.96 20.43Q67.58 21.10 68.52 21.10L68.52 21.10Q69.19 21.10 69.65 20.83Q70.12 20.56 70.47 20.11L70.47 20.11L71.24 20.71Q70.31 22.14 68.45 22.14ZM68.29 15.51L68.29 15.51Q67.53 15.51 67.01 16.06Q66.49 16.62 66.37 17.63L66.37 17.63L70.07 17.63L70.07 17.53Q70.02 16.57 69.55 16.04Q69.09 15.51 68.29 15.51Z"/>
            </g>
        </g>
        <g id="a31c06313d904bbb818c5c17ad6dd72d" transform="translate(0, 32) ">
            <path fill="#FFFFFFFF" stroke="#323232FF" stroke-width="1.5" d="M0 0L0 68L120 68L120 0L0 0Z"/>    
            <g transform="matrix(1.00, 0.00, 0.00, 1.00, 0.00, 0.00)">
                <path fill="#000000FF" stroke="#000000FF" stroke-linecap="round" stroke-linejoin="round" stroke-width="0.1"   d="M11.60 15L10.65 12.40L6.48 12.40L5.54 15L4.19 15L7.99 5.05L9.14 5.05L12.95 15L11.60 15ZM8.57 6.67L6.88 11.32L10.26 11.32L8.57 6.67ZM14.42 5.81L15.69 5.81L15.69 7.60L17.07 7.60L17.07 8.58L15.69 8.58L15.69 13.17Q15.69 13.61 15.87 13.83Q16.06 14.06 16.50 14.06L16.50 14.06Q16.72 14.06 17.10 13.97L17.10 13.97L17.10 15Q16.61 15.14 16.13 15.14L16.13 15.14Q15.29 15.14 14.86 14.62Q14.42 14.11 14.42 13.17L14.42 13.17L14.42 8.58L13.08 8.58L13.08 7.60L14.42 7.60L14.42 5.81ZM19.00 5.81L20.26 5.81L20.26 7.60L21.64 7.60L21.64 8.58L20.26 8.58L20.26 13.17Q20.26 13.61 20.45 13.83Q20.63 14.06 21.08 14.06L21.08 14.06Q21.29 14.06 21.68 13.97L21.68 13.97L21.68 15Q21.18 15.14 20.71 15.14L20.71 15.14Q19.86 15.14 19.43 14.62Q19.00 14.11 19.00 13.17L19.00 13.17L19.00 8.58L17.65 8.58L17.65 7.60L19.00 7.60L19.00 5.81ZM26.70 7.56L26.70 8.74Q26.41 8.69 26.07 8.69L26.07 8.69Q24.83 8.69 24.38 9.75L24.38 9.75L24.38 15L23.12 15L23.12 7.60L24.35 7.60L24.37 8.46Q24.99 7.47 26.13 7.47L26.13 7.47Q26.50 7.47 26.70 7.56L26.70 7.56ZM29.23 7.60L29.23 15L27.97 15L27.97 7.60L29.23 7.60ZM27.86 5.64L27.86 5.64Q27.86 5.33 28.05 5.12Q28.24 4.91 28.61 4.91Q28.98 4.91 29.17 5.12Q29.36 5.33 29.36 5.64Q29.36 5.95 29.17 6.15Q28.98 6.36 28.61 6.36Q28.24 6.36 28.05 6.15Q27.86 5.95 27.86 5.64ZM37.52 11.27L37.52 11.38Q37.52 13.08 36.74 14.11Q35.96 15.14 34.65 15.14L34.65 15.14Q33.24 15.14 32.48 14.15L32.48 14.15L32.42 15L31.25 15L31.25 4.50L32.52 4.50L32.52 8.42Q33.29 7.47 34.63 7.47Q35.98 7.47 36.75 8.49Q37.52 9.50 37.52 11.27L37.52 11.27ZM36.25 11.24L36.25 11.24Q36.25 9.95 35.75 9.24Q35.25 8.54 34.32 8.54L34.32 8.54Q33.07 8.54 32.52 9.70L32.52 9.70L32.52 12.90Q33.10 14.06 34.33 14.06L34.33 14.06Q35.24 14.06 35.75 13.36Q36.25 12.66 36.25 11.24ZM43.70 15L43.68 14.27Q42.94 15.14 41.51 15.14L41.51 15.14Q40.33 15.14 39.71 14.45Q39.09 13.76 39.08 12.42L39.08 12.42L39.08 7.60L40.35 7.60L40.35 12.38Q40.35 14.06 41.71 14.06L41.71 14.06Q43.16 14.06 43.64 12.98L43.64 12.98L43.64 7.60L44.91 7.60L44.91 15L43.70 15ZM47.28 5.81L48.54 5.81L48.54 7.60L49.92 7.60L49.92 8.58L48.54 8.58L48.54 13.17Q48.54 13.61 48.73 13.83Q48.91 14.06 49.36 14.06L49.36 14.06Q49.58 14.06 49.96 13.97L49.96 13.97L49.96 15Q49.46 15.14 48.99 15.14L48.99 15.14Q48.14 15.14 47.71 14.62Q47.28 14.11 47.28 13.17L47.28 13.17L47.28 8.58L45.93 8.58L45.93 7.60L47.28 7.60L47.28 5.81ZM54.47 15.14L54.47 15.14Q52.97 15.14 52.02 14.15Q51.08 13.16 51.08 11.51L51.08 11.51L51.08 11.27Q51.08 10.17 51.50 9.31Q51.92 8.44 52.68 7.96Q53.43 7.47 54.31 7.47L54.31 7.47Q55.75 7.47 56.55 8.42Q57.35 9.37 57.35 11.14L57.35 11.14L57.35 11.66L52.34 11.66Q52.37 12.76 52.98 13.43Q53.59 14.10 54.54 14.10L54.54 14.10Q55.21 14.10 55.67 13.83Q56.14 13.56 56.49 13.11L56.49 13.11L57.26 13.71Q56.33 15.14 54.47 15.14ZM54.31 8.51L54.31 8.51Q53.55 8.51 53.03 9.06Q52.51 9.62 52.38 10.63L52.38 10.63L56.09 10.63L56.09 10.53Q56.04 9.57 55.57 9.04Q55.11 8.51 54.31 8.51ZM63.12 13.04L63.12 13.04Q63.12 12.53 62.74 12.24Q62.35 11.96 61.39 11.75Q60.43 11.55 59.87 11.26Q59.30 10.97 59.03 10.58Q58.76 10.18 58.76 9.63L58.76 9.63Q58.76 8.72 59.53 8.10Q60.30 7.47 61.50 7.47L61.50 7.47Q62.75 7.47 63.54 8.12Q64.32 8.77 64.32 9.78L64.32 9.78L63.05 9.78Q63.05 9.26 62.61 8.88Q62.17 8.51 61.50 8.51L61.50 8.51Q60.81 8.51 60.42 8.81Q60.03 9.11 60.03 9.59L60.03 9.59Q60.03 10.05 60.39 10.28Q60.75 10.52 61.70 10.73Q62.65 10.94 63.23 11.23Q63.82 11.53 64.10 11.94Q64.39 12.35 64.39 12.95L64.39 12.95Q64.39 13.94 63.60 14.54Q62.80 15.14 61.54 15.14L61.54 15.14Q60.65 15.14 59.97 14.82Q59.28 14.51 58.90 13.94Q58.51 13.38 58.51 12.72L58.51 12.72L59.77 12.72Q59.81 13.36 60.28 13.73Q60.76 14.10 61.54 14.10L61.54 14.10Q62.26 14.10 62.69 13.81Q63.12 13.52 63.12 13.04Z"/>
            </g>
        </g>
    </g>
</g>
</svg>