<svg xmlns="http://www.w3.org/2000/svg" version="1.1" xmlns:xlink="http://www.w3.org/1999/xlink" xmlns:svgjs="http://svgjs.dev/svgjs" width="130" height="70" viewbox="0 0 130 70"   shape-rendering="geometricPrecision">
<g id="6de30f2de8694b38b113a883558f3ed0" transform="translate(5, 5) ">
    <path fill="#FFFFFFFF" stroke="#323232FF" stroke-width="2" d="M60 0Q58.5271 0 57.0559 0.0361363Q55.5848 0.0722726 54.119 0.144458Q52.6531 0.216644 51.1962 0.324705Q49.7392 0.432766 48.2946 0.576441Q46.85 0.720117 45.4212 0.899062Q43.9924 1.07801 42.5829 1.29179Q41.1734 1.50557 39.7866 1.75368Q38.3998 2.00178 37.039 2.28361Q35.6782 2.56544 34.3467 2.88032Q33.0152 3.1952 31.7162 3.54236Q30.4172 3.88953 29.1538 4.26814Q27.8905 4.64676 26.6658 5.05591Q25.4411 5.46507 24.258 5.90377Q23.075 6.34248 21.9364 6.80969Q20.7978 7.27689 19.7065 7.77147Q18.6151 8.26604 17.5736 8.7868Q16.5321 9.30755 15.5429 9.85323Q14.5538 10.3989 13.6194 10.9682Q12.685 11.5375 11.8075 12.129Q10.9301 12.7205 10.1118 13.3329Q9.29351 13.9452 8.53628 14.5769Q7.77905 15.2086 7.08472 15.8581Q6.3904 16.5076 5.76064 17.1733Q5.13089 17.8391 4.56723 18.5195Q4.00357 19.1999 3.50736 19.8933Q3.01114 20.5867 2.58358 21.2915Q2.15601 21.9962 1.79812 22.7106Q1.44023 23.425 1.15288 24.1473Q0.865531 24.8696 0.649409 25.5981Q0.433287 26.3266 0.288916 27.0595Q0.144545 27.7924 0.0722726 28.528Q0 29.2635 0 30Q0 30.7365 0.0722726 31.472Q0.144545 32.2076 0.288916 32.9405Q0.433287 33.6734 0.649409 34.4019Q0.865531 35.1304 1.15288 35.8527Q1.44023 36.575 1.79812 37.2894Q2.15601 38.0038 2.58358 38.7085Q3.01114 39.4133 3.50736 40.1067Q4.00357 40.8001 4.56723 41.4805Q5.13089 42.1609 5.76064 42.8266Q6.3904 43.4924 7.08472 44.1419Q7.77905 44.7914 8.53628 45.4231Q9.29351 46.0548 10.1118 46.6671Q10.9301 47.2794 11.8075 47.871Q12.685 48.4625 13.6194 49.0318Q14.5538 49.6011 15.5429 50.1468Q16.5321 50.6924 17.5736 51.2132Q18.6151 51.7339 19.7065 52.2285Q20.7978 52.7231 21.9364 53.1903Q23.075 53.6575 24.258 54.0962Q25.4411 54.5349 26.6658 54.9441Q27.8905 55.3532 29.1538 55.7318Q30.4172 56.1105 31.7162 56.4576Q33.0152 56.8048 34.3467 57.1197Q35.6782 57.4345 37.039 57.7164Q38.3998 57.9982 39.7866 58.2463Q41.1734 58.4944 42.5829 58.7082Q43.9924 58.922 45.4212 59.1009Q46.85 59.2799 48.2946 59.4236Q49.7392 59.5672 51.1962 59.6753Q52.6531 59.7834 54.119 59.8555Q55.5848 59.9277 57.0559 59.9639Q58.5271 60 60 60Q61.4729 60 62.9441 59.9639Q64.4152 59.9277 65.881 59.8555Q67.3469 59.7834 68.8038 59.6753Q70.2608 59.5672 71.7054 59.4236Q73.15 59.2799 74.5788 59.1009Q76.0076 58.922 77.4171 58.7082Q78.8266 58.4944 80.2134 58.2463Q81.6002 57.9982 82.961 57.7164Q84.3218 57.4345 85.6533 57.1197Q86.9848 56.8048 88.2838 56.4576Q89.5828 56.1105 90.8462 55.7318Q92.1095 55.3532 93.3342 54.9441Q94.5589 54.5349 95.7419 54.0962Q96.925 53.6575 98.0636 53.1903Q99.2022 52.7231 100.294 52.2285Q101.385 51.734 102.426 51.2132Q103.468 50.6924 104.457 50.1468Q105.446 49.6011 106.381 49.0318Q107.315 48.4625 108.192 47.871Q109.07 47.2794 109.888 46.6671Q110.706 46.0548 111.464 45.4231Q112.221 44.7914 112.915 44.1419Q113.61 43.4924 114.239 42.8266Q114.869 42.1609 115.433 41.4805Q115.996 40.8001 116.493 40.1067Q116.989 39.4133 117.416 38.7085Q117.844 38.0038 118.202 37.2894Q118.56 36.575 118.847 35.8527Q119.134 35.1304 119.351 34.4019Q119.567 33.6734 119.711 32.9405Q119.855 32.2076 119.928 31.472Q120 30.7365 120 30Q120 29.2635 119.928 28.528Q119.855 27.7924 119.711 27.0595Q119.567 26.3266 119.351 25.5981Q119.134 24.8696 118.847 24.1473Q118.56 23.425 118.202 22.7106Q117.844 21.9962 117.416 21.2915Q116.989 20.5867 116.493 19.8933Q115.996 19.1999 115.433 18.5195Q114.869 17.8391 114.239 17.1733Q113.61 16.5076 112.915 15.8581Q112.221 15.2086 111.464 14.5769Q110.706 13.9452 109.888 13.3329Q109.07 12.7205 108.192 12.129Q107.315 11.5375 106.381 10.9682Q105.446 10.3989 104.457 9.85323Q103.468 9.30755 102.426 8.7868Q101.385 8.26604 100.294 7.77147Q99.2022 7.27689 98.0636 6.80969Q96.925 6.34248 95.7419 5.90377Q94.5589 5.46507 93.3342 5.05591Q92.1095 4.64676 90.8462 4.26814Q89.5828 3.88953 88.2838 3.54236Q86.9848 3.1952 85.6533 2.88032Q84.3218 2.56544 82.961 2.28361Q81.6002 2.00178 80.2134 1.75368Q78.8266 1.50557 77.4171 1.29179Q76.0076 1.07801 74.5788 0.899062Q73.15 0.720117 71.7054 0.576441Q70.2608 0.432766 68.8038 0.324705Q67.3469 0.216644 65.881 0.144458Q64.4152 0.0722726 62.9441 0.0361363Q61.4729 0 60 0Z"/>    
    <g transform="matrix(1.00, 0.00, 0.00, 1.00, 0.00, 0.00)">
        <path fill="#000000FF" stroke="#000000FF" stroke-linecap="round" stroke-linejoin="round" stroke-width="0.1"   d="M35.50 26.05L36.82 26.05L36.82 32.81Q36.81 34.22 35.93 35.12Q35.05 36.01 33.55 36.12L33.55 36.12L33.20 36.14Q31.57 36.14 30.60 35.25Q29.62 34.37 29.61 32.83L29.61 32.83L29.61 26.05L30.91 26.05L30.91 32.79Q30.91 33.87 31.50 34.47Q32.10 35.06 33.20 35.06L33.20 35.06Q34.31 35.06 34.91 34.47Q35.50 33.87 35.50 32.79L35.50 32.79L35.50 26.05ZM43.00 34.04L43.00 34.04Q43.00 33.53 42.61 33.24Q42.22 32.96 41.26 32.75Q40.30 32.55 39.74 32.26Q39.17 31.97 38.90 31.58Q38.63 31.18 38.63 30.63L38.63 30.63Q38.63 29.72 39.40 29.10Q40.17 28.47 41.37 28.47L41.37 28.47Q42.63 28.47 43.41 29.12Q44.19 29.77 44.19 30.78L44.19 30.78L42.92 30.78Q42.92 30.26 42.48 29.88Q42.04 29.51 41.37 29.51L41.37 29.51Q40.68 29.51 40.29 29.81Q39.90 30.11 39.90 30.59L39.90 30.59Q39.90 31.05 40.26 31.28Q40.62 31.52 41.57 31.73Q42.52 31.94 43.10 32.23Q43.69 32.53 43.98 32.94Q44.26 33.35 44.26 33.95L44.26 33.95Q44.26 34.94 43.47 35.54Q42.67 36.14 41.41 36.14L41.41 36.14Q40.52 36.14 39.84 35.82Q39.15 35.51 38.77 34.94Q38.38 34.38 38.38 33.72L38.38 33.72L39.65 33.72Q39.68 34.36 40.16 34.73Q40.63 35.10 41.41 35.10L41.41 35.10Q42.13 35.10 42.56 34.81Q43.00 34.52 43.00 34.04ZM48.98 36.14L48.98 36.14Q47.47 36.14 46.53 35.15Q45.59 34.16 45.59 32.51L45.59 32.51L45.59 32.27Q45.59 31.17 46.01 30.31Q46.43 29.44 47.18 28.96Q47.94 28.47 48.82 28.47L48.82 28.47Q50.26 28.47 51.06 29.42Q51.86 30.37 51.86 32.14L51.86 32.14L51.86 32.66L46.85 32.66Q46.88 33.76 47.49 34.43Q48.10 35.10 49.05 35.10L49.05 35.10Q49.72 35.10 50.18 34.83Q50.65 34.56 50.99 34.11L50.99 34.11L51.77 34.71Q50.84 36.14 48.98 36.14ZM48.82 29.51L48.82 29.51Q48.05 29.51 47.53 30.06Q47.02 30.62 46.89 31.63L46.89 31.63L50.60 31.63L50.60 31.53Q50.54 30.57 50.08 30.04Q49.61 29.51 48.82 29.51ZM62.99 32.84L64.31 32.84Q64.13 34.42 63.14 35.28Q62.16 36.14 60.54 36.14L60.54 36.14Q58.77 36.14 57.71 34.87Q56.65 33.61 56.65 31.49L56.65 31.49L56.65 30.53Q56.65 29.14 57.14 28.09Q57.64 27.04 58.55 26.47Q59.46 25.91 60.65 25.91L60.65 25.91Q62.24 25.91 63.20 26.80Q64.15 27.68 64.31 29.25L64.31 29.25L62.99 29.25Q62.82 28.06 62.25 27.52Q61.68 26.99 60.65 26.99L60.65 26.99Q59.40 26.99 58.68 27.92Q57.97 28.85 57.97 30.57L57.97 30.57L57.97 31.53Q57.97 33.15 58.64 34.11Q59.32 35.06 60.54 35.06L60.54 35.06Q61.63 35.06 62.21 34.57Q62.80 34.07 62.99 32.84L62.99 32.84ZM71.80 36L70.47 36Q70.36 35.78 70.29 35.22L70.29 35.22Q69.41 36.14 68.19 36.14L68.19 36.14Q67.09 36.14 66.39 35.52Q65.69 34.90 65.69 33.95L65.69 33.95Q65.69 32.79 66.57 32.15Q67.45 31.52 69.04 31.52L69.04 31.52L70.27 31.52L70.27 30.93Q70.27 30.27 69.87 29.88Q69.48 29.49 68.71 29.49L68.71 29.49Q68.03 29.49 67.57 29.83Q67.11 30.17 67.11 30.65L67.11 30.65L65.84 30.65Q65.84 30.10 66.23 29.58Q66.63 29.07 67.30 28.77Q67.97 28.47 68.78 28.47L68.78 28.47Q70.06 28.47 70.78 29.11Q71.51 29.75 71.54 30.87L71.54 30.87L71.54 34.27Q71.54 35.29 71.80 35.89L71.80 35.89L71.80 36ZM68.37 35.04L68.37 35.04Q68.97 35.04 69.50 34.73Q70.03 34.42 70.27 33.93L70.27 33.93L70.27 32.41L69.28 32.41Q66.96 32.41 66.96 33.77L66.96 33.77Q66.96 34.37 67.35 34.70Q67.75 35.04 68.37 35.04ZM77.82 34.04L77.82 34.04Q77.82 33.53 77.44 33.24Q77.05 32.96 76.09 32.75Q75.13 32.55 74.57 32.26Q74.00 31.97 73.73 31.58Q73.46 31.18 73.46 30.63L73.46 30.63Q73.46 29.72 74.23 29.10Q75.00 28.47 76.20 28.47L76.20 28.47Q77.46 28.47 78.24 29.12Q79.02 29.77 79.02 30.78L79.02 30.78L77.75 30.78Q77.75 30.26 77.31 29.88Q76.87 29.51 76.20 29.51L76.20 29.51Q75.51 29.51 75.12 29.81Q74.73 30.11 74.73 30.59L74.73 30.59Q74.73 31.05 75.09 31.28Q75.45 31.52 76.40 31.73Q77.35 31.94 77.93 32.23Q78.52 32.53 78.81 32.94Q79.09 33.35 79.09 33.95L79.09 33.95Q79.09 34.94 78.30 35.54Q77.50 36.14 76.24 36.14L76.24 36.14Q75.35 36.14 74.67 35.82Q73.98 35.51 73.60 34.94Q73.21 34.38 73.21 33.72L73.21 33.72L74.48 33.72Q74.51 34.36 74.98 34.73Q75.46 35.10 76.24 35.10L76.24 35.10Q76.96 35.10 77.39 34.81Q77.82 34.52 77.82 34.04ZM83.81 36.14L83.81 36.14Q82.30 36.14 81.36 35.15Q80.42 34.16 80.42 32.51L80.42 32.51L80.42 32.27Q80.42 31.17 80.84 30.31Q81.26 29.44 82.01 28.96Q82.77 28.47 83.65 28.47L83.65 28.47Q85.09 28.47 85.89 29.42Q86.69 30.37 86.69 32.14L86.69 32.14L86.69 32.66L81.68 32.66Q81.71 33.76 82.32 34.43Q82.93 35.10 83.87 35.10L83.87 35.10Q84.54 35.10 85.01 34.83Q85.47 34.56 85.82 34.11L85.82 34.11L86.60 34.71Q85.67 36.14 83.81 36.14ZM83.65 29.51L83.65 29.51Q82.88 29.51 82.36 30.06Q81.84 30.62 81.72 31.63L81.72 31.63L85.43 31.63L85.43 31.53Q85.37 30.57 84.91 30.04Q84.44 29.51 83.65 29.51Z"/>
    </g>
</g>
</svg>