<svg xmlns="http://www.w3.org/2000/svg" version="1.1" xmlns:xlink="http://www.w3.org/1999/xlink" xmlns:svgjs="http://svgjs.dev/svgjs" width="310" height="310" viewbox="0 0 310 310"   shape-rendering="geometricPrecision">
<g id="5e4a13a3874b4402b4b17804762b7905" transform="translate(75, 5) ">
    <path fill="#FFFFFFFF" stroke="#323232FF" stroke-width="2" d="M0 0L0 32L160 32L160 0L0 0ZM0 32L0 300L160 300L160 32L0 32Z"/>    
    <g transform="matrix(1.00, 0.00, 0.00, 1.00, 0.00, 0.00)">
        <path fill="#000000FF" stroke="#000000FF" stroke-linecap="round" stroke-linejoin="round" stroke-width="0.1"   d="M70.76 18.10L68.41 18.10L68.41 22L67.10 22L67.10 12.05L70.77 12.05Q72.41 12.05 73.33 12.88Q74.26 13.71 74.26 15.09L74.26 15.09Q74.26 16.54 73.35 17.32Q72.45 18.10 70.76 18.10L70.76 18.10ZM68.41 13.13L68.41 17.03L70.77 17.03Q71.82 17.03 72.38 16.53Q72.95 16.04 72.95 15.10L72.95 15.10Q72.95 14.21 72.38 13.68Q71.82 13.15 70.85 13.13L70.85 13.13L68.41 13.13ZM75.31 18.32L75.31 18.23Q75.31 17.15 75.74 16.28Q76.17 15.41 76.93 14.94Q77.69 14.47 78.67 14.47L78.67 14.47Q80.18 14.47 81.11 15.51Q82.04 16.56 82.04 18.29L82.04 18.29L82.04 18.38Q82.04 19.46 81.63 20.32Q81.22 21.18 80.45 21.66Q79.68 22.14 78.68 22.14L78.68 22.14Q77.18 22.14 76.24 21.09Q75.31 20.04 75.31 18.32L75.31 18.32ZM76.58 18.38L76.58 18.38Q76.58 19.61 77.15 20.36Q77.72 21.10 78.68 21.10L78.68 21.10Q79.64 21.10 80.21 20.35Q80.78 19.59 80.78 18.23L80.78 18.23Q80.78 17.02 80.20 16.26Q79.62 15.51 78.67 15.51L78.67 15.51Q77.73 15.51 77.16 16.25Q76.58 17.00 76.58 18.38ZM83.29 18.32L83.29 18.23Q83.29 17.15 83.72 16.28Q84.15 15.41 84.91 14.94Q85.67 14.47 86.65 14.47L86.65 14.47Q88.16 14.47 89.10 15.51Q90.03 16.56 90.03 18.29L90.03 18.29L90.03 18.38Q90.03 19.46 89.61 20.32Q89.20 21.18 88.43 21.66Q87.66 22.14 86.67 22.14L86.67 22.14Q85.16 22.14 84.23 21.09Q83.29 20.04 83.29 18.32L83.29 18.32ZM84.57 18.38L84.57 18.38Q84.57 19.61 85.14 20.36Q85.71 21.10 86.67 21.10L86.67 21.10Q87.63 21.10 88.20 20.35Q88.76 19.59 88.76 18.23L88.76 18.23Q88.76 17.02 88.19 16.26Q87.61 15.51 86.65 15.51L86.65 15.51Q85.71 15.51 85.14 16.25Q84.57 17.00 84.57 18.38ZM92.99 11.50L92.99 22L91.72 22L91.72 11.50L92.99 11.50Z"/>
    </g>
</g>
</svg>