<svg xmlns="http://www.w3.org/2000/svg" version="1.1" xmlns:xlink="http://www.w3.org/1999/xlink" xmlns:svgjs="http://svgjs.dev/svgjs" width="130" height="130" viewbox="0 0 130 130"   shape-rendering="geometricPrecision">
<g id="23a5d638accf4bcfa0c93127711e138f" transform="translate(35, 5) ">
    <path fill="#FFFFFFFF" stroke="#323232FF" stroke-width="2" d="M30 0Q29.6318 0 29.264 0.0180682Q28.8962 0.0361363 28.5297 0.0722291Q28.1633 0.108322 27.799 0.162352Q27.4348 0.216383 27.0736 0.288221Q26.7125 0.360059 26.3553 0.449531Q25.9981 0.539004 25.6457 0.645895Q25.2934 0.752786 24.9467 0.876839Q24.5999 1.00089 24.2597 1.14181Q23.9195 1.28272 23.5867 1.44016Q23.2538 1.5976 22.929 1.77118Q22.6043 1.94476 22.2885 2.13407Q21.9726 2.32338 21.6664 2.52796Q21.3603 2.73253 21.0645 2.95189Q20.7687 3.17124 20.4841 3.40484Q20.1995 3.63844 19.9266 3.88573Q19.6538 4.13302 19.3934 4.3934Q19.133 4.65378 18.8857 4.92662Q18.6384 5.19946 18.4048 5.4841Q18.1712 5.76875 17.9519 6.06451Q17.7325 6.36027 17.528 6.66645Q17.3234 6.97262 17.1341 7.28846Q16.9448 7.6043 16.7712 7.92905Q16.5976 8.2538 16.4402 8.58667Q16.2827 8.91955 16.1418 9.25975Q16.0009 9.59995 15.8768 9.94665Q15.7528 10.2934 15.6459 10.6457Q15.539 10.9981 15.4495 11.3553Q15.3601 11.7125 15.2882 12.0736Q15.2164 12.4348 15.1624 12.799Q15.1083 13.1633 15.0722 13.5297Q15.0361 13.8962 15.0181 14.264Q15 14.6318 15 15Q15 15.3682 15.0181 15.736Q15.0361 16.1038 15.0722 16.4703Q15.1083 16.8367 15.1624 17.201Q15.2164 17.5652 15.2882 17.9264Q15.3601 18.2875 15.4495 18.6447Q15.539 19.0019 15.6459 19.3543Q15.7528 19.7066 15.8768 20.0533Q16.0009 20.4 16.1418 20.7402Q16.2827 21.0804 16.4402 21.4133Q16.5976 21.7462 16.7712 22.0709Q16.9448 22.3957 17.1341 22.7115Q17.3234 23.0274 17.528 23.3335Q17.7325 23.6397 17.9519 23.9355Q18.1712 24.2313 18.4048 24.5159Q18.6384 24.8005 18.8857 25.0734Q19.133 25.3462 19.3934 25.6066Q19.6538 25.867 19.9266 26.1143Q20.1995 26.3615 20.4841 26.5952Q20.7687 26.8288 21.0645 27.0481Q21.3603 27.2675 21.6664 27.472Q21.9726 27.6766 22.2885 27.8659Q22.6043 28.0552 22.929 28.2288Q23.2538 28.4024 23.5867 28.5598Q23.9195 28.7173 24.2597 28.8582Q24.5999 28.9991 24.9467 29.1232Q25.2934 29.2472 25.6457 29.3541Q25.9981 29.461 26.3553 29.5505Q26.7125 29.6399 27.0736 29.7118Q27.4348 29.7836 27.799 29.8376Q28.1633 29.8917 28.5297 29.9278Q28.8962 29.9639 29.264 29.9819Q29.6318 30 30 30Q30.3682 30 30.736 29.9819Q31.1038 29.9639 31.4703 29.9278Q31.8367 29.8917 32.201 29.8376Q32.5652 29.7836 32.9264 29.7118Q33.2875 29.6399 33.6447 29.5505Q34.0019 29.461 34.3543 29.3541Q34.7066 29.2472 35.0533 29.1232Q35.4 28.9991 35.7402 28.8582Q36.0804 28.7173 36.4133 28.5598Q36.7462 28.4024 37.0709 28.2288Q37.3957 28.0552 37.7115 27.8659Q38.0274 27.6766 38.3335 27.472Q38.6397 27.2675 38.9355 27.0481Q39.2312 26.8288 39.5159 26.5952Q39.8005 26.3616 40.0734 26.1143Q40.3462 25.867 40.6066 25.6066Q40.867 25.3462 41.1143 25.0734Q41.3615 24.8005 41.5952 24.5159Q41.8288 24.2313 42.0481 23.9355Q42.2675 23.6397 42.472 23.3335Q42.6766 23.0274 42.8659 22.7115Q43.0552 22.3957 43.2288 22.0709Q43.4024 21.7462 43.5598 21.4133Q43.7173 21.0804 43.8582 20.7402Q43.9991 20.4001 44.1232 20.0533Q44.2472 19.7066 44.3541 19.3543Q44.461 19.0019 44.5505 18.6447Q44.6399 18.2875 44.7118 17.9264Q44.7836 17.5652 44.8377 17.201Q44.8917 16.8367 44.9278 16.4703Q44.9639 16.1038 44.9819 15.736Q45 15.3682 45 15Q45 14.6318 44.9819 14.264Q44.9639 13.8962 44.9278 13.5297Q44.8917 13.1633 44.8377 12.799Q44.7836 12.4348 44.7118 12.0736Q44.6399 11.7125 44.5505 11.3553Q44.461 10.9981 44.3541 10.6457Q44.2472 10.2934 44.1232 9.94665Q43.9991 9.59995 43.8582 9.25975Q43.7173 8.91955 43.5598 8.58667Q43.4024 8.2538 43.2288 7.92905Q43.0552 7.6043 42.8659 7.28846Q42.6766 6.97262 42.472 6.66645Q42.2675 6.36027 42.0481 6.06451Q41.8288 5.76875 41.5952 5.4841Q41.3616 5.19946 41.1143 4.92662Q40.867 4.65378 40.6066 4.3934Q40.3462 4.13302 40.0734 3.88573Q39.8005 3.63844 39.5159 3.40484Q39.2312 3.17124 38.9355 2.95189Q38.6397 2.73253 38.3335 2.52796Q38.0274 2.32338 37.7115 2.13407Q37.3957 1.94476 37.0709 1.77118Q36.7462 1.5976 36.4133 1.44016Q36.0804 1.28272 35.7402 1.14181Q35.4 1.00089 35.0533 0.876839Q34.7066 0.752786 34.3543 0.645895Q34.0019 0.539004 33.6447 0.449531Q33.2875 0.360059 32.9264 0.288221Q32.5652 0.216383 32.201 0.162352Q31.8367 0.108322 31.4703 0.0722291Q31.1038 0.0361363 30.736 0.0180682Q30.3682 0 30 0ZM0 40L60 40L0 40ZM30 30L30 80L30 30ZM0 120L30 80L60 120L30 80L0 120"/>    
</g>
</svg>