<svg xmlns="http://www.w3.org/2000/svg" version="1.1" xmlns:xlink="http://www.w3.org/1999/xlink" xmlns:svgjs="http://svgjs.dev/svgjs" width="130" height="130" viewbox="0 0 130 130"   shape-rendering="geometricPrecision">
<g id="759ac39fccad46dd94b47565abd23169" transform="translate(5, 5) ">
    <path fill="#FFFFFFFF" stroke="#323232FF" stroke-width="2" d="M60 0Q58.5271 0 57.0559 0.0722726Q55.5848 0.144545 54.119 0.288916Q52.6531 0.433287 51.1962 0.649409Q49.7392 0.865531 48.2946 1.15288Q46.85 1.44023 45.4212 1.79812Q43.9924 2.15601 42.5829 2.58358Q41.1734 3.01114 39.7866 3.50736Q38.3998 4.00357 37.039 4.56723Q35.6782 5.13089 34.3467 5.76064Q33.0152 6.3904 31.7162 7.08472Q30.4172 7.77905 29.1538 8.53628Q27.8905 9.29351 26.6658 10.1118Q25.4411 10.9301 24.258 11.8075Q23.075 12.685 21.9364 13.6194Q20.7978 14.5538 19.7065 15.5429Q18.6151 16.5321 17.5736 17.5736Q16.5321 18.6151 15.5429 19.7065Q14.5538 20.7978 13.6194 21.9364Q12.685 23.075 11.8075 24.258Q10.9301 25.4411 10.1118 26.6658Q9.29351 27.8905 8.53628 29.1538Q7.77905 30.4172 7.08472 31.7162Q6.3904 33.0152 5.76064 34.3467Q5.13089 35.6782 4.56723 37.039Q4.00357 38.3998 3.50736 39.7866Q3.01114 41.1734 2.58358 42.5829Q2.15601 43.9924 1.79812 45.4212Q1.44023 46.85 1.15288 48.2946Q0.865531 49.7392 0.649409 51.1962Q0.433287 52.6531 0.288916 54.119Q0.144545 55.5848 0.0722726 57.0559Q0 58.5271 0 60Q0 61.4729 0.0722726 62.9441Q0.144545 64.4152 0.288916 65.881Q0.433287 67.3469 0.649409 68.8038Q0.865531 70.2608 1.15288 71.7054Q1.44023 73.15 1.79812 74.5788Q2.15601 76.0076 2.58358 77.4171Q3.01114 78.8266 3.50736 80.2134Q4.00357 81.6002 4.56723 82.961Q5.13089 84.3218 5.76064 85.6533Q6.3904 86.9848 7.08472 88.2838Q7.77905 89.5828 8.53628 90.8462Q9.29351 92.1095 10.1118 93.3342Q10.9301 94.5589 11.8075 95.7419Q12.685 96.925 13.6194 98.0636Q14.5538 99.2022 15.5429 100.294Q16.5321 101.385 17.5736 102.426Q18.6151 103.468 19.7065 104.457Q20.7978 105.446 21.9364 106.381Q23.075 107.315 24.258 108.192Q25.4411 109.07 26.6658 109.888Q27.8905 110.706 29.1538 111.464Q30.4172 112.221 31.7162 112.915Q33.0152 113.61 34.3467 114.239Q35.6782 114.869 37.039 115.433Q38.3998 115.996 39.7866 116.493Q41.1734 116.989 42.5829 117.416Q43.9924 117.844 45.4212 118.202Q46.85 118.56 48.2946 118.847Q49.7392 119.134 51.1962 119.351Q52.6531 119.567 54.119 119.711Q55.5848 119.855 57.0559 119.928Q58.5271 120 60 120Q61.4729 120 62.9441 119.928Q64.4152 119.855 65.881 119.711Q67.3469 119.567 68.8038 119.351Q70.2608 119.134 71.7054 118.847Q73.15 118.56 74.5788 118.202Q76.0076 117.844 77.4171 117.416Q78.8266 116.989 80.2134 116.493Q81.6002 115.996 82.961 115.433Q84.3218 114.869 85.6533 114.239Q86.9848 113.61 88.2838 112.915Q89.5828 112.221 90.8462 111.464Q92.1095 110.706 93.3342 109.888Q94.5589 109.07 95.7419 108.192Q96.925 107.315 98.0636 106.381Q99.2022 105.446 100.294 104.457Q101.385 103.468 102.426 102.426Q103.468 101.385 104.457 100.294Q105.446 99.2022 106.381 98.0636Q107.315 96.925 108.192 95.7419Q109.07 94.5589 109.888 93.3342Q110.706 92.1095 111.464 90.8462Q112.221 89.5828 112.915 88.2838Q113.61 86.9848 114.239 85.6533Q114.869 84.3218 115.433 82.961Q115.996 81.6002 116.493 80.2134Q116.989 78.8266 117.416 77.4171Q117.844 76.0076 118.202 74.5788Q118.56 73.15 118.847 71.7054Q119.134 70.2608 119.351 68.8038Q119.567 67.3469 119.711 65.881Q119.855 64.4152 119.928 62.9441Q120 61.4729 120 60Q120 58.5271 119.928 57.0559Q119.855 55.5848 119.711 54.119Q119.567 52.6531 119.351 51.1962Q119.134 49.7392 118.847 48.2946Q118.56 46.85 118.202 45.4212Q117.844 43.9924 117.416 42.5829Q116.989 41.1734 116.493 39.7866Q115.996 38.3998 115.433 37.039Q114.869 35.6782 114.239 34.3467Q113.61 33.0152 112.915 31.7162Q112.221 30.4172 111.464 29.1538Q110.706 27.8905 109.888 26.6658Q109.07 25.4411 108.192 24.258Q107.315 23.075 106.381 21.9364Q105.446 20.7978 104.457 19.7065Q103.468 18.6151 102.426 17.5736Q101.385 16.5321 100.294 15.5429Q99.2022 14.5538 98.0636 13.6194Q96.925 12.685 95.7419 11.8075Q94.5589 10.9301 93.3342 10.1118Q92.1095 9.29351 90.8462 8.53628Q89.5828 7.77905 88.2838 7.08472Q86.9848 6.3904 85.6533 5.76064Q84.3218 5.13089 82.961 4.56723Q81.6002 4.00357 80.2134 3.50736Q78.8266 3.01114 77.4171 2.58358Q76.0076 2.15601 74.5788 1.79812Q73.15 1.44023 71.7054 1.15288Q70.2608 0.865531 68.8038 0.649409Q67.3469 0.433287 65.881 0.288916Q64.4152 0.144545 62.9441 0.0722726Q61.4729 0 60 0Z"/>    
</g>
</svg>