<svg xmlns="http://www.w3.org/2000/svg" version="1.1" xmlns:xlink="http://www.w3.org/1999/xlink" xmlns:svgjs="http://svgjs.dev/svgjs" width="210" height="210" viewbox="0 0 210 210"   shape-rendering="geometricPrecision">
<g id="7e18ab09c81942daaebd73fa7159eb70" transform="translate(5, 5) ">
    <path fill="#FFFFFFFF" stroke="#323232FF" stroke-width="2" d="M0 0L0 200L200 200L200 0L0 0Z"/>    
    <g transform="matrix(1, 1, 0, 0, 0, 1, 0)">
        <path fill="#000000FF" stroke="#000000FF" stroke-linecap="round" stroke-linejoin="round" stroke-width="0.1"   d="M77.01 102.84L78.33 102.84Q78.15 104.42 77.17 105.28Q76.19 106.14 74.56 106.14L74.56 106.14Q72.80 106.14 71.73 104.87Q70.67 103.61 70.67 101.49L70.67 101.49L70.67 100.53Q70.67 99.14 71.17 98.09Q71.66 97.04 72.57 96.47Q73.48 95.91 74.68 95.91L74.68 95.91Q76.26 95.91 77.22 96.80Q78.18 97.68 78.33 99.25L78.33 99.25L77.01 99.25Q76.84 98.06 76.27 97.52Q75.70 96.99 74.68 96.99L74.68 96.99Q73.42 96.99 72.70 97.92Q71.99 98.85 71.99 100.57L71.99 100.57L71.99 101.53Q71.99 103.15 72.67 104.11Q73.34 105.06 74.56 105.06L74.56 105.06Q75.65 105.06 76.24 104.57Q76.82 104.07 77.01 102.84L77.01 102.84ZM79.59 102.32L79.59 102.23Q79.59 101.15 80.02 100.28Q80.45 99.41 81.21 98.94Q81.97 98.47 82.95 98.47L82.95 98.47Q84.46 98.47 85.39 99.51Q86.32 100.56 86.32 102.29L86.32 102.29L86.32 102.38Q86.32 103.46 85.91 104.32Q85.50 105.18 84.73 105.66Q83.96 106.14 82.96 106.14L82.96 106.14Q81.46 106.14 80.52 105.09Q79.59 104.04 79.59 102.32L79.59 102.32ZM80.86 102.38L80.86 102.38Q80.86 103.61 81.43 104.36Q82.00 105.10 82.96 105.10L82.96 105.10Q83.93 105.10 84.49 104.35Q85.06 103.59 85.06 102.23L85.06 102.23Q85.06 101.02 84.48 100.26Q83.90 99.51 82.95 99.51L82.95 99.51Q82.01 99.51 81.44 100.25Q80.86 101.00 80.86 102.38ZM87.91 98.60L89.11 98.60L89.15 99.53Q90.00 98.47 91.36 98.47L91.36 98.47Q93.71 98.47 93.73 101.11L93.73 101.11L93.73 106L92.46 106L92.46 101.11Q92.46 100.31 92.10 99.92Q91.74 99.54 90.98 99.54L90.98 99.54Q90.36 99.54 89.90 99.87Q89.44 100.20 89.18 100.73L89.18 100.73L89.18 106L87.91 106L87.91 98.60ZM96.09 96.81L97.35 96.81L97.35 98.60L98.73 98.60L98.73 99.58L97.35 99.58L97.35 104.17Q97.35 104.61 97.54 104.83Q97.72 105.06 98.16 105.06L98.16 105.06Q98.38 105.06 98.77 104.97L98.77 104.97L98.77 106Q98.27 106.14 97.80 106.14L97.80 106.14Q96.95 106.14 96.52 105.62Q96.09 105.11 96.09 104.17L96.09 104.17L96.09 99.58L94.74 99.58L94.74 98.60L96.09 98.60L96.09 96.81ZM106.10 106L104.77 106Q104.67 105.78 104.60 105.22L104.60 105.22Q103.72 106.14 102.49 106.14L102.49 106.14Q101.40 106.14 100.70 105.52Q100.00 104.90 100.00 103.95L100.00 103.95Q100.00 102.79 100.88 102.15Q101.75 101.52 103.35 101.52L103.35 101.52L104.58 101.52L104.58 100.93Q104.58 100.27 104.18 99.88Q103.78 99.49 103.01 99.49L103.01 99.49Q102.33 99.49 101.88 99.83Q101.42 100.17 101.42 100.65L101.42 100.65L100.15 100.65Q100.15 100.10 100.54 99.58Q100.93 99.07 101.61 98.77Q102.28 98.47 103.09 98.47L103.09 98.47Q104.36 98.47 105.09 99.11Q105.81 99.75 105.84 100.87L105.84 100.87L105.84 104.27Q105.84 105.29 106.10 105.89L106.10 105.89L106.10 106ZM102.68 105.04L102.68 105.04Q103.27 105.04 103.80 104.73Q104.34 104.42 104.58 103.93L104.58 103.93L104.58 102.41L103.59 102.41Q101.26 102.41 101.26 103.77L101.26 103.77Q101.26 104.37 101.66 104.70Q102.05 105.04 102.68 105.04ZM109.20 98.60L109.20 106L107.93 106L107.93 98.60L109.20 98.60ZM107.83 96.64L107.83 96.64Q107.83 96.33 108.02 96.12Q108.21 95.91 108.58 95.91Q108.94 95.91 109.14 96.12Q109.33 96.33 109.33 96.64Q109.33 96.95 109.14 97.15Q108.94 97.36 108.58 97.36Q108.21 97.36 108.02 97.15Q107.83 96.95 107.83 96.64ZM111.22 98.60L112.42 98.60L112.46 99.53Q113.31 98.47 114.67 98.47L114.67 98.47Q117.02 98.47 117.04 101.11L117.04 101.11L117.04 106L115.77 106L115.77 101.11Q115.77 100.31 115.41 99.92Q115.05 99.54 114.29 99.54L114.29 99.54Q113.68 99.54 113.21 99.87Q112.75 100.20 112.49 100.73L112.49 100.73L112.49 106L111.22 106L111.22 98.60ZM122.02 106.14L122.02 106.14Q120.51 106.14 119.57 105.15Q118.62 104.16 118.62 102.51L118.62 102.51L118.62 102.27Q118.62 101.17 119.04 100.31Q119.47 99.44 120.22 98.96Q120.98 98.47 121.86 98.47L121.86 98.47Q123.30 98.47 124.10 99.42Q124.90 100.37 124.90 102.14L124.90 102.14L124.90 102.66L119.89 102.66Q119.92 103.76 120.53 104.43Q121.14 105.10 122.08 105.10L122.08 105.10Q122.75 105.10 123.22 104.83Q123.68 104.56 124.03 104.11L124.03 104.11L124.80 104.71Q123.87 106.14 122.02 106.14ZM121.86 99.51L121.86 99.51Q121.09 99.51 120.57 100.06Q120.05 100.62 119.93 101.63L119.93 101.63L123.64 101.63L123.64 101.53Q123.58 100.57 123.12 100.04Q122.65 99.51 121.86 99.51ZM129.94 98.56L129.94 99.74Q129.65 99.69 129.32 99.69L129.32 99.69Q128.07 99.69 127.63 100.75L127.63 100.75L127.63 106L126.36 106L126.36 98.60L127.59 98.60L127.61 99.46Q128.24 98.47 129.38 98.47L129.38 98.47Q129.75 98.47 129.94 98.56L129.94 98.56Z"/>
    </g>
</g>
</svg>