<svg xmlns="http://www.w3.org/2000/svg" version="1.1" xmlns:xlink="http://www.w3.org/1999/xlink" xmlns:svgjs="http://svgjs.dev/svgjs" width="130" height="130" viewbox="0 0 130 130"   shape-rendering="geometricPrecision">
<g id="a9f67295544a4cb58901a9a7c837db49" transform="translate(25, 5) ">
    <path fill="#FFFFFFFF" stroke="#323232FF" stroke-width="2" d="M80 15Q80 15.3682 79.9518 15.736Q79.9036 16.1038 79.8074 16.4703Q79.7111 16.8367 79.5671 17.201Q79.423 17.5652 79.2314 17.9264Q79.0398 18.2875 78.8012 18.6447Q78.5627 19.0019 78.2776 19.3543Q77.9926 19.7066 77.6618 20.0533Q77.3309 20.4 76.9552 20.7402Q76.5794 21.0804 76.1596 21.4133Q75.7397 21.7462 75.2768 22.0709Q74.814 22.3957 74.3091 22.7115Q73.8043 23.0274 73.2588 23.3335Q72.7132 23.6397 72.1283 23.9355Q71.5434 24.2313 70.9204 24.5159Q70.2975 24.8005 69.638 25.0734Q68.9786 25.3462 68.2843 25.6066Q67.5899 25.867 66.8624 26.1143Q66.1348 26.3615 65.3757 26.5952Q64.6167 26.8288 63.828 27.0481Q63.0393 27.2675 62.2228 27.472Q61.4063 27.6766 60.5641 27.8659Q59.7219 28.0552 58.8559 28.2288Q57.9899 28.4024 57.1022 28.5598Q56.2145 28.7173 55.3073 28.8582Q54.4001 28.9991 53.4756 29.1232Q52.551 29.2472 51.6114 29.3541Q50.6717 29.461 49.7192 29.5505Q48.7667 29.6399 47.8036 29.7118Q46.8405 29.7836 45.8692 29.8376Q44.8979 29.8917 43.9207 29.9278Q42.9435 29.9639 41.9627 29.9819Q40.9819 30 40 30Q39.0181 30 38.0373 29.9819Q37.0565 29.9639 36.0793 29.9278Q35.1021 29.8917 34.1308 29.8376Q33.1595 29.7836 32.1964 29.7118Q31.2333 29.6399 30.2808 29.5505Q29.3283 29.461 28.3886 29.3541Q27.4489 29.2472 26.5244 29.1232Q25.5999 28.9991 24.6927 28.8582Q23.7855 28.7173 22.8978 28.5598Q22.0101 28.4024 21.1441 28.2288Q20.2781 28.0552 19.4359 27.8659Q18.5936 27.6766 17.7772 27.472Q16.9607 27.2675 16.172 27.0481Q15.3833 26.8288 14.6243 26.5952Q13.8652 26.3616 13.1376 26.1143Q12.4101 25.867 11.7157 25.6066Q11.0214 25.3462 10.362 25.0734Q9.70252 24.8005 9.07958 24.5159Q8.45664 24.2313 7.8717 23.9355Q7.28675 23.6397 6.74121 23.3335Q6.19567 23.0274 5.69085 22.7115Q5.18603 22.3957 4.72315 22.0709Q4.26026 21.7462 3.84043 21.4133Q3.42059 21.0804 3.04482 20.7402Q2.66904 20.4001 2.33824 20.0533Q2.00743 19.7066 1.72239 19.3543Q1.43734 19.0019 1.19875 18.6447Q0.960157 18.2875 0.768589 17.9264Q0.577021 17.5652 0.43294 17.201Q0.288858 16.8367 0.192611 16.4703Q0.0963635 16.1038 0.0481817 15.736Q0 15.3682 0 15Q0 14.6318 0.0481817 14.264Q0.0963635 13.8962 0.192611 13.5297Q0.288858 13.1633 0.43294 12.799Q0.577021 12.4348 0.768589 12.0736Q0.960157 11.7125 1.19875 11.3553Q1.43734 10.9981 1.72239 10.6457Q2.00743 10.2934 2.33824 9.94665Q2.66904 9.59995 3.04482 9.25975Q3.42059 8.91955 3.84043 8.58667Q4.26026 8.2538 4.72315 7.92905Q5.18603 7.6043 5.69086 7.28846Q6.19567 6.97262 6.74121 6.66645Q7.28675 6.36027 7.8717 6.06451Q8.45664 5.76875 9.07958 5.4841Q9.70252 5.19946 10.362 4.92662Q11.0214 4.65378 11.7157 4.3934Q12.4101 4.13302 13.1376 3.88573Q13.8652 3.63844 14.6243 3.40484Q15.3833 3.17124 16.172 2.95189Q16.9607 2.73253 17.7772 2.52796Q18.5936 2.32338 19.4359 2.13407Q20.2781 1.94476 21.1441 1.77118Q22.0101 1.5976 22.8978 1.44016Q23.7855 1.28272 24.6927 1.14181Q25.5999 1.00089 26.5244 0.876839Q27.4489 0.752786 28.3886 0.645895Q29.3283 0.539004 30.2808 0.449531Q31.2333 0.360059 32.1964 0.288221Q33.1595 0.216383 34.1308 0.162352Q35.1021 0.108322 36.0793 0.0722291Q37.0565 0.0361363 38.0373 0.0180682Q39.0181 0 40 0Q40.9819 0 41.9627 0.0180682Q42.9435 0.0361363 43.9207 0.0722291Q44.8979 0.108322 45.8692 0.162352Q46.8405 0.216383 47.8036 0.288221Q48.7667 0.360059 49.7192 0.449531Q50.6717 0.539004 51.6114 0.645895Q52.551 0.752786 53.4756 0.876839Q54.4001 1.00089 55.3073 1.14181Q56.2145 1.28272 57.1022 1.44016Q57.9899 1.5976 58.8559 1.77118Q59.7219 1.94476 60.5641 2.13407Q61.4063 2.32338 62.2228 2.52796Q63.0393 2.73253 63.828 2.95189Q64.6167 3.17124 65.3757 3.40484Q66.1348 3.63844 66.8624 3.88573Q67.5899 4.13302 68.2843 4.3934Q68.9786 4.65378 69.638 4.92662Q70.2975 5.19946 70.9204 5.4841Q71.5434 5.76875 72.1283 6.06451Q72.7132 6.36027 73.2588 6.66645Q73.8043 6.97262 74.3091 7.28846Q74.814 7.6043 75.2768 7.92905Q75.7397 8.2538 76.1596 8.58667Q76.5794 8.91955 76.9552 9.25975Q77.3309 9.59995 77.6618 9.94665Q77.9926 10.2934 78.2776 10.6457Q78.5627 10.9981 78.8013 11.3553Q79.0398 11.7125 79.2314 12.0736Q79.423 12.4348 79.5671 12.799Q79.7112 13.1633 79.8074 13.5297Q79.9036 13.8962 79.9518 14.264Q80 14.6318 80 15ZM0 15L0 105C0 125 80 125 80 105M80 105L80 15C80 35 0 35 0 15"/>    
</g>
</svg>