<svg xmlns="http://www.w3.org/2000/svg" version="1.1" xmlns:xlink="http://www.w3.org/1999/xlink" xmlns:svgjs="http://svgjs.dev/svgjs" width="130" height="90" viewbox="0 0 130 90"   shape-rendering="geometricPrecision">
<g id="359fa57e560542c5a47fb6978029716f" transform="translate(5, 5) ">
    <path fill="#FFFFFFFF" stroke="#323232FF" stroke-width="2" d="M60 0Q58.5271 0 57.0559 0.0481817Q55.5848 0.0963635 54.119 0.192611Q52.6531 0.288858 51.1962 0.43294Q49.7392 0.577021 48.2946 0.768589Q46.85 0.960157 45.4212 1.19875Q43.9924 1.43734 42.5829 1.72239Q41.1734 2.00743 39.7866 2.33824Q38.3998 2.66904 37.039 3.04482Q35.6782 3.42059 34.3467 3.84043Q33.0152 4.26026 31.7162 4.72315Q30.4172 5.18603 29.1538 5.69086Q27.8905 6.19567 26.6658 6.74121Q25.4411 7.28675 24.258 7.8717Q23.075 8.45664 21.9364 9.07958Q20.7978 9.70252 19.7065 10.362Q18.6151 11.0214 17.5736 11.7157Q16.5321 12.4101 15.5429 13.1376Q14.5538 13.8652 13.6194 14.6243Q12.685 15.3833 11.8075 16.172Q10.9301 16.9607 10.1118 17.7772Q9.29351 18.5936 8.53628 19.4359Q7.77905 20.2781 7.08472 21.1441Q6.3904 22.0101 5.76064 22.8978Q5.13089 23.7855 4.56723 24.6927Q4.00357 25.5999 3.50736 26.5244Q3.01114 27.4489 2.58358 28.3886Q2.15601 29.3283 1.79812 30.2808Q1.44023 31.2333 1.15288 32.1964Q0.865531 33.1595 0.649409 34.1308Q0.433287 35.1021 0.288916 36.0793Q0.144545 37.0565 0.0722726 38.0373Q0 39.0181 0 40Q0 40.9819 0.0722726 41.9627Q0.144545 42.9435 0.288916 43.9207Q0.433287 44.8979 0.649409 45.8692Q0.865531 46.8405 1.15288 47.8036Q1.44023 48.7667 1.79812 49.7192Q2.15601 50.6717 2.58358 51.6114Q3.01114 52.551 3.50736 53.4756Q4.00357 54.4001 4.56723 55.3073Q5.13089 56.2145 5.76064 57.1022Q6.3904 57.9899 7.08472 58.8559Q7.77905 59.7219 8.53628 60.5641Q9.29351 61.4063 10.1118 62.2228Q10.9301 63.0393 11.8075 63.828Q12.685 64.6167 13.6194 65.3757Q14.5538 66.1348 15.5429 66.8624Q16.5321 67.5899 17.5736 68.2843Q18.6151 68.9786 19.7065 69.638Q20.7978 70.2975 21.9364 70.9204Q23.075 71.5434 24.258 72.1283Q25.4411 72.7132 26.6658 73.2588Q27.8905 73.8043 29.1538 74.3091Q30.4172 74.814 31.7162 75.2768Q33.0152 75.7397 34.3467 76.1596Q35.6782 76.5794 37.039 76.9552Q38.3998 77.3309 39.7866 77.6618Q41.1734 77.9926 42.5829 78.2776Q43.9924 78.5627 45.4212 78.8013Q46.85 79.0398 48.2946 79.2314Q49.7392 79.423 51.1962 79.5671Q52.6531 79.7112 54.119 79.8074Q55.5848 79.9036 57.0559 79.9518Q58.5271 80 60 80Q61.4729 80 62.9441 79.9518Q64.4152 79.9036 65.881 79.8074Q67.3469 79.7111 68.8038 79.5671Q70.2608 79.423 71.7054 79.2314Q73.15 79.0398 74.5788 78.8012Q76.0076 78.5627 77.4171 78.2776Q78.8266 77.9926 80.2134 77.6618Q81.6002 77.3309 82.961 76.9552Q84.3218 76.5794 85.6533 76.1596Q86.9848 75.7397 88.2838 75.2768Q89.5828 74.814 90.8462 74.3091Q92.1095 73.8043 93.3342 73.2588Q94.5589 72.7132 95.7419 72.1283Q96.925 71.5434 98.0636 70.9204Q99.2022 70.2975 100.294 69.638Q101.385 68.9786 102.426 68.2843Q103.468 67.5899 104.457 66.8624Q105.446 66.1348 106.381 65.3757Q107.315 64.6167 108.192 63.828Q109.07 63.0393 109.888 62.2228Q110.706 61.4063 111.464 60.5641Q112.221 59.7219 112.915 58.8559Q113.61 57.9899 114.239 57.1022Q114.869 56.2145 115.433 55.3073Q115.996 54.4001 116.493 53.4756Q116.989 52.551 117.416 51.6114Q117.844 50.6717 118.202 49.7192Q118.56 48.7667 118.847 47.8036Q119.134 46.8405 119.351 45.8692Q119.567 44.8979 119.711 43.9207Q119.855 42.9435 119.928 41.9627Q120 40.9819 120 40Q120 39.0181 119.928 38.0373Q119.855 37.0565 119.711 36.0793Q119.567 35.1021 119.351 34.1308Q119.134 33.1595 118.847 32.1964Q118.56 31.2333 118.202 30.2808Q117.844 29.3283 117.416 28.3886Q116.989 27.4489 116.493 26.5244Q115.996 25.5999 115.433 24.6927Q114.869 23.7855 114.239 22.8978Q113.61 22.0101 112.915 21.1441Q112.221 20.2781 111.464 19.4359Q110.706 18.5936 109.888 17.7772Q109.07 16.9607 108.192 16.172Q107.315 15.3833 106.381 14.6243Q105.446 13.8652 104.457 13.1376Q103.468 12.4101 102.426 11.7157Q101.385 11.0214 100.294 10.362Q99.2022 9.70252 98.0636 9.07958Q96.925 8.45664 95.7419 7.8717Q94.5589 7.28675 93.3342 6.74121Q92.1095 6.19567 90.8462 5.69085Q89.5828 5.18603 88.2838 4.72315Q86.9848 4.26026 85.6533 3.84043Q84.3218 3.42059 82.961 3.04482Q81.6002 2.66904 80.2134 2.33824Q78.8266 2.00743 77.4171 1.72239Q76.0076 1.43734 74.5788 1.19875Q73.15 0.960157 71.7054 0.768589Q70.2608 0.577021 68.8038 0.43294Q67.3469 0.288858 65.881 0.192611Q64.4152 0.0963635 62.9441 0.0481817Q61.4729 0 60 0Z"/>    
</g>
</svg>