<svg xmlns="http://www.w3.org/2000/svg" version="1.1" xmlns:xlink="http://www.w3.org/1999/xlink" xmlns:svgjs="http://svgjs.dev/svgjs"  width="550" height="500" viewbox="0 0 550 500"   shape-rendering="geometricPrecision">
<g transform="translate(0, 0) ">
    <path fill="#FFFFFFFF" stroke="#323232FF" stroke-width="2"  d="M0 0L0 500L550 500L550 0L0 0ZM295 0L295 500M550 0L550 500M40 262L550 262M40 500L550 500"/>    
    <g>
        <g transform="translate(0, 0) ">
            <path fill="#FFFFFFFF" stroke="#323232FF" stroke-width="1.5"  d="M0 0L0 500L40 500L40 0L0 0Z"/>    
            <g transform="matrix(-0.00, -1.00, 1.00, -0.00, 0.00, 500.00)">
                <path fill="#323232FF" stroke="#323232FF" stroke-linecap="round" stroke-linejoin="round" stroke-width="0.1"   d="M236.27 16.05L236.27 26L234.95 26L234.95 21.40L229.94 21.40L229.94 26L228.62 26L228.62 16.05L229.94 16.05L229.94 20.33L234.95 20.33L234.95 16.05L236.27 16.05ZM241.48 26.14L241.48 26.14Q239.97 26.14 239.03 25.15Q238.08 24.16 238.08 22.51L238.08 22.51L238.08 22.27Q238.08 21.17 238.51 20.31Q238.93 19.44 239.68 18.96Q240.44 18.47 241.32 18.47L241.32 18.47Q242.76 18.47 243.56 19.42Q244.36 20.37 244.36 22.14L244.36 22.14L244.36 22.66L239.35 22.66Q239.38 23.76 239.99 24.43Q240.60 25.10 241.54 25.10L241.54 25.10Q242.21 25.10 242.68 24.83Q243.14 24.56 243.49 24.11L243.49 24.11L244.26 24.71Q243.33 26.14 241.48 26.14ZM241.32 19.51L241.32 19.51Q240.55 19.51 240.03 20.06Q239.51 20.62 239.39 21.63L239.39 21.63L243.10 21.63L243.10 21.53Q243.04 20.57 242.58 20.04Q242.11 19.51 241.32 19.51ZM251.72 26L250.39 26Q250.28 25.78 250.21 25.22L250.21 25.22Q249.33 26.14 248.11 26.14L248.11 26.14Q247.01 26.14 246.31 25.52Q245.61 24.90 245.61 23.95L245.61 23.95Q245.61 22.79 246.49 22.15Q247.37 21.52 248.96 21.52L248.96 21.52L250.19 21.52L250.19 20.93Q250.19 20.27 249.79 19.88Q249.40 19.49 248.63 19.49L248.63 19.49Q247.95 19.49 247.49 19.83Q247.03 20.17 247.03 20.65L247.03 20.65L245.76 20.65Q245.76 20.10 246.15 19.58Q246.55 19.07 247.22 18.77Q247.89 18.47 248.70 18.47L248.70 18.47Q249.98 18.47 250.70 19.11Q251.43 19.75 251.46 20.87L251.46 20.87L251.46 24.27Q251.46 25.29 251.72 25.89L251.72 25.89L251.72 26ZM248.29 25.04L248.29 25.04Q248.89 25.04 249.42 24.73Q249.95 24.42 250.19 23.93L250.19 23.93L250.19 22.41L249.20 22.41Q246.88 22.41 246.88 23.77L246.88 23.77Q246.88 24.37 247.27 24.70Q247.67 25.04 248.29 25.04ZM253.13 22.34L253.13 22.24Q253.13 20.54 253.94 19.50Q254.74 18.47 256.05 18.47L256.05 18.47Q257.35 18.47 258.11 19.36L258.11 19.36L258.11 15.50L259.37 15.50L259.37 26L258.21 26L258.15 25.21Q257.39 26.14 256.04 26.14L256.04 26.14Q254.75 26.14 253.94 25.08Q253.13 24.03 253.13 22.34L253.13 22.34ZM254.40 22.38L254.40 22.38Q254.40 23.64 254.92 24.35Q255.43 25.06 256.35 25.06L256.35 25.06Q257.55 25.06 258.11 23.98L258.11 23.98L258.11 20.59Q257.54 19.54 256.36 19.54L256.36 19.54Q255.43 19.54 254.92 20.26Q254.40 20.98 254.40 22.38ZM264.40 26.14L264.40 26.14Q262.90 26.14 261.96 25.15Q261.01 24.16 261.01 22.51L261.01 22.51L261.01 22.27Q261.01 21.17 261.43 20.31Q261.85 19.44 262.61 18.96Q263.36 18.47 264.25 18.47L264.25 18.47Q265.69 18.47 266.49 19.42Q267.29 20.37 267.29 22.14L267.29 22.14L267.29 22.66L262.28 22.66Q262.30 23.76 262.92 24.43Q263.53 25.10 264.47 25.10L264.47 25.10Q265.14 25.10 265.61 24.83Q266.07 24.56 266.42 24.11L266.42 24.11L267.19 24.71Q266.26 26.14 264.40 26.14ZM264.25 19.51L264.25 19.51Q263.48 19.51 262.96 20.06Q262.44 20.62 262.32 21.63L262.32 21.63L266.02 21.63L266.02 21.53Q265.97 20.57 265.50 20.04Q265.04 19.51 264.25 19.51ZM272.33 18.56L272.33 19.74Q272.04 19.69 271.70 19.69L271.70 19.69Q270.46 19.69 270.02 20.75L270.02 20.75L270.02 26L268.75 26L268.75 18.60L269.98 18.60L270.00 19.46Q270.62 18.47 271.77 18.47L271.77 18.47Q272.13 18.47 272.33 18.56L272.33 18.56Z"/>
            </g>
        </g>
        <g transform="translate(40, 0) ">
            <path fill="#FFFFFFFF" stroke="#323232FF" stroke-width="1.5"  d="M0 0L0 24L255 24L255 0L0 0Z"/>    
            <g transform="matrix(1.00, 0.00, 0.00, 1.00, 0.00, 0.00)">
                <path fill="#323232FF" stroke="#323232FF" stroke-linecap="round" stroke-linejoin="round" stroke-width="0.1"   d="M113.71 13.56L113.71 13.56Q112.02 13.08 111.25 12.37Q110.48 11.66 110.48 10.62L110.48 10.62Q110.48 9.45 111.42 8.68Q112.36 7.91 113.86 7.91L113.86 7.91Q114.89 7.91 115.69 8.31Q116.49 8.70 116.94 9.40Q117.38 10.10 117.38 10.92L117.38 10.92L116.06 10.92Q116.06 10.02 115.48 9.51Q114.91 8.99 113.86 8.99L113.86 8.99Q112.89 8.99 112.35 9.42Q111.80 9.84 111.80 10.60L111.80 10.60Q111.80 11.21 112.32 11.63Q112.84 12.05 114.08 12.40Q115.32 12.75 116.02 13.17Q116.72 13.59 117.06 14.15Q117.40 14.71 117.40 15.47L117.40 15.47Q117.40 16.68 116.45 17.41Q115.51 18.14 113.93 18.14L113.93 18.14Q112.91 18.14 112.02 17.74Q111.13 17.35 110.65 16.67Q110.16 15.98 110.16 15.12L110.16 15.12L111.48 15.12Q111.48 16.02 112.15 16.54Q112.82 17.06 113.93 17.06L113.93 17.06Q114.97 17.06 115.52 16.64Q116.08 16.22 116.08 15.48Q116.08 14.75 115.56 14.35Q115.05 13.95 113.71 13.56ZM119.33 8.81L120.60 8.81L120.60 10.60L121.98 10.60L121.98 11.58L120.60 11.58L120.60 16.17Q120.60 16.61 120.78 16.83Q120.96 17.06 121.41 17.06L121.41 17.06Q121.63 17.06 122.01 16.97L122.01 16.97L122.01 18Q121.51 18.14 121.04 18.14L121.04 18.14Q120.19 18.14 119.76 17.62Q119.33 17.11 119.33 16.17L119.33 16.17L119.33 11.58L117.98 11.58L117.98 10.60L119.33 10.60L119.33 8.81ZM129.35 18L128.02 18Q127.91 17.78 127.84 17.22L127.84 17.22Q126.96 18.14 125.74 18.14L125.74 18.14Q124.64 18.14 123.94 17.52Q123.24 16.90 123.24 15.95L123.24 15.95Q123.24 14.79 124.12 14.15Q125.00 13.52 126.59 13.52L126.59 13.52L127.82 13.52L127.82 12.93Q127.82 12.27 127.42 11.88Q127.03 11.49 126.26 11.49L126.26 11.49Q125.58 11.49 125.12 11.83Q124.66 12.17 124.66 12.65L124.66 12.65L123.39 12.65Q123.39 12.10 123.78 11.58Q124.18 11.07 124.85 10.77Q125.52 10.47 126.33 10.47L126.33 10.47Q127.61 10.47 128.33 11.11Q129.06 11.75 129.09 12.87L129.09 12.87L129.09 16.27Q129.09 17.29 129.35 17.89L129.35 17.89L129.35 18ZM125.92 17.04L125.92 17.04Q126.52 17.04 127.05 16.73Q127.58 16.42 127.82 15.93L127.82 15.93L127.82 14.41L126.83 14.41Q124.51 14.41 124.51 15.77L124.51 15.77Q124.51 16.37 124.90 16.70Q125.30 17.04 125.92 17.04ZM130.77 14.24L130.77 14.24Q130.77 12.51 131.57 11.49Q132.37 10.47 133.69 10.47L133.69 10.47Q135.04 10.47 135.80 11.42L135.80 11.42L135.86 10.60L137.02 10.60L137.02 17.82Q137.02 19.26 136.16 20.08Q135.31 20.91 133.88 20.91L133.88 20.91Q133.08 20.91 132.31 20.57Q131.55 20.23 131.14 19.63L131.14 19.63L131.80 18.88Q132.61 19.88 133.79 19.88L133.79 19.88Q134.71 19.88 135.23 19.36Q135.74 18.84 135.74 17.90L135.74 17.90L135.74 17.26Q134.99 18.14 133.67 18.14L133.67 18.14Q132.37 18.14 131.57 17.09Q130.77 16.04 130.77 14.24ZM132.04 14.38L132.04 14.38Q132.04 15.63 132.55 16.35Q133.06 17.06 133.99 17.06L133.99 17.06Q135.18 17.06 135.74 15.98L135.74 15.98L135.74 12.60Q135.16 11.54 134.00 11.54L134.00 11.54Q133.08 11.54 132.56 12.26Q132.04 12.98 132.04 14.38ZM141.99 18.14L141.99 18.14Q140.49 18.14 139.54 17.15Q138.60 16.16 138.60 14.51L138.60 14.51L138.60 14.27Q138.60 13.17 139.02 12.31Q139.44 11.44 140.20 10.96Q140.95 10.47 141.83 10.47L141.83 10.47Q143.28 10.47 144.08 11.42Q144.88 12.37 144.88 14.14L144.88 14.14L144.88 14.66L139.87 14.66Q139.89 15.76 140.51 16.43Q141.12 17.10 142.06 17.10L142.06 17.10Q142.73 17.10 143.20 16.83Q143.66 16.56 144.01 16.11L144.01 16.11L144.78 16.71Q143.85 18.14 141.99 18.14ZM141.83 11.51L141.83 11.51Q141.07 11.51 140.55 12.06Q140.03 12.62 139.91 13.63L139.91 13.63L143.61 13.63L143.61 13.53Q143.56 12.57 143.09 12.04Q142.63 11.51 141.83 11.51Z"/>
            </g>
        </g>
        <g transform="translate(295, 0) ">
            <path fill="#FFFFFFFF" stroke="#323232FF" stroke-width="1.5"  d="M0 0L0 24L255 24L255 0L0 0Z"/>    
            <g transform="matrix(1.00, 0.00, 0.00, 1.00, 0.00, 0.00)">
                <path fill="#323232FF" stroke="#323232FF" stroke-linecap="round" stroke-linejoin="round" stroke-width="0.1"   d="M113.71 13.56L113.71 13.56Q112.02 13.08 111.25 12.37Q110.48 11.66 110.48 10.62L110.48 10.62Q110.48 9.45 111.42 8.68Q112.36 7.91 113.86 7.91L113.86 7.91Q114.89 7.91 115.69 8.31Q116.49 8.70 116.94 9.40Q117.38 10.10 117.38 10.92L117.38 10.92L116.06 10.92Q116.06 10.02 115.48 9.51Q114.91 8.99 113.86 8.99L113.86 8.99Q112.89 8.99 112.35 9.42Q111.80 9.84 111.80 10.60L111.80 10.60Q111.80 11.21 112.32 11.63Q112.84 12.05 114.08 12.40Q115.32 12.75 116.02 13.17Q116.72 13.59 117.06 14.15Q117.40 14.71 117.40 15.47L117.40 15.47Q117.40 16.68 116.45 17.41Q115.51 18.14 113.93 18.14L113.93 18.14Q112.91 18.14 112.02 17.74Q111.13 17.35 110.65 16.67Q110.16 15.98 110.16 15.12L110.16 15.12L111.48 15.12Q111.48 16.02 112.15 16.54Q112.82 17.06 113.93 17.06L113.93 17.06Q114.97 17.06 115.52 16.64Q116.08 16.22 116.08 15.48Q116.08 14.75 115.56 14.35Q115.05 13.95 113.71 13.56ZM119.33 8.81L120.60 8.81L120.60 10.60L121.98 10.60L121.98 11.58L120.60 11.58L120.60 16.17Q120.60 16.61 120.78 16.83Q120.96 17.06 121.41 17.06L121.41 17.06Q121.63 17.06 122.01 16.97L122.01 16.97L122.01 18Q121.51 18.14 121.04 18.14L121.04 18.14Q120.19 18.14 119.76 17.62Q119.33 17.11 119.33 16.17L119.33 16.17L119.33 11.58L117.98 11.58L117.98 10.60L119.33 10.60L119.33 8.81ZM129.35 18L128.02 18Q127.91 17.78 127.84 17.22L127.84 17.22Q126.96 18.14 125.74 18.14L125.74 18.14Q124.64 18.14 123.94 17.52Q123.24 16.90 123.24 15.95L123.24 15.95Q123.24 14.79 124.12 14.15Q125.00 13.52 126.59 13.52L126.59 13.52L127.82 13.52L127.82 12.93Q127.82 12.27 127.42 11.88Q127.03 11.49 126.26 11.49L126.26 11.49Q125.58 11.49 125.12 11.83Q124.66 12.17 124.66 12.65L124.66 12.65L123.39 12.65Q123.39 12.10 123.78 11.58Q124.18 11.07 124.85 10.77Q125.52 10.47 126.33 10.47L126.33 10.47Q127.61 10.47 128.33 11.11Q129.06 11.75 129.09 12.87L129.09 12.87L129.09 16.27Q129.09 17.29 129.35 17.89L129.35 17.89L129.35 18ZM125.92 17.04L125.92 17.04Q126.52 17.04 127.05 16.73Q127.58 16.42 127.82 15.93L127.82 15.93L127.82 14.41L126.83 14.41Q124.51 14.41 124.51 15.77L124.51 15.77Q124.51 16.37 124.90 16.70Q125.30 17.04 125.92 17.04ZM130.77 14.24L130.77 14.24Q130.77 12.51 131.57 11.49Q132.37 10.47 133.69 10.47L133.69 10.47Q135.04 10.47 135.80 11.42L135.80 11.42L135.86 10.60L137.02 10.60L137.02 17.82Q137.02 19.26 136.16 20.08Q135.31 20.91 133.88 20.91L133.88 20.91Q133.08 20.91 132.31 20.57Q131.55 20.23 131.14 19.63L131.14 19.63L131.80 18.88Q132.61 19.88 133.79 19.88L133.79 19.88Q134.71 19.88 135.23 19.36Q135.74 18.84 135.74 17.90L135.74 17.90L135.74 17.26Q134.99 18.14 133.67 18.14L133.67 18.14Q132.37 18.14 131.57 17.09Q130.77 16.04 130.77 14.24ZM132.04 14.38L132.04 14.38Q132.04 15.63 132.55 16.35Q133.06 17.06 133.99 17.06L133.99 17.06Q135.18 17.06 135.74 15.98L135.74 15.98L135.74 12.60Q135.16 11.54 134.00 11.54L134.00 11.54Q133.08 11.54 132.56 12.26Q132.04 12.98 132.04 14.38ZM141.99 18.14L141.99 18.14Q140.49 18.14 139.54 17.15Q138.60 16.16 138.60 14.51L138.60 14.51L138.60 14.27Q138.60 13.17 139.02 12.31Q139.44 11.44 140.20 10.96Q140.95 10.47 141.83 10.47L141.83 10.47Q143.28 10.47 144.08 11.42Q144.88 12.37 144.88 14.14L144.88 14.14L144.88 14.66L139.87 14.66Q139.89 15.76 140.51 16.43Q141.12 17.10 142.06 17.10L142.06 17.10Q142.73 17.10 143.20 16.83Q143.66 16.56 144.01 16.11L144.01 16.11L144.78 16.71Q143.85 18.14 141.99 18.14ZM141.83 11.51L141.83 11.51Q141.07 11.51 140.55 12.06Q140.03 12.62 139.91 13.63L139.91 13.63L143.61 13.63L143.61 13.53Q143.56 12.57 143.09 12.04Q142.63 11.51 141.83 11.51Z"/>
            </g>
        </g>
        <g transform="translate(40, 24) ">
            <path fill="#FFFFFFFF" stroke="#323232FF" stroke-width="1.5"  d="M0 0L0 238L30 238L30 0L0 0Z"/>    
            <g transform="matrix(-0.00, -1.00, 1.00, -0.00, 0.00, 238.00)">
                <path fill="#323232FF" stroke="#323232FF" stroke-linecap="round" stroke-linejoin="round" stroke-width="0.1"   d="M109.76 17.10L107.41 17.10L107.41 21L106.10 21L106.10 11.05L109.77 11.05Q111.41 11.05 112.33 11.88Q113.26 12.71 113.26 14.09L113.26 14.09Q113.26 15.54 112.35 16.32Q111.45 17.10 109.76 17.10L109.76 17.10ZM107.41 12.13L107.41 16.03L109.77 16.03Q110.82 16.03 111.38 15.53Q111.95 15.04 111.95 14.10L111.95 14.10Q111.95 13.21 111.38 12.68Q110.82 12.15 109.85 12.13L109.85 12.13L107.41 12.13ZM114.31 17.32L114.31 17.23Q114.31 16.15 114.74 15.28Q115.17 14.41 115.93 13.94Q116.69 13.47 117.67 13.47L117.67 13.47Q119.18 13.47 120.11 14.51Q121.04 15.56 121.04 17.29L121.04 17.29L121.04 17.38Q121.04 18.46 120.63 19.32Q120.22 20.18 119.45 20.66Q118.68 21.14 117.68 21.14L117.68 21.14Q116.18 21.14 115.24 20.09Q114.31 19.04 114.31 17.32L114.31 17.32ZM115.58 17.38L115.58 17.38Q115.58 18.61 116.15 19.36Q116.72 20.10 117.68 20.10L117.68 20.10Q118.64 20.10 119.21 19.35Q119.78 18.59 119.78 17.23L119.78 17.23Q119.78 16.02 119.20 15.26Q118.62 14.51 117.67 14.51L117.67 14.51Q116.73 14.51 116.16 15.25Q115.58 16.00 115.58 17.38ZM122.29 17.32L122.29 17.23Q122.29 16.15 122.72 15.28Q123.15 14.41 123.91 13.94Q124.67 13.47 125.65 13.47L125.65 13.47Q127.16 13.47 128.10 14.51Q129.03 15.56 129.03 17.29L129.03 17.29L129.03 17.38Q129.03 18.46 128.61 19.32Q128.20 20.18 127.43 20.66Q126.66 21.14 125.67 21.14L125.67 21.14Q124.16 21.14 123.23 20.09Q122.29 19.04 122.29 17.32L122.29 17.32ZM123.57 17.38L123.57 17.38Q123.57 18.61 124.14 19.36Q124.71 20.10 125.67 20.10L125.67 20.10Q126.63 20.10 127.20 19.35Q127.76 18.59 127.76 17.23L127.76 17.23Q127.76 16.02 127.19 15.26Q126.61 14.51 125.65 14.51L125.65 14.51Q124.71 14.51 124.14 15.25Q123.57 16.00 123.57 17.38ZM131.99 10.50L131.99 21L130.72 21L130.72 10.50L131.99 10.50Z"/>
            </g>
        </g>
        <g transform="translate(40, 262) ">
            <path fill="#FFFFFFFF" stroke="#323232FF" stroke-width="1.5"  d="M0 0L0 238L30 238L30 0L0 0Z"/>    
            <g transform="matrix(-0.00, -1.00, 1.00, -0.00, 0.00, 238.00)">
                <path fill="#323232FF" stroke="#323232FF" stroke-linecap="round" stroke-linejoin="round" stroke-width="0.1"   d="M109.76 17.10L107.41 17.10L107.41 21L106.10 21L106.10 11.05L109.77 11.05Q111.41 11.05 112.33 11.88Q113.26 12.71 113.26 14.09L113.26 14.09Q113.26 15.54 112.35 16.32Q111.45 17.10 109.76 17.10L109.76 17.10ZM107.41 12.13L107.41 16.03L109.77 16.03Q110.82 16.03 111.38 15.53Q111.95 15.04 111.95 14.10L111.95 14.10Q111.95 13.21 111.38 12.68Q110.82 12.15 109.85 12.13L109.85 12.13L107.41 12.13ZM114.31 17.32L114.31 17.23Q114.31 16.15 114.74 15.28Q115.17 14.41 115.93 13.94Q116.69 13.47 117.67 13.47L117.67 13.47Q119.18 13.47 120.11 14.51Q121.04 15.56 121.04 17.29L121.04 17.29L121.04 17.38Q121.04 18.46 120.63 19.32Q120.22 20.18 119.45 20.66Q118.68 21.14 117.68 21.14L117.68 21.14Q116.18 21.14 115.24 20.09Q114.31 19.04 114.31 17.32L114.31 17.32ZM115.58 17.38L115.58 17.38Q115.58 18.61 116.15 19.36Q116.72 20.10 117.68 20.10L117.68 20.10Q118.64 20.10 119.21 19.35Q119.78 18.59 119.78 17.23L119.78 17.23Q119.78 16.02 119.20 15.26Q118.62 14.51 117.67 14.51L117.67 14.51Q116.73 14.51 116.16 15.25Q115.58 16.00 115.58 17.38ZM122.29 17.32L122.29 17.23Q122.29 16.15 122.72 15.28Q123.15 14.41 123.91 13.94Q124.67 13.47 125.65 13.47L125.65 13.47Q127.16 13.47 128.10 14.51Q129.03 15.56 129.03 17.29L129.03 17.29L129.03 17.38Q129.03 18.46 128.61 19.32Q128.20 20.18 127.43 20.66Q126.66 21.14 125.67 21.14L125.67 21.14Q124.16 21.14 123.23 20.09Q122.29 19.04 122.29 17.32L122.29 17.32ZM123.57 17.38L123.57 17.38Q123.57 18.61 124.14 19.36Q124.71 20.10 125.67 20.10L125.67 20.10Q126.63 20.10 127.20 19.35Q127.76 18.59 127.76 17.23L127.76 17.23Q127.76 16.02 127.19 15.26Q126.61 14.51 125.65 14.51L125.65 14.51Q124.71 14.51 124.14 15.25Q123.57 16.00 123.57 17.38ZM131.99 10.50L131.99 21L130.72 21L130.72 10.50L131.99 10.50Z"/>
            </g>
        </g>
    </g>
</g>
</svg>