<svg xmlns="http://www.w3.org/2000/svg" version="1.1" xmlns:xlink="http://www.w3.org/1999/xlink" xmlns:svgjs="http://svgjs.dev/svgjs" width="210" height="210" viewbox="0 0 210 210"   shape-rendering="geometricPrecision">
<g id="95bf1f86e9ef485eaf617b3e5b4054e5" transform="translate(5, 5) ">
    <path fill="#FFFFFFFF" stroke="#323232FF" stroke-width="2" d="M0 90L0 200L32 200L32 90L0 90ZM32 0L32 200L200 200L200 0L32 0Z"/>    
    <g transform="matrix(-0.00, -1.00, 1.00, -0.00, 0.00, 110.00)">
        <path fill="#000000FF" stroke="#000000FF" stroke-linecap="round" stroke-linejoin="round" stroke-width="0.1"   d="M-57.99 18.84L-56.67 18.84Q-56.85 20.42-57.83 21.28Q-58.81 22.14-60.44 22.14L-60.44 22.14Q-62.20 22.14-63.27 20.87Q-64.33 19.61-64.33 17.49L-64.33 17.49L-64.33 16.53Q-64.33 15.14-63.83 14.09Q-63.34 13.04-62.43 12.47Q-61.52 11.91-60.32 11.91L-60.32 11.91Q-58.74 11.91-57.78 12.80Q-56.82 13.68-56.67 15.25L-56.67 15.25L-57.99 15.25Q-58.16 14.06-58.73 13.52Q-59.30 12.99-60.32 12.99L-60.32 12.99Q-61.58 12.99-62.30 13.92Q-63.01 14.85-63.01 16.57L-63.01 16.57L-63.01 17.53Q-63.01 19.15-62.33 20.11Q-61.66 21.06-60.44 21.06L-60.44 21.06Q-59.35 21.06-58.76 20.57Q-58.18 20.07-57.99 18.84L-57.99 18.84ZM-55.41 18.32L-55.41 18.23Q-55.41 17.15-54.98 16.28Q-54.55 15.41-53.79 14.94Q-53.03 14.47-52.05 14.47L-52.05 14.47Q-50.54 14.47-49.61 15.51Q-48.68 16.56-48.68 18.29L-48.68 18.29L-48.68 18.38Q-48.68 19.46-49.09 20.32Q-49.50 21.18-50.27 21.66Q-51.04 22.14-52.04 22.14L-52.04 22.14Q-53.54 22.14-54.48 21.09Q-55.41 20.04-55.41 18.32L-55.41 18.32ZM-54.14 18.38L-54.14 18.38Q-54.14 19.61-53.57 20.36Q-53.00 21.10-52.04 21.10L-52.04 21.10Q-51.07 21.10-50.51 20.35Q-49.94 19.59-49.94 18.23L-49.94 18.23Q-49.94 17.02-50.52 16.26Q-51.10 15.51-52.05 15.51L-52.05 15.51Q-52.99 15.51-53.56 16.25Q-54.14 17.00-54.14 18.38ZM-47.09 14.60L-45.89 14.60L-45.85 15.53Q-45.00 14.47-43.64 14.47L-43.64 14.47Q-41.29 14.47-41.27 17.11L-41.27 17.11L-41.27 22L-42.54 22L-42.54 17.11Q-42.54 16.31-42.90 15.92Q-43.26 15.54-44.02 15.54L-44.02 15.54Q-44.64 15.54-45.10 15.87Q-45.56 16.20-45.82 16.73L-45.82 16.73L-45.82 22L-47.09 22L-47.09 14.60ZM-38.91 12.81L-37.65 12.81L-37.65 14.60L-36.27 14.60L-36.27 15.58L-37.65 15.58L-37.65 20.17Q-37.65 20.61-37.46 20.83Q-37.28 21.06-36.84 21.06L-36.84 21.06Q-36.62 21.06-36.23 20.97L-36.23 20.97L-36.23 22Q-36.73 22.14-37.20 22.14L-37.20 22.14Q-38.05 22.14-38.48 21.62Q-38.91 21.11-38.91 20.17L-38.91 20.17L-38.91 15.58L-40.26 15.58L-40.26 14.60L-38.91 14.60L-38.91 12.81ZM-28.90 22L-30.23 22Q-30.33 21.78-30.40 21.22L-30.40 21.22Q-31.28 22.14-32.51 22.14L-32.51 22.14Q-33.60 22.14-34.30 21.52Q-35.00 20.90-35.00 19.95L-35.00 19.95Q-35.00 18.79-34.13 18.15Q-33.25 17.52-31.65 17.52L-31.65 17.52L-30.42 17.52L-30.42 16.93Q-30.42 16.27-30.82 15.88Q-31.22 15.49-31.99 15.49L-31.99 15.49Q-32.67 15.49-33.12 15.83Q-33.58 16.17-33.58 16.65L-33.58 16.65L-34.85 16.65Q-34.85 16.10-34.46 15.58Q-34.07 15.07-33.39 14.77Q-32.72 14.47-31.91 14.47L-31.91 14.47Q-30.64 14.47-29.91 15.11Q-29.19 15.75-29.16 16.87L-29.16 16.87L-29.16 20.27Q-29.16 21.29-28.90 21.89L-28.90 21.89L-28.90 22ZM-32.32 21.04L-32.32 21.04Q-31.73 21.04-31.20 20.73Q-30.66 20.42-30.42 19.93L-30.42 19.93L-30.42 18.41L-31.41 18.41Q-33.74 18.41-33.74 19.77L-33.74 19.77Q-33.74 20.37-33.34 20.70Q-32.95 21.04-32.32 21.04ZM-25.80 14.60L-25.80 22L-27.07 22L-27.07 14.60L-25.80 14.60ZM-27.17 12.64L-27.17 12.64Q-27.17 12.33-26.98 12.12Q-26.79 11.91-26.42 11.91Q-26.06 11.91-25.86 12.12Q-25.67 12.33-25.67 12.64Q-25.67 12.95-25.86 13.15Q-26.06 13.36-26.42 13.36Q-26.79 13.36-26.98 13.15Q-27.17 12.95-27.17 12.64ZM-23.78 14.60L-22.58 14.60L-22.54 15.53Q-21.69 14.47-20.33 14.47L-20.33 14.47Q-17.98 14.47-17.96 17.11L-17.96 17.11L-17.96 22L-19.23 22L-19.23 17.11Q-19.23 16.31-19.59 15.92Q-19.95 15.54-20.71 15.54L-20.71 15.54Q-21.32 15.54-21.79 15.87Q-22.25 16.20-22.51 16.73L-22.51 16.73L-22.51 22L-23.78 22L-23.78 14.60ZM-12.98 22.14L-12.98 22.14Q-14.49 22.14-15.43 21.15Q-16.38 20.16-16.38 18.51L-16.38 18.51L-16.38 18.27Q-16.38 17.17-15.96 16.31Q-15.53 15.44-14.78 14.96Q-14.02 14.47-13.14 14.47L-13.14 14.47Q-11.70 14.47-10.90 15.42Q-10.10 16.37-10.10 18.14L-10.10 18.14L-10.10 18.66L-15.11 18.66Q-15.08 19.76-14.47 20.43Q-13.86 21.10-12.92 21.10L-12.92 21.10Q-12.25 21.10-11.78 20.83Q-11.32 20.56-10.97 20.11L-10.97 20.11L-10.20 20.71Q-11.13 22.14-12.98 22.14ZM-13.14 15.51L-13.14 15.51Q-13.91 15.51-14.43 16.06Q-14.95 16.62-15.07 17.63L-15.07 17.63L-11.36 17.63L-11.36 17.53Q-11.42 16.57-11.88 16.04Q-12.35 15.51-13.14 15.51ZM-5.06 14.56L-5.06 15.74Q-5.35 15.69-5.68 15.69L-5.68 15.69Q-6.93 15.69-7.37 16.75L-7.37 16.75L-7.37 22L-8.64 22L-8.64 14.60L-7.41 14.60L-7.39 15.46Q-6.76 14.47-5.62 14.47L-5.62 14.47Q-5.25 14.47-5.06 14.56L-5.06 14.56Z"/>
    </g>
</g>
</svg>