<svg xmlns="http://www.w3.org/2000/svg" version="1.1" xmlns:xlink="http://www.w3.org/1999/xlink" xmlns:svgjs="http://svgjs.dev/svgjs" width="210" height="210" viewbox="0 0 210 210"   shape-rendering="geometricPrecision">
<g id="57a3faf48ae04d8e88a37404dc250062" transform="translate(5, 5) ">
    <path fill="#FFFFFFFF" stroke="#323232FF" stroke-width="2" d="M0 0L0 200L32 200L32 0L0 0ZM32 0L32 200L200 200L200 0L32 0Z"/>    
    <g transform="matrix(-1.8369701987210297e-16, -1.8369701987210297e-16, 1, 0, -1, -1.8369701987210297e-16, 200)">
        <path fill="#000000FF" stroke="#000000FF" stroke-linecap="round" stroke-linejoin="round" stroke-width="0.1"   d="M42.74 12.05L42.74 22L41.42 22L41.42 17.40L36.41 17.40L36.41 22L35.09 22L35.09 12.05L36.41 12.05L36.41 16.33L41.42 16.33L41.42 12.05L42.74 12.05ZM44.54 18.32L44.54 18.23Q44.54 17.15 44.97 16.28Q45.39 15.41 46.16 14.94Q46.92 14.47 47.90 14.47L47.90 14.47Q49.41 14.47 50.34 15.51Q51.27 16.56 51.27 18.29L51.27 18.29L51.27 18.38Q51.27 19.46 50.86 20.32Q50.45 21.18 49.68 21.66Q48.91 22.14 47.91 22.14L47.91 22.14Q46.41 22.14 45.47 21.09Q44.54 20.04 44.54 18.32L44.54 18.32ZM45.81 18.38L45.81 18.38Q45.81 19.61 46.38 20.36Q46.95 21.10 47.91 21.10L47.91 21.10Q48.87 21.10 49.44 20.35Q50.01 19.59 50.01 18.23L50.01 18.23Q50.01 17.02 49.43 16.26Q48.85 15.51 47.90 15.51L47.90 15.51Q46.96 15.51 46.39 16.25Q45.81 17.00 45.81 18.38ZM56.43 14.56L56.43 15.74Q56.15 15.69 55.81 15.69L55.81 15.69Q54.57 15.69 54.12 16.75L54.12 16.75L54.12 22L52.86 22L52.86 14.60L54.09 14.60L54.11 15.46Q54.73 14.47 55.87 14.47L55.87 14.47Q56.24 14.47 56.43 14.56L56.43 14.56ZM58.97 14.60L58.97 22L57.71 22L57.71 14.60L58.97 14.60ZM57.60 12.64L57.60 12.64Q57.60 12.33 57.79 12.12Q57.98 11.91 58.35 11.91Q58.72 11.91 58.91 12.12Q59.10 12.33 59.10 12.64Q59.10 12.95 58.91 13.15Q58.72 13.36 58.35 13.36Q57.98 13.36 57.79 13.15Q57.60 12.95 57.60 12.64ZM66.31 15.50L62.18 20.97L66.51 20.97L66.51 22L60.64 22L60.64 21.07L64.72 15.65L60.70 15.65L60.70 14.60L66.31 14.60L66.31 15.50ZM67.49 18.32L67.49 18.23Q67.49 17.15 67.92 16.28Q68.34 15.41 69.10 14.94Q69.87 14.47 70.84 14.47L70.84 14.47Q72.36 14.47 73.29 15.51Q74.22 16.56 74.22 18.29L74.22 18.29L74.22 18.38Q74.22 19.46 73.81 20.32Q73.39 21.18 72.63 21.66Q71.86 22.14 70.86 22.14L70.86 22.14Q69.35 22.14 68.42 21.09Q67.49 20.04 67.49 18.32L67.49 18.32ZM68.76 18.38L68.76 18.38Q68.76 19.61 69.33 20.36Q69.90 21.10 70.86 21.10L70.86 21.10Q71.82 21.10 72.39 20.35Q72.96 19.59 72.96 18.23L72.96 18.23Q72.96 17.02 72.38 16.26Q71.80 15.51 70.84 15.51L70.84 15.51Q69.91 15.51 69.33 16.25Q68.76 17.00 68.76 18.38ZM75.81 14.60L77.00 14.60L77.04 15.53Q77.89 14.47 79.26 14.47L79.26 14.47Q81.60 14.47 81.63 17.11L81.63 17.11L81.63 22L80.36 22L80.36 17.11Q80.35 16.31 79.99 15.92Q79.64 15.54 78.88 15.54L78.88 15.54Q78.26 15.54 77.80 15.87Q77.33 16.20 77.07 16.73L77.07 16.73L77.07 22L75.81 22L75.81 14.60ZM83.98 12.81L85.25 12.81L85.25 14.60L86.63 14.60L86.63 15.58L85.25 15.58L85.25 20.17Q85.25 20.61 85.43 20.83Q85.62 21.06 86.06 21.06L86.06 21.06Q86.28 21.06 86.66 20.97L86.66 20.97L86.66 22Q86.16 22.14 85.69 22.14L85.69 22.14Q84.84 22.14 84.41 21.62Q83.98 21.11 83.98 20.17L83.98 20.17L83.98 15.58L82.64 15.58L82.64 14.60L83.98 14.60L83.98 12.81ZM94.00 22L92.67 22Q92.56 21.78 92.49 21.22L92.49 21.22Q91.61 22.14 90.39 22.14L90.39 22.14Q89.29 22.14 88.59 21.52Q87.89 20.90 87.89 19.95L87.89 19.95Q87.89 18.79 88.77 18.15Q89.65 17.52 91.24 17.52L91.24 17.52L92.47 17.52L92.47 16.93Q92.47 16.27 92.08 15.88Q91.68 15.49 90.91 15.49L90.91 15.49Q90.23 15.49 89.77 15.83Q89.32 16.17 89.32 16.65L89.32 16.65L88.04 16.65Q88.04 16.10 88.44 15.58Q88.83 15.07 89.50 14.77Q90.18 14.47 90.98 14.47L90.98 14.47Q92.26 14.47 92.99 15.11Q93.71 15.75 93.74 16.87L93.74 16.87L93.74 20.27Q93.74 21.29 94.00 21.89L94.00 21.89L94.00 22ZM90.57 21.04L90.57 21.04Q91.17 21.04 91.70 20.73Q92.23 20.42 92.47 19.93L92.47 19.93L92.47 18.41L91.48 18.41Q89.16 18.41 89.16 19.77L89.16 19.77Q89.16 20.37 89.55 20.70Q89.95 21.04 90.57 21.04ZM97.09 11.50L97.09 22L95.83 22L95.83 11.50L97.09 11.50ZM108.78 18.84L110.10 18.84Q109.92 20.42 108.94 21.28Q107.96 22.14 106.33 22.14L106.33 22.14Q104.57 22.14 103.50 20.87Q102.44 19.61 102.44 17.49L102.44 17.49L102.44 16.53Q102.44 15.14 102.94 14.09Q103.43 13.04 104.34 12.47Q105.25 11.91 106.45 11.91L106.45 11.91Q108.03 11.91 108.99 12.80Q109.95 13.68 110.10 15.25L110.10 15.25L108.78 15.25Q108.61 14.06 108.04 13.52Q107.47 12.99 106.45 12.99L106.45 12.99Q105.19 12.99 104.47 13.92Q103.76 14.85 103.76 16.57L103.76 16.57L103.76 17.53Q103.76 19.15 104.44 20.11Q105.11 21.06 106.33 21.06L106.33 21.06Q107.42 21.06 108.01 20.57Q108.59 20.07 108.78 18.84L108.78 18.84ZM111.36 18.32L111.36 18.23Q111.36 17.15 111.79 16.28Q112.22 15.41 112.98 14.94Q113.74 14.47 114.72 14.47L114.72 14.47Q116.23 14.47 117.16 15.51Q118.09 16.56 118.09 18.29L118.09 18.29L118.09 18.38Q118.09 19.46 117.68 20.32Q117.27 21.18 116.50 21.66Q115.73 22.14 114.73 22.14L114.73 22.14Q113.23 22.14 112.29 21.09Q111.36 20.04 111.36 18.32L111.36 18.32ZM112.63 18.38L112.63 18.38Q112.63 19.61 113.20 20.36Q113.77 21.10 114.73 21.10L114.73 21.10Q115.70 21.10 116.26 20.35Q116.83 19.59 116.83 18.23L116.83 18.23Q116.83 17.02 116.25 16.26Q115.67 15.51 114.72 15.51L114.72 15.51Q113.78 15.51 113.21 16.25Q112.63 17.00 112.63 18.38ZM119.68 14.60L120.88 14.60L120.92 15.53Q121.77 14.47 123.13 14.47L123.13 14.47Q125.48 14.47 125.50 17.11L125.50 17.11L125.50 22L124.23 22L124.23 17.11Q124.23 16.31 123.87 15.92Q123.51 15.54 122.75 15.54L122.75 15.54Q122.13 15.54 121.67 15.87Q121.21 16.20 120.95 16.73L120.95 16.73L120.95 22L119.68 22L119.68 14.60ZM127.86 12.81L129.12 12.81L129.12 14.60L130.50 14.60L130.50 15.58L129.12 15.58L129.12 20.17Q129.12 20.61 129.31 20.83Q129.49 21.06 129.93 21.06L129.93 21.06Q130.15 21.06 130.54 20.97L130.54 20.97L130.54 22Q130.04 22.14 129.57 22.14L129.57 22.14Q128.72 22.14 128.29 21.62Q127.86 21.11 127.86 20.17L127.86 20.17L127.86 15.58L126.51 15.58L126.51 14.60L127.86 14.60L127.86 12.81ZM137.87 22L136.54 22Q136.44 21.78 136.37 21.22L136.37 21.22Q135.49 22.14 134.26 22.14L134.26 22.14Q133.17 22.14 132.47 21.52Q131.77 20.90 131.77 19.95L131.77 19.95Q131.77 18.79 132.65 18.15Q133.52 17.52 135.12 17.52L135.12 17.52L136.35 17.52L136.35 16.93Q136.35 16.27 135.95 15.88Q135.55 15.49 134.78 15.49L134.78 15.49Q134.10 15.49 133.65 15.83Q133.19 16.17 133.19 16.65L133.19 16.65L131.92 16.65Q131.92 16.10 132.31 15.58Q132.70 15.07 133.38 14.77Q134.05 14.47 134.86 14.47L134.86 14.47Q136.13 14.47 136.86 15.11Q137.58 15.75 137.61 16.87L137.61 16.87L137.61 20.27Q137.61 21.29 137.87 21.89L137.87 21.89L137.87 22ZM134.45 21.04L134.45 21.04Q135.04 21.04 135.57 20.73Q136.11 20.42 136.35 19.93L136.35 19.93L136.35 18.41L135.36 18.41Q133.03 18.41 133.03 19.77L133.03 19.77Q133.03 20.37 133.43 20.70Q133.82 21.04 134.45 21.04ZM140.97 14.60L140.97 22L139.70 22L139.70 14.60L140.97 14.60ZM139.60 12.64L139.60 12.64Q139.60 12.33 139.79 12.12Q139.98 11.91 140.35 11.91Q140.71 11.91 140.91 12.12Q141.10 12.33 141.10 12.64Q141.10 12.95 140.91 13.15Q140.71 13.36 140.35 13.36Q139.98 13.36 139.79 13.15Q139.60 12.95 139.60 12.64ZM142.99 14.60L144.19 14.60L144.23 15.53Q145.08 14.47 146.44 14.47L146.44 14.47Q148.79 14.47 148.81 17.11L148.81 17.11L148.81 22L147.54 22L147.54 17.11Q147.54 16.31 147.18 15.92Q146.82 15.54 146.06 15.54L146.06 15.54Q145.45 15.54 144.98 15.87Q144.52 16.20 144.26 16.73L144.26 16.73L144.26 22L142.99 22L142.99 14.60ZM153.79 22.14L153.79 22.14Q152.28 22.14 151.34 21.15Q150.39 20.16 150.39 18.51L150.39 18.51L150.39 18.27Q150.39 17.17 150.81 16.31Q151.24 15.44 151.99 14.96Q152.75 14.47 153.63 14.47L153.63 14.47Q155.07 14.47 155.87 15.42Q156.67 16.37 156.67 18.14L156.67 18.14L156.67 18.66L151.66 18.66Q151.69 19.76 152.30 20.43Q152.91 21.10 153.85 21.10L153.85 21.10Q154.52 21.10 154.99 20.83Q155.45 20.56 155.80 20.11L155.80 20.11L156.57 20.71Q155.64 22.14 153.79 22.14ZM153.63 15.51L153.63 15.51Q152.86 15.51 152.34 16.06Q151.82 16.62 151.70 17.63L151.70 17.63L155.41 17.63L155.41 17.53Q155.35 16.57 154.89 16.04Q154.42 15.51 153.63 15.51ZM161.71 14.56L161.71 15.74Q161.42 15.69 161.09 15.69L161.09 15.69Q159.84 15.69 159.40 16.75L159.40 16.75L159.40 22L158.13 22L158.13 14.60L159.36 14.60L159.38 15.46Q160.01 14.47 161.15 14.47L161.15 14.47Q161.52 14.47 161.71 14.56L161.71 14.56Z"/>
    </g>
</g>
</svg>