<svg xmlns="http://www.w3.org/2000/svg" version="1.1" xmlns:xlink="http://www.w3.org/1999/xlink" xmlns:svgjs="http://svgjs.dev/svgjs"  width="550" height="250" viewbox="0 0 550 250"   shape-rendering="geometricPrecision">
<g transform="translate(0, 0) ">
    <path fill="#FFFFFFFF" stroke="#323232FF" stroke-width="2"  d="M0 0L0 250L550 250L550 0L0 0ZM40 250L550 250"/>    
    <g>
        <g transform="translate(0, 0) ">
            <path fill="#FFFFFFFF" stroke="#323232FF" stroke-width="1.5"  d="M0 0L0 250L40 250L40 0L0 0Z"/>    
            <g transform="matrix(-0.00, -1.00, 1.00, -0.00, 0.00, 250.00)">
                <path fill="#323232FF" stroke="#323232FF" stroke-linecap="round" stroke-linejoin="round" stroke-width="0.1"   d="M111.27 16.05L111.27 26L109.95 26L109.95 21.40L104.94 21.40L104.94 26L103.62 26L103.62 16.05L104.94 16.05L104.94 20.33L109.95 20.33L109.95 16.05L111.27 16.05ZM116.48 26.14L116.48 26.14Q114.97 26.14 114.03 25.15Q113.08 24.16 113.08 22.51L113.08 22.51L113.08 22.27Q113.08 21.17 113.51 20.31Q113.93 19.44 114.68 18.96Q115.44 18.47 116.32 18.47L116.32 18.47Q117.76 18.47 118.56 19.42Q119.36 20.37 119.36 22.14L119.36 22.14L119.36 22.66L114.35 22.66Q114.38 23.76 114.99 24.43Q115.60 25.10 116.54 25.10L116.54 25.10Q117.21 25.10 117.68 24.83Q118.14 24.56 118.49 24.11L118.49 24.11L119.26 24.71Q118.33 26.14 116.48 26.14ZM116.32 19.51L116.32 19.51Q115.55 19.51 115.03 20.06Q114.51 20.62 114.39 21.63L114.39 21.63L118.10 21.63L118.10 21.53Q118.04 20.57 117.58 20.04Q117.11 19.51 116.32 19.51ZM126.72 26L125.39 26Q125.28 25.78 125.21 25.22L125.21 25.22Q124.33 26.14 123.11 26.14L123.11 26.14Q122.01 26.14 121.31 25.52Q120.61 24.90 120.61 23.95L120.61 23.95Q120.61 22.79 121.49 22.15Q122.37 21.52 123.96 21.52L123.96 21.52L125.19 21.52L125.19 20.93Q125.19 20.27 124.79 19.88Q124.40 19.49 123.63 19.49L123.63 19.49Q122.95 19.49 122.49 19.83Q122.03 20.17 122.03 20.65L122.03 20.65L120.76 20.65Q120.76 20.10 121.15 19.58Q121.55 19.07 122.22 18.77Q122.89 18.47 123.70 18.47L123.70 18.47Q124.98 18.47 125.70 19.11Q126.43 19.75 126.46 20.87L126.46 20.87L126.46 24.27Q126.46 25.29 126.72 25.89L126.72 25.89L126.72 26ZM123.29 25.04L123.29 25.04Q123.89 25.04 124.42 24.73Q124.95 24.42 125.19 23.93L125.19 23.93L125.19 22.41L124.20 22.41Q121.88 22.41 121.88 23.77L121.88 23.77Q121.88 24.37 122.27 24.70Q122.67 25.04 123.29 25.04ZM128.13 22.34L128.13 22.24Q128.13 20.54 128.94 19.50Q129.74 18.47 131.05 18.47L131.05 18.47Q132.35 18.47 133.11 19.36L133.11 19.36L133.11 15.50L134.37 15.50L134.37 26L133.21 26L133.15 25.21Q132.39 26.14 131.04 26.14L131.04 26.14Q129.75 26.14 128.94 25.08Q128.13 24.03 128.13 22.34L128.13 22.34ZM129.40 22.38L129.40 22.38Q129.40 23.64 129.92 24.35Q130.43 25.06 131.35 25.06L131.35 25.06Q132.55 25.06 133.11 23.98L133.11 23.98L133.11 20.59Q132.54 19.54 131.36 19.54L131.36 19.54Q130.43 19.54 129.92 20.26Q129.40 20.98 129.40 22.38ZM139.40 26.14L139.40 26.14Q137.90 26.14 136.96 25.15Q136.01 24.16 136.01 22.51L136.01 22.51L136.01 22.27Q136.01 21.17 136.43 20.31Q136.85 19.44 137.61 18.96Q138.36 18.47 139.25 18.47L139.25 18.47Q140.69 18.47 141.49 19.42Q142.29 20.37 142.29 22.14L142.29 22.14L142.29 22.66L137.28 22.66Q137.30 23.76 137.92 24.43Q138.53 25.10 139.47 25.10L139.47 25.10Q140.14 25.10 140.61 24.83Q141.07 24.56 141.42 24.11L141.42 24.11L142.19 24.71Q141.26 26.14 139.40 26.14ZM139.25 19.51L139.25 19.51Q138.48 19.51 137.96 20.06Q137.44 20.62 137.32 21.63L137.32 21.63L141.02 21.63L141.02 21.53Q140.97 20.57 140.50 20.04Q140.04 19.51 139.25 19.51ZM147.33 18.56L147.33 19.74Q147.04 19.69 146.70 19.69L146.70 19.69Q145.46 19.69 145.02 20.75L145.02 20.75L145.02 26L143.75 26L143.75 18.60L144.98 18.60L145.00 19.46Q145.62 18.47 146.77 18.47L146.77 18.47Q147.13 18.47 147.33 18.56L147.33 18.56Z"/>
            </g>
        </g>
        <g transform="translate(40, 0) ">
            <path fill="#FFFFFFFF" stroke="#323232FF" stroke-width="1.5"  d="M0 0L0 250L30 250L30 0L0 0Z"/>    
            <g transform="matrix(-0.00, -1.00, 1.00, -0.00, 0.00, 250.00)">
                <path fill="#323232FF" stroke="#323232FF" stroke-linecap="round" stroke-linejoin="round" stroke-width="0.1"   d="M115.76 17.10L113.41 17.10L113.41 21L112.10 21L112.10 11.05L115.77 11.05Q117.41 11.05 118.33 11.88Q119.26 12.71 119.26 14.09L119.26 14.09Q119.26 15.54 118.35 16.32Q117.45 17.10 115.76 17.10L115.76 17.10ZM113.41 12.13L113.41 16.03L115.77 16.03Q116.82 16.03 117.38 15.53Q117.95 15.04 117.95 14.10L117.95 14.10Q117.95 13.21 117.38 12.68Q116.82 12.15 115.85 12.13L115.85 12.13L113.41 12.13ZM120.31 17.32L120.31 17.23Q120.31 16.15 120.74 15.28Q121.17 14.41 121.93 13.94Q122.69 13.47 123.67 13.47L123.67 13.47Q125.18 13.47 126.11 14.51Q127.04 15.56 127.04 17.29L127.04 17.29L127.04 17.38Q127.04 18.46 126.63 19.32Q126.22 20.18 125.45 20.66Q124.68 21.14 123.68 21.14L123.68 21.14Q122.18 21.14 121.24 20.09Q120.31 19.04 120.31 17.32L120.31 17.32ZM121.58 17.38L121.58 17.38Q121.58 18.61 122.15 19.36Q122.72 20.10 123.68 20.10L123.68 20.10Q124.64 20.10 125.21 19.35Q125.78 18.59 125.78 17.23L125.78 17.23Q125.78 16.02 125.20 15.26Q124.62 14.51 123.67 14.51L123.67 14.51Q122.73 14.51 122.16 15.25Q121.58 16.00 121.58 17.38ZM128.29 17.32L128.29 17.23Q128.29 16.15 128.72 15.28Q129.15 14.41 129.91 13.94Q130.67 13.47 131.65 13.47L131.65 13.47Q133.16 13.47 134.10 14.51Q135.03 15.56 135.03 17.29L135.03 17.29L135.03 17.38Q135.03 18.46 134.61 19.32Q134.20 20.18 133.43 20.66Q132.66 21.14 131.67 21.14L131.67 21.14Q130.16 21.14 129.23 20.09Q128.29 19.04 128.29 17.32L128.29 17.32ZM129.57 17.38L129.57 17.38Q129.57 18.61 130.14 19.36Q130.71 20.10 131.67 20.10L131.67 20.10Q132.63 20.10 133.20 19.35Q133.76 18.59 133.76 17.23L133.76 17.23Q133.76 16.02 133.19 15.26Q132.61 14.51 131.65 14.51L131.65 14.51Q130.71 14.51 130.14 15.25Q129.57 16.00 129.57 17.38ZM137.99 10.50L137.99 21L136.72 21L136.72 10.50L137.99 10.50Z"/>
            </g>
        </g>
    </g>
</g>
</svg>