<svg xmlns="http://www.w3.org/2000/svg" version="1.1" xmlns:xlink="http://www.w3.org/1999/xlink" xmlns:svgjs="http://svgjs.dev/svgjs" width="250" height="130" viewbox="0 0 250 130"   shape-rendering="geometricPrecision">
<g id="80c14a74459f471fbb4935b6fee04864" transform="translate(5, 5) ">
    <path fill="#FFFFFFFF" stroke="#323232FF" stroke-width="2" d=""/>    
    <g>
        <g id="ec9a57ad864747ccac975b4b965299c7" transform=" ">
            <path fill="#FFFFFFFF" stroke="#323232FF" stroke-width="1.5" d="M0 0L0 40L80 40L80 0L0 0Z"/>    
        </g>
        <g id="b0271f3dd4d9426d8adc52460ae7e805" transform="translate(80, 0) ">
            <path fill="#FFFFFFFF" stroke="#323232FF" stroke-width="1.5" d="M0 0L0 40L80 40L80 0L0 0Z"/>    
        </g>
        <g id="892c0666ea23436e8ba7d660abe070ed" transform="translate(160, 0) ">
            <path fill="#FFFFFFFF" stroke="#323232FF" stroke-width="1.5" d="M0 0L0 40L80 40L80 0L0 0Z"/>    
        </g>
        <g id="459f2bb4891a4930969330ab44e9e174" transform="translate(0, 40) ">
            <path fill="#FFFFFFFF" stroke="#323232FF" stroke-width="1.5" d="M0 0L0 40L80 40L80 0L0 0Z"/>    
        </g>
        <g id="2d4f1c009d124206b9c27e78f50edf90" transform="translate(80, 40) ">
            <path fill="#FFFFFFFF" stroke="#323232FF" stroke-width="1.5" d="M0 0L0 40L80 40L80 0L0 0Z"/>    
        </g>
        <g id="27d128a08bd14420822b2361ae1b3aa9" transform="translate(160, 40) ">
            <path fill="#FFFFFFFF" stroke="#323232FF" stroke-width="1.5" d="M0 0L0 40L80 40L80 0L0 0Z"/>    
        </g>
        <g id="54fd0f3762214ffd85b439223059aedf" transform="translate(0, 80) ">
            <path fill="#FFFFFFFF" stroke="#323232FF" stroke-width="1.5" d="M0 0L0 40L80 40L80 0L0 0Z"/>    
        </g>
        <g id="ee44b7615959411eaaeddeb188c7090c" transform="translate(80, 80) ">
            <path fill="#FFFFFFFF" stroke="#323232FF" stroke-width="1.5" d="M0 0L0 40L80 40L80 0L0 0Z"/>    
        </g>
        <g id="5db765512e5943d2828075bab9569e8e" transform="translate(160, 80) ">
            <path fill="#FFFFFFFF" stroke="#323232FF" stroke-width="1.5" d="M0 0L0 40L80 40L80 0L0 0Z"/>    
        </g>
    </g>
</g>
</svg>