<svg xmlns="http://www.w3.org/2000/svg" version="1.1" xmlns:xlink="http://www.w3.org/1999/xlink" xmlns:svgjs="http://svgjs.dev/svgjs" width="130" height="70" viewbox="0 0 130 70"   shape-rendering="geometricPrecision">
<g id="52624866b06c42c69d2b42dd0df533e4" transform="translate(5, 5) ">
    <path fill="#FFFFFFFF" stroke="none" stroke-width="2" d="M0 0L0 60L120 60L120 0L0 0Z"/>    
    <g transform="matrix(1, 1, 0, 0, 0, 1, 0)">
        <path fill="#000000FF" stroke="#000000FF" stroke-linecap="round" stroke-linejoin="round" stroke-width="0.1"   d="M54.73 26.05L54.73 27.13L51.53 27.13L51.53 36L50.22 36L50.22 27.13L47.03 27.13L47.03 26.05L54.73 26.05ZM58.40 36.14L58.40 36.14Q56.90 36.14 55.95 35.15Q55.01 34.16 55.01 32.51L55.01 32.51L55.01 32.27Q55.01 31.17 55.43 30.31Q55.85 29.44 56.61 28.96Q57.36 28.47 58.24 28.47L58.24 28.47Q59.69 28.47 60.49 29.42Q61.29 30.37 61.29 32.14L61.29 32.14L61.29 32.66L56.27 32.66Q56.30 33.76 56.91 34.43Q57.53 35.10 58.47 35.10L58.47 35.10Q59.14 35.10 59.60 34.83Q60.07 34.56 60.42 34.11L60.42 34.11L61.19 34.71Q60.26 36.14 58.40 36.14ZM58.24 29.51L58.24 29.51Q57.48 29.51 56.96 30.06Q56.44 30.62 56.32 31.63L56.32 31.63L60.02 31.63L60.02 31.53Q59.97 30.57 59.50 30.04Q59.04 29.51 58.24 29.51ZM63.61 28.60L65.23 31.30L66.87 28.60L68.35 28.60L65.93 32.26L68.42 36L66.96 36L65.25 33.23L63.54 36L62.07 36L64.57 32.26L62.15 28.60L63.61 28.60ZM70.14 26.81L71.40 26.81L71.40 28.60L72.78 28.60L72.78 29.58L71.40 29.58L71.40 34.17Q71.40 34.61 71.59 34.83Q71.77 35.06 72.22 35.06L72.22 35.06Q72.43 35.06 72.82 34.97L72.82 34.97L72.82 36Q72.32 36.14 71.85 36.14L71.85 36.14Q71.00 36.14 70.57 35.62Q70.14 35.11 70.14 34.17L70.14 34.17L70.14 29.58L68.79 29.58L68.79 28.60L70.14 28.60L70.14 26.81Z"/>
    </g>
</g>
</svg>