<svg xmlns="http://www.w3.org/2000/svg" version="1.1" xmlns:xlink="http://www.w3.org/1999/xlink" xmlns:svgjs="http://svgjs.dev/svgjs" width="70" height="40" viewbox="0 0 70 40"   shape-rendering="geometricPrecision">
<g id="a040a86194be44e9b62638f32d3ae685" transform="translate(5, 5) ">
    <path fill="#FFFFFFFF" stroke="none" stroke-width="2" d="M0 0L0 30L60 30L60 0L0 0Z"/>    
    <g transform="matrix(1.00, 0.00, 0.00, 1.00, 0.00, 0.00)">
        <path fill="#000000FF" stroke="#000000FF" stroke-linecap="round" stroke-linejoin="round" stroke-width="0.1"   d="M24.73 11.05L24.73 12.13L21.53 12.13L21.53 21L20.22 21L20.22 12.13L17.03 12.13L17.03 11.05L24.73 11.05ZM28.40 21.14L28.40 21.14Q26.90 21.14 25.95 20.15Q25.01 19.16 25.01 17.51L25.01 17.51L25.01 17.27Q25.01 16.17 25.43 15.31Q25.85 14.44 26.61 13.96Q27.36 13.47 28.24 13.47L28.24 13.47Q29.69 13.47 30.49 14.42Q31.29 15.37 31.29 17.14L31.29 17.14L31.29 17.66L26.27 17.66Q26.30 18.76 26.91 19.43Q27.53 20.10 28.47 20.10L28.47 20.10Q29.14 20.10 29.60 19.83Q30.07 19.56 30.42 19.11L30.42 19.11L31.19 19.71Q30.26 21.14 28.40 21.14ZM28.24 14.51L28.24 14.51Q27.48 14.51 26.96 15.06Q26.44 15.62 26.32 16.63L26.32 16.63L30.02 16.63L30.02 16.53Q29.97 15.57 29.50 15.04Q29.04 14.51 28.24 14.51ZM33.61 13.60L35.23 16.30L36.87 13.60L38.35 13.60L35.93 17.26L38.42 21L36.96 21L35.25 18.23L33.54 21L32.07 21L34.57 17.26L32.15 13.60L33.61 13.60ZM40.14 11.81L41.40 11.81L41.40 13.60L42.78 13.60L42.78 14.58L41.40 14.58L41.40 19.17Q41.40 19.61 41.59 19.83Q41.77 20.06 42.22 20.06L42.22 20.06Q42.43 20.06 42.82 19.97L42.82 19.97L42.82 21Q42.32 21.14 41.85 21.14L41.85 21.14Q41.00 21.14 40.57 20.62Q40.14 20.11 40.14 19.17L40.14 19.17L40.14 14.58L38.79 14.58L38.79 13.60L40.14 13.60L40.14 11.81Z"/>
    </g>
</g>
</svg>