<svg xmlns="http://www.w3.org/2000/svg" version="1.1" xmlns:xlink="http://www.w3.org/1999/xlink" xmlns:svgjs="http://svgjs.dev/svgjs"  width="500" height="550" viewbox="0 0 500 550"   shape-rendering="geometricPrecision">
<g transform="translate(0, 0) ">
    <path fill="#FFFFFFFF" stroke="#323232FF" stroke-width="2"  d="M0 0L0 550L500 550L500 0L0 0ZM24 295L500 295M24 550L500 550M262 70L262 550M500 70L500 550"/>    
    <g>
        <g transform="translate(0, 0) ">
            <path fill="#FFFFFFFF" stroke="#323232FF" stroke-width="1.5"  d="M0 0L0 40L500 40L500 0L0 0Z"/>    
        </g>
        <g transform="translate(0, 40) ">
            <path fill="#FFFFFFFF" stroke="#323232FF" stroke-width="1.5"  d="M0 0L0 255L24 255L24 0L0 0Z"/>    
            <g transform="matrix(-0.00, -1.00, 1.00, -0.00, 0.00, 255.00)">
                <path fill="#323232FF" stroke="#323232FF" stroke-linecap="round" stroke-linejoin="round" stroke-width="0.1"   d="M113.71 13.56L113.71 13.56Q112.02 13.08 111.25 12.37Q110.48 11.66 110.48 10.62L110.48 10.62Q110.48 9.45 111.42 8.68Q112.36 7.91 113.86 7.91L113.86 7.91Q114.89 7.91 115.69 8.31Q116.49 8.70 116.94 9.40Q117.38 10.10 117.38 10.92L117.38 10.92L116.06 10.92Q116.06 10.02 115.48 9.51Q114.91 8.99 113.86 8.99L113.86 8.99Q112.89 8.99 112.35 9.42Q111.80 9.84 111.80 10.60L111.80 10.60Q111.80 11.21 112.32 11.63Q112.84 12.05 114.08 12.40Q115.32 12.75 116.02 13.17Q116.72 13.59 117.06 14.15Q117.40 14.71 117.40 15.47L117.40 15.47Q117.40 16.68 116.45 17.41Q115.51 18.14 113.93 18.14L113.93 18.14Q112.91 18.14 112.02 17.74Q111.13 17.35 110.65 16.67Q110.16 15.98 110.16 15.12L110.16 15.12L111.48 15.12Q111.48 16.02 112.15 16.54Q112.82 17.06 113.93 17.06L113.93 17.06Q114.97 17.06 115.52 16.64Q116.08 16.22 116.08 15.48Q116.08 14.75 115.56 14.35Q115.05 13.95 113.71 13.56ZM119.33 8.81L120.60 8.81L120.60 10.60L121.98 10.60L121.98 11.58L120.60 11.58L120.60 16.17Q120.60 16.61 120.78 16.83Q120.96 17.06 121.41 17.06L121.41 17.06Q121.63 17.06 122.01 16.97L122.01 16.97L122.01 18Q121.51 18.14 121.04 18.14L121.04 18.14Q120.19 18.14 119.76 17.62Q119.33 17.11 119.33 16.17L119.33 16.17L119.33 11.58L117.98 11.58L117.98 10.60L119.33 10.60L119.33 8.81ZM129.35 18L128.02 18Q127.91 17.78 127.84 17.22L127.84 17.22Q126.96 18.14 125.74 18.14L125.74 18.14Q124.64 18.14 123.94 17.52Q123.24 16.90 123.24 15.95L123.24 15.95Q123.24 14.79 124.12 14.15Q125.00 13.52 126.59 13.52L126.59 13.52L127.82 13.52L127.82 12.93Q127.82 12.27 127.42 11.88Q127.03 11.49 126.26 11.49L126.26 11.49Q125.58 11.49 125.12 11.83Q124.66 12.17 124.66 12.65L124.66 12.65L123.39 12.65Q123.39 12.10 123.78 11.58Q124.18 11.07 124.85 10.77Q125.52 10.47 126.33 10.47L126.33 10.47Q127.61 10.47 128.33 11.11Q129.06 11.75 129.09 12.87L129.09 12.87L129.09 16.27Q129.09 17.29 129.35 17.89L129.35 17.89L129.35 18ZM125.92 17.04L125.92 17.04Q126.52 17.04 127.05 16.73Q127.58 16.42 127.82 15.93L127.82 15.93L127.82 14.41L126.83 14.41Q124.51 14.41 124.51 15.77L124.51 15.77Q124.51 16.37 124.90 16.70Q125.30 17.04 125.92 17.04ZM130.77 14.24L130.77 14.24Q130.77 12.51 131.57 11.49Q132.37 10.47 133.69 10.47L133.69 10.47Q135.04 10.47 135.80 11.42L135.80 11.42L135.86 10.60L137.02 10.60L137.02 17.82Q137.02 19.26 136.16 20.08Q135.31 20.91 133.88 20.91L133.88 20.91Q133.08 20.91 132.31 20.57Q131.55 20.23 131.14 19.63L131.14 19.63L131.80 18.88Q132.61 19.88 133.79 19.88L133.79 19.88Q134.71 19.88 135.23 19.36Q135.74 18.84 135.74 17.90L135.74 17.90L135.74 17.26Q134.99 18.14 133.67 18.14L133.67 18.14Q132.37 18.14 131.57 17.09Q130.77 16.04 130.77 14.24ZM132.04 14.38L132.04 14.38Q132.04 15.63 132.55 16.35Q133.06 17.06 133.99 17.06L133.99 17.06Q135.18 17.06 135.74 15.98L135.74 15.98L135.74 12.60Q135.16 11.54 134.00 11.54L134.00 11.54Q133.08 11.54 132.56 12.26Q132.04 12.98 132.04 14.38ZM141.99 18.14L141.99 18.14Q140.49 18.14 139.54 17.15Q138.60 16.16 138.60 14.51L138.60 14.51L138.60 14.27Q138.60 13.17 139.02 12.31Q139.44 11.44 140.20 10.96Q140.95 10.47 141.83 10.47L141.83 10.47Q143.28 10.47 144.08 11.42Q144.88 12.37 144.88 14.14L144.88 14.14L144.88 14.66L139.87 14.66Q139.89 15.76 140.51 16.43Q141.12 17.10 142.06 17.10L142.06 17.10Q142.73 17.10 143.20 16.83Q143.66 16.56 144.01 16.11L144.01 16.11L144.78 16.71Q143.85 18.14 141.99 18.14ZM141.83 11.51L141.83 11.51Q141.07 11.51 140.55 12.06Q140.03 12.62 139.91 13.63L139.91 13.63L143.61 13.63L143.61 13.53Q143.56 12.57 143.09 12.04Q142.63 11.51 141.83 11.51Z"/>
            </g>
        </g>
        <g transform="translate(0, 295) ">
            <path fill="#FFFFFFFF" stroke="#323232FF" stroke-width="1.5"  d="M0 0L0 255L24 255L24 0L0 0Z"/>    
            <g transform="matrix(-0.00, -1.00, 1.00, -0.00, 0.00, 255.00)">
                <path fill="#323232FF" stroke="#323232FF" stroke-linecap="round" stroke-linejoin="round" stroke-width="0.1"   d="M113.71 13.56L113.71 13.56Q112.02 13.08 111.25 12.37Q110.48 11.66 110.48 10.62L110.48 10.62Q110.48 9.45 111.42 8.68Q112.36 7.91 113.86 7.91L113.86 7.91Q114.89 7.91 115.69 8.31Q116.49 8.70 116.94 9.40Q117.38 10.10 117.38 10.92L117.38 10.92L116.06 10.92Q116.06 10.02 115.48 9.51Q114.91 8.99 113.86 8.99L113.86 8.99Q112.89 8.99 112.35 9.42Q111.80 9.84 111.80 10.60L111.80 10.60Q111.80 11.21 112.32 11.63Q112.84 12.05 114.08 12.40Q115.32 12.75 116.02 13.17Q116.72 13.59 117.06 14.15Q117.40 14.71 117.40 15.47L117.40 15.47Q117.40 16.68 116.45 17.41Q115.51 18.14 113.93 18.14L113.93 18.14Q112.91 18.14 112.02 17.74Q111.13 17.35 110.65 16.67Q110.16 15.98 110.16 15.12L110.16 15.12L111.48 15.12Q111.48 16.02 112.15 16.54Q112.82 17.06 113.93 17.06L113.93 17.06Q114.97 17.06 115.52 16.64Q116.08 16.22 116.08 15.48Q116.08 14.75 115.56 14.35Q115.05 13.95 113.71 13.56ZM119.33 8.81L120.60 8.81L120.60 10.60L121.98 10.60L121.98 11.58L120.60 11.58L120.60 16.17Q120.60 16.61 120.78 16.83Q120.96 17.06 121.41 17.06L121.41 17.06Q121.63 17.06 122.01 16.97L122.01 16.97L122.01 18Q121.51 18.14 121.04 18.14L121.04 18.14Q120.19 18.14 119.76 17.62Q119.33 17.11 119.33 16.17L119.33 16.17L119.33 11.58L117.98 11.58L117.98 10.60L119.33 10.60L119.33 8.81ZM129.35 18L128.02 18Q127.91 17.78 127.84 17.22L127.84 17.22Q126.96 18.14 125.74 18.14L125.74 18.14Q124.64 18.14 123.94 17.52Q123.24 16.90 123.24 15.95L123.24 15.95Q123.24 14.79 124.12 14.15Q125.00 13.52 126.59 13.52L126.59 13.52L127.82 13.52L127.82 12.93Q127.82 12.27 127.42 11.88Q127.03 11.49 126.26 11.49L126.26 11.49Q125.58 11.49 125.12 11.83Q124.66 12.17 124.66 12.65L124.66 12.65L123.39 12.65Q123.39 12.10 123.78 11.58Q124.18 11.07 124.85 10.77Q125.52 10.47 126.33 10.47L126.33 10.47Q127.61 10.47 128.33 11.11Q129.06 11.75 129.09 12.87L129.09 12.87L129.09 16.27Q129.09 17.29 129.35 17.89L129.35 17.89L129.35 18ZM125.92 17.04L125.92 17.04Q126.52 17.04 127.05 16.73Q127.58 16.42 127.82 15.93L127.82 15.93L127.82 14.41L126.83 14.41Q124.51 14.41 124.51 15.77L124.51 15.77Q124.51 16.37 124.90 16.70Q125.30 17.04 125.92 17.04ZM130.77 14.24L130.77 14.24Q130.77 12.51 131.57 11.49Q132.37 10.47 133.69 10.47L133.69 10.47Q135.04 10.47 135.80 11.42L135.80 11.42L135.86 10.60L137.02 10.60L137.02 17.82Q137.02 19.26 136.16 20.08Q135.31 20.91 133.88 20.91L133.88 20.91Q133.08 20.91 132.31 20.57Q131.55 20.23 131.14 19.63L131.14 19.63L131.80 18.88Q132.61 19.88 133.79 19.88L133.79 19.88Q134.71 19.88 135.23 19.36Q135.74 18.84 135.74 17.90L135.74 17.90L135.74 17.26Q134.99 18.14 133.67 18.14L133.67 18.14Q132.37 18.14 131.57 17.09Q130.77 16.04 130.77 14.24ZM132.04 14.38L132.04 14.38Q132.04 15.63 132.55 16.35Q133.06 17.06 133.99 17.06L133.99 17.06Q135.18 17.06 135.74 15.98L135.74 15.98L135.74 12.60Q135.16 11.54 134.00 11.54L134.00 11.54Q133.08 11.54 132.56 12.26Q132.04 12.98 132.04 14.38ZM141.99 18.14L141.99 18.14Q140.49 18.14 139.54 17.15Q138.60 16.16 138.60 14.51L138.60 14.51L138.60 14.27Q138.60 13.17 139.02 12.31Q139.44 11.44 140.20 10.96Q140.95 10.47 141.83 10.47L141.83 10.47Q143.28 10.47 144.08 11.42Q144.88 12.37 144.88 14.14L144.88 14.14L144.88 14.66L139.87 14.66Q139.89 15.76 140.51 16.43Q141.12 17.10 142.06 17.10L142.06 17.10Q142.73 17.10 143.20 16.83Q143.66 16.56 144.01 16.11L144.01 16.11L144.78 16.71Q143.85 18.14 141.99 18.14ZM141.83 11.51L141.83 11.51Q141.07 11.51 140.55 12.06Q140.03 12.62 139.91 13.63L139.91 13.63L143.61 13.63L143.61 13.53Q143.56 12.57 143.09 12.04Q142.63 11.51 141.83 11.51Z"/>
            </g>
        </g>
        <g transform="translate(24, 40) ">
            <path fill="#FFFFFFFF" stroke="#323232FF" stroke-width="1.5"  d="M0 0L0 30L238 30L238 0L0 0Z"/>    
            <g transform="matrix(1.00, 0.00, 0.00, 1.00, 0.00, 0.00)">
                <path fill="#323232FF" stroke="#323232FF" stroke-linecap="round" stroke-linejoin="round" stroke-width="0.1"   d="M109.76 17.10L107.41 17.10L107.41 21L106.10 21L106.10 11.05L109.77 11.05Q111.41 11.05 112.33 11.88Q113.26 12.71 113.26 14.09L113.26 14.09Q113.26 15.54 112.35 16.32Q111.45 17.10 109.76 17.10L109.76 17.10ZM107.41 12.13L107.41 16.03L109.77 16.03Q110.82 16.03 111.38 15.53Q111.95 15.04 111.95 14.10L111.95 14.10Q111.95 13.21 111.38 12.68Q110.82 12.15 109.85 12.13L109.85 12.13L107.41 12.13ZM114.31 17.32L114.31 17.23Q114.31 16.15 114.74 15.28Q115.17 14.41 115.93 13.94Q116.69 13.47 117.67 13.47L117.67 13.47Q119.18 13.47 120.11 14.51Q121.04 15.56 121.04 17.29L121.04 17.29L121.04 17.38Q121.04 18.46 120.63 19.32Q120.22 20.18 119.45 20.66Q118.68 21.14 117.68 21.14L117.68 21.14Q116.18 21.14 115.24 20.09Q114.31 19.04 114.31 17.32L114.31 17.32ZM115.58 17.38L115.58 17.38Q115.58 18.61 116.15 19.36Q116.72 20.10 117.68 20.10L117.68 20.10Q118.64 20.10 119.21 19.35Q119.78 18.59 119.78 17.23L119.78 17.23Q119.78 16.02 119.20 15.26Q118.62 14.51 117.67 14.51L117.67 14.51Q116.73 14.51 116.16 15.25Q115.58 16.00 115.58 17.38ZM122.29 17.32L122.29 17.23Q122.29 16.15 122.72 15.28Q123.15 14.41 123.91 13.94Q124.67 13.47 125.65 13.47L125.65 13.47Q127.16 13.47 128.10 14.51Q129.03 15.56 129.03 17.29L129.03 17.29L129.03 17.38Q129.03 18.46 128.61 19.32Q128.20 20.18 127.43 20.66Q126.66 21.14 125.67 21.14L125.67 21.14Q124.16 21.14 123.23 20.09Q122.29 19.04 122.29 17.32L122.29 17.32ZM123.57 17.38L123.57 17.38Q123.57 18.61 124.14 19.36Q124.71 20.10 125.67 20.10L125.67 20.10Q126.63 20.10 127.20 19.35Q127.76 18.59 127.76 17.23L127.76 17.23Q127.76 16.02 127.19 15.26Q126.61 14.51 125.65 14.51L125.65 14.51Q124.71 14.51 124.14 15.25Q123.57 16.00 123.57 17.38ZM131.99 10.50L131.99 21L130.72 21L130.72 10.50L131.99 10.50Z"/>
            </g>
        </g>
        <g transform="translate(262, 40) ">
            <path fill="#FFFFFFFF" stroke="#323232FF" stroke-width="1.5"  d="M0 0L0 30L238 30L238 0L0 0Z"/>    
            <g transform="matrix(1.00, 0.00, 0.00, 1.00, 0.00, 0.00)">
                <path fill="#323232FF" stroke="#323232FF" stroke-linecap="round" stroke-linejoin="round" stroke-width="0.1"   d="M109.76 17.10L107.41 17.10L107.41 21L106.10 21L106.10 11.05L109.77 11.05Q111.41 11.05 112.33 11.88Q113.26 12.71 113.26 14.09L113.26 14.09Q113.26 15.54 112.35 16.32Q111.45 17.10 109.76 17.10L109.76 17.10ZM107.41 12.13L107.41 16.03L109.77 16.03Q110.82 16.03 111.38 15.53Q111.95 15.04 111.95 14.10L111.95 14.10Q111.95 13.21 111.38 12.68Q110.82 12.15 109.85 12.13L109.85 12.13L107.41 12.13ZM114.31 17.32L114.31 17.23Q114.31 16.15 114.74 15.28Q115.17 14.41 115.93 13.94Q116.69 13.47 117.67 13.47L117.67 13.47Q119.18 13.47 120.11 14.51Q121.04 15.56 121.04 17.29L121.04 17.29L121.04 17.38Q121.04 18.46 120.63 19.32Q120.22 20.18 119.45 20.66Q118.68 21.14 117.68 21.14L117.68 21.14Q116.18 21.14 115.24 20.09Q114.31 19.04 114.31 17.32L114.31 17.32ZM115.58 17.38L115.58 17.38Q115.58 18.61 116.15 19.36Q116.72 20.10 117.68 20.10L117.68 20.10Q118.64 20.10 119.21 19.35Q119.78 18.59 119.78 17.23L119.78 17.23Q119.78 16.02 119.20 15.26Q118.62 14.51 117.67 14.51L117.67 14.51Q116.73 14.51 116.16 15.25Q115.58 16.00 115.58 17.38ZM122.29 17.32L122.29 17.23Q122.29 16.15 122.72 15.28Q123.15 14.41 123.91 13.94Q124.67 13.47 125.65 13.47L125.65 13.47Q127.16 13.47 128.10 14.51Q129.03 15.56 129.03 17.29L129.03 17.29L129.03 17.38Q129.03 18.46 128.61 19.32Q128.20 20.18 127.43 20.66Q126.66 21.14 125.67 21.14L125.67 21.14Q124.16 21.14 123.23 20.09Q122.29 19.04 122.29 17.32L122.29 17.32ZM123.57 17.38L123.57 17.38Q123.57 18.61 124.14 19.36Q124.71 20.10 125.67 20.10L125.67 20.10Q126.63 20.10 127.20 19.35Q127.76 18.59 127.76 17.23L127.76 17.23Q127.76 16.02 127.19 15.26Q126.61 14.51 125.65 14.51L125.65 14.51Q124.71 14.51 124.14 15.25Q123.57 16.00 123.57 17.38ZM131.99 10.50L131.99 21L130.72 21L130.72 10.50L131.99 10.50Z"/>
            </g>
        </g>
    </g>
</g>
</svg>