<svg xmlns="http://www.w3.org/2000/svg" version="1.1" xmlns:xlink="http://www.w3.org/1999/xlink" xmlns:svgjs="http://svgjs.dev/svgjs" width="210" height="210" viewbox="0 0 210 210"   shape-rendering="geometricPrecision">
<g id="d1bcf0993cfa4624836fa01929b5962b" transform="translate(5, 5) ">
    <path fill="#FFFFFFFF" stroke="#323232FF" stroke-width="2" d="M0 0L0 32L90 32L90 0L0 0ZM0 32L0 200L200 200L200 32L0 32Z"/>    
    <g transform="matrix(1, 1, 0, 0, 0, 1, 0)">
        <path fill="#000000FF" stroke="#000000FF" stroke-linecap="round" stroke-linejoin="round" stroke-width="0.1"   d="M22.01 18.84L23.33 18.84Q23.15 20.42 22.17 21.28Q21.19 22.14 19.56 22.14L19.56 22.14Q17.80 22.14 16.73 20.87Q15.67 19.61 15.67 17.49L15.67 17.49L15.67 16.53Q15.67 15.14 16.17 14.09Q16.66 13.04 17.57 12.47Q18.48 11.91 19.68 11.91L19.68 11.91Q21.26 11.91 22.22 12.80Q23.18 13.68 23.33 15.25L23.33 15.25L22.01 15.25Q21.84 14.06 21.27 13.52Q20.70 12.99 19.68 12.99L19.68 12.99Q18.42 12.99 17.70 13.92Q16.99 14.85 16.99 16.57L16.99 16.57L16.99 17.53Q16.99 19.15 17.67 20.11Q18.34 21.06 19.56 21.06L19.56 21.06Q20.65 21.06 21.24 20.57Q21.82 20.07 22.01 18.84L22.01 18.84ZM24.59 18.32L24.59 18.23Q24.59 17.15 25.02 16.28Q25.45 15.41 26.21 14.94Q26.97 14.47 27.95 14.47L27.95 14.47Q29.46 14.47 30.39 15.51Q31.32 16.56 31.32 18.29L31.32 18.29L31.32 18.38Q31.32 19.46 30.91 20.32Q30.50 21.18 29.73 21.66Q28.96 22.14 27.96 22.14L27.96 22.14Q26.46 22.14 25.52 21.09Q24.59 20.04 24.59 18.32L24.59 18.32ZM25.86 18.38L25.86 18.38Q25.86 19.61 26.43 20.36Q27.00 21.10 27.96 21.10L27.96 21.10Q28.93 21.10 29.49 20.35Q30.06 19.59 30.06 18.23L30.06 18.23Q30.06 17.02 29.48 16.26Q28.90 15.51 27.95 15.51L27.95 15.51Q27.01 15.51 26.44 16.25Q25.86 17.00 25.86 18.38ZM32.91 14.60L34.11 14.60L34.15 15.53Q35.00 14.47 36.36 14.47L36.36 14.47Q38.71 14.47 38.73 17.11L38.73 17.11L38.73 22L37.46 22L37.46 17.11Q37.46 16.31 37.10 15.92Q36.74 15.54 35.98 15.54L35.98 15.54Q35.36 15.54 34.90 15.87Q34.44 16.20 34.18 16.73L34.18 16.73L34.18 22L32.91 22L32.91 14.60ZM41.09 12.81L42.35 12.81L42.35 14.60L43.73 14.60L43.73 15.58L42.35 15.58L42.35 20.17Q42.35 20.61 42.54 20.83Q42.72 21.06 43.16 21.06L43.16 21.06Q43.38 21.06 43.77 20.97L43.77 20.97L43.77 22Q43.27 22.14 42.80 22.14L42.80 22.14Q41.95 22.14 41.52 21.62Q41.09 21.11 41.09 20.17L41.09 20.17L41.09 15.58L39.74 15.58L39.74 14.60L41.09 14.60L41.09 12.81ZM51.10 22L49.77 22Q49.67 21.78 49.60 21.22L49.60 21.22Q48.72 22.14 47.49 22.14L47.49 22.14Q46.40 22.14 45.70 21.52Q45.00 20.90 45.00 19.95L45.00 19.95Q45.00 18.79 45.88 18.15Q46.75 17.52 48.35 17.52L48.35 17.52L49.58 17.52L49.58 16.93Q49.58 16.27 49.18 15.88Q48.78 15.49 48.01 15.49L48.01 15.49Q47.33 15.49 46.88 15.83Q46.42 16.17 46.42 16.65L46.42 16.65L45.15 16.65Q45.15 16.10 45.54 15.58Q45.93 15.07 46.61 14.77Q47.28 14.47 48.09 14.47L48.09 14.47Q49.36 14.47 50.09 15.11Q50.81 15.75 50.84 16.87L50.84 16.87L50.84 20.27Q50.84 21.29 51.10 21.89L51.10 21.89L51.10 22ZM47.68 21.04L47.68 21.04Q48.27 21.04 48.80 20.73Q49.34 20.42 49.58 19.93L49.58 19.93L49.58 18.41L48.59 18.41Q46.26 18.41 46.26 19.77L46.26 19.77Q46.26 20.37 46.66 20.70Q47.05 21.04 47.68 21.04ZM54.20 14.60L54.20 22L52.93 22L52.93 14.60L54.20 14.60ZM52.83 12.64L52.83 12.64Q52.83 12.33 53.02 12.12Q53.21 11.91 53.58 11.91Q53.94 11.91 54.14 12.12Q54.33 12.33 54.33 12.64Q54.33 12.95 54.14 13.15Q53.94 13.36 53.58 13.36Q53.21 13.36 53.02 13.15Q52.83 12.95 52.83 12.64ZM56.22 14.60L57.42 14.60L57.46 15.53Q58.31 14.47 59.67 14.47L59.67 14.47Q62.02 14.47 62.04 17.11L62.04 17.11L62.04 22L60.77 22L60.77 17.11Q60.77 16.31 60.41 15.92Q60.05 15.54 59.29 15.54L59.29 15.54Q58.68 15.54 58.21 15.87Q57.75 16.20 57.49 16.73L57.49 16.73L57.49 22L56.22 22L56.22 14.60ZM67.02 22.14L67.02 22.14Q65.51 22.14 64.57 21.15Q63.62 20.16 63.62 18.51L63.62 18.51L63.62 18.27Q63.62 17.17 64.04 16.31Q64.47 15.44 65.22 14.96Q65.98 14.47 66.86 14.47L66.86 14.47Q68.30 14.47 69.10 15.42Q69.90 16.37 69.90 18.14L69.90 18.14L69.90 18.66L64.89 18.66Q64.92 19.76 65.53 20.43Q66.14 21.10 67.08 21.10L67.08 21.10Q67.75 21.10 68.22 20.83Q68.68 20.56 69.03 20.11L69.03 20.11L69.80 20.71Q68.87 22.14 67.02 22.14ZM66.86 15.51L66.86 15.51Q66.09 15.51 65.57 16.06Q65.05 16.62 64.93 17.63L64.93 17.63L68.64 17.63L68.64 17.53Q68.58 16.57 68.12 16.04Q67.65 15.51 66.86 15.51ZM74.94 14.56L74.94 15.74Q74.65 15.69 74.32 15.69L74.32 15.69Q73.07 15.69 72.63 16.75L72.63 16.75L72.63 22L71.36 22L71.36 14.60L72.59 14.60L72.61 15.46Q73.24 14.47 74.38 14.47L74.38 14.47Q74.75 14.47 74.94 14.56L74.94 14.56Z"/>
    </g>
</g>
</svg>