<svg xmlns="http://www.w3.org/2000/svg" version="1.1" xmlns:xlink="http://www.w3.org/1999/xlink" xmlns:svgjs="http://svgjs.dev/svgjs"  width="250" height="550" viewbox="0 0 250 550"   shape-rendering="geometricPrecision">
<g transform="translate(0, 0) ">
    <path fill="#FFFFFFFF" stroke="#323232FF" stroke-width="2"  d="M0 0L0 550L250 550L250 0L0 0ZM250 70L250 550"/>    
    <g>
        <g transform="translate(0, 0) ">
            <path fill="#FFFFFFFF" stroke="#323232FF" stroke-width="1.5"  d="M0 0L0 40L250 40L250 0L0 0Z"/>    
        </g>
        <g transform="translate(0, 40) ">
            <path fill="#FFFFFFFF" stroke="#323232FF" stroke-width="1.5"  d="M0 0L0 30L250 30L250 0L0 0Z"/>    
            <g transform="matrix(1.00, 0.00, 0.00, 1.00, 0.00, 0.00)">
                <path fill="#323232FF" stroke="#323232FF" stroke-linecap="round" stroke-linejoin="round" stroke-width="0.1"   d="M115.76 17.10L113.41 17.10L113.41 21L112.10 21L112.10 11.05L115.77 11.05Q117.41 11.05 118.33 11.88Q119.26 12.71 119.26 14.09L119.26 14.09Q119.26 15.54 118.35 16.32Q117.45 17.10 115.76 17.10L115.76 17.10ZM113.41 12.13L113.41 16.03L115.77 16.03Q116.82 16.03 117.38 15.53Q117.95 15.04 117.95 14.10L117.95 14.10Q117.95 13.21 117.38 12.68Q116.82 12.15 115.85 12.13L115.85 12.13L113.41 12.13ZM120.31 17.32L120.31 17.23Q120.31 16.15 120.74 15.28Q121.17 14.41 121.93 13.94Q122.69 13.47 123.67 13.47L123.67 13.47Q125.18 13.47 126.11 14.51Q127.04 15.56 127.04 17.29L127.04 17.29L127.04 17.38Q127.04 18.46 126.63 19.32Q126.22 20.18 125.45 20.66Q124.68 21.14 123.68 21.14L123.68 21.14Q122.18 21.14 121.24 20.09Q120.31 19.04 120.31 17.32L120.31 17.32ZM121.58 17.38L121.58 17.38Q121.58 18.61 122.15 19.36Q122.72 20.10 123.68 20.10L123.68 20.10Q124.64 20.10 125.21 19.35Q125.78 18.59 125.78 17.23L125.78 17.23Q125.78 16.02 125.20 15.26Q124.62 14.51 123.67 14.51L123.67 14.51Q122.73 14.51 122.16 15.25Q121.58 16.00 121.58 17.38ZM128.29 17.32L128.29 17.23Q128.29 16.15 128.72 15.28Q129.15 14.41 129.91 13.94Q130.67 13.47 131.65 13.47L131.65 13.47Q133.16 13.47 134.10 14.51Q135.03 15.56 135.03 17.29L135.03 17.29L135.03 17.38Q135.03 18.46 134.61 19.32Q134.20 20.18 133.43 20.66Q132.66 21.14 131.67 21.14L131.67 21.14Q130.16 21.14 129.23 20.09Q128.29 19.04 128.29 17.32L128.29 17.32ZM129.57 17.38L129.57 17.38Q129.57 18.61 130.14 19.36Q130.71 20.10 131.67 20.10L131.67 20.10Q132.63 20.10 133.20 19.35Q133.76 18.59 133.76 17.23L133.76 17.23Q133.76 16.02 133.19 15.26Q132.61 14.51 131.65 14.51L131.65 14.51Q130.71 14.51 130.14 15.25Q129.57 16.00 129.57 17.38ZM137.99 10.50L137.99 21L136.72 21L136.72 10.50L137.99 10.50Z"/>
            </g>
        </g>
    </g>
</g>
</svg>