<svg xmlns="http://www.w3.org/2000/svg" version="1.1" xmlns:xlink="http://www.w3.org/1999/xlink" xmlns:svgjs="http://svgjs.dev/svgjs" width="210" height="210" viewbox="0 0 210 210"   shape-rendering="geometricPrecision">
<g id="d0e8eea8a2094e01a915637caced5ab8" transform="translate(5, 5) ">
    <path fill="#FFFFFFFF" stroke="#323232FF" stroke-width="2" d="M0 0L0 32L200 32L200 0L0 0ZM0 32L0 200L200 200L200 32L0 32Z"/>    
    <g transform="matrix(1, 1, 0, 0, 0, 1, 0)">
        <path fill="#000000FF" stroke="#000000FF" stroke-linecap="round" stroke-linejoin="round" stroke-width="0.1"   d="M43.96 12.05L46.79 20.26L49.64 12.05L51.07 12.05L47.38 22L46.22 22L42.53 12.05L43.96 12.05ZM54.98 22.14L54.98 22.14Q53.47 22.14 52.53 21.15Q51.58 20.16 51.58 18.51L51.58 18.51L51.58 18.27Q51.58 17.17 52.00 16.31Q52.43 15.44 53.18 14.96Q53.94 14.47 54.82 14.47L54.82 14.47Q56.26 14.47 57.06 15.42Q57.86 16.37 57.86 18.14L57.86 18.14L57.86 18.66L52.85 18.66Q52.88 19.76 53.49 20.43Q54.10 21.10 55.04 21.10L55.04 21.10Q55.71 21.10 56.18 20.83Q56.64 20.56 56.99 20.11L56.99 20.11L57.76 20.71Q56.83 22.14 54.98 22.14ZM54.82 15.51L54.82 15.51Q54.05 15.51 53.53 16.06Q53.01 16.62 52.89 17.63L52.89 17.63L56.60 17.63L56.60 17.53Q56.54 16.57 56.08 16.04Q55.61 15.51 54.82 15.51ZM62.90 14.56L62.90 15.74Q62.61 15.69 62.28 15.69L62.28 15.69Q61.03 15.69 60.59 16.75L60.59 16.75L60.59 22L59.32 22L59.32 14.60L60.55 14.60L60.57 15.46Q61.20 14.47 62.34 14.47L62.34 14.47Q62.71 14.47 62.90 14.56L62.90 14.56ZM64.85 12.81L66.12 12.81L66.12 14.60L67.50 14.60L67.50 15.58L66.12 15.58L66.12 20.17Q66.12 20.61 66.30 20.83Q66.49 21.06 66.93 21.06L66.93 21.06Q67.15 21.06 67.53 20.97L67.53 20.97L67.53 22Q67.03 22.14 66.56 22.14L66.56 22.14Q65.71 22.14 65.28 21.62Q64.85 21.11 64.85 20.17L64.85 20.17L64.85 15.58L63.51 15.58L63.51 14.60L64.85 14.60L64.85 12.81ZM70.35 14.60L70.35 22L69.08 22L69.08 14.60L70.35 14.60ZM68.98 12.64L68.98 12.64Q68.98 12.33 69.17 12.12Q69.36 11.91 69.73 11.91Q70.10 11.91 70.29 12.12Q70.48 12.33 70.48 12.64Q70.48 12.95 70.29 13.15Q70.10 13.36 69.73 13.36Q69.36 13.36 69.17 13.15Q68.98 12.95 68.98 12.64ZM75.34 21.10L75.34 21.10Q76.02 21.10 76.52 20.69Q77.03 20.28 77.08 19.67L77.08 19.67L78.28 19.67Q78.24 20.30 77.84 20.88Q77.44 21.45 76.76 21.79Q76.09 22.14 75.34 22.14L75.34 22.14Q73.83 22.14 72.94 21.13Q72.04 20.12 72.04 18.37L72.04 18.37L72.04 18.16Q72.04 17.08 72.44 16.24Q72.84 15.40 73.58 14.93Q74.32 14.47 75.33 14.47L75.33 14.47Q76.58 14.47 77.40 15.21Q78.22 15.96 78.28 17.15L78.28 17.15L77.08 17.15Q77.03 16.43 76.54 15.97Q76.05 15.51 75.33 15.51L75.33 15.51Q74.37 15.51 73.84 16.20Q73.31 16.89 73.31 18.21L73.31 18.21L73.31 18.45Q73.31 19.72 73.84 20.41Q74.36 21.10 75.34 21.10ZM85.59 22L84.27 22Q84.16 21.78 84.09 21.22L84.09 21.22Q83.21 22.14 81.98 22.14L81.98 22.14Q80.89 22.14 80.19 21.52Q79.49 20.90 79.49 19.95L79.49 19.95Q79.49 18.79 80.37 18.15Q81.25 17.52 82.84 17.52L82.84 17.52L84.07 17.52L84.07 16.93Q84.07 16.27 83.67 15.88Q83.28 15.49 82.50 15.49L82.50 15.49Q81.83 15.49 81.37 15.83Q80.91 16.17 80.91 16.65L80.91 16.65L79.64 16.65Q79.64 16.10 80.03 15.58Q80.43 15.07 81.10 14.77Q81.77 14.47 82.58 14.47L82.58 14.47Q83.86 14.47 84.58 15.11Q85.31 15.75 85.33 16.87L85.33 16.87L85.33 20.27Q85.33 21.29 85.59 21.89L85.59 21.89L85.59 22ZM82.17 21.04L82.17 21.04Q82.76 21.04 83.30 20.73Q83.83 20.42 84.07 19.93L84.07 19.93L84.07 18.41L83.08 18.41Q80.75 18.41 80.75 19.77L80.75 19.77Q80.75 20.37 81.15 20.70Q81.55 21.04 82.17 21.04ZM88.69 11.50L88.69 22L87.43 22L87.43 11.50L88.69 11.50ZM100.38 18.84L101.70 18.84Q101.51 20.42 100.53 21.28Q99.55 22.14 97.93 22.14L97.93 22.14Q96.16 22.14 95.10 20.87Q94.04 19.61 94.04 17.49L94.04 17.49L94.04 16.53Q94.04 15.14 94.53 14.09Q95.03 13.04 95.94 12.47Q96.85 11.91 98.04 11.91L98.04 11.91Q99.63 11.91 100.58 12.80Q101.54 13.68 101.70 15.25L101.70 15.25L100.38 15.25Q100.21 14.06 99.64 13.52Q99.07 12.99 98.04 12.99L98.04 12.99Q96.78 12.99 96.07 13.92Q95.35 14.85 95.35 16.57L95.35 16.57L95.35 17.53Q95.35 19.15 96.03 20.11Q96.71 21.06 97.93 21.06L97.93 21.06Q99.02 21.06 99.60 20.57Q100.19 20.07 100.38 18.84L100.38 18.84ZM102.96 18.32L102.96 18.23Q102.96 17.15 103.38 16.28Q103.81 15.41 104.57 14.94Q105.34 14.47 106.31 14.47L106.31 14.47Q107.82 14.47 108.76 15.51Q109.69 16.56 109.69 18.29L109.69 18.29L109.69 18.38Q109.69 19.46 109.28 20.32Q108.86 21.18 108.09 21.66Q107.32 22.14 106.33 22.14L106.33 22.14Q104.82 22.14 103.89 21.09Q102.96 20.04 102.96 18.32L102.96 18.32ZM104.23 18.38L104.23 18.38Q104.23 19.61 104.80 20.36Q105.37 21.10 106.33 21.10L106.33 21.10Q107.29 21.10 107.86 20.35Q108.43 19.59 108.43 18.23L108.43 18.23Q108.43 17.02 107.85 16.26Q107.27 15.51 106.31 15.51L106.31 15.51Q105.38 15.51 104.80 16.25Q104.23 17.00 104.23 18.38ZM111.28 14.60L112.47 14.60L112.51 15.53Q113.36 14.47 114.73 14.47L114.73 14.47Q117.07 14.47 117.09 17.11L117.09 17.11L117.09 22L115.83 22L115.83 17.11Q115.82 16.31 115.46 15.92Q115.10 15.54 114.35 15.54L114.35 15.54Q113.73 15.54 113.27 15.87Q112.80 16.20 112.54 16.73L112.54 16.73L112.54 22L111.28 22L111.28 14.60ZM119.45 12.81L120.72 12.81L120.72 14.60L122.10 14.60L122.10 15.58L120.72 15.58L120.72 20.17Q120.72 20.61 120.90 20.83Q121.09 21.06 121.53 21.06L121.53 21.06Q121.75 21.06 122.13 20.97L122.13 20.97L122.13 22Q121.63 22.14 121.16 22.14L121.16 22.14Q120.31 22.14 119.88 21.62Q119.45 21.11 119.45 20.17L119.45 20.17L119.45 15.58L118.10 15.58L118.10 14.60L119.45 14.60L119.45 12.81ZM129.47 22L128.14 22Q128.03 21.78 127.96 21.22L127.96 21.22Q127.08 22.14 125.86 22.14L125.86 22.14Q124.76 22.14 124.06 21.52Q123.36 20.90 123.36 19.95L123.36 19.95Q123.36 18.79 124.24 18.15Q125.12 17.52 126.71 17.52L126.71 17.52L127.94 17.52L127.94 16.93Q127.94 16.27 127.55 15.88Q127.15 15.49 126.38 15.49L126.38 15.49Q125.70 15.49 125.24 15.83Q124.78 16.17 124.78 16.65L124.78 16.65L123.51 16.65Q123.51 16.10 123.91 15.58Q124.30 15.07 124.97 14.77Q125.65 14.47 126.45 14.47L126.45 14.47Q127.73 14.47 128.45 15.11Q129.18 15.75 129.21 16.87L129.21 16.87L129.21 20.27Q129.21 21.29 129.47 21.89L129.47 21.89L129.47 22ZM126.04 21.04L126.04 21.04Q126.64 21.04 127.17 20.73Q127.70 20.42 127.94 19.93L127.94 19.93L127.94 18.41L126.95 18.41Q124.63 18.41 124.63 19.77L124.63 19.77Q124.63 20.37 125.02 20.70Q125.42 21.04 126.04 21.04ZM132.56 14.60L132.56 22L131.30 22L131.30 14.60L132.56 14.60ZM131.20 12.64L131.20 12.64Q131.20 12.33 131.38 12.12Q131.57 11.91 131.94 11.91Q132.31 11.91 132.50 12.12Q132.69 12.33 132.69 12.64Q132.69 12.95 132.50 13.15Q132.31 13.36 131.94 13.36Q131.57 13.36 131.38 13.15Q131.20 12.95 131.20 12.64ZM134.59 14.60L135.78 14.60L135.82 15.53Q136.67 14.47 138.04 14.47L138.04 14.47Q140.38 14.47 140.40 17.11L140.40 17.11L140.40 22L139.14 22L139.14 17.11Q139.13 16.31 138.77 15.92Q138.41 15.54 137.66 15.54L137.66 15.54Q137.04 15.54 136.58 15.87Q136.11 16.20 135.85 16.73L135.85 16.73L135.85 22L134.59 22L134.59 14.60ZM145.38 22.14L145.38 22.14Q143.88 22.14 142.93 21.15Q141.99 20.16 141.99 18.51L141.99 18.51L141.99 18.27Q141.99 17.17 142.41 16.31Q142.83 15.44 143.59 14.96Q144.34 14.47 145.22 14.47L145.22 14.47Q146.67 14.47 147.47 15.42Q148.27 16.37 148.27 18.14L148.27 18.14L148.27 18.66L143.25 18.66Q143.28 19.76 143.89 20.43Q144.51 21.10 145.45 21.10L145.45 21.10Q146.12 21.10 146.58 20.83Q147.05 20.56 147.40 20.11L147.40 20.11L148.17 20.71Q147.24 22.14 145.38 22.14ZM145.22 15.51L145.22 15.51Q144.46 15.51 143.94 16.06Q143.42 16.62 143.30 17.63L143.30 17.63L147.00 17.63L147.00 17.53Q146.95 16.57 146.48 16.04Q146.02 15.51 145.22 15.51ZM153.30 14.56L153.30 15.74Q153.02 15.69 152.68 15.69L152.68 15.69Q151.44 15.69 150.99 16.75L150.99 16.75L150.99 22L149.73 22L149.73 14.60L150.96 14.60L150.98 15.46Q151.60 14.47 152.74 14.47L152.74 14.47Q153.11 14.47 153.30 14.56L153.30 14.56Z"/>
    </g>
</g>
</svg>