<svg xmlns="http://www.w3.org/2000/svg" version="1.1" xmlns:xlink="http://www.w3.org/1999/xlink" xmlns:svgjs="http://svgjs.dev/svgjs" width="130" height="70" viewbox="0 0 130 70"   shape-rendering="geometricPrecision">
<g id="271e10c6f5c54573a3b619d8847497c7" transform="translate(5, 5) ">
    <path fill="#FFFFFFFF" stroke="#323232FF" stroke-width="2" d="M0 9L0 51Q0 51.2209 0.0216818 51.4416Q0.0433636 51.6623 0.0866749 51.8822Q0.129986 52.102 0.194823 52.3206Q0.259659 52.5391 0.345865 52.7558Q0.43207 52.9725 0.539437 53.1868Q0.646804 53.4011 0.775074 53.6126Q0.903343 53.824 1.05221 54.032Q1.20107 54.24 1.37017 54.4441Q1.53927 54.6483 1.72819 54.848Q1.91712 55.0477 2.12542 55.2426Q2.33372 55.4374 2.56088 55.6269Q2.78805 55.8164 3.03355 56.0001Q3.27904 56.1838 3.54226 56.3613Q3.80549 56.5387 4.08581 56.7095Q4.36613 56.8803 4.66288 57.044Q4.95962 57.2077 5.27208 57.364Q5.58453 57.5202 5.91194 57.6686Q6.23935 57.8169 6.58092 57.9571Q6.92249 58.0973 7.27741 58.2289Q7.63233 58.3605 7.99973 58.4832Q8.36714 58.606 8.74615 58.7196Q9.12516 58.8331 9.51486 58.9373Q9.90456 59.0414 10.304 59.1359Q10.7035 59.2304 11.1117 59.3149Q11.5199 59.3995 11.936 59.4739Q12.352 59.5483 12.7749 59.6125Q13.1977 59.6766 13.6264 59.7303Q14.055 59.784 14.4884 59.8271Q14.9218 59.8702 15.3589 59.9026Q15.7959 59.935 16.2357 59.9567Q16.6754 59.9783 17.1168 59.9892Q17.5581 60 18 60L102 60Q102.442 60 102.883 59.9892Q103.325 59.9783 103.764 59.9567Q104.204 59.935 104.641 59.9026Q105.078 59.8702 105.512 59.8271Q105.945 59.784 106.374 59.7303Q106.802 59.6766 107.225 59.6125Q107.648 59.5483 108.064 59.4739Q108.48 59.3995 108.888 59.3149Q109.297 59.2304 109.696 59.1359Q110.095 59.0414 110.485 58.9373Q110.875 58.8331 111.254 58.7196Q111.633 58.606 112 58.4832Q112.368 58.3605 112.723 58.2289Q113.077 58.0972 113.419 57.9571Q113.761 57.8169 114.088 57.6686Q114.415 57.5202 114.728 57.364Q115.04 57.2077 115.337 57.044Q115.634 56.8803 115.914 56.7095Q116.195 56.5387 116.458 56.3613Q116.721 56.1838 116.966 56.0001Q117.212 55.8164 117.439 55.6269Q117.666 55.4374 117.875 55.2426Q118.083 55.0477 118.272 54.848Q118.461 54.6483 118.63 54.4441Q118.799 54.24 118.948 54.032Q119.097 53.824 119.225 53.6126Q119.353 53.4011 119.461 53.1868Q119.568 52.9725 119.654 52.7558Q119.74 52.5391 119.805 52.3206Q119.87 52.102 119.913 51.8822Q119.957 51.6623 119.978 51.4416Q120 51.2209 120 51L120 9Q120 8.77906 119.978 8.55839Q119.957 8.33772 119.913 8.11785Q119.87 7.89797 119.805 7.67943Q119.74 7.46088 119.654 7.24419Q119.568 7.02749 119.461 6.81318Q119.353 6.59886 119.225 6.38744Q119.097 6.17601 118.948 5.96799Q118.799 5.75997 118.63 5.55585Q118.461 5.35173 118.272 5.152Q118.083 4.95228 117.875 4.75743Q117.666 4.56258 117.439 4.37308Q117.212 4.18357 116.966 3.99987Q116.721 3.81616 116.458 3.63871Q116.194 3.46125 115.914 3.29046Q115.634 3.11967 115.337 2.95597Q115.04 2.79227 114.728 2.63604Q114.415 2.47981 114.088 2.33144Q113.761 2.18307 113.419 2.04291Q113.077 1.90274 112.723 1.77113Q112.368 1.63952 112 1.51677Q111.633 1.39403 111.254 1.28044Q110.875 1.16686 110.485 1.06271Q110.095 0.958559 109.696 0.864096Q109.297 0.769633 108.888 0.685084Q108.48 0.600535 108.064 0.526103Q107.648 0.451672 107.225 0.387537Q106.802 0.323402 106.374 0.269719Q105.945 0.216035 105.512 0.172932Q105.078 0.12983 104.641 0.0974114Q104.204 0.0649931 103.764 0.0433375Q103.325 0.0216818 102.883 0.0108409Q102.442 0 102 0L18 0Q17.5581 0 17.1168 0.0108409Q16.6754 0.0216818 16.2357 0.0433375Q15.7959 0.0649931 15.3589 0.0974114Q14.9218 0.12983 14.4884 0.172932Q14.055 0.216035 13.6264 0.269719Q13.1977 0.323402 12.7749 0.387537Q12.352 0.451672 11.936 0.526103Q11.5199 0.600535 11.1117 0.685084Q10.7035 0.769633 10.304 0.864096Q9.90456 0.958559 9.51486 1.06271Q9.12516 1.16686 8.74615 1.28044Q8.36714 1.39403 7.99973 1.51677Q7.63233 1.63952 7.27741 1.77113Q6.92249 1.90274 6.58092 2.04291Q6.23935 2.18307 5.91194 2.33144Q5.58453 2.47981 5.27208 2.63604Q4.95962 2.79227 4.66288 2.95597Q4.36613 3.11967 4.08581 3.29046Q3.80549 3.46125 3.54226 3.63871Q3.27904 3.81616 3.03355 3.99987Q2.78805 4.18357 2.56088 4.37307Q2.33372 4.56258 2.12542 4.75743Q1.91712 4.95228 1.72819 5.152Q1.53927 5.35173 1.37017 5.55585Q1.20107 5.75997 1.05221 5.96799Q0.903343 6.17601 0.775074 6.38744Q0.646804 6.59886 0.539437 6.81318Q0.43207 7.02749 0.345865 7.24419Q0.259659 7.46088 0.194823 7.67943Q0.129986 7.89797 0.0866749 8.11785Q0.0433636 8.33772 0.0216818 8.55839Q0 8.77906 0 9ZM19 0L19 60M0 17L120 17"/>    
</g>
</svg>