<svg xmlns="http://www.w3.org/2000/svg" version="1.1" xmlns:xlink="http://www.w3.org/1999/xlink" xmlns:svgjs="http://svgjs.dev/svgjs" width="130" height="70" viewbox="0 0 130 70"   shape-rendering="geometricPrecision">
<g id="f53a6420e2144650aab070caff200cfa" transform="translate(5, 5) ">
    <path fill="#FFFFFFFF" stroke="#323232FF" stroke-width="2" d="M0 30L0 30Q0 30.7365 0.0361363 31.472Q0.0722726 32.2076 0.144458 32.9405Q0.216644 33.6734 0.324705 34.4019Q0.432766 35.1304 0.576441 35.8527Q0.720117 36.575 0.899062 37.2894Q1.07801 38.0038 1.29179 38.7085Q1.50557 39.4133 1.75368 40.1067Q2.00178 40.8001 2.28361 41.4805Q2.56544 42.1609 2.88032 42.8266Q3.1952 43.4924 3.54236 44.1419Q3.88953 44.7914 4.26814 45.4231Q4.64676 46.0548 5.05591 46.6671Q5.46507 47.2794 5.90377 47.871Q6.34248 48.4625 6.80969 49.0318Q7.27689 49.6011 7.77147 50.1468Q8.26604 50.6924 8.7868 51.2132Q9.30755 51.7339 9.85323 52.2285Q10.3989 52.7231 10.9682 53.1903Q11.5375 53.6575 12.129 54.0962Q12.7205 54.5349 13.3329 54.9441Q13.9452 55.3532 14.5769 55.7318Q15.2086 56.1105 15.8581 56.4576Q16.5076 56.8048 17.1733 57.1197Q17.8391 57.4345 18.5195 57.7164Q19.1999 57.9982 19.8933 58.2463Q20.5867 58.4944 21.2915 58.7082Q21.9962 58.922 22.7106 59.1009Q23.425 59.2799 24.1473 59.4236Q24.8696 59.5672 25.5981 59.6753Q26.3266 59.7834 27.0595 59.8555Q27.7924 59.9277 28.528 59.9639Q29.2635 60 30 60L90 60Q90.7365 60 91.472 59.9639Q92.2076 59.9277 92.9405 59.8555Q93.6734 59.7834 94.4019 59.6753Q95.1304 59.5672 95.8527 59.4236Q96.575 59.2799 97.2894 59.1009Q98.0038 58.922 98.7085 58.7082Q99.4133 58.4944 100.107 58.2463Q100.8 57.9982 101.48 57.7164Q102.161 57.4345 102.827 57.1197Q103.492 56.8048 104.142 56.4576Q104.791 56.1105 105.423 55.7318Q106.055 55.3532 106.667 54.9441Q107.279 54.5349 107.871 54.0962Q108.462 53.6575 109.032 53.1903Q109.601 52.7231 110.147 52.2285Q110.692 51.734 111.213 51.2132Q111.734 50.6924 112.229 50.1468Q112.723 49.6011 113.19 49.0318Q113.658 48.4625 114.096 47.871Q114.535 47.2794 114.944 46.6671Q115.353 46.0548 115.732 45.4231Q116.11 44.7914 116.458 44.1419Q116.805 43.4924 117.12 42.8266Q117.435 42.1609 117.716 41.4805Q117.998 40.8001 118.246 40.1067Q118.494 39.4133 118.708 38.7085Q118.922 38.0038 119.101 37.2894Q119.28 36.575 119.424 35.8527Q119.567 35.1304 119.675 34.4019Q119.783 33.6734 119.856 32.9405Q119.928 32.2076 119.964 31.472Q120 30.7365 120 30L120 30Q120 29.2635 119.964 28.528Q119.928 27.7924 119.856 27.0595Q119.783 26.3266 119.675 25.5981Q119.567 24.8696 119.424 24.1473Q119.28 23.425 119.101 22.7106Q118.922 21.9962 118.708 21.2915Q118.494 20.5867 118.246 19.8933Q117.998 19.1999 117.716 18.5195Q117.435 17.8391 117.12 17.1733Q116.805 16.5076 116.458 15.8581Q116.11 15.2086 115.732 14.5769Q115.353 13.9452 114.944 13.3329Q114.535 12.7205 114.096 12.129Q113.658 11.5375 113.19 10.9682Q112.723 10.3989 112.229 9.85323Q111.734 9.30755 111.213 8.7868Q110.692 8.26604 110.147 7.77147Q109.601 7.27689 109.032 6.80969Q108.462 6.34248 107.871 5.90377Q107.279 5.46507 106.667 5.05591Q106.055 4.64676 105.423 4.26814Q104.791 3.88953 104.142 3.54236Q103.492 3.1952 102.827 2.88032Q102.161 2.56544 101.48 2.28361Q100.8 2.00178 100.107 1.75368Q99.4133 1.50557 98.7085 1.29179Q98.0038 1.07801 97.2894 0.899062Q96.575 0.720117 95.8527 0.576441Q95.1304 0.432766 94.4019 0.324705Q93.6734 0.216644 92.9405 0.144458Q92.2076 0.0722726 91.472 0.0361363Q90.7365 0 90 0L30 0Q29.2635 0 28.528 0.0361363Q27.7924 0.0722726 27.0595 0.144458Q26.3266 0.216644 25.5981 0.324705Q24.8696 0.432766 24.1473 0.576441Q23.425 0.720117 22.7106 0.899062Q21.9962 1.07801 21.2915 1.29179Q20.5867 1.50557 19.8933 1.75368Q19.1999 2.00178 18.5195 2.28361Q17.8391 2.56544 17.1733 2.88032Q16.5076 3.1952 15.8581 3.54236Q15.2086 3.88953 14.5769 4.26814Q13.9452 4.64676 13.3329 5.05591Q12.7205 5.46507 12.129 5.90377Q11.5375 6.34248 10.9682 6.80969Q10.3989 7.27689 9.85323 7.77147Q9.30755 8.26604 8.7868 8.7868Q8.26604 9.30755 7.77147 9.85323Q7.27689 10.3989 6.80969 10.9682Q6.34248 11.5375 5.90377 12.129Q5.46507 12.7205 5.05591 13.3329Q4.64676 13.9452 4.26814 14.5769Q3.88953 15.2086 3.54236 15.8581Q3.1952 16.5076 2.88032 17.1733Q2.56544 17.8391 2.28361 18.5195Q2.00178 19.1999 1.75368 19.8933Q1.50557 20.5867 1.29179 21.2915Q1.07801 21.9962 0.899062 22.7106Q0.720117 23.425 0.576441 24.1473Q0.432766 24.8696 0.324705 25.5981Q0.216644 26.3266 0.144458 27.0595Q0.0722726 27.7924 0.0361363 28.528Q0 29.2635 0 30Z"/>    
</g>
</svg>