<svg xmlns="http://www.w3.org/2000/svg" version="1.1" xmlns:xlink="http://www.w3.org/1999/xlink" xmlns:svgjs="http://svgjs.dev/svgjs" width="110" height="110" viewbox="0 0 110 110"   shape-rendering="geometricPrecision">
<g id="4c93383a72434818b826dc5059628c90" transform="translate(5, 5) ">
    <path fill="#FFFFFFFF" stroke="#323232FF" stroke-width="2" d="M50 0Q48.7726 0 47.5466 0.0602272Q46.3207 0.120454 45.0991 0.240764Q43.8776 0.361073 42.6635 0.541174Q41.4493 0.721276 40.2455 0.960736Q39.0416 1.2002 37.851 1.49844Q36.6603 1.79668 35.4858 2.15298Q34.3112 2.50929 33.1555 2.9228Q31.9998 3.33631 30.8658 3.80602Q29.7318 4.27574 28.6222 4.80053Q27.5127 5.32533 26.4302 5.90394Q25.3477 6.48254 24.2949 7.11357Q23.2421 7.74459 22.2215 8.42652Q21.2009 9.10844 20.215 9.83962Q19.2292 10.5708 18.2803 11.3495Q17.3315 12.1282 16.4221 12.9524Q15.5126 13.7767 14.6447 14.6447Q13.7767 15.5126 12.9524 16.4221Q12.1282 17.3315 11.3495 18.2803Q10.5708 19.2292 9.83962 20.215Q9.10844 21.2009 8.42652 22.2215Q7.74459 23.2421 7.11357 24.2949Q6.48254 25.3477 5.90394 26.4302Q5.32533 27.5127 4.80054 28.6222Q4.27574 29.7318 3.80602 30.8658Q3.33631 31.9998 2.9228 33.1555Q2.50929 34.3112 2.15298 35.4858Q1.79668 36.6603 1.49844 37.851Q1.2002 39.0416 0.960736 40.2455Q0.721276 41.4493 0.541174 42.6635Q0.361073 43.8776 0.240764 45.0991Q0.120454 46.3207 0.0602272 47.5466Q0 48.7726 0 50Q0 51.2274 0.0602272 52.4534Q0.120454 53.6793 0.240764 54.9009Q0.361073 56.1224 0.541174 57.3365Q0.721276 58.5507 0.960736 59.7545Q1.2002 60.9584 1.49844 62.149Q1.79668 63.3397 2.15298 64.5142Q2.50929 65.6888 2.9228 66.8445Q3.33631 68.0002 3.80602 69.1342Q4.27574 70.2682 4.80053 71.3777Q5.32533 72.4873 5.90394 73.5698Q6.48254 74.6523 7.11357 75.7051Q7.74459 76.7579 8.42652 77.7785Q9.10844 78.7991 9.83962 79.785Q10.5708 80.7708 11.3495 81.7197Q12.1282 82.6685 12.9524 83.5779Q13.7767 84.4874 14.6447 85.3553Q15.5126 86.2233 16.4221 87.0476Q17.3315 87.8718 18.2803 88.6505Q19.2292 89.4292 20.215 90.1604Q21.2009 90.8915 22.2215 91.5735Q23.2421 92.2554 24.2949 92.8864Q25.3477 93.5174 26.4302 94.0961Q27.5127 94.6747 28.6222 95.1995Q29.7318 95.7242 30.8658 96.194Q31.9998 96.6637 33.1555 97.0772Q34.3112 97.4907 35.4858 97.847Q36.6603 98.2033 37.851 98.5015Q39.0416 98.7998 40.2455 99.0393Q41.4493 99.2787 42.6635 99.4588Q43.8776 99.6389 45.0991 99.7592Q46.3207 99.8795 47.5466 99.9398Q48.7726 100 50 100Q51.2274 100 52.4534 99.9398Q53.6793 99.8795 54.9009 99.7592Q56.1224 99.6389 57.3365 99.4588Q58.5507 99.2787 59.7545 99.0393Q60.9584 98.7998 62.149 98.5015Q63.3397 98.2033 64.5142 97.847Q65.6888 97.4907 66.8445 97.0772Q68.0002 96.6637 69.1342 96.194Q70.2682 95.7242 71.3777 95.1995Q72.4873 94.6747 73.5698 94.0961Q74.6523 93.5175 75.7051 92.8864Q76.7579 92.2554 77.7785 91.5735Q78.7991 90.8915 79.785 90.1604Q80.7708 89.4292 81.7197 88.6505Q82.6685 87.8718 83.5779 87.0475Q84.4874 86.2233 85.3553 85.3553Q86.2233 84.4874 87.0476 83.5779Q87.8718 82.6685 88.6505 81.7197Q89.4292 80.7708 90.1604 79.785Q90.8915 78.7991 91.5735 77.7785Q92.2554 76.7579 92.8864 75.7051Q93.5174 74.6523 94.0961 73.5698Q94.6747 72.4873 95.1995 71.3777Q95.7242 70.2682 96.194 69.1342Q96.6637 68.0002 97.0772 66.8445Q97.4907 65.6888 97.847 64.5142Q98.2033 63.3397 98.5015 62.149Q98.7998 60.9584 99.0393 59.7545Q99.2787 58.5507 99.4588 57.3365Q99.6389 56.1224 99.7592 54.9009Q99.8795 53.6793 99.9398 52.4534Q100 51.2274 100 50Q100 48.7726 99.9398 47.5466Q99.8795 46.3207 99.7592 45.0991Q99.6389 43.8776 99.4588 42.6635Q99.2787 41.4493 99.0393 40.2455Q98.7998 39.0416 98.5015 37.851Q98.2033 36.6603 97.847 35.4858Q97.4907 34.3112 97.0772 33.1555Q96.6637 31.9998 96.194 30.8658Q95.7242 29.7318 95.1995 28.6222Q94.6747 27.5127 94.0961 26.4302Q93.5175 25.3477 92.8864 24.2949Q92.2554 23.2421 91.5735 22.2215Q90.8915 21.2009 90.1604 20.215Q89.4292 19.2292 88.6505 18.2803Q87.8718 17.3315 87.0475 16.4221Q86.2233 15.5126 85.3553 14.6447Q84.4874 13.7767 83.5779 12.9524Q82.6685 12.1282 81.7197 11.3495Q80.7708 10.5708 79.785 9.83962Q78.7991 9.10844 77.7785 8.42652Q76.7579 7.74459 75.7051 7.11357Q74.6523 6.48254 73.5698 5.90394Q72.4873 5.32533 71.3777 4.80054Q70.2682 4.27574 69.1342 3.80602Q68.0002 3.33631 66.8445 2.9228Q65.6888 2.50929 64.5142 2.15298Q63.3397 1.79668 62.149 1.49844Q60.9584 1.2002 59.7545 0.960736Q58.5507 0.721276 57.3365 0.541174Q56.1224 0.361073 54.9009 0.240764Q53.6793 0.120454 52.4534 0.0602272Q51.2274 0 50 0Z"/>    
</g>
</svg>