<svg xmlns="http://www.w3.org/2000/svg" version="1.1" xmlns:xlink="http://www.w3.org/1999/xlink" xmlns:svgjs="http://svgjs.dev/svgjs" width="110" height="110" viewbox="0 0 110 110"   shape-rendering="geometricPrecision">
<g id="a5a4fea413d745b9ada9a97dbf25bbf1" transform="translate(5, 5) ">
    <path fill="#FFFFFFFF" stroke="#323232FF" stroke-width="2" d="M0 0M0 0Q0.245486 0 0.490677 0.0120454Q0.735867 0.0240909 0.980171 0.0481527Q1.22448 0.0722146 1.4673 0.108235Q1.71013 0.144255 1.9509 0.192147Q2.19167 0.240039 2.4298 0.299687Q2.66793 0.359336 2.90285 0.430597Q3.13776 0.501857 3.3689 0.584559Q3.60003 0.667261 3.82683 0.761205Q4.05363 0.855148 4.27555 0.960107Q4.49747 1.06507 4.71397 1.18079Q4.93047 1.29651 5.14103 1.42271Q5.35159 1.54892 5.5557 1.6853Q5.75982 1.82169 5.95699 1.96792Q6.15417 2.11416 6.34393 2.2699Q6.5337 2.42563 6.71559 2.59049Q6.89748 2.75535 7.07107 2.92893Q7.24465 3.10252 7.40951 3.28441Q7.57437 3.4663 7.7301 3.65607Q7.88584 3.84583 8.03207 4.04301Q8.17831 4.24018 8.3147 4.4443Q8.45108 4.64841 8.57729 4.85897Q8.70349 5.06953 8.81921 5.28603Q8.93493 5.50253 9.03989 5.72445Q9.14485 5.94637 9.23879 6.17316Q9.33274 6.39996 9.41544 6.6311Q9.49814 6.86224 9.5694 7.09715Q9.64067 7.33207 9.70031 7.5702Q9.75996 7.80833 9.80785 8.0491Q9.85574 8.28987 9.89176 8.53269Q9.92778 8.77552 9.95185 9.01983Q9.97591 9.26413 9.98796 9.50932Q10 9.75451 10 10L10 40M20 50M20 50Q19.7545 50 19.5093 49.988Q19.2641 49.9759 19.0198 49.9518Q18.7755 49.9278 18.5327 49.8918Q18.2899 49.8557 18.0491 49.8078Q17.8083 49.76 17.5702 49.7003Q17.3321 49.6407 17.0972 49.5694Q16.8622 49.4981 16.6311 49.4154Q16.4 49.3327 16.1732 49.2388Q15.9464 49.1448 15.7244 49.0399Q15.5025 48.9349 15.286 48.8192Q15.0695 48.7035 14.859 48.5773Q14.6484 48.4511 14.4443 48.3147Q14.2402 48.1783 14.043 48.0321Q13.8458 47.8858 13.6561 47.7301Q13.4663 47.5744 13.2844 47.4095Q13.1025 47.2447 12.9289 47.0711Q12.7553 46.8975 12.5905 46.7156Q12.4256 46.5337 12.2699 46.3439Q12.1142 46.1542 11.9679 45.957Q11.8217 45.7598 11.6853 45.5557Q11.5489 45.3516 11.4227 45.141Q11.2965 44.9305 11.1808 44.714Q11.0651 44.4975 10.9601 44.2755Q10.8551 44.0536 10.7612 43.8268Q10.6673 43.6 10.5846 43.3689Q10.5019 43.1378 10.4306 42.9028Q10.3593 42.6679 10.2997 42.4298Q10.24 42.1917 10.1921 41.9509Q10.1443 41.7101 10.1082 41.4673Q10.0722 41.2245 10.0482 40.9802Q10.0241 40.7359 10.012 40.4907Q10 40.2455 10 40M10 60M10 60Q10 59.7545 10.012 59.5093Q10.0241 59.2641 10.0482 59.0198Q10.0722 58.7755 10.1082 58.5327Q10.1443 58.2899 10.1921 58.0491Q10.24 57.8083 10.2997 57.5702Q10.3593 57.3321 10.4306 57.0972Q10.5019 56.8622 10.5846 56.6311Q10.6673 56.4 10.7612 56.1732Q10.8551 55.9464 10.9601 55.7244Q11.0651 55.5025 11.1808 55.286Q11.2965 55.0695 11.4227 54.859Q11.5489 54.6484 11.6853 54.4443Q11.8217 54.2402 11.9679 54.043Q12.1142 53.8458 12.2699 53.6561Q12.4256 53.4663 12.5905 53.2844Q12.7553 53.1025 12.9289 52.9289Q13.1025 52.7553 13.2844 52.5905Q13.4663 52.4256 13.6561 52.2699Q13.8458 52.1142 14.043 51.9679Q14.2402 51.8217 14.4443 51.6853Q14.6484 51.5489 14.859 51.4227Q15.0695 51.2965 15.286 51.1808Q15.5025 51.0651 15.7244 50.9601Q15.9464 50.8551 16.1732 50.7612Q16.4 50.6673 16.6311 50.5846Q16.8622 50.5019 17.0972 50.4306Q17.3321 50.3593 17.5702 50.2997Q17.8083 50.24 18.0491 50.1921Q18.2899 50.1443 18.5327 50.1082Q18.7755 50.0722 19.0198 50.0482Q19.2641 50.0241 19.5093 50.012Q19.7545 50 20 50M10 60L10 90M10 90Q10 90.2455 9.98796 90.4907Q9.97591 90.7359 9.95185 90.9802Q9.92779 91.2245 9.89176 91.4673Q9.85574 91.7101 9.80785 91.9509Q9.75996 92.1917 9.70031 92.4298Q9.64067 92.6679 9.5694 92.9028Q9.49814 93.1378 9.41544 93.3689Q9.33274 93.6 9.2388 93.8268Q9.14485 94.0536 9.03989 94.2755Q8.93493 94.4975 8.81921 94.714Q8.70349 94.9305 8.57729 95.141Q8.45108 95.3516 8.3147 95.5557Q8.17831 95.7598 8.03208 95.957Q7.88584 96.1542 7.73011 96.3439Q7.57437 96.5337 7.40951 96.7156Q7.24465 96.8975 7.07107 97.0711Q6.89748 97.2446 6.71559 97.4095Q6.5337 97.5744 6.34393 97.7301Q6.15417 97.8858 5.95699 98.0321Q5.75982 98.1783 5.5557 98.3147Q5.35159 98.4511 5.14103 98.5773Q4.93047 98.7035 4.71397 98.8192Q4.49747 98.9349 4.27555 99.0399Q4.05363 99.1448 3.82683 99.2388Q3.60003 99.3327 3.3689 99.4154Q3.13776 99.4981 2.90285 99.5694Q2.66793 99.6407 2.4298 99.7003Q2.19167 99.7599 1.9509 99.8078Q1.71013 99.8557 1.4673 99.8918Q1.22448 99.9278 0.980171 99.9518Q0.735867 99.9759 0.490677 99.9879Q0.245486 100 0 100"/>    
</g>
</svg>