<svg xmlns="http://www.w3.org/2000/svg" version="1.1" xmlns:xlink="http://www.w3.org/1999/xlink" xmlns:svgjs="http://svgjs.dev/svgjs" width="110" height="110" viewbox="0 0 110 110"   shape-rendering="geometricPrecision">
<g id="25713307923c46cab027a95f15309da3" transform="translate(5, 5) ">
    <path fill="#FFFFFFFF" stroke="#323232FF" stroke-width="2" d="M90 10M90 10Q90 9.75451 90.012 9.50932Q90.0241 9.26413 90.0482 9.01983Q90.0722 8.77552 90.1082 8.53269Q90.1443 8.28987 90.1921 8.0491Q90.24 7.80833 90.2997 7.5702Q90.3593 7.33207 90.4306 7.09715Q90.5018 6.86224 90.5845 6.6311Q90.6673 6.39996 90.7612 6.17317Q90.8551 5.94637 90.9601 5.72445Q91.0651 5.50253 91.1808 5.28603Q91.2965 5.06953 91.4227 4.85897Q91.5489 4.64841 91.6853 4.4443Q91.8217 4.24018 91.9679 4.04301Q92.1142 3.84583 92.2699 3.65607Q92.4256 3.4663 92.5905 3.28441Q92.7553 3.10252 92.9289 2.92893Q93.1025 2.75535 93.2844 2.59049Q93.4663 2.42563 93.6561 2.2699Q93.8458 2.11416 94.043 1.96792Q94.2402 1.82169 94.4443 1.6853Q94.6484 1.54892 94.859 1.42271Q95.0695 1.29651 95.286 1.18079Q95.5025 1.06507 95.7244 0.960107Q95.9464 0.855148 96.1732 0.761205Q96.4 0.667261 96.6311 0.584559Q96.8622 0.501857 97.0972 0.430597Q97.3321 0.359336 97.5702 0.299687Q97.8083 0.240039 98.0491 0.192147Q98.2899 0.144255 98.5327 0.108235Q98.7755 0.0722146 99.0198 0.0481527Q99.2641 0.0240909 99.5093 0.0120454Q99.7545 0 100 0M90 10L90 40M90 40Q90 40.2455 89.988 40.4907Q89.9759 40.7359 89.9519 40.9802Q89.9278 41.2245 89.8918 41.4673Q89.8557 41.7101 89.8078 41.9509Q89.7599 42.1917 89.7003 42.4298Q89.6407 42.6679 89.5694 42.9028Q89.4981 43.1378 89.4154 43.3689Q89.3327 43.6 89.2388 43.8268Q89.1448 44.0536 89.0399 44.2755Q88.9349 44.4975 88.8192 44.714Q88.7035 44.9305 88.5773 45.141Q88.4511 45.3516 88.3147 45.5557Q88.1783 45.7598 88.0321 45.957Q87.8858 46.1542 87.7301 46.3439Q87.5744 46.5337 87.4095 46.7156Q87.2446 46.8975 87.0711 47.0711Q86.8975 47.2447 86.7156 47.4095Q86.5337 47.5744 86.3439 47.7301Q86.1542 47.8858 85.957 48.0321Q85.7598 48.1783 85.5557 48.3147Q85.3516 48.4511 85.141 48.5773Q84.9305 48.7035 84.714 48.8192Q84.4975 48.9349 84.2755 49.0399Q84.0536 49.1448 83.8268 49.2388Q83.6 49.3327 83.3689 49.4154Q83.1378 49.4981 82.9028 49.5694Q82.6679 49.6407 82.4298 49.7003Q82.1917 49.76 81.9509 49.8078Q81.7101 49.8557 81.4673 49.8918Q81.2245 49.9278 80.9802 49.9518Q80.7359 49.9759 80.4907 49.988Q80.2455 50 80 50M80 50Q80.2455 50 80.4907 50.012Q80.7359 50.0241 80.9802 50.0482Q81.2245 50.0722 81.4673 50.1082Q81.7101 50.1443 81.9509 50.1921Q82.1917 50.24 82.4298 50.2997Q82.6679 50.3593 82.9028 50.4306Q83.1378 50.5019 83.3689 50.5846Q83.6 50.6673 83.8268 50.7612Q84.0536 50.8551 84.2755 50.9601Q84.4975 51.0651 84.714 51.1808Q84.9305 51.2965 85.141 51.4227Q85.3516 51.5489 85.5557 51.6853Q85.7598 51.8217 85.957 51.9679Q86.1542 52.1142 86.3439 52.2699Q86.5337 52.4256 86.7156 52.5905Q86.8975 52.7553 87.0711 52.9289Q87.2446 53.1025 87.4095 53.2844Q87.5744 53.4663 87.7301 53.6561Q87.8858 53.8458 88.0321 54.043Q88.1783 54.2402 88.3147 54.4443Q88.4511 54.6484 88.5773 54.859Q88.7035 55.0695 88.8192 55.286Q88.9349 55.5025 89.0399 55.7244Q89.1448 55.9464 89.2388 56.1732Q89.3327 56.4 89.4154 56.6311Q89.4981 56.8622 89.5694 57.0971Q89.6407 57.3321 89.7003 57.5702Q89.7599 57.8083 89.8078 58.0491Q89.8557 58.2899 89.8918 58.5327Q89.9278 58.7755 89.9519 59.0198Q89.9759 59.2641 89.988 59.5093Q90 59.7545 90 60L90 90M100 100Q99.7545 100 99.5093 99.988Q99.2641 99.9759 99.0198 99.9519Q98.7755 99.9278 98.5327 99.8918Q98.2899 99.8557 98.0491 99.8078Q97.8083 99.7599 97.5702 99.7003Q97.3321 99.6407 97.0971 99.5694Q96.8622 99.4981 96.6311 99.4154Q96.3999 99.3327 96.1731 99.2388Q95.9464 99.1448 95.7244 99.0399Q95.5025 98.9349 95.286 98.8192Q95.0695 98.7035 94.859 98.5773Q94.6484 98.4511 94.4443 98.3147Q94.2402 98.1783 94.043 98.0321Q93.8458 97.8858 93.6561 97.7301Q93.4663 97.5744 93.2844 97.4095Q93.1025 97.2446 92.9289 97.0711Q92.7553 96.8975 92.5905 96.7156Q92.4256 96.5337 92.2699 96.3439Q92.1142 96.1542 91.9679 95.957Q91.8217 95.7598 91.6853 95.5557Q91.5489 95.3516 91.4227 95.141Q91.2965 94.9305 91.1808 94.714Q91.0651 94.4975 90.9601 94.2755Q90.8551 94.0536 90.7612 93.8268Q90.6673 93.6 90.5845 93.3689Q90.5018 93.1378 90.4306 92.9028Q90.3593 92.6679 90.2997 92.4298Q90.24 92.1917 90.1921 91.9509Q90.1442 91.7101 90.1082 91.4673Q90.0722 91.2245 90.0482 90.9802Q90.0241 90.7359 90.012 90.4907Q90 90.2455 90 90"/>    
</g>
</svg>