<svg xmlns="http://www.w3.org/2000/svg" version="1.1" xmlns:xlink="http://www.w3.org/1999/xlink" xmlns:svgjs="http://svgjs.dev/svgjs" width="110" height="70" viewbox="0 0 110 70"   shape-rendering="geometricPrecision">
<g id="fb0b5575a45c410fa00b7cbf4a6cf592" transform="translate(5, 5) ">
    <path fill="#FFFFFFFF" stroke="#323232FF" stroke-width="2" d="M100 30Q100 30.7365 99.9849 31.472Q99.9699 32.2076 99.9398 32.9405Q99.9097 33.6734 99.8647 34.4019Q99.8197 35.1304 99.7598 35.8527Q99.6999 36.575 99.6254 37.2894Q99.5508 38.0038 99.4617 38.7085Q99.3727 39.4133 99.2693 40.1067Q99.1659 40.8001 99.0485 41.4805Q98.931 42.1609 98.7999 42.8266Q98.6687 43.4924 98.524 44.1419Q98.3793 44.7914 98.2216 45.4231Q98.0638 46.0548 97.8934 46.6671Q97.7229 47.2794 97.5401 47.871Q97.3573 48.4625 97.1626 49.0318Q96.968 49.6011 96.7619 50.1468Q96.5558 50.6924 96.3388 51.2132Q96.1218 51.7339 95.8945 52.2285Q95.6671 52.7231 95.4299 53.1903Q95.1927 53.6575 94.9462 54.0962Q94.6998 54.5349 94.4446 54.9441Q94.1895 55.3532 93.9263 55.7318Q93.6631 56.1105 93.3924 56.4576Q93.1218 56.8048 92.8444 57.1197Q92.567 57.4345 92.2835 57.7164Q92 57.9982 91.7111 58.2463Q91.4222 58.4944 91.1286 58.7082Q90.8349 58.922 90.5372 59.1009Q90.2396 59.2799 89.9386 59.4236Q89.6377 59.5672 89.3341 59.6753Q89.0306 59.7834 88.7252 59.8555Q88.4198 59.9277 88.1133 59.9639Q87.8069 60 87.5 60Q87.1931 60 86.8867 59.9639Q86.5802 59.9277 86.2748 59.8555Q85.9694 59.7834 85.6659 59.6753Q85.3623 59.5672 85.0614 59.4236Q84.7604 59.2799 84.4627 59.1009Q84.1651 58.922 83.8714 58.7082Q83.5778 58.4944 83.2889 58.2463Q82.9999 57.9982 82.7164 57.7164Q82.4329 57.4345 82.1555 57.1197Q81.8782 56.8048 81.6075 56.4576Q81.3369 56.1105 81.0737 55.7318Q80.8105 55.3532 80.5554 54.9441Q80.3002 54.5349 80.0537 54.0962Q79.8073 53.6575 79.5701 53.1903Q79.3329 52.7231 79.1055 52.2285Q78.8781 51.734 78.6612 51.2132Q78.4442 50.6924 78.2381 50.1468Q78.032 49.6011 77.8374 49.0318Q77.6427 48.4625 77.4599 47.871Q77.2771 47.2794 77.1066 46.6671Q76.9361 46.0548 76.7784 45.4231Q76.6206 44.7914 76.476 44.1419Q76.3313 43.4924 76.2001 42.8266Q76.0689 42.1609 75.9515 41.4805Q75.8341 40.8001 75.7307 40.1067Q75.6273 39.4133 75.5382 38.7085Q75.4492 38.0038 75.3746 37.2894Q75.3 36.575 75.2402 35.8527Q75.1803 35.1304 75.1353 34.4019Q75.0903 33.6734 75.0602 32.9405Q75.0301 32.2076 75.0151 31.472Q75 30.7365 75 30Q75 29.2635 75.0151 28.528Q75.0301 27.7924 75.0602 27.0595Q75.0903 26.3266 75.1353 25.5981Q75.1803 24.8696 75.2402 24.1473Q75.3 23.425 75.3746 22.7106Q75.4492 21.9962 75.5382 21.2915Q75.6273 20.5867 75.7307 19.8933Q75.8341 19.1999 75.9515 18.5195Q76.0689 17.8391 76.2001 17.1733Q76.3313 16.5076 76.476 15.8581Q76.6206 15.2086 76.7784 14.5769Q76.9361 13.9452 77.1066 13.3329Q77.2771 12.7205 77.4599 12.129Q77.6427 11.5375 77.8374 10.9682Q78.032 10.3989 78.2381 9.85323Q78.4442 9.30755 78.6612 8.7868Q78.8781 8.26604 79.1055 7.77147Q79.3329 7.27689 79.5701 6.80969Q79.8073 6.34248 80.0537 5.90377Q80.3002 5.46507 80.5554 5.05591Q80.8105 4.64676 81.0737 4.26814Q81.3369 3.88953 81.6075 3.54236Q81.8782 3.1952 82.1556 2.88032Q82.433 2.56544 82.7165 2.28361Q83 2.00178 83.2889 1.75368Q83.5778 1.50557 83.8714 1.29179Q84.1651 1.07801 84.4628 0.899062Q84.7604 0.720117 85.0614 0.576441Q85.3623 0.432766 85.6659 0.324705Q85.9694 0.216644 86.2748 0.144458Q86.5802 0.0722726 86.8867 0.0361363Q87.1931 0 87.5 0Q87.8069 0 88.1133 0.0361363Q88.4198 0.0722726 88.7252 0.144458Q89.0306 0.216644 89.3341 0.324705Q89.6377 0.432766 89.9386 0.576441Q90.2396 0.720117 90.5372 0.899062Q90.8349 1.07801 91.1286 1.29179Q91.4222 1.50557 91.7111 1.75368Q92 2.00178 92.2835 2.28361Q92.567 2.56544 92.8444 2.88032Q93.1218 3.1952 93.3925 3.54236Q93.6631 3.88953 93.9263 4.26814Q94.1895 4.64676 94.4446 5.05591Q94.6998 5.46507 94.9462 5.90377Q95.1927 6.34248 95.4299 6.80969Q95.6671 7.27689 95.8945 7.77147Q96.1218 8.26604 96.3388 8.7868Q96.5558 9.30755 96.7619 9.85323Q96.968 10.3989 97.1626 10.9682Q97.3573 11.5375 97.5401 12.129Q97.7229 12.7205 97.8934 13.3329Q98.0638 13.9452 98.2216 14.5769Q98.3793 15.2086 98.524 15.8581Q98.6687 16.5076 98.7999 17.1733Q98.931 17.8391 99.0485 18.5195Q99.1659 19.1999 99.2693 19.8933Q99.3727 20.5867 99.4617 21.2915Q99.5508 21.9962 99.6254 22.7106Q99.6999 23.425 99.7598 24.1473Q99.8197 24.8696 99.8647 25.5981Q99.9097 26.3266 99.9398 27.0595Q99.9699 27.7924 99.9849 28.528Q100 29.2635 100 30ZM12.5 0L87.5 0C70.8333 0 70.8333 60 87.5 60L12.5 60C-4.16667 60 -4.16667 0 12.5 0"/>    
</g>
</svg>